# Blender v2.82 (sub 7) OBJ File: 'low_poly_mushrooms.blend'
# www.blender.org
mtllib brown-cap_boletus.mtl
o brown-cap_boletus_Cylinder.018
v 0.006133 0.000135 -0.010536
v 0.015742 0.298763 0.000827
v -0.015254 0.000135 -0.015016
v -0.004951 0.303374 -0.002587
v -0.022067 0.000135 -0.035778
v -0.010998 0.312595 -0.021013
v -0.007494 0.000135 -0.052059
v 0.003648 0.317206 -0.036024
v 0.013893 0.000135 -0.047578
v 0.024341 0.312595 -0.032610
v 0.020706 0.000135 -0.026817
v 0.030388 0.303374 -0.014184
v -0.000817 0.145368 0.002112
v -0.031844 0.145368 -0.004388
v -0.041729 0.145368 -0.034508
v -0.020586 0.145368 -0.058129
v 0.010441 0.145368 -0.051629
v 0.020325 0.145368 -0.021509
v 0.007909 0.245421 -0.014039
v -0.010212 0.252414 -0.016931
v -0.016160 0.257078 -0.035056
v -0.003987 0.254749 -0.050289
v 0.014135 0.247756 -0.047397
v 0.020083 0.243092 -0.029272
v 0.024934 0.000276 0.007006
v 0.024934 0.000276 0.027815
v 0.042955 0.000276 0.038220
v 0.060976 0.000276 0.027815
v 0.060976 0.000276 0.007006
v 0.042955 0.000276 -0.003398
v 0.047494 0.309140 0.085176
v -0.046828 0.330255 0.069397
v -0.074518 0.372485 -0.014981
v -0.007887 0.393599 -0.083580
v 0.087311 0.372485 -0.068089
v 0.115002 0.330255 0.016289
v 0.043771 0.335567 0.067682
v -0.024577 0.350797 0.056405
v -0.044549 0.381256 -0.004455
v 0.003827 0.396486 -0.054038
v 0.072175 0.381256 -0.042760
v 0.092147 0.350797 0.018100
v 0.026388 0.374785 0.010356
v 0.041757 0.265784 0.082224
v 0.047242 0.287327 0.088561
v -0.059216 0.311043 0.070966
v -0.066948 0.290006 0.064288
v -0.090346 0.358519 -0.023895
v -0.098713 0.338450 -0.032507
v -0.015010 0.382266 -0.101134
v -0.021773 0.362672 -0.111366
v 0.091573 0.358544 -0.083565
v 0.086932 0.338450 -0.093430
v 0.122694 0.311081 0.011270
v 0.118697 0.290006 0.003365
v 0.055797 0.090027 -0.011370
v 0.080116 0.085438 0.003021
v 0.080116 0.085438 0.031801
v 0.055797 0.090027 0.046191
v 0.031478 0.094615 0.031801
v 0.031478 0.094615 0.003021
v 0.066475 0.148092 -0.000473
v 0.080178 0.145747 0.007611
v 0.080178 0.145747 0.023778
v 0.066475 0.148092 0.031862
v 0.052772 0.150437 0.023778
v 0.052772 0.150437 0.007611
v 0.074371 0.178568 -0.026659
v 0.110143 0.171731 -0.005482
v 0.110143 0.171731 0.036872
v 0.074371 0.178568 0.058049
v 0.038599 0.185406 0.036872
v 0.038599 0.185406 -0.005482
v 0.077521 0.201126 -0.013189
v 0.101916 0.196463 0.001253
v 0.101916 0.196463 0.030137
v 0.077521 0.201126 0.044579
v 0.053125 0.205789 0.030137
v 0.053125 0.205789 0.001253
v 0.077823 0.211296 0.015695
v 0.098753 0.147648 0.033986
v 0.067773 0.153101 -0.020888
v 0.036793 0.158553 -0.002597
v 0.036793 0.158553 0.033986
v 0.067773 0.153101 0.052278
v 0.098753 0.147648 -0.002597
v 0.004235 0.218434 -0.140350
v -0.094655 0.237946 -0.021300
v -0.154095 0.185567 -0.063141
v -0.134370 0.149621 -0.143587
v -0.055205 0.166054 -0.182192
v -0.015489 0.254380 -0.059905
v -0.098393 0.248637 -0.128338
v -0.131781 0.195177 -0.154996
v -0.148270 0.225226 -0.087747
v -0.107824 0.264163 -0.052869
v -0.045734 0.277514 -0.085970
v -0.029245 0.247465 -0.153219
v -0.074846 0.204064 -0.187367
v -0.137342 0.170839 -0.152077
v -0.156397 0.205565 -0.074361
v -0.102359 0.253990 -0.033797
v -0.027527 0.271212 -0.072097
v -0.008472 0.236485 -0.149813
v -0.064248 0.184537 -0.189229
v -0.081132 0.187179 -0.105717
v -0.084664 0.193616 -0.091313
v -0.073768 0.202546 -0.083559
v -0.059339 0.205040 -0.090209
v -0.055808 0.198604 -0.104613
v -0.066704 0.189674 -0.112367
v -0.074134 0.084919 -0.089885
v -0.074134 0.097534 -0.059401
v -0.045795 0.102642 -0.043662
v -0.017455 0.095135 -0.058408
v -0.017455 0.082519 -0.088892
v -0.045795 0.077411 -0.104630
v -0.055623 0.000276 -0.082494
v -0.038250 0.000276 -0.072464
v -0.038250 0.000276 -0.052404
v -0.055623 0.000276 -0.042374
v -0.072995 0.000276 -0.052404
v -0.072995 0.000276 -0.072464
v -0.055763 0.000276 0.079441
v -0.035543 0.000276 0.084357
v -0.021176 0.000276 0.069304
v -0.027029 0.000276 0.049335
v -0.047248 0.000276 0.044420
v -0.061615 0.000276 0.059473
v -0.066328 0.063692 0.059981
v -0.046505 0.065985 0.039455
v -0.018539 0.064863 0.046160
v -0.010396 0.061448 0.073392
v -0.030219 0.059154 0.093919
v -0.058185 0.060276 0.087213
v -0.054923 0.118343 0.070721
v -0.043788 0.121167 0.059468
v -0.028078 0.120436 0.063216
v -0.023504 0.116882 0.078219
v -0.034640 0.114058 0.089472
v -0.050349 0.114789 0.085723
v -0.080075 0.150635 0.069482
v -0.050896 0.157344 0.039843
v -0.009741 0.155430 0.049663
v 0.002236 0.146806 0.089123
v -0.026943 0.140097 0.118762
v -0.068098 0.142011 0.108941
v -0.067390 0.172001 0.078583
v -0.047492 0.176576 0.058371
v -0.019425 0.175271 0.065068
v -0.011258 0.169390 0.091978
v -0.031156 0.164814 0.112191
v -0.059223 0.166120 0.105494
v -0.039764 0.180166 0.088972
v -0.013967 0.128970 0.049767
v -0.074713 0.124379 0.066782
v -0.064364 0.116481 0.100761
v -0.028817 0.114828 0.109244
v -0.003618 0.121072 0.083747
v -0.049514 0.130623 0.041285
v 0.146005 0.214052 -0.023943
v 0.003612 0.236511 -0.083549
v 0.026669 0.187571 -0.154968
v 0.109393 0.151871 -0.160875
v 0.169061 0.165112 -0.095362
v 0.063280 0.249752 -0.018036
v 0.105091 0.248866 -0.117234
v 0.121066 0.197411 -0.159431
v 0.051912 0.227255 -0.154493
v 0.030084 0.263757 -0.103901
v 0.079587 0.274644 -0.053304
v 0.148741 0.244800 -0.058242
v 0.168392 0.204071 -0.113776
v 0.116676 0.173322 -0.165109
v 0.036759 0.207810 -0.159403
v 0.013378 0.253072 -0.093712
v 0.071512 0.267300 -0.032220
v 0.151429 0.232811 -0.037926
v 0.173212 0.184096 -0.105124
v 0.088365 0.186355 -0.097253
v 0.073552 0.192748 -0.096196
v 0.069245 0.201047 -0.083112
v 0.079750 0.202955 -0.071086
v 0.094562 0.196563 -0.072144
v 0.098870 0.188263 -0.085227
v 0.065721 0.085315 -0.074428
v 0.038782 0.096952 -0.066371
v 0.032363 0.101663 -0.037168
v 0.052883 0.094739 -0.016021
v 0.079823 0.083102 -0.024078
v 0.086241 0.078390 -0.053281
v 0.073423 0.000276 -0.054891
v 0.068791 0.000276 -0.035373
v 0.049573 0.000276 -0.029626
v 0.034986 0.000276 -0.043396
v 0.039618 0.000276 -0.062914
v 0.058837 0.000276 -0.068661
v 0.077043 0.136965 -0.079134
v 0.087192 0.146780 -0.042686
v 0.092556 0.137091 -0.062454
v 0.066317 0.156344 -0.039597
v 0.056167 0.146529 -0.076045
v 0.050804 0.156219 -0.056277
v 0.039817 0.227461 -0.085723
v 0.102267 0.177794 -0.131456
v 0.074903 0.235035 -0.046953
v 0.123672 0.213989 -0.050435
v 0.137354 0.185369 -0.092687
v 0.053499 0.198840 -0.127974
v -0.034221 0.304643 0.034181
v 0.030478 0.290226 0.044856
v 0.076271 0.304643 -0.002079
v -0.053127 0.333476 -0.023430
v -0.007334 0.347892 -0.070365
v 0.057365 0.333476 -0.059689
v -0.090856 0.227309 -0.056582
v -0.114396 0.175463 -0.128805
v -0.044059 0.236773 -0.079209
v -0.032431 0.215582 -0.126634
v -0.067599 0.184927 -0.151432
v -0.126024 0.196654 -0.081380
vt 0.958679 0.531075
vt 0.958679 0.515772
vt 0.951184 0.515772
vt 0.951184 0.531075
vt 0.880914 0.515459
vt 0.896217 0.515459
vt 0.896217 0.507964
vt 0.880914 0.507964
vt 0.911832 0.499844
vt 0.911832 0.484541
vt 0.904337 0.484541
vt 0.904337 0.499844
vt 0.865298 0.515459
vt 0.880601 0.515459
vt 0.880601 0.507964
vt 0.865298 0.507964
vt 0.911832 0.484228
vt 0.911832 0.468925
vt 0.904337 0.468925
vt 0.904337 0.484228
vt 0.849683 0.515459
vt 0.864986 0.515459
vt 0.864986 0.507964
vt 0.849683 0.507964
vt 0.896217 0.452997
vt 0.896217 0.437694
vt 0.888722 0.437694
vt 0.888722 0.452997
vt 0.849683 0.576048
vt 0.849683 0.572300
vt 0.853430 0.570426
vt 0.857178 0.572300
vt 0.857178 0.576048
vt 0.853430 0.577921
vt 0.849683 0.484228
vt 0.864986 0.484228
vt 0.864986 0.476733
vt 0.849683 0.476733
vt 0.872794 0.437382
vt 0.872794 0.422079
vt 0.865298 0.422079
vt 0.865298 0.437382
vt 0.818452 0.476420
vt 0.833755 0.476420
vt 0.833755 0.468925
vt 0.818452 0.468925
vt 0.872794 0.452997
vt 0.872794 0.437694
vt 0.865298 0.437694
vt 0.865298 0.452997
vt 0.834067 0.476420
vt 0.849370 0.476420
vt 0.849370 0.468925
vt 0.834067 0.468925
vt 0.872794 0.468613
vt 0.872794 0.453310
vt 0.865298 0.453310
vt 0.865298 0.468613
vt 0.849683 0.476420
vt 0.864986 0.476420
vt 0.864986 0.468925
vt 0.849683 0.468925
vt 0.880601 0.437382
vt 0.880601 0.422079
vt 0.873106 0.422079
vt 0.873106 0.437382
vt 0.818452 0.484228
vt 0.833755 0.484228
vt 0.833755 0.476733
vt 0.818452 0.476733
vt 0.880601 0.452997
vt 0.880601 0.437694
vt 0.873106 0.437694
vt 0.873106 0.452997
vt 0.834067 0.484228
vt 0.849370 0.484228
vt 0.849370 0.476733
vt 0.834067 0.476733
vt 0.880601 0.468613
vt 0.880601 0.453310
vt 0.873106 0.453310
vt 0.873106 0.468613
vt 0.974294 0.447376
vt 0.974294 0.451123
vt 0.970547 0.452997
vt 0.966799 0.451123
vt 0.966799 0.447376
vt 0.970547 0.445502
vt 0.666396 0.871363
vt 0.681699 0.871363
vt 0.681699 0.863868
vt 0.666396 0.863868
vt 0.689507 0.832324
vt 0.689507 0.817021
vt 0.682012 0.817021
vt 0.682012 0.832324
vt 0.666396 0.879170
vt 0.681699 0.879170
vt 0.681699 0.871675
vt 0.666396 0.871675
vt 0.689507 0.847939
vt 0.689507 0.832636
vt 0.682012 0.832636
vt 0.682012 0.847939
vt 0.619550 0.886978
vt 0.634853 0.886978
vt 0.634853 0.879483
vt 0.619550 0.879483
vt 0.689507 0.863555
vt 0.689507 0.848252
vt 0.682012 0.848252
vt 0.682012 0.863555
vt 0.834067 0.492036
vt 0.849370 0.492036
vt 0.849370 0.484541
vt 0.834067 0.484541
vt 0.888409 0.484228
vt 0.888409 0.468925
vt 0.880914 0.468925
vt 0.880914 0.484228
vt 0.849683 0.492036
vt 0.864986 0.492036
vt 0.864986 0.484541
vt 0.849683 0.484541
vt 0.896217 0.437382
vt 0.896217 0.422079
vt 0.888722 0.422079
vt 0.888722 0.437382
vt 0.896529 0.507651
vt 0.911832 0.507651
vt 0.911832 0.500156
vt 0.896529 0.500156
vt 0.634853 0.832324
vt 0.619706 0.832324
vt 0.634853 0.817177
vt 0.697315 0.863555
vt 0.697315 0.848252
vt 0.689820 0.848252
vt 0.689820 0.863555
vt 0.666396 0.886978
vt 0.681699 0.886978
vt 0.681699 0.879483
vt 0.666396 0.879483
vt 0.697315 0.879170
vt 0.697315 0.863868
vt 0.689820 0.863868
vt 0.689820 0.879170
vt 0.619550 0.894786
vt 0.634853 0.894786
vt 0.634853 0.887291
vt 0.619550 0.887291
vt 0.689507 0.894786
vt 0.689507 0.879483
vt 0.682012 0.879483
vt 0.682012 0.894786
vt 0.635322 0.863555
vt 0.650468 0.863555
vt 0.650468 0.848408
vt 0.619550 0.832168
vt 0.619550 0.817021
vt 0.634696 0.817021
vt 0.666084 0.863555
vt 0.666084 0.848408
vt 0.650937 0.863555
vt 0.635165 0.848252
vt 0.650312 0.848252
vt 0.635165 0.863399
vt 0.650781 0.863399
vt 0.665927 0.848252
vt 0.650781 0.848252
vt 0.635165 0.894786
vt 0.650468 0.894786
vt 0.650468 0.887291
vt 0.635165 0.887291
vt 0.697315 0.894786
vt 0.697315 0.879483
vt 0.689820 0.879483
vt 0.689820 0.894786
vt 0.650781 0.894786
vt 0.666084 0.894786
vt 0.666084 0.887291
vt 0.650781 0.887291
vt 0.705123 0.832324
vt 0.705123 0.817021
vt 0.697627 0.817021
vt 0.697627 0.832324
vt 0.666396 0.894786
vt 0.681699 0.894786
vt 0.681699 0.887291
vt 0.666396 0.887291
vt 0.705123 0.847939
vt 0.705123 0.832636
vt 0.697627 0.832636
vt 0.697627 0.847939
vt 0.619550 0.902594
vt 0.634853 0.902594
vt 0.634853 0.895099
vt 0.619550 0.895099
vt 0.904025 0.468613
vt 0.904025 0.453310
vt 0.896529 0.453310
vt 0.896529 0.468613
vt 0.834067 0.507651
vt 0.849370 0.507651
vt 0.849370 0.500156
vt 0.834067 0.500156
vt 0.904025 0.484228
vt 0.904025 0.468925
vt 0.896529 0.468925
vt 0.896529 0.484228
vt 0.849683 0.507651
vt 0.864986 0.507651
vt 0.864986 0.500156
vt 0.849683 0.500156
vt 0.904025 0.499844
vt 0.904025 0.484541
vt 0.896529 0.484541
vt 0.896529 0.499844
vt 0.865298 0.507651
vt 0.880601 0.507651
vt 0.880601 0.500156
vt 0.865298 0.500156
vt 0.911832 0.422079
vt 0.904337 0.422079
vt 0.904337 0.437382
vt 0.911832 0.437382
vt 0.896217 0.507651
vt 0.896217 0.500156
vt 0.880914 0.500156
vt 0.880914 0.507651
vt 0.911832 0.437694
vt 0.904337 0.437694
vt 0.904337 0.452997
vt 0.911832 0.452997
vt 0.833755 0.515459
vt 0.833755 0.507964
vt 0.818452 0.507964
vt 0.818452 0.515459
vt 0.911832 0.453310
vt 0.904337 0.453310
vt 0.904337 0.468613
vt 0.911832 0.468613
vt 0.849370 0.515459
vt 0.849370 0.507964
vt 0.834067 0.507964
vt 0.834067 0.515459
vt 0.775392 0.817021
vt 0.767897 0.817021
vt 0.767897 0.824516
vt 0.775392 0.824516
vt 0.767585 0.957561
vt 0.760090 0.957561
vt 0.760090 0.965056
vt 0.767585 0.965056
vt 0.759777 0.957561
vt 0.752282 0.957561
vt 0.752282 0.965056
vt 0.759777 0.965056
vt 0.767585 0.949753
vt 0.760090 0.949753
vt 0.760090 0.957248
vt 0.767585 0.957248
vt 0.767585 0.941945
vt 0.760090 0.941945
vt 0.760090 0.949440
vt 0.767585 0.949440
vt 0.751969 0.957561
vt 0.744474 0.957561
vt 0.744474 0.965056
vt 0.751969 0.965056
vt 0.767585 0.910714
vt 0.760090 0.910714
vt 0.760090 0.918209
vt 0.767585 0.918209
vt 0.720738 0.957561
vt 0.713243 0.957561
vt 0.713243 0.965056
vt 0.720738 0.965056
vt 0.767585 0.902906
vt 0.760090 0.902906
vt 0.760090 0.910402
vt 0.767585 0.910402
vt 0.712930 0.957561
vt 0.705435 0.957561
vt 0.705435 0.965056
vt 0.712930 0.965056
vt 0.767585 0.895099
vt 0.760090 0.895099
vt 0.760090 0.902594
vt 0.767585 0.902594
vt 0.705123 0.957561
vt 0.697627 0.957561
vt 0.697627 0.965056
vt 0.705123 0.965056
vt 0.650468 0.972864
vt 0.643129 0.972864
vt 0.650468 0.965525
vt 0.768054 0.840132
vt 0.775392 0.840132
vt 0.775392 0.832793
vt 0.635322 0.972864
vt 0.642660 0.972864
vt 0.642660 0.965525
vt 0.634853 0.972864
vt 0.627514 0.972864
vt 0.634853 0.965525
vt 0.775392 0.832324
vt 0.768054 0.832324
vt 0.775392 0.824985
vt 0.619706 0.972864
vt 0.627045 0.972864
vt 0.627045 0.965525
vt 0.767585 0.863868
vt 0.760090 0.863868
vt 0.760090 0.871363
vt 0.767585 0.871363
vt 0.673892 0.957561
vt 0.666396 0.957561
vt 0.666396 0.965056
vt 0.673892 0.965056
vt 0.666084 0.957561
vt 0.658589 0.957561
vt 0.658589 0.965056
vt 0.666084 0.965056
vt 0.767585 0.856060
vt 0.760090 0.856060
vt 0.760090 0.863555
vt 0.767585 0.863555
vt 0.658276 0.957561
vt 0.650781 0.957561
vt 0.650781 0.965056
vt 0.658276 0.965056
vt 0.767585 0.848252
vt 0.760090 0.848252
vt 0.760090 0.855747
vt 0.767585 0.855747
vt 0.927448 0.437382
vt 0.927448 0.422079
vt 0.919953 0.422079
vt 0.919953 0.437382
vt 0.896529 0.523267
vt 0.911832 0.523267
vt 0.911832 0.515772
vt 0.896529 0.515772
vt 0.927448 0.452997
vt 0.927448 0.437694
vt 0.919953 0.437694
vt 0.919953 0.452997
vt 0.818452 0.531075
vt 0.833755 0.531075
vt 0.833755 0.523580
vt 0.818452 0.523580
vt 0.927448 0.468613
vt 0.927448 0.453310
vt 0.919953 0.453310
vt 0.919953 0.468613
vt 0.834067 0.531075
vt 0.849370 0.531075
vt 0.849370 0.523580
vt 0.834067 0.523580
vt 0.666084 0.832324
vt 0.650937 0.832324
vt 0.666084 0.817177
vt 0.619706 0.863555
vt 0.634853 0.848408
vt 0.634853 0.863555
vt 0.635322 0.847939
vt 0.650468 0.847939
vt 0.650468 0.832793
vt 0.650468 0.817177
vt 0.635322 0.832324
vt 0.650468 0.832324
vt 0.619706 0.847939
vt 0.634853 0.847939
vt 0.634853 0.832793
vt 0.666084 0.847939
vt 0.650937 0.847939
vt 0.666084 0.832793
vt 0.728546 0.879170
vt 0.728546 0.863868
vt 0.721051 0.863868
vt 0.721051 0.879170
vt 0.650781 0.926017
vt 0.666084 0.926017
vt 0.666084 0.918522
vt 0.650781 0.918522
vt 0.728546 0.894786
vt 0.728546 0.879483
vt 0.721051 0.879483
vt 0.721051 0.894786
vt 0.666396 0.926017
vt 0.681699 0.926017
vt 0.681699 0.918522
vt 0.666396 0.918522
vt 0.728546 0.910402
vt 0.728546 0.895099
vt 0.721051 0.895099
vt 0.721051 0.910402
vt 0.682012 0.926017
vt 0.697315 0.926017
vt 0.697315 0.918522
vt 0.682012 0.918522
vt 0.720738 0.926017
vt 0.720738 0.910714
vt 0.713243 0.910714
vt 0.713243 0.926017
vt 0.697627 0.926017
vt 0.712930 0.926017
vt 0.712930 0.918522
vt 0.697627 0.918522
vt 0.728546 0.926017
vt 0.728546 0.910714
vt 0.721051 0.910714
vt 0.721051 0.926017
vt 0.619550 0.933825
vt 0.634853 0.933825
vt 0.634853 0.926330
vt 0.619550 0.926330
vt 0.736354 0.832324
vt 0.736354 0.817021
vt 0.728858 0.817021
vt 0.728858 0.832324
vt 0.635165 0.933825
vt 0.650468 0.933825
vt 0.650468 0.926330
vt 0.635165 0.926330
vt 0.935256 0.437694
vt 0.927761 0.437694
vt 0.927761 0.452997
vt 0.935256 0.452997
vt 0.864986 0.538882
vt 0.864986 0.531387
vt 0.849683 0.531387
vt 0.849683 0.538882
vt 0.935256 0.453310
vt 0.927761 0.453310
vt 0.927761 0.468613
vt 0.935256 0.468613
vt 0.880601 0.538882
vt 0.880601 0.531387
vt 0.865298 0.531387
vt 0.865298 0.538882
vt 0.935256 0.468925
vt 0.927761 0.468925
vt 0.927761 0.484228
vt 0.935256 0.484228
vt 0.896217 0.538882
vt 0.896217 0.531387
vt 0.880914 0.531387
vt 0.880914 0.538882
vt 0.935256 0.499844
vt 0.935256 0.484541
vt 0.927761 0.484541
vt 0.927761 0.499844
vt 0.896529 0.538882
vt 0.911832 0.538882
vt 0.911832 0.531387
vt 0.896529 0.531387
vt 0.935256 0.515459
vt 0.935256 0.500156
vt 0.927761 0.500156
vt 0.927761 0.515459
vt 0.912145 0.538882
vt 0.927448 0.538882
vt 0.927448 0.531387
vt 0.912145 0.531387
vt 0.935256 0.531075
vt 0.935256 0.515772
vt 0.927761 0.515772
vt 0.927761 0.531075
vt 0.818452 0.546690
vt 0.833755 0.546690
vt 0.833755 0.539195
vt 0.818452 0.539195
vt 0.966487 0.447376
vt 0.966487 0.451123
vt 0.962739 0.452997
vt 0.958992 0.451123
vt 0.958992 0.447376
vt 0.962739 0.445502
vt 0.834067 0.568240
vt 0.834067 0.564492
vt 0.837815 0.562618
vt 0.841562 0.564492
vt 0.841563 0.568240
vt 0.837815 0.570114
vt 0.943063 0.452997
vt 0.943063 0.437694
vt 0.935568 0.437694
vt 0.935568 0.452997
vt 0.849683 0.546690
vt 0.864986 0.546690
vt 0.864986 0.539195
vt 0.849683 0.539195
vt 0.943063 0.468613
vt 0.943063 0.453310
vt 0.935568 0.453310
vt 0.935568 0.468613
vt 0.865298 0.546690
vt 0.880601 0.546690
vt 0.880601 0.539195
vt 0.865298 0.539195
vt 0.943063 0.484228
vt 0.943063 0.468925
vt 0.935568 0.468925
vt 0.935568 0.484228
vt 0.880914 0.546690
vt 0.896217 0.546690
vt 0.896217 0.539195
vt 0.880914 0.539195
vt 0.943063 0.484541
vt 0.935568 0.484541
vt 0.935568 0.499844
vt 0.943063 0.499844
vt 0.911832 0.546690
vt 0.911832 0.539195
vt 0.896529 0.539195
vt 0.896529 0.546690
vt 0.943063 0.500156
vt 0.935568 0.500156
vt 0.935568 0.515459
vt 0.943063 0.515459
vt 0.927448 0.546690
vt 0.927448 0.539195
vt 0.912145 0.539195
vt 0.912145 0.546690
vt 0.943063 0.515772
vt 0.935568 0.515772
vt 0.935568 0.531075
vt 0.943063 0.531075
vt 0.943063 0.538882
vt 0.943063 0.531387
vt 0.927761 0.531387
vt 0.927761 0.538882
vt 0.767585 0.832636
vt 0.760090 0.832636
vt 0.760090 0.840132
vt 0.767585 0.840132
vt 0.767585 0.824829
vt 0.760090 0.824829
vt 0.760090 0.832324
vt 0.767585 0.832324
vt 0.634853 0.957561
vt 0.627357 0.957561
vt 0.627357 0.965056
vt 0.634853 0.965056
vt 0.767585 0.817021
vt 0.760090 0.817021
vt 0.760090 0.824516
vt 0.767585 0.824516
vt 0.627045 0.957561
vt 0.619550 0.957561
vt 0.619550 0.965056
vt 0.627045 0.965056
vt 0.759777 0.949753
vt 0.752282 0.949753
vt 0.752282 0.957248
vt 0.759777 0.957248
vt 0.759777 0.941945
vt 0.752282 0.941945
vt 0.752282 0.949440
vt 0.759777 0.949440
vt 0.751969 0.949753
vt 0.744474 0.949753
vt 0.744474 0.957248
vt 0.751969 0.957248
vt 0.744161 0.949753
vt 0.736666 0.949753
vt 0.736666 0.957248
vt 0.744161 0.957248
vt 0.759777 0.934137
vt 0.752282 0.934137
vt 0.752282 0.941633
vt 0.759777 0.941633
vt 0.736354 0.949753
vt 0.728858 0.949753
vt 0.728858 0.957248
vt 0.736354 0.957248
vt 0.759777 0.926330
vt 0.752282 0.926330
vt 0.752282 0.933825
vt 0.759777 0.933825
vt 0.642973 0.965369
vt 0.650312 0.965369
vt 0.642973 0.972707
vt 0.775236 0.832636
vt 0.767897 0.832636
vt 0.767897 0.839975
vt 0.642504 0.965369
vt 0.635165 0.965369
vt 0.635165 0.972707
vt 0.627357 0.965369
vt 0.634696 0.965369
vt 0.627357 0.972707
vt 0.767897 0.824829
vt 0.775236 0.824829
vt 0.767897 0.832168
vt 0.626889 0.965369
vt 0.619550 0.965369
vt 0.619550 0.972707
vt 0.728546 0.949753
vt 0.721051 0.949753
vt 0.721051 0.957248
vt 0.728546 0.957248
vt 0.720738 0.949753
vt 0.713243 0.949753
vt 0.713243 0.957248
vt 0.720738 0.957248
vt 0.712930 0.949753
vt 0.705435 0.949753
vt 0.705435 0.957248
vt 0.712930 0.957248
vt 0.705123 0.949753
vt 0.697627 0.949753
vt 0.697627 0.957248
vt 0.705123 0.957248
vt 0.751969 0.941945
vt 0.744474 0.941945
vt 0.744474 0.949440
vt 0.751969 0.949440
vt 0.775392 0.848252
vt 0.767897 0.848252
vt 0.767897 0.855747
vt 0.775392 0.855747
vt 0.958679 0.452997
vt 0.958679 0.437694
vt 0.951184 0.437694
vt 0.951184 0.452997
vt 0.818452 0.562306
vt 0.833755 0.562306
vt 0.833755 0.554811
vt 0.818452 0.554811
vt 0.958679 0.468613
vt 0.958679 0.453310
vt 0.951184 0.453310
vt 0.951184 0.468613
vt 0.834067 0.562306
vt 0.849370 0.562306
vt 0.849370 0.554811
vt 0.834067 0.554811
vt 0.958679 0.484228
vt 0.958679 0.468925
vt 0.951184 0.468925
vt 0.951184 0.484228
vt 0.849683 0.562306
vt 0.864986 0.562306
vt 0.864986 0.554811
vt 0.849683 0.554811
vt 0.650781 0.817021
vt 0.665927 0.817021
vt 0.650781 0.832168
vt 0.634696 0.848252
vt 0.619550 0.863399
vt 0.619550 0.848252
vt 0.650312 0.832636
vt 0.635165 0.832636
vt 0.635165 0.847783
vt 0.635165 0.832168
vt 0.650312 0.817021
vt 0.635165 0.817021
vt 0.634696 0.832636
vt 0.619550 0.832636
vt 0.619550 0.847783
vt 0.650781 0.832636
vt 0.665927 0.832636
vt 0.650781 0.847783
vt 0.759777 0.894786
vt 0.759777 0.879483
vt 0.752282 0.879483
vt 0.752282 0.894786
vt 0.666396 0.957248
vt 0.681699 0.957248
vt 0.681699 0.949753
vt 0.666396 0.949753
vt 0.759777 0.910402
vt 0.759777 0.895099
vt 0.752282 0.895099
vt 0.752282 0.910402
vt 0.682012 0.957248
vt 0.697315 0.957248
vt 0.697315 0.949753
vt 0.682012 0.949753
vt 0.759777 0.832324
vt 0.759777 0.817021
vt 0.752282 0.817021
vt 0.752282 0.832324
vt 0.728858 0.949440
vt 0.744161 0.949440
vt 0.744161 0.941945
vt 0.728858 0.941945
vt 0.751969 0.941633
vt 0.751969 0.926330
vt 0.744474 0.926330
vt 0.744474 0.941633
vt 0.713243 0.949440
vt 0.728546 0.949440
vt 0.728546 0.941945
vt 0.713243 0.941945
vt 0.751969 0.926017
vt 0.751969 0.910714
vt 0.744474 0.910714
vt 0.744474 0.926017
vt 0.697627 0.949440
vt 0.712930 0.949440
vt 0.712930 0.941945
vt 0.697627 0.941945
vt 0.751969 0.910402
vt 0.751969 0.895099
vt 0.744474 0.895099
vt 0.744474 0.910402
vt 0.682012 0.949440
vt 0.697315 0.949440
vt 0.697315 0.941945
vt 0.682012 0.941945
vt 0.950871 0.484541
vt 0.943376 0.484541
vt 0.943376 0.499844
vt 0.950871 0.499844
vt 0.880601 0.554498
vt 0.880601 0.547003
vt 0.865298 0.547003
vt 0.865298 0.554498
vt 0.950871 0.468925
vt 0.943376 0.468925
vt 0.943376 0.484228
vt 0.950871 0.484228
vt 0.864986 0.554498
vt 0.864986 0.547003
vt 0.849683 0.547003
vt 0.849683 0.554498
vt 0.950871 0.453310
vt 0.943376 0.453310
vt 0.943376 0.468613
vt 0.950871 0.468613
vt 0.849370 0.554498
vt 0.849370 0.547003
vt 0.834067 0.547003
vt 0.834067 0.554498
vt 0.950871 0.452997
vt 0.950871 0.437694
vt 0.943376 0.437694
vt 0.943376 0.452997
vt 0.818452 0.554498
vt 0.833755 0.554498
vt 0.833755 0.547003
vt 0.818452 0.547003
vt 0.950871 0.437382
vt 0.950871 0.422079
vt 0.943376 0.422079
vt 0.943376 0.437382
vt 0.927761 0.546690
vt 0.943063 0.546690
vt 0.943063 0.539195
vt 0.927761 0.539195
vt 0.943063 0.437382
vt 0.943063 0.422079
vt 0.935568 0.422079
vt 0.935568 0.437382
vt 0.834067 0.546690
vt 0.849370 0.546690
vt 0.849370 0.539195
vt 0.834067 0.539195
vt 0.841875 0.568240
vt 0.841875 0.564492
vt 0.845623 0.562618
vt 0.849370 0.564492
vt 0.849370 0.568240
vt 0.845623 0.570114
vt 0.919640 0.500156
vt 0.912145 0.500156
vt 0.912145 0.515459
vt 0.919640 0.515459
vt 0.896217 0.523267
vt 0.896217 0.515772
vt 0.880914 0.515772
vt 0.880914 0.523267
vt 0.919640 0.484541
vt 0.912145 0.484541
vt 0.912145 0.499844
vt 0.919640 0.499844
vt 0.880601 0.523267
vt 0.880601 0.515772
vt 0.865298 0.515772
vt 0.865298 0.523267
vt 0.919640 0.468925
vt 0.912145 0.468925
vt 0.912145 0.484228
vt 0.919640 0.484228
vt 0.864986 0.523267
vt 0.864986 0.515772
vt 0.849683 0.515772
vt 0.849683 0.523267
vt 0.880601 0.562618
vt 0.873106 0.562618
vt 0.873106 0.570114
vt 0.880601 0.570114
vt 0.966487 0.476733
vt 0.958992 0.476733
vt 0.958992 0.484228
vt 0.966487 0.484228
vt 0.888409 0.562618
vt 0.880914 0.562618
vt 0.880914 0.570114
vt 0.888409 0.570114
vt 0.966487 0.484541
vt 0.958992 0.484541
vt 0.958992 0.492036
vt 0.966487 0.492036
vt 0.896217 0.562618
vt 0.888722 0.562618
vt 0.888722 0.570114
vt 0.896217 0.570114
vt 0.966487 0.492349
vt 0.958992 0.492349
vt 0.958992 0.499844
vt 0.966487 0.499844
vt 0.919640 0.453310
vt 0.912145 0.453310
vt 0.912145 0.468613
vt 0.919640 0.468613
vt 0.849370 0.523267
vt 0.849370 0.515772
vt 0.834067 0.515772
vt 0.834067 0.523267
vt 0.919640 0.437694
vt 0.912145 0.437694
vt 0.912145 0.452997
vt 0.919640 0.452997
vt 0.833755 0.523267
vt 0.833755 0.515772
vt 0.818452 0.515772
vt 0.818452 0.523267
vt 0.919640 0.422079
vt 0.912145 0.422079
vt 0.912145 0.437382
vt 0.919640 0.437382
vt 0.911832 0.515459
vt 0.911832 0.507964
vt 0.896529 0.507964
vt 0.896529 0.515459
vt 0.927448 0.562618
vt 0.919953 0.562618
vt 0.919953 0.570114
vt 0.927448 0.570114
vt 0.966487 0.523580
vt 0.958992 0.523580
vt 0.958992 0.531075
vt 0.966487 0.531075
vt 0.935256 0.562618
vt 0.927761 0.562618
vt 0.927761 0.570114
vt 0.935256 0.570114
vt 0.966487 0.531387
vt 0.958992 0.531387
vt 0.958992 0.538882
vt 0.966487 0.538882
vt 0.943063 0.562618
vt 0.935568 0.562618
vt 0.935568 0.570114
vt 0.943063 0.570114
vt 0.966487 0.539195
vt 0.958992 0.539195
vt 0.958992 0.546690
vt 0.966487 0.546690
vn -0.2243 -0.2366 0.9454
vn -0.9491 0.0090 0.3149
vn -0.7364 0.2324 -0.6354
vn 0.2123 0.1891 -0.9587
vn -0.2622 -0.8947 -0.3617
vn 0.9389 -0.0737 -0.3361
vn 0.7285 -0.2810 0.6248
vn 0.0000 -1.0000 -0.0000
vn 0.7449 -0.0224 0.6668
vn 0.9501 0.0139 -0.3118
vn 0.2050 -0.0224 -0.9785
vn -0.7418 -0.0946 -0.6640
vn -0.9421 -0.1302 0.3092
vn -0.2041 -0.0946 0.9744
vn 0.7597 0.0458 0.6487
vn 0.9493 -0.0219 -0.3136
vn 0.1927 0.0374 -0.9805
vn -0.7441 0.1633 -0.6478
vn -0.9208 0.2180 0.3233
vn -0.1635 0.1589 0.9737
vn -0.5425 0.7903 -0.2850
vn 0.9136 0.3935 -0.1029
vn 0.6963 0.0980 0.7110
vn 0.2660 0.7543 -0.6002
vn -0.7160 0.5013 0.4859
vn 0.2422 0.9520 -0.1872
vn -0.0379 -0.9443 -0.3270
vn -0.1023 -0.8463 -0.5227
vn -0.2294 -0.8448 -0.4834
vn -0.1639 -0.9450 -0.2829
vn -0.0091 -0.8954 -0.4452
vn 0.0214 0.9497 0.3126
vn -0.4020 0.7592 0.5119
vn 0.6677 0.7299 0.1462
vn -0.2849 0.9584 0.0175
vn -0.0164 0.5489 0.8357
vn 0.5245 0.5215 0.6730
vn 0.0966 0.8349 0.5419
vn 0.2456 0.8332 0.4955
vn 0.1687 0.9504 0.2612
vn -0.0127 0.8925 0.4509
vn 0.2836 0.8915 0.3531
vn -0.2076 -0.2264 0.9516
vn -0.8955 0.2035 0.3957
vn -0.6893 0.5082 -0.5163
vn 0.2330 0.3852 -0.8929
vn 0.9407 -0.0527 -0.3351
vn 0.7208 -0.3586 0.5932
vn -0.1276 0.1576 0.9792
vn -0.5056 -0.0028 -0.8628
vn -0.9976 0.0692 0.0000
vn -0.5056 -0.0028 0.8628
vn 0.4878 -0.1480 0.8603
vn 0.9757 -0.2193 0.0000
vn 0.4878 -0.1480 -0.8603
vn -0.4468 0.2914 0.8458
vn 0.5207 0.1126 0.8463
vn 0.5165 0.0649 -0.8538
vn 1.0000 -0.0010 0.0000
vn -0.9343 0.3564 0.0000
vn -0.4598 0.2452 -0.8535
vn -0.5160 -0.0585 0.8546
vn -0.5160 -0.0585 -0.8546
vn -0.9977 0.0671 0.0000
vn 0.4417 -0.3076 0.8428
vn 0.9040 -0.4276 0.0000
vn 0.4417 -0.3076 -0.8428
vn 0.5238 0.3816 0.7616
vn 0.9489 0.3156 0.0000
vn 0.5238 0.3816 -0.7616
vn -0.3618 0.5147 0.7773
vn -0.3618 0.5147 -0.7773
vn -0.8144 0.5804 0.0000
vn -0.0162 0.9432 0.3319
vn -0.0162 0.9432 -0.3319
vn -0.2176 0.9760 0.0000
vn 0.3542 0.8809 0.3139
vn 0.5243 0.8516 0.0000
vn 0.3542 0.8809 -0.3139
vn -0.0290 -0.9709 -0.2379
vn 0.1019 -0.9948 -0.0000
vn -0.0290 -0.9709 0.2379
vn -0.4528 -0.8916 0.0000
vn -0.3063 -0.9193 -0.2472
vn -0.3063 -0.9193 0.2472
vn 0.5051 -0.8114 0.2940
vn 0.4291 -0.6792 0.5954
vn 0.5648 -0.6929 0.4481
vn 0.3335 -0.8905 0.3094
vn 0.2333 -0.8652 0.4438
vn 0.2707 -0.7710 0.5764
vn -0.2186 0.7348 -0.6421
vn -0.1405 0.8907 -0.4324
vn -0.3198 0.9194 -0.2291
vn -0.6484 0.6231 -0.4374
vn -0.4616 0.6096 -0.6444
vn -0.5623 0.7933 -0.2335
vn -0.9348 0.1766 -0.3081
vn -0.4602 -0.0742 -0.8847
vn -0.7735 0.4969 0.3933
vn 0.3475 0.3126 -0.8840
vn 0.4842 0.8369 -0.2552
vn 0.0246 0.9011 0.4330
vn 0.5863 -0.0167 -0.8099
vn 0.8282 0.5586 -0.0465
vn 0.2122 0.6651 0.7160
vn -0.9691 -0.1958 -0.1501
vn -0.3329 -0.4291 -0.8397
vn -0.7026 0.2447 0.6682
vn -0.4565 -0.1556 -0.8760
vn -0.9946 -0.0968 -0.0372
vn 0.9446 0.3222 -0.0624
vn 0.5023 0.0416 -0.8637
vn 0.4451 0.4187 0.7916
vn -0.5533 0.1886 0.8114
vn 0.4942 -0.2930 -0.8185
vn 0.9736 -0.2216 0.0553
vn 0.4710 -0.0405 0.8812
vn -0.4951 0.0575 0.8669
vn -0.9999 -0.0121 0.0030
vn -0.4915 -0.1819 -0.8517
vn -0.9576 -0.0740 0.2786
vn -0.2353 -0.1346 0.9626
vn 0.7157 -0.1729 0.6766
vn 0.9460 -0.1429 -0.2908
vn 0.2321 -0.0770 -0.9696
vn -0.7188 -0.0460 -0.6937
vn 0.7032 0.1093 0.7026
vn 0.9398 0.2397 -0.2434
vn -0.7107 0.2729 -0.6484
vn 0.2333 0.3215 -0.9177
vn -0.2300 0.0599 0.9714
vn -0.9415 0.1400 0.3066
vn 0.7142 -0.2937 0.6353
vn -0.9466 -0.2165 0.2391
vn -0.2337 -0.3275 0.9155
vn 0.9363 -0.1487 -0.3181
vn 0.2301 -0.0406 -0.9723
vn -0.7016 -0.0725 -0.7089
vn 0.8418 0.5209 -0.1417
vn 0.2032 0.6604 -0.7229
vn -0.6383 0.5897 -0.4948
vn 0.6460 0.2971 0.7032
vn -0.8646 0.3673 0.3427
vn -0.2171 0.2161 0.9519
vn 0.2715 0.8461 0.4588
vn -0.3736 0.8761 0.3048
vn -0.0992 0.8127 0.5741
vn 0.3426 0.9341 0.1002
vn 0.0783 0.9877 -0.1356
vn -0.2674 0.9625 -0.0454
vn -0.1892 -0.8934 -0.4075
vn 0.0734 -0.8751 -0.4783
vn 0.2732 -0.9149 -0.2971
vn -0.0598 -0.9966 0.0564
vn -0.2648 -0.9538 -0.1423
vn 0.2156 -0.9761 -0.0277
vn -0.1737 -0.8387 0.5161
vn -0.4270 -0.7300 0.5337
vn -0.2823 -0.7526 0.5948
vn -0.2089 -0.9050 0.3705
vn -0.3590 -0.8822 0.3047
vn -0.4681 -0.7930 0.3898
vn 0.5525 0.7532 -0.3569
vn 0.3740 0.9022 -0.2146
vn 0.1279 0.9365 -0.3266
vn 0.2333 0.6589 -0.7151
vn 0.4852 0.6396 -0.5962
vn 0.0626 0.8220 -0.5661
vn 0.0274 0.2246 -0.9741
vn 0.7158 -0.0401 -0.6972
vn -0.5985 0.5271 -0.6033
vn 0.9465 0.3083 0.0949
vn 0.3833 0.8168 0.4313
vn -0.4078 0.8928 0.1916
vn 0.9439 -0.0328 0.3285
vn 0.2819 0.5197 0.8065
vn -0.6252 0.6443 0.4405
vn -0.1338 -0.1480 -0.9799
vn 0.7091 -0.4012 -0.5798
vn -0.8415 0.2680 -0.4691
vn 0.7011 -0.3707 -0.6092
vn -0.2404 -0.2976 -0.9239
vn 0.3033 0.4616 0.8336
vn 0.9611 0.0125 0.2760
vn -0.6327 0.5610 0.5338
vn -0.9154 0.1724 -0.3639
vn 0.9591 -0.1608 0.2331
vn 0.2472 -0.1544 0.9566
vn -0.7103 -0.0684 0.7006
vn -0.9754 -0.0140 -0.2199
vn -0.2952 -0.0386 -0.9546
vn 0.6914 -0.1017 -0.7153
vn -0.9262 0.2377 -0.2927
vn -0.6204 0.4148 0.6656
vn 0.9674 -0.0519 0.2480
vn 0.3246 0.2530 0.9114
vn -0.2538 -0.0651 -0.9651
vn 0.6917 -0.1979 -0.6945
vn 0.0572 -0.8218 0.5669
vn -0.2076 -0.6079 0.7664
vn -0.5646 -0.5555 0.6105
vn -0.3910 -0.9177 0.0708
vn -0.0400 -0.9752 0.2179
vn -0.6509 -0.7120 0.2635
vn -0.4103 -0.8623 -0.2969
vn -0.0600 -0.7538 -0.6544
vn 0.0841 -0.9726 -0.2167
vn -0.1965 -0.9728 -0.1228
vn -0.3407 -0.7526 -0.5635
vn 0.1509 -0.8633 -0.4816
vn 0.6203 -0.7810 0.0719
vn 0.7568 -0.5073 0.4122
vn 0.4523 -0.4875 0.7468
vn 0.0327 -0.9095 0.4144
vn 0.2453 -0.9620 0.1200
vn 0.1086 -0.7038 0.7021
usemtl low_poly_mushrooms_texture_atlas
s off
f 19/1/1 2/2/1 4/3/1 20/4/1
f 20/5/2 4/6/2 6/7/2 21/8/2
f 21/9/3 6/10/3 8/11/3 22/12/3
f 22/13/4 8/14/4 10/15/4 23/16/4
f 212/17/5 215/18/5 53/19/5 55/20/5
f 23/21/6 10/22/6 12/23/6 24/24/6
f 24/25/7 12/26/7 2/27/7 19/28/7
f 1/29/8 3/30/8 5/31/8 7/32/8 9/33/8 11/34/8
f 11/35/9 18/36/9 13/37/9 1/38/9
f 9/39/10 17/40/10 18/41/10 11/42/10
f 7/43/11 16/44/11 17/45/11 9/46/11
f 5/47/12 15/48/12 16/49/12 7/50/12
f 3/51/13 14/52/13 15/53/13 5/54/13
f 1/55/14 13/56/14 14/57/14 3/58/14
f 18/59/15 24/60/15 19/61/15 13/62/15
f 17/63/16 23/64/16 24/65/16 18/66/16
f 16/67/17 22/68/17 23/69/17 17/70/17
f 15/71/18 21/72/18 22/73/18 16/74/18
f 14/75/19 20/76/19 21/77/19 15/78/19
f 13/79/20 19/80/20 20/81/20 14/82/20
f 30/83/8 29/84/8 28/85/8 27/86/8 26/87/8 25/88/8
f 50/89/21 48/90/21 33/91/21 34/92/21
f 54/93/22 52/94/22 35/95/22 36/96/22
f 45/97/23 54/98/23 36/99/23 31/100/23
f 52/101/24 50/102/24 34/103/24 35/104/24
f 48/105/25 46/106/25 32/107/25 33/108/25
f 35/109/26 34/110/26 40/111/26 41/112/26
f 214/113/27 213/114/27 49/115/27 51/116/27
f 210/117/28 211/118/28 44/119/28 47/120/28
f 211/121/29 212/122/29 55/123/29 44/124/29
f 215/125/30 214/126/30 51/127/30 53/128/30
f 213/129/31 210/130/31 47/131/31 49/132/31
f 40/133/32 39/134/32 43/135/32
f 33/136/33 32/137/33 38/138/33 39/139/33
f 36/140/34 35/141/34 41/142/34 42/143/34
f 34/144/35 33/145/35 39/146/35 40/147/35
f 32/148/36 31/149/36 37/150/36 38/151/36
f 31/152/37 36/153/37 42/154/37 37/155/37
f 38/156/38 37/157/38 43/158/38
f 37/159/39 42/160/39 43/161/39
f 41/162/40 40/163/40 43/164/40
f 39/165/41 38/166/41 43/167/41
f 42/168/42 41/169/42 43/170/42
f 47/171/43 44/172/43 45/173/43 46/174/43
f 49/175/44 47/176/44 46/177/44 48/178/44
f 51/179/45 49/180/45 48/181/45 50/182/45
f 53/183/46 51/184/46 50/185/46 52/186/46
f 55/187/47 53/188/47 52/189/47 54/190/47
f 44/191/48 55/192/48 54/193/48 45/194/48
f 46/195/49 45/196/49 31/197/49 32/198/49
f 25/199/50 61/200/50 56/201/50 30/202/50
f 26/203/51 60/204/51 61/205/51 25/206/51
f 27/207/52 59/208/52 60/209/52 26/210/52
f 28/211/53 58/212/53 59/213/53 27/214/53
f 29/215/54 57/216/54 58/217/54 28/218/54
f 30/219/55 56/220/55 57/221/55 29/222/55
f 60/223/56 59/224/56 65/225/56 66/226/56
f 59/227/57 58/228/57 64/229/57 65/230/57
f 57/231/58 56/232/58 62/233/58 63/234/58
f 58/235/59 57/236/59 63/237/59 64/238/59
f 61/239/60 60/240/60 66/241/60 67/242/60
f 56/243/61 61/244/61 67/245/61 62/246/61
f 84/247/62 85/248/62 71/249/62 72/250/62
f 82/251/63 83/252/63 73/253/63 68/254/63
f 83/255/64 84/256/64 72/257/64 73/258/64
f 85/259/65 81/260/65 70/261/65 71/262/65
f 81/263/66 86/264/66 69/265/66 70/266/66
f 86/267/67 82/268/67 68/269/67 69/270/67
f 71/271/68 70/272/68 76/273/68 77/274/68
f 70/275/69 69/276/69 75/277/69 76/278/69
f 69/279/70 68/280/70 74/281/70 75/282/70
f 72/283/71 71/284/71 77/285/71 78/286/71
f 68/287/72 73/288/72 79/289/72 74/290/72
f 73/291/73 72/292/73 78/293/73 79/294/73
f 78/295/74 77/296/74 80/297/74
f 74/298/75 79/299/75 80/300/75
f 79/301/76 78/302/76 80/303/76
f 77/304/77 76/305/77 80/306/77
f 76/307/78 75/308/78 80/309/78
f 75/310/79 74/311/79 80/312/79
f 63/313/80 62/314/80 82/315/80 86/316/80
f 64/317/81 63/318/81 86/319/81 81/320/81
f 65/321/82 64/322/82 81/323/82 85/324/82
f 67/325/83 66/326/83 84/327/83 83/328/83
f 62/329/84 67/330/84 83/331/84 82/332/84
f 66/333/85 65/334/85 85/335/85 84/336/85
f 221/337/86 216/338/86 88/339/86 89/340/86
f 220/341/87 217/342/87 90/343/87 91/344/87
f 217/345/88 221/346/88 89/347/88 90/348/88
f 216/349/89 218/350/89 92/351/89 88/352/89
f 218/353/90 219/354/90 87/355/90 92/356/90
f 219/357/91 220/358/91 91/359/91 87/360/91
f 98/361/92 99/362/92 93/363/92
f 97/364/93 98/365/93 93/366/93
f 96/367/94 97/368/94 93/369/94
f 94/370/95 95/371/95 93/372/95
f 99/373/96 94/374/96 93/375/96
f 95/376/97 96/377/97 93/378/97
f 100/379/98 101/380/98 95/381/98 94/382/98
f 105/383/99 100/384/99 94/385/99 99/386/99
f 101/387/100 102/388/100 96/389/100 95/390/100
f 104/391/101 105/392/101 99/393/101 98/394/101
f 103/395/102 104/396/102 98/397/102 97/398/102
f 102/399/103 103/400/103 97/401/103 96/402/103
f 87/403/104 91/404/104 105/405/104 104/406/104
f 92/407/105 87/408/105 104/409/105 103/410/105
f 88/411/106 92/412/106 103/413/106 102/414/106
f 90/415/107 89/416/107 101/417/107 100/418/107
f 91/419/108 90/420/108 100/421/108 105/422/108
f 89/423/109 88/424/109 102/425/109 101/426/109
f 117/427/110 112/428/110 106/429/110 111/430/110
f 112/431/111 113/432/111 107/433/111 106/434/111
f 115/435/112 116/436/112 110/437/112 109/438/112
f 116/439/113 117/440/113 111/441/113 110/442/113
f 114/443/114 115/444/114 109/445/114 108/446/114
f 113/447/115 114/448/115 108/449/115 107/450/115
f 118/451/116 117/452/116 116/453/116 119/454/116
f 119/455/117 116/456/117 115/457/117 120/458/117
f 120/459/118 115/460/118 114/461/118 121/462/118
f 121/463/119 114/464/119 113/465/119 122/466/119
f 122/467/120 113/468/120 112/469/120 123/470/120
f 123/471/121 112/472/121 117/473/121 118/474/121
f 118/475/8 119/476/8 120/477/8 121/478/8 122/479/8 123/480/8
f 129/481/8 128/482/8 127/483/8 126/484/8 125/485/8 124/486/8
f 124/487/122 135/488/122 130/489/122 129/490/122
f 125/491/123 134/492/123 135/493/123 124/494/123
f 126/495/124 133/496/124 134/497/124 125/498/124
f 127/499/125 132/500/125 133/501/125 126/502/125
f 128/503/126 131/504/126 132/505/126 127/506/126
f 129/507/127 130/508/127 131/509/127 128/510/127
f 134/511/128 133/512/128 139/513/128 140/514/128
f 133/515/129 132/516/129 138/517/129 139/518/129
f 131/519/130 130/520/130 136/521/130 137/522/130
f 132/523/131 131/524/131 137/525/131 138/526/131
f 135/527/132 134/528/132 140/529/132 141/530/132
f 130/531/133 135/532/133 141/533/133 136/534/133
f 158/535/134 159/536/134 145/537/134 146/538/134
f 156/539/135 157/540/135 147/541/135 142/542/135
f 157/543/136 158/544/136 146/545/136 147/546/136
f 159/547/137 155/548/137 144/549/137 145/550/137
f 155/551/138 160/552/138 143/553/138 144/554/138
f 160/555/139 156/556/139 142/557/139 143/558/139
f 145/559/140 144/560/140 150/561/140 151/562/140
f 144/563/141 143/564/141 149/565/141 150/566/141
f 143/567/142 142/568/142 148/569/142 149/570/142
f 146/571/143 145/572/143 151/573/143 152/574/143
f 142/575/144 147/576/144 153/577/144 148/578/144
f 147/579/145 146/580/145 152/581/145 153/582/145
f 152/583/146 151/584/146 154/585/146
f 148/586/147 153/587/147 154/588/147
f 153/589/148 152/590/148 154/591/148
f 151/592/149 150/593/149 154/594/149
f 150/595/150 149/596/150 154/597/150
f 149/598/151 148/599/151 154/600/151
f 137/601/152 136/602/152 156/603/152 160/604/152
f 138/605/153 137/606/153 160/607/153 155/608/153
f 139/609/154 138/610/154 155/611/154 159/612/154
f 141/613/155 140/614/155 158/615/155 157/616/155
f 136/617/156 141/618/156 157/619/156 156/620/156
f 140/621/157 139/622/157 159/623/157 158/624/157
f 209/625/158 204/626/158 162/627/158 163/628/158
f 208/629/159 205/630/159 164/631/159 165/632/159
f 205/633/160 209/634/160 163/635/160 164/636/160
f 204/637/161 206/638/161 166/639/161 162/640/161
f 206/641/162 207/642/162 161/643/162 166/644/162
f 207/645/163 208/646/163 165/647/163 161/648/163
f 172/649/164 173/650/164 167/651/164
f 171/652/165 172/653/165 167/654/165
f 170/655/166 171/656/166 167/657/166
f 168/658/167 169/659/167 167/660/167
f 173/661/168 168/662/168 167/663/168
f 169/664/169 170/665/169 167/666/169
f 174/667/170 175/668/170 169/669/170 168/670/170
f 179/671/171 174/672/171 168/673/171 173/674/171
f 175/675/172 176/676/172 170/677/172 169/678/172
f 178/679/173 179/680/173 173/681/173 172/682/173
f 177/683/174 178/684/174 172/685/174 171/686/174
f 176/687/175 177/688/175 171/689/175 170/690/175
f 161/691/176 165/692/176 179/693/176 178/694/176
f 166/695/177 161/696/177 178/697/177 177/698/177
f 162/699/178 166/700/178 177/701/178 176/702/178
f 164/703/179 163/704/179 175/705/179 174/706/179
f 165/707/180 164/708/180 174/709/180 179/710/180
f 163/711/181 162/712/181 176/713/181 175/714/181
f 200/715/182 198/716/182 180/717/182 185/718/182
f 198/719/183 202/720/183 181/721/183 180/722/183
f 201/723/184 199/724/184 184/725/184 183/726/184
f 199/727/185 200/728/185 185/729/185 184/730/185
f 203/731/186 201/732/186 183/733/186 182/734/186
f 202/735/187 203/736/187 182/737/187 181/738/187
f 192/739/188 191/740/188 190/741/188 193/742/188
f 193/743/189 190/744/189 189/745/189 194/746/189
f 194/747/190 189/748/190 188/749/190 195/750/190
f 195/751/191 188/752/191 187/753/191 196/754/191
f 196/755/192 187/756/192 186/757/192 197/758/192
f 197/759/193 186/760/193 191/761/193 192/762/193
f 192/763/8 193/764/8 194/765/8 195/766/8 196/767/8 197/768/8
f 187/769/194 188/770/194 203/771/194 202/772/194
f 188/773/195 189/774/195 201/775/195 203/776/195
f 190/777/196 191/778/196 200/779/196 199/780/196
f 189/781/197 190/782/197 199/783/197 201/784/197
f 186/785/198 187/786/198 202/787/198 198/788/198
f 191/789/199 186/790/199 198/791/199 200/792/199
f 184/793/200 185/794/200 208/795/200 207/796/200
f 183/797/201 184/798/201 207/799/201 206/800/201
f 182/801/202 183/802/202 206/803/202 204/804/202
f 180/805/203 181/806/203 209/807/203 205/808/203
f 185/809/204 180/810/204 205/811/204 208/812/204
f 181/813/205 182/814/205 204/815/205 209/816/205
f 6/817/206 4/818/206 210/819/206 213/820/206
f 10/821/207 8/822/207 214/823/207 215/824/207
f 2/825/208 12/826/208 212/827/208 211/828/208
f 4/829/209 2/830/209 211/831/209 210/832/209
f 8/833/210 6/834/210 213/835/210 214/836/210
f 12/837/211 10/838/211 215/839/211 212/840/211
f 110/841/212 111/842/212 220/843/212 219/844/212
f 109/845/213 110/846/213 219/847/213 218/848/213
f 108/849/214 109/850/214 218/851/214 216/852/214
f 106/853/215 107/854/215 221/855/215 217/856/215
f 111/857/216 106/858/216 217/859/216 220/860/216
f 107/861/217 108/862/217 216/863/217 221/864/217
