# Blender v2.82 (sub 7) OBJ File: 'low_poly_mushrooms.blend'
# www.blender.org
mtllib cep.mtl
o cep_Cylinder.011
v 0.120437 0.000000 -0.141641
v 0.110632 0.277314 -0.135153
v 0.189225 0.000000 -0.101927
v 0.173800 0.277314 -0.098682
v 0.189225 0.000000 -0.022498
v 0.173800 0.277314 -0.025742
v 0.120437 0.000000 0.017217
v 0.110632 0.277314 0.010728
v 0.051650 0.000000 -0.022498
v 0.047464 0.277314 -0.025742
v 0.051650 0.000000 -0.101927
v 0.047464 0.277314 -0.098682
v 0.114554 0.253782 -0.169291
v 0.207287 0.244991 -0.115751
v 0.207287 0.244991 -0.008673
v 0.107228 0.257726 0.044866
v 0.014496 0.249612 -0.008673
v 0.021821 0.253782 -0.115751
v 0.114554 0.253782 -0.189020
v 0.224373 0.244991 -0.125616
v 0.224373 0.244991 0.001192
v 0.107228 0.257726 0.064596
v -0.002590 0.249612 0.001192
v 0.004735 0.253782 -0.125616
v 0.097813 0.347742 -0.185127
v 0.204811 0.360393 -0.123669
v 0.219920 0.345283 -0.000755
v 0.097813 0.347742 0.060703
v 0.002366 0.363693 -0.000755
v 0.002366 0.363693 -0.123669
v 0.123406 0.400116 -0.077737
v 0.102264 0.302149 -0.197191
v 0.103081 0.302149 0.077669
v 0.238075 0.309217 0.006094
v -0.020753 0.304986 -0.125616
v -0.019119 0.304986 0.011814
v 0.238075 0.309217 -0.135421
v 0.118888 0.154558 -0.182263
v 0.117464 0.052385 -0.171607
v 0.216516 0.057541 -0.116898
v 0.212126 0.164395 -0.122237
v 0.216516 0.057541 -0.007526
v 0.212126 0.164395 -0.002187
v 0.117464 0.052385 0.047183
v 0.118888 0.154558 0.057839
v 0.022715 0.053937 -0.007504
v 0.014920 0.154554 -0.002186
v 0.022715 0.053937 -0.116921
v 0.014920 0.154554 -0.122238
v -0.017104 0.000000 0.028303
v 0.043542 0.000000 0.035749
v 0.067417 0.000000 0.091992
v 0.030646 0.000000 0.140791
v -0.030000 0.000000 0.133345
v -0.053875 0.000000 0.077102
v -0.018909 0.135811 0.037601
v -0.024319 0.042275 0.016502
v 0.052858 0.045891 0.025020
v 0.034188 0.143980 0.049001
v 0.082185 0.037612 0.093608
v 0.056977 0.139841 0.104514
v 0.034347 0.025713 0.153707
v 0.026669 0.127534 0.148628
v -0.040174 0.026847 0.144644
v -0.031746 0.118059 0.139313
v -0.069513 0.035129 0.076027
v -0.054535 0.122198 0.083799
v -0.037522 0.131689 0.024174
v 0.041783 0.141741 0.038203
v 0.074334 0.136648 0.087356
v 0.032530 0.121503 0.160800
v -0.039354 0.109844 0.149338
v -0.070919 0.114938 0.088034
v -0.042140 0.205555 0.108817
v 0.028082 0.160382 0.185287
v 0.032474 0.193161 0.029689
v -0.052035 0.174059 0.017304
v -0.057438 0.142970 0.172172
v 0.075204 0.186220 0.103635
v 0.007195 0.221014 0.053971
v 0.041653 0.215575 0.107769
v 0.013073 0.191935 0.177878
v -0.053673 0.176777 0.161319
v -0.079574 0.182216 0.103596
v -0.046828 0.202814 0.043701
v -0.094779 0.149911 0.103308
v -0.017201 0.253978 -0.043356
v -0.247290 0.250565 -0.108183
v -0.169114 0.250565 -0.186788
v -0.098652 0.253978 0.036617
v -0.216137 0.248277 -0.000633
v -0.058398 0.248277 -0.156432
v -0.115204 0.327299 -0.076758
v -0.157169 0.297919 -0.172382
v -0.227914 0.297919 -0.102920
v -0.209348 0.285053 -0.013253
v -0.104970 0.283070 0.022297
v -0.042763 0.295257 -0.055861
v -0.067857 0.285053 -0.152176
v -0.154710 0.209262 -0.172118
v -0.231836 0.205899 -0.104673
v -0.206268 0.212444 -0.005634
v -0.103574 0.202172 0.025960
v -0.030588 0.202172 -0.045702
v -0.056156 0.209262 -0.144741
v -0.150732 0.209262 -0.156709
v -0.216502 0.205899 -0.100413
v -0.194913 0.212444 -0.016783
v -0.107552 0.202172 0.010551
v -0.045921 0.202172 -0.049961
v -0.067511 0.209262 -0.133591
v -0.146065 0.228244 -0.132304
v -0.141832 0.000000 -0.131728
v -0.188047 0.228244 -0.091084
v -0.187549 0.000000 -0.086841
v -0.173340 0.228244 -0.034116
v -0.171534 0.000000 -0.024806
v -0.116652 0.228244 -0.018369
v -0.109802 0.000000 -0.007658
v -0.074670 0.228244 -0.059589
v -0.064086 0.000000 -0.052545
v -0.089376 0.228244 -0.116557
v -0.080101 0.000000 -0.114580
v -0.054780 0.123621 -0.138428
v -0.064533 0.046811 -0.133226
v -0.040045 0.050970 -0.045297
v -0.036069 0.130099 -0.050841
v -0.102997 0.050970 0.016511
v -0.104950 0.135553 0.017001
v -0.190461 0.046811 -0.009583
v -0.192543 0.134529 -0.002741
v -0.212531 0.048063 -0.095022
v -0.216674 0.136437 -0.096503
v -0.149554 0.048063 -0.156856
v -0.147792 0.130983 -0.164347
vt 0.562395 0.336181
vt 0.551087 0.336181
vt 0.551087 0.347920
vt 0.562395 0.347920
vt 0.463503 0.335854
vt 0.463503 0.324115
vt 0.440560 0.324115
vt 0.440560 0.335854
vt 0.556578 0.215527
vt 0.545270 0.215527
vt 0.545270 0.227266
vt 0.556578 0.227266
vt 0.556578 0.263788
vt 0.545270 0.263788
vt 0.545270 0.275528
vt 0.556578 0.275528
vt 0.579847 0.347920
vt 0.579847 0.336181
vt 0.574356 0.336181
vt 0.574356 0.347920
vt 0.463503 0.359985
vt 0.463503 0.348246
vt 0.440560 0.348246
vt 0.440560 0.359985
vt 0.463829 0.257511
vt 0.463829 0.245609
vt 0.475300 0.239658
vt 0.486772 0.245609
vt 0.486772 0.257511
vt 0.475300 0.263462
vt 0.556578 0.275854
vt 0.545270 0.275854
vt 0.545270 0.287593
vt 0.556578 0.287593
vt 0.486772 0.263788
vt 0.463829 0.263788
vt 0.463829 0.287593
vt 0.486772 0.287593
vt 0.440234 0.287919
vt 0.417291 0.287919
vt 0.417291 0.311724
vt 0.440234 0.311724
vt 0.544944 0.287593
vt 0.544944 0.263788
vt 0.533635 0.263788
vt 0.533635 0.287593
vt 0.463503 0.287919
vt 0.440560 0.287919
vt 0.440560 0.311724
vt 0.463503 0.311724
vt 0.510366 0.347920
vt 0.533309 0.347920
vt 0.533309 0.336181
vt 0.510366 0.336181
vt 0.751094 0.927650
vt 0.751094 0.903845
vt 0.745603 0.903845
vt 0.745603 0.927650
vt 0.498406 0.348246
vt 0.487098 0.348246
vt 0.487098 0.359985
vt 0.498406 0.359985
vt 0.533635 0.378083
vt 0.544944 0.378083
vt 0.544944 0.372377
vt 0.533635 0.372377
vt 0.579847 0.335854
vt 0.579847 0.324115
vt 0.574356 0.324115
vt 0.574356 0.335854
vt 0.522001 0.378083
vt 0.533309 0.378083
vt 0.533309 0.372377
vt 0.522001 0.372377
vt 0.579847 0.311724
vt 0.579847 0.299984
vt 0.574356 0.299984
vt 0.574356 0.311724
vt 0.640893 0.927650
vt 0.663836 0.927650
vt 0.663836 0.915911
vt 0.640893 0.915911
vt 0.774363 0.867323
vt 0.774363 0.843519
vt 0.768872 0.843519
vt 0.768872 0.867323
vt 0.617624 0.975911
vt 0.640567 0.975911
vt 0.640567 0.970205
vt 0.617624 0.970205
vt 0.774363 0.843193
vt 0.774363 0.819388
vt 0.768872 0.819388
vt 0.768872 0.843193
vt 0.733968 0.969879
vt 0.756911 0.969879
vt 0.756911 0.964172
vt 0.733968 0.964172
vt 0.762728 0.903519
vt 0.762728 0.879715
vt 0.757237 0.879715
vt 0.757237 0.903519
vt 0.640567 0.843193
vt 0.617787 0.843193
vt 0.640567 0.819551
vt 0.722334 0.963846
vt 0.745277 0.963846
vt 0.745277 0.958140
vt 0.722334 0.958140
vt 0.733642 0.843193
vt 0.733642 0.819388
vt 0.722334 0.819388
vt 0.722334 0.843193
vt 0.687431 0.939715
vt 0.710373 0.939715
vt 0.710373 0.927976
vt 0.687431 0.927976
vt 0.733642 0.867323
vt 0.733642 0.843519
vt 0.722334 0.843519
vt 0.722334 0.867323
vt 0.710700 0.927650
vt 0.733642 0.927650
vt 0.733642 0.915911
vt 0.710700 0.915911
vt 0.733642 0.891454
vt 0.733642 0.867649
vt 0.722334 0.867649
vt 0.722334 0.891454
vt 0.664325 0.951781
vt 0.687105 0.951781
vt 0.687105 0.940205
vt 0.640567 0.891454
vt 0.617787 0.891454
vt 0.640567 0.867813
vt 0.617624 0.843030
vt 0.617624 0.819388
vt 0.640404 0.819388
vt 0.641056 0.867323
vt 0.663836 0.843682
vt 0.663836 0.867323
vt 0.617624 0.867649
vt 0.640404 0.867649
vt 0.617624 0.891291
vt 0.710700 0.939715
vt 0.733642 0.939715
vt 0.733642 0.927976
vt 0.710700 0.927976
vt 0.733642 0.915585
vt 0.733642 0.891780
vt 0.722334 0.891780
vt 0.722334 0.915585
vt 0.617624 0.951781
vt 0.640567 0.951781
vt 0.640567 0.940042
vt 0.617624 0.940042
vt 0.745277 0.843193
vt 0.745277 0.819388
vt 0.733968 0.819388
vt 0.733968 0.843193
vt 0.640893 0.951781
vt 0.663836 0.951781
vt 0.663836 0.940042
vt 0.640893 0.940042
vt 0.510040 0.287919
vt 0.487098 0.287919
vt 0.487098 0.311724
vt 0.510040 0.311724
vt 0.510040 0.263788
vt 0.487098 0.263788
vt 0.487098 0.287593
vt 0.510040 0.287593
vt 0.486772 0.287919
vt 0.463829 0.287919
vt 0.463829 0.311724
vt 0.486772 0.311724
vt 0.510040 0.239658
vt 0.487098 0.239658
vt 0.487098 0.263462
vt 0.510040 0.263462
vt 0.510040 0.215527
vt 0.487098 0.215527
vt 0.487098 0.239332
vt 0.510040 0.239332
vt 0.463503 0.263788
vt 0.440560 0.263788
vt 0.440560 0.287593
vt 0.463503 0.287593
vt 0.486772 0.215527
vt 0.463829 0.215527
vt 0.463829 0.239332
vt 0.486772 0.239332
vt 0.579847 0.287919
vt 0.574356 0.287919
vt 0.574356 0.299658
vt 0.579847 0.299658
vt 0.521675 0.378083
vt 0.521675 0.372377
vt 0.510366 0.372377
vt 0.510366 0.378083
vt 0.579847 0.275854
vt 0.574356 0.275854
vt 0.574356 0.287593
vt 0.579847 0.287593
vt 0.510040 0.378083
vt 0.510040 0.372377
vt 0.498732 0.372377
vt 0.498732 0.378083
vt 0.579847 0.263788
vt 0.574356 0.263788
vt 0.574356 0.275528
vt 0.579847 0.275528
vt 0.452031 0.215527
vt 0.463503 0.221478
vt 0.463503 0.233380
vt 0.452031 0.239332
vt 0.440560 0.233380
vt 0.440560 0.221478
vt 0.498406 0.378083
vt 0.498406 0.372377
vt 0.487098 0.372377
vt 0.487098 0.378083
vt 0.556578 0.239658
vt 0.545270 0.239658
vt 0.545270 0.251397
vt 0.556578 0.251397
vt 0.556578 0.251723
vt 0.545270 0.251723
vt 0.545270 0.263462
vt 0.556578 0.263462
vt 0.521675 0.215527
vt 0.510366 0.215527
vt 0.510366 0.239332
vt 0.521675 0.239332
vt 0.440234 0.359985
vt 0.440234 0.348246
vt 0.417291 0.348246
vt 0.417291 0.359985
vt 0.544944 0.239658
vt 0.533635 0.239658
vt 0.533635 0.263462
vt 0.544944 0.263462
vt 0.510040 0.347920
vt 0.510040 0.336181
vt 0.487098 0.336181
vt 0.487098 0.347920
vt 0.579847 0.263462
vt 0.579847 0.251723
vt 0.574356 0.251723
vt 0.574356 0.263462
vt 0.475463 0.378083
vt 0.486772 0.378083
vt 0.486772 0.372377
vt 0.475463 0.372377
vt 0.579847 0.251397
vt 0.579847 0.239658
vt 0.574356 0.239658
vt 0.574356 0.251397
vt 0.452194 0.378083
vt 0.463503 0.378083
vt 0.463503 0.372377
vt 0.452194 0.372377
vt 0.579847 0.239332
vt 0.579847 0.227592
vt 0.574356 0.227592
vt 0.574356 0.239332
vt 0.440560 0.378083
vt 0.451868 0.378083
vt 0.451868 0.372377
vt 0.440560 0.372377
vt 0.664162 0.951618
vt 0.664162 0.940042
vt 0.686942 0.940042
vt 0.768546 0.975911
vt 0.768546 0.964335
vt 0.757400 0.975911
vt 0.780180 0.916074
vt 0.774852 0.927650
vt 0.780180 0.927650
vt 0.768383 0.964172
vt 0.757237 0.964172
vt 0.757237 0.975748
vt 0.664325 0.981944
vt 0.675470 0.981944
vt 0.675470 0.970368
vt 0.780017 0.915911
vt 0.774689 0.927487
vt 0.774689 0.915911
vt 0.780180 0.831127
vt 0.780180 0.819388
vt 0.774689 0.819388
vt 0.774689 0.831127
vt 0.745603 0.981944
vt 0.756911 0.981944
vt 0.756911 0.976238
vt 0.745603 0.976238
vt 0.774363 0.975911
vt 0.774363 0.964172
vt 0.768872 0.964172
vt 0.768872 0.975911
vt 0.629258 0.981944
vt 0.640567 0.981944
vt 0.640567 0.976238
vt 0.629258 0.976238
vt 0.774363 0.963846
vt 0.774363 0.952107
vt 0.768872 0.952107
vt 0.768872 0.963846
vt 0.617624 0.981944
vt 0.628932 0.981944
vt 0.628932 0.976238
vt 0.617624 0.976238
vt 0.652201 0.964172
vt 0.640893 0.964172
vt 0.640893 0.975911
vt 0.652201 0.975911
vt 0.774363 0.951781
vt 0.774363 0.940042
vt 0.768872 0.940042
vt 0.768872 0.951781
vt 0.745603 0.975911
vt 0.756911 0.975911
vt 0.756911 0.970205
vt 0.745603 0.970205
vt 0.663836 0.964172
vt 0.652527 0.964172
vt 0.652527 0.975911
vt 0.663836 0.975911
vt 0.768546 0.867649
vt 0.757237 0.867649
vt 0.757237 0.879389
vt 0.768546 0.879389
vt 0.774363 0.927650
vt 0.774363 0.915911
vt 0.768872 0.915911
vt 0.768872 0.927650
vt 0.664162 0.970205
vt 0.675307 0.970205
vt 0.664162 0.981781
vt 0.687105 0.952270
vt 0.664325 0.963846
vt 0.687105 0.963846
vt 0.640567 0.916074
vt 0.640567 0.939715
vt 0.617787 0.939715
vt 0.617624 0.915911
vt 0.640404 0.915911
vt 0.617624 0.939552
vt 0.686942 0.952107
vt 0.664162 0.952107
vt 0.664162 0.963683
vt 0.664162 0.969879
vt 0.687105 0.969879
vt 0.687105 0.964172
vt 0.664162 0.964172
vt 0.762728 0.927650
vt 0.762728 0.903845
vt 0.757237 0.903845
vt 0.757237 0.927650
vt 0.687431 0.969879
vt 0.710373 0.969879
vt 0.710373 0.964172
vt 0.687431 0.964172
vt 0.768546 0.903519
vt 0.768546 0.879715
vt 0.763055 0.879715
vt 0.763055 0.903519
vt 0.710700 0.969879
vt 0.733642 0.969879
vt 0.733642 0.964172
vt 0.710700 0.964172
vt 0.768546 0.927650
vt 0.768546 0.903845
vt 0.763055 0.903845
vt 0.763055 0.927650
vt 0.640893 0.843519
vt 0.663673 0.843519
vt 0.640893 0.867160
vt 0.733968 0.975911
vt 0.745277 0.975911
vt 0.745277 0.970205
vt 0.733968 0.970205
vt 0.768546 0.963846
vt 0.768546 0.940042
vt 0.763055 0.940042
vt 0.763055 0.963846
vt 0.722334 0.975911
vt 0.733642 0.975911
vt 0.733642 0.970205
vt 0.722334 0.970205
vt 0.774363 0.915585
vt 0.774363 0.903845
vt 0.768872 0.903845
vt 0.768872 0.915585
vt 0.710700 0.975911
vt 0.722008 0.975911
vt 0.722008 0.970205
vt 0.710700 0.970205
vt 0.722008 0.891454
vt 0.722008 0.867649
vt 0.710700 0.867649
vt 0.710700 0.891454
vt 0.498732 0.372050
vt 0.510040 0.372050
vt 0.510040 0.366344
vt 0.498732 0.366344
vt 0.574030 0.299658
vt 0.574030 0.287919
vt 0.568539 0.287919
vt 0.568539 0.299658
vt 0.475463 0.372050
vt 0.486772 0.372050
vt 0.486772 0.366344
vt 0.475463 0.366344
vt 0.574030 0.275528
vt 0.574030 0.263788
vt 0.568539 0.263788
vt 0.568539 0.275528
vt 0.487098 0.372050
vt 0.498406 0.372050
vt 0.498406 0.366344
vt 0.487098 0.366344
vt 0.774363 0.891454
vt 0.774363 0.879715
vt 0.768872 0.879715
vt 0.768872 0.891454
vt 0.533635 0.299658
vt 0.556578 0.299658
vt 0.556578 0.287919
vt 0.533635 0.287919
vt 0.521675 0.263462
vt 0.521675 0.239658
vt 0.510366 0.239658
vt 0.510366 0.263462
vt 0.463829 0.323789
vt 0.486772 0.323789
vt 0.486772 0.312050
vt 0.463829 0.312050
vt 0.521675 0.311724
vt 0.521675 0.287919
vt 0.510366 0.287919
vt 0.510366 0.311724
vt 0.487098 0.323789
vt 0.510040 0.323789
vt 0.510040 0.312050
vt 0.487098 0.312050
vt 0.568213 0.324115
vt 0.556904 0.324115
vt 0.556904 0.335854
vt 0.568213 0.335854
vt 0.417291 0.257511
vt 0.417291 0.245609
vt 0.428762 0.239658
vt 0.440234 0.245609
vt 0.440234 0.257511
vt 0.428762 0.263462
vt 0.568213 0.251723
vt 0.556904 0.251723
vt 0.556904 0.263462
vt 0.568213 0.263462
vt 0.574030 0.335854
vt 0.574030 0.324115
vt 0.568539 0.324115
vt 0.568539 0.335854
vt 0.568213 0.239658
vt 0.556904 0.239658
vt 0.556904 0.251397
vt 0.568213 0.251397
vt 0.568213 0.227592
vt 0.556904 0.227592
vt 0.556904 0.239332
vt 0.568213 0.239332
vt 0.568213 0.215527
vt 0.556904 0.215527
vt 0.556904 0.227266
vt 0.568213 0.227266
vt 0.562395 0.348246
vt 0.551087 0.348246
vt 0.551087 0.359985
vt 0.562395 0.359985
vt 0.617624 0.969879
vt 0.640567 0.969879
vt 0.640567 0.964172
vt 0.617624 0.964172
vt 0.751094 0.963846
vt 0.751094 0.940042
vt 0.745603 0.940042
vt 0.745603 0.963846
vt 0.664162 0.939715
vt 0.687105 0.939715
vt 0.687105 0.927976
vt 0.664162 0.927976
vt 0.756911 0.927650
vt 0.756911 0.903845
vt 0.751420 0.903845
vt 0.751420 0.927650
vt 0.722334 0.957814
vt 0.745277 0.957814
vt 0.745277 0.952107
vt 0.722334 0.952107
vt 0.556578 0.324115
vt 0.545270 0.324115
vt 0.545270 0.335854
vt 0.556578 0.335854
vt 0.521675 0.348246
vt 0.510366 0.348246
vt 0.510366 0.359985
vt 0.521675 0.359985
vt 0.510040 0.348246
vt 0.498732 0.348246
vt 0.498732 0.359985
vt 0.510040 0.359985
vt 0.556578 0.227592
vt 0.545270 0.227592
vt 0.545270 0.239332
vt 0.556578 0.239332
vt 0.544944 0.336181
vt 0.533635 0.336181
vt 0.533635 0.347920
vt 0.544944 0.347920
vt 0.544944 0.324115
vt 0.533635 0.324115
vt 0.533635 0.335854
vt 0.544944 0.335854
vt 0.544944 0.323789
vt 0.544944 0.299984
vt 0.533635 0.299984
vt 0.533635 0.323789
vn -0.4475 -0.4589 -0.7676
vn 0.4545 -0.4214 0.7848
vn -0.4475 -0.4589 0.7676
vn -0.8812 -0.4727 0.0000
vn 0.3315 -0.7987 -0.5022
vn 0.4545 -0.4214 -0.7848
vn 0.0000 -1.0000 0.0000
vn 0.9035 -0.4285 0.0000
vn -0.9666 0.2562 0.0000
vn -0.4791 0.2862 0.8298
vn 0.4788 0.3376 0.8104
vn 0.9469 0.3214 0.0000
vn 0.4788 0.3376 -0.8104
vn -0.6945 -0.7195 -0.0000
vn 0.6581 -0.7529 0.0093
vn -0.3619 -0.7500 0.5537
vn -0.3621 -0.7525 -0.5501
vn 0.3244 -0.7610 0.5618
vn -0.9346 0.3556 0.0059
vn 0.0599 -0.9976 0.0346
vn 0.0000 -0.9994 -0.0356
vn -0.0890 -0.9947 0.0514
vn -0.0649 -0.9972 -0.0375
vn -0.0641 0.9372 0.3427
vn 0.4230 0.3634 0.8301
vn 0.3982 0.3626 -0.8426
vn -0.4966 0.2023 -0.8441
vn -0.4606 0.3074 0.8327
vn 0.8608 0.5085 -0.0201
vn 0.4483 -0.1464 -0.8818
vn 0.4616 0.8856 0.0521
vn -0.2882 0.9576 0.0000
vn 0.2092 0.9012 0.3796
vn 0.1633 0.8708 -0.4636
vn -0.1151 0.9034 -0.4131
vn -0.4875 -0.2535 -0.8355
vn -0.4600 -0.2942 0.8377
vn 0.9780 -0.2087 0.0000
vn 0.4607 -0.1842 0.8683
vn -0.9309 -0.3644 -0.0258
vn -0.4987 -0.0836 -0.8627
vn -0.9970 -0.0772 0.0000
vn -0.4987 -0.0836 0.8627
vn 0.5149 -0.0581 0.8553
vn 0.9992 0.0411 0.0000
vn 0.5149 -0.0581 -0.8553
vn -0.4791 0.2862 -0.8298
vn -0.7460 -0.3176 -0.5854
vn 0.7584 -0.3477 0.5513
vn -0.1131 -0.4272 0.8970
vn -0.8490 -0.4088 0.3347
vn 0.1179 -0.2485 -0.9614
vn 0.8720 -0.2942 -0.3912
vn -0.7981 0.1819 -0.5744
vn -0.9118 0.1143 0.3944
vn -0.1401 0.0539 0.9887
vn 0.7830 0.1087 0.6124
vn 0.8997 0.2584 -0.3520
vn 0.1260 0.2354 -0.9637
vn 0.2166 -0.8293 -0.5152
vn -0.4116 -0.7987 -0.4390
vn 0.0929 -0.9726 0.2131
vn 0.4097 -0.8745 -0.2597
vn -0.1949 -0.9807 0.0166
vn 0.3226 -0.9447 -0.0583
vn -0.1148 0.9783 0.1725
vn -0.2973 0.8633 0.4079
vn -0.5293 0.8484 0.0024
vn -0.3163 0.9485 -0.0172
vn -0.1107 0.9546 0.2767
vn -0.5335 0.7856 0.3134
vn -0.8374 0.3120 0.4489
vn 0.6594 0.5531 0.5092
vn -0.0533 0.6555 -0.7533
vn -0.8519 0.4210 -0.3117
vn -0.2324 0.2244 0.9464
vn 0.5936 0.7523 -0.2857
vn 0.8527 0.1105 -0.5106
vn -0.0273 -0.5550 0.8314
vn -0.7971 -0.3413 -0.4981
vn 0.1781 -0.1151 -0.9773
vn 0.8734 -0.1743 0.4547
vn -0.7154 -0.6204 0.3213
vn 0.2142 0.9034 -0.3716
vn 0.4453 0.8708 -0.2083
vn -0.1243 0.9012 0.4152
vn -0.2019 0.9576 -0.2056
vn 0.2862 0.8856 0.3659
vn 0.9433 -0.1464 -0.2979
vn 0.6175 0.5085 0.6001
vn -0.9168 0.3074 0.2548
vn 0.2544 0.2023 -0.9457
vn 0.8802 0.3626 -0.3062
vn -0.2959 0.3634 0.8834
vn -0.2894 0.9372 0.1944
vn -0.0187 -0.9972 -0.0726
vn -0.0990 -0.9947 -0.0275
vn 0.0254 -0.9994 -0.0250
vn 0.0173 -0.9976 0.0670
vn -0.6590 0.3556 -0.6628
vn -0.1736 -0.7610 0.6251
vn 0.1389 -0.7525 -0.6438
vn -0.6486 -0.7500 0.1296
vn 0.4544 -0.7529 0.4761
vn -0.4866 -0.7195 -0.4956
vn 0.9115 0.3437 -0.2261
vn 0.6701 0.3303 0.6647
vn -0.2272 0.3364 0.9139
vn -0.9305 0.2739 0.2432
vn -0.6735 0.2462 -0.6970
vn 0.6432 -0.3965 0.6551
vn 0.8923 -0.3883 -0.2302
vn 0.5906 -0.7987 -0.1153
vn -0.6302 -0.4368 -0.6419
vn -0.8782 -0.4230 0.2232
vn -0.2465 -0.3883 0.8880
vn 0.2392 -0.4230 -0.8740
vn 0.2547 -0.2535 -0.9332
vn -0.9201 -0.2942 0.2587
vn 0.6852 -0.2087 0.6978
vn -0.2968 -0.1842 0.9370
vn -0.6338 -0.3644 -0.6823
vn 0.2626 -0.0952 -0.9602
vn -0.7014 -0.0470 -0.7112
vn -0.9677 -0.0418 0.2487
vn -0.2517 -0.0470 0.9667
vn 0.7014 0.0133 0.7126
vn 0.9674 -0.1012 -0.2320
vn 0.2699 0.2892 -0.9184
usemtl low_poly_mushrooms_texture_atlas
s off
f 11/1/1 48/2/1 39/3/1 1/4/1
f 5/5/2 42/6/2 44/7/2 7/8/2
f 7/9/3 44/10/3 46/11/3 9/12/3
f 9/13/4 46/14/4 48/15/4 11/16/4
f 10/17/5 8/18/5 16/19/5 17/20/5
f 1/21/6 39/22/6 40/23/6 3/24/6
f 1/25/7 3/26/7 5/27/7 7/28/7 9/29/7 11/30/7
f 3/31/8 40/32/8 42/33/8 5/34/8
f 47/35/9 10/36/9 12/37/9 49/38/9
f 45/39/10 8/40/10 10/41/10 47/42/10
f 43/43/11 6/44/11 8/45/11 45/46/11
f 41/47/12 4/48/12 6/49/12 43/50/12
f 38/51/13 2/52/13 4/53/13 41/54/13
f 13/55/7 18/56/7 24/57/7 19/58/7
f 6/59/14 4/60/14 14/61/14 15/62/14
f 12/63/15 10/64/15 17/65/15 18/66/15
f 4/67/16 2/68/16 13/69/16 14/70/16
f 8/71/17 6/72/17 15/73/17 16/74/17
f 2/75/18 12/76/18 18/77/18 13/78/18
f 35/79/19 36/80/19 29/81/19 30/82/19
f 17/83/20 16/84/20 22/85/20 23/86/20
f 15/87/7 14/88/7 20/89/7 21/90/7
f 18/91/21 17/92/21 23/93/21 24/94/21
f 16/95/22 15/96/22 21/97/22 22/98/22
f 14/99/23 13/100/23 19/101/23 20/102/23
f 29/103/24 28/104/24 31/105/24
f 33/106/25 34/107/25 27/108/25 28/109/25
f 37/110/26 32/111/26 25/112/26 26/113/26
f 32/114/27 35/115/27 30/116/27 25/117/27
f 36/118/28 33/119/28 28/120/28 29/121/28
f 34/122/29 37/123/29 26/124/29 27/125/29
f 20/126/30 19/127/30 32/128/30 37/129/30
f 27/130/31 26/131/31 31/132/31
f 30/133/32 29/134/32 31/135/32
f 28/136/33 27/137/33 31/138/33
f 26/139/34 25/140/34 31/141/34
f 25/142/35 30/143/35 31/144/35
f 19/145/36 24/146/36 35/147/36 32/148/36
f 23/149/37 22/150/37 33/151/37 36/152/37
f 21/153/38 20/154/38 37/155/38 34/156/38
f 22/157/39 21/158/39 34/159/39 33/160/39
f 24/161/40 23/162/40 36/163/40 35/164/40
f 49/165/41 38/166/41 39/167/41 48/168/41
f 47/169/42 49/170/42 48/171/42 46/172/42
f 45/173/43 47/174/43 46/175/43 44/176/43
f 43/177/44 45/178/44 44/179/44 42/180/44
f 41/181/45 43/182/45 42/183/45 40/184/45
f 38/185/46 41/186/46 40/187/46 39/188/46
f 49/189/47 12/190/47 2/191/47 38/192/47
f 55/193/48 66/194/48 57/195/48 50/196/48
f 52/197/49 60/198/49 62/199/49 53/200/49
f 53/201/50 62/202/50 64/203/50 54/204/50
f 54/205/51 64/206/51 66/207/51 55/208/51
f 50/209/52 57/210/52 58/211/52 51/212/52
f 50/213/7 51/214/7 52/215/7 53/216/7 54/217/7 55/218/7
f 51/219/53 58/220/53 60/221/53 52/222/53
f 67/223/54 56/224/54 57/225/54 66/226/54
f 65/227/55 67/228/55 66/229/55 64/230/55
f 63/231/56 65/232/56 64/233/56 62/234/56
f 61/235/57 63/236/57 62/237/57 60/238/57
f 59/239/58 61/240/58 60/241/58 58/242/58
f 56/243/59 59/244/59 58/245/59 57/246/59
f 65/247/60 63/248/60 71/249/60 72/250/60
f 63/251/61 61/252/61 70/253/61 71/254/61
f 59/255/62 56/256/62 68/257/62 69/258/62
f 67/259/63 65/260/63 72/261/63 73/262/63
f 61/263/64 59/264/64 69/265/64 70/266/64
f 56/267/65 67/268/65 73/269/65 68/270/65
f 81/271/66 80/272/66 74/273/66
f 83/274/67 82/275/67 74/276/67
f 85/277/68 84/278/68 74/279/68
f 80/280/69 85/281/69 74/282/69
f 82/283/70 81/284/70 74/285/70
f 84/286/71 83/287/71 74/288/71
f 86/289/72 78/290/72 83/291/72 84/292/72
f 75/293/73 79/294/73 81/295/73 82/296/73
f 76/297/74 77/298/74 85/299/74 80/300/74
f 77/301/75 86/302/75 84/303/75 85/304/75
f 78/305/76 75/306/76 82/307/76 83/308/76
f 79/309/77 76/310/77 80/311/77 81/312/77
f 70/313/78 69/314/78 76/315/78 79/316/78
f 72/317/79 71/318/79 75/319/79 78/320/79
f 68/321/80 73/322/80 86/323/80 77/324/80
f 69/325/81 68/326/81 77/327/81 76/328/81
f 71/329/82 70/330/82 79/331/82 75/332/82
f 73/333/83 72/334/83 78/335/83 86/336/83
f 99/337/84 94/338/84 93/339/84
f 98/340/85 99/341/85 93/342/85
f 96/343/86 97/344/86 93/345/86
f 94/346/87 95/347/87 93/348/87
f 97/349/88 98/350/88 93/351/88
f 104/352/89 105/353/89 92/354/89 87/355/89
f 90/356/90 87/357/90 98/358/90 97/359/90
f 88/360/91 91/361/91 96/362/91 95/363/91
f 92/364/92 89/365/92 94/366/92 99/367/92
f 87/368/93 92/369/93 99/370/93 98/371/93
f 91/372/94 90/373/94 97/374/94 96/375/94
f 95/376/95 96/377/95 93/378/95
f 110/379/96 111/380/96 105/381/96 104/382/96
f 108/383/97 109/384/97 103/385/97 102/386/97
f 106/387/98 107/388/98 101/389/98 100/390/98
f 109/391/7 110/392/7 104/393/7 103/394/7
f 107/395/99 108/396/99 102/397/99 101/398/99
f 89/399/100 88/400/100 95/401/100 94/402/100
f 122/403/101 112/404/101 106/405/101 111/406/101
f 116/407/102 118/408/102 109/409/102 108/410/102
f 120/411/103 122/412/103 111/413/103 110/414/103
f 112/415/104 114/416/104 107/417/104 106/418/104
f 118/419/105 120/420/105 110/421/105 109/422/105
f 111/423/7 106/424/7 100/425/7 105/426/7
f 124/427/106 122/428/106 120/429/106 127/430/106
f 127/431/107 120/432/107 118/433/107 129/434/107
f 129/435/108 118/436/108 116/437/108 131/438/108
f 131/439/109 116/440/109 114/441/109 133/442/109
f 133/443/110 114/444/110 112/445/110 135/446/110
f 121/447/111 126/448/111 128/449/111 119/450/111
f 123/451/7 121/452/7 119/453/7 117/454/7 115/455/7 113/456/7
f 123/457/112 125/458/112 126/459/112 121/460/112
f 114/461/113 116/462/113 108/463/113 107/464/113
f 115/465/114 132/466/114 134/467/114 113/468/114
f 117/469/115 130/470/115 132/471/115 115/472/115
f 119/473/116 128/474/116 130/475/116 117/476/116
f 113/477/117 134/478/117 125/479/117 123/480/117
f 105/481/118 100/482/118 89/483/118 92/484/118
f 101/485/119 102/486/119 91/487/119 88/488/119
f 103/489/120 104/490/120 87/491/120 90/492/120
f 102/493/121 103/494/121 90/495/121 91/496/121
f 100/497/122 101/498/122 88/499/122 89/500/122
f 135/501/123 124/502/123 125/503/123 134/504/123
f 133/505/124 135/506/124 134/507/124 132/508/124
f 131/509/125 133/510/125 132/511/125 130/512/125
f 129/513/126 131/514/126 130/515/126 128/516/126
f 127/517/127 129/518/127 128/519/127 126/520/127
f 124/521/128 127/522/128 126/523/128 125/524/128
f 135/525/129 112/526/129 122/527/129 124/528/129
