# Blender v2.82 (sub 7) OBJ File: 'low_poly_mushrooms.blend'
# www.blender.org
mtllib chanterelle.mtl
o chanterelle_Cylinder.024
v 0.033499 -0.002452 -0.066673
v 0.084244 -0.002452 -0.037375
v 0.084244 -0.002452 0.021220
v 0.033499 -0.002452 0.050517
v -0.017246 -0.002452 0.021220
v -0.017246 -0.002452 -0.037375
v 0.044596 0.146185 -0.070894
v 0.040528 0.083059 -0.051865
v 0.080138 0.083059 -0.029967
v 0.097585 0.141280 -0.039485
v 0.080138 0.083059 0.013812
v 0.097585 0.141280 0.023330
v 0.040528 0.083059 0.035710
v 0.044596 0.146185 0.054738
v 0.002597 0.083059 0.013821
v -0.013542 0.151568 0.023331
v 0.002597 0.083059 -0.029976
v -0.013542 0.151568 -0.039486
v 0.054915 0.211888 -0.049651
v 0.089814 0.208485 -0.028867
v 0.089814 0.208485 0.012700
v 0.054915 0.211888 0.033484
v 0.016624 0.215622 0.012700
v 0.016624 0.215622 -0.028867
v 0.048321 0.157787 -0.236527
v 0.241032 0.139946 -0.122301
v 0.241032 0.139946 0.106146
v 0.048321 0.157787 0.220371
v -0.163118 0.177361 0.106148
v -0.163118 0.177361 -0.122303
v -0.074695 0.191613 -0.073081
v -0.074695 0.191613 0.056926
v 0.045631 0.180474 0.121929
v 0.155299 0.170321 0.056925
v 0.155299 0.170321 -0.073080
v 0.045631 0.180474 -0.138084
v -0.028302 0.227549 -0.053055
v -0.028302 0.227549 0.036900
v 0.054954 0.219841 0.081877
v 0.130836 0.212816 0.036899
v 0.130836 0.212816 -0.053054
v 0.054954 0.219841 -0.098032
v 0.053416 0.201983 -0.188384
v 0.205516 0.187902 -0.098230
v 0.205516 0.187902 0.082075
v 0.053416 0.201983 0.172229
v -0.113464 0.217433 0.082076
v -0.113464 0.217433 -0.098232
v -0.155427 0.193626 -0.118914
v -0.155427 0.193626 0.102759
v 0.049738 0.174632 0.213594
v 0.236732 0.157321 0.102757
v 0.236732 0.157321 -0.118912
v 0.049738 0.174632 -0.229749
v -0.074821 -0.002452 0.185175
v -0.045262 -0.002452 0.173392
v -0.020278 -0.002452 0.193100
v -0.024854 -0.002452 0.224591
v -0.054413 -0.002452 0.236373
v -0.079397 -0.002452 0.216665
v -0.072965 0.072903 0.188720
v -0.044340 0.072903 0.177216
v -0.020466 0.072903 0.196055
v -0.025208 0.072903 0.226406
v -0.053121 0.072903 0.237026
v -0.077004 0.072903 0.218179
v -0.108727 0.074513 0.230475
v -0.057932 0.064852 0.270557
v 0.001432 0.074513 0.247970
v 0.011517 0.064852 0.183422
v -0.039257 0.074513 0.143355
v -0.100137 0.064852 0.167822
v -0.078519 0.110905 0.218766
v -0.096918 0.098345 0.225898
v -0.056141 0.088683 0.258076
v -0.008484 0.098345 0.239943
v -0.000388 0.088683 0.188124
v -0.041149 0.098345 0.155960
v -0.090022 0.088683 0.175601
v -0.100137 0.073547 0.167822
v -0.039257 0.083209 0.143355
v 0.011517 0.073547 0.183422
v 0.001432 0.083209 0.247970
v -0.057932 0.073547 0.270557
v -0.108727 0.083209 0.230475
v -0.071307 0.037792 0.185000
v -0.043895 0.037792 0.173802
v -0.075504 0.037792 0.213869
v -0.020995 0.037792 0.191867
v -0.025502 0.037792 0.221133
v -0.052600 0.037792 0.231937
v -0.040557 0.097057 0.213981
v 0.015527 0.148877 0.039034
v -0.038893 0.097057 0.203334
v 0.035769 0.213755 0.023092
v -0.070538 0.183419 0.163260
v -0.014532 0.186044 0.089427
v 0.013326 0.240313 0.059388
v -0.030024 0.226325 0.127153
v -0.052844 0.200747 0.158176
v -0.013542 0.151568 -0.007622
v -0.050349 0.097057 0.217706
v 0.016624 0.215622 -0.007782
v -0.161958 0.188182 -0.006422
v -0.074695 0.191613 -0.007136
v -0.028302 0.244167 -0.007426
v -0.113464 0.234050 -0.006771
v -0.155427 0.210244 -0.006471
v -0.047268 0.097057 0.196725
v 0.015527 0.148877 -0.055190
v -0.057310 0.097057 0.200761
v 0.035769 0.213755 -0.039259
v -0.056239 0.180861 -0.179415
v -0.014532 0.186044 -0.105583
v 0.013326 0.240313 -0.075544
v -0.030024 0.226325 -0.143308
v -0.052844 0.200747 -0.174332
v -0.058727 0.097057 0.211095
v 0.071091 0.143733 -0.055189
v -0.074263 0.101243 0.187722
v 0.072364 0.210187 -0.039259
v 0.145836 0.162146 -0.179414
v 0.100465 0.175397 -0.105582
v 0.092895 0.232947 -0.075543
v 0.129466 0.211560 -0.143307
v 0.143235 0.182594 -0.174331
v -0.044097 0.110905 0.175599
v 0.097585 0.141280 -0.008078
v -0.018939 0.101243 0.195452
v 0.089814 0.208485 -0.008084
v 0.242191 0.146018 -0.008078
v 0.155299 0.170321 -0.008078
v 0.130836 0.229434 -0.008078
v 0.205516 0.204520 -0.008078
v 0.236732 0.173938 -0.008078
v -0.023935 0.110905 0.227436
v 0.071091 0.143733 0.039034
v -0.053350 0.101243 0.238627
v 0.072364 0.210187 0.023092
v 0.145836 0.166257 0.163259
v 0.100465 0.175397 0.089427
v 0.092895 0.232947 0.059388
v 0.129466 0.211560 0.127152
v 0.143235 0.182594 0.158175
v 0.181493 -0.002452 0.131769
v 0.221042 -0.002452 0.116004
v 0.254470 -0.002452 0.142373
v 0.248347 -0.002452 0.184506
v 0.208798 -0.002452 0.200270
v 0.175371 -0.002452 0.173902
v 0.218295 0.352602 0.131867
v 0.262121 0.346684 0.114094
v 0.298673 0.341748 0.143199
v 0.291413 0.342728 0.190089
v 0.248678 0.348499 0.206497
v 0.212111 0.353437 0.177380
v 0.163875 0.362460 0.196376
v 0.239647 0.337167 0.258301
v 0.332533 0.339686 0.223405
v 0.345976 0.322809 0.123682
v 0.270236 0.348098 0.061782
v 0.175030 0.345892 0.099581
v 0.217648 0.411932 0.178287
v 0.186881 0.396506 0.189305
v 0.247316 0.373284 0.239017
v 0.322277 0.378223 0.211004
v 0.332675 0.361757 0.130947
v 0.272266 0.384976 0.081255
v 0.195442 0.380288 0.111599
v 0.176827 0.359205 0.099581
v 0.272034 0.361411 0.061782
v 0.347773 0.336122 0.123682
v 0.334331 0.352999 0.223405
v 0.241444 0.350480 0.258301
v 0.165673 0.375773 0.196376
v 0.235333 0.302499 0.144224
v 0.253422 0.299803 0.136753
v 0.232563 0.302912 0.163484
v 0.268533 0.297550 0.148805
v 0.265559 0.297994 0.168330
v 0.247678 0.300659 0.175538
v 0.272907 0.382882 0.170894
v 0.275454 0.382538 0.154445
v 0.257915 0.384906 0.176649
v 0.262631 0.384269 0.144235
v 0.247257 0.386345 0.150469
v 0.245088 0.386638 0.166435
v 0.222167 0.396260 0.130325
v 0.270350 0.404815 0.111596
v 0.306871 0.384822 0.142267
v 0.301218 0.400647 0.191680
v 0.254185 0.391936 0.208971
v 0.255157 0.180313 0.136282
v 0.271621 0.180527 0.149304
v 0.268520 0.180494 0.170222
v 0.249039 0.180242 0.178009
v 0.235590 0.180068 0.144176
v 0.232574 0.180029 0.164985
v 0.248862 0.080498 0.130002
v 0.270250 0.075716 0.147316
v 0.266295 0.076602 0.175032
v 0.240988 0.082260 0.185384
v 0.223517 0.086166 0.140403
v 0.219599 0.087042 0.168069
v -0.212172 -0.002452 0.067791
v -0.189033 -0.002452 0.089636
v -0.196383 -0.002452 0.120597
v -0.226871 -0.002452 0.129712
v -0.250009 -0.002452 0.107867
v -0.242659 -0.002452 0.076906
v -0.215157 0.086818 0.066243
v -0.189489 0.082246 0.090719
v -0.197510 0.083675 0.125017
v -0.231203 0.089675 0.134852
v -0.255614 0.094022 0.110693
v -0.247589 0.092593 0.076382
v -0.275238 0.099413 0.049036
v -0.294268 0.091427 0.122009
v -0.240388 0.093207 0.173388
v -0.170696 0.069420 0.152471
v -0.151672 0.077408 0.079528
v -0.208226 0.076104 0.027473
v -0.241202 0.136199 0.075076
v -0.259981 0.124755 0.059215
v -0.275645 0.116169 0.117797
v -0.232004 0.119773 0.159044
v -0.176443 0.098503 0.142251
v -0.160784 0.107089 0.083694
v -0.206572 0.103868 0.041905
v -0.206459 0.086027 0.027473
v -0.149905 0.087331 0.079528
v -0.168928 0.079343 0.152471
v -0.238621 0.103130 0.173388
v -0.292501 0.101350 0.122009
v -0.273471 0.109336 0.049036
v -0.218905 0.050330 0.075279
v -0.200607 0.048794 0.092322
v -0.242470 0.052308 0.082347
v -0.206286 0.049271 0.116332
v -0.230265 0.051283 0.123304
v -0.248150 0.052785 0.106362
v -0.220813 0.116263 0.112648
v -0.208994 0.114158 0.109198
v -0.229377 0.117788 0.104174
v -0.206180 0.113657 0.097167
v -0.215184 0.115261 0.088581
v -0.226561 0.117287 0.092137
v -0.208988 0.119087 0.064391
v -0.179975 0.125295 0.090184
v -0.190392 0.115775 0.126328
v -0.223934 0.133124 0.136692
v -0.251622 0.126679 0.111234
v -0.100238 -0.002452 -0.226468
v -0.077100 -0.002452 -0.204622
v -0.084449 -0.002452 -0.173661
v -0.114937 -0.002452 -0.164546
v -0.138075 -0.002452 -0.186391
v -0.130726 -0.002452 -0.217352
v -0.102671 0.072903 -0.223291
v -0.080179 0.072903 -0.202175
v -0.087208 0.072903 -0.172587
v -0.116732 0.072903 -0.164102
v -0.138123 0.072903 -0.184944
v -0.131091 0.072903 -0.214544
v -0.155606 0.074513 -0.238135
v -0.170560 0.064852 -0.175182
v -0.125068 0.074513 -0.130857
v -0.062278 0.064852 -0.148903
v -0.047329 0.074513 -0.211830
v -0.095164 0.064852 -0.256737
v -0.132262 0.110905 -0.215671
v -0.146480 0.098345 -0.229354
v -0.158486 0.088683 -0.178816
v -0.121965 0.098345 -0.143232
v -0.071558 0.088683 -0.157719
v -0.059557 0.098345 -0.208236
v -0.097959 0.088683 -0.244287
v -0.095164 0.073547 -0.256737
v -0.047329 0.083209 -0.211830
v -0.062278 0.073547 -0.148903
v -0.125068 0.083209 -0.130857
v -0.170560 0.073547 -0.175182
v -0.155606 0.083209 -0.238135
v -0.098729 0.037792 -0.222796
v -0.077451 0.037792 -0.203048
v -0.126130 0.037792 -0.214605
v -0.084056 0.037792 -0.175226
v -0.111938 0.037792 -0.167147
v -0.132735 0.037792 -0.186779
v -0.111929 0.097057 -0.183257
v -0.101572 0.097057 -0.186233
v -0.119433 0.097057 -0.190568
v -0.099107 0.097057 -0.196613
v -0.106997 0.097057 -0.204020
v -0.116966 0.097057 -0.200952
v -0.102313 0.101243 -0.224888
v -0.078610 0.110905 -0.202637
v -0.086018 0.101243 -0.171456
v -0.117130 0.110905 -0.162515
v -0.139672 0.101243 -0.184478
v 0.107085 -0.002452 -0.182142
v 0.116720 -0.002452 -0.223613
v 0.157452 -0.002452 -0.236005
v 0.188550 -0.002452 -0.206925
v 0.178914 -0.002452 -0.165454
v 0.138182 -0.002452 -0.153063
v 0.081290 0.310996 -0.210198
v 0.094744 0.309431 -0.262309
v 0.143486 0.324006 -0.277440
v 0.178793 0.340151 -0.240466
v 0.164886 0.341344 -0.190248
v 0.116124 0.326764 -0.175110
v 0.099728 0.330893 -0.118121
v 0.208760 0.346012 -0.148462
v 0.233011 0.359366 -0.257119
v 0.163248 0.309137 -0.333900
v 0.054259 0.294031 -0.303572
v 0.030971 0.281469 -0.190891
v 0.094432 0.389338 -0.179660
v 0.092362 0.369539 -0.144019
v 0.180941 0.378542 -0.168012
v 0.199360 0.392397 -0.255605
v 0.144405 0.348940 -0.316878
v 0.055859 0.339947 -0.292897
v 0.038215 0.326728 -0.202073
v 0.026177 0.295771 -0.192559
v 0.049465 0.308333 -0.305239
v 0.158454 0.323439 -0.335567
v 0.228217 0.373668 -0.258786
v 0.203966 0.360314 -0.150130
v 0.094934 0.345195 -0.119788
v 0.128659 0.280790 -0.219236
v 0.133571 0.279941 -0.238353
v 0.141605 0.286718 -0.205967
v 0.151506 0.285086 -0.243879
v 0.164533 0.291081 -0.230290
v 0.159543 0.291863 -0.211494
v 0.133727 0.370333 -0.235681
v 0.121341 0.364669 -0.248652
v 0.128848 0.370751 -0.218065
v 0.104242 0.359556 -0.243344
v 0.099523 0.360105 -0.225063
v 0.111742 0.365637 -0.212755
v 0.063050 0.356831 -0.214784
v 0.071901 0.371072 -0.271551
v 0.128593 0.370541 -0.285644
v 0.160474 0.403446 -0.248534
v 0.151144 0.388812 -0.193760
v 0.158593 0.179384 -0.240046
v 0.178282 0.183389 -0.246129
v 0.193415 0.186267 -0.231642
v 0.188819 0.185126 -0.211202
v 0.154036 0.178257 -0.219474
v 0.169129 0.181121 -0.205118
v 0.144094 0.080498 -0.238463
v 0.170520 0.075716 -0.246139
v 0.191017 0.076602 -0.227068
v 0.185069 0.082260 -0.200381
v 0.138165 0.086166 -0.211715
v 0.158643 0.087042 -0.192705
vt 0.381802 0.355158
vt 0.381802 0.359252
vt 0.381802 0.363347
vt 0.374301 0.362618
vt 0.373832 0.356641
vt 0.356920 0.376439
vt 0.353097 0.376439
vt 0.353097 0.380371
vt 0.356920 0.380371
vt 0.377655 0.372183
vt 0.377655 0.376277
vt 0.377655 0.380371
vt 0.370115 0.379450
vt 0.369685 0.374061
vt 0.236658 0.329622
vt 0.236658 0.333716
vt 0.236658 0.337810
vt 0.228688 0.335932
vt 0.229118 0.330543
vt 0.220394 0.337810
vt 0.220394 0.333716
vt 0.220394 0.329622
vt 0.228364 0.330862
vt 0.228364 0.336569
vt 0.253246 0.240163
vt 0.253246 0.248513
vt 0.245114 0.252688
vt 0.236982 0.248513
vt 0.236982 0.240162
vt 0.245114 0.235987
vt 0.236658 0.321109
vt 0.236658 0.325204
vt 0.236658 0.329298
vt 0.228688 0.327814
vt 0.229157 0.321838
vt 0.327891 0.320786
vt 0.327891 0.304085
vt 0.319921 0.304085
vt 0.319921 0.320786
vt 0.319921 0.363347
vt 0.336185 0.363347
vt 0.336185 0.355158
vt 0.319921 0.355158
vt 0.336185 0.320786
vt 0.336185 0.304085
vt 0.328215 0.304085
vt 0.328215 0.320786
vt 0.220394 0.346322
vt 0.236658 0.346322
vt 0.236658 0.338134
vt 0.220394 0.338134
vt 0.344479 0.252688
vt 0.344479 0.235987
vt 0.336509 0.235987
vt 0.336509 0.252688
vt 0.253570 0.346322
vt 0.269834 0.346322
vt 0.269834 0.338134
vt 0.253570 0.338134
vt 0.709108 0.416434
vt 0.705284 0.416434
vt 0.705284 0.424623
vt 0.709108 0.424623
vt 0.626168 0.518580
vt 0.618198 0.518580
vt 0.618198 0.526769
vt 0.626168 0.526769
vt 0.704961 0.416434
vt 0.701137 0.416434
vt 0.701137 0.424623
vt 0.704961 0.424623
vt 0.717402 0.416434
vt 0.713578 0.416434
vt 0.713578 0.424623
vt 0.717402 0.424623
vt 0.713255 0.416434
vt 0.709431 0.416434
vt 0.709431 0.424623
vt 0.713255 0.424623
vt 0.709108 0.424946
vt 0.705284 0.424946
vt 0.705284 0.433135
vt 0.709108 0.433135
vt 0.742283 0.467507
vt 0.734313 0.467507
vt 0.734313 0.484208
vt 0.742283 0.484208
vt 0.700814 0.543793
vt 0.700814 0.535605
vt 0.684550 0.535605
vt 0.684550 0.543793
vt 0.742283 0.501556
vt 0.734313 0.501556
vt 0.734313 0.518257
vt 0.742283 0.518257
vt 0.667638 0.467507
vt 0.651374 0.467507
vt 0.651374 0.484208
vt 0.667638 0.484208
vt 0.684226 0.450483
vt 0.667962 0.450483
vt 0.667962 0.467184
vt 0.684226 0.467184
vt 0.336185 0.346322
vt 0.336185 0.338134
vt 0.319921 0.338134
vt 0.319921 0.346322
vt 0.352773 0.270036
vt 0.344803 0.270036
vt 0.344803 0.286737
vt 0.352773 0.286737
vt 0.286422 0.354834
vt 0.286422 0.346646
vt 0.270158 0.346646
vt 0.270158 0.354834
vt 0.319597 0.244500
vt 0.311627 0.244500
vt 0.311627 0.252688
vt 0.319597 0.252688
vt 0.352773 0.287061
vt 0.344803 0.287061
vt 0.344803 0.303761
vt 0.352773 0.303761
vt 0.311303 0.244500
vt 0.303333 0.244500
vt 0.303333 0.252688
vt 0.311303 0.252688
vt 0.319597 0.235987
vt 0.311627 0.235987
vt 0.311627 0.244176
vt 0.319597 0.244176
vt 0.684550 0.552306
vt 0.700814 0.552306
vt 0.700814 0.544117
vt 0.684550 0.544117
vt 0.352773 0.320786
vt 0.352773 0.304085
vt 0.344803 0.304085
vt 0.344803 0.320786
vt 0.701137 0.552306
vt 0.717402 0.552306
vt 0.717402 0.544117
vt 0.701137 0.544117
vt 0.750577 0.535281
vt 0.750577 0.518580
vt 0.742607 0.518580
vt 0.742607 0.535281
vt 0.319921 0.354834
vt 0.336185 0.354834
vt 0.336185 0.346646
vt 0.319921 0.346646
vt 0.742283 0.552306
vt 0.742283 0.535605
vt 0.734313 0.535605
vt 0.734313 0.552306
vt 0.336509 0.376115
vt 0.352773 0.376115
vt 0.352773 0.372183
vt 0.336509 0.372183
vt 0.763018 0.450159
vt 0.763018 0.433458
vt 0.759195 0.433458
vt 0.759195 0.450159
vt 0.618198 0.569330
vt 0.634462 0.569330
vt 0.634462 0.565398
vt 0.618198 0.565398
vt 0.775459 0.467184
vt 0.775459 0.450483
vt 0.771636 0.450483
vt 0.771636 0.467184
vt 0.684550 0.577842
vt 0.700814 0.577842
vt 0.700814 0.573910
vt 0.684550 0.573910
vt 0.775459 0.501232
vt 0.775459 0.484532
vt 0.771636 0.484532
vt 0.771636 0.501232
vt 0.286422 0.304085
vt 0.270158 0.304085
vt 0.270158 0.320786
vt 0.286422 0.320786
vt 0.319597 0.270036
vt 0.303333 0.270036
vt 0.303333 0.286737
vt 0.319597 0.286737
vt 0.303009 0.304085
vt 0.286745 0.304085
vt 0.286745 0.320786
vt 0.303009 0.320786
vt 0.319597 0.287061
vt 0.303333 0.287061
vt 0.303333 0.303761
vt 0.319597 0.303761
vt 0.319597 0.304085
vt 0.303333 0.304085
vt 0.303333 0.320786
vt 0.319597 0.320786
vt 0.336185 0.218963
vt 0.319921 0.218963
vt 0.319921 0.235664
vt 0.336185 0.235664
vt 0.311303 0.235987
vt 0.311303 0.240022
vt 0.311303 0.244176
vt 0.303333 0.242936
vt 0.303333 0.237227
vt 0.361067 0.376439
vt 0.357244 0.376439
vt 0.357244 0.380371
vt 0.361067 0.380371
vt 0.228364 0.240243
vt 0.224541 0.240243
vt 0.224541 0.244176
vt 0.228364 0.244176
vt 0.224217 0.240243
vt 0.220394 0.240243
vt 0.220394 0.244176
vt 0.224217 0.244176
vt 0.228364 0.235987
vt 0.224541 0.235987
vt 0.224541 0.239920
vt 0.228364 0.239920
vt 0.224217 0.235987
vt 0.220394 0.235987
vt 0.220394 0.239920
vt 0.224217 0.239920
vt 0.253246 0.229522
vt 0.253246 0.233616
vt 0.249261 0.235664
vt 0.245276 0.233616
vt 0.245276 0.229522
vt 0.249261 0.227475
vt 0.236658 0.240243
vt 0.232835 0.240243
vt 0.232835 0.244176
vt 0.236658 0.244176
vt 0.307156 0.235664
vt 0.307156 0.227475
vt 0.303333 0.227475
vt 0.303333 0.235664
vt 0.319597 0.235664
vt 0.319597 0.227475
vt 0.315774 0.227475
vt 0.315774 0.235664
vt 0.315450 0.235664
vt 0.315450 0.227475
vt 0.311627 0.227475
vt 0.311627 0.235664
vt 0.294716 0.295249
vt 0.294716 0.287061
vt 0.290892 0.287061
vt 0.290892 0.295249
vt 0.290569 0.295249
vt 0.290569 0.287061
vt 0.286745 0.287061
vt 0.286745 0.295249
vt 0.303009 0.295249
vt 0.303009 0.287061
vt 0.299186 0.287061
vt 0.299186 0.295249
vt 0.696667 0.492720
vt 0.696667 0.484532
vt 0.692843 0.484532
vt 0.692843 0.492720
vt 0.692520 0.501232
vt 0.692520 0.493044
vt 0.688697 0.493044
vt 0.688697 0.501232
vt 0.290569 0.303761
vt 0.290569 0.295573
vt 0.286745 0.295573
vt 0.286745 0.303761
vt 0.700814 0.501232
vt 0.700814 0.493044
vt 0.696990 0.493044
vt 0.696990 0.501232
vt 0.696667 0.501232
vt 0.696667 0.493044
vt 0.692843 0.493044
vt 0.692843 0.501232
vt 0.675932 0.492720
vt 0.675932 0.484532
vt 0.672109 0.484532
vt 0.672109 0.492720
vt 0.671785 0.492720
vt 0.671785 0.484532
vt 0.667962 0.484532
vt 0.667962 0.492720
vt 0.286422 0.295249
vt 0.286422 0.287061
vt 0.282598 0.287061
vt 0.282598 0.295249
vt 0.282275 0.295249
vt 0.282275 0.287061
vt 0.278451 0.287061
vt 0.278451 0.295249
vt 0.675932 0.501232
vt 0.675932 0.493044
vt 0.672109 0.493044
vt 0.672109 0.501232
vt 0.671785 0.501232
vt 0.671785 0.493044
vt 0.667962 0.493044
vt 0.667962 0.501232
vt 0.286422 0.303761
vt 0.286422 0.295573
vt 0.282598 0.295573
vt 0.282598 0.303761
vt 0.680079 0.501232
vt 0.680079 0.493044
vt 0.676256 0.493044
vt 0.676256 0.501232
vt 0.294716 0.278225
vt 0.294716 0.270036
vt 0.290892 0.270036
vt 0.290892 0.278225
vt 0.290569 0.278225
vt 0.290569 0.270036
vt 0.286745 0.270036
vt 0.286745 0.278225
vt 0.700814 0.475696
vt 0.700814 0.467507
vt 0.696990 0.467507
vt 0.696990 0.475696
vt 0.298863 0.278225
vt 0.298863 0.270036
vt 0.295039 0.270036
vt 0.295039 0.278225
vt 0.692520 0.484208
vt 0.692520 0.476020
vt 0.688697 0.476020
vt 0.688697 0.484208
vt 0.290569 0.286737
vt 0.290569 0.278548
vt 0.286745 0.278548
vt 0.286745 0.286737
vt 0.303009 0.286737
vt 0.303009 0.278548
vt 0.299186 0.278548
vt 0.299186 0.286737
vt 0.298863 0.286737
vt 0.298863 0.278548
vt 0.295039 0.278548
vt 0.295039 0.286737
vt 0.294716 0.261200
vt 0.294716 0.253012
vt 0.290892 0.253012
vt 0.290892 0.261200
vt 0.290569 0.261200
vt 0.290569 0.253012
vt 0.286745 0.253012
vt 0.286745 0.261200
vt 0.303009 0.261200
vt 0.303009 0.253012
vt 0.299186 0.253012
vt 0.299186 0.261200
vt 0.336185 0.240162
vt 0.336185 0.244398
vt 0.336185 0.248513
vt 0.331931 0.250600
vt 0.327676 0.252688
vt 0.323799 0.250600
vt 0.319921 0.248513
vt 0.319921 0.244338
vt 0.319921 0.240163
vt 0.323799 0.238075
vt 0.327676 0.235987
vt 0.331931 0.238075
vt 0.253246 0.321109
vt 0.236982 0.321109
vt 0.236982 0.337810
vt 0.253246 0.337810
vt 0.717725 0.577842
vt 0.733989 0.577842
vt 0.733989 0.573910
vt 0.717725 0.573910
vt 0.742283 0.433135
vt 0.742283 0.416434
vt 0.734313 0.416434
vt 0.734313 0.433135
vt 0.303009 0.337810
vt 0.303009 0.329622
vt 0.286745 0.329622
vt 0.286745 0.337810
vt 0.684226 0.518580
vt 0.667962 0.518580
vt 0.667962 0.535281
vt 0.684226 0.535281
vt 0.696667 0.450483
vt 0.692843 0.450483
vt 0.692843 0.458671
vt 0.696667 0.458671
vt 0.336185 0.287061
vt 0.319921 0.287061
vt 0.319921 0.303761
vt 0.336185 0.303761
vt 0.775459 0.535281
vt 0.775459 0.518580
vt 0.771636 0.518580
vt 0.771636 0.535281
vt 0.684550 0.526769
vt 0.700814 0.526769
vt 0.700814 0.518580
vt 0.684550 0.518580
vt 0.311303 0.321109
vt 0.303333 0.321109
vt 0.303333 0.337810
vt 0.311303 0.337810
vt 0.327891 0.329298
vt 0.327891 0.321109
vt 0.311627 0.321109
vt 0.311627 0.329298
vt 0.294716 0.261524
vt 0.290892 0.261524
vt 0.290892 0.269712
vt 0.294716 0.269712
vt 0.336185 0.270036
vt 0.319921 0.270036
vt 0.319921 0.286737
vt 0.336185 0.286737
vt 0.775459 0.518257
vt 0.775459 0.501556
vt 0.771636 0.501556
vt 0.771636 0.518257
vt 0.709431 0.535281
vt 0.725695 0.535281
vt 0.725695 0.527093
vt 0.709431 0.527093
vt 0.336185 0.321109
vt 0.328215 0.321109
vt 0.328215 0.337810
vt 0.336185 0.337810
vt 0.336185 0.253012
vt 0.319921 0.253012
vt 0.319921 0.269712
vt 0.336185 0.269712
vt 0.642756 0.424946
vt 0.634786 0.424946
vt 0.634786 0.433135
vt 0.642756 0.433135
vt 0.269834 0.321109
vt 0.253570 0.321109
vt 0.253570 0.337810
vt 0.269834 0.337810
vt 0.701137 0.577842
vt 0.717402 0.577842
vt 0.717402 0.573910
vt 0.701137 0.573910
vt 0.344479 0.269712
vt 0.344479 0.253012
vt 0.336509 0.253012
vt 0.336509 0.269712
vt 0.253246 0.218963
vt 0.245276 0.218963
vt 0.245276 0.227151
vt 0.253246 0.227151
vt 0.651050 0.543793
vt 0.651050 0.535605
vt 0.634786 0.535605
vt 0.634786 0.543793
vt 0.688373 0.458995
vt 0.684550 0.458995
vt 0.684550 0.467184
vt 0.688373 0.467184
vt 0.230641 0.244176
vt 0.228688 0.243201
vt 0.228688 0.241235
vt 0.230641 0.240243
vt 0.232511 0.241218
vt 0.232511 0.243185
vt 0.634462 0.433458
vt 0.630639 0.433458
vt 0.630639 0.437391
vt 0.634462 0.437391
vt 0.319597 0.253012
vt 0.303333 0.253012
vt 0.303333 0.269712
vt 0.319597 0.269712
vt 0.775459 0.484208
vt 0.775459 0.467507
vt 0.771636 0.467507
vt 0.771636 0.484208
vt 0.667962 0.543793
vt 0.684226 0.543793
vt 0.684226 0.535605
vt 0.667962 0.535605
vt 0.244952 0.218963
vt 0.236982 0.218963
vt 0.236982 0.227151
vt 0.244952 0.227151
vt 0.742283 0.484532
vt 0.734313 0.484532
vt 0.734313 0.501232
vt 0.742283 0.501232
vt 0.303009 0.261524
vt 0.299186 0.261524
vt 0.299186 0.269712
vt 0.303009 0.269712
vt 0.232511 0.235987
vt 0.228688 0.235987
vt 0.228688 0.239920
vt 0.232511 0.239920
vt 0.626168 0.446227
vt 0.622345 0.446227
vt 0.622345 0.450159
vt 0.626168 0.450159
vt 0.269834 0.304085
vt 0.253570 0.304085
vt 0.253570 0.320786
vt 0.269834 0.320786
vt 0.667962 0.577842
vt 0.684226 0.577842
vt 0.684226 0.573910
vt 0.667962 0.573910
vt 0.742283 0.535281
vt 0.742283 0.518580
vt 0.734313 0.518580
vt 0.734313 0.535281
vt 0.236658 0.261524
vt 0.228688 0.261524
vt 0.228688 0.269712
vt 0.236658 0.269712
vt 0.717402 0.543793
vt 0.717402 0.535605
vt 0.701137 0.535605
vt 0.701137 0.543793
vt 0.298863 0.261524
vt 0.295039 0.261524
vt 0.295039 0.269712
vt 0.298863 0.269712
vt 0.622021 0.446227
vt 0.618198 0.446227
vt 0.618198 0.450159
vt 0.622021 0.450159
vt 0.626168 0.441971
vt 0.622345 0.441971
vt 0.622345 0.445903
vt 0.626168 0.445903
vt 0.659344 0.484532
vt 0.655521 0.484532
vt 0.655521 0.492720
vt 0.659344 0.492720
vt 0.257393 0.295249
vt 0.257393 0.287061
vt 0.253570 0.287061
vt 0.253570 0.295249
vt 0.269834 0.295249
vt 0.269834 0.287061
vt 0.266011 0.287061
vt 0.266011 0.295249
vt 0.265687 0.295249
vt 0.265687 0.287061
vt 0.261864 0.287061
vt 0.261864 0.295249
vt 0.261540 0.303761
vt 0.261540 0.295573
vt 0.257717 0.295573
vt 0.257717 0.303761
vt 0.257393 0.303761
vt 0.257393 0.295573
vt 0.253570 0.295573
vt 0.253570 0.303761
vt 0.253246 0.316610
vt 0.245114 0.320786
vt 0.236982 0.316610
vt 0.236982 0.308260
vt 0.245114 0.304085
vt 0.253246 0.308260
vt 0.269834 0.303761
vt 0.269834 0.295573
vt 0.266011 0.295573
vt 0.266011 0.303761
vt 0.750577 0.433135
vt 0.750577 0.416434
vt 0.742607 0.416434
vt 0.742607 0.433135
vt 0.618198 0.552306
vt 0.634462 0.552306
vt 0.634462 0.544117
vt 0.618198 0.544117
vt 0.750577 0.450159
vt 0.750577 0.433458
vt 0.742607 0.433458
vt 0.742607 0.450159
vt 0.634786 0.552306
vt 0.651050 0.552306
vt 0.651050 0.544117
vt 0.634786 0.544117
vt 0.750577 0.467184
vt 0.750577 0.450483
vt 0.742607 0.450483
vt 0.742607 0.467184
vt 0.651374 0.552306
vt 0.667638 0.552306
vt 0.667638 0.544117
vt 0.651374 0.544117
vt 0.228364 0.261524
vt 0.220394 0.261524
vt 0.220394 0.269712
vt 0.228364 0.269712
vt 0.236658 0.253012
vt 0.228688 0.253012
vt 0.228688 0.261200
vt 0.236658 0.261200
vt 0.626168 0.450483
vt 0.618198 0.450483
vt 0.618198 0.458671
vt 0.626168 0.458671
vt 0.269834 0.227475
vt 0.261864 0.227475
vt 0.261864 0.235664
vt 0.269834 0.235664
vt 0.659344 0.424946
vt 0.651374 0.424946
vt 0.651374 0.433135
vt 0.659344 0.433135
vt 0.667638 0.416434
vt 0.659668 0.416434
vt 0.659668 0.424623
vt 0.667638 0.424623
vt 0.377655 0.252688
vt 0.377655 0.235987
vt 0.373832 0.235987
vt 0.373832 0.252688
vt 0.651374 0.577842
vt 0.667638 0.577842
vt 0.667638 0.573910
vt 0.651374 0.573910
vt 0.775459 0.433135
vt 0.775459 0.416434
vt 0.771636 0.416434
vt 0.771636 0.433135
vt 0.634786 0.577842
vt 0.651050 0.577842
vt 0.651050 0.573910
vt 0.634786 0.573910
vt 0.373508 0.371859
vt 0.373508 0.355158
vt 0.369685 0.355158
vt 0.369685 0.371859
vt 0.618198 0.577842
vt 0.634462 0.577842
vt 0.634462 0.573910
vt 0.618198 0.573910
vt 0.771312 0.552306
vt 0.771312 0.535605
vt 0.767489 0.535605
vt 0.767489 0.552306
vt 0.750901 0.573586
vt 0.767165 0.573586
vt 0.767165 0.569654
vt 0.750901 0.569654
vt 0.771312 0.535281
vt 0.771312 0.518580
vt 0.767489 0.518580
vt 0.767489 0.535281
vt 0.270158 0.371859
vt 0.286422 0.371859
vt 0.286422 0.367926
vt 0.270158 0.367926
vt 0.763018 0.535281
vt 0.763018 0.518580
vt 0.759195 0.518580
vt 0.759195 0.535281
vt 0.253570 0.371859
vt 0.269834 0.371859
vt 0.269834 0.367926
vt 0.253570 0.367926
vt 0.365214 0.320786
vt 0.365214 0.304085
vt 0.361391 0.304085
vt 0.361391 0.320786
vt 0.236982 0.371859
vt 0.253246 0.371859
vt 0.253246 0.367926
vt 0.236982 0.367926
vt 0.377655 0.354834
vt 0.377655 0.338134
vt 0.373832 0.338134
vt 0.373832 0.354834
vt 0.336509 0.367603
vt 0.352773 0.367603
vt 0.352773 0.363670
vt 0.336509 0.363670
vt 0.365214 0.303761
vt 0.365214 0.287061
vt 0.361391 0.287061
vt 0.361391 0.303761
vt 0.319921 0.367603
vt 0.336185 0.367603
vt 0.336185 0.363670
vt 0.319921 0.363670
vt 0.222264 0.244500
vt 0.224217 0.245474
vt 0.224217 0.247440
vt 0.222264 0.248432
vt 0.220394 0.247457
vt 0.220394 0.245491
vt 0.265687 0.295573
vt 0.261864 0.295573
vt 0.261864 0.303761
vt 0.265687 0.303761
vt 0.244952 0.287061
vt 0.241129 0.287061
vt 0.241129 0.295249
vt 0.244952 0.295249
vt 0.638609 0.484532
vt 0.634786 0.484532
vt 0.634786 0.492720
vt 0.638609 0.492720
vt 0.651050 0.484532
vt 0.647227 0.484532
vt 0.647227 0.492720
vt 0.651050 0.492720
vt 0.646903 0.484532
vt 0.643080 0.484532
vt 0.643080 0.492720
vt 0.646903 0.492720
vt 0.365214 0.286737
vt 0.365214 0.270036
vt 0.361391 0.270036
vt 0.361391 0.286737
vt 0.303333 0.367603
vt 0.319597 0.367603
vt 0.319597 0.363670
vt 0.303333 0.363670
vt 0.365214 0.269712
vt 0.365214 0.253012
vt 0.361391 0.253012
vt 0.361391 0.269712
vt 0.286745 0.367603
vt 0.303009 0.367603
vt 0.303009 0.363670
vt 0.286745 0.363670
vt 0.356920 0.320786
vt 0.356920 0.304085
vt 0.353097 0.304085
vt 0.353097 0.320786
vt 0.336509 0.359090
vt 0.352773 0.359090
vt 0.352773 0.355158
vt 0.336509 0.355158
vt 0.356920 0.337810
vt 0.356920 0.321109
vt 0.353097 0.321109
vt 0.353097 0.337810
vt 0.336509 0.363347
vt 0.352773 0.363347
vt 0.352773 0.359414
vt 0.336509 0.359414
vt 0.356920 0.354834
vt 0.356920 0.338134
vt 0.353097 0.338134
vt 0.353097 0.354834
vt 0.220394 0.367603
vt 0.236658 0.367603
vt 0.236658 0.363670
vt 0.220394 0.363670
vt 0.361067 0.320786
vt 0.361067 0.304085
vt 0.357244 0.304085
vt 0.357244 0.320786
vt 0.236982 0.367603
vt 0.253246 0.367603
vt 0.253246 0.363670
vt 0.236982 0.363670
vt 0.236658 0.248756
vt 0.232835 0.248756
vt 0.232835 0.252688
vt 0.236658 0.252688
vt 0.244952 0.303761
vt 0.244952 0.295573
vt 0.241129 0.295573
vt 0.241129 0.303761
vt 0.240805 0.303761
vt 0.240805 0.295573
vt 0.236982 0.295573
vt 0.236982 0.303761
vt 0.253246 0.303761
vt 0.253246 0.295573
vt 0.249423 0.295573
vt 0.249423 0.303761
vt 0.249099 0.303761
vt 0.249099 0.295573
vt 0.245276 0.295573
vt 0.245276 0.303761
vt 0.294716 0.244176
vt 0.294716 0.235987
vt 0.290892 0.235987
vt 0.290892 0.244176
vt 0.261540 0.225104
vt 0.257555 0.227151
vt 0.253570 0.225104
vt 0.253570 0.221010
vt 0.257555 0.218963
vt 0.261540 0.221010
vt 0.290569 0.244176
vt 0.290569 0.235987
vt 0.286745 0.235987
vt 0.286745 0.244176
vt 0.269834 0.244500
vt 0.261864 0.244500
vt 0.261864 0.252688
vt 0.269834 0.252688
vt 0.261540 0.244500
vt 0.253570 0.244500
vt 0.253570 0.252688
vt 0.261540 0.252688
vt 0.269834 0.235987
vt 0.261864 0.235987
vt 0.261864 0.244176
vt 0.269834 0.244176
vt 0.261540 0.235987
vt 0.253570 0.235987
vt 0.253570 0.244176
vt 0.261540 0.244176
vt 0.253246 0.261524
vt 0.245276 0.261524
vt 0.245276 0.269712
vt 0.253246 0.269712
vt 0.244952 0.261524
vt 0.236982 0.261524
vt 0.236982 0.269712
vt 0.244952 0.269712
vt 0.700814 0.441647
vt 0.700814 0.433458
vt 0.696990 0.433458
vt 0.696990 0.441647
vt 0.696667 0.441647
vt 0.696667 0.433458
vt 0.692843 0.433458
vt 0.692843 0.441647
vt 0.294716 0.252688
vt 0.294716 0.244500
vt 0.290892 0.244500
vt 0.290892 0.252688
vt 0.688373 0.450159
vt 0.688373 0.441971
vt 0.684550 0.441971
vt 0.684550 0.450159
vt 0.700814 0.450159
vt 0.700814 0.441971
vt 0.696990 0.441971
vt 0.696990 0.450159
vt 0.696667 0.450159
vt 0.696667 0.441971
vt 0.692843 0.441971
vt 0.692843 0.450159
vt 0.692520 0.424623
vt 0.692520 0.416434
vt 0.688697 0.416434
vt 0.688697 0.424623
vt 0.290569 0.227151
vt 0.290569 0.218963
vt 0.286745 0.218963
vt 0.286745 0.227151
vt 0.303009 0.227151
vt 0.303009 0.218963
vt 0.299186 0.218963
vt 0.299186 0.227151
vt 0.696667 0.424623
vt 0.696667 0.416434
vt 0.692843 0.416434
vt 0.692843 0.424623
vt 0.692520 0.433135
vt 0.692520 0.424946
vt 0.688697 0.424946
vt 0.688697 0.433135
vt 0.290569 0.235664
vt 0.290569 0.227475
vt 0.286745 0.227475
vt 0.286745 0.235664
vt 0.758871 0.535281
vt 0.758871 0.518580
vt 0.755048 0.518580
vt 0.755048 0.535281
vt 0.253570 0.367603
vt 0.269834 0.367603
vt 0.269834 0.363670
vt 0.253570 0.363670
vt 0.361067 0.354834
vt 0.361067 0.338134
vt 0.357244 0.338134
vt 0.357244 0.354834
vt 0.667962 0.565074
vt 0.684226 0.565074
vt 0.684226 0.561141
vt 0.667962 0.561141
vt 0.365214 0.235664
vt 0.365214 0.218963
vt 0.361391 0.218963
vt 0.361391 0.235664
vt 0.734313 0.577842
vt 0.750577 0.577842
vt 0.750577 0.573910
vt 0.734313 0.573910
vt 0.303009 0.235664
vt 0.303009 0.227475
vt 0.299186 0.227475
vt 0.299186 0.235664
vt 0.298863 0.235664
vt 0.298863 0.227475
vt 0.295039 0.227475
vt 0.295039 0.235664
vt 0.228364 0.295249
vt 0.228364 0.287061
vt 0.224541 0.287061
vt 0.224541 0.295249
vt 0.224217 0.295249
vt 0.224217 0.287061
vt 0.220394 0.287061
vt 0.220394 0.295249
vt 0.236658 0.295249
vt 0.236658 0.287061
vt 0.232835 0.287061
vt 0.232835 0.295249
vt 0.232511 0.295249
vt 0.232511 0.287061
vt 0.228688 0.287061
vt 0.228688 0.295249
vt 0.230558 0.248756
vt 0.232511 0.249730
vt 0.232511 0.251696
vt 0.230558 0.252688
vt 0.228688 0.251713
vt 0.228688 0.249747
vt 0.634462 0.441971
vt 0.630639 0.441971
vt 0.630639 0.445903
vt 0.634462 0.445903
vt 0.232511 0.244500
vt 0.228688 0.244500
vt 0.228688 0.248432
vt 0.232511 0.248432
vt 0.626168 0.420690
vt 0.622345 0.420690
vt 0.622345 0.424623
vt 0.626168 0.424623
vt 0.622021 0.420690
vt 0.618198 0.420690
vt 0.618198 0.424623
vt 0.622021 0.424623
vt 0.626168 0.416434
vt 0.622345 0.416434
vt 0.622345 0.420366
vt 0.626168 0.420366
vt 0.224217 0.218963
vt 0.220394 0.218963
vt 0.220394 0.222895
vt 0.224217 0.222895
vt 0.236658 0.223219
vt 0.232835 0.223219
vt 0.232835 0.227151
vt 0.236658 0.227151
vt 0.232511 0.223219
vt 0.228688 0.223219
vt 0.228688 0.227151
vt 0.232511 0.227151
vt 0.236658 0.218963
vt 0.232835 0.218963
vt 0.232835 0.222895
vt 0.236658 0.222895
vt 0.232511 0.218963
vt 0.228688 0.218963
vt 0.228688 0.222895
vt 0.232511 0.222895
vt 0.228364 0.231731
vt 0.224541 0.231731
vt 0.224541 0.235664
vt 0.228364 0.235664
vt 0.253246 0.255059
vt 0.253246 0.259153
vt 0.249261 0.261200
vt 0.245276 0.259153
vt 0.245276 0.255059
vt 0.249261 0.253012
vt 0.224217 0.231731
vt 0.220394 0.231731
vt 0.220394 0.235664
vt 0.224217 0.235664
vt 0.228364 0.303761
vt 0.228364 0.295573
vt 0.224541 0.295573
vt 0.224541 0.303761
vt 0.224217 0.303761
vt 0.224217 0.295573
vt 0.220394 0.295573
vt 0.220394 0.303761
vt 0.236658 0.303761
vt 0.236658 0.295573
vt 0.232835 0.295573
vt 0.232835 0.303761
vt 0.232511 0.303761
vt 0.232511 0.295573
vt 0.228688 0.295573
vt 0.228688 0.303761
vt 0.278128 0.278225
vt 0.278128 0.270036
vt 0.274304 0.270036
vt 0.274304 0.278225
vt 0.273981 0.278225
vt 0.273981 0.270036
vt 0.270158 0.270036
vt 0.270158 0.278225
vt 0.684226 0.475696
vt 0.684226 0.467507
vt 0.680403 0.467507
vt 0.680403 0.475696
vt 0.680079 0.475696
vt 0.680079 0.467507
vt 0.676256 0.467507
vt 0.676256 0.475696
vt 0.278128 0.286737
vt 0.278128 0.278548
vt 0.274304 0.278548
vt 0.274304 0.286737
vt 0.671785 0.484208
vt 0.671785 0.476020
vt 0.667962 0.476020
vt 0.667962 0.484208
vt 0.684226 0.484208
vt 0.684226 0.476020
vt 0.680403 0.476020
vt 0.680403 0.484208
vt 0.680079 0.484208
vt 0.680079 0.476020
vt 0.676256 0.476020
vt 0.676256 0.484208
vt 0.675932 0.441647
vt 0.675932 0.433458
vt 0.672109 0.433458
vt 0.672109 0.441647
vt 0.273981 0.244176
vt 0.273981 0.235987
vt 0.270158 0.235987
vt 0.270158 0.244176
vt 0.286422 0.244176
vt 0.286422 0.235987
vt 0.282598 0.235987
vt 0.282598 0.244176
vt 0.680079 0.441647
vt 0.680079 0.433458
vt 0.676256 0.433458
vt 0.676256 0.441647
vt 0.675932 0.450159
vt 0.675932 0.441971
vt 0.672109 0.441971
vt 0.672109 0.450159
vt 0.273981 0.252688
vt 0.273981 0.244500
vt 0.270158 0.244500
vt 0.270158 0.252688
vt 0.684226 0.450159
vt 0.684226 0.441971
vt 0.680403 0.441971
vt 0.680403 0.450159
vt 0.282275 0.252688
vt 0.282275 0.244500
vt 0.278451 0.244500
vt 0.278451 0.252688
vt 0.244952 0.278225
vt 0.244952 0.270036
vt 0.241129 0.270036
vt 0.241129 0.278225
vt 0.638609 0.475696
vt 0.638609 0.467507
vt 0.634786 0.467507
vt 0.634786 0.475696
vt 0.253246 0.278225
vt 0.253246 0.270036
vt 0.249423 0.270036
vt 0.249423 0.278225
vt 0.646903 0.475696
vt 0.646903 0.467507
vt 0.643080 0.467507
vt 0.643080 0.475696
vt 0.244952 0.286737
vt 0.244952 0.278548
vt 0.241129 0.278548
vt 0.241129 0.286737
vt 0.240805 0.286737
vt 0.240805 0.278548
vt 0.236982 0.278548
vt 0.236982 0.286737
vt 0.253246 0.286737
vt 0.253246 0.278548
vt 0.249423 0.278548
vt 0.249423 0.286737
vt 0.249099 0.286737
vt 0.249099 0.278548
vt 0.245276 0.278548
vt 0.245276 0.286737
vt 0.278128 0.227151
vt 0.278128 0.218963
vt 0.274304 0.218963
vt 0.274304 0.227151
vt 0.273981 0.227151
vt 0.273981 0.218963
vt 0.270158 0.218963
vt 0.270158 0.227151
vt 0.226411 0.227475
vt 0.228364 0.228450
vt 0.228364 0.230416
vt 0.226411 0.231407
vt 0.224541 0.230433
vt 0.224541 0.228466
vt 0.622021 0.424946
vt 0.618198 0.424946
vt 0.618198 0.428879
vt 0.622021 0.428879
vt 0.236658 0.231731
vt 0.232835 0.231731
vt 0.232835 0.235664
vt 0.236658 0.235664
vt 0.630315 0.429202
vt 0.626492 0.429202
vt 0.626492 0.433135
vt 0.630315 0.433135
vt 0.634462 0.424946
vt 0.630639 0.424946
vt 0.630639 0.428879
vt 0.634462 0.428879
vt 0.630315 0.424946
vt 0.626492 0.424946
vt 0.626492 0.428879
vt 0.630315 0.428879
vt 0.642756 0.450483
vt 0.634786 0.450483
vt 0.634786 0.458671
vt 0.642756 0.458671
vt 0.286422 0.227151
vt 0.286422 0.218963
vt 0.282598 0.218963
vt 0.282598 0.227151
vt 0.269834 0.261524
vt 0.261864 0.261524
vt 0.261864 0.269712
vt 0.269834 0.269712
vt 0.261540 0.261524
vt 0.253570 0.261524
vt 0.253570 0.269712
vt 0.261540 0.269712
vt 0.269834 0.253012
vt 0.261864 0.253012
vt 0.261864 0.261200
vt 0.269834 0.261200
vt 0.261540 0.253012
vt 0.253570 0.253012
vt 0.253570 0.261200
vt 0.261540 0.261200
vt 0.220394 0.308260
vt 0.228526 0.304085
vt 0.236658 0.308260
vt 0.236658 0.316610
vt 0.228526 0.320786
vt 0.220394 0.316610
vt 0.236658 0.278548
vt 0.228688 0.278548
vt 0.228688 0.286737
vt 0.236658 0.286737
vt 0.758871 0.501232
vt 0.758871 0.484532
vt 0.750901 0.484532
vt 0.750901 0.501232
vt 0.701137 0.560818
vt 0.717402 0.560818
vt 0.717402 0.552629
vt 0.701137 0.552629
vt 0.758871 0.484208
vt 0.758871 0.467507
vt 0.750901 0.467507
vt 0.750901 0.484208
vt 0.684550 0.560818
vt 0.700814 0.560818
vt 0.700814 0.552629
vt 0.684550 0.552629
vt 0.758871 0.467184
vt 0.758871 0.450483
vt 0.750901 0.450483
vt 0.750901 0.467184
vt 0.667962 0.560818
vt 0.684226 0.560818
vt 0.684226 0.552629
vt 0.667962 0.552629
vt 0.361067 0.252688
vt 0.361067 0.235987
vt 0.353097 0.235987
vt 0.353097 0.252688
vt 0.253570 0.363347
vt 0.269834 0.363347
vt 0.269834 0.355158
vt 0.253570 0.355158
vt 0.758871 0.433135
vt 0.758871 0.416434
vt 0.750901 0.416434
vt 0.750901 0.433135
vt 0.236982 0.363347
vt 0.253246 0.363347
vt 0.253246 0.355158
vt 0.236982 0.355158
vt 0.750577 0.552306
vt 0.750577 0.535605
vt 0.742607 0.535605
vt 0.742607 0.552306
vt 0.618198 0.560818
vt 0.634462 0.560818
vt 0.634462 0.552629
vt 0.618198 0.552629
vt 0.365214 0.354834
vt 0.365214 0.338134
vt 0.361391 0.338134
vt 0.361391 0.354834
vt 0.684550 0.569330
vt 0.700814 0.569330
vt 0.700814 0.565398
vt 0.684550 0.565398
vt 0.767165 0.433135
vt 0.767165 0.416434
vt 0.763342 0.416434
vt 0.763342 0.433135
vt 0.701137 0.569330
vt 0.717402 0.569330
vt 0.717402 0.565398
vt 0.701137 0.565398
vt 0.369361 0.252688
vt 0.369361 0.235987
vt 0.365538 0.235987
vt 0.365538 0.252688
vt 0.717725 0.569330
vt 0.733989 0.569330
vt 0.733989 0.565398
vt 0.717725 0.565398
vt 0.767165 0.467184
vt 0.767165 0.450483
vt 0.763342 0.450483
vt 0.763342 0.467184
vt 0.734313 0.569330
vt 0.750577 0.569330
vt 0.750577 0.565398
vt 0.734313 0.565398
vt 0.767165 0.484208
vt 0.767165 0.467507
vt 0.763342 0.467507
vt 0.763342 0.484208
vt 0.353097 0.359090
vt 0.369361 0.359090
vt 0.369361 0.355158
vt 0.353097 0.355158
vt 0.767165 0.501232
vt 0.767165 0.484532
vt 0.763342 0.484532
vt 0.763342 0.501232
vt 0.353097 0.363347
vt 0.369361 0.363347
vt 0.369361 0.359414
vt 0.353097 0.359414
vt 0.369361 0.320786
vt 0.369361 0.304085
vt 0.365538 0.304085
vt 0.365538 0.320786
vt 0.353097 0.367603
vt 0.369361 0.367603
vt 0.369361 0.363670
vt 0.353097 0.363670
vt 0.369361 0.337810
vt 0.369361 0.321109
vt 0.365538 0.321109
vt 0.365538 0.337810
vt 0.353097 0.371859
vt 0.369361 0.371859
vt 0.369361 0.367926
vt 0.353097 0.367926
vt 0.369361 0.354834
vt 0.369361 0.338134
vt 0.365538 0.338134
vt 0.365538 0.354834
vt 0.220394 0.376115
vt 0.236658 0.376115
vt 0.236658 0.372183
vt 0.220394 0.372183
vt 0.280404 0.227151
vt 0.278451 0.225122
vt 0.278451 0.221028
vt 0.280404 0.218963
vt 0.282275 0.220993
vt 0.282275 0.225088
vt 0.228364 0.278548
vt 0.220394 0.278548
vt 0.220394 0.286737
vt 0.228364 0.286737
vt 0.236658 0.270036
vt 0.228688 0.270036
vt 0.228688 0.278225
vt 0.236658 0.278225
vt 0.626168 0.467507
vt 0.618198 0.467507
vt 0.618198 0.475696
vt 0.626168 0.475696
vt 0.684226 0.424946
vt 0.676256 0.424946
vt 0.676256 0.433135
vt 0.684226 0.433135
vt 0.675932 0.424946
vt 0.667962 0.424946
vt 0.667962 0.433135
vt 0.675932 0.433135
vt 0.373508 0.235664
vt 0.373508 0.218963
vt 0.369685 0.218963
vt 0.369685 0.235664
vt 0.236982 0.376115
vt 0.253246 0.376115
vt 0.253246 0.372183
vt 0.236982 0.372183
vt 0.373508 0.252688
vt 0.373508 0.235987
vt 0.369685 0.235987
vt 0.369685 0.252688
vt 0.253570 0.376115
vt 0.269834 0.376115
vt 0.269834 0.372183
vt 0.253570 0.372183
vt 0.373508 0.269712
vt 0.373508 0.253012
vt 0.369685 0.253012
vt 0.369685 0.269712
vt 0.270158 0.376115
vt 0.286422 0.376115
vt 0.286422 0.372183
vt 0.270158 0.372183
vt 0.373508 0.286737
vt 0.373508 0.270036
vt 0.369685 0.270036
vt 0.369685 0.286737
vt 0.286745 0.376115
vt 0.303009 0.376115
vt 0.303009 0.372183
vt 0.286745 0.372183
vt 0.373508 0.303761
vt 0.373508 0.287061
vt 0.369685 0.287061
vt 0.369685 0.303761
vt 0.303333 0.376115
vt 0.319597 0.376115
vt 0.319597 0.372183
vt 0.303333 0.372183
vt 0.373508 0.320786
vt 0.373508 0.304085
vt 0.369685 0.304085
vt 0.369685 0.320786
vt 0.319921 0.376115
vt 0.336185 0.376115
vt 0.336185 0.372183
vt 0.319921 0.372183
vn 0.4677 -0.2801 -0.8383
vn -0.0213 0.8806 0.4734
vn -0.4821 -0.2276 -0.8460
vn -0.4821 -0.2276 0.8460
vn 0.9579 -0.2871 0.0000
vn 0.0000 -1.0000 0.0000
vn 0.4677 -0.2801 0.8383
vn -0.4911 0.1876 -0.8507
vn -0.9741 0.2260 0.0000
vn -0.4911 0.1876 0.8507
vn 0.4903 0.1040 0.8653
vn 0.9988 0.0480 0.0000
vn 0.4903 0.1040 -0.8653
vn -0.3478 0.9090 -0.2297
vn 0.4447 0.8644 -0.2346
vn 0.0909 0.8829 0.4606
vn -0.3346 0.9090 0.2484
vn 0.0705 0.8817 -0.4666
vn 0.4502 0.8649 0.2218
vn -0.0500 0.9690 0.2418
vn 0.3681 0.9296 0.0185
vn -0.0443 0.9673 -0.2499
vn -0.1758 0.9844 -0.0100
vn 0.2048 0.9467 0.2488
vn 0.2441 0.9417 -0.2316
vn -0.3134 -0.8439 0.4355
vn -0.3134 -0.8439 -0.4355
vn 0.4495 -0.8933 -0.0000
vn -0.5478 -0.8366 0.0000
vn 0.1824 -0.8769 -0.4447
vn 0.1824 -0.8769 0.4447
vn 0.2576 0.7797 -0.5707
vn 0.4825 0.7530 0.4474
vn -0.4600 0.8757 0.1469
vn 0.6740 0.7288 -0.1205
vn -0.0846 0.8188 0.5677
vn -0.3052 0.8500 -0.4295
vn -0.9357 0.3507 0.0385
vn 0.5480 0.3076 0.7779
vn 0.4737 0.2805 -0.8348
vn -0.4592 0.3337 -0.8233
vn -0.3132 0.4629 0.8292
vn 0.9768 0.2124 -0.0264
vn -0.1071 -0.9788 0.1743
vn -0.2376 -0.9696 -0.0582
vn 0.0830 -0.9947 -0.0604
vn -0.2929 -0.9555 0.0343
vn -0.0856 -0.9816 -0.1707
vn 0.0458 -0.9931 0.1084
vn -0.9734 -0.2293 0.0000
vn -0.9898 -0.0285 -0.1398
vn 0.9877 -0.0322 0.1532
vn 0.3596 -0.1351 0.9233
vn -0.6148 -0.1220 0.7792
vn -0.3742 0.0826 -0.9237
vn 0.6172 0.0839 -0.7823
vn -0.1450 -0.9892 0.0215
vn -0.0112 -0.9889 -0.1479
vn -0.1212 -0.9893 0.0818
vn 0.1321 -0.9892 0.0631
vn 0.0912 -0.9890 0.1162
vn 0.0569 -0.9888 -0.1381
vn 0.5018 0.7951 -0.3406
vn 0.0333 0.7921 0.6095
vn -0.5462 0.7951 -0.2638
vn -0.3839 0.7933 -0.4726
vn 0.6006 0.7945 -0.0894
vn -0.2197 0.7904 0.5719
vn -0.7817 0.5881 -0.2078
vn 0.1938 0.5854 0.7872
vn 0.5740 0.5876 -0.5702
vn -0.4247 0.5817 0.6937
vn 0.8094 0.5866 0.0290
vn -0.3890 0.5849 -0.7117
vn 0.6195 0.0000 -0.7850
vn 0.3556 0.0000 0.9346
vn -0.9907 0.0000 -0.1358
vn -0.3729 0.0000 -0.9279
vn 0.9880 0.0000 0.1544
vn -0.6195 0.0000 0.7850
vn 0.6193 -0.0130 -0.7851
vn -0.3740 0.0254 -0.9271
vn -0.6153 0.1137 0.7800
vn 0.3690 0.0854 0.9255
vn 0.9887 0.0254 0.1478
vn -0.9860 0.0854 -0.1433
vn 0.0970 0.9953 0.0000
vn 0.0493 -0.9957 -0.0787
vn -0.4518 0.5236 0.7223
vn -0.3052 0.8500 0.4295
vn -0.1758 0.9844 0.0100
vn 0.0908 0.8830 -0.4605
vn 0.0839 -0.9947 0.0587
vn -0.9358 0.3505 -0.0374
vn -0.4620 0.8754 -0.1427
vn -0.0538 0.9704 -0.2353
vn 0.4481 0.8675 -0.2161
vn -0.0751 -0.9816 0.1758
vn -0.3893 0.3288 -0.8604
vn -0.0846 0.8188 -0.5677
vn 0.2048 0.9467 -0.2488
vn 0.4447 0.8644 0.2347
vn -0.2328 -0.9679 0.0951
vn 0.5426 0.2766 -0.7931
vn 0.4825 0.7530 -0.4474
vn 0.3681 0.9296 -0.0185
vn 0.0705 0.8816 0.4667
vn 0.0000 1.0000 -0.0000
vn 0.4528 0.8800 -0.1434
vn -0.2929 -0.9555 -0.0343
vn 0.9768 0.2124 0.0264
vn 0.6740 0.7288 0.1205
vn 0.2441 0.9417 0.2316
vn -0.3478 0.9090 0.2297
vn -0.3415 0.8812 -0.3270
vn -0.1095 0.8809 0.4604
vn -0.0730 -0.9842 -0.1614
vn 0.4619 0.3131 0.8298
vn 0.2576 0.7797 0.5707
vn -0.0443 0.9673 0.2499
vn -0.3346 0.9090 -0.2484
vn 0.4241 0.8793 -0.2165
vn -0.3946 0.8809 -0.2613
vn 0.0967 0.8755 0.4734
vn -0.9307 -0.3449 -0.1220
vn 0.8264 -0.5456 0.1390
vn 0.2420 -0.5322 0.8113
vn -0.5990 -0.4273 0.6772
vn -0.3952 -0.3418 -0.8526
vn 0.5184 -0.4472 -0.7288
vn -0.2760 -0.9609 0.0215
vn -0.1434 -0.9785 -0.1479
vn -0.2524 -0.9641 0.0818
vn -0.0014 -0.9980 0.0631
vn -0.0420 -0.9923 0.1162
vn -0.0759 -0.9875 -0.1381
vn 0.6037 0.7208 -0.3406
vn 0.1390 0.7805 0.6095
vn -0.4349 0.8610 -0.2638
vn -0.2742 0.8375 -0.4726
vn 0.7015 0.7070 -0.0894
vn -0.1119 0.8127 0.5719
vn -0.6960 0.6874 -0.2078
vn 0.2704 0.5542 0.7872
vn 0.6475 0.5055 -0.5702
vn -0.3430 0.6333 0.6937
vn 0.8806 0.4730 0.0290
vn -0.3072 0.6317 -0.7117
vn 0.6139 -0.0829 -0.7850
vn 0.3524 -0.0476 0.9346
vn -0.9818 0.1326 -0.1358
vn -0.3695 0.0499 -0.9279
vn 0.9791 -0.1322 0.1544
vn -0.6139 0.0829 0.7850
vn 0.6223 0.0126 -0.7827
vn -0.3779 -0.0011 -0.9259
vn -0.6215 0.0093 0.7834
vn 0.3737 0.0238 0.9273
vn 0.9886 0.0270 0.1482
vn -0.9897 -0.0019 -0.1429
vn 0.1338 0.9910 0.0000
vn 0.5665 0.8115 -0.1434
vn -0.2206 0.9189 -0.3270
vn 0.0094 0.8877 0.4604
vn 0.5380 0.8147 -0.2165
vn -0.2731 0.9258 -0.2613
vn -0.9809 0.1320 -0.1426
vn 0.9895 -0.0151 0.1438
vn 0.3789 0.0365 0.9247
vn -0.6134 0.1104 0.7820
vn -0.3674 0.0829 -0.9264
vn 0.6259 0.0081 -0.7798
vn 0.6174 -0.0750 -0.7830
vn -0.3418 0.2583 -0.9036
vn -0.5682 0.3385 0.7501
vn 0.3752 0.0230 0.9267
vn 0.9686 -0.2037 0.1423
vn -0.8911 0.4336 -0.1336
vn -0.2772 0.9438 0.1801
vn -0.3122 -0.1876 -0.9313
vn 0.2318 -0.2836 0.9305
vn -0.6961 -0.2103 0.6864
vn -0.9631 -0.1531 -0.2213
vn 0.6469 -0.2472 -0.7214
vn 0.9277 -0.2957 0.2277
vn -0.2527 -0.9598 -0.1224
vn -0.0460 -0.9963 -0.0725
vn -0.2967 -0.9520 -0.0754
vn -0.1750 -0.9736 0.1464
vn -0.2394 -0.9620 0.1317
vn -0.0264 -0.9996 -0.0066
vn 0.6516 0.6916 0.3117
vn -0.3915 0.8743 0.2869
vn 0.1484 0.7812 -0.6064
vn 0.4019 0.7342 -0.5472
vn 0.4682 0.7237 0.5071
vn -0.4631 0.8853 0.0417
vn -0.0356 0.6036 -0.7965
vn -0.5199 0.6872 0.5074
vn 0.8503 0.4455 0.2804
vn -0.6936 0.7144 -0.0929
vn 0.4126 0.5224 0.7463
vn 0.5767 0.4914 -0.6526
vn 0.9579 -0.1706 0.2311
vn -0.6870 0.1224 0.7162
vn -0.2896 0.0516 -0.9558
vn 0.6738 -0.1200 -0.7291
vn 0.2719 -0.0484 0.9611
vn -0.9579 0.1706 -0.2311
vn 0.9533 0.2023 0.2242
vn 0.6758 0.1886 -0.7126
vn -0.9727 0.0264 -0.2308
vn -0.6856 0.0431 0.7267
vn 0.2853 0.1320 0.9493
vn -0.2822 0.0976 -0.9544
vn 0.1753 0.9845 0.0000
vn 0.4701 0.8101 0.3503
vn 0.3048 0.8407 -0.4475
vn -0.3020 0.9486 0.0946
vn 0.5234 0.8000 0.2934
vn 0.2241 0.8549 -0.4679
vn -0.4384 0.8806 0.1801
vn -0.2901 -0.0427 -0.9560
vn 0.2769 -0.0463 0.9598
vn -0.6846 -0.1488 0.7136
vn -0.9639 -0.1359 -0.2289
vn 0.6808 0.0686 -0.7292
vn 0.9706 0.0698 0.2305
vn -0.0805 -0.9892 -0.1224
vn 0.1294 -0.9889 -0.0725
vn -0.1252 -0.9893 -0.0754
vn -0.0015 -0.9892 0.1464
vn -0.0670 -0.9890 0.1317
vn 0.1492 -0.9888 -0.0066
vn 0.5203 0.7951 0.3117
vn -0.5387 0.7921 0.2869
vn 0.0091 0.7951 -0.6064
vn 0.2669 0.7933 -0.5472
vn 0.3341 0.7945 0.5071
vn -0.6112 0.7904 0.0417
vn -0.1408 0.5881 -0.7965
vn -0.6323 0.5854 0.5074
vn 0.7590 0.5876 0.2804
vn -0.8081 0.5817 -0.0929
vn 0.3146 0.5866 0.7463
vn 0.4816 0.5849 -0.6526
vn 0.9729 0.0000 0.2311
vn -0.6979 0.0000 0.7162
vn -0.2942 0.0000 -0.9558
vn 0.6844 0.0000 -0.7291
vn 0.2762 0.0000 0.9611
vn -0.9729 0.0000 -0.2311
vn 0.9730 -0.0005 0.2310
vn 0.6831 0.0377 -0.7294
vn -0.9652 0.1259 -0.2291
vn -0.6832 0.0977 0.7237
vn 0.2824 0.0377 0.9586
vn -0.2851 0.0977 -0.9535
vn 0.3208 0.8800 0.3503
vn 0.1527 0.8812 -0.4475
vn -0.4637 0.8809 0.0946
vn 0.3750 0.8793 0.2934
vn 0.0708 0.8809 -0.4679
vn 0.0676 0.9793 0.1909
vn -0.3261 -0.6994 0.6360
vn 0.7499 -0.3363 -0.5696
vn 0.9400 -0.2166 0.2636
vn 0.3772 -0.4010 0.8348
vn -0.5522 -0.8259 -0.1144
vn -0.0382 -0.6583 -0.7518
vn 0.2456 -0.9395 0.2389
vn 0.1941 -0.9804 0.0333
vn 0.3049 -0.9179 0.2540
vn 0.4359 -0.8992 0.0372
vn 0.4526 -0.8860 0.1008
vn 0.2405 -0.9705 -0.0165
vn -0.2211 0.6891 -0.6901
vn 0.2297 0.9448 0.2338
vn -0.7636 0.6118 0.2065
vn -0.8279 0.5590 -0.0446
vn 0.0257 0.7786 -0.6270
vn 0.0568 0.9065 0.4184
vn -0.7909 0.4117 0.4528
vn 0.5214 0.8224 0.2274
vn -0.2878 0.4271 -0.8572
vn 0.0974 0.7289 0.6777
vn 0.3005 0.6408 -0.7064
vn -0.9459 0.2856 -0.1541
vn -0.2385 -0.1910 -0.9522
vn 0.9105 0.3337 0.2442
vn -0.6706 -0.1398 0.7286
vn -0.9153 -0.3332 -0.2263
vn 0.6830 0.1455 -0.7158
vn 0.2385 0.1910 0.9522
vn -0.2825 -0.0537 -0.9578
vn -0.9457 -0.2325 -0.2273
vn 0.2763 0.0791 0.9578
vn 0.9383 0.2568 0.2316
vn 0.6622 0.1911 -0.7245
vn -0.6649 -0.1669 0.7280
vn -0.3159 0.9424 -0.1099
vn -0.1268 0.8275 -0.5470
vn -0.7213 0.6926 -0.0056
vn 0.0071 0.9669 0.2551
vn -0.1984 0.8007 -0.5653
vn -0.7020 0.7082 0.0751
vn -0.6834 0.1736 0.7091
vn 0.6875 -0.0474 -0.7246
vn 0.9755 -0.0123 0.2194
vn 0.2861 0.0918 0.9538
vn -0.9634 0.1421 -0.2272
vn -0.2855 0.0235 -0.9581
vn -0.2904 -0.0750 -0.9540
vn -0.9370 0.2583 -0.2352
vn 0.2914 0.3385 0.8947
vn 0.9750 0.0230 0.2210
vn 0.6698 -0.2037 -0.7140
vn -0.6184 0.4336 0.6554
usemtl low_poly_mushrooms_texture_atlas
s off
f 7/1/1 119/2/1 10/3/1 9/4/1 8/5/1
f 127/6/2 120/7/2 111/8/2 109/9/2
f 18/10/3 110/11/3 7/12/3 8/13/3 17/14/3
f 14/15/4 93/16/4 16/17/4 15/18/4 13/19/4
f 10/20/5 128/21/5 12/22/5 11/23/5 9/24/5
f 1/25/6 2/26/6 3/27/6 4/28/6 5/29/6 6/30/6
f 12/31/7 137/32/7 14/33/7 13/34/7 11/35/7
f 6/36/8 17/37/8 8/38/8 1/39/8
f 5/40/9 15/41/9 17/42/9 6/43/9
f 4/44/10 13/45/10 15/46/10 5/47/10
f 3/48/11 11/49/11 13/50/11 4/51/11
f 2/52/12 9/53/12 11/54/12 3/55/12
f 1/56/13 8/57/13 9/58/13 2/59/13
f 133/60/14 41/61/14 20/62/14 130/63/14
f 98/64/15 39/65/15 22/66/15 95/67/15
f 115/68/16 37/69/16 24/70/16 112/71/16
f 124/72/17 42/73/17 19/74/17 121/75/17
f 142/76/18 40/77/18 21/78/18 139/79/18
f 106/80/19 38/81/19 23/82/19 103/83/19
f 107/84/20 47/85/20 38/86/20 106/87/20
f 143/88/21 45/89/21 40/90/21 142/91/21
f 125/92/22 43/93/22 42/94/22 124/95/22
f 116/96/23 48/97/23 37/98/23 115/99/23
f 99/100/24 46/101/24 39/102/24 98/103/24
f 134/104/25 44/105/25 41/106/25 133/107/25
f 93/108/26 14/109/26 33/110/26 97/111/26
f 110/112/27 18/113/27 31/114/27 114/115/27
f 128/116/28 10/117/28 35/118/28 132/119/28
f 101/120/29 16/121/29 32/122/29 105/123/29
f 119/124/30 7/125/30 36/126/30 123/127/30
f 137/128/31 12/129/31 34/130/31 141/131/31
f 126/132/32 54/133/32 43/134/32 125/135/32
f 144/136/33 52/137/33 45/138/33 143/139/33
f 108/140/34 50/141/34 47/142/34 107/143/34
f 135/144/35 53/145/35 44/146/35 134/147/35
f 100/148/36 51/149/36 46/150/36 99/151/36
f 117/152/37 49/153/37 48/154/37 116/155/37
f 104/156/38 29/157/38 50/158/38 108/159/38
f 140/160/39 27/161/39 52/162/39 144/163/39
f 122/164/40 25/165/40 54/166/40 126/167/40
f 113/168/41 30/169/41 49/170/41 117/171/41
f 96/172/42 28/173/42 51/174/42 100/175/42
f 131/176/43 26/177/43 53/178/43 135/179/43
f 123/180/44 36/181/44 25/182/44 122/183/44
f 141/184/45 34/185/45 27/186/45 140/187/45
f 105/188/46 32/189/46 29/190/46 104/191/46
f 132/192/47 35/193/47 26/194/47 131/195/47
f 97/196/48 33/197/48 28/198/48 96/199/48
f 114/200/49 31/201/49 30/202/49 113/203/49
f 16/204/50 101/205/50 18/206/50 17/207/50 15/208/50
f 88/209/51 66/210/51 61/211/51 86/212/51
f 89/213/52 63/214/52 64/215/52 90/216/52
f 90/217/53 64/218/53 65/219/53 91/220/53
f 91/221/54 65/222/54 66/223/54 88/224/54
f 86/225/55 61/226/55 62/227/55 87/228/55
f 55/229/6 56/230/6 57/231/6 58/232/6 59/233/6 60/234/6
f 87/235/56 62/236/56 63/237/56 89/238/56
f 63/239/57 62/240/57 71/241/57 70/242/57
f 66/243/58 65/244/58 68/245/58 67/246/58
f 64/247/59 63/248/59 70/249/59 69/250/59
f 62/251/60 61/252/60 72/253/60 71/254/60
f 61/255/61 66/256/61 67/257/61 72/258/61
f 65/259/62 64/260/62 69/261/62 68/262/62
f 77/263/63 78/264/63 127/265/63 129/266/63
f 75/267/64 76/268/64 136/269/64 138/270/64
f 79/271/65 74/272/65 73/273/65 120/274/65
f 78/275/66 79/276/66 120/277/66 127/278/66
f 76/279/67 77/280/67 129/281/67 136/282/67
f 74/283/68 75/284/68 138/285/68 73/286/68
f 80/287/69 85/288/69 74/289/69 79/290/69
f 84/291/70 83/292/70 76/293/70 75/294/70
f 82/295/71 81/296/71 78/297/71 77/298/71
f 85/299/72 84/300/72 75/301/72 74/302/72
f 83/303/73 82/304/73 77/305/73 76/306/73
f 81/307/74 80/308/74 79/309/74 78/310/74
f 70/311/75 71/312/75 81/313/75 82/314/75
f 68/315/76 69/316/76 83/317/76 84/318/76
f 72/319/77 67/320/77 85/321/77 80/322/77
f 71/323/78 72/324/78 80/325/78 81/326/78
f 69/327/79 70/328/79 82/329/79 83/330/79
f 67/331/80 68/332/80 84/333/80 85/334/80
f 56/335/81 87/336/81 89/337/81 57/338/81
f 55/339/82 86/340/82 87/341/82 56/342/82
f 59/343/83 91/344/83 88/345/83 60/346/83
f 58/347/84 90/348/84 91/349/84 59/350/84
f 57/351/85 89/352/85 90/353/85 58/354/85
f 60/355/86 88/356/86 86/357/86 55/358/86
f 24/359/87 103/360/87 23/361/87 95/362/87 22/363/87 139/364/87 21/365/87 130/366/87 20/367/87 121/368/87 19/369/87 112/370/87
f 32/371/88 97/372/88 96/373/88 29/374/88
f 29/375/89 96/376/89 100/377/89 50/378/89
f 50/379/90 100/380/90 99/381/90 47/382/90
f 16/383/26 93/384/26 97/385/26 32/386/26
f 47/387/91 99/388/91 98/389/91 38/390/91
f 38/391/92 98/392/92 95/393/92 23/394/92
f 31/395/93 105/396/93 104/397/93 30/398/93
f 30/399/94 104/400/94 108/401/94 49/402/94
f 49/403/95 108/404/95 107/405/95 48/406/95
f 18/407/29 101/408/29 105/409/29 31/410/29
f 48/411/96 107/412/96 106/413/96 37/414/96
f 37/415/97 106/416/97 103/417/97 24/418/97
f 36/419/98 114/420/98 113/421/98 25/422/98
f 25/423/99 113/424/99 117/425/99 54/426/99
f 54/427/100 117/428/100 116/429/100 43/430/100
f 7/431/27 110/432/27 114/433/27 36/434/27
f 43/435/101 116/436/101 115/437/101 42/438/101
f 42/439/102 115/440/102 112/441/102 19/442/102
f 35/443/103 123/444/103 122/445/103 26/446/103
f 26/447/104 122/448/104 126/449/104 53/450/104
f 53/451/105 126/452/105 125/453/105 44/454/105
f 10/455/30 119/456/30 123/457/30 35/458/30
f 44/459/106 125/460/106 124/461/106 41/462/106
f 41/463/107 124/464/107 121/465/107 20/466/107
f 92/467/108 94/468/108 109/469/108 111/470/108 118/471/108 102/472/108
f 120/473/109 73/474/109 118/475/109 111/476/109
f 34/477/110 132/478/110 131/479/110 27/480/110
f 27/481/111 131/482/111 135/483/111 52/484/111
f 52/485/112 135/486/112 134/487/112 45/488/112
f 12/489/28 128/490/28 132/491/28 34/492/28
f 45/493/113 134/494/113 133/495/113 40/496/113
f 40/497/114 133/498/114 130/499/114 21/500/114
f 138/501/115 136/502/115 92/503/115 102/504/115
f 129/505/116 127/506/116 109/507/116 94/508/116
f 33/509/117 141/510/117 140/511/117 28/512/117
f 28/513/118 140/514/118 144/515/118 51/516/118
f 51/517/119 144/518/119 143/519/119 46/520/119
f 14/521/31 137/522/31 141/523/31 33/524/31
f 46/525/120 143/526/120 142/527/120 39/528/120
f 39/529/121 142/530/121 139/531/121 22/532/121
f 73/533/122 138/534/122 102/535/122 118/536/122
f 136/537/123 129/538/123 94/539/123 92/540/123
f 189/541/124 188/542/124 186/543/124 185/544/124
f 178/545/125 156/546/125 151/547/125 176/548/125
f 179/549/126 153/550/126 154/551/126 180/552/126
f 180/553/127 154/554/127 155/555/127 181/556/127
f 181/557/128 155/558/128 156/559/128 178/560/128
f 176/561/129 151/562/129 152/563/129 177/564/129
f 145/565/6 146/566/6 147/567/6 148/568/6 149/569/6 150/570/6
f 177/571/130 152/572/130 153/573/130 179/574/130
f 153/575/131 152/576/131 161/577/131 160/578/131
f 156/579/132 155/580/132 158/581/132 157/582/132
f 154/583/133 153/584/133 160/585/133 159/586/133
f 152/587/134 151/588/134 162/589/134 161/590/134
f 151/591/135 156/592/135 157/593/135 162/594/135
f 155/595/136 154/596/136 159/597/136 158/598/136
f 167/599/137 168/600/137 189/601/137 190/602/137
f 165/603/138 166/604/138 191/605/138 192/606/138
f 169/607/139 164/608/139 163/609/139 188/610/139
f 168/611/140 169/612/140 188/613/140 189/614/140
f 166/615/141 167/616/141 190/617/141 191/618/141
f 164/619/142 165/620/142 192/621/142 163/622/142
f 170/623/143 175/624/143 164/625/143 169/626/143
f 174/627/144 173/628/144 166/629/144 165/630/144
f 172/631/145 171/632/145 168/633/145 167/634/145
f 175/635/146 174/636/146 165/637/146 164/638/146
f 173/639/147 172/640/147 167/641/147 166/642/147
f 171/643/148 170/644/148 169/645/148 168/646/148
f 160/647/149 161/648/149 171/649/149 172/650/149
f 158/651/150 159/652/150 173/653/150 174/654/150
f 162/655/151 157/656/151 175/657/151 170/658/151
f 161/659/152 162/660/152 170/661/152 171/662/152
f 159/663/153 160/664/153 172/665/153 173/666/153
f 157/667/154 158/668/154 174/669/154 175/670/154
f 193/671/155 177/672/155 179/673/155 194/674/155
f 197/675/156 176/676/156 177/677/156 193/678/156
f 196/679/157 181/680/157 178/681/157 198/682/157
f 195/683/158 180/684/158 181/685/158 196/686/158
f 194/687/159 179/688/159 180/689/159 195/690/159
f 198/691/160 178/692/160 176/693/160 197/694/160
f 182/695/161 183/696/161 185/697/161 186/698/161 187/699/161 184/700/161
f 188/701/162 163/702/162 187/703/162 186/704/162
f 192/705/163 191/706/163 182/707/163 184/708/163
f 190/709/164 189/710/164 185/711/164 183/712/164
f 163/713/165 192/714/165 184/715/165 187/716/165
f 191/717/166 190/718/166 183/719/166 182/720/166
f 204/721/167 198/722/167 197/723/167 203/724/167
f 200/725/168 194/726/168 195/727/168 201/728/168
f 201/729/169 195/730/169 196/731/169 202/732/169
f 202/733/170 196/734/170 198/735/170 204/736/170
f 203/737/171 197/738/171 193/739/171 199/740/171
f 199/741/172 193/742/172 194/743/172 200/744/172
f 146/745/173 199/746/173 200/747/173 147/748/173
f 145/749/174 203/750/174 199/751/174 146/752/174
f 149/753/175 202/754/175 204/755/175 150/756/175
f 148/757/176 201/758/176 202/759/176 149/760/176
f 147/761/177 200/762/177 201/763/177 148/764/177
f 150/765/178 204/766/178 203/767/178 145/768/178
f 249/769/179 248/770/179 246/771/179 245/772/179
f 238/773/180 216/774/180 211/775/180 236/776/180
f 239/777/181 213/778/181 214/779/181 240/780/181
f 240/781/182 214/782/182 215/783/182 241/784/182
f 241/785/183 215/786/183 216/787/183 238/788/183
f 236/789/184 211/790/184 212/791/184 237/792/184
f 205/793/6 206/794/6 207/795/6 208/796/6 209/797/6 210/798/6
f 237/799/185 212/800/185 213/801/185 239/802/185
f 213/803/186 212/804/186 221/805/186 220/806/186
f 216/807/187 215/808/187 218/809/187 217/810/187
f 214/811/188 213/812/188 220/813/188 219/814/188
f 212/815/189 211/816/189 222/817/189 221/818/189
f 211/819/190 216/820/190 217/821/190 222/822/190
f 215/823/191 214/824/191 219/825/191 218/826/191
f 227/827/192 228/828/192 249/829/192 250/830/192
f 225/831/193 226/832/193 251/833/193 252/834/193
f 229/835/194 224/836/194 223/837/194 248/838/194
f 228/839/195 229/840/195 248/841/195 249/842/195
f 226/843/196 227/844/196 250/845/196 251/846/196
f 224/847/197 225/848/197 252/849/197 223/850/197
f 230/851/198 235/852/198 224/853/198 229/854/198
f 234/855/199 233/856/199 226/857/199 225/858/199
f 232/859/200 231/860/200 228/861/200 227/862/200
f 235/863/201 234/864/201 225/865/201 224/866/201
f 233/867/202 232/868/202 227/869/202 226/870/202
f 231/871/203 230/872/203 229/873/203 228/874/203
f 220/875/204 221/876/204 231/877/204 232/878/204
f 218/879/205 219/880/205 233/881/205 234/882/205
f 222/883/206 217/884/206 235/885/206 230/886/206
f 221/887/207 222/888/207 230/889/207 231/890/207
f 219/891/208 220/892/208 232/893/208 233/894/208
f 217/895/209 218/896/209 234/897/209 235/898/209
f 206/899/210 237/900/210 239/901/210 207/902/210
f 205/903/211 236/904/211 237/905/211 206/906/211
f 209/907/212 241/908/212 238/909/212 210/910/212
f 208/911/213 240/912/213 241/913/213 209/914/213
f 207/915/214 239/916/214 240/917/214 208/918/214
f 210/919/215 238/920/215 236/921/215 205/922/215
f 242/923/216 243/924/216 245/925/216 246/926/216 247/927/216 244/928/216
f 248/929/217 223/930/217 247/931/217 246/932/217
f 252/933/218 251/934/218 242/935/218 244/936/218
f 250/937/219 249/938/219 245/939/219 243/940/219
f 223/941/220 252/942/220 244/943/220 247/944/220
f 251/945/221 250/946/221 243/947/221 242/948/221
f 297/949/222 296/950/222 294/951/222 293/952/222
f 286/953/223 264/954/223 259/955/223 284/956/223
f 287/957/224 261/958/224 262/959/224 288/960/224
f 288/961/225 262/962/225 263/963/225 289/964/225
f 289/965/226 263/966/226 264/967/226 286/968/226
f 284/969/227 259/970/227 260/971/227 285/972/227
f 253/973/6 254/974/6 255/975/6 256/976/6 257/977/6 258/978/6
f 285/979/228 260/980/228 261/981/228 287/982/228
f 261/983/229 260/984/229 269/985/229 268/986/229
f 264/987/230 263/988/230 266/989/230 265/990/230
f 262/991/231 261/992/231 268/993/231 267/994/231
f 260/995/232 259/996/232 270/997/232 269/998/232
f 259/999/233 264/1000/233 265/1001/233 270/1002/233
f 263/1003/234 262/1004/234 267/1005/234 266/1006/234
f 275/1007/235 276/1008/235 297/1009/235 298/1010/235
f 273/1011/236 274/1012/236 299/1013/236 300/1014/236
f 277/1015/237 272/1016/237 271/1017/237 296/1018/237
f 276/1019/238 277/1020/238 296/1021/238 297/1022/238
f 274/1023/239 275/1024/239 298/1025/239 299/1026/239
f 272/1027/240 273/1028/240 300/1029/240 271/1030/240
f 278/1031/241 283/1032/241 272/1033/241 277/1034/241
f 282/1035/242 281/1036/242 274/1037/242 273/1038/242
f 280/1039/243 279/1040/243 276/1041/243 275/1042/243
f 283/1043/244 282/1044/244 273/1045/244 272/1046/244
f 281/1047/245 280/1048/245 275/1049/245 274/1050/245
f 279/1051/246 278/1052/246 277/1053/246 276/1054/246
f 268/1055/247 269/1056/247 279/1057/247 280/1058/247
f 266/1059/248 267/1060/248 281/1061/248 282/1062/248
f 270/1063/249 265/1064/249 283/1065/249 278/1066/249
f 269/1067/250 270/1068/250 278/1069/250 279/1070/250
f 267/1071/251 268/1072/251 280/1073/251 281/1074/251
f 265/1075/252 266/1076/252 282/1077/252 283/1078/252
f 254/1079/253 285/1080/253 287/1081/253 255/1082/253
f 253/1083/254 284/1084/254 285/1085/254 254/1086/254
f 257/1087/255 289/1088/255 286/1089/255 258/1090/255
f 256/1091/256 288/1092/256 289/1093/256 257/1094/256
f 255/1095/257 287/1096/257 288/1097/257 256/1098/257
f 258/1099/258 286/1100/258 284/1101/258 253/1102/258
f 290/1103/108 291/1104/108 293/1105/108 294/1106/108 295/1107/108 292/1108/108
f 296/1109/259 271/1110/259 295/1111/259 294/1112/259
f 300/1113/260 299/1114/260 290/1115/260 292/1116/260
f 298/1117/261 297/1118/261 293/1119/261 291/1120/261
f 271/1121/262 300/1122/262 292/1123/262 295/1124/262
f 299/1125/263 298/1126/263 291/1127/263 290/1128/263
f 345/1129/264 344/1130/264 342/1131/264 341/1132/264
f 334/1133/265 312/1134/265 307/1135/265 332/1136/265
f 335/1137/266 309/1138/266 310/1139/266 336/1140/266
f 336/1141/267 310/1142/267 311/1143/267 337/1144/267
f 337/1145/268 311/1146/268 312/1147/268 334/1148/268
f 332/1149/269 307/1150/269 308/1151/269 333/1152/269
f 301/1153/6 302/1154/6 303/1155/6 304/1156/6 305/1157/6 306/1158/6
f 333/1159/270 308/1160/270 309/1161/270 335/1162/270
f 309/1163/271 308/1164/271 317/1165/271 316/1166/271
f 312/1167/272 311/1168/272 314/1169/272 313/1170/272
f 310/1171/273 309/1172/273 316/1173/273 315/1174/273
f 308/1175/274 307/1176/274 318/1177/274 317/1178/274
f 307/1179/275 312/1180/275 313/1181/275 318/1182/275
f 311/1183/276 310/1184/276 315/1185/276 314/1186/276
f 323/1187/277 324/1188/277 345/1189/277 346/1190/277
f 321/1191/278 322/1192/278 347/1193/278 348/1194/278
f 325/1195/279 320/1196/279 319/1197/279 344/1198/279
f 324/1199/280 325/1200/280 344/1201/280 345/1202/280
f 322/1203/281 323/1204/281 346/1205/281 347/1206/281
f 320/1207/282 321/1208/282 348/1209/282 319/1210/282
f 326/1211/283 331/1212/283 320/1213/283 325/1214/283
f 330/1215/284 329/1216/284 322/1217/284 321/1218/284
f 328/1219/285 327/1220/285 324/1221/285 323/1222/285
f 331/1223/286 330/1224/286 321/1225/286 320/1226/286
f 329/1227/287 328/1228/287 323/1229/287 322/1230/287
f 327/1231/288 326/1232/288 325/1233/288 324/1234/288
f 316/1235/289 317/1236/289 327/1237/289 328/1238/289
f 314/1239/290 315/1240/290 329/1241/290 330/1242/290
f 318/1243/291 313/1244/291 331/1245/291 326/1246/291
f 317/1247/292 318/1248/292 326/1249/292 327/1250/292
f 315/1251/293 316/1252/293 328/1253/293 329/1254/293
f 313/1255/294 314/1256/294 330/1257/294 331/1258/294
f 349/1259/295 333/1260/295 335/1261/295 350/1262/295
f 353/1263/296 332/1264/296 333/1265/296 349/1266/296
f 352/1267/297 337/1268/297 334/1269/297 354/1270/297
f 351/1271/298 336/1272/298 337/1273/298 352/1274/298
f 350/1275/299 335/1276/299 336/1277/299 351/1278/299
f 354/1279/300 334/1280/300 332/1281/300 353/1282/300
f 338/1283/301 339/1284/301 341/1285/301 342/1286/301 343/1287/301 340/1288/301
f 344/1289/302 319/1290/302 343/1291/302 342/1292/302
f 348/1293/303 347/1294/303 338/1295/303 340/1296/303
f 346/1297/304 345/1298/304 341/1299/304 339/1300/304
f 319/1301/305 348/1302/305 340/1303/305 343/1304/305
f 347/1305/306 346/1306/306 339/1307/306 338/1308/306
f 360/1309/307 354/1310/307 353/1311/307 359/1312/307
f 356/1313/308 350/1314/308 351/1315/308 357/1316/308
f 357/1317/309 351/1318/309 352/1319/309 358/1320/309
f 358/1321/310 352/1322/310 354/1323/310 360/1324/310
f 359/1325/311 353/1326/311 349/1327/311 355/1328/311
f 355/1329/312 349/1330/312 350/1331/312 356/1332/312
f 302/1333/313 355/1334/313 356/1335/313 303/1336/313
f 301/1337/314 359/1338/314 355/1339/314 302/1340/314
f 305/1341/315 358/1342/315 360/1343/315 306/1344/315
f 304/1345/316 357/1346/316 358/1347/316 305/1348/316
f 303/1349/317 356/1350/317 357/1351/317 304/1352/317
f 306/1353/318 360/1354/318 359/1355/318 301/1356/318
