# Blender v2.82 (sub 7) OBJ File: 'low_poly_mushrooms.blend'
# www.blender.org
mtllib green_russule.mtl
o green_russule_Cylinder.021
v 0.078765 0.000000 -0.065578
v 0.130452 0.384820 -0.133440
v 0.127733 0.000000 -0.037306
v -0.012129 0.379555 -0.053391
v 0.127733 0.000000 0.019237
v -0.056845 0.376361 0.048871
v 0.078765 0.000000 0.047509
v 0.091501 0.373149 0.114842
v 0.029797 0.000000 0.019237
v 0.198574 0.401334 0.046181
v 0.029797 0.000000 -0.037306
v 0.206640 0.385584 -0.105478
v 0.084303 0.223637 -0.049351
v 0.081177 0.111717 -0.058007
v 0.125478 0.111717 -0.033516
v 0.118459 0.223637 -0.029193
v 0.125478 0.111717 0.015447
v 0.118458 0.223637 0.011124
v 0.081177 0.111717 0.039939
v 0.084303 0.223637 0.031283
v 0.038755 0.111717 0.015457
v 0.046828 0.223637 0.011124
v 0.038755 0.111717 -0.033526
v 0.046828 0.223637 -0.029193
v 0.056547 0.386357 -0.156213
v 0.082750 0.346423 -0.246939
v 0.272108 0.329460 -0.141515
v 0.272402 0.351697 0.102119
v 0.089256 0.317535 0.213273
v -0.117188 0.328946 0.105706
v -0.137802 0.328946 -0.131840
v 0.208794 0.332962 -0.241020
v 0.327874 0.328357 -0.027856
v 0.214680 0.351697 0.201957
v -0.066604 0.306125 0.199269
v -0.182563 0.330951 -0.009034
v -0.057253 0.321846 -0.231377
v -0.063117 0.299125 -0.251002
v -0.213055 0.295282 -0.009034
v -0.063117 0.262071 0.232934
v 0.220887 0.278150 0.232932
v 0.360139 0.277113 -0.009034
v 0.223480 0.277113 -0.251001
v -0.179330 0.277113 -0.151653
v -0.163645 0.262175 0.133585
v 0.085277 0.284893 0.276202
v 0.327439 0.299864 0.133582
v 0.327439 0.293096 -0.151651
v 0.085796 0.292301 -0.294270
v 0.220813 0.395078 -0.026063
v 0.134855 0.392953 0.074868
v 0.006841 0.373149 0.118785
v -0.048658 0.390640 -0.018893
v 0.000842 0.381011 -0.132823
v 0.077969 0.400945 -0.009034
v -0.018111 0.000000 0.078452
v 0.002193 0.000000 0.073467
v 0.016661 0.000000 0.088558
v 0.010826 0.000000 0.108634
v -0.009477 0.000000 0.113619
v -0.023946 0.000000 0.098528
v -0.015951 0.105687 0.084975
v -0.001564 0.108999 0.081368
v 0.008610 0.108999 0.091979
v 0.004400 0.105687 0.106202
v -0.009590 0.102515 0.109433
v -0.019768 0.102515 0.098817
v -0.072508 0.121886 0.029770
v 0.014162 0.147585 0.016557
v 0.075076 0.141928 0.077988
v 0.058108 0.127596 0.168126
v -0.032018 0.103772 0.180689
v -0.098214 0.106793 0.120299
v -0.073850 0.136139 0.035438
v 0.009241 0.163604 0.025507
v 0.064919 0.154694 0.083493
v 0.049877 0.147234 0.166710
v -0.036171 0.116073 0.180437
v -0.095453 0.128161 0.122307
v -0.052605 0.156625 0.059839
v -0.004726 0.175965 0.064260
v 0.025569 0.175965 0.095858
v 0.013034 0.166101 0.138209
v -0.031199 0.148868 0.148630
v -0.062920 0.144379 0.118057
v -0.017261 0.171613 0.107099
v -0.014263 0.050946 0.079338
v 0.003055 0.050946 0.074930
v -0.019178 0.050946 0.096243
v 0.015237 0.050946 0.087636
v 0.010103 0.050946 0.104752
v -0.006994 0.050946 0.108951
v 0.078716 0.000000 -0.172577
v 0.070236 0.000000 -0.139351
v 0.037221 0.000000 -0.130082
v 0.012687 0.000000 -0.154039
v 0.021167 0.000000 -0.187265
v 0.054181 0.000000 -0.196534
v 0.070361 0.145651 -0.174518
v 0.063810 0.151682 -0.148318
v 0.038041 0.151682 -0.141083
v 0.018811 0.145651 -0.160045
v 0.025625 0.139876 -0.185286
v 0.051405 0.139876 -0.192524
v 0.167110 0.167845 -0.205320
v 0.127165 0.203022 -0.092160
v 0.013713 0.195278 -0.058239
v -0.084169 0.175661 -0.136859
v -0.041209 0.143052 -0.253770
v 0.074393 0.147187 -0.294742
v 0.161133 0.187355 -0.210595
v 0.119533 0.224948 -0.103874
v 0.013616 0.212752 -0.074051
v -0.077150 0.202542 -0.145883
v -0.038227 0.159889 -0.258622
v 0.070188 0.176434 -0.292702
v 0.117971 0.215395 -0.200683
v 0.081753 0.241867 -0.145730
v 0.024067 0.241867 -0.129534
v -0.018980 0.228366 -0.171982
v -0.003032 0.204778 -0.232105
v 0.054337 0.198634 -0.250685
v 0.038118 0.235911 -0.188493
v 0.073608 0.070745 -0.168090
v 0.066775 0.070745 -0.140333
v 0.053460 0.070745 -0.187767
v 0.039665 0.070745 -0.132721
v 0.019384 0.070745 -0.152866
v 0.026346 0.070745 -0.180154
v 0.223801 0.000000 0.117444
v 0.202471 0.000000 0.093380
v 0.212647 0.000000 0.062875
v 0.244152 0.000000 0.056435
v 0.265482 0.000000 0.080499
v 0.255307 0.000000 0.111004
v 0.243797 0.128006 0.108239
v 0.229431 0.132816 0.092191
v 0.236186 0.132816 0.071940
v 0.257310 0.128006 0.067730
v 0.270925 0.123400 0.083523
v 0.264167 0.123400 0.103782
v 0.204412 0.153871 0.249306
v 0.111137 0.199916 0.122918
v 0.157704 0.189780 -0.024923
v 0.314777 0.164102 -0.073241
v 0.409903 0.121417 0.059169
v 0.369397 0.126829 0.214517
v 0.214518 0.179408 0.246705
v 0.129434 0.228616 0.123251
v 0.174908 0.212652 -0.013415
v 0.319400 0.199287 -0.059008
v 0.412970 0.143457 0.065964
v 0.370275 0.165113 0.208463
v 0.235477 0.216112 0.192657
v 0.202532 0.250763 0.113056
v 0.227349 0.250763 0.038656
v 0.304957 0.233090 0.023188
v 0.358391 0.202215 0.084624
v 0.336389 0.194172 0.160430
v 0.280913 0.242966 0.097182
v 0.228865 0.068250 0.110734
v 0.211410 0.070345 0.091237
v 0.254024 0.065232 0.105556
v 0.219534 0.069370 0.066706
v 0.245115 0.066301 0.061668
v 0.262150 0.064257 0.081021
v -0.236381 0.000000 -0.029684
v -0.225423 0.000000 -0.011879
v -0.235363 0.000000 0.006513
v -0.256262 0.000000 0.007100
v -0.267220 0.000000 -0.010705
v -0.257279 0.000000 -0.029097
v -0.241930 0.105687 -0.025632
v -0.234094 0.108999 -0.013038
v -0.241083 0.108999 -0.000106
v -0.255912 0.105687 0.000238
v -0.263269 0.102515 -0.012093
v -0.256276 0.102515 -0.025031
v -0.206676 0.121886 -0.096367
v -0.167579 0.147585 -0.017896
v -0.207428 0.141928 0.058892
v -0.298435 0.127596 0.070316
v -0.337970 0.103772 -0.011644
v -0.300729 0.106793 -0.093143
v -0.212482 0.136139 -0.095911
v -0.177606 0.163604 -0.019842
v -0.215776 0.154694 0.050907
v -0.299605 0.147234 0.062046
v -0.339000 0.116073 -0.015675
v -0.301795 0.128161 -0.089899
v -0.229214 0.156625 -0.068218
v -0.218774 0.175965 -0.021283
v -0.239588 0.175965 0.017227
v -0.283743 0.166101 0.018251
v -0.307197 0.148868 -0.020674
v -0.287796 0.144379 -0.060228
v -0.263394 0.171613 -0.020110
v -0.236047 0.050946 -0.025749
v -0.226551 0.050946 -0.010611
v -0.253645 0.050946 -0.025257
v -0.234921 0.050946 0.004874
v -0.252787 0.050946 0.005224
v -0.262016 0.050946 -0.009768
v -0.144977 0.000000 0.161006
v -0.121192 0.000000 0.151525
v -0.101088 0.000000 0.167383
v -0.104770 0.000000 0.192723
v -0.128556 0.000000 0.202204
v -0.148660 0.000000 0.186346
v -0.141254 0.130058 0.168553
v -0.124412 0.134115 0.161744
v -0.110276 0.134115 0.172895
v -0.112976 0.130058 0.190859
v -0.129401 0.126173 0.197145
v -0.143543 0.126173 0.185990
v -0.219198 0.149899 0.111155
v -0.116299 0.181374 0.080465
v -0.032018 0.174445 0.144680
v -0.037352 0.156892 0.256891
v -0.144553 0.127713 0.287375
v -0.235067 0.131413 0.225318
v -0.219867 0.167355 0.118256
v -0.120754 0.200994 0.092155
v -0.043406 0.190081 0.153076
v -0.047577 0.180945 0.256565
v -0.149633 0.142780 0.287772
v -0.231377 0.157584 0.227286
v -0.189968 0.192446 0.144263
v -0.131141 0.216133 0.141527
v -0.089048 0.216133 0.174731
v -0.097089 0.204052 0.228225
v -0.148983 0.182946 0.248348
v -0.192634 0.177448 0.216628
v -0.139101 0.210803 0.195612
v -0.140160 0.063014 0.161430
v -0.119899 0.063014 0.153153
v -0.143262 0.063014 0.182767
v -0.102972 0.063014 0.166505
v -0.106304 0.063014 0.188136
v -0.126333 0.063014 0.196122
vt 0.553992 0.258831
vt 0.553992 0.245396
vt 0.547433 0.245396
vt 0.547433 0.258831
vt 0.513055 0.355090
vt 0.526489 0.355090
vt 0.526489 0.348531
vt 0.513055 0.348531
vt 0.553992 0.341339
vt 0.553992 0.327904
vt 0.547433 0.327904
vt 0.547433 0.341339
vt 0.499303 0.355090
vt 0.512738 0.355090
vt 0.512738 0.348531
vt 0.499303 0.348531
vt 0.553992 0.327587
vt 0.553992 0.314153
vt 0.547433 0.314153
vt 0.547433 0.327587
vt 0.416795 0.310477
vt 0.416795 0.303760
vt 0.423513 0.300401
vt 0.430230 0.303760
vt 0.430230 0.310477
vt 0.423513 0.313836
vt 0.471801 0.355090
vt 0.485235 0.355090
vt 0.485235 0.348531
vt 0.471801 0.348531
vt 0.301516 0.931448
vt 0.288239 0.931448
vt 0.301516 0.918172
vt 0.301990 0.917697
vt 0.315267 0.917697
vt 0.315267 0.904420
vt 0.288081 0.918014
vt 0.301357 0.918014
vt 0.288081 0.931290
vt 0.322618 0.862692
vt 0.329018 0.862692
vt 0.329018 0.849415
vt 0.274013 0.931448
vt 0.274013 0.925048
vt 0.260736 0.931448
vt 0.553992 0.300401
vt 0.547433 0.300401
vt 0.547433 0.313836
vt 0.553992 0.313836
vt 0.471484 0.355090
vt 0.471484 0.348531
vt 0.458049 0.348531
vt 0.458049 0.355090
vt 0.553992 0.286650
vt 0.547433 0.286650
vt 0.547433 0.300085
vt 0.553992 0.300085
vt 0.457733 0.355090
vt 0.457733 0.348531
vt 0.444298 0.348531
vt 0.444298 0.355090
vt 0.553992 0.272898
vt 0.547433 0.272898
vt 0.547433 0.286333
vt 0.553992 0.286333
vt 0.443981 0.355090
vt 0.443981 0.348531
vt 0.430546 0.348531
vt 0.430546 0.355090
vt 0.246510 0.925048
vt 0.246510 0.931448
vt 0.233234 0.931448
vt 0.301516 0.863008
vt 0.288081 0.863008
vt 0.288081 0.876443
vt 0.301516 0.876443
vt 0.274013 0.890511
vt 0.260578 0.890511
vt 0.260578 0.903946
vt 0.274013 0.903946
vt 0.287764 0.890511
vt 0.274329 0.890511
vt 0.274329 0.903946
vt 0.287764 0.903946
vt 0.301516 0.876760
vt 0.288081 0.876760
vt 0.288081 0.890194
vt 0.301516 0.890194
vt 0.301516 0.890511
vt 0.288081 0.890511
vt 0.288081 0.903946
vt 0.301516 0.903946
vt 0.329018 0.876760
vt 0.315584 0.876760
vt 0.315584 0.890194
vt 0.329018 0.890194
vt 0.315267 0.821754
vt 0.301832 0.821754
vt 0.301832 0.835189
vt 0.315267 0.835189
vt 0.246510 0.904262
vt 0.233075 0.904262
vt 0.233075 0.917697
vt 0.246510 0.917697
vt 0.315267 0.835505
vt 0.301832 0.835505
vt 0.301832 0.848940
vt 0.315267 0.848940
vt 0.260262 0.904262
vt 0.246827 0.904262
vt 0.246827 0.917697
vt 0.260262 0.917697
vt 0.315267 0.849257
vt 0.301832 0.849257
vt 0.301832 0.862692
vt 0.315267 0.862692
vt 0.315267 0.863008
vt 0.301832 0.863008
vt 0.301832 0.876443
vt 0.315267 0.876443
vt 0.356521 0.848940
vt 0.356521 0.835505
vt 0.349962 0.835505
vt 0.349962 0.848940
vt 0.329335 0.938324
vt 0.342770 0.938324
vt 0.342770 0.931765
vt 0.329335 0.931765
vt 0.335894 0.890194
vt 0.335894 0.876760
vt 0.329335 0.876760
vt 0.329335 0.890194
vt 0.315584 0.931448
vt 0.329018 0.931448
vt 0.329018 0.924889
vt 0.315584 0.924889
vt 0.329018 0.876443
vt 0.329018 0.863008
vt 0.322459 0.863008
vt 0.322459 0.876443
vt 0.246827 0.931448
vt 0.260262 0.931448
vt 0.260262 0.924889
vt 0.246827 0.924889
vt 0.329018 0.835189
vt 0.329018 0.821754
vt 0.322459 0.821754
vt 0.322459 0.835189
vt 0.219324 0.931448
vt 0.232759 0.931448
vt 0.232759 0.924889
vt 0.219324 0.924889
vt 0.322143 0.917697
vt 0.322143 0.904262
vt 0.315584 0.904262
vt 0.315584 0.917697
vt 0.301832 0.924573
vt 0.315267 0.924573
vt 0.315267 0.918014
vt 0.301832 0.918014
vt 0.287764 0.918014
vt 0.274329 0.918014
vt 0.274329 0.931448
vt 0.287764 0.931448
vt 0.322143 0.903946
vt 0.322143 0.890511
vt 0.315584 0.890511
vt 0.315584 0.903946
vt 0.443981 0.243133
vt 0.440117 0.245079
vt 0.416795 0.232082
vt 0.428638 0.221928
vt 0.443981 0.217893
vt 0.495157 0.217893
vt 0.498987 0.219862
vt 0.498987 0.245079
vt 0.483997 0.240611
vt 0.471801 0.231279
vt 0.440285 0.245396
vt 0.443981 0.247451
vt 0.443981 0.272582
vt 0.427872 0.270262
vt 0.416795 0.259710
vt 0.471484 0.243205
vt 0.467640 0.245079
vt 0.444298 0.231166
vt 0.456451 0.221993
vt 0.471484 0.217893
vt 0.467630 0.245396
vt 0.471484 0.247256
vt 0.471484 0.272582
vt 0.456210 0.268108
vt 0.444298 0.259044
vt 0.439881 0.272898
vt 0.443981 0.274892
vt 0.443981 0.300085
vt 0.427801 0.295386
vt 0.416795 0.285582
vt 0.233075 0.924889
vt 0.233075 0.931290
vt 0.246352 0.924889
vt 0.322618 0.848940
vt 0.329018 0.848940
vt 0.329018 0.835664
vt 0.322459 0.835505
vt 0.328860 0.835505
vt 0.322459 0.848782
vt 0.301832 0.904262
vt 0.315109 0.904262
vt 0.301832 0.917539
vt 0.260578 0.931290
vt 0.260578 0.924889
vt 0.273855 0.924889
vt 0.322459 0.849257
vt 0.328860 0.849257
vt 0.322459 0.862533
vt 0.574619 0.238520
vt 0.568060 0.238520
vt 0.568060 0.245079
vt 0.574619 0.245079
vt 0.443981 0.369158
vt 0.437422 0.369158
vt 0.437422 0.375717
vt 0.443981 0.375717
vt 0.437106 0.369158
vt 0.430546 0.369158
vt 0.430546 0.375717
vt 0.437106 0.375717
vt 0.574619 0.231644
vt 0.568060 0.231644
vt 0.568060 0.238203
vt 0.574619 0.238203
vt 0.430230 0.369158
vt 0.423671 0.369158
vt 0.423671 0.375717
vt 0.430230 0.375717
vt 0.423354 0.374077
vt 0.420075 0.375717
vt 0.416795 0.374077
vt 0.416795 0.370798
vt 0.420075 0.369158
vt 0.423354 0.370798
vt 0.567743 0.362282
vt 0.561184 0.362282
vt 0.561184 0.368841
vt 0.567743 0.368841
vt 0.526489 0.320712
vt 0.526489 0.314153
vt 0.513055 0.314153
vt 0.513055 0.320712
vt 0.526489 0.286650
vt 0.519930 0.286650
vt 0.519930 0.300085
vt 0.526489 0.300085
vt 0.567743 0.355407
vt 0.561184 0.355407
vt 0.561184 0.361966
vt 0.567743 0.361966
vt 0.505862 0.362282
vt 0.499303 0.362282
vt 0.499303 0.368841
vt 0.505862 0.368841
vt 0.430230 0.334463
vt 0.430230 0.327904
vt 0.416795 0.327904
vt 0.416795 0.334463
vt 0.533365 0.217893
vt 0.526806 0.217893
vt 0.526806 0.231328
vt 0.533365 0.231328
vt 0.233075 0.938324
vt 0.246510 0.938324
vt 0.246510 0.931765
vt 0.233075 0.931765
vt 0.335894 0.848940
vt 0.335894 0.835505
vt 0.329335 0.835505
vt 0.329335 0.848940
vt 0.246827 0.938324
vt 0.260262 0.938324
vt 0.260262 0.931765
vt 0.246827 0.931765
vt 0.335894 0.862692
vt 0.335894 0.849257
vt 0.329335 0.849257
vt 0.329335 0.862692
vt 0.260578 0.938324
vt 0.274013 0.938324
vt 0.274013 0.931765
vt 0.260578 0.931765
vt 0.335894 0.876443
vt 0.335894 0.863008
vt 0.329335 0.863008
vt 0.329335 0.876443
vt 0.301516 0.966143
vt 0.294957 0.966143
vt 0.294957 0.972702
vt 0.301516 0.972702
vt 0.370272 0.890511
vt 0.363713 0.890511
vt 0.363713 0.897070
vt 0.370272 0.897070
vt 0.294640 0.966143
vt 0.288081 0.966143
vt 0.288081 0.972702
vt 0.294640 0.972702
vt 0.370272 0.883635
vt 0.363713 0.883635
vt 0.363713 0.890194
vt 0.370272 0.890194
vt 0.287764 0.966143
vt 0.281205 0.966143
vt 0.281205 0.972702
vt 0.287764 0.972702
vt 0.370272 0.876760
vt 0.363713 0.876760
vt 0.363713 0.883319
vt 0.370272 0.883319
vt 0.363397 0.972702
vt 0.356996 0.972702
vt 0.363397 0.966302
vt 0.356521 0.966302
vt 0.356521 0.972702
vt 0.350120 0.972702
vt 0.370272 0.938799
vt 0.370272 0.945200
vt 0.363872 0.945200
vt 0.370272 0.958951
vt 0.370272 0.952550
vt 0.363872 0.958951
vt 0.363872 0.952075
vt 0.370272 0.945675
vt 0.370272 0.952075
vt 0.343245 0.972702
vt 0.349645 0.972702
vt 0.349645 0.966302
vt 0.478360 0.362282
vt 0.471801 0.362282
vt 0.471801 0.368841
vt 0.478360 0.368841
vt 0.471484 0.362282
vt 0.464925 0.362282
vt 0.464925 0.368841
vt 0.471484 0.368841
vt 0.567743 0.266023
vt 0.561184 0.266023
vt 0.561184 0.272582
vt 0.567743 0.272582
vt 0.567743 0.259147
vt 0.561184 0.259147
vt 0.561184 0.265706
vt 0.567743 0.265706
vt 0.464608 0.362282
vt 0.458049 0.362282
vt 0.458049 0.368841
vt 0.464608 0.368841
vt 0.567743 0.252271
vt 0.561184 0.252271
vt 0.561184 0.258831
vt 0.567743 0.258831
vt 0.457733 0.362282
vt 0.451174 0.362282
vt 0.451174 0.368841
vt 0.457733 0.368841
vt 0.450857 0.362282
vt 0.444298 0.362282
vt 0.444298 0.368841
vt 0.450857 0.368841
vt 0.567743 0.245396
vt 0.561184 0.245396
vt 0.561184 0.251955
vt 0.567743 0.251955
vt 0.443981 0.362282
vt 0.437422 0.362282
vt 0.437422 0.368841
vt 0.443981 0.368841
vt 0.519614 0.355407
vt 0.513055 0.355407
vt 0.513055 0.361966
vt 0.519614 0.361966
vt 0.506179 0.360326
vt 0.506179 0.357046
vt 0.509458 0.355407
vt 0.512738 0.357046
vt 0.512738 0.360326
vt 0.509458 0.361966
vt 0.485552 0.341339
vt 0.498987 0.341339
vt 0.498987 0.334780
vt 0.485552 0.334780
vt 0.540241 0.286650
vt 0.533682 0.286650
vt 0.533682 0.300085
vt 0.540241 0.300085
vt 0.512738 0.341339
vt 0.512738 0.334780
vt 0.499303 0.334780
vt 0.499303 0.341339
vt 0.540241 0.300401
vt 0.533682 0.300401
vt 0.533682 0.313836
vt 0.540241 0.313836
vt 0.526489 0.341339
vt 0.526489 0.334780
vt 0.513055 0.334780
vt 0.513055 0.341339
vt 0.540241 0.314153
vt 0.533682 0.314153
vt 0.533682 0.327587
vt 0.540241 0.327587
vt 0.512738 0.272898
vt 0.499303 0.272898
vt 0.499303 0.286333
vt 0.512738 0.286333
vt 0.329335 0.945200
vt 0.342770 0.945200
vt 0.342770 0.938641
vt 0.329335 0.938641
vt 0.349645 0.835189
vt 0.349645 0.821754
vt 0.343086 0.821754
vt 0.343086 0.835189
vt 0.219324 0.952075
vt 0.232759 0.952075
vt 0.232759 0.945516
vt 0.219324 0.945516
vt 0.349645 0.848940
vt 0.349645 0.835505
vt 0.343086 0.835505
vt 0.343086 0.848940
vt 0.233075 0.952075
vt 0.246510 0.952075
vt 0.246510 0.945516
vt 0.233075 0.945516
vt 0.349645 0.862692
vt 0.349645 0.849257
vt 0.343086 0.849257
vt 0.343086 0.862692
vt 0.246827 0.952075
vt 0.260262 0.952075
vt 0.260262 0.945516
vt 0.246827 0.945516
vt 0.349645 0.876443
vt 0.349645 0.863008
vt 0.343086 0.863008
vt 0.343086 0.876443
vt 0.260578 0.952075
vt 0.274013 0.952075
vt 0.274013 0.945516
vt 0.260578 0.945516
vt 0.349645 0.890194
vt 0.349645 0.876760
vt 0.343086 0.876760
vt 0.343086 0.890194
vt 0.274329 0.952075
vt 0.287764 0.952075
vt 0.287764 0.945516
vt 0.274329 0.945516
vt 0.349645 0.903946
vt 0.349645 0.890511
vt 0.343086 0.890511
vt 0.343086 0.903946
vt 0.377148 0.828313
vt 0.370747 0.828313
vt 0.377148 0.821912
vt 0.377148 0.828788
vt 0.377148 0.835189
vt 0.370747 0.835189
vt 0.370589 0.835031
vt 0.370589 0.828630
vt 0.376990 0.828630
vt 0.342770 0.972702
vt 0.342770 0.966302
vt 0.336369 0.972702
vt 0.376990 0.821754
vt 0.370589 0.828155
vt 0.370589 0.821754
vt 0.329493 0.972702
vt 0.335894 0.972702
vt 0.335894 0.966302
vt 0.560868 0.307277
vt 0.554309 0.307277
vt 0.554309 0.313836
vt 0.560868 0.313836
vt 0.560868 0.300401
vt 0.554309 0.300401
vt 0.554309 0.306960
vt 0.560868 0.306960
vt 0.505862 0.355407
vt 0.499303 0.355407
vt 0.499303 0.361966
vt 0.505862 0.361966
vt 0.498987 0.355407
vt 0.492428 0.355407
vt 0.492428 0.361966
vt 0.498987 0.361966
vt 0.560868 0.293526
vt 0.554309 0.293526
vt 0.554309 0.300085
vt 0.560868 0.300085
vt 0.560868 0.286650
vt 0.554309 0.286650
vt 0.554309 0.293209
vt 0.560868 0.293209
vt 0.560868 0.279774
vt 0.554309 0.279774
vt 0.554309 0.286333
vt 0.560868 0.286333
vt 0.560868 0.272898
vt 0.554309 0.272898
vt 0.554309 0.279458
vt 0.560868 0.279458
vt 0.560868 0.224769
vt 0.554309 0.224769
vt 0.554309 0.231328
vt 0.560868 0.231328
vt 0.430230 0.355407
vt 0.423671 0.355407
vt 0.423671 0.361966
vt 0.430230 0.361966
vt 0.574619 0.245396
vt 0.568060 0.245396
vt 0.568060 0.251955
vt 0.574619 0.251955
vt 0.420075 0.361966
vt 0.416795 0.360326
vt 0.416795 0.357046
vt 0.420075 0.355407
vt 0.423354 0.357046
vt 0.423354 0.360326
vt 0.560868 0.217893
vt 0.554309 0.217893
vt 0.554309 0.224452
vt 0.560868 0.224452
vt 0.457733 0.286650
vt 0.444298 0.286650
vt 0.444298 0.300085
vt 0.457733 0.300085
vt 0.485235 0.272898
vt 0.471801 0.272898
vt 0.471801 0.286333
vt 0.485235 0.286333
vt 0.485235 0.259147
vt 0.471801 0.259147
vt 0.471801 0.272582
vt 0.485235 0.272582
vt 0.471484 0.272898
vt 0.458049 0.272898
vt 0.458049 0.286333
vt 0.471484 0.286333
vt 0.457733 0.272898
vt 0.444298 0.272898
vt 0.444298 0.286333
vt 0.457733 0.286333
vt 0.485235 0.245396
vt 0.471801 0.245396
vt 0.471801 0.258831
vt 0.485235 0.258831
vt 0.288081 0.958951
vt 0.301516 0.958951
vt 0.301516 0.952392
vt 0.288081 0.952392
vt 0.322143 0.848940
vt 0.322143 0.821754
vt 0.315584 0.821754
vt 0.315584 0.848940
vt 0.219324 0.924573
vt 0.246510 0.924573
vt 0.246510 0.918014
vt 0.219324 0.918014
vt 0.322143 0.876443
vt 0.322143 0.849257
vt 0.315584 0.849257
vt 0.315584 0.876443
vt 0.246827 0.924573
vt 0.274013 0.924573
vt 0.274013 0.918014
vt 0.246827 0.918014
vt 0.349645 0.958951
vt 0.349645 0.945516
vt 0.343086 0.945516
vt 0.343086 0.958951
vt 0.329335 0.958951
vt 0.342770 0.958951
vt 0.342770 0.952392
vt 0.329335 0.952392
vt 0.287764 0.904262
vt 0.274329 0.904262
vt 0.274329 0.917697
vt 0.287764 0.917697
vt 0.356521 0.876443
vt 0.356521 0.863008
vt 0.349962 0.863008
vt 0.349962 0.876443
vt 0.301516 0.849257
vt 0.288081 0.849257
vt 0.288081 0.862692
vt 0.301516 0.862692
vt 0.274013 0.904262
vt 0.260578 0.904262
vt 0.260578 0.917697
vt 0.274013 0.917697
vt 0.219324 0.958951
vt 0.232759 0.958951
vt 0.232759 0.952392
vt 0.219324 0.952392
vt 0.315267 0.931448
vt 0.315267 0.925048
vt 0.301990 0.931448
vt 0.315267 0.890669
vt 0.315267 0.903946
vt 0.301990 0.903946
vt 0.301516 0.904420
vt 0.301516 0.917697
vt 0.288239 0.917697
vt 0.288081 0.904262
vt 0.288081 0.917539
vt 0.301357 0.904262
vt 0.301832 0.931290
vt 0.315109 0.924889
vt 0.301832 0.924889
vt 0.315109 0.890511
vt 0.301832 0.890511
vt 0.301832 0.903787
vt 0.560868 0.231644
vt 0.554309 0.231644
vt 0.554309 0.238203
vt 0.560868 0.238203
vt 0.437106 0.355407
vt 0.430546 0.355407
vt 0.430546 0.361966
vt 0.437106 0.361966
vt 0.560868 0.238520
vt 0.554309 0.238520
vt 0.554309 0.245079
vt 0.560868 0.245079
vt 0.443981 0.355407
vt 0.437422 0.355407
vt 0.437422 0.361966
vt 0.443981 0.361966
vt 0.450857 0.355407
vt 0.444298 0.355407
vt 0.444298 0.361966
vt 0.450857 0.361966
vt 0.560868 0.245396
vt 0.554309 0.245396
vt 0.554309 0.251955
vt 0.560868 0.251955
vt 0.457733 0.355407
vt 0.451174 0.355407
vt 0.451174 0.361966
vt 0.457733 0.361966
vt 0.560868 0.252271
vt 0.554309 0.252271
vt 0.554309 0.258831
vt 0.560868 0.258831
vt 0.464608 0.355407
vt 0.458049 0.355407
vt 0.458049 0.361966
vt 0.464608 0.361966
vt 0.560868 0.259147
vt 0.554309 0.259147
vt 0.554309 0.265706
vt 0.560868 0.265706
vt 0.560868 0.266023
vt 0.554309 0.266023
vt 0.554309 0.272582
vt 0.560868 0.272582
vt 0.471484 0.357046
vt 0.471484 0.360326
vt 0.468204 0.361966
vt 0.464925 0.360326
vt 0.464925 0.357046
vt 0.468204 0.355407
vt 0.478360 0.355407
vt 0.471801 0.355407
vt 0.471801 0.361966
vt 0.478360 0.361966
vt 0.553992 0.217893
vt 0.547433 0.217893
vt 0.547433 0.231328
vt 0.553992 0.231328
vt 0.540241 0.348214
vt 0.540241 0.341655
vt 0.526806 0.341655
vt 0.526806 0.348214
vt 0.485235 0.355407
vt 0.478676 0.355407
vt 0.478676 0.361966
vt 0.485235 0.361966
vt 0.492111 0.355407
vt 0.485552 0.355407
vt 0.485552 0.361966
vt 0.492111 0.361966
vt 0.547116 0.327904
vt 0.540557 0.327904
vt 0.540557 0.341339
vt 0.547116 0.341339
vt 0.526489 0.348214
vt 0.526489 0.341655
vt 0.513055 0.341655
vt 0.513055 0.348214
vt 0.349645 0.931448
vt 0.349645 0.918014
vt 0.343086 0.918014
vt 0.343086 0.931448
vt 0.301832 0.952075
vt 0.315267 0.952075
vt 0.315267 0.945516
vt 0.301832 0.945516
vt 0.349645 0.917697
vt 0.349645 0.904262
vt 0.343086 0.904262
vt 0.343086 0.917697
vt 0.288081 0.952075
vt 0.301516 0.952075
vt 0.301516 0.945516
vt 0.288081 0.945516
vt 0.342770 0.890194
vt 0.342770 0.876760
vt 0.336211 0.876760
vt 0.336211 0.890194
vt 0.274329 0.945200
vt 0.287764 0.945200
vt 0.287764 0.938641
vt 0.274329 0.938641
vt 0.363397 0.918014
vt 0.356838 0.918014
vt 0.356838 0.924573
vt 0.363397 0.924573
vt 0.329018 0.959268
vt 0.322459 0.959268
vt 0.322459 0.965827
vt 0.329018 0.965827
vt 0.363397 0.924889
vt 0.356838 0.924889
vt 0.356838 0.931448
vt 0.363397 0.931448
vt 0.363397 0.931765
vt 0.356838 0.931765
vt 0.356838 0.938324
vt 0.363397 0.938324
vt 0.335894 0.959268
vt 0.329335 0.959268
vt 0.329335 0.965827
vt 0.335894 0.965827
vt 0.342770 0.959268
vt 0.336211 0.959268
vt 0.336211 0.965827
vt 0.342770 0.965827
vt 0.356838 0.966143
vt 0.363238 0.966143
vt 0.356838 0.972544
vt 0.349962 0.972544
vt 0.349962 0.966143
vt 0.356363 0.966143
vt 0.370272 0.925048
vt 0.370272 0.931448
vt 0.363872 0.931448
vt 0.363713 0.952392
vt 0.363713 0.958793
vt 0.370114 0.952392
vt 0.370114 0.945516
vt 0.363713 0.951917
vt 0.363713 0.945516
vt 0.349487 0.966143
vt 0.343086 0.966143
vt 0.343086 0.972544
vt 0.560868 0.334780
vt 0.554309 0.334780
vt 0.554309 0.341339
vt 0.560868 0.341339
vt 0.560868 0.341655
vt 0.554309 0.341655
vt 0.554309 0.348214
vt 0.560868 0.348214
vt 0.547116 0.355407
vt 0.540557 0.355407
vt 0.540557 0.361966
vt 0.547116 0.361966
vt 0.560868 0.348531
vt 0.554309 0.348531
vt 0.554309 0.355090
vt 0.560868 0.355090
vt 0.553992 0.355407
vt 0.547433 0.355407
vt 0.547433 0.361966
vt 0.553992 0.361966
vt 0.560868 0.355407
vt 0.554309 0.355407
vt 0.554309 0.361966
vt 0.560868 0.361966
vt 0.423354 0.362282
vt 0.416795 0.362282
vt 0.416795 0.368841
vt 0.423354 0.368841
vt 0.567743 0.217893
vt 0.561184 0.217893
vt 0.561184 0.224452
vt 0.567743 0.224452
vt 0.567743 0.224769
vt 0.561184 0.224769
vt 0.561184 0.231328
vt 0.567743 0.231328
vt 0.430230 0.362282
vt 0.423671 0.362282
vt 0.423671 0.368841
vt 0.430230 0.368841
vt 0.437106 0.362282
vt 0.430546 0.362282
vt 0.430546 0.368841
vt 0.437106 0.368841
vt 0.561184 0.236564
vt 0.561184 0.233284
vt 0.564464 0.231644
vt 0.567743 0.233284
vt 0.567743 0.236564
vt 0.564464 0.238203
vt 0.567743 0.238520
vt 0.561184 0.238520
vt 0.561184 0.245079
vt 0.567743 0.245079
vt 0.540241 0.259147
vt 0.533682 0.259147
vt 0.533682 0.272582
vt 0.540241 0.272582
vt 0.471484 0.341339
vt 0.471484 0.334780
vt 0.458049 0.334780
vt 0.458049 0.341339
vt 0.540241 0.245396
vt 0.533682 0.245396
vt 0.533682 0.258831
vt 0.540241 0.258831
vt 0.457733 0.341339
vt 0.457733 0.334780
vt 0.444298 0.334780
vt 0.444298 0.341339
vt 0.540241 0.231644
vt 0.533682 0.231644
vt 0.533682 0.245079
vt 0.540241 0.245079
vt 0.443981 0.341339
vt 0.443981 0.334780
vt 0.430546 0.334780
vt 0.430546 0.341339
vt 0.342770 0.835189
vt 0.342770 0.821754
vt 0.336211 0.821754
vt 0.336211 0.835189
vt 0.219324 0.945200
vt 0.232759 0.945200
vt 0.232759 0.938641
vt 0.219324 0.938641
vt 0.335894 0.931448
vt 0.335894 0.918014
vt 0.329335 0.918014
vt 0.329335 0.931448
vt 0.315584 0.938324
vt 0.329018 0.938324
vt 0.329018 0.931765
vt 0.315584 0.931765
vt 0.335894 0.917697
vt 0.335894 0.904262
vt 0.329335 0.904262
vt 0.329335 0.917697
vt 0.301832 0.938324
vt 0.315267 0.938324
vt 0.315267 0.931765
vt 0.301832 0.931765
vt 0.335894 0.903946
vt 0.335894 0.890511
vt 0.329335 0.890511
vt 0.329335 0.903946
vt 0.288081 0.938324
vt 0.301516 0.938324
vt 0.301516 0.931765
vt 0.288081 0.931765
vt 0.356521 0.958951
vt 0.356521 0.945516
vt 0.349962 0.945516
vt 0.349962 0.958951
vt 0.370272 0.897387
vt 0.363713 0.897387
vt 0.363713 0.903946
vt 0.370272 0.903946
vt 0.274329 0.938324
vt 0.287764 0.938324
vt 0.287764 0.931765
vt 0.274329 0.931765
vt 0.329018 0.917697
vt 0.329018 0.904262
vt 0.322459 0.904262
vt 0.322459 0.917697
vt 0.370272 0.938324
vt 0.363872 0.938324
vt 0.370272 0.931923
vt 0.363713 0.945041
vt 0.363713 0.938641
vt 0.370114 0.938641
vt 0.336211 0.972544
vt 0.336211 0.966143
vt 0.342611 0.966143
vt 0.329335 0.966143
vt 0.329335 0.972544
vt 0.335736 0.966143
vt 0.370114 0.931765
vt 0.363713 0.938166
vt 0.363713 0.931765
vt 0.370114 0.924889
vt 0.363713 0.924889
vt 0.363713 0.931290
vt 0.567743 0.300401
vt 0.561184 0.300401
vt 0.561184 0.306960
vt 0.567743 0.306960
vt 0.567743 0.307277
vt 0.561184 0.307277
vt 0.561184 0.313836
vt 0.567743 0.313836
vt 0.512738 0.362282
vt 0.506179 0.362282
vt 0.506179 0.368841
vt 0.512738 0.368841
vt 0.567743 0.314153
vt 0.561184 0.314153
vt 0.561184 0.320712
vt 0.567743 0.320712
vt 0.519614 0.362282
vt 0.513055 0.362282
vt 0.513055 0.368841
vt 0.519614 0.368841
vt 0.526489 0.362282
vt 0.519930 0.362282
vt 0.519930 0.368841
vt 0.526489 0.368841
vn -0.4987 0.0693 -0.8640
vn 0.4919 0.0439 0.8695
vn -0.4987 0.0693 0.8640
vn -0.9968 0.0799 0.0000
vn 0.4919 0.0439 -0.8695
vn 0.0000 -1.0000 0.0000
vn 0.9998 0.0202 0.0000
vn -0.0671 0.9879 0.1396
vn 0.0323 0.9928 -0.1151
vn -0.1148 0.9820 0.1497
vn 0.0101 0.9759 0.2179
vn 0.0534 0.9929 -0.1062
vn -0.4864 0.0748 -0.8705
vn -0.9974 0.0719 0.0000
vn -0.4864 0.0748 0.8705
vn 0.4938 0.0589 0.8676
vn 0.9980 0.0626 0.0000
vn 0.4938 0.0589 -0.8676
vn -0.2151 0.9476 0.2361
vn -0.3451 0.9150 -0.2092
vn 0.5230 0.8488 0.0768
vn 0.5311 0.8161 -0.2279
vn -0.2187 0.8791 -0.4234
vn -0.4161 0.8849 0.2093
vn -0.1521 0.8881 0.4338
vn 0.1214 0.9236 -0.3635
vn -0.0625 0.8354 0.5462
vn -0.3459 0.8585 0.3785
vn 0.3259 0.8831 -0.3377
vn 0.2260 0.9347 0.2745
vn -0.3241 0.9141 -0.2435
vn -0.7156 0.6480 -0.2608
vn -0.2009 0.7677 0.6085
vn 0.6057 0.5790 -0.5458
vn 0.2110 0.4783 -0.8525
vn -0.6245 0.5501 0.5545
vn -0.6827 0.6186 0.3889
vn 0.7030 0.6833 -0.1971
vn 0.0864 0.6610 0.7454
vn -0.5714 0.6370 -0.5175
vn -0.1899 0.6489 -0.7368
vn 0.6013 0.5717 0.5582
vn 0.7275 0.6753 0.1211
vn -0.1003 -0.9556 -0.2771
vn 0.2288 -0.9732 0.0206
vn -0.2594 -0.9652 -0.0321
vn 0.1163 -0.9744 -0.1922
vn 0.1563 -0.9722 0.1744
vn -0.0206 -0.9841 0.1765
vn -0.0487 0.9348 -0.3519
vn -0.2223 0.9748 -0.0184
vn 0.0318 0.9966 -0.0765
vn 0.0261 0.9920 -0.1232
vn -0.1282 0.9886 -0.0793
vn -0.0946 0.9764 0.1943
vn -0.9620 0.0005 -0.2731
vn 0.9519 0.0890 0.2932
vn 0.2324 0.0005 0.9726
vn -0.7212 -0.0428 0.6914
vn -0.2529 0.0890 -0.9634
vn 0.7154 0.1330 -0.6859
vn 0.1742 -0.8721 -0.4574
vn 0.4352 -0.8981 -0.0635
vn -0.0472 -0.9989 0.0083
vn 0.3453 -0.8456 -0.4072
vn 0.2645 -0.9587 0.1047
vn -0.0983 -0.9752 -0.1985
vn 0.6140 0.5867 -0.5279
vn 0.1172 0.0971 0.9884
vn -0.9651 0.0914 -0.2455
vn -0.2410 0.3811 -0.8926
vn 0.8605 0.4610 0.2168
vn -0.6894 -0.0661 0.7214
vn -0.3225 0.8545 -0.4072
vn 0.4195 0.8822 0.2138
vn -0.4477 0.7263 0.5216
vn 0.3435 0.9082 -0.2393
vn -0.1385 0.7148 0.6855
vn -0.5616 0.8274 -0.0082
vn -0.0807 0.9937 0.0773
vn -0.2496 0.8822 0.3994
vn -0.4931 0.8648 0.0945
vn -0.3733 0.9276 -0.0150
vn -0.0428 0.9758 0.2146
vn -0.4276 0.8456 0.3196
vn 0.7218 0.0076 -0.6920
vn -0.2421 0.0335 -0.9697
vn -0.7183 0.0981 0.6887
vn 0.2378 0.0771 0.9683
vn 0.9586 0.0335 0.2827
vn -0.9574 0.0771 -0.2783
vn 0.6959 -0.0301 -0.7175
vn -0.7068 0.0603 0.7048
vn -0.9677 -0.0301 -0.2505
vn -0.2696 -0.0741 -0.9601
vn 0.9704 0.0603 0.2339
vn 0.2688 0.1043 0.9575
vn 0.3390 -0.8654 0.3690
vn -0.1600 -0.8904 0.4261
vn 0.0076 -0.9980 -0.0633
vn 0.1984 -0.8344 0.5142
vn -0.2339 -0.9561 0.1763
vn 0.2345 -0.9721 -0.0046
vn 0.1763 0.5867 0.7903
vn -0.9270 0.0971 -0.3623
vn 0.6713 0.0914 -0.7356
vn 0.9008 0.3811 0.2080
vn -0.5967 0.4609 0.6568
vn -0.3115 -0.0661 -0.9479
vn 0.5112 0.8545 -0.0926
vn -0.3863 0.8822 0.2692
vn -0.2491 0.7263 -0.6407
vn 0.0492 0.9082 0.4157
vn -0.5394 0.7148 -0.4451
vn 0.2719 0.8274 -0.4915
vn -0.0302 0.9937 -0.1076
vn -0.2346 0.8822 -0.4083
vn 0.1490 0.8648 -0.4795
vn 0.1891 0.9276 -0.3222
vn -0.1691 0.9758 -0.1389
vn -0.0804 0.8456 -0.5278
vn 0.2702 0.0266 0.9624
vn 0.9685 0.0526 0.2432
vn -0.2685 0.1158 -0.9563
vn -0.9645 0.0954 -0.2461
vn -0.7004 0.0526 0.7118
vn 0.6955 0.0954 -0.7122
vn 0.2057 -0.0083 0.9786
vn -0.1719 0.1278 -0.9768
vn 0.7434 -0.0820 -0.6638
vn 0.9368 -0.1530 0.3146
vn -0.7104 0.2000 0.6748
vn -0.9129 0.2666 -0.3091
vn -0.4725 -0.8803 0.0427
vn -0.2535 -0.9082 -0.3330
vn -0.0045 -0.9996 0.0296
vn -0.5039 -0.8569 -0.1082
vn -0.0565 -0.9624 -0.2657
vn -0.1356 -0.9794 0.1494
vn -0.7531 0.5867 -0.2975
vn 0.8200 0.0971 -0.5640
vn 0.2323 0.0914 0.9684
vn -0.6776 0.3811 0.6290
vn -0.2089 0.4610 -0.8625
vn 0.9594 -0.0661 0.2740
vn -0.2102 0.8545 0.4751
vn -0.0061 0.8822 -0.4708
vn 0.6701 0.7263 0.1533
vn -0.3717 0.9082 -0.1925
vn 0.6711 0.7148 -0.1967
vn 0.2543 0.8274 0.5008
vn 0.1060 0.9937 0.0354
vn 0.4697 0.8822 0.0349
vn 0.3133 0.8648 0.3923
vn 0.1606 0.9276 0.3373
vn 0.2098 0.9758 -0.0621
vn 0.4820 0.8456 0.2296
vn -0.9425 0.1106 -0.3153
vn -0.7389 0.1170 0.6635
vn 0.9482 0.0458 0.3145
vn 0.7497 0.0427 -0.6604
vn -0.1926 0.0765 -0.9783
vn 0.2044 0.0831 0.9754
vn -0.0343 0.0005 -0.9994
vn 0.0121 0.0890 0.9960
vn -0.8549 0.0005 0.5188
vn -0.8789 -0.0428 -0.4750
vn 0.8398 0.0890 -0.5355
vn 0.8719 0.1330 0.4713
vn 0.4887 -0.8721 0.0259
vn 0.1936 -0.8981 0.3949
vn -0.0223 -0.9989 -0.0424
vn 0.4933 -0.8456 0.2042
vn -0.0187 -0.9587 0.2838
vn 0.1589 -0.9752 -0.1543
vn 0.6905 0.5867 0.4231
vn -0.9051 0.0971 0.4140
vn -0.0616 0.0914 -0.9939
vn 0.7760 0.3811 -0.5026
vn 0.0568 0.4609 0.8856
vn -0.8977 -0.0661 -0.4356
vn 0.2890 0.8545 -0.4316
vn -0.0752 0.8822 0.4648
vn -0.6335 0.7263 -0.2667
vn 0.3329 0.9082 0.2538
vn -0.6950 0.7148 0.0779
vn -0.1640 0.8274 -0.5372
vn -0.0983 0.9937 -0.0531
vn -0.4566 0.8822 -0.1154
vn -0.2409 0.8648 -0.4406
vn -0.0999 0.9276 -0.3600
vn -0.2174 0.9758 0.0249
vn -0.4351 0.8456 -0.3094
vn 0.8797 0.0077 0.4755
vn 0.8491 0.0335 -0.5272
vn -0.8755 0.0981 -0.4732
vn -0.8491 0.0771 0.5226
vn 0.0241 0.0335 0.9991
vn -0.0280 0.0771 -0.9966
vn -0.9905 0.0005 -0.1377
vn 0.9833 0.0890 0.1589
vn 0.3645 0.0005 0.9312
vn -0.6188 -0.0428 0.7844
vn -0.3835 0.0890 -0.9192
vn 0.6138 0.1330 -0.7782
vn 0.1094 -0.8721 -0.4770
vn 0.4222 -0.8981 -0.1230
vn -0.0456 -0.9989 0.0147
vn 0.2858 -0.8456 -0.4510
vn 0.2764 -0.9587 0.0671
vn -0.1248 -0.9752 -0.1830
vn 0.5352 0.5867 -0.6077
vn 0.2526 0.0971 0.9627
vn -0.9897 0.0914 -0.1098
vn -0.3620 0.3811 -0.8507
vn 0.8822 0.4609 0.0959
vn -0.5831 -0.0661 0.8097
vn -0.3757 0.8545 -0.3588
vn 0.4450 0.8822 0.1539
vn -0.3714 0.7263 0.5784
vn 0.3071 0.9082 -0.2844
vn -0.0425 0.7148 0.6980
vn -0.5574 0.8274 0.0694
vn -0.0692 0.9937 0.0877
vn -0.1920 0.8822 0.4300
vn -0.4753 0.8648 0.1617
vn -0.3718 0.9276 0.0367
vn -0.0128 0.9758 0.2184
vn -0.3794 0.8456 0.3756
vn 0.6193 0.0076 -0.7851
vn -0.3737 0.0332 -0.9270
vn -0.6164 0.0972 0.7814
vn 0.3692 0.0764 0.9262
vn 0.9885 0.0332 0.1476
vn -0.9867 0.0764 -0.1434
usemtl low_poly_mushrooms_texture_atlas
s off
f 11/1/1 23/2/1 14/3/1 1/4/1
f 5/5/2 17/6/2 19/7/2 7/8/2
f 7/9/3 19/10/3 21/11/3 9/12/3
f 9/13/4 21/14/4 23/15/4 11/16/4
f 1/17/5 14/18/5 15/19/5 3/20/5
f 1/21/6 3/22/6 5/23/6 7/24/6 9/25/6 11/26/6
f 3/27/7 15/28/7 17/29/7 5/30/7
f 51/31/8 10/32/8 55/33/8
f 12/34/9 2/35/9 55/36/9
f 6/37/10 52/38/10 55/39/10
f 52/40/11 8/41/11 55/42/11
f 2/43/12 25/44/12 55/45/12
f 24/46/13 13/47/13 14/48/13 23/49/13
f 22/50/14 24/51/14 23/52/14 21/53/14
f 20/54/15 22/55/15 21/56/15 19/57/15
f 18/58/16 20/59/16 19/60/16 17/61/16
f 16/62/17 18/63/17 17/64/17 15/65/17
f 13/66/18 16/67/18 15/68/18 14/69/18
f 8/70/19 51/71/19 55/72/19
f 37/73/20 31/74/20 4/75/20 54/76/20
f 28/77/21 33/78/21 50/79/21 10/80/21
f 33/81/22 27/82/22 12/83/22 50/84/22
f 26/85/23 37/86/23 54/87/23 25/88/23
f 36/89/24 30/90/24 6/91/24 53/92/24
f 29/93/25 34/94/25 51/95/25 8/96/25
f 32/97/26 26/98/26 25/99/26 2/100/26
f 35/101/27 29/102/27 8/103/27 52/104/27
f 30/105/28 35/106/28 52/107/28 6/108/28
f 27/109/29 32/110/29 2/111/29 12/112/29
f 34/113/30 28/114/30 10/115/30 51/116/30
f 31/117/31 36/118/31 53/119/31 4/120/31
f 44/121/32 39/122/32 36/123/32 31/124/32
f 40/125/33 46/126/33 29/127/33 35/128/33
f 48/129/34 43/130/34 32/131/34 27/132/34
f 43/133/35 49/134/35 26/135/35 32/136/35
f 45/137/36 40/138/36 35/139/36 30/140/36
f 39/141/37 45/142/37 30/143/37 36/144/37
f 42/145/38 48/146/38 27/147/38 33/148/38
f 46/149/39 41/150/39 34/151/39 29/152/39
f 38/153/40 44/154/40 31/155/40 37/156/40
f 49/157/41 38/158/41 37/159/41 26/160/41
f 41/161/42 47/162/42 28/163/42 34/164/42
f 47/165/43 42/166/43 33/167/43 28/168/43
f 13/169/44 24/170/44 44/171/44 38/172/44 49/173/44
f 18/174/45 16/175/45 48/176/45 42/177/45 47/178/45
f 24/179/46 22/180/46 45/181/46 39/182/46 44/183/46
f 16/184/47 13/185/47 49/186/47 43/187/47 48/188/47
f 20/189/48 18/190/48 47/191/48 41/192/48 46/193/48
f 22/194/49 20/195/49 46/196/49 40/197/49 45/198/49
f 4/199/50 53/200/50 55/201/50
f 54/202/51 4/203/51 55/204/51
f 10/205/52 50/206/52 55/207/52
f 50/208/53 12/209/53 55/210/53
f 25/211/54 54/212/54 55/213/54
f 53/214/55 6/215/55 55/216/55
f 89/217/56 67/218/56 62/219/56 87/220/56
f 90/221/57 64/222/57 65/223/57 91/224/57
f 91/225/58 65/226/58 66/227/58 92/228/58
f 92/229/59 66/230/59 67/231/59 89/232/59
f 87/233/60 62/234/60 63/235/60 88/236/60
f 56/237/6 57/238/6 58/239/6 59/240/6 60/241/6 61/242/6
f 88/243/61 63/244/61 64/245/61 90/246/61
f 63/247/62 62/248/62 68/249/62 69/250/62
f 65/251/63 64/252/63 70/253/63 71/254/63
f 67/255/64 66/256/64 72/257/64 73/258/64
f 64/259/65 63/260/65 69/261/65 70/262/65
f 66/263/66 65/264/66 71/265/66 72/266/66
f 62/267/67 67/268/67 73/269/67 68/270/67
f 70/271/68 69/272/68 75/273/68 76/274/68
f 72/275/69 71/276/69 77/277/69 78/278/69
f 68/279/70 73/280/70 79/281/70 74/282/70
f 69/283/71 68/284/71 74/285/71 75/286/71
f 71/287/72 70/288/72 76/289/72 77/290/72
f 73/291/73 72/292/73 78/293/73 79/294/73
f 75/295/74 74/296/74 80/297/74 81/298/74
f 77/299/75 76/300/75 82/301/75 83/302/75
f 79/303/76 78/304/76 84/305/76 85/306/76
f 76/307/77 75/308/77 81/309/77 82/310/77
f 78/311/78 77/312/78 83/313/78 84/314/78
f 74/315/79 79/316/79 85/317/79 80/318/79
f 82/319/80 81/320/80 86/321/80
f 84/322/81 83/323/81 86/324/81
f 80/325/82 85/326/82 86/327/82
f 81/328/83 80/329/83 86/330/83
f 83/331/84 82/332/84 86/333/84
f 85/334/85 84/335/85 86/336/85
f 57/337/86 88/338/86 90/339/86 58/340/86
f 56/341/87 87/342/87 88/343/87 57/344/87
f 60/345/88 92/346/88 89/347/88 61/348/88
f 59/349/89 91/350/89 92/351/89 60/352/89
f 58/353/90 90/354/90 91/355/90 59/356/90
f 61/357/91 89/358/91 87/359/91 56/360/91
f 126/361/92 104/362/92 99/363/92 124/364/92
f 127/365/93 101/366/93 102/367/93 128/368/93
f 128/369/94 102/370/94 103/371/94 129/372/94
f 129/373/95 103/374/95 104/375/95 126/376/95
f 124/377/96 99/378/96 100/379/96 125/380/96
f 93/381/6 94/382/6 95/383/6 96/384/6 97/385/6 98/386/6
f 125/387/97 100/388/97 101/389/97 127/390/97
f 100/391/98 99/392/98 105/393/98 106/394/98
f 102/395/99 101/396/99 107/397/99 108/398/99
f 104/399/100 103/400/100 109/401/100 110/402/100
f 101/403/101 100/404/101 106/405/101 107/406/101
f 103/407/102 102/408/102 108/409/102 109/410/102
f 99/411/103 104/412/103 110/413/103 105/414/103
f 107/415/104 106/416/104 112/417/104 113/418/104
f 109/419/105 108/420/105 114/421/105 115/422/105
f 105/423/106 110/424/106 116/425/106 111/426/106
f 106/427/107 105/428/107 111/429/107 112/430/107
f 108/431/108 107/432/108 113/433/108 114/434/108
f 110/435/109 109/436/109 115/437/109 116/438/109
f 112/439/110 111/440/110 117/441/110 118/442/110
f 114/443/111 113/444/111 119/445/111 120/446/111
f 116/447/112 115/448/112 121/449/112 122/450/112
f 113/451/113 112/452/113 118/453/113 119/454/113
f 115/455/114 114/456/114 120/457/114 121/458/114
f 111/459/115 116/460/115 122/461/115 117/462/115
f 119/463/116 118/464/116 123/465/116
f 121/466/117 120/467/117 123/468/117
f 117/469/118 122/470/118 123/471/118
f 118/472/119 117/473/119 123/474/119
f 120/475/120 119/476/120 123/477/120
f 122/478/121 121/479/121 123/480/121
f 94/481/122 125/482/122 127/483/122 95/484/122
f 93/485/123 124/486/123 125/487/123 94/488/123
f 97/489/124 129/490/124 126/491/124 98/492/124
f 96/493/125 128/494/125 129/495/125 97/496/125
f 95/497/126 127/498/126 128/499/126 96/500/126
f 98/501/127 126/502/127 124/503/127 93/504/127
f 163/505/128 141/506/128 136/507/128 161/508/128
f 164/509/129 138/510/129 139/511/129 165/512/129
f 165/513/130 139/514/130 140/515/130 166/516/130
f 166/517/131 140/518/131 141/519/131 163/520/131
f 161/521/132 136/522/132 137/523/132 162/524/132
f 130/525/6 131/526/6 132/527/6 133/528/6 134/529/6 135/530/6
f 162/531/133 137/532/133 138/533/133 164/534/133
f 137/535/134 136/536/134 142/537/134 143/538/134
f 139/539/135 138/540/135 144/541/135 145/542/135
f 141/543/136 140/544/136 146/545/136 147/546/136
f 138/547/137 137/548/137 143/549/137 144/550/137
f 140/551/138 139/552/138 145/553/138 146/554/138
f 136/555/139 141/556/139 147/557/139 142/558/139
f 144/559/140 143/560/140 149/561/140 150/562/140
f 146/563/141 145/564/141 151/565/141 152/566/141
f 142/567/142 147/568/142 153/569/142 148/570/142
f 143/571/143 142/572/143 148/573/143 149/574/143
f 145/575/144 144/576/144 150/577/144 151/578/144
f 147/579/145 146/580/145 152/581/145 153/582/145
f 149/583/146 148/584/146 154/585/146 155/586/146
f 151/587/147 150/588/147 156/589/147 157/590/147
f 153/591/148 152/592/148 158/593/148 159/594/148
f 150/595/149 149/596/149 155/597/149 156/598/149
f 152/599/150 151/600/150 157/601/150 158/602/150
f 148/603/151 153/604/151 159/605/151 154/606/151
f 156/607/152 155/608/152 160/609/152
f 158/610/153 157/611/153 160/612/153
f 154/613/154 159/614/154 160/615/154
f 155/616/155 154/617/155 160/618/155
f 157/619/156 156/620/156 160/621/156
f 159/622/157 158/623/157 160/624/157
f 131/625/158 162/626/158 164/627/158 132/628/158
f 130/629/159 161/630/159 162/631/159 131/632/159
f 134/633/160 166/634/160 163/635/160 135/636/160
f 133/637/161 165/638/161 166/639/161 134/640/161
f 132/641/162 164/642/162 165/643/162 133/644/162
f 135/645/163 163/646/163 161/647/163 130/648/163
f 200/649/164 178/650/164 173/651/164 198/652/164
f 201/653/165 175/654/165 176/655/165 202/656/165
f 202/657/166 176/658/166 177/659/166 203/660/166
f 203/661/167 177/662/167 178/663/167 200/664/167
f 198/665/168 173/666/168 174/667/168 199/668/168
f 167/669/6 168/670/6 169/671/6 170/672/6 171/673/6 172/674/6
f 199/675/169 174/676/169 175/677/169 201/678/169
f 174/679/170 173/680/170 179/681/170 180/682/170
f 176/683/171 175/684/171 181/685/171 182/686/171
f 178/687/172 177/688/172 183/689/172 184/690/172
f 175/691/173 174/692/173 180/693/173 181/694/173
f 177/695/174 176/696/174 182/697/174 183/698/174
f 173/699/175 178/700/175 184/701/175 179/702/175
f 181/703/176 180/704/176 186/705/176 187/706/176
f 183/707/177 182/708/177 188/709/177 189/710/177
f 179/711/178 184/712/178 190/713/178 185/714/178
f 180/715/179 179/716/179 185/717/179 186/718/179
f 182/719/180 181/720/180 187/721/180 188/722/180
f 184/723/181 183/724/181 189/725/181 190/726/181
f 186/727/182 185/728/182 191/729/182 192/730/182
f 188/731/183 187/732/183 193/733/183 194/734/183
f 190/735/184 189/736/184 195/737/184 196/738/184
f 187/739/185 186/740/185 192/741/185 193/742/185
f 189/743/186 188/744/186 194/745/186 195/746/186
f 185/747/187 190/748/187 196/749/187 191/750/187
f 193/751/188 192/752/188 197/753/188
f 195/754/189 194/755/189 197/756/189
f 191/757/190 196/758/190 197/759/190
f 192/760/191 191/761/191 197/762/191
f 194/763/192 193/764/192 197/765/192
f 196/766/193 195/767/193 197/768/193
f 168/769/194 199/770/194 201/771/194 169/772/194
f 167/773/195 198/774/195 199/775/195 168/776/195
f 171/777/196 203/778/196 200/779/196 172/780/196
f 170/781/197 202/782/197 203/783/197 171/784/197
f 169/785/198 201/786/198 202/787/198 170/788/198
f 172/789/199 200/790/199 198/791/199 167/792/199
f 237/793/200 215/794/200 210/795/200 235/796/200
f 238/797/201 212/798/201 213/799/201 239/800/201
f 239/801/202 213/802/202 214/803/202 240/804/202
f 240/805/203 214/806/203 215/807/203 237/808/203
f 235/809/204 210/810/204 211/811/204 236/812/204
f 204/813/6 205/814/6 206/815/6 207/816/6 208/817/6 209/818/6
f 236/819/205 211/820/205 212/821/205 238/822/205
f 211/823/206 210/824/206 216/825/206 217/826/206
f 213/827/207 212/828/207 218/829/207 219/830/207
f 215/831/208 214/832/208 220/833/208 221/834/208
f 212/835/209 211/836/209 217/837/209 218/838/209
f 214/839/210 213/840/210 219/841/210 220/842/210
f 210/843/211 215/844/211 221/845/211 216/846/211
f 218/847/212 217/848/212 223/849/212 224/850/212
f 220/851/213 219/852/213 225/853/213 226/854/213
f 216/855/214 221/856/214 227/857/214 222/858/214
f 217/859/215 216/860/215 222/861/215 223/862/215
f 219/863/216 218/864/216 224/865/216 225/866/216
f 221/867/217 220/868/217 226/869/217 227/870/217
f 223/871/218 222/872/218 228/873/218 229/874/218
f 225/875/219 224/876/219 230/877/219 231/878/219
f 227/879/220 226/880/220 232/881/220 233/882/220
f 224/883/221 223/884/221 229/885/221 230/886/221
f 226/887/222 225/888/222 231/889/222 232/890/222
f 222/891/223 227/892/223 233/893/223 228/894/223
f 230/895/224 229/896/224 234/897/224
f 232/898/225 231/899/225 234/900/225
f 228/901/226 233/902/226 234/903/226
f 229/904/227 228/905/227 234/906/227
f 231/907/228 230/908/228 234/909/228
f 233/910/229 232/911/229 234/912/229
f 205/913/230 236/914/230 238/915/230 206/916/230
f 204/917/231 235/918/231 236/919/231 205/920/231
f 208/921/232 240/922/232 237/923/232 209/924/232
f 207/925/233 239/926/233 240/927/233 208/928/233
f 206/929/234 238/930/234 239/931/234 207/932/234
f 209/933/235 237/934/235 235/935/235 204/936/235
