# Blender v2.82 (sub 7) OBJ File: 'low_poly_mushrooms.blend'
# www.blender.org
mtllib honey_mushroom.mtl
o honey_mushroom_Cylinder.037
v 0.000032 0.050018 -0.010075
v 0.000032 0.049964 0.028524
v 0.000032 0.083364 0.047871
v 0.000032 0.116820 0.028619
v 0.000032 0.116874 -0.009981
v 0.000032 0.083474 -0.029328
v 0.174593 0.331272 -0.001123
v 0.174686 0.331272 0.020144
v 0.193092 0.331272 0.030816
v 0.193006 0.331272 -0.011890
v 0.211856 0.450688 -0.000368
v 0.211843 0.450688 0.019607
v 0.194611 0.450688 0.029422
v 0.177543 0.450688 0.019484
v 0.211601 0.331272 0.020210
v 0.177424 0.450688 -0.000254
v 0.211599 0.331272 -0.001221
v 0.194518 0.450688 -0.010302
v 0.230972 0.489356 -0.011429
v 0.230945 0.489356 0.030716
v 0.194586 0.489356 0.051423
v 0.158575 0.489356 0.030456
v 0.158325 0.489356 -0.011188
v 0.194391 0.489356 -0.032388
v 0.158669 0.389940 -0.010716
v 0.158887 0.389940 0.029904
v 0.194023 0.389939 0.050328
v 0.193843 0.389939 -0.031348
v 0.229441 0.389939 0.030107
v 0.229456 0.389939 -0.010931
v 0.176640 0.414580 -0.000495
v 0.176321 0.401096 -0.000593
v 0.176752 0.414580 0.019667
v 0.176429 0.401096 0.019741
v 0.194019 0.401096 0.029965
v 0.194190 0.414580 0.029808
v 0.211756 0.401096 -0.000700
v 0.211785 0.414580 -0.000604
v 0.193929 0.401096 -0.010921
v 0.194099 0.414580 -0.010742
v 0.211776 0.414580 0.019774
v 0.211749 0.401096 0.019842
v 0.106736 0.185824 -0.004326
v 0.164826 0.257894 -0.001921
v 0.106782 0.185784 0.023080
v 0.164900 0.257880 0.020811
v 0.184113 0.254015 0.032230
v 0.123055 0.170022 0.037037
v 0.184033 0.254031 -0.013429
v 0.122996 0.170080 -0.018369
v 0.139480 0.153958 0.023341
v 0.203452 0.250124 0.020870
v 0.203440 0.250127 -0.002048
v 0.139460 0.153978 -0.004708
v 0.366566 0.490165 -0.089888
v 0.359935 0.475350 0.105730
v 0.194416 0.490165 0.207484
v 0.030492 0.475350 0.104548
v 0.022852 0.490165 -0.088750
v 0.193533 0.475350 -0.181534
v 0.366566 0.515480 -0.089888
v 0.359935 0.499708 0.105730
v 0.194416 0.515480 0.207484
v 0.030492 0.499708 0.104548
v 0.022852 0.515480 -0.088750
v 0.193533 0.499708 -0.181534
v 0.332289 0.543551 -0.070054
v 0.332185 0.543551 0.089593
v 0.194459 0.543551 0.168034
v 0.058046 0.543551 0.088609
v 0.057097 0.543551 -0.069143
v 0.193717 0.543551 -0.149449
v 0.289439 0.577652 -0.045260
v 0.289368 0.577652 0.064692
v 0.194513 0.577652 0.118717
v 0.100562 0.577652 0.064015
v 0.099909 0.577652 -0.044632
v 0.194002 0.577652 -0.099941
v 0.194632 0.600183 0.009598
v 0.000032 0.038933 0.017649
v 0.000032 0.038902 0.046337
v 0.000032 0.019969 0.060646
v 0.000032 0.001066 0.046267
v 0.000032 0.001097 0.017579
v 0.000032 0.020031 0.003270
v 0.262512 0.154747 0.024232
v 0.262577 0.154724 0.040039
v 0.275475 0.150165 0.047970
v 0.275415 0.150186 0.016230
v 0.322518 0.255372 0.024794
v 0.322509 0.255373 0.039640
v 0.309820 0.257110 0.046934
v 0.297252 0.258829 0.039548
v 0.288444 0.145580 0.040088
v 0.297164 0.258841 0.024879
v 0.288443 0.145581 0.024160
v 0.309751 0.257119 0.017411
v 0.337098 0.286094 0.018846
v 0.337081 0.286096 0.045613
v 0.314202 0.289227 0.058765
v 0.291541 0.292328 0.045448
v 0.291384 0.292350 0.018999
v 0.314079 0.289244 0.005534
v 0.277232 0.215999 0.017103
v 0.277393 0.215977 0.047292
v 0.303265 0.212436 0.062472
v 0.303133 0.212454 0.001769
v 0.329346 0.208867 0.047443
v 0.329357 0.208865 0.016943
v 0.292948 0.232332 0.024700
v 0.291354 0.222435 0.024627
v 0.293031 0.232321 0.039684
v 0.291434 0.222424 0.039739
v 0.304386 0.220651 0.047338
v 0.305872 0.230564 0.047221
v 0.317447 0.218864 0.024547
v 0.318828 0.228791 0.024618
v 0.304320 0.220660 0.016951
v 0.305805 0.230573 0.017084
v 0.318821 0.228791 0.039764
v 0.317442 0.218865 0.039814
v 0.114229 0.064717 0.021852
v 0.204475 0.101140 0.023639
v 0.114244 0.064675 0.042221
v 0.204510 0.101096 0.040534
v 0.213522 0.089653 0.049021
v 0.118760 0.048454 0.052594
v 0.213484 0.089701 0.015087
v 0.118744 0.048513 0.011415
v 0.123261 0.031982 0.042415
v 0.222592 0.078134 0.040578
v 0.222586 0.078142 0.023545
v 0.123256 0.032003 0.021568
v 0.417122 0.266164 -0.028595
v 0.423916 0.251076 0.096392
v 0.312893 0.280428 0.153129
v 0.205968 0.280902 0.095602
v 0.209019 0.294643 -0.027899
v 0.313830 0.266141 -0.095424
v 0.419220 0.281492 -0.028595
v 0.426122 0.267190 0.096392
v 0.314991 0.295755 0.153129
v 0.208173 0.297016 0.095602
v 0.211116 0.309970 -0.027899
v 0.316035 0.282255 -0.095424
v 0.405520 0.311473 -0.018389
v 0.405455 0.311482 0.083008
v 0.318788 0.323342 0.132828
v 0.232949 0.335089 0.082383
v 0.232352 0.335170 -0.017810
v 0.318322 0.323406 -0.068815
v 0.381493 0.336621 -0.002642
v 0.381448 0.336627 0.067193
v 0.321759 0.344795 0.101505
v 0.262639 0.352886 0.066762
v 0.262228 0.352942 -0.002243
v 0.321438 0.344839 -0.037371
v 0.323774 0.358963 0.032201
v 0.169685 0.323495 -0.166399
v 0.169674 0.325508 -0.150212
v 0.155662 0.327782 -0.142419
v 0.141784 0.328055 -0.150630
v 0.141687 0.326075 -0.166626
v 0.155587 0.323788 -0.174610
v 0.184209 0.356851 -0.177131
v 0.184190 0.360480 -0.147945
v 0.158926 0.364581 -0.133893
v 0.133903 0.365071 -0.148699
v 0.133729 0.361502 -0.177540
v 0.158790 0.357379 -0.191935
v 0.273008 0.332535 -0.226633
v 0.279961 0.361222 -0.091817
v 0.157914 0.367722 -0.029807
v 0.039291 0.383193 -0.095422
v 0.043210 0.353710 -0.228495
v 0.158398 0.346377 -0.302345
v 0.274573 0.349331 -0.228721
v 0.281606 0.378881 -0.094012
v 0.159478 0.384518 -0.031895
v 0.040936 0.400851 -0.097617
v 0.044775 0.370506 -0.230583
v 0.160043 0.364035 -0.304540
v 0.258093 0.382717 -0.221571
v 0.258021 0.396466 -0.111016
v 0.162319 0.411998 -0.057787
v 0.067530 0.413856 -0.113870
v 0.066871 0.400338 -0.223120
v 0.161804 0.384716 -0.277650
v 0.230508 0.411097 -0.207664
v 0.230459 0.420567 -0.131522
v 0.164547 0.431263 -0.094861
v 0.099263 0.432543 -0.133487
v 0.098809 0.423233 -0.208731
v 0.164192 0.412474 -0.246286
v 0.166077 0.437399 -0.172356
v 0.145271 0.243466 -0.160443
v 0.145261 0.245374 -0.144244
v 0.131576 0.249563 -0.136667
v 0.118021 0.251837 -0.145105
v 0.117927 0.249977 -0.161115
v 0.131502 0.245791 -0.168885
v 0.100767 0.156443 -0.143708
v 0.100759 0.160288 -0.127856
v 0.089928 0.170905 -0.122180
v 0.079201 0.177644 -0.132161
v 0.079126 0.173912 -0.147841
v 0.089870 0.163320 -0.153719
v -0.000669 0.075850 -0.112993
v -0.000669 0.082204 -0.086810
v -0.000669 0.104448 -0.078575
v -0.000669 0.120241 -0.096190
v -0.000669 0.114108 -0.122097
v -0.000669 0.091944 -0.130676
v 0.167055 0.359107 0.146853
v 0.167046 0.352910 0.158563
v 0.155665 0.350795 0.164808
v 0.144393 0.354799 0.159470
v 0.144315 0.360929 0.147903
v 0.155604 0.363124 0.141524
v 0.176429 0.381223 0.157386
v 0.176417 0.372107 0.174613
v 0.159674 0.368996 0.183801
v 0.143091 0.374886 0.175948
v 0.142976 0.383904 0.158931
v 0.159584 0.387133 0.149548
v 0.235277 0.386824 0.121268
v 0.239885 0.351189 0.205375
v 0.159003 0.331162 0.241516
v 0.080391 0.364489 0.211763
v 0.082988 0.399029 0.128301
v 0.159324 0.423101 0.085413
v 0.236314 0.396737 0.126515
v 0.240975 0.361611 0.210890
v 0.160040 0.341076 0.246763
v 0.081481 0.374911 0.217279
v 0.084025 0.408943 0.133548
v 0.160414 0.433524 0.090929
v 0.225392 0.412151 0.143080
v 0.225344 0.377620 0.208337
v 0.161922 0.365834 0.243142
v 0.099105 0.388147 0.213393
v 0.098668 0.422308 0.148932
v 0.161581 0.434539 0.113387
v 0.207112 0.422279 0.161413
v 0.207079 0.398497 0.206357
v 0.163399 0.390379 0.230328
v 0.120135 0.405747 0.209839
v 0.119834 0.429274 0.165443
v 0.163164 0.437698 0.140963
v 0.164413 0.423149 0.190577
v 0.145271 0.254636 0.106968
v 0.145261 0.251228 0.122919
v 0.131576 0.252756 0.131441
v 0.118021 0.257625 0.124184
v 0.117927 0.261017 0.108427
v 0.131502 0.259555 0.099724
v 0.100767 0.162643 0.090007
v 0.100759 0.162709 0.106319
v 0.089928 0.171722 0.114300
v 0.079201 0.180591 0.106153
v 0.079126 0.180594 0.090035
v 0.089870 0.171652 0.081863
v -0.000669 0.075850 0.082725
v -0.000669 0.082204 0.108908
v -0.000669 0.104448 0.117143
v -0.000669 0.120241 0.099528
v -0.000669 0.114108 0.073621
v -0.000669 0.091944 0.065043
v 0.247965 0.238890 0.172684
v 0.246175 0.232958 0.184394
v 0.234667 0.234205 0.190639
v 0.225022 0.241281 0.185301
v 0.226710 0.247174 0.173734
v 0.238153 0.246030 0.167355
v 0.266717 0.256697 0.179235
v 0.263712 0.244472 0.197571
v 0.244392 0.245305 0.208230
v 0.228200 0.258165 0.200744
v 0.231034 0.270296 0.182638
v 0.250245 0.269662 0.171777
v 0.308030 0.251095 0.152229
v 0.303307 0.214506 0.216424
v 0.235934 0.214307 0.245867
v 0.182740 0.260995 0.227195
v 0.192794 0.295014 0.163218
v 0.257585 0.300027 0.128851
v 0.311141 0.257982 0.157331
v 0.306579 0.221747 0.221787
v 0.239046 0.221195 0.250969
v 0.186012 0.268236 0.232559
v 0.195906 0.301901 0.168320
v 0.260856 0.307268 0.134215
v 0.306261 0.270780 0.172368
v 0.298186 0.237930 0.221642
v 0.246268 0.240168 0.250287
v 0.202757 0.274726 0.230168
v 0.210371 0.307326 0.181513
v 0.261997 0.305620 0.152328
v 0.294445 0.281039 0.188543
v 0.288884 0.258414 0.222479
v 0.253127 0.259955 0.242207
v 0.223160 0.283757 0.228351
v 0.228403 0.306209 0.194841
v 0.263959 0.305034 0.174741
v 0.261541 0.288773 0.213246
v 0.188230 0.169010 0.128804
v 0.187227 0.162876 0.141117
v 0.176812 0.166017 0.149434
v 0.167476 0.175170 0.145555
v 0.168391 0.181279 0.133405
v 0.178738 0.178258 0.124963
v 0.112771 0.100280 0.109848
v 0.112776 0.100346 0.126159
v 0.103855 0.111253 0.134141
v 0.095007 0.121998 0.125993
v 0.094935 0.122015 0.109875
v 0.103784 0.111195 0.101703
v -0.000669 0.025868 0.097632
v -0.000669 0.032222 0.123815
v -0.000669 0.054467 0.132050
v -0.000669 0.070259 0.114435
v -0.000669 0.064126 0.088528
v -0.000669 0.041962 0.079949
v 0.162992 0.259608 -0.169751
v 0.163183 0.263382 -0.138343
v 0.136799 0.271547 -0.123497
v 0.110459 0.275925 -0.139705
v 0.110068 0.272245 -0.170745
v 0.136237 0.264085 -0.185962
v 0.139007 0.278777 -0.138441
v 0.143365 0.293116 -0.139482
v 0.157143 0.289671 -0.147149
v 0.152830 0.275324 -0.146094
v 0.125217 0.278377 -0.162806
v 0.129633 0.292703 -0.163830
v 0.129724 0.294611 -0.147826
v 0.125314 0.280282 -0.146801
v 0.152838 0.273376 -0.162289
v 0.157157 0.287722 -0.163343
v 0.143299 0.289258 -0.171689
v 0.138929 0.274920 -0.170650
v 0.221351 0.190891 0.136781
v 0.217599 0.179512 0.159966
v 0.196908 0.185731 0.174079
v 0.180092 0.203103 0.165245
v 0.183655 0.214440 0.142353
v 0.204241 0.208444 0.127988
v 0.201763 0.195425 0.167204
v 0.209716 0.204798 0.172869
v 0.220634 0.202593 0.165643
v 0.212768 0.193241 0.159868
v 0.193468 0.209614 0.150747
v 0.201633 0.218840 0.156393
v 0.200300 0.212880 0.168226
v 0.192198 0.203571 0.162630
v 0.214134 0.199314 0.147832
v 0.222061 0.208586 0.153655
v 0.212483 0.216750 0.149040
v 0.204408 0.207539 0.143279
v 0.165592 0.286833 0.111017
v 0.164726 0.276737 0.140249
v 0.138216 0.278174 0.155815
v 0.112799 0.289544 0.142446
v 0.113477 0.299565 0.113564
v 0.139781 0.298292 0.097685
v 0.142182 0.295921 0.146132
v 0.145059 0.307630 0.150117
v 0.157411 0.307936 0.142797
v 0.154897 0.296202 0.138684
v 0.129603 0.305227 0.125895
v 0.132638 0.316719 0.130435
v 0.132779 0.312003 0.143930
v 0.129636 0.300421 0.139724
v 0.154950 0.301052 0.124688
v 0.157377 0.312691 0.129132
v 0.144894 0.317101 0.122949
v 0.142212 0.305579 0.118299
v 0.296349 0.501106 0.068752
v 0.194500 0.508618 0.130554
v 0.093630 0.501106 0.068025
v 0.089633 0.508618 -0.050516
v 0.193956 0.501106 -0.108013
v 0.299725 0.508618 -0.051212
v 0.380499 0.276150 0.071003
v 0.313548 0.292392 0.105947
v 0.248754 0.294179 0.070525
v 0.250201 0.301060 -0.004450
v 0.313954 0.285257 -0.044945
v 0.377110 0.283693 -0.004875
v 0.286185 0.235579 0.213594
v 0.242838 0.235895 0.233645
v 0.208146 0.265669 0.220566
v 0.214589 0.288744 0.179525
v 0.256590 0.290934 0.156911
v 0.290049 0.259985 0.172329
v 0.208151 0.368735 0.195068
v 0.159338 0.357166 0.217733
v 0.111741 0.376775 0.198930
v 0.112982 0.398554 0.148690
v 0.159454 0.412204 0.122554
v 0.205853 0.391111 0.144401
v 0.232076 0.373477 -0.119881
v 0.158420 0.378776 -0.081850
v 0.086597 0.386757 -0.122060
v 0.088470 0.370231 -0.203017
v 0.158594 0.364503 -0.247140
v 0.228609 0.357318 -0.201882
vt 0.953091 0.558324
vt 0.957240 0.560399
vt 0.957240 0.564548
vt 0.953091 0.566622
vt 0.948942 0.564548
vt 0.948942 0.560399
vt 0.836922 0.566622
vt 0.853836 0.566622
vt 0.853836 0.562633
vt 0.836922 0.562633
vt 0.965857 0.437367
vt 0.965857 0.420452
vt 0.961868 0.420452
vt 0.961868 0.437367
vt 0.819688 0.566622
vt 0.836602 0.566622
vt 0.836602 0.562633
vt 0.819688 0.562633
vt 0.978783 0.540771
vt 0.978783 0.532473
vt 0.974793 0.532473
vt 0.974793 0.540771
vt 0.931708 0.579548
vt 0.940006 0.579548
vt 0.940006 0.575558
vt 0.931708 0.575558
vt 0.957240 0.437367
vt 0.957240 0.420452
vt 0.953251 0.420452
vt 0.953251 0.437367
vt 0.965857 0.562633
vt 0.961868 0.562633
vt 0.961868 0.566622
vt 0.965857 0.566622
vt 0.961549 0.562633
vt 0.957559 0.562633
vt 0.957559 0.566622
vt 0.961549 0.566622
vt 0.923091 0.579548
vt 0.931389 0.579548
vt 0.931389 0.575558
vt 0.923091 0.575558
vt 0.978783 0.532154
vt 0.978783 0.523856
vt 0.974793 0.523856
vt 0.974793 0.532154
vt 0.565191 0.558324
vt 0.561202 0.558324
vt 0.561202 0.562314
vt 0.565191 0.562314
vt 0.854155 0.532154
vt 0.871070 0.532154
vt 0.871070 0.528165
vt 0.854155 0.528165
vt 0.978783 0.523537
vt 0.978783 0.515239
vt 0.974793 0.515239
vt 0.974793 0.523537
vt 0.871390 0.532154
vt 0.888304 0.532154
vt 0.888304 0.528165
vt 0.871390 0.528165
vt 0.931389 0.437367
vt 0.931389 0.420452
vt 0.927400 0.420452
vt 0.927400 0.437367
vt 0.819688 0.540771
vt 0.836602 0.540771
vt 0.836602 0.536782
vt 0.819688 0.536782
vt 0.978783 0.514920
vt 0.978783 0.506622
vt 0.974793 0.506622
vt 0.974793 0.514920
vt 0.922772 0.579548
vt 0.922772 0.575558
vt 0.914474 0.575558
vt 0.914474 0.579548
vt 0.978783 0.498005
vt 0.974793 0.498005
vt 0.974793 0.506303
vt 0.978783 0.506303
vt 0.914155 0.579548
vt 0.914155 0.575558
vt 0.905857 0.575558
vt 0.905857 0.579548
vt 0.978783 0.489388
vt 0.974793 0.489388
vt 0.974793 0.497686
vt 0.978783 0.497686
vt 0.905538 0.579548
vt 0.905538 0.575558
vt 0.897240 0.575558
vt 0.897240 0.579548
vt 0.978783 0.480771
vt 0.974793 0.480771
vt 0.974793 0.489069
vt 0.978783 0.489069
vt 0.961549 0.558324
vt 0.957559 0.558324
vt 0.957559 0.562314
vt 0.961549 0.562314
vt 0.888623 0.579548
vt 0.896921 0.579548
vt 0.896921 0.575558
vt 0.888623 0.575558
vt 0.948623 0.562633
vt 0.944634 0.562633
vt 0.944634 0.566622
vt 0.948623 0.566622
vt 0.944315 0.562633
vt 0.940325 0.562633
vt 0.940325 0.566622
vt 0.944315 0.566622
vt 0.978783 0.480452
vt 0.978783 0.472154
vt 0.974793 0.472154
vt 0.974793 0.480452
vt 0.948623 0.558324
vt 0.944634 0.558324
vt 0.944634 0.562314
vt 0.948623 0.562314
vt 0.944315 0.558324
vt 0.940325 0.558324
vt 0.940325 0.562314
vt 0.944315 0.562314
vt 0.957240 0.545399
vt 0.953251 0.545399
vt 0.953251 0.549388
vt 0.957240 0.549388
vt 0.952932 0.545399
vt 0.948942 0.545399
vt 0.948942 0.549388
vt 0.952932 0.549388
vt 0.957240 0.541090
vt 0.953251 0.541090
vt 0.953251 0.545080
vt 0.957240 0.545080
vt 0.952932 0.541090
vt 0.948942 0.541090
vt 0.948942 0.545080
vt 0.952932 0.545080
vt 0.957240 0.502314
vt 0.953251 0.502314
vt 0.953251 0.506303
vt 0.957240 0.506303
vt 0.880006 0.579548
vt 0.888304 0.579548
vt 0.888304 0.575558
vt 0.880006 0.575558
vt 0.552266 0.502314
vt 0.548276 0.502314
vt 0.548276 0.506303
vt 0.552266 0.506303
vt 0.556574 0.498005
vt 0.552585 0.498005
vt 0.552585 0.501995
vt 0.556574 0.501995
vt 0.552266 0.498005
vt 0.548276 0.498005
vt 0.548276 0.501995
vt 0.552266 0.501995
vt 0.539340 0.510931
vt 0.535351 0.510931
vt 0.535351 0.514920
vt 0.539340 0.514920
vt 0.535032 0.510931
vt 0.531042 0.510931
vt 0.531042 0.514920
vt 0.535032 0.514920
vt 0.935698 0.437686
vt 0.931708 0.437686
vt 0.931708 0.454601
vt 0.935698 0.454601
vt 0.888304 0.536463
vt 0.888304 0.532473
vt 0.871390 0.532473
vt 0.871390 0.536463
vt 0.935698 0.420452
vt 0.931708 0.420452
vt 0.931708 0.437367
vt 0.935698 0.437367
vt 0.871070 0.536463
vt 0.871070 0.532473
vt 0.854155 0.532473
vt 0.854155 0.536463
vt 0.931389 0.506622
vt 0.927400 0.506622
vt 0.927400 0.523537
vt 0.931389 0.523537
vt 0.853836 0.536463
vt 0.853836 0.532473
vt 0.836922 0.532473
vt 0.836922 0.536463
vt 0.931389 0.454601
vt 0.931389 0.437686
vt 0.927400 0.437686
vt 0.927400 0.454601
vt 0.888304 0.437686
vt 0.871390 0.437686
vt 0.871390 0.454601
vt 0.888304 0.454601
vt 0.836922 0.506303
vt 0.853836 0.506303
vt 0.853836 0.498005
vt 0.836922 0.498005
vt 0.853836 0.472154
vt 0.836922 0.472154
vt 0.836922 0.489069
vt 0.853836 0.489069
vt 0.888304 0.420452
vt 0.871390 0.420452
vt 0.871390 0.437367
vt 0.888304 0.437367
vt 0.905538 0.506303
vt 0.905538 0.489388
vt 0.897240 0.489388
vt 0.897240 0.506303
vt 0.836602 0.472154
vt 0.819688 0.472154
vt 0.819688 0.489069
vt 0.836602 0.489069
vt 0.419021 0.532154
vt 0.435936 0.532154
vt 0.435936 0.528165
vt 0.419021 0.528165
vt 0.526415 0.471835
vt 0.526415 0.454920
vt 0.522425 0.454920
vt 0.522425 0.471835
vt 0.470723 0.519229
vt 0.487638 0.519229
vt 0.487638 0.515239
vt 0.470723 0.515239
vt 0.517798 0.489069
vt 0.517798 0.472154
vt 0.513808 0.472154
vt 0.513808 0.489069
vt 0.453489 0.519229
vt 0.470404 0.519229
vt 0.470404 0.515239
vt 0.453489 0.515239
vt 0.517798 0.471835
vt 0.517798 0.454920
vt 0.513808 0.454920
vt 0.513808 0.471835
vt 0.470723 0.514920
vt 0.487638 0.514920
vt 0.487638 0.506622
vt 0.470723 0.506622
vt 0.513489 0.489069
vt 0.513489 0.472154
vt 0.505191 0.472154
vt 0.505191 0.489069
vt 0.487957 0.514920
vt 0.504872 0.514920
vt 0.504872 0.506622
vt 0.487957 0.506622
vt 0.513489 0.506303
vt 0.513489 0.489388
vt 0.505191 0.489388
vt 0.505191 0.506303
vt 0.419021 0.523537
vt 0.435936 0.523537
vt 0.435936 0.515239
vt 0.419021 0.515239
vt 0.522106 0.437367
vt 0.522106 0.420452
vt 0.513808 0.420452
vt 0.513808 0.437367
vt 0.436255 0.523537
vt 0.453170 0.523537
vt 0.453170 0.515239
vt 0.436255 0.515239
vt 0.522106 0.454601
vt 0.522106 0.437686
vt 0.513808 0.437686
vt 0.513808 0.454601
vt 0.453489 0.514920
vt 0.470404 0.514920
vt 0.470404 0.506622
vt 0.453489 0.506622
vt 0.513489 0.471835
vt 0.513489 0.454920
vt 0.505191 0.454920
vt 0.505191 0.471835
vt 0.436255 0.514920
vt 0.453170 0.514920
vt 0.453170 0.506622
vt 0.436255 0.506622
vt 0.513489 0.454601
vt 0.513489 0.437686
vt 0.505191 0.437686
vt 0.505191 0.454601
vt 0.453649 0.454601
vt 0.470404 0.454601
vt 0.470404 0.437846
vt 0.453170 0.471835
vt 0.436415 0.471835
vt 0.453170 0.455080
vt 0.453011 0.454920
vt 0.436255 0.454920
vt 0.436255 0.471676
vt 0.453489 0.437686
vt 0.470245 0.437686
vt 0.453489 0.454442
vt 0.453649 0.437367
vt 0.470404 0.437367
vt 0.470404 0.420612
vt 0.453489 0.420452
vt 0.470245 0.420452
vt 0.453489 0.437208
vt 0.871390 0.578551
vt 0.871390 0.576557
vt 0.875538 0.575558
vt 0.879687 0.576555
vt 0.879687 0.578549
vt 0.875538 0.579548
vt 0.918464 0.506303
vt 0.918464 0.489388
vt 0.914474 0.489388
vt 0.914474 0.506303
vt 0.888623 0.519229
vt 0.905538 0.519229
vt 0.905538 0.515239
vt 0.888623 0.515239
vt 0.922772 0.471835
vt 0.922772 0.454920
vt 0.918783 0.454920
vt 0.918783 0.471835
vt 0.854155 0.523537
vt 0.871070 0.523537
vt 0.871070 0.519548
vt 0.854155 0.519548
vt 0.922772 0.489069
vt 0.922772 0.472154
vt 0.918783 0.472154
vt 0.918783 0.489069
vt 0.871390 0.523537
vt 0.888304 0.523537
vt 0.888304 0.519548
vt 0.871390 0.519548
vt 0.940006 0.506622
vt 0.936017 0.506622
vt 0.936017 0.510612
vt 0.940006 0.510612
vt 0.935698 0.506622
vt 0.931708 0.506622
vt 0.931708 0.510612
vt 0.935698 0.510612
vt 0.978783 0.471835
vt 0.978783 0.463537
vt 0.974793 0.463537
vt 0.974793 0.471835
vt 0.862772 0.579548
vt 0.871070 0.579548
vt 0.871070 0.575558
vt 0.862772 0.575558
vt 0.530723 0.528165
vt 0.526734 0.528165
vt 0.526734 0.532154
vt 0.530723 0.532154
vt 0.922772 0.506303
vt 0.922772 0.489388
vt 0.918783 0.489388
vt 0.918783 0.506303
vt 0.888623 0.523537
vt 0.905538 0.523537
vt 0.905538 0.519548
vt 0.888623 0.519548
vt 0.927081 0.437367
vt 0.927081 0.420452
vt 0.923091 0.420452
vt 0.923091 0.437367
vt 0.819688 0.527846
vt 0.836602 0.527846
vt 0.836602 0.523856
vt 0.819688 0.523856
vt 0.927081 0.454601
vt 0.927081 0.437686
vt 0.923091 0.437686
vt 0.923091 0.454601
vt 0.854155 0.579548
vt 0.862453 0.579548
vt 0.862453 0.575558
vt 0.854155 0.575558
vt 0.927081 0.528165
vt 0.923091 0.528165
vt 0.923091 0.532154
vt 0.927081 0.532154
vt 0.931389 0.523856
vt 0.927400 0.523856
vt 0.927400 0.527846
vt 0.931389 0.527846
vt 0.927081 0.523856
vt 0.923091 0.523856
vt 0.923091 0.527846
vt 0.927081 0.527846
vt 0.948623 0.467846
vt 0.944634 0.467846
vt 0.944634 0.471835
vt 0.948623 0.471835
vt 0.944315 0.467846
vt 0.940325 0.467846
vt 0.940325 0.471835
vt 0.944315 0.471835
vt 0.948623 0.463537
vt 0.944634 0.463537
vt 0.944634 0.467527
vt 0.948623 0.467527
vt 0.944315 0.463537
vt 0.940325 0.463537
vt 0.940325 0.467527
vt 0.944315 0.467527
vt 0.944315 0.489069
vt 0.944315 0.472154
vt 0.940325 0.472154
vt 0.940325 0.489069
vt 0.862453 0.545399
vt 0.858464 0.545399
vt 0.858464 0.549388
vt 0.862453 0.549388
vt 0.858145 0.545399
vt 0.854155 0.545399
vt 0.854155 0.549388
vt 0.858145 0.549388
vt 0.845538 0.579548
vt 0.853836 0.579548
vt 0.853836 0.575558
vt 0.845538 0.575558
vt 0.862453 0.541090
vt 0.858464 0.541090
vt 0.858464 0.545080
vt 0.862453 0.545080
vt 0.858145 0.541090
vt 0.854155 0.541090
vt 0.854155 0.545080
vt 0.858145 0.545080
vt 0.853836 0.545399
vt 0.849847 0.545399
vt 0.849847 0.549388
vt 0.853836 0.549388
vt 0.849528 0.545399
vt 0.845538 0.545399
vt 0.845538 0.549388
vt 0.849528 0.549388
vt 0.853836 0.541090
vt 0.849847 0.541090
vt 0.849847 0.545080
vt 0.853836 0.545080
vt 0.849528 0.541090
vt 0.845538 0.541090
vt 0.845538 0.545080
vt 0.849528 0.545080
vt 0.845219 0.545399
vt 0.841230 0.545399
vt 0.841230 0.549388
vt 0.845219 0.549388
vt 0.978783 0.463218
vt 0.978783 0.454920
vt 0.974793 0.454920
vt 0.974793 0.463218
vt 0.440245 0.545399
vt 0.436255 0.545399
vt 0.436255 0.549388
vt 0.440245 0.549388
vt 0.444553 0.541090
vt 0.440564 0.541090
vt 0.440564 0.545080
vt 0.444553 0.545080
vt 0.440245 0.541090
vt 0.436255 0.541090
vt 0.436255 0.545080
vt 0.440245 0.545080
vt 0.543649 0.502314
vt 0.539659 0.502314
vt 0.539659 0.506303
vt 0.543649 0.506303
vt 0.539340 0.502314
vt 0.535351 0.502314
vt 0.535351 0.506303
vt 0.539340 0.506303
vt 0.871070 0.527846
vt 0.871070 0.523856
vt 0.854155 0.523856
vt 0.854155 0.527846
vt 0.927081 0.472154
vt 0.923091 0.472154
vt 0.923091 0.489069
vt 0.927081 0.489069
vt 0.888304 0.527846
vt 0.888304 0.523856
vt 0.871390 0.523856
vt 0.871390 0.527846
vt 0.927081 0.489388
vt 0.923091 0.489388
vt 0.923091 0.506303
vt 0.927081 0.506303
vt 0.905538 0.527846
vt 0.905538 0.523856
vt 0.888623 0.523856
vt 0.888623 0.527846
vt 0.927081 0.506622
vt 0.923091 0.506622
vt 0.923091 0.523537
vt 0.927081 0.523537
vt 0.905857 0.527846
vt 0.922772 0.527846
vt 0.922772 0.523856
vt 0.905857 0.523856
vt 0.914155 0.437367
vt 0.914155 0.420452
vt 0.905857 0.420452
vt 0.905857 0.437367
vt 0.871390 0.506303
vt 0.888304 0.506303
vt 0.888304 0.498005
vt 0.871390 0.498005
vt 0.896921 0.506303
vt 0.896921 0.489388
vt 0.888623 0.489388
vt 0.888623 0.506303
vt 0.854155 0.506303
vt 0.871070 0.506303
vt 0.871070 0.498005
vt 0.854155 0.498005
vt 0.905538 0.489069
vt 0.905538 0.472154
vt 0.897240 0.472154
vt 0.897240 0.489069
vt 0.819688 0.506303
vt 0.836602 0.506303
vt 0.836602 0.498005
vt 0.819688 0.498005
vt 0.530723 0.471835
vt 0.530723 0.454920
vt 0.526734 0.454920
vt 0.526734 0.471835
vt 0.487957 0.532154
vt 0.504872 0.532154
vt 0.504872 0.528165
vt 0.487957 0.528165
vt 0.530723 0.489069
vt 0.530723 0.472154
vt 0.526734 0.472154
vt 0.526734 0.489069
vt 0.505191 0.532154
vt 0.522106 0.532154
vt 0.522106 0.528165
vt 0.505191 0.528165
vt 0.530723 0.506303
vt 0.530723 0.489388
vt 0.526734 0.489388
vt 0.526734 0.506303
vt 0.419021 0.536463
vt 0.435936 0.536463
vt 0.435936 0.532473
vt 0.419021 0.532473
vt 0.504872 0.471835
vt 0.504872 0.454920
vt 0.496574 0.454920
vt 0.496574 0.471835
vt 0.470723 0.497686
vt 0.487638 0.497686
vt 0.487638 0.489388
vt 0.470723 0.489388
vt 0.504872 0.454601
vt 0.504872 0.437686
vt 0.496574 0.437686
vt 0.496574 0.454601
vt 0.453489 0.497686
vt 0.470404 0.497686
vt 0.470404 0.489388
vt 0.453489 0.489388
vt 0.504872 0.437367
vt 0.504872 0.420452
vt 0.496574 0.420452
vt 0.496574 0.437367
vt 0.436255 0.497686
vt 0.453170 0.497686
vt 0.453170 0.489388
vt 0.436255 0.489388
vt 0.535032 0.471835
vt 0.535032 0.454920
vt 0.531042 0.454920
vt 0.531042 0.471835
vt 0.487957 0.536463
vt 0.504872 0.536463
vt 0.504872 0.532473
vt 0.487957 0.532473
vt 0.535032 0.489069
vt 0.535032 0.472154
vt 0.531042 0.472154
vt 0.531042 0.489069
vt 0.505191 0.536463
vt 0.522106 0.536463
vt 0.522106 0.532473
vt 0.505191 0.532473
vt 0.535032 0.506303
vt 0.535032 0.489388
vt 0.531042 0.489388
vt 0.531042 0.506303
vt 0.453489 0.566622
vt 0.470404 0.566622
vt 0.470404 0.562633
vt 0.453489 0.562633
vt 0.548436 0.558005
vt 0.556574 0.558005
vt 0.556574 0.549867
vt 0.547957 0.558005
vt 0.539819 0.558005
vt 0.547957 0.549867
vt 0.547798 0.549707
vt 0.539659 0.549707
vt 0.539659 0.557846
vt 0.548276 0.549707
vt 0.556415 0.549707
vt 0.548276 0.557846
vt 0.419181 0.562314
vt 0.427319 0.562314
vt 0.427319 0.554175
vt 0.419021 0.554016
vt 0.427160 0.554016
vt 0.419021 0.562154
vt 0.944315 0.498005
vt 0.940325 0.498005
vt 0.940325 0.501995
vt 0.944315 0.501995
vt 0.940006 0.498005
vt 0.936017 0.498005
vt 0.936017 0.501995
vt 0.940006 0.501995
vt 0.944315 0.424761
vt 0.940325 0.424761
vt 0.940325 0.428750
vt 0.944315 0.428750
vt 0.940006 0.424761
vt 0.936017 0.424761
vt 0.936017 0.428750
vt 0.940006 0.428750
vt 0.944315 0.420452
vt 0.940325 0.420452
vt 0.940325 0.424442
vt 0.944315 0.424442
vt 0.940006 0.420452
vt 0.936017 0.420452
vt 0.936017 0.424442
vt 0.940006 0.424442
vt 0.896921 0.489069
vt 0.896921 0.472154
vt 0.888623 0.472154
vt 0.888623 0.489069
vt 0.819688 0.497686
vt 0.836602 0.497686
vt 0.836602 0.489388
vt 0.819688 0.489388
vt 0.896921 0.471835
vt 0.896921 0.454920
vt 0.888623 0.454920
vt 0.888623 0.471835
vt 0.871390 0.489069
vt 0.888304 0.489069
vt 0.888304 0.480771
vt 0.871390 0.480771
vt 0.896921 0.454601
vt 0.896921 0.437686
vt 0.888623 0.437686
vt 0.888623 0.454601
vt 0.854155 0.480452
vt 0.871070 0.480452
vt 0.871070 0.472154
vt 0.854155 0.472154
vt 0.539340 0.445984
vt 0.539340 0.429069
vt 0.535351 0.429069
vt 0.535351 0.445984
vt 0.436255 0.540771
vt 0.453170 0.540771
vt 0.453170 0.536782
vt 0.436255 0.536782
vt 0.539340 0.463218
vt 0.539340 0.446303
vt 0.535351 0.446303
vt 0.535351 0.463218
vt 0.453489 0.540771
vt 0.470404 0.540771
vt 0.470404 0.536782
vt 0.453489 0.536782
vt 0.539340 0.480452
vt 0.539340 0.463537
vt 0.535351 0.463537
vt 0.535351 0.480452
vt 0.470723 0.540771
vt 0.487638 0.540771
vt 0.487638 0.536782
vt 0.470723 0.536782
vt 0.539340 0.497686
vt 0.539340 0.480771
vt 0.535351 0.480771
vt 0.535351 0.497686
vt 0.487957 0.540771
vt 0.504872 0.540771
vt 0.504872 0.536782
vt 0.487957 0.536782
vt 0.543649 0.445984
vt 0.543649 0.429069
vt 0.539659 0.429069
vt 0.539659 0.445984
vt 0.505191 0.540771
vt 0.522106 0.540771
vt 0.522106 0.536782
vt 0.505191 0.536782
vt 0.543649 0.463218
vt 0.543649 0.446303
vt 0.539659 0.446303
vt 0.539659 0.463218
vt 0.419021 0.545080
vt 0.435936 0.545080
vt 0.435936 0.541090
vt 0.419021 0.541090
vt 0.496255 0.437367
vt 0.496255 0.420452
vt 0.487957 0.420452
vt 0.487957 0.437367
vt 0.470723 0.480452
vt 0.487638 0.480452
vt 0.487638 0.472154
vt 0.470723 0.472154
vt 0.487638 0.471835
vt 0.487638 0.454920
vt 0.479340 0.454920
vt 0.479340 0.471835
vt 0.453489 0.489069
vt 0.470404 0.489069
vt 0.470404 0.480771
vt 0.453489 0.480771
vt 0.479021 0.471835
vt 0.479021 0.454920
vt 0.470723 0.454920
vt 0.470723 0.471835
vt 0.419021 0.514920
vt 0.435936 0.514920
vt 0.435936 0.506622
vt 0.419021 0.506622
vt 0.436415 0.562314
vt 0.444553 0.562314
vt 0.444553 0.554175
vt 0.435936 0.562314
vt 0.427798 0.562314
vt 0.435936 0.554175
vt 0.435777 0.554016
vt 0.427638 0.554016
vt 0.427638 0.562154
vt 0.436255 0.554016
vt 0.444394 0.554016
vt 0.436255 0.562154
vt 0.552744 0.445984
vt 0.560883 0.445984
vt 0.560883 0.437846
vt 0.552585 0.437686
vt 0.560723 0.437686
vt 0.552585 0.445825
vt 0.940006 0.536782
vt 0.936017 0.536782
vt 0.936017 0.540771
vt 0.940006 0.540771
vt 0.935698 0.536782
vt 0.931708 0.536782
vt 0.931708 0.540771
vt 0.935698 0.540771
vt 0.940006 0.532473
vt 0.936017 0.532473
vt 0.936017 0.536463
vt 0.940006 0.536463
vt 0.935698 0.532473
vt 0.931708 0.532473
vt 0.931708 0.536463
vt 0.935698 0.536463
vt 0.931389 0.536782
vt 0.927400 0.536782
vt 0.927400 0.540771
vt 0.931389 0.540771
vt 0.927081 0.536782
vt 0.923091 0.536782
vt 0.923091 0.540771
vt 0.927081 0.540771
vt 0.944315 0.506622
vt 0.940325 0.506622
vt 0.940325 0.523537
vt 0.944315 0.523537
vt 0.879687 0.545080
vt 0.879687 0.541090
vt 0.862772 0.541090
vt 0.862772 0.545080
vt 0.944315 0.523856
vt 0.940325 0.523856
vt 0.940325 0.540771
vt 0.944315 0.540771
vt 0.896921 0.545080
vt 0.896921 0.541090
vt 0.880006 0.541090
vt 0.880006 0.545080
vt 0.948623 0.420452
vt 0.944634 0.420452
vt 0.944634 0.437367
vt 0.948623 0.437367
vt 0.914155 0.545080
vt 0.914155 0.541090
vt 0.897240 0.541090
vt 0.897240 0.545080
vt 0.948623 0.437686
vt 0.944634 0.437686
vt 0.944634 0.454601
vt 0.948623 0.454601
vt 0.931389 0.545080
vt 0.931389 0.541090
vt 0.914474 0.541090
vt 0.914474 0.545080
vt 0.948623 0.472154
vt 0.944634 0.472154
vt 0.944634 0.489069
vt 0.948623 0.489069
vt 0.836602 0.549388
vt 0.836602 0.545399
vt 0.819688 0.545399
vt 0.819688 0.549388
vt 0.948623 0.489388
vt 0.944634 0.489388
vt 0.944634 0.506303
vt 0.948623 0.506303
vt 0.879687 0.549388
vt 0.879687 0.545399
vt 0.862772 0.545399
vt 0.862772 0.549388
vt 0.931708 0.543751
vt 0.935871 0.541090
vt 0.940006 0.542611
vt 0.940006 0.546737
vt 0.935909 0.549388
vt 0.931742 0.547921
vt 0.931389 0.532473
vt 0.927400 0.532473
vt 0.927400 0.536463
vt 0.931389 0.536463
vt 0.927081 0.532473
vt 0.923091 0.532473
vt 0.923091 0.536463
vt 0.927081 0.536463
vt 0.940006 0.528165
vt 0.936017 0.528165
vt 0.936017 0.532154
vt 0.940006 0.532154
vt 0.935698 0.528165
vt 0.931708 0.528165
vt 0.931708 0.532154
vt 0.935698 0.532154
vt 0.940006 0.523856
vt 0.936017 0.523856
vt 0.936017 0.527846
vt 0.940006 0.527846
vt 0.935698 0.523856
vt 0.931708 0.523856
vt 0.931708 0.527846
vt 0.935698 0.527846
vt 0.978783 0.454601
vt 0.978783 0.446303
vt 0.974793 0.446303
vt 0.974793 0.454601
vt 0.836922 0.579548
vt 0.845219 0.579548
vt 0.845219 0.575558
vt 0.836922 0.575558
vt 0.978783 0.445984
vt 0.978783 0.437686
vt 0.974793 0.437686
vt 0.974793 0.445984
vt 0.828305 0.579548
vt 0.836602 0.579548
vt 0.836602 0.575558
vt 0.828305 0.575558
vt 0.978783 0.437367
vt 0.978783 0.429069
vt 0.974793 0.429069
vt 0.974793 0.437367
vt 0.819688 0.579548
vt 0.827985 0.579548
vt 0.827985 0.575558
vt 0.819688 0.575558
vt 0.547957 0.532154
vt 0.547957 0.515239
vt 0.543968 0.515239
vt 0.543968 0.532154
vt 0.505191 0.549388
vt 0.522106 0.549388
vt 0.522106 0.545399
vt 0.505191 0.545399
vt 0.552266 0.437367
vt 0.552266 0.420452
vt 0.548276 0.420452
vt 0.548276 0.437367
vt 0.419021 0.553697
vt 0.435936 0.553697
vt 0.435936 0.549707
vt 0.419021 0.549707
vt 0.552266 0.454601
vt 0.552266 0.437686
vt 0.548276 0.437686
vt 0.548276 0.454601
vt 0.436255 0.553697
vt 0.453170 0.553697
vt 0.453170 0.549707
vt 0.436255 0.549707
vt 0.552266 0.480452
vt 0.552266 0.463537
vt 0.548276 0.463537
vt 0.548276 0.480452
vt 0.453489 0.553697
vt 0.470404 0.553697
vt 0.470404 0.549707
vt 0.453489 0.549707
vt 0.552266 0.497686
vt 0.552266 0.480771
vt 0.548276 0.480771
vt 0.548276 0.497686
vt 0.505191 0.553697
vt 0.522106 0.553697
vt 0.522106 0.549707
vt 0.505191 0.549707
vt 0.552266 0.532154
vt 0.552266 0.515239
vt 0.548276 0.515239
vt 0.548276 0.532154
vt 0.522425 0.553697
vt 0.539340 0.553697
vt 0.539340 0.549707
vt 0.522425 0.549707
vt 0.578117 0.428750
vt 0.578117 0.420452
vt 0.574127 0.420452
vt 0.574127 0.428750
vt 0.556893 0.575239
vt 0.565191 0.575239
vt 0.565191 0.571250
vt 0.556893 0.571250
vt 0.573808 0.575239
vt 0.573808 0.566941
vt 0.569819 0.566941
vt 0.569819 0.575239
vt 0.548276 0.575239
vt 0.556574 0.575239
vt 0.556574 0.571250
vt 0.548276 0.571250
vt 0.569500 0.575239
vt 0.569500 0.566941
vt 0.565510 0.566941
vt 0.565510 0.575239
vt 0.539659 0.575239
vt 0.547957 0.575239
vt 0.547957 0.571250
vt 0.539659 0.571250
vt 0.557053 0.454601
vt 0.565191 0.454601
vt 0.565191 0.446463
vt 0.453170 0.562314
vt 0.445032 0.562314
vt 0.453170 0.554175
vt 0.453011 0.554016
vt 0.444872 0.554016
vt 0.444872 0.562154
vt 0.556893 0.446303
vt 0.565032 0.446303
vt 0.556893 0.454442
vt 0.557053 0.463218
vt 0.565191 0.463218
vt 0.565191 0.455080
vt 0.556893 0.454920
vt 0.565032 0.454920
vt 0.556893 0.463059
vt 0.974474 0.558324
vt 0.970485 0.558324
vt 0.970485 0.566622
vt 0.974474 0.566622
vt 0.940006 0.575239
vt 0.940006 0.571250
vt 0.931708 0.571250
vt 0.931708 0.575239
vt 0.974474 0.549707
vt 0.970485 0.549707
vt 0.970485 0.558005
vt 0.974474 0.558005
vt 0.931389 0.575239
vt 0.931389 0.571250
vt 0.923091 0.571250
vt 0.923091 0.575239
vt 0.974474 0.541090
vt 0.970485 0.541090
vt 0.970485 0.549388
vt 0.974474 0.549388
vt 0.922772 0.575239
vt 0.922772 0.571250
vt 0.914474 0.571250
vt 0.914474 0.575239
vt 0.957240 0.446303
vt 0.953251 0.446303
vt 0.953251 0.463218
vt 0.957240 0.463218
vt 0.871070 0.558005
vt 0.871070 0.554016
vt 0.854155 0.554016
vt 0.854155 0.558005
vt 0.957240 0.463537
vt 0.953251 0.463537
vt 0.953251 0.480452
vt 0.957240 0.480452
vt 0.896921 0.558005
vt 0.896921 0.554016
vt 0.880006 0.554016
vt 0.880006 0.558005
vt 0.957240 0.480771
vt 0.953251 0.480771
vt 0.953251 0.497686
vt 0.957240 0.497686
vt 0.914155 0.558005
vt 0.914155 0.554016
vt 0.897240 0.554016
vt 0.897240 0.558005
vt 0.957240 0.506622
vt 0.953251 0.506622
vt 0.953251 0.523537
vt 0.957240 0.523537
vt 0.931389 0.558005
vt 0.931389 0.554016
vt 0.914474 0.554016
vt 0.914474 0.558005
vt 0.957240 0.523856
vt 0.953251 0.523856
vt 0.953251 0.540771
vt 0.957240 0.540771
vt 0.871070 0.562314
vt 0.871070 0.558324
vt 0.854155 0.558324
vt 0.854155 0.562314
vt 0.961549 0.420452
vt 0.957559 0.420452
vt 0.957559 0.437367
vt 0.961549 0.437367
vt 0.888304 0.562314
vt 0.888304 0.558324
vt 0.871390 0.558324
vt 0.871390 0.562314
vt 0.931708 0.556676
vt 0.935871 0.554016
vt 0.940006 0.555536
vt 0.940006 0.559663
vt 0.935909 0.562314
vt 0.931742 0.560847
vt 0.940006 0.519548
vt 0.936017 0.519548
vt 0.936017 0.523537
vt 0.940006 0.523537
vt 0.935698 0.519548
vt 0.931708 0.519548
vt 0.931708 0.523537
vt 0.935698 0.523537
vt 0.940006 0.515239
vt 0.936017 0.515239
vt 0.936017 0.519229
vt 0.940006 0.519229
vt 0.935698 0.515239
vt 0.931708 0.515239
vt 0.931708 0.519229
vt 0.935698 0.519229
vt 0.914155 0.510931
vt 0.910166 0.510931
vt 0.910166 0.514920
vt 0.914155 0.514920
vt 0.909847 0.510931
vt 0.905857 0.510931
vt 0.905857 0.514920
vt 0.909847 0.514920
vt 0.974474 0.540771
vt 0.974474 0.532473
vt 0.970485 0.532473
vt 0.970485 0.540771
vt 0.905857 0.575239
vt 0.914155 0.575239
vt 0.914155 0.571250
vt 0.905857 0.571250
vt 0.974474 0.532154
vt 0.974474 0.523856
vt 0.970485 0.523856
vt 0.970485 0.532154
vt 0.897240 0.575239
vt 0.905538 0.575239
vt 0.905538 0.571250
vt 0.897240 0.571250
vt 0.974474 0.523537
vt 0.974474 0.515239
vt 0.970485 0.515239
vt 0.970485 0.523537
vt 0.888623 0.575239
vt 0.896921 0.575239
vt 0.896921 0.571250
vt 0.888623 0.571250
vt 0.573808 0.514920
vt 0.573808 0.506622
vt 0.569819 0.506622
vt 0.569819 0.514920
vt 0.479340 0.575239
vt 0.487638 0.575239
vt 0.487638 0.571250
vt 0.479340 0.571250
vt 0.573808 0.506303
vt 0.573808 0.498005
vt 0.569819 0.498005
vt 0.569819 0.506303
vt 0.470723 0.575239
vt 0.479021 0.575239
vt 0.479021 0.571250
vt 0.470723 0.571250
vt 0.573808 0.497686
vt 0.573808 0.489388
vt 0.569819 0.489388
vt 0.569819 0.497686
vt 0.462106 0.575239
vt 0.470404 0.575239
vt 0.470404 0.571250
vt 0.462106 0.571250
vt 0.573808 0.489069
vt 0.573808 0.480771
vt 0.569819 0.480771
vt 0.569819 0.489069
vt 0.453489 0.575239
vt 0.461787 0.575239
vt 0.461787 0.571250
vt 0.453489 0.571250
vt 0.573808 0.480452
vt 0.573808 0.472154
vt 0.569819 0.472154
vt 0.569819 0.480452
vt 0.444872 0.575239
vt 0.453170 0.575239
vt 0.453170 0.571250
vt 0.444872 0.571250
vt 0.573808 0.471835
vt 0.573808 0.463537
vt 0.569819 0.463537
vt 0.569819 0.471835
vt 0.436255 0.575239
vt 0.444553 0.575239
vt 0.444553 0.571250
vt 0.436255 0.571250
vt 0.573808 0.463218
vt 0.573808 0.454920
vt 0.569819 0.454920
vt 0.569819 0.463218
vt 0.427638 0.575239
vt 0.435936 0.575239
vt 0.435936 0.571250
vt 0.427638 0.571250
vt 0.573808 0.454601
vt 0.573808 0.446303
vt 0.569819 0.446303
vt 0.569819 0.454601
vt 0.419021 0.575239
vt 0.427319 0.575239
vt 0.427319 0.571250
vt 0.419021 0.571250
vt 0.573808 0.445984
vt 0.573808 0.437686
vt 0.569819 0.437686
vt 0.569819 0.445984
vt 0.505191 0.570931
vt 0.513489 0.570931
vt 0.513489 0.566941
vt 0.505191 0.566941
vt 0.557053 0.480452
vt 0.565191 0.480452
vt 0.565191 0.472314
vt 0.565191 0.471835
vt 0.557053 0.471835
vt 0.565191 0.463697
vt 0.565032 0.463537
vt 0.556893 0.463537
vt 0.556893 0.471676
vt 0.556893 0.472154
vt 0.565032 0.472154
vt 0.556893 0.480293
vt 0.557053 0.489069
vt 0.565191 0.489069
vt 0.565191 0.480931
vt 0.556893 0.480771
vt 0.565032 0.480771
vt 0.556893 0.488910
vt 0.970166 0.523856
vt 0.966176 0.523856
vt 0.966176 0.532154
vt 0.970166 0.532154
vt 0.940006 0.566622
vt 0.940006 0.562633
vt 0.931708 0.562633
vt 0.931708 0.566622
vt 0.965857 0.437686
vt 0.961868 0.437686
vt 0.961868 0.445984
vt 0.965857 0.445984
vt 0.931389 0.549388
vt 0.931389 0.545399
vt 0.923091 0.545399
vt 0.923091 0.549388
vt 0.944315 0.489388
vt 0.940325 0.489388
vt 0.940325 0.497686
vt 0.944315 0.497686
vt 0.948623 0.579548
vt 0.948623 0.575558
vt 0.940325 0.575558
vt 0.940325 0.579548
vt 0.970166 0.472154
vt 0.966176 0.472154
vt 0.966176 0.489069
vt 0.970166 0.489069
vt 0.871070 0.570931
vt 0.871070 0.566941
vt 0.854155 0.566941
vt 0.854155 0.570931
vt 0.970166 0.489388
vt 0.966176 0.489388
vt 0.966176 0.506303
vt 0.970166 0.506303
vt 0.888304 0.570931
vt 0.888304 0.566941
vt 0.871390 0.566941
vt 0.871390 0.570931
vt 0.970166 0.506622
vt 0.966176 0.506622
vt 0.966176 0.523537
vt 0.970166 0.523537
vt 0.905538 0.570931
vt 0.905538 0.566941
vt 0.888623 0.566941
vt 0.888623 0.570931
vt 0.970166 0.454920
vt 0.966176 0.454920
vt 0.966176 0.471835
vt 0.970166 0.471835
vt 0.853836 0.570931
vt 0.853836 0.566941
vt 0.836922 0.566941
vt 0.836922 0.570931
vt 0.970166 0.437686
vt 0.966176 0.437686
vt 0.966176 0.454601
vt 0.970166 0.454601
vt 0.836602 0.570931
vt 0.836602 0.566941
vt 0.819688 0.566941
vt 0.819688 0.570931
vt 0.970166 0.420452
vt 0.966176 0.420452
vt 0.966176 0.437367
vt 0.970166 0.437367
vt 0.888304 0.566622
vt 0.888304 0.562633
vt 0.871390 0.562633
vt 0.871390 0.566622
vt 0.957559 0.552368
vt 0.961722 0.549707
vt 0.965857 0.551228
vt 0.965857 0.555354
vt 0.961760 0.558005
vt 0.957593 0.556538
vt 0.914155 0.506622
vt 0.910166 0.506622
vt 0.910166 0.510612
vt 0.914155 0.510612
vt 0.909847 0.506622
vt 0.905857 0.506622
vt 0.905857 0.510612
vt 0.909847 0.510612
vt 0.922772 0.510931
vt 0.918783 0.510931
vt 0.918783 0.514920
vt 0.922772 0.514920
vt 0.918464 0.510931
vt 0.914474 0.510931
vt 0.914474 0.514920
vt 0.918464 0.514920
vt 0.922772 0.506622
vt 0.918783 0.506622
vt 0.918783 0.510612
vt 0.922772 0.510612
vt 0.918464 0.506622
vt 0.914474 0.506622
vt 0.914474 0.510612
vt 0.918464 0.510612
vt 0.513489 0.519548
vt 0.509500 0.519548
vt 0.509500 0.523537
vt 0.513489 0.523537
vt 0.509181 0.519548
vt 0.505191 0.519548
vt 0.505191 0.523537
vt 0.509181 0.523537
vt 0.513489 0.515239
vt 0.509500 0.515239
vt 0.509500 0.519229
vt 0.513489 0.519229
vt 0.509181 0.515239
vt 0.505191 0.515239
vt 0.505191 0.519229
vt 0.509181 0.519229
vt 0.522106 0.519548
vt 0.518117 0.519548
vt 0.518117 0.523537
vt 0.522106 0.523537
vt 0.517798 0.519548
vt 0.513808 0.519548
vt 0.513808 0.523537
vt 0.517798 0.523537
vt 0.922772 0.515239
vt 0.918783 0.515239
vt 0.918783 0.519229
vt 0.922772 0.519229
vt 0.918464 0.515239
vt 0.914474 0.515239
vt 0.914474 0.519229
vt 0.918464 0.519229
vt 0.845219 0.528165
vt 0.841230 0.528165
vt 0.841230 0.532154
vt 0.845219 0.532154
vt 0.840911 0.528165
vt 0.836922 0.528165
vt 0.836922 0.532154
vt 0.840911 0.532154
vt 0.845219 0.523856
vt 0.841230 0.523856
vt 0.841230 0.527846
vt 0.845219 0.527846
vt 0.840911 0.523856
vt 0.836922 0.523856
vt 0.836922 0.527846
vt 0.840911 0.527846
vt 0.970166 0.532473
vt 0.966176 0.532473
vt 0.966176 0.540771
vt 0.970166 0.540771
vt 0.922772 0.570931
vt 0.922772 0.566941
vt 0.914474 0.566941
vt 0.914474 0.570931
vt 0.970166 0.541090
vt 0.966176 0.541090
vt 0.966176 0.549388
vt 0.970166 0.549388
vt 0.853836 0.528165
vt 0.849847 0.528165
vt 0.849847 0.532154
vt 0.853836 0.532154
vt 0.931389 0.570931
vt 0.931389 0.566941
vt 0.923091 0.566941
vt 0.923091 0.570931
vt 0.970166 0.549707
vt 0.966176 0.549707
vt 0.966176 0.558005
vt 0.970166 0.558005
vt 0.448862 0.528165
vt 0.444872 0.528165
vt 0.444872 0.532154
vt 0.448862 0.532154
vt 0.453170 0.523856
vt 0.449181 0.523856
vt 0.449181 0.527846
vt 0.453170 0.527846
vt 0.448862 0.523856
vt 0.444872 0.523856
vt 0.444872 0.527846
vt 0.448862 0.527846
vt 0.547957 0.545399
vt 0.543968 0.545399
vt 0.543968 0.549388
vt 0.547957 0.549388
vt 0.543649 0.545399
vt 0.539659 0.545399
vt 0.539659 0.549388
vt 0.543649 0.549388
vt 0.547957 0.541090
vt 0.543968 0.541090
vt 0.543968 0.545080
vt 0.547957 0.545080
vt 0.940006 0.570931
vt 0.940006 0.566941
vt 0.931708 0.566941
vt 0.931708 0.570931
vt 0.944315 0.541090
vt 0.940325 0.541090
vt 0.940325 0.545080
vt 0.944315 0.545080
vt 0.952932 0.459229
vt 0.948942 0.459229
vt 0.948942 0.463218
vt 0.952932 0.463218
vt 0.948623 0.459229
vt 0.944634 0.459229
vt 0.944634 0.463218
vt 0.948623 0.463218
vt 0.952932 0.454920
vt 0.948942 0.454920
vt 0.948942 0.458910
vt 0.952932 0.458910
vt 0.948623 0.454920
vt 0.944634 0.454920
vt 0.944634 0.458910
vt 0.948623 0.458910
vt 0.970166 0.558324
vt 0.966176 0.558324
vt 0.966176 0.566622
vt 0.970166 0.566622
vt 0.948623 0.570931
vt 0.948623 0.566941
vt 0.940325 0.566941
vt 0.940325 0.570931
vt 0.974474 0.420452
vt 0.970485 0.420452
vt 0.970485 0.428750
vt 0.974474 0.428750
vt 0.888304 0.549707
vt 0.884315 0.549707
vt 0.884315 0.553697
vt 0.888304 0.553697
vt 0.957240 0.570931
vt 0.957240 0.566941
vt 0.948942 0.566941
vt 0.948942 0.570931
vt 0.974474 0.429069
vt 0.970485 0.429069
vt 0.970485 0.437367
vt 0.974474 0.437367
vt 0.483330 0.549707
vt 0.479340 0.549707
vt 0.479340 0.553697
vt 0.483330 0.553697
vt 0.487638 0.545399
vt 0.483649 0.545399
vt 0.483649 0.549388
vt 0.487638 0.549388
vt 0.483330 0.545399
vt 0.479340 0.545399
vt 0.479340 0.549388
vt 0.483330 0.549388
vt 0.496255 0.549707
vt 0.492266 0.549707
vt 0.492266 0.553697
vt 0.496255 0.553697
vt 0.491947 0.549707
vt 0.487957 0.549707
vt 0.487957 0.553697
vt 0.491947 0.553697
vt 0.496255 0.545399
vt 0.492266 0.545399
vt 0.492266 0.549388
vt 0.496255 0.549388
vt 0.965857 0.570931
vt 0.965857 0.566941
vt 0.957559 0.566941
vt 0.957559 0.570931
vt 0.892613 0.545399
vt 0.888623 0.545399
vt 0.888623 0.549388
vt 0.892613 0.549388
vt 0.905538 0.549707
vt 0.901549 0.549707
vt 0.901549 0.553697
vt 0.905538 0.553697
vt 0.901230 0.549707
vt 0.897240 0.549707
vt 0.897240 0.553697
vt 0.901230 0.553697
vt 0.905538 0.545399
vt 0.901549 0.545399
vt 0.901549 0.549388
vt 0.905538 0.549388
vt 0.901230 0.545399
vt 0.897240 0.545399
vt 0.897240 0.549388
vt 0.901230 0.549388
vt 0.836602 0.420452
vt 0.819688 0.420452
vt 0.819688 0.437367
vt 0.836602 0.437367
vt 0.871070 0.454920
vt 0.854155 0.454920
vt 0.854155 0.471835
vt 0.871070 0.471835
vt 0.836602 0.437686
vt 0.819688 0.437686
vt 0.819688 0.454601
vt 0.836602 0.454601
vt 0.853836 0.420452
vt 0.836922 0.420452
vt 0.836922 0.437367
vt 0.853836 0.437367
vt 0.853836 0.437686
vt 0.836922 0.437686
vt 0.836922 0.454601
vt 0.853836 0.454601
vt 0.836602 0.454920
vt 0.819688 0.454920
vt 0.819688 0.471835
vt 0.836602 0.471835
vt 0.965857 0.541090
vt 0.957559 0.541090
vt 0.957559 0.549388
vt 0.965857 0.549388
vt 0.965857 0.532473
vt 0.957559 0.532473
vt 0.957559 0.540771
vt 0.965857 0.540771
vt 0.931389 0.558324
vt 0.923091 0.558324
vt 0.923091 0.566622
vt 0.931389 0.566622
vt 0.965857 0.523856
vt 0.957559 0.523856
vt 0.957559 0.532154
vt 0.965857 0.532154
vt 0.922772 0.558324
vt 0.914474 0.558324
vt 0.914474 0.566622
vt 0.922772 0.566622
vt 0.965857 0.515239
vt 0.957559 0.515239
vt 0.957559 0.523537
vt 0.965857 0.523537
vt 0.952932 0.510931
vt 0.948942 0.510931
vt 0.948942 0.514920
vt 0.952932 0.514920
vt 0.948623 0.510931
vt 0.944634 0.510931
vt 0.944634 0.514920
vt 0.948623 0.514920
vt 0.952932 0.506622
vt 0.948942 0.506622
vt 0.948942 0.510612
vt 0.952932 0.510612
vt 0.948623 0.506622
vt 0.944634 0.506622
vt 0.944634 0.510612
vt 0.948623 0.510612
vt 0.952932 0.536782
vt 0.948942 0.536782
vt 0.948942 0.540771
vt 0.952932 0.540771
vt 0.948623 0.536782
vt 0.944634 0.536782
vt 0.944634 0.540771
vt 0.948623 0.540771
vt 0.952932 0.532473
vt 0.948942 0.532473
vt 0.948942 0.536463
vt 0.952932 0.536463
vt 0.948623 0.532473
vt 0.944634 0.532473
vt 0.944634 0.536463
vt 0.948623 0.536463
vt 0.879687 0.554016
vt 0.875698 0.554016
vt 0.875698 0.558005
vt 0.879687 0.558005
vt 0.875379 0.554016
vt 0.871390 0.554016
vt 0.871390 0.558005
vt 0.875379 0.558005
vt 0.879687 0.549707
vt 0.875698 0.549707
vt 0.875698 0.553697
vt 0.879687 0.553697
vt 0.875379 0.549707
vt 0.871390 0.549707
vt 0.871390 0.553697
vt 0.875379 0.553697
vt 0.914155 0.558324
vt 0.905857 0.558324
vt 0.905857 0.566622
vt 0.914155 0.566622
vt 0.965857 0.506622
vt 0.957559 0.506622
vt 0.957559 0.514920
vt 0.965857 0.514920
vt 0.905538 0.558324
vt 0.897240 0.558324
vt 0.897240 0.566622
vt 0.905538 0.566622
vt 0.965857 0.498005
vt 0.957559 0.498005
vt 0.957559 0.506303
vt 0.965857 0.506303
vt 0.965857 0.489388
vt 0.957559 0.489388
vt 0.957559 0.497686
vt 0.965857 0.497686
vt 0.896921 0.558324
vt 0.888623 0.558324
vt 0.888623 0.566622
vt 0.896921 0.566622
vn -1.0000 0.0000 0.0000
vn 0.3629 -0.4288 -0.8273
vn 0.4982 -0.0425 0.8660
vn -0.5427 0.8399 0.0016
vn -0.9912 0.1321 0.0038
vn -0.5022 0.0759 -0.8614
vn -0.2640 0.4780 0.8378
vn 1.0000 -0.0019 0.0005
vn -0.9997 0.0218 0.0058
vn -0.5020 0.0174 0.8647
vn 0.4965 0.0038 0.8680
vn 0.4023 0.5842 0.7049
vn 0.3635 -0.4310 0.8259
vn -0.4993 0.0741 0.8632
vn 0.5978 -0.8017 -0.0011
vn 0.4983 -0.0410 -0.8660
vn 0.9950 -0.1000 -0.0003
vn 0.4975 0.0054 -0.8674
vn 0.4457 -0.4429 -0.7779
vn -0.4515 -0.4415 0.7754
vn 0.8965 -0.4430 0.0006
vn -0.4543 -0.4430 -0.7729
vn 0.4437 -0.4430 0.7790
vn -0.8972 -0.4416 0.0054
vn 0.4972 0.0047 -0.8676
vn 1.0000 -0.0022 0.0001
vn -0.5029 0.0152 0.8642
vn -0.5064 0.0166 -0.8621
vn -0.9997 0.0248 0.0048
vn 0.4952 0.0033 0.8688
vn -0.5333 -0.8459 -0.0002
vn -0.2654 -0.8457 0.4630
vn 0.2690 -0.8446 -0.4628
vn 0.5354 -0.8446 -0.0029
vn 0.2702 -0.8455 0.4606
vn -0.2645 -0.8458 -0.4633
vn -0.5053 0.0189 -0.8628
vn -0.4094 0.5879 -0.6977
vn -0.8088 0.5881 0.0044
vn -0.4072 0.5861 0.7004
vn 0.4036 0.5845 -0.7039
vn 0.8127 0.5827 0.0003
vn 0.4446 -0.2741 0.8528
vn -0.4105 0.3530 -0.8407
vn -0.7786 0.6276 0.0025
vn -0.4088 0.3504 0.8427
vn 0.4441 -0.2722 -0.8536
vn 0.8326 -0.5539 -0.0008
vn -0.2649 0.4804 -0.8361
vn -0.2259 -0.9440 -0.2404
vn 0.3221 -0.9434 -0.0796
vn -0.0931 -0.9439 0.3168
vn -0.3210 -0.9440 -0.0770
vn 0.2294 -0.9433 -0.2398
vn 0.0959 -0.9440 0.3158
vn 0.9994 0.0000 0.0339
vn -0.5318 0.0000 0.8469
vn -0.4776 0.0000 -0.8786
vn 0.5237 0.0000 0.8519
vn -0.9992 0.0000 0.0395
vn 0.4680 0.0000 -0.8837
vn 0.4124 0.6513 0.6370
vn -0.7588 0.6496 0.0478
vn 0.3396 0.6511 -0.6788
vn 0.7576 0.6512 0.0433
vn -0.4193 0.6495 0.6343
vn -0.3468 0.6512 -0.6750
vn -0.3142 0.7810 0.5397
vn -0.3157 0.7823 -0.5370
vn 0.3083 0.7823 0.5413
vn -0.6243 0.7811 0.0038
vn 0.3097 0.7822 -0.5406
vn 0.6228 0.7823 0.0004
vn -0.2322 0.9727 0.0014
vn 0.1150 0.9729 -0.2008
vn 0.2313 0.9729 0.0002
vn -0.1169 0.9727 0.2007
vn -0.1172 0.9729 -0.1994
vn 0.1145 0.9729 0.2010
vn 0.1747 -0.5441 -0.8206
vn 0.3709 -0.3602 0.8560
vn -0.2202 0.9755 0.0015
vn -0.6785 0.7346 0.0036
vn -0.3575 0.3889 -0.8491
vn -0.0887 0.5647 0.8205
vn 0.9905 -0.1375 0.0005
vn -0.9876 0.1571 0.0058
vn -0.4677 0.2013 0.8606
vn 0.4673 -0.1828 0.8650
vn 0.4778 0.5242 0.7049
vn 0.1745 -0.5465 0.8191
vn -0.3560 0.3859 0.8511
vn 0.2433 -0.9699 -0.0010
vn 0.3715 -0.3593 -0.8561
vn 0.7155 -0.6986 -0.0003
vn 0.4686 -0.1821 -0.8645
vn 0.4286 -0.3635 -0.8271
vn -0.5162 -0.2331 0.8241
vn 0.9035 -0.4286 0.0006
vn -0.5196 -0.2338 -0.8218
vn 0.4265 -0.3633 0.8283
vn -0.9856 -0.1690 0.0057
vn 0.4933 -0.0627 -0.8676
vn 0.9298 -0.3680 0.0001
vn -0.4962 0.0833 0.8642
vn -0.4995 0.0851 -0.8621
vn -0.9199 0.3921 0.0047
vn 0.4911 -0.0639 0.8688
vn -0.6431 -0.7658 -0.0002
vn -0.3776 -0.8019 0.4630
vn 0.1520 -0.8733 -0.4628
vn 0.4160 -0.9094 -0.0029
vn 0.1531 -0.8743 0.4606
vn -0.3768 -0.8021 -0.4633
vn -0.4705 0.2036 -0.8586
vn -0.3259 0.6379 -0.6977
vn -0.7216 0.6923 0.0044
vn -0.3240 0.6359 0.7004
vn 0.4791 0.5244 -0.7039
vn 0.8842 0.4671 0.0003
vn 0.2305 -0.4591 0.8580
vn -0.1824 0.4945 -0.8498
vn -0.3742 0.9273 0.0027
vn -0.1820 0.4916 0.8516
vn 0.2308 -0.4574 -0.8588
vn 0.4213 -0.9069 -0.0008
vn -0.0888 0.5673 -0.8187
vn -0.3584 -0.9000 -0.2481
vn 0.2255 -0.9695 -0.0956
vn -0.2224 -0.9163 0.3330
vn -0.4522 -0.8886 -0.0772
vn 0.1271 -0.9577 -0.2581
vn -0.0287 -0.9398 0.3406
vn 0.9883 -0.1353 -0.0701
vn -0.4726 0.0647 0.8789
vn -0.5263 0.0720 -0.8473
vn 0.4415 -0.0604 0.8952
vn -0.9907 0.1356 -0.0094
vn 0.5417 -0.0741 -0.8373
vn 0.4920 0.4614 0.7382
vn -0.8079 0.5888 0.0258
vn 0.4873 0.4618 -0.7412
vn 0.9076 0.4199 -0.0009
vn -0.3810 0.5465 0.7457
vn -0.3576 0.5459 -0.7577
vn -0.2054 0.8164 0.5397
vn -0.2067 0.8179 -0.5370
vn 0.4115 0.7333 0.5413
vn -0.5127 0.8586 0.0038
vn 0.4129 0.7330 -0.5406
vn 0.7232 0.6907 0.0004
vn -0.0981 0.9952 0.0014
vn 0.2459 0.9483 -0.2008
vn 0.3611 0.9325 0.0001
vn 0.0161 0.9795 0.2007
vn 0.0158 0.9798 -0.1994
vn 0.2453 0.9484 0.2010
vn 0.4441 -0.4438 -0.7783
vn -0.5055 -0.1519 0.8493
vn 0.9214 -0.3856 0.0485
vn -0.5088 -0.3558 -0.7839
vn 0.4420 -0.2395 0.8645
vn -0.9772 -0.2097 0.0318
vn -0.1556 -0.9694 -0.1900
vn 0.2098 -0.9547 0.2109
vn -0.3072 -0.8989 0.3126
vn -0.3709 -0.9057 0.2052
vn -0.0146 -0.9814 -0.1912
vn 0.1398 -0.9360 0.3232
vn 0.9949 -0.0965 -0.0308
vn -0.4632 0.1517 0.8732
vn -0.5414 -0.0539 -0.8391
vn 0.4548 0.0680 0.8880
vn -0.9951 0.0867 -0.0485
vn 0.5318 -0.1531 -0.8329
vn 0.3765 0.7238 0.5783
vn -0.6682 0.7305 -0.1411
vn 0.4714 0.5582 -0.6828
vn 0.7916 0.5975 -0.1279
vn -0.2585 0.7805 0.5692
vn -0.3535 0.6344 -0.6874
vn -0.2410 0.8670 0.4361
vn -0.2423 0.7356 -0.6326
vn 0.3790 0.8116 0.4445
vn -0.5498 0.8294 -0.0993
vn 0.3804 0.6780 -0.6290
vn 0.6922 0.7162 -0.0886
vn -0.1416 0.9825 -0.1207
vn 0.2041 0.9261 -0.3174
vn 0.3199 0.9402 -0.1167
vn -0.0268 0.9966 0.0784
vn -0.0272 0.9475 -0.3187
vn 0.2035 0.9757 0.0813
vn -0.4882 0.2452 0.8376
vn -0.4803 0.0988 -0.8715
vn 0.4827 -0.2419 -0.8417
vn -0.4805 0.0704 -0.8742
vn 0.4698 -0.0907 0.8781
vn -0.9410 0.3366 -0.0354
vn 0.8916 -0.4456 0.0805
vn -0.4620 0.3865 0.7982
vn -0.4547 0.0715 -0.8877
vn 0.4439 -0.0650 0.8937
vn -0.8912 0.4474 -0.0742
vn 0.4573 -0.3834 -0.8024
vn 0.5107 -0.1869 0.8392
vn -0.6262 0.7589 -0.1789
vn 0.3315 -0.6580 -0.6762
vn 0.6448 -0.7428 0.1803
vn -0.2093 0.7160 0.6660
vn -0.4341 0.2407 -0.8681
vn 0.4717 0.2081 -0.8568
vn -0.5084 -0.5656 0.6493
vn 0.9339 -0.3164 -0.1668
vn -0.5116 0.3474 -0.7859
vn 0.4417 -0.6925 0.5704
vn -0.9986 -0.0490 -0.0192
vn -0.1604 -0.6775 -0.7178
vn 0.2195 -0.9013 -0.3734
vn -0.3110 -0.9165 -0.2517
vn -0.3792 -0.8568 -0.3494
vn -0.0088 -0.6873 -0.7263
vn 0.1445 -0.9536 -0.2641
vn 0.9949 -0.0614 -0.0805
vn -0.4632 -0.3762 0.8024
vn -0.5414 0.4368 -0.7184
vn 0.4548 -0.4533 0.7666
vn -0.9951 0.0988 0.0099
vn 0.5318 0.3520 -0.7703
vn 0.3765 0.2616 0.8887
vn -0.6682 0.6795 0.3032
vn 0.4714 0.8488 -0.2395
vn 0.7916 0.5629 0.2376
vn -0.2585 0.3132 0.9138
vn -0.3535 0.9139 -0.1996
vn -0.2410 0.4605 0.8543
vn -0.2423 0.9654 -0.0967
vn 0.3790 0.4102 0.8295
vn -0.5498 0.7365 0.3940
vn 0.3804 0.9161 -0.1268
vn 0.6922 0.6377 0.3379
vn -0.1416 0.8743 0.4643
vn 0.2041 0.9408 0.2707
vn 0.3199 0.8374 0.4433
vn -0.0268 0.7717 0.6355
vn -0.0272 0.9591 0.2819
vn 0.2035 0.7529 0.6259
vn -0.4827 -0.1769 0.8578
vn -0.4933 0.4254 -0.7587
vn 0.4855 0.2247 -0.8449
vn -0.4651 0.4255 -0.7763
vn 0.4875 -0.3831 0.7846
vn -0.9699 0.2203 0.1038
vn 0.8993 -0.4351 -0.0446
vn -0.5072 0.0670 0.8592
vn -0.4141 0.3764 -0.8288
vn 0.4033 -0.3714 0.8363
vn -0.9004 0.4321 0.0508
vn 0.4986 -0.0715 -0.8639
vn 0.2989 -0.3558 0.8855
vn -0.6079 0.7859 -0.1135
vn 0.5167 -0.4946 -0.6988
vn 0.6303 -0.7676 0.1161
vn -0.4314 0.5552 0.7111
vn -0.1835 0.4162 -0.8906
vn 0.4013 -0.0567 -0.9142
vn -0.6475 -0.4378 0.6238
vn 0.6918 -0.6615 -0.2894
vn -0.4353 0.3848 -0.8139
vn 0.1953 -0.8648 0.4626
vn -0.9793 0.2004 -0.0275
vn -0.3766 -0.3871 -0.8416
vn 0.0663 -0.8810 -0.4685
vn -0.6077 -0.7562 -0.2426
vn -0.7009 -0.5912 -0.3990
vn -0.1102 -0.4865 -0.8667
vn -0.0895 -0.9534 -0.2882
vn 0.9352 -0.3329 -0.1209
vn -0.5518 -0.3209 0.7698
vn -0.3929 0.6553 -0.6451
vn 0.3052 -0.6520 0.6941
vn -0.9246 0.3769 0.0551
vn 0.6105 0.2745 -0.7429
vn 0.4359 0.0357 0.8993
vn -0.4446 0.8009 0.4012
vn 0.6956 0.7010 -0.1573
vn 0.9200 0.2811 0.2730
vn -0.1575 0.2631 0.9518
vn -0.0758 0.9937 -0.0821
vn -0.0984 0.4052 0.9089
vn 0.0455 0.9987 0.0221
vn 0.4809 0.1834 0.8574
vn -0.3148 0.8106 0.4938
vn 0.6278 0.7776 -0.0346
vn 0.8463 0.3686 0.3845
vn 0.1157 0.8167 0.5653
vn 0.4660 0.8042 0.3689
vn 0.5471 0.6523 0.5245
vn 0.1962 0.6660 0.7197
vn 0.2497 0.8863 0.3900
vn 0.4114 0.5835 0.7002
vn -0.5103 -0.0778 0.8565
vn -0.3091 0.6823 -0.6625
vn 0.5114 0.0928 -0.8543
vn -0.3224 0.6870 -0.6513
vn 0.3036 -0.6702 0.6772
vn -0.7923 0.5794 0.1912
vn 0.6697 -0.7309 -0.1316
vn -0.3712 0.2078 0.9050
vn -0.2508 0.5813 -0.7740
vn 0.2716 -0.5458 0.7927
vn -0.6305 0.7622 0.1464
vn 0.4026 -0.1661 -0.9002
vn 0.2027 -0.3857 0.9001
vn -0.4769 0.8699 -0.1258
vn 0.4599 -0.5290 -0.7132
vn 0.5218 -0.8435 0.1274
vn -0.3654 0.5828 0.7258
vn -0.0822 0.4336 -0.8973
vn 0.4925 -0.1772 -0.8521
vn 0.9442 -0.3269 0.0407
vn 0.9695 -0.2433 0.0295
vn -0.4750 -0.7489 -0.4621
vn -0.9687 0.2471 -0.0233
vn 0.4694 -0.0651 0.8806
vn -0.2987 0.5397 -0.7871
vn -0.3354 0.6330 0.6977
vn 0.9768 0.2119 -0.0291
vn 0.5259 0.2972 -0.7969
vn -0.7091 0.7010 -0.0760
vn 0.5335 0.3844 0.7534
vn -0.4983 0.1783 0.8485
vn 0.3254 -0.9394 0.1082
vn -0.4519 -0.6759 0.5822
vn -0.7798 -0.6211 0.0777
vn 0.1086 -0.9121 -0.3954
vn 0.0753 -0.8321 0.5494
vn 0.4872 0.1203 -0.8649
vn 0.8024 -0.5697 -0.1778
vn 0.8053 -0.5576 -0.2012
vn -0.5865 -0.2305 -0.7764
vn -0.7949 0.5675 0.2146
vn 0.3183 -0.6754 0.6653
vn 0.0044 0.9392 -0.3433
vn -0.2548 0.2341 0.9382
vn 0.9878 -0.1344 0.0790
vn 0.7177 0.4836 -0.5010
vn -0.4577 0.8199 0.3439
vn 0.4878 -0.2713 0.8297
vn -0.4853 -0.1061 0.8679
vn -0.0576 -0.8898 -0.4527
vn -0.6973 -0.7166 0.0179
vn -0.8927 -0.3384 -0.2974
vn -0.1239 -0.5589 -0.8199
vn -0.3101 -0.9456 -0.0982
vn 0.5064 0.2161 -0.8348
vn 0.9808 -0.1787 -0.0781
vn 0.9807 -0.1889 -0.0500
vn -0.4861 -0.3221 -0.8123
vn -0.9699 0.2335 0.0689
vn 0.4649 -0.3827 0.7984
vn -0.2944 0.8040 -0.5166
vn -0.3579 0.2578 0.8975
vn 0.9687 0.2282 0.0978
vn 0.5462 0.6028 -0.5816
vn -0.7425 0.6356 0.2116
vn 0.5079 0.0486 0.8600
vn -0.5038 -0.1678 0.8473
vn 0.4944 -0.8235 -0.2784
vn -0.5101 -0.7783 0.3661
vn -0.8680 -0.4633 -0.1786
vn 0.2160 -0.5162 -0.8288
vn 0.1507 -0.9460 0.2870
vn -0.1491 -0.9736 -0.1730
vn -0.0779 -0.9734 0.2153
vn 0.2245 -0.9736 -0.0404
vn 0.1468 -0.9736 -0.1747
vn -0.2254 -0.9735 -0.0397
vn 0.0757 -0.9736 0.2155
vn -0.1881 -0.9812 0.0424
vn -0.0706 -0.9971 0.0267
vn -0.1447 -0.9871 -0.0678
vn -0.0807 -0.9958 0.0424
vn -0.1258 -0.9897 -0.0690
vn -0.1979 -0.9799 0.0250
vn -0.4168 -0.4607 -0.7836
vn -0.5421 -0.7879 -0.2921
vn -0.0000 -0.8520 -0.5236
vn -0.1268 -0.5678 -0.8133
vn -0.6446 -0.6083 -0.4632
vn -0.1751 -0.9302 -0.3225
vn -0.1692 -0.7393 -0.6518
vn -0.2435 -0.9233 -0.2969
vn 0.1467 -0.8955 -0.4203
vn -0.0092 -0.7494 -0.6621
vn -0.3151 -0.8609 -0.3995
vn 0.0654 -0.9506 -0.3035
vn -0.1635 -0.9814 -0.1007
vn -0.2396 -0.9301 0.2786
vn 0.1363 -0.9761 0.1695
vn -0.0155 -0.9946 -0.1030
vn -0.3059 -0.9373 0.1668
vn 0.0610 -0.9556 0.2883
usemtl low_poly_mushrooms_texture_atlas
s off
f 1/1/1 2/2/1 3/3/1 4/4/1 5/5/1 6/6/1
f 6/7/2 50/8/2 54/9/2 1/10/2
f 52/11/3 15/12/3 9/13/3 47/14/3
f 4/15/4 45/16/4 43/17/4 5/18/4
f 46/19/5 8/20/5 7/21/5 44/22/5
f 44/23/6 7/24/6 10/25/6 49/26/6
f 3/27/7 48/28/7 45/29/7 4/30/7
f 38/31/8 11/32/8 12/33/8 41/34/8
f 33/35/9 14/36/9 16/37/9 31/38/9
f 9/39/10 35/40/10 34/41/10 8/42/10
f 15/43/11 42/44/11 35/45/11 9/46/11
f 41/47/12 36/48/12 27/49/12 29/50/12
f 2/51/13 51/52/13 48/53/13 3/54/13
f 47/55/14 9/56/14 8/57/14 46/58/14
f 1/59/15 54/60/15 51/61/15 2/62/15
f 49/63/16 10/64/16 17/65/16 53/66/16
f 53/67/17 17/68/17 15/69/17 52/70/17
f 10/71/18 39/72/18 37/73/18 17/74/18
f 11/75/19 18/76/19 24/77/19 19/78/19
f 14/79/20 13/80/20 21/81/20 22/82/20
f 12/83/21 11/84/21 19/85/21 20/86/21
f 18/87/22 16/88/22 23/89/22 24/90/22
f 13/91/23 12/92/23 20/93/23 21/94/23
f 16/95/24 14/96/24 22/97/24 23/98/24
f 40/99/25 18/100/25 11/101/25 38/102/25
f 17/103/26 37/104/26 42/105/26 15/106/26
f 36/107/27 13/108/27 14/109/27 33/110/27
f 31/111/28 16/112/28 18/113/28 40/114/28
f 8/115/29 34/116/29 32/117/29 7/118/29
f 41/119/30 12/120/30 13/121/30 36/122/30
f 30/123/31 29/124/31 42/125/31 37/126/31
f 28/127/32 30/128/32 37/129/32 39/130/32
f 27/131/33 26/132/33 34/133/33 35/134/33
f 26/135/34 25/136/34 32/137/34 34/138/34
f 25/139/35 28/140/35 39/141/35 32/142/35
f 29/143/36 27/144/36 35/145/36 42/146/36
f 7/147/37 32/148/37 39/149/37 10/150/37
f 31/151/38 40/152/38 28/153/38 25/154/38
f 33/155/39 31/156/39 25/157/39 26/158/39
f 36/159/40 33/160/40 26/161/40 27/162/40
f 40/163/41 38/164/41 30/165/41 28/166/41
f 38/167/42 41/168/42 29/169/42 30/170/42
f 52/171/43 47/172/43 48/173/43 51/174/43
f 44/175/44 49/176/44 50/177/44 43/178/44
f 46/179/45 44/180/45 43/181/45 45/182/45
f 47/183/46 46/184/46 45/185/46 48/186/46
f 49/187/47 53/188/47 54/189/47 50/190/47
f 53/191/48 52/192/48 51/193/48 54/194/48
f 5/195/49 43/196/49 50/197/49 6/198/49
f 379/199/50 378/200/50 56/201/50 57/202/50
f 381/203/51 380/204/51 58/205/51 59/206/51
f 383/207/52 382/208/52 60/209/52 55/210/52
f 378/211/53 383/212/53 55/213/53 56/214/53
f 380/215/54 379/216/54 57/217/54 58/218/54
f 382/219/55 381/220/55 59/221/55 60/222/55
f 56/223/56 55/224/56 61/225/56 62/226/56
f 58/227/57 57/228/57 63/229/57 64/230/57
f 60/231/58 59/232/58 65/233/58 66/234/58
f 57/235/59 56/236/59 62/237/59 63/238/59
f 59/239/60 58/240/60 64/241/60 65/242/60
f 55/243/61 60/244/61 66/245/61 61/246/61
f 63/247/62 62/248/62 68/249/62 69/250/62
f 65/251/63 64/252/63 70/253/63 71/254/63
f 61/255/64 66/256/64 72/257/64 67/258/64
f 62/259/65 61/260/65 67/261/65 68/262/65
f 64/263/66 63/264/66 69/265/66 70/266/66
f 66/267/67 65/268/67 71/269/67 72/270/67
f 70/271/68 69/272/68 75/273/68 76/274/68
f 72/275/69 71/276/69 77/277/69 78/278/69
f 69/279/70 68/280/70 74/281/70 75/282/70
f 71/283/71 70/284/71 76/285/71 77/286/71
f 67/287/72 72/288/72 78/289/72 73/290/72
f 68/291/73 67/292/73 73/293/73 74/294/73
f 77/295/74 76/296/74 79/297/74
f 73/298/75 78/299/75 79/300/75
f 74/301/76 73/302/76 79/303/76
f 76/304/77 75/305/77 79/306/77
f 78/307/78 77/308/78 79/309/78
f 75/310/79 74/311/79 79/312/79
f 84/313/1 83/314/1 82/315/1 81/316/1 80/317/1 85/318/1
f 85/319/80 129/320/80 133/321/80 84/322/80
f 131/323/81 94/324/81 88/325/81 126/326/81
f 81/327/82 124/328/82 122/329/82 80/330/82
f 125/331/83 87/332/83 86/333/83 123/334/83
f 123/335/84 86/336/84 89/337/84 128/338/84
f 82/339/85 127/340/85 124/341/85 81/342/85
f 117/343/86 90/344/86 91/345/86 120/346/86
f 112/347/87 93/348/87 95/349/87 110/350/87
f 88/351/88 114/352/88 113/353/88 87/354/88
f 94/355/89 121/356/89 114/357/89 88/358/89
f 120/359/90 115/360/90 106/361/90 108/362/90
f 83/363/91 130/364/91 127/365/91 82/366/91
f 126/367/92 88/368/92 87/369/92 125/370/92
f 84/371/93 133/372/93 130/373/93 83/374/93
f 128/375/94 89/376/94 96/377/94 132/378/94
f 132/379/95 96/380/95 94/381/95 131/382/95
f 89/383/96 118/384/96 116/385/96 96/386/96
f 90/387/97 97/388/97 103/389/97 98/390/97
f 93/391/98 92/392/98 100/393/98 101/394/98
f 91/395/99 90/396/99 98/397/99 99/398/99
f 97/399/100 95/400/100 102/401/100 103/402/100
f 92/403/101 91/404/101 99/405/101 100/406/101
f 95/407/102 93/408/102 101/409/102 102/410/102
f 119/411/103 97/412/103 90/413/103 117/414/103
f 96/415/104 116/416/104 121/417/104 94/418/104
f 115/419/105 92/420/105 93/421/105 112/422/105
f 110/423/106 95/424/106 97/425/106 119/426/106
f 87/427/107 113/428/107 111/429/107 86/430/107
f 120/431/108 91/432/108 92/433/108 115/434/108
f 109/435/109 108/436/109 121/437/109 116/438/109
f 107/439/110 109/440/110 116/441/110 118/442/110
f 106/443/111 105/444/111 113/445/111 114/446/111
f 105/447/112 104/448/112 111/449/112 113/450/112
f 104/451/113 107/452/113 118/453/113 111/454/113
f 108/455/114 106/456/114 114/457/114 121/458/114
f 86/459/115 111/460/115 118/461/115 89/462/115
f 110/463/116 119/464/116 107/465/116 104/466/116
f 112/467/117 110/468/117 104/469/117 105/470/117
f 115/471/118 112/472/118 105/473/118 106/474/118
f 119/475/119 117/476/119 109/477/119 107/478/119
f 117/479/120 120/480/120 108/481/120 109/482/120
f 131/483/121 126/484/121 127/485/121 130/486/121
f 123/487/122 128/488/122 129/489/122 122/490/122
f 125/491/123 123/492/123 122/493/123 124/494/123
f 126/495/124 125/496/124 124/497/124 127/498/124
f 128/499/125 132/500/125 133/501/125 129/502/125
f 132/503/126 131/504/126 130/505/126 133/506/126
f 80/507/127 122/508/127 129/509/127 85/510/127
f 385/511/128 384/512/128 135/513/128 136/514/128
f 387/515/129 386/516/129 137/517/129 138/518/129
f 389/519/130 388/520/130 139/521/130 134/522/130
f 384/523/131 389/524/131 134/525/131 135/526/131
f 386/527/132 385/528/132 136/529/132 137/530/132
f 388/531/133 387/532/133 138/533/133 139/534/133
f 135/535/134 134/536/134 140/537/134 141/538/134
f 137/539/135 136/540/135 142/541/135 143/542/135
f 139/543/136 138/544/136 144/545/136 145/546/136
f 136/547/137 135/548/137 141/549/137 142/550/137
f 138/551/138 137/552/138 143/553/138 144/554/138
f 134/555/139 139/556/139 145/557/139 140/558/139
f 142/559/140 141/560/140 147/561/140 148/562/140
f 144/563/141 143/564/141 149/565/141 150/566/141
f 140/567/142 145/568/142 151/569/142 146/570/142
f 141/571/143 140/572/143 146/573/143 147/574/143
f 143/575/144 142/576/144 148/577/144 149/578/144
f 145/579/145 144/580/145 150/581/145 151/582/145
f 149/583/146 148/584/146 154/585/146 155/586/146
f 151/587/147 150/588/147 156/589/147 157/590/147
f 148/591/148 147/592/148 153/593/148 154/594/148
f 150/595/149 149/596/149 155/597/149 156/598/149
f 146/599/150 151/600/150 157/601/150 152/602/150
f 147/603/151 146/604/151 152/605/151 153/606/151
f 156/607/152 155/608/152 158/609/152
f 152/610/153 157/611/153 158/612/153
f 153/613/154 152/614/154 158/615/154
f 155/616/155 154/617/155 158/618/155
f 157/619/156 156/620/156 158/621/156
f 154/622/157 153/623/157 158/624/157
f 159/625/158 164/626/158 170/627/158 165/628/158
f 162/629/159 161/630/159 167/631/159 168/632/159
f 160/633/160 159/634/160 165/635/160 166/636/160
f 164/637/161 163/638/161 169/639/161 170/640/161
f 161/641/162 160/642/162 166/643/162 167/644/162
f 163/645/163 162/646/163 168/647/163 169/648/163
f 403/649/164 402/650/164 172/651/164 173/652/164
f 405/653/165 404/654/165 174/655/165 175/656/165
f 407/657/166 406/658/166 176/659/166 171/660/166
f 402/661/167 407/662/167 171/663/167 172/664/167
f 404/665/168 403/666/168 173/667/168 174/668/168
f 406/669/169 405/670/169 175/671/169 176/672/169
f 172/673/170 171/674/170 177/675/170 178/676/170
f 174/677/171 173/678/171 179/679/171 180/680/171
f 176/681/172 175/682/172 181/683/172 182/684/172
f 173/685/173 172/686/173 178/687/173 179/688/173
f 175/689/174 174/690/174 180/691/174 181/692/174
f 171/693/175 176/694/175 182/695/175 177/696/175
f 179/697/176 178/698/176 184/699/176 185/700/176
f 181/701/177 180/702/177 186/703/177 187/704/177
f 177/705/178 182/706/178 188/707/178 183/708/178
f 178/709/179 177/710/179 183/711/179 184/712/179
f 180/713/180 179/714/180 185/715/180 186/716/180
f 182/717/181 181/718/181 187/719/181 188/720/181
f 186/721/182 185/722/182 191/723/182 192/724/182
f 188/725/183 187/726/183 193/727/183 194/728/183
f 185/729/184 184/730/184 190/731/184 191/732/184
f 187/733/185 186/734/185 192/735/185 193/736/185
f 183/737/186 188/738/186 194/739/186 189/740/186
f 184/741/187 183/742/187 189/743/187 190/744/187
f 193/745/188 192/746/188 195/747/188
f 189/748/189 194/749/189 195/750/189
f 190/751/190 189/752/190 195/753/190
f 192/754/191 191/755/191 195/756/191
f 194/757/192 193/758/192 195/759/192
f 191/760/193 190/761/193 195/762/193
f 161/763/194 162/764/194 336/765/194 331/766/194
f 163/767/195 164/768/195 340/769/195 335/770/195
f 164/771/196 159/772/196 339/773/196 340/774/196
f 334/775/197 341/776/197 201/777/197 200/778/197
f 160/779/198 161/780/198 331/781/198 332/782/198
f 162/783/199 163/784/199 335/785/199 336/786/199
f 196/787/200 197/788/200 203/789/200 202/790/200
f 198/791/201 199/792/201 205/793/201 204/794/201
f 200/795/202 201/796/202 207/797/202 206/798/202
f 197/799/203 198/800/203 204/801/203 203/802/203
f 199/803/204 200/804/204 206/805/204 205/806/204
f 201/807/205 196/808/205 202/809/205 207/810/205
f 203/811/206 204/812/206 210/813/206 209/814/206
f 205/815/207 206/816/207 212/817/207 211/818/207
f 207/819/208 202/820/208 208/821/208 213/822/208
f 202/823/209 203/824/209 209/825/209 208/826/209
f 204/827/210 205/828/210 211/829/210 210/830/210
f 206/831/211 207/832/211 213/833/211 212/834/211
f 208/835/1 209/836/1 210/837/1 211/838/1 212/839/1 213/840/1
f 214/841/212 219/842/212 225/843/212 220/844/212
f 217/845/213 216/846/213 222/847/213 223/848/213
f 215/849/214 214/850/214 220/851/214 221/852/214
f 219/853/215 218/854/215 224/855/215 225/856/215
f 216/857/216 215/858/216 221/859/216 222/860/216
f 218/861/217 217/862/217 223/863/217 224/864/217
f 397/865/218 396/866/218 227/867/218 228/868/218
f 399/869/219 398/870/219 229/871/219 230/872/219
f 401/873/220 400/874/220 231/875/220 226/876/220
f 396/877/221 401/878/221 226/879/221 227/880/221
f 398/881/222 397/882/222 228/883/222 229/884/222
f 400/885/223 399/886/223 230/887/223 231/888/223
f 227/889/224 226/890/224 232/891/224 233/892/224
f 229/893/225 228/894/225 234/895/225 235/896/225
f 231/897/226 230/898/226 236/899/226 237/900/226
f 228/901/227 227/902/227 233/903/227 234/904/227
f 230/905/228 229/906/228 235/907/228 236/908/228
f 226/909/229 231/910/229 237/911/229 232/912/229
f 234/913/230 233/914/230 239/915/230 240/916/230
f 236/917/231 235/918/231 241/919/231 242/920/231
f 232/921/232 237/922/232 243/923/232 238/924/232
f 233/925/233 232/926/233 238/927/233 239/928/233
f 235/929/234 234/930/234 240/931/234 241/932/234
f 237/933/235 236/934/235 242/935/235 243/936/235
f 241/937/236 240/938/236 246/939/236 247/940/236
f 243/941/237 242/942/237 248/943/237 249/944/237
f 240/945/238 239/946/238 245/947/238 246/948/238
f 242/949/239 241/950/239 247/951/239 248/952/239
f 238/953/240 243/954/240 249/955/240 244/956/240
f 239/957/241 238/958/241 244/959/241 245/960/241
f 248/961/242 247/962/242 250/963/242
f 244/964/243 249/965/243 250/966/243
f 245/967/244 244/968/244 250/969/244
f 247/970/245 246/971/245 250/972/245
f 249/973/246 248/974/246 250/975/246
f 246/976/247 245/977/247 250/978/247
f 216/979/248 217/980/248 372/981/248 367/982/248
f 218/983/249 219/984/249 376/985/249 371/986/249
f 219/987/250 214/988/250 375/989/250 376/990/250
f 370/991/251 377/992/251 256/993/251 255/994/251
f 215/995/252 216/996/252 367/997/252 368/998/252
f 217/999/253 218/1000/253 371/1001/253 372/1002/253
f 251/1003/254 252/1004/254 258/1005/254 257/1006/254
f 253/1007/255 254/1008/255 260/1009/255 259/1010/255
f 255/1011/256 256/1012/256 262/1013/256 261/1014/256
f 252/1015/257 253/1016/257 259/1017/257 258/1018/257
f 254/1019/258 255/1020/258 261/1021/258 260/1022/258
f 256/1023/259 251/1024/259 257/1025/259 262/1026/259
f 258/1027/260 259/1028/260 265/1029/260 264/1030/260
f 260/1031/261 261/1032/261 267/1033/261 266/1034/261
f 262/1035/262 257/1036/262 263/1037/262 268/1038/262
f 257/1039/263 258/1040/263 264/1041/263 263/1042/263
f 259/1043/264 260/1044/264 266/1045/264 265/1046/264
f 261/1047/265 262/1048/265 268/1049/265 267/1050/265
f 263/1051/1 264/1052/1 265/1053/1 266/1054/1 267/1055/1 268/1056/1
f 269/1057/266 274/1058/266 280/1059/266 275/1060/266
f 272/1061/267 271/1062/267 277/1063/267 278/1064/267
f 270/1065/268 269/1066/268 275/1067/268 276/1068/268
f 274/1069/269 273/1070/269 279/1071/269 280/1072/269
f 271/1073/270 270/1074/270 276/1075/270 277/1076/270
f 273/1077/271 272/1078/271 278/1079/271 279/1080/271
f 391/1081/272 390/1082/272 282/1083/272 283/1084/272
f 393/1085/273 392/1086/273 284/1087/273 285/1088/273
f 395/1089/274 394/1090/274 286/1091/274 281/1092/274
f 390/1093/275 395/1094/275 281/1095/275 282/1096/275
f 392/1097/276 391/1098/276 283/1099/276 284/1100/276
f 394/1101/277 393/1102/277 285/1103/277 286/1104/277
f 282/1105/278 281/1106/278 287/1107/278 288/1108/278
f 284/1109/279 283/1110/279 289/1111/279 290/1112/279
f 286/1113/280 285/1114/280 291/1115/280 292/1116/280
f 283/1117/281 282/1118/281 288/1119/281 289/1120/281
f 285/1121/282 284/1122/282 290/1123/282 291/1124/282
f 281/1125/283 286/1126/283 292/1127/283 287/1128/283
f 289/1129/284 288/1130/284 294/1131/284 295/1132/284
f 291/1133/285 290/1134/285 296/1135/285 297/1136/285
f 287/1137/286 292/1138/286 298/1139/286 293/1140/286
f 288/1141/287 287/1142/287 293/1143/287 294/1144/287
f 290/1145/288 289/1146/288 295/1147/288 296/1148/288
f 292/1149/289 291/1150/289 297/1151/289 298/1152/289
f 296/1153/290 295/1154/290 301/1155/290 302/1156/290
f 298/1157/291 297/1158/291 303/1159/291 304/1160/291
f 295/1161/292 294/1162/292 300/1163/292 301/1164/292
f 297/1165/293 296/1166/293 302/1167/293 303/1168/293
f 293/1169/294 298/1170/294 304/1171/294 299/1172/294
f 294/1173/295 293/1174/295 299/1175/295 300/1176/295
f 303/1177/296 302/1178/296 305/1179/296
f 299/1180/297 304/1181/297 305/1182/297
f 300/1183/298 299/1184/298 305/1185/298
f 302/1186/299 301/1187/299 305/1188/299
f 304/1189/300 303/1190/300 305/1191/300
f 301/1192/301 300/1193/301 305/1194/301
f 271/1195/302 272/1196/302 354/1197/302 349/1198/302
f 273/1199/303 274/1200/303 358/1201/303 353/1202/303
f 274/1203/304 269/1204/304 357/1205/304 358/1206/304
f 352/1207/305 359/1208/305 311/1209/305 310/1210/305
f 270/1211/306 271/1212/306 349/1213/306 350/1214/306
f 272/1215/307 273/1216/307 353/1217/307 354/1218/307
f 306/1219/308 307/1220/308 313/1221/308 312/1222/308
f 308/1223/309 309/1224/309 315/1225/309 314/1226/309
f 310/1227/310 311/1228/310 317/1229/310 316/1230/310
f 307/1231/311 308/1232/311 314/1233/311 313/1234/311
f 309/1235/312 310/1236/312 316/1237/312 315/1238/312
f 311/1239/313 306/1240/313 312/1241/313 317/1242/313
f 313/1243/314 314/1244/314 320/1245/314 319/1246/314
f 315/1247/315 316/1248/315 322/1249/315 321/1250/315
f 317/1251/316 312/1252/316 318/1253/316 323/1254/316
f 312/1255/317 313/1256/317 319/1257/317 318/1258/317
f 314/1259/318 315/1260/318 321/1261/318 320/1262/318
f 316/1263/319 317/1264/319 323/1265/319 322/1266/319
f 318/1267/1 319/1268/1 320/1269/1 321/1270/1 322/1271/1 323/1272/1
f 341/1273/320 338/1274/320 196/1275/320 201/1276/320
f 159/1277/321 160/1278/321 332/1279/321 339/1280/321
f 338/1281/322 333/1282/322 197/1283/322 196/1284/322
f 330/1285/323 333/1286/323 325/1287/323 326/1288/323
f 337/1289/324 334/1290/324 200/1291/324 199/1292/324
f 333/1293/325 330/1294/325 198/1295/325 197/1296/325
f 329/1297/326 328/1298/326 335/1299/326 340/1300/326
f 327/1301/327 326/1302/327 331/1303/327 336/1304/327
f 325/1305/328 324/1306/328 339/1307/328 332/1308/328
f 324/1309/329 329/1310/329 340/1311/329 339/1312/329
f 328/1313/330 327/1314/330 336/1315/330 335/1316/330
f 326/1317/331 325/1318/331 332/1319/331 331/1320/331
f 330/1321/332 337/1322/332 199/1323/332 198/1324/332
f 334/1325/333 337/1326/333 327/1327/333 328/1328/333
f 338/1329/334 341/1330/334 329/1331/334 324/1332/334
f 333/1333/335 338/1334/335 324/1335/335 325/1336/335
f 337/1337/336 330/1338/336 326/1339/336 327/1340/336
f 341/1341/337 334/1342/337 328/1343/337 329/1344/337
f 359/1345/338 356/1346/338 306/1347/338 311/1348/338
f 269/1349/339 270/1350/339 350/1351/339 357/1352/339
f 356/1353/340 351/1354/340 307/1355/340 306/1356/340
f 348/1357/341 351/1358/341 343/1359/341 344/1360/341
f 355/1361/342 352/1362/342 310/1363/342 309/1364/342
f 351/1365/343 348/1366/343 308/1367/343 307/1368/343
f 347/1369/344 346/1370/344 353/1371/344 358/1372/344
f 345/1373/345 344/1374/345 349/1375/345 354/1376/345
f 343/1377/346 342/1378/346 357/1379/346 350/1380/346
f 342/1381/347 347/1382/347 358/1383/347 357/1384/347
f 346/1385/348 345/1386/348 354/1387/348 353/1388/348
f 344/1389/349 343/1390/349 350/1391/349 349/1392/349
f 348/1393/350 355/1394/350 309/1395/350 308/1396/350
f 352/1397/351 355/1398/351 345/1399/351 346/1400/351
f 356/1401/352 359/1402/352 347/1403/352 342/1404/352
f 351/1405/353 356/1406/353 342/1407/353 343/1408/353
f 355/1409/354 348/1410/354 344/1411/354 345/1412/354
f 359/1413/355 352/1414/355 346/1415/355 347/1416/355
f 377/1417/356 374/1418/356 251/1419/356 256/1420/356
f 214/1421/357 215/1422/357 368/1423/357 375/1424/357
f 374/1425/358 369/1426/358 252/1427/358 251/1428/358
f 366/1429/359 369/1430/359 361/1431/359 362/1432/359
f 373/1433/360 370/1434/360 255/1435/360 254/1436/360
f 369/1437/361 366/1438/361 253/1439/361 252/1440/361
f 365/1441/362 364/1442/362 371/1443/362 376/1444/362
f 363/1445/363 362/1446/363 367/1447/363 372/1448/363
f 361/1449/364 360/1450/364 375/1451/364 368/1452/364
f 360/1453/365 365/1454/365 376/1455/365 375/1456/365
f 364/1457/366 363/1458/366 372/1459/366 371/1460/366
f 362/1461/367 361/1462/367 368/1463/367 367/1464/367
f 366/1465/368 373/1466/368 254/1467/368 253/1468/368
f 370/1469/369 373/1470/369 363/1471/369 364/1472/369
f 374/1473/370 377/1474/370 365/1475/370 360/1476/370
f 369/1477/371 374/1478/371 360/1479/371 361/1480/371
f 373/1481/372 366/1482/372 362/1483/372 363/1484/372
f 377/1485/373 370/1486/373 364/1487/373 365/1488/373
f 24/1489/374 23/1490/374 381/1491/374 382/1492/374
f 22/1493/375 21/1494/375 379/1495/375 380/1496/375
f 20/1497/376 19/1498/376 383/1499/376 378/1500/376
f 19/1501/377 24/1502/377 382/1503/377 383/1504/377
f 23/1505/378 22/1506/378 380/1507/378 381/1508/378
f 21/1509/379 20/1510/379 378/1511/379 379/1512/379
f 103/1513/380 102/1514/380 387/1515/380 388/1516/380
f 101/1517/381 100/1518/381 385/1519/381 386/1520/381
f 99/1521/382 98/1522/382 389/1523/382 384/1524/382
f 98/1525/383 103/1526/383 388/1527/383 389/1528/383
f 102/1529/384 101/1530/384 386/1531/384 387/1532/384
f 100/1533/385 99/1534/385 384/1535/385 385/1536/385
f 280/1537/386 279/1538/386 393/1539/386 394/1540/386
f 278/1541/387 277/1542/387 391/1543/387 392/1544/387
f 276/1545/388 275/1546/388 395/1547/388 390/1548/388
f 275/1549/389 280/1550/389 394/1551/389 395/1552/389
f 279/1553/390 278/1554/390 392/1555/390 393/1556/390
f 277/1557/391 276/1558/391 390/1559/391 391/1560/391
f 225/1561/392 224/1562/392 399/1563/392 400/1564/392
f 223/1565/393 222/1566/393 397/1567/393 398/1568/393
f 221/1569/394 220/1570/394 401/1571/394 396/1572/394
f 220/1573/395 225/1574/395 400/1575/395 401/1576/395
f 224/1577/396 223/1578/396 398/1579/396 399/1580/396
f 222/1581/397 221/1582/397 396/1583/397 397/1584/397
f 170/1585/398 169/1586/398 405/1587/398 406/1588/398
f 168/1589/399 167/1590/399 403/1591/399 404/1592/399
f 166/1593/400 165/1594/400 407/1595/400 402/1596/400
f 165/1597/401 170/1598/401 406/1599/401 407/1600/401
f 169/1601/402 168/1602/402 404/1603/402 405/1604/402
f 167/1605/403 166/1606/403 402/1607/403 403/1608/403
