# Blender v2.82 (sub 7) OBJ File: 'low_poly_mushrooms.blend'
# www.blender.org
mtllib milk_mushroom.mtl
o milk_mushroom_Cylinder.038
v 0.088880 0.139976 -0.075142
v -0.010451 0.157339 -0.116695
v -0.026331 0.006270 -0.026331
v -0.037238 0.017936 -0.000000
v -0.029488 0.040486 0.026331
v -0.000000 0.017936 0.037238
v 0.029488 0.009818 0.026331
v 0.037238 0.017936 -0.000000
v 0.026331 0.039133 -0.026782
v -0.000000 0.017936 -0.037238
v -0.000000 -0.000000 -0.041373
v 0.000543 0.079268 -0.041085
v 0.029255 -0.000000 -0.029255
v 0.029475 0.076633 -0.029052
v 0.041373 -0.000000 -0.000000
v 0.041459 0.075542 -0.000000
v 0.029255 -0.000000 0.029255
v 0.029475 0.076633 0.029052
v -0.000000 -0.000000 0.041373
v 0.000543 0.079268 0.041085
v -0.029255 -0.000000 0.029255
v -0.028389 0.081902 0.029052
v -0.041373 -0.000000 -0.000000
v -0.040373 0.082994 -0.000000
v -0.029255 -0.000000 -0.029255
v -0.028389 0.081902 -0.029052
v 0.130025 0.132785 0.000032
v 0.088880 0.139976 0.075206
v -0.010451 0.157339 0.116678
v -0.109782 0.174701 0.096911
v -0.166637 0.181893 -0.000008
v -0.109782 0.174701 -0.096928
v 0.108782 0.119437 -0.091660
v -0.012375 0.155586 -0.142334
v 0.158967 0.125636 0.000032
v 0.108782 0.119437 0.091723
v -0.012375 0.155586 0.142318
v -0.133532 0.161792 0.118207
v -0.199428 0.185535 -0.000008
v -0.133532 0.161792 -0.118224
v 0.149920 0.175153 -0.119493
v -0.008014 0.218270 -0.185537
v 0.215339 0.179229 0.000032
v 0.149920 0.175153 0.119556
v -0.008014 0.218270 0.185521
v -0.165948 0.230365 0.154092
v -0.247078 0.257310 -0.000008
v -0.165948 0.230365 -0.154108
v 0.130624 0.220279 -0.102428
v -0.004761 0.258915 -0.159048
v 0.186703 0.225448 0.000032
v 0.130624 0.220279 0.102491
v -0.004761 0.258915 0.159032
v -0.140146 0.267608 0.132090
v -0.211936 0.292381 -0.000008
v -0.140146 0.267608 -0.132106
v 0.085266 0.245620 -0.066614
v -0.002797 0.275984 -0.103458
v 0.121743 0.254215 0.000032
v 0.085266 0.245620 0.066678
v -0.002797 0.275984 0.103442
v -0.090860 0.276405 0.085917
v -0.143048 0.297752 -0.000008
v -0.090860 0.276405 -0.085933
v 0.024327 0.246402 0.013923
v 0.040756 0.102981 -0.046834
v 0.059795 0.099419 -0.000000
v -0.005209 0.111582 0.066233
v -0.051174 0.120183 0.046834
v -0.051174 0.120183 -0.046834
v -0.005209 0.111582 -0.066233
v 0.040756 0.102981 0.046834
v -0.070213 0.123746 -0.000000
v -0.238597 0.220267 -0.000008
v -0.160590 0.194378 -0.146752
v -0.010195 0.183090 0.176665
v -0.160590 0.194378 0.146736
v 0.202497 0.145914 0.000032
v 0.140201 0.141802 0.113851
v -0.010195 0.183090 -0.176681
v 0.140201 0.141802 -0.113787
v -0.097492 0.151439 -0.000000
vt 0.567206 0.766675
vt 0.554466 0.766675
vt 0.554466 0.779415
vt 0.567206 0.779415
vt 0.580259 0.760149
vt 0.574046 0.760149
vt 0.574046 0.766362
vt 0.580259 0.766362
vt 0.573732 0.760149
vt 0.567519 0.760149
vt 0.567519 0.766362
vt 0.573732 0.766362
vt 0.554153 0.766675
vt 0.541413 0.766675
vt 0.541413 0.779415
vt 0.554153 0.779415
vt 0.476147 0.779415
vt 0.488886 0.779415
vt 0.488886 0.773202
vt 0.476147 0.773202
vt 0.580259 0.753622
vt 0.574046 0.753622
vt 0.574046 0.759835
vt 0.580259 0.759835
vt 0.573732 0.753622
vt 0.567519 0.753622
vt 0.567519 0.759835
vt 0.573732 0.759835
vt 0.976474 0.519661
vt 0.976474 0.506921
vt 0.970261 0.506921
vt 0.970261 0.519661
vt 0.859309 0.571873
vt 0.872048 0.571873
vt 0.872048 0.565660
vt 0.859309 0.565660
vt 0.976474 0.506607
vt 0.976474 0.493868
vt 0.970261 0.493868
vt 0.970261 0.506607
vt 0.846255 0.571873
vt 0.858995 0.571873
vt 0.858995 0.565660
vt 0.846255 0.565660
vt 0.924261 0.559134
vt 0.911522 0.559134
vt 0.911522 0.571873
vt 0.924261 0.571873
vt 0.976474 0.493554
vt 0.976474 0.480814
vt 0.970261 0.480814
vt 0.970261 0.493554
vt 0.449727 0.701409
vt 0.423934 0.701409
vt 0.423934 0.727202
vt 0.449727 0.727202
vt 0.885415 0.565347
vt 0.911208 0.565347
vt 0.911208 0.559134
vt 0.885415 0.559134
vt 0.976474 0.467448
vt 0.976474 0.441655
vt 0.970261 0.441655
vt 0.970261 0.467448
vt 0.509808 0.674989
vt 0.502253 0.667434
vt 0.502253 0.656751
vt 0.509808 0.649196
vt 0.520491 0.649196
vt 0.528046 0.656751
vt 0.528046 0.667434
vt 0.520491 0.674989
vt 0.489200 0.779415
vt 0.501940 0.779415
vt 0.501940 0.773202
vt 0.489200 0.773202
vt 0.573732 0.727202
vt 0.573732 0.701409
vt 0.567519 0.701409
vt 0.567519 0.727202
vt 0.845942 0.493554
vt 0.820306 0.493554
vt 0.845942 0.467918
vt 0.937315 0.571873
vt 0.924732 0.571873
vt 0.937315 0.559291
vt 0.937315 0.533184
vt 0.937315 0.545767
vt 0.911678 0.545767
vt 0.528046 0.623089
vt 0.502253 0.623089
vt 0.502253 0.648882
vt 0.528046 0.648882
vt 0.898468 0.506607
vt 0.924261 0.506607
vt 0.924261 0.493868
vt 0.898468 0.493868
vt 0.911522 0.545610
vt 0.911522 0.533027
vt 0.937158 0.533027
vt 0.924575 0.571717
vt 0.924575 0.559134
vt 0.937158 0.559134
vt 0.723009 0.298591
vt 0.723009 0.272798
vt 0.710270 0.272798
vt 0.710270 0.298591
vt 0.463093 0.772888
vt 0.488886 0.772888
vt 0.488886 0.766675
vt 0.463093 0.766675
vt 0.573732 0.701095
vt 0.573732 0.675303
vt 0.567519 0.675303
vt 0.567519 0.701095
vt 0.436987 0.772888
vt 0.462780 0.772888
vt 0.462780 0.766675
vt 0.436987 0.766675
vt 0.573732 0.674989
vt 0.573732 0.649196
vt 0.567519 0.649196
vt 0.567519 0.674989
vt 0.528360 0.766362
vt 0.554153 0.766362
vt 0.554153 0.760149
vt 0.528360 0.760149
vt 0.560679 0.753308
vt 0.560679 0.727515
vt 0.554466 0.727515
vt 0.554466 0.753308
vt 0.528360 0.759835
vt 0.554153 0.759835
vt 0.554153 0.753622
vt 0.528360 0.753622
vt 0.657743 0.350804
vt 0.657743 0.325011
vt 0.645003 0.325011
vt 0.645003 0.350804
vt 0.658056 0.337751
vt 0.683849 0.337751
vt 0.683849 0.325011
vt 0.658056 0.325011
vt 0.749116 0.272484
vt 0.749116 0.246692
vt 0.736376 0.246692
vt 0.736376 0.272484
vt 0.684163 0.337751
vt 0.709956 0.337751
vt 0.709956 0.325011
vt 0.684163 0.325011
vt 0.749116 0.298591
vt 0.749116 0.272798
vt 0.736376 0.272798
vt 0.736376 0.298591
vt 0.710270 0.337751
vt 0.736062 0.337751
vt 0.736062 0.325011
vt 0.710270 0.325011
vt 0.749116 0.324697
vt 0.749116 0.298905
vt 0.736376 0.298905
vt 0.736376 0.324697
vt 0.618897 0.350804
vt 0.644690 0.350804
vt 0.644690 0.338064
vt 0.618897 0.338064
vt 0.749116 0.350804
vt 0.749116 0.325011
vt 0.736376 0.325011
vt 0.736376 0.350804
vt 0.658056 0.350804
vt 0.683849 0.350804
vt 0.683849 0.338064
vt 0.658056 0.338064
vt 0.762169 0.246378
vt 0.762169 0.220585
vt 0.749429 0.220585
vt 0.749429 0.246378
vt 0.684163 0.350804
vt 0.709956 0.350804
vt 0.709956 0.338064
vt 0.684163 0.338064
vt 0.762169 0.324697
vt 0.762169 0.298905
vt 0.749429 0.298905
vt 0.749429 0.324697
vt 0.618897 0.363857
vt 0.644690 0.363857
vt 0.644690 0.351118
vt 0.618897 0.351118
vt 0.762169 0.272484
vt 0.762169 0.246692
vt 0.749429 0.246692
vt 0.749429 0.272484
vt 0.645003 0.363857
vt 0.670796 0.363857
vt 0.670796 0.351118
vt 0.645003 0.351118
vt 0.671267 0.246378
vt 0.696903 0.246378
vt 0.696903 0.220742
vt 0.670796 0.272798
vt 0.645003 0.272798
vt 0.645003 0.298591
vt 0.670796 0.298591
vt 0.762169 0.298591
vt 0.762169 0.272798
vt 0.749429 0.272798
vt 0.749429 0.298591
vt 0.697216 0.363857
vt 0.723009 0.363857
vt 0.723009 0.351118
vt 0.697216 0.351118
vt 0.670796 0.220585
vt 0.645003 0.220585
vt 0.645003 0.246378
vt 0.670796 0.246378
vt 0.749116 0.246378
vt 0.749116 0.220585
vt 0.736376 0.220585
vt 0.736376 0.246378
vt 0.618897 0.337751
vt 0.644690 0.337751
vt 0.644690 0.325011
vt 0.618897 0.325011
vt 0.736062 0.324697
vt 0.736062 0.298905
vt 0.723323 0.298905
vt 0.723323 0.324697
vt 0.696903 0.272484
vt 0.671267 0.272484
vt 0.696903 0.246848
vt 0.618897 0.272798
vt 0.644533 0.272798
vt 0.618897 0.298434
vt 0.671110 0.220585
vt 0.696746 0.220585
vt 0.671110 0.246221
vt 0.671267 0.298591
vt 0.696903 0.298591
vt 0.696903 0.272955
vt 0.644690 0.220742
vt 0.619054 0.246378
vt 0.644690 0.246378
vt 0.671110 0.246692
vt 0.696746 0.246692
vt 0.671110 0.272328
vt 0.671110 0.272798
vt 0.696746 0.272798
vt 0.671110 0.298434
vt 0.963421 0.546081
vt 0.950681 0.546081
vt 0.950681 0.558820
vt 0.963421 0.558820
vt 0.969948 0.519974
vt 0.957208 0.519974
vt 0.957208 0.532714
vt 0.969948 0.532714
vt 0.969948 0.533027
vt 0.957208 0.533027
vt 0.957208 0.545767
vt 0.969948 0.545767
vt 0.976474 0.480501
vt 0.970418 0.480501
vt 0.976474 0.467918
vt 0.832889 0.559134
vt 0.820149 0.559134
vt 0.820149 0.571873
vt 0.832889 0.571873
vt 0.976474 0.415548
vt 0.963735 0.415548
vt 0.963735 0.428288
vt 0.976474 0.428288
vt 0.976474 0.428601
vt 0.963735 0.428601
vt 0.963735 0.441341
vt 0.976474 0.441341
vt 0.976318 0.467761
vt 0.970261 0.467761
vt 0.970261 0.480344
vt 0.671110 0.363857
vt 0.696903 0.363857
vt 0.696903 0.351118
vt 0.671110 0.351118
vt 0.736062 0.272484
vt 0.736062 0.246692
vt 0.723323 0.246692
vt 0.723323 0.272484
vt 0.697216 0.324697
vt 0.723009 0.324697
vt 0.723009 0.311958
vt 0.697216 0.311958
vt 0.736062 0.246378
vt 0.736062 0.220585
vt 0.723323 0.220585
vt 0.723323 0.246378
vt 0.671110 0.311644
vt 0.696903 0.311644
vt 0.696903 0.298905
vt 0.671110 0.298905
vt 0.709956 0.298591
vt 0.709956 0.272798
vt 0.697216 0.272798
vt 0.697216 0.298591
vt 0.671110 0.324697
vt 0.696903 0.324697
vt 0.696903 0.311958
vt 0.671110 0.311958
vt 0.736062 0.298591
vt 0.736062 0.272798
vt 0.723323 0.272798
vt 0.723323 0.298591
vt 0.449727 0.649353
vt 0.424090 0.674989
vt 0.449727 0.674989
vt 0.475833 0.701566
vt 0.450197 0.727202
vt 0.475833 0.727202
vt 0.437144 0.779415
vt 0.449727 0.773359
vt 0.449727 0.779415
vt 0.449570 0.773202
vt 0.436987 0.773202
vt 0.436987 0.779258
vt 0.450040 0.727045
vt 0.475676 0.701409
vt 0.450040 0.701409
vt 0.449570 0.623089
vt 0.423934 0.623089
vt 0.423934 0.648726
vt 0.423934 0.649196
vt 0.423934 0.674832
vt 0.449570 0.649196
vt 0.475833 0.649196
vt 0.450040 0.649196
vt 0.450040 0.674989
vt 0.475833 0.674989
vn 0.9334 0.1300 -0.3344
vn 0.9205 0.1667 0.3534
vn 0.3824 0.2248 0.8963
vn -0.3250 0.1122 0.9390
vn -0.9484 0.0787 0.3071
vn -0.8572 0.3005 -0.4181
vn -0.4181 0.3005 -0.8572
vn 0.3965 -0.0714 -0.9153
vn 0.9106 -0.0802 -0.4054
vn 0.9428 -0.0391 0.3310
vn 0.3572 -0.0493 0.9327
vn -0.3846 -0.0528 0.9216
vn -0.9383 -0.0268 0.3447
vn 0.4367 -0.8514 -0.2905
vn -0.9267 -0.0414 -0.3735
vn -0.3762 -0.0485 -0.9253
vn 0.0000 -1.0000 0.0000
vn 0.3319 0.1253 -0.9350
vn -0.4216 -0.8783 -0.2255
vn -0.3503 -0.8095 0.4712
vn -0.3840 -0.7035 -0.5980
vn 0.1483 -0.7249 -0.6727
vn 0.4365 -0.8515 0.2904
vn -0.6436 -0.7537 0.1335
vn 0.1521 -0.7184 0.6788
vn -0.6933 -0.6830 -0.2299
vn -0.8790 -0.2097 -0.4282
vn -0.3472 -0.8821 0.3184
vn -0.0382 -0.9477 0.3170
vn 0.0883 -0.9776 -0.1910
vn -0.3471 -0.8821 -0.3185
vn -0.4216 -0.8783 0.2255
vn 0.0883 -0.9776 0.1910
vn -0.0382 -0.9477 -0.3170
vn 0.4485 0.4699 0.7603
vn -0.2066 -0.2261 0.9520
vn 0.8355 -0.3209 0.4460
vn 0.3148 -0.2493 -0.9159
vn -0.2066 -0.2261 -0.9520
vn -0.8790 -0.2097 0.4282
vn 0.3144 -0.2492 0.9160
vn 0.8355 -0.3209 -0.4460
vn -0.0086 0.9702 -0.2423
vn 0.7606 0.4807 -0.4363
vn -0.6132 0.6523 -0.4455
vn -0.1239 0.5573 0.8210
vn 0.7606 0.4807 0.4363
vn 0.4488 0.4699 -0.7601
vn -0.1239 0.5573 -0.8210
vn -0.6132 0.6523 0.4455
vn 0.0634 0.9532 -0.2958
vn -0.0297 0.9744 0.2230
vn 0.3757 0.8958 0.2373
vn 0.3533 0.8968 -0.2664
vn -0.0297 0.9744 -0.2230
vn -0.0086 0.9702 0.2423
vn 0.3533 0.8968 0.2664
vn 0.3758 0.8958 -0.2372
vn -0.0666 0.9936 0.0917
vn 0.2519 0.9506 0.1814
vn 0.0510 0.9711 0.2330
vn 0.2880 0.9556 0.0625
vn 0.2235 0.9436 -0.2441
vn -0.0908 0.9928 -0.0783
vn 0.2971 0.9532 -0.0563
vn -0.7691 -0.5749 -0.2792
vn 0.2363 -0.5882 0.7734
vn -0.7691 -0.5749 0.2792
vn 0.7627 -0.5529 0.3354
vn 0.2363 -0.5882 -0.7734
vn -0.3864 -0.5882 -0.7104
vn -0.3864 -0.5882 0.7104
vn 0.7627 -0.5529 -0.3354
vn 0.4402 -0.8760 -0.1970
vn 0.0511 -0.7635 0.6438
vn -0.6488 -0.7297 0.2157
vn -0.1760 -0.7455 -0.6429
vn 0.0514 -0.7636 -0.6437
vn 0.4402 -0.8760 0.1970
vn -0.1760 -0.7455 0.6429
vn -0.6488 -0.7297 -0.2157
vn 0.1543 -0.7238 0.6725
vn -0.2539 -0.7294 0.6352
vn 0.7441 -0.5714 0.3460
vn 0.7441 -0.5714 -0.3460
vn 0.1566 -0.7206 -0.6755
vn -0.2498 -0.7870 -0.5642
vn -0.3975 -0.9024 0.1662
vn -0.5100 -0.8488 -0.1390
usemtl low_poly_mushrooms_texture_atlas
s off
f 13/1/1 9/2/1 8/3/1 15/4/1
f 15/5/2 8/6/2 7/7/2 17/8/2
f 17/9/3 7/10/3 6/11/3 19/12/3
f 19/13/4 6/14/4 5/15/4 21/16/4
f 21/17/5 5/18/5 4/19/5 23/20/5
f 23/21/6 4/22/6 3/23/6 25/24/6
f 25/25/7 3/26/7 10/27/7 11/28/7
f 10/29/8 12/30/8 14/31/8 9/32/8
f 9/33/9 14/34/9 16/35/9 8/36/9
f 8/37/10 16/38/10 18/39/10 7/40/10
f 7/41/11 18/42/11 20/43/11 6/44/11
f 6/45/12 20/46/12 22/47/12 5/48/12
f 5/49/13 22/50/13 24/51/13 4/52/13
f 67/53/14 66/54/14 1/55/14 27/56/14
f 4/57/15 24/58/15 26/59/15 3/60/15
f 3/61/16 26/62/16 12/63/16 10/64/16
f 11/65/17 13/66/17 15/67/17 17/68/17 19/69/17 21/70/17 23/71/17 25/72/17
f 11/73/18 10/74/18 9/75/18 13/76/18
f 28/77/19 27/78/19 35/79/19 36/80/19
f 69/81/20 68/82/20 30/83/20
f 71/84/21 70/85/21 2/86/21
f 66/87/22 71/88/22 2/89/22
f 72/90/23 67/91/23 27/92/23 28/93/23
f 73/94/24 69/95/24 30/96/24 82/97/24
f 68/98/25 72/99/25 28/100/25
f 70/101/26 73/102/26 82/103/26
f 75/104/27 74/105/27 47/106/27 48/107/27
f 1/108/28 2/109/28 34/110/28 33/111/28
f 2/112/29 32/113/29 40/114/29 34/115/29
f 31/116/30 30/117/30 38/118/30 39/119/30
f 29/120/31 28/121/31 36/122/31 37/123/31
f 27/124/32 1/125/32 33/126/32 35/127/32
f 32/128/33 31/129/33 39/130/33 40/131/33
f 30/132/34 29/133/34 37/134/34 38/135/34
f 45/136/35 44/137/35 52/138/35 53/139/35
f 77/140/36 76/141/36 45/142/36 46/143/36
f 79/144/37 78/145/37 43/146/37 44/147/37
f 81/148/38 80/149/38 42/150/38 41/151/38
f 80/152/39 75/153/39 48/154/39 42/155/39
f 74/156/40 77/157/40 46/158/40 47/159/40
f 76/160/41 79/161/41 44/162/41 45/163/41
f 78/164/42 81/165/42 41/166/42 43/167/42
f 50/168/43 56/169/43 64/170/43 58/171/43
f 43/172/44 41/173/44 49/174/44 51/175/44
f 48/176/45 47/177/45 55/178/45 56/179/45
f 46/180/46 45/181/46 53/182/46 54/183/46
f 44/184/47 43/185/47 51/186/47 52/187/47
f 41/188/48 42/189/48 50/190/48 49/191/48
f 42/192/49 48/193/49 56/194/49 50/195/49
f 47/196/50 46/197/50 54/198/50 55/199/50
f 62/200/51 61/201/51 65/202/51
f 55/203/52 54/204/52 62/205/52 63/206/52
f 53/207/53 52/208/53 60/209/53 61/210/53
f 51/211/54 49/212/54 57/213/54 59/214/54
f 56/215/55 55/216/55 63/217/55 64/218/55
f 54/219/56 53/220/56 61/221/56 62/222/56
f 52/223/57 51/224/57 59/225/57 60/226/57
f 49/227/58 50/228/58 58/229/58 57/230/58
f 60/231/59 59/232/59 65/233/59
f 57/234/60 58/235/60 65/236/60
f 58/237/61 64/238/61 65/239/61
f 63/240/62 62/241/62 65/242/62
f 61/243/63 60/244/63 65/245/63
f 59/246/64 57/247/64 65/248/64
f 64/249/65 63/250/65 65/251/65
f 26/252/66 24/253/66 73/254/66 70/255/66
f 20/256/67 18/257/67 72/258/67 68/259/67
f 24/260/68 22/261/68 69/262/68 73/263/68
f 18/264/69 16/265/69 72/266/69
f 14/267/70 12/268/70 71/269/70 66/270/70
f 12/271/71 26/272/71 70/273/71 71/274/71
f 22/275/72 20/276/72 68/277/72 69/278/72
f 16/279/73 14/280/73 66/281/73
f 35/282/74 33/283/74 81/284/74 78/285/74
f 37/286/75 36/287/75 79/288/75 76/289/75
f 39/290/76 38/291/76 77/292/76 74/293/76
f 34/294/77 40/295/77 75/296/77 80/297/77
f 33/298/78 34/299/78 80/300/78 81/301/78
f 36/302/79 35/303/79 78/304/79 79/305/79
f 38/306/80 37/307/80 76/308/80 77/309/80
f 40/310/81 39/311/81 74/312/81 75/313/81
f 28/314/82 29/315/82 68/316/82
f 30/317/83 68/318/83 29/319/83
f 72/320/84 16/321/84 67/322/84
f 66/323/85 67/324/85 16/325/85
f 2/326/86 1/327/86 66/328/86
f 2/329/87 70/330/87 32/331/87
f 82/332/88 30/333/88 31/334/88
f 82/335/89 31/336/89 32/337/89 70/338/89
