# Blender v2.82 (sub 7) OBJ File: 'low_poly_mushrooms.blend'
# www.blender.org
mtllib moss-fly_mushroom.mtl
o moss-fly_mushroom_Cylinder.013
v -0.026915 0.000157 -0.081325
v -0.108503 0.184386 -0.079252
v 0.011813 0.000157 -0.058965
v -0.081797 0.193322 -0.065974
v 0.011813 0.000157 -0.014246
v -0.081797 0.204233 -0.036813
v -0.026915 0.000157 0.008114
v -0.108503 0.206208 -0.020931
v -0.065643 0.000157 -0.014246
v -0.135210 0.197272 -0.034209
v -0.065643 0.000157 -0.058965
v -0.135210 0.186361 -0.063369
v -0.072169 0.064913 -0.066426
v -0.048483 0.075205 -0.051516
v -0.048483 0.075205 -0.021695
v -0.072169 0.064913 -0.006785
v -0.095854 0.054620 -0.021695
v -0.095854 0.054620 -0.051516
v -0.095027 0.127995 -0.059720
v -0.075471 0.132270 -0.048163
v -0.075471 0.132270 -0.025049
v -0.095027 0.127995 -0.013492
v -0.114582 0.123721 -0.025049
v -0.114582 0.123721 -0.048163
v -0.125221 0.213959 -0.186336
v -0.013071 0.244634 -0.133183
v -0.013071 0.287060 -0.019795
v -0.125221 0.298811 0.040439
v -0.220760 0.259992 -0.009667
v -0.220760 0.217566 -0.123055
v -0.132386 0.247850 -0.148481
v -0.063041 0.269614 -0.117262
v -0.063041 0.295453 -0.048204
v -0.132386 0.299529 -0.010366
v -0.189533 0.278968 -0.042035
v -0.189533 0.253129 -0.111093
v -0.134118 0.285496 -0.083841
v -0.124490 0.169678 -0.194372
v -0.123312 0.171081 -0.201728
v 0.012511 0.212994 -0.135268
v 0.004056 0.206385 -0.123878
v 0.012511 0.264627 0.002725
v 0.004056 0.252490 -0.000659
v -0.125339 0.284618 0.066238
v -0.123531 0.271073 0.060324
v -0.231024 0.229465 0.015859
v -0.216855 0.222206 0.010672
v -0.231024 0.177847 -0.122095
v -0.216855 0.176102 -0.112546
v 0.036862 0.000157 0.020905
v 0.008383 0.000157 0.004462
v 0.008383 0.000157 -0.028423
v 0.036862 0.000157 -0.044865
v 0.065341 0.000157 -0.028423
v 0.065341 0.000157 0.004462
v 0.070702 0.098127 0.005517
v 0.047620 0.100679 -0.007891
v 0.047620 0.100679 -0.034705
v 0.070702 0.098127 -0.048113
v 0.093783 0.095575 -0.034705
v 0.093783 0.095575 -0.007891
v 0.082172 0.206061 -0.004925
v 0.062736 0.202548 -0.016157
v 0.063101 0.198547 -0.038520
v 0.082903 0.198059 -0.049651
v 0.102339 0.201572 -0.038419
v 0.101973 0.205573 -0.016056
v 0.067859 0.307952 -0.022418
v 0.053078 0.305902 -0.031616
v 0.053078 0.307833 -0.049357
v 0.067859 0.311816 -0.057899
v 0.082640 0.313867 -0.048700
v 0.082640 0.311935 -0.030959
v 0.064594 0.317450 0.046914
v -0.004992 0.300439 0.001686
v -0.004992 0.309776 -0.084049
v 0.064595 0.336123 -0.124556
v 0.134181 0.353135 -0.079328
v 0.134181 0.343798 0.006408
v 0.057831 0.341950 0.044884
v -0.007070 0.333351 0.003323
v -0.007070 0.342161 -0.077569
v 0.055058 0.356796 -0.116902
v 0.123243 0.375325 -0.073958
v 0.123243 0.366515 0.006935
v 0.048622 0.367888 0.019597
v 0.006427 0.364365 -0.007506
v 0.006427 0.370116 -0.060318
v 0.048622 0.379391 -0.086027
v 0.092156 0.396825 -0.057410
v 0.092156 0.391074 -0.004597
v 0.042250 0.387399 -0.031717
v 0.124806 0.342211 -0.073757
v 0.124806 0.334221 -0.000389
v 0.005570 0.297651 -0.004372
v 0.005571 0.305641 -0.077739
v 0.065188 0.327921 -0.112431
v 0.065188 0.311941 0.034303
v -0.002392 0.000157 0.081411
v 0.011515 0.167339 0.121416
v -0.018724 0.000157 0.059066
v -0.005783 0.175449 0.100600
v -0.007538 0.000157 0.033749
v 0.004911 0.185350 0.076395
v 0.019980 0.000157 0.030778
v 0.032904 0.187142 0.073006
v 0.036312 0.000157 0.053123
v 0.050203 0.179033 0.093822
v 0.025126 0.000157 0.078440
v 0.039508 0.169132 0.118027
v 0.004168 0.067882 0.079055
v -0.009179 0.074303 0.061931
v -0.000467 0.077100 0.041221
v 0.021593 0.073476 0.037635
v 0.034941 0.067055 0.054760
v 0.026228 0.064258 0.075470
v 0.009464 0.122568 0.090965
v -0.002997 0.130033 0.074720
v 0.005811 0.134058 0.055198
v 0.027078 0.130619 0.051920
v 0.039539 0.123155 0.068165
v 0.030732 0.119129 0.087688
v -0.013881 0.194177 0.216434
v -0.087478 0.222013 0.131182
v -0.045893 0.260513 0.037064
v 0.069289 0.271177 0.028197
v 0.130215 0.235950 0.104827
v 0.088631 0.197450 0.198945
v 0.005949 0.224932 0.187639
v -0.040161 0.244682 0.136293
v -0.014834 0.268130 0.078971
v 0.056603 0.271829 0.072995
v 0.092424 0.253170 0.120242
v 0.067097 0.229722 0.177564
v 0.031094 0.259094 0.134620
v -0.017435 0.153993 0.222835
v -0.021111 0.155266 0.228509
v -0.109478 0.193301 0.123531
v -0.098283 0.187304 0.117177
v -0.058869 0.240156 0.008988
v -0.053092 0.229142 0.014898
v 0.078849 0.258297 0.006825
v 0.075179 0.246006 0.011071
v 0.148097 0.208248 0.087403
v 0.134434 0.201660 0.086512
v 0.097502 0.161406 0.201913
v 0.089243 0.159822 0.188791
vt 0.070043 0.364287
vt 0.061352 0.364287
vt 0.061352 0.372979
vt 0.070043 0.372979
vt 0.178016 0.256315
vt 0.169324 0.256315
vt 0.169324 0.265006
vt 0.178016 0.265006
vt 0.043356 0.354983
vt 0.061046 0.354983
vt 0.061046 0.346292
vt 0.043356 0.346292
vt 0.160020 0.256009
vt 0.160020 0.238320
vt 0.151329 0.238320
vt 0.151329 0.256009
vt 0.043050 0.256315
vt 0.025361 0.256315
vt 0.025361 0.274004
vt 0.043050 0.274004
vt 0.025361 0.354983
vt 0.043050 0.354983
vt 0.043050 0.346292
vt 0.025361 0.346292
vt 0.178016 0.247317
vt 0.169324 0.247317
vt 0.169324 0.256009
vt 0.178016 0.256009
vt 0.061046 0.260737
vt 0.061046 0.269582
vt 0.052201 0.274004
vt 0.043356 0.269582
vt 0.043356 0.260737
vt 0.052201 0.256315
vt 0.151022 0.345986
vt 0.151022 0.328296
vt 0.142331 0.328296
vt 0.142331 0.345986
vt 0.043050 0.364287
vt 0.034359 0.364287
vt 0.034359 0.372979
vt 0.043050 0.372979
vt 0.079347 0.309995
vt 0.097036 0.309995
vt 0.097036 0.301303
vt 0.079347 0.301303
vt 0.115032 0.256009
vt 0.115032 0.238320
vt 0.106340 0.238320
vt 0.106340 0.256009
vt 0.061352 0.309995
vt 0.079041 0.309995
vt 0.079041 0.301303
vt 0.061352 0.301303
vt 0.115032 0.238013
vt 0.115032 0.220324
vt 0.106340 0.220324
vt 0.106340 0.238013
vt 0.043356 0.309995
vt 0.061046 0.309995
vt 0.061046 0.301303
vt 0.043356 0.301303
vt 0.088039 0.291999
vt 0.088039 0.274310
vt 0.079347 0.274310
vt 0.079347 0.291999
vt 0.025361 0.300997
vt 0.043050 0.300997
vt 0.043050 0.292306
vt 0.025361 0.292306
vt 0.034053 0.364287
vt 0.025361 0.364287
vt 0.025361 0.372979
vt 0.034053 0.372979
vt 0.169018 0.355290
vt 0.160326 0.355290
vt 0.160326 0.363981
vt 0.169018 0.363981
vt 0.169018 0.346292
vt 0.160326 0.346292
vt 0.160326 0.354983
vt 0.169018 0.354983
vt 0.502249 0.857669
vt 0.502249 0.839980
vt 0.493558 0.839980
vt 0.493558 0.857669
vt 0.457567 0.902657
vt 0.475256 0.902657
vt 0.475256 0.893966
vt 0.457567 0.893966
vt 0.502249 0.875664
vt 0.502249 0.857975
vt 0.493558 0.857975
vt 0.493558 0.875664
vt 0.475563 0.902657
vt 0.493252 0.902657
vt 0.493252 0.893966
vt 0.475563 0.893966
vt 0.502249 0.893660
vt 0.502249 0.875970
vt 0.493558 0.875970
vt 0.493558 0.893660
vt 0.421576 0.911655
vt 0.439266 0.911655
vt 0.439266 0.902964
vt 0.421576 0.902964
vt 0.097036 0.256315
vt 0.079347 0.256315
vt 0.079347 0.274004
vt 0.097036 0.274004
vt 0.079041 0.274310
vt 0.061352 0.274310
vt 0.061352 0.291999
vt 0.079041 0.291999
vt 0.097036 0.238320
vt 0.079347 0.238320
vt 0.079347 0.256009
vt 0.097036 0.256009
vt 0.061046 0.274310
vt 0.043356 0.274310
vt 0.043356 0.291999
vt 0.061046 0.291999
vt 0.097036 0.220324
vt 0.079347 0.220324
vt 0.079347 0.238013
vt 0.097036 0.238013
vt 0.439266 0.839674
vt 0.439266 0.822137
vt 0.421730 0.839674
vt 0.511247 0.875664
vt 0.511247 0.857975
vt 0.502556 0.857975
vt 0.502556 0.875664
vt 0.493558 0.902657
vt 0.511247 0.902657
vt 0.511247 0.893966
vt 0.493558 0.893966
vt 0.511247 0.893660
vt 0.511247 0.875970
vt 0.502556 0.875970
vt 0.502556 0.893660
vt 0.493558 0.911655
vt 0.511247 0.911655
vt 0.511247 0.902964
vt 0.493558 0.902964
vt 0.520245 0.839674
vt 0.520245 0.821984
vt 0.511553 0.821984
vt 0.511553 0.839674
vt 0.439266 0.840133
vt 0.439266 0.857669
vt 0.421730 0.857669
vt 0.439112 0.821984
vt 0.421576 0.821984
vt 0.421576 0.839520
vt 0.475256 0.857669
vt 0.457720 0.857669
vt 0.475256 0.840133
vt 0.421576 0.839980
vt 0.439112 0.839980
vt 0.421576 0.857516
vt 0.457567 0.857516
vt 0.475103 0.839980
vt 0.457567 0.839980
vt 0.421576 0.920653
vt 0.439266 0.920653
vt 0.439266 0.911961
vt 0.421576 0.911961
vt 0.520245 0.857669
vt 0.520245 0.839980
vt 0.511553 0.839980
vt 0.511553 0.857669
vt 0.439572 0.920653
vt 0.457261 0.920653
vt 0.457261 0.911961
vt 0.439572 0.911961
vt 0.520245 0.875664
vt 0.520245 0.857975
vt 0.511553 0.857975
vt 0.511553 0.875664
vt 0.457567 0.920653
vt 0.475256 0.920653
vt 0.475256 0.911961
vt 0.457567 0.911961
vt 0.520245 0.893660
vt 0.520245 0.875970
vt 0.511553 0.875970
vt 0.511553 0.893660
vt 0.475563 0.920653
vt 0.493252 0.920653
vt 0.493252 0.911961
vt 0.475563 0.911961
vt 0.160020 0.357462
vt 0.160020 0.361808
vt 0.155674 0.363981
vt 0.151329 0.361808
vt 0.151329 0.357462
vt 0.155674 0.355290
vt 0.124029 0.309995
vt 0.124029 0.292306
vt 0.115338 0.292306
vt 0.115338 0.309995
vt 0.097343 0.354983
vt 0.115032 0.354983
vt 0.115032 0.346292
vt 0.097343 0.346292
vt 0.133027 0.238013
vt 0.133027 0.220324
vt 0.124336 0.220324
vt 0.124336 0.238013
vt 0.043356 0.327990
vt 0.061046 0.327990
vt 0.061046 0.319299
vt 0.043356 0.319299
vt 0.133027 0.256009
vt 0.133027 0.238320
vt 0.124336 0.238320
vt 0.124336 0.256009
vt 0.061352 0.327990
vt 0.079041 0.327990
vt 0.079041 0.319299
vt 0.061352 0.319299
vt 0.133027 0.256315
vt 0.124336 0.256315
vt 0.124336 0.274004
vt 0.133027 0.274004
vt 0.097036 0.327990
vt 0.097036 0.319299
vt 0.079347 0.319299
vt 0.079347 0.327990
vt 0.133027 0.274310
vt 0.124336 0.274310
vt 0.124336 0.291999
vt 0.133027 0.291999
vt 0.115032 0.327990
vt 0.115032 0.319299
vt 0.097343 0.319299
vt 0.097343 0.327990
vt 0.133027 0.292306
vt 0.124336 0.292306
vt 0.124336 0.309995
vt 0.133027 0.309995
vt 0.133027 0.318993
vt 0.133027 0.310301
vt 0.115338 0.310301
vt 0.115338 0.318993
vt 0.142025 0.220324
vt 0.133333 0.220324
vt 0.133333 0.238013
vt 0.142025 0.238013
vt 0.133027 0.327990
vt 0.133027 0.319299
vt 0.115338 0.319299
vt 0.115338 0.327990
vt 0.142025 0.238320
vt 0.133333 0.238320
vt 0.133333 0.256009
vt 0.142025 0.256009
vt 0.043050 0.336988
vt 0.043050 0.328296
vt 0.025361 0.328296
vt 0.025361 0.336988
vt 0.142025 0.256315
vt 0.133333 0.256315
vt 0.133333 0.274004
vt 0.142025 0.274004
vt 0.061046 0.336988
vt 0.061046 0.328296
vt 0.043356 0.328296
vt 0.043356 0.336988
vt 0.538240 0.893660
vt 0.538240 0.875970
vt 0.529549 0.875970
vt 0.529549 0.893660
vt 0.457567 0.938648
vt 0.475256 0.938648
vt 0.475256 0.929957
vt 0.457567 0.929957
vt 0.538240 0.911655
vt 0.538240 0.893966
vt 0.529549 0.893966
vt 0.529549 0.911655
vt 0.475563 0.938648
vt 0.493252 0.938648
vt 0.493252 0.929957
vt 0.475563 0.929957
vt 0.538240 0.929650
vt 0.538240 0.911961
vt 0.529549 0.911961
vt 0.529549 0.929650
vt 0.493558 0.938648
vt 0.511247 0.938648
vt 0.511247 0.929957
vt 0.493558 0.929957
vt 0.547238 0.839674
vt 0.547238 0.821984
vt 0.538546 0.821984
vt 0.538546 0.839674
vt 0.511553 0.938648
vt 0.529242 0.938648
vt 0.529242 0.929957
vt 0.511553 0.929957
vt 0.547238 0.857669
vt 0.547238 0.839980
vt 0.538546 0.839980
vt 0.538546 0.857669
vt 0.421576 0.947646
vt 0.439266 0.947646
vt 0.439266 0.938954
vt 0.421576 0.938954
vt 0.547238 0.875664
vt 0.547238 0.857975
vt 0.538546 0.857975
vt 0.538546 0.875664
vt 0.439572 0.947646
vt 0.457261 0.947646
vt 0.457261 0.938954
vt 0.439572 0.938954
vt 0.547238 0.956950
vt 0.538546 0.956950
vt 0.538546 0.965641
vt 0.547238 0.965641
vt 0.565233 0.938954
vt 0.556542 0.938954
vt 0.556542 0.947646
vt 0.565233 0.947646
vt 0.538240 0.956950
vt 0.529549 0.956950
vt 0.529549 0.965641
vt 0.538240 0.965641
vt 0.565233 0.929957
vt 0.556542 0.929957
vt 0.556542 0.938648
vt 0.565233 0.938648
vt 0.529242 0.956950
vt 0.520551 0.956950
vt 0.520551 0.965641
vt 0.529242 0.965641
vt 0.565233 0.920959
vt 0.556542 0.920959
vt 0.556542 0.929650
vt 0.565233 0.929650
vt 0.457261 0.974639
vt 0.457261 0.966101
vt 0.448723 0.974639
vt 0.574231 0.840133
vt 0.574231 0.848671
vt 0.565693 0.848671
vt 0.457108 0.965947
vt 0.448569 0.965947
vt 0.448569 0.974486
vt 0.574078 0.839980
vt 0.565539 0.848518
vt 0.565539 0.839980
vt 0.439725 0.974639
vt 0.448263 0.974639
vt 0.448263 0.966101
vt 0.439572 0.965947
vt 0.448110 0.965947
vt 0.439572 0.974486
vt 0.124029 0.355290
vt 0.115338 0.355290
vt 0.115338 0.363981
vt 0.124029 0.363981
vt 0.169018 0.310301
vt 0.160326 0.310301
vt 0.160326 0.318993
vt 0.169018 0.318993
vt 0.169018 0.301303
vt 0.160326 0.301303
vt 0.160326 0.309995
vt 0.169018 0.309995
vt 0.115032 0.355290
vt 0.106340 0.355290
vt 0.106340 0.363981
vt 0.115032 0.363981
vt 0.169018 0.292306
vt 0.160326 0.292306
vt 0.160326 0.300997
vt 0.169018 0.300997
vt 0.106034 0.355290
vt 0.097343 0.355290
vt 0.097343 0.363981
vt 0.106034 0.363981
vt 0.169018 0.283308
vt 0.160326 0.283308
vt 0.160326 0.291999
vt 0.169018 0.291999
vt 0.097036 0.355290
vt 0.088345 0.355290
vt 0.088345 0.363981
vt 0.097036 0.363981
vt 0.169018 0.274310
vt 0.160326 0.274310
vt 0.160326 0.283002
vt 0.169018 0.283002
vt 0.088039 0.355290
vt 0.079347 0.355290
vt 0.079347 0.363981
vt 0.088039 0.363981
vt 0.043050 0.274310
vt 0.025361 0.274310
vt 0.025361 0.291999
vt 0.043050 0.291999
vt 0.169018 0.265313
vt 0.160326 0.265313
vt 0.160326 0.274004
vt 0.169018 0.274004
vt 0.079041 0.355290
vt 0.070350 0.355290
vt 0.070350 0.363981
vt 0.079041 0.363981
vt 0.061352 0.357462
vt 0.065698 0.355290
vt 0.070043 0.357462
vt 0.070043 0.361808
vt 0.065698 0.363981
vt 0.061352 0.361808
vt 0.169018 0.220324
vt 0.160326 0.220324
vt 0.160326 0.229016
vt 0.169018 0.229016
vt 0.160020 0.346292
vt 0.151329 0.346292
vt 0.151329 0.354983
vt 0.160020 0.354983
vt 0.160020 0.345986
vt 0.160020 0.328296
vt 0.151329 0.328296
vt 0.151329 0.345986
vt 0.025361 0.363981
vt 0.043050 0.363981
vt 0.043050 0.355290
vt 0.025361 0.355290
vt 0.160020 0.327990
vt 0.160020 0.310301
vt 0.151329 0.310301
vt 0.151329 0.327990
vt 0.133333 0.354983
vt 0.151022 0.354983
vt 0.151022 0.346292
vt 0.133333 0.346292
vt 0.169018 0.229322
vt 0.160326 0.229322
vt 0.160326 0.238013
vt 0.169018 0.238013
vt 0.169018 0.238320
vt 0.160326 0.238320
vt 0.160326 0.247011
vt 0.169018 0.247011
vt 0.052048 0.355290
vt 0.043356 0.355290
vt 0.043356 0.363981
vt 0.052048 0.363981
vt 0.169018 0.247317
vt 0.160326 0.247317
vt 0.160326 0.256009
vt 0.169018 0.256009
vt 0.061046 0.355290
vt 0.052354 0.355290
vt 0.052354 0.363981
vt 0.061046 0.363981
vt 0.169018 0.256315
vt 0.160326 0.256315
vt 0.160326 0.265006
vt 0.169018 0.265006
vt 0.556235 0.911655
vt 0.556235 0.893966
vt 0.547544 0.893966
vt 0.547544 0.911655
vt 0.511553 0.956643
vt 0.529242 0.956643
vt 0.529242 0.947952
vt 0.511553 0.947952
vt 0.556235 0.893660
vt 0.556235 0.875970
vt 0.547544 0.875970
vt 0.547544 0.893660
vt 0.475563 0.956643
vt 0.493252 0.956643
vt 0.493252 0.947952
vt 0.475563 0.947952
vt 0.556235 0.875664
vt 0.556235 0.857975
vt 0.547544 0.857975
vt 0.547544 0.875664
vt 0.457567 0.956643
vt 0.475256 0.956643
vt 0.475256 0.947952
vt 0.457567 0.947952
vt 0.061046 0.220324
vt 0.043356 0.220324
vt 0.043356 0.238013
vt 0.061046 0.238013
vt 0.061046 0.238320
vt 0.043356 0.238320
vt 0.043356 0.256009
vt 0.061046 0.256009
vt 0.079041 0.220324
vt 0.061352 0.220324
vt 0.061352 0.238013
vt 0.079041 0.238013
vt 0.160020 0.220324
vt 0.151329 0.220324
vt 0.151329 0.238013
vt 0.160020 0.238013
vt 0.079041 0.256315
vt 0.061352 0.256315
vt 0.061352 0.274004
vt 0.079041 0.274004
vt 0.574231 0.839674
vt 0.574231 0.831135
vt 0.565693 0.839674
vt 0.511553 0.947646
vt 0.529242 0.947646
vt 0.529242 0.938954
vt 0.511553 0.938954
vt 0.538240 0.947646
vt 0.538240 0.929957
vt 0.529549 0.929957
vt 0.529549 0.947646
vt 0.493558 0.947646
vt 0.511247 0.947646
vt 0.511247 0.938954
vt 0.493558 0.938954
vt 0.547238 0.929650
vt 0.547238 0.911961
vt 0.538546 0.911961
vt 0.538546 0.929650
vt 0.475563 0.947646
vt 0.493252 0.947646
vt 0.493252 0.938954
vt 0.475563 0.938954
vt 0.421730 0.929650
vt 0.439266 0.929650
vt 0.439266 0.921112
vt 0.565693 0.830676
vt 0.574231 0.830676
vt 0.574231 0.822137
vt 0.565539 0.830982
vt 0.574078 0.830982
vt 0.565539 0.839520
vt 0.421576 0.920959
vt 0.421576 0.929497
vt 0.439112 0.920959
vt 0.565539 0.830523
vt 0.574078 0.821984
vt 0.565539 0.821984
vt 0.547238 0.911655
vt 0.547238 0.893966
vt 0.538546 0.893966
vt 0.538546 0.911655
vt 0.457567 0.947646
vt 0.475256 0.947646
vt 0.475256 0.938954
vt 0.457567 0.938954
vt 0.547238 0.893660
vt 0.547238 0.875970
vt 0.538546 0.875970
vt 0.538546 0.893660
vt 0.493558 0.920653
vt 0.511247 0.920653
vt 0.511247 0.911961
vt 0.493558 0.911961
vt 0.502249 0.839674
vt 0.502249 0.821984
vt 0.493558 0.821984
vt 0.493558 0.839674
vt 0.439572 0.902657
vt 0.457261 0.902657
vt 0.457261 0.893966
vt 0.439572 0.893966
vt 0.493252 0.893660
vt 0.493252 0.875970
vt 0.484560 0.875970
vt 0.484560 0.893660
vn 0.5051 -0.1830 -0.8435
vn 0.9957 0.0905 -0.0189
vn 0.4959 0.1742 0.8507
vn -0.4709 -0.0093 0.8821
vn -0.0930 -0.9325 0.3489
vn -0.9583 -0.2798 0.0584
vn -0.4608 -0.3678 -0.8077
vn 0.0000 -1.0000 0.0000
vn -0.4889 -0.1483 -0.8597
vn -0.8745 -0.4851 0.0000
vn -0.4889 -0.1483 0.8597
vn 0.4074 0.4358 0.8026
vn 0.7796 0.6263 0.0000
vn 0.4074 0.4358 -0.8026
vn -0.4975 -0.0908 -0.8627
vn -0.9652 -0.2616 0.0000
vn -0.4975 -0.0908 0.8627
vn 0.4409 0.2550 0.8606
vn 0.9040 0.4275 0.0000
vn 0.4409 0.2550 -0.8606
vn 0.3297 0.8279 0.4538
vn -0.9646 0.2470 -0.0924
vn -0.5571 0.1973 -0.8067
vn -0.5563 0.6790 0.4791
vn 0.7488 0.6208 -0.2323
vn -0.4058 0.9087 0.0978
vn 0.2036 -0.7635 0.6128
vn 0.2296 -0.9679 0.1019
vn 0.0361 -0.9910 0.1291
vn 0.0611 -0.7904 0.6095
vn 0.3543 -0.8758 0.3277
vn -0.0440 0.9815 -0.1864
vn 0.3358 0.8822 -0.3301
vn -0.6819 0.6850 -0.2563
vn 0.1068 0.9936 0.0373
vn 0.1068 0.7251 -0.6803
vn -0.4058 0.6213 -0.6703
vn -0.0440 0.8628 -0.5036
vn -0.2453 0.8349 -0.4928
vn -0.2453 0.9533 -0.1763
vn 0.0444 0.9357 -0.3501
vn -0.3509 0.8770 -0.3282
vn 0.3717 -0.9073 -0.1967
vn 0.7693 -0.5983 0.2239
vn 0.3419 -0.3969 0.8518
vn -0.1323 -0.5438 0.8287
vn -0.3316 -0.8836 0.3306
vn -0.1318 -0.9878 -0.0827
vn 0.3303 0.3293 -0.8846
vn 0.4993 -0.0366 0.8656
vn 0.9583 -0.2857 0.0000
vn 0.4838 -0.1978 -0.8525
vn -0.4909 0.1395 -0.8600
vn -0.9315 0.3636 -0.0000
vn -0.4688 0.2892 0.8346
vn -0.9885 0.1502 -0.0196
vn 0.5013 -0.0725 -0.8622
vn 0.4980 0.0291 0.8667
vn -0.4989 0.1395 0.8554
vn -0.4937 0.0456 -0.8684
vn 0.9970 -0.0765 0.0136
vn 0.5116 0.0082 -0.8592
vn 0.4675 0.2091 0.8589
vn -0.5202 0.0758 0.8507
vn -0.4806 -0.1282 -0.8675
vn 0.9844 0.1757 -0.0001
vn -0.9957 -0.0927 -0.0043
vn 0.7381 -0.6707 -0.0730
vn -0.3086 -0.9456 -0.1030
vn 0.5002 -0.7005 -0.5089
vn 0.5090 -0.7759 0.3728
vn -0.0307 -0.9201 0.3905
vn -0.0081 -0.8333 -0.5528
vn 0.4379 0.1921 0.8782
vn -0.5304 -0.0759 0.8443
vn -0.5391 0.1046 -0.8357
vn 0.9004 0.4325 0.0471
vn -0.9980 -0.0627 -0.0068
vn 0.4023 0.4367 -0.8046
vn -0.9102 0.4118 0.0448
vn 0.1414 0.7783 -0.6118
vn 0.1383 0.6532 0.7444
vn -0.5096 0.4878 0.7087
vn -0.5098 0.6295 -0.5864
vn 0.5975 0.7971 0.0868
vn -0.3115 0.8747 0.3713
vn -0.3115 0.9341 -0.1743
vn -0.1309 0.9856 0.1073
vn -0.4926 0.8651 0.0942
vn -0.2672 0.9483 -0.1712
vn -0.2672 0.8892 0.3713
vn 0.1790 -0.9469 -0.2672
vn 0.1790 -0.9822 0.0571
vn 0.3836 -0.9178 0.1027
vn 0.3836 -0.8741 -0.2978
vn 0.1099 -0.9881 -0.1076
vn 0.5170 -0.8510 -0.0927
vn -0.7996 -0.3228 0.5064
vn -0.9201 0.1426 -0.3649
vn -0.1127 0.3672 -0.9233
vn 0.7988 0.1273 -0.5879
vn 0.2261 -0.9325 -0.2816
vn 0.8984 -0.3225 0.2980
vn 0.0945 -0.5451 0.8330
vn 0.1334 0.0323 0.9905
vn 0.9177 0.0059 0.3971
vn 0.8015 0.0348 -0.5970
vn -0.1232 0.1013 -0.9872
vn -0.9133 0.1269 -0.3871
vn -0.7893 0.0874 0.6077
vn 0.1168 -0.2236 0.9677
vn 0.9146 -0.1607 0.3710
vn 0.8034 0.0730 -0.5910
vn -0.1116 0.2497 -0.9619
vn -0.9118 0.1876 -0.3652
vn -0.8001 -0.0505 0.5978
vn -0.1182 0.8279 -0.5483
vn 0.8450 0.2470 0.4744
vn 0.1836 0.1973 0.9630
vn 0.7025 0.6790 -0.2134
vn -0.7788 0.6208 -0.0902
vn 0.4107 0.9087 0.0746
vn 0.0615 -0.7635 -0.6428
vn -0.1688 -0.9679 -0.1860
vn 0.0192 -0.9910 -0.1327
vn 0.1905 -0.7904 -0.5822
vn -0.1916 -0.8758 -0.4429
vn -0.0351 0.9815 0.1883
vn -0.4406 0.8822 0.1662
vn 0.5202 0.6850 0.5101
vn -0.0826 0.9936 -0.0772
vn -0.3726 0.7251 0.5791
vn 0.1003 0.6213 0.7771
vn -0.1633 0.8628 0.4785
vn 0.0252 0.8349 0.5499
vn 0.1531 0.9533 0.2604
vn -0.1821 0.9357 0.3023
vn 0.1883 0.8770 0.4420
vn -0.4195 -0.9073 0.0297
vn -0.6132 -0.5983 -0.5157
vn 0.0316 -0.3969 -0.9173
vn 0.4559 -0.5438 -0.7046
vn 0.4370 -0.8836 -0.1684
vn 0.0872 -0.9878 0.1289
vn -0.6596 0.3293 0.6756
usemtl low_poly_mushrooms_texture_atlas
s off
f 19/1/1 2/2/1 4/3/1 20/4/1
f 20/5/2 4/6/2 6/7/2 21/8/2
f 21/9/3 6/10/3 8/11/3 22/12/3
f 22/13/4 8/14/4 10/15/4 23/16/4
f 12/17/5 10/18/5 47/19/5 49/20/5
f 23/21/6 10/22/6 12/23/6 24/24/6
f 24/25/7 12/26/7 2/27/7 19/28/7
f 1/29/8 3/30/8 5/31/8 7/32/8 9/33/8 11/34/8
f 11/35/9 18/36/9 13/37/9 1/38/9
f 9/39/10 17/40/10 18/41/10 11/42/10
f 7/43/11 16/44/11 17/45/11 9/46/11
f 5/47/12 15/48/12 16/49/12 7/50/12
f 3/51/13 14/52/13 15/53/13 5/54/13
f 1/55/14 13/56/14 14/57/14 3/58/14
f 18/59/15 24/60/15 19/61/15 13/62/15
f 17/63/16 23/64/16 24/65/16 18/66/16
f 16/67/17 22/68/17 23/69/17 17/70/17
f 15/71/18 21/72/18 22/73/18 16/74/18
f 14/75/19 20/76/19 21/77/19 15/78/19
f 13/79/20 19/80/20 20/81/20 14/82/20
f 44/83/21 42/84/21 27/85/21 28/86/21
f 48/87/22 46/88/22 29/89/22 30/90/22
f 39/91/23 48/92/23 30/93/23 25/94/23
f 46/95/24 44/96/24 28/97/24 29/98/24
f 42/99/25 40/100/25 26/101/25 27/102/25
f 29/103/26 28/104/26 34/105/26 35/106/26
f 8/107/27 6/108/27 43/109/27 45/110/27
f 4/111/28 2/112/28 38/113/28 41/114/28
f 2/115/29 12/116/29 49/117/29 38/118/29
f 10/119/30 8/120/30 45/121/30 47/122/30
f 6/123/31 4/124/31 41/125/31 43/126/31
f 34/127/32 33/128/32 37/129/32
f 27/130/33 26/131/33 32/132/33 33/133/33
f 30/134/34 29/135/34 35/136/34 36/137/34
f 28/138/35 27/139/35 33/140/35 34/141/35
f 26/142/36 25/143/36 31/144/36 32/145/36
f 25/146/37 30/147/37 36/148/37 31/149/37
f 32/150/38 31/151/38 37/152/38
f 31/153/39 36/154/39 37/155/39
f 35/156/40 34/157/40 37/158/40
f 33/159/41 32/160/41 37/161/41
f 36/162/42 35/163/42 37/164/42
f 41/165/43 38/166/43 39/167/43 40/168/43
f 43/169/44 41/170/44 40/171/44 42/172/44
f 45/173/45 43/174/45 42/175/45 44/176/45
f 47/177/46 45/178/46 44/179/46 46/180/46
f 49/181/47 47/182/47 46/183/47 48/184/47
f 38/185/48 49/186/48 48/187/48 39/188/48
f 40/189/49 39/190/49 25/191/49 26/192/49
f 50/193/8 51/194/8 52/195/8 53/196/8 54/197/8 55/198/8
f 55/199/50 61/200/50 56/201/50 50/202/50
f 54/203/51 60/204/51 61/205/51 55/206/51
f 53/207/52 59/208/52 60/209/52 54/210/52
f 52/211/53 58/212/53 59/213/53 53/214/53
f 51/215/54 57/216/54 58/217/54 52/218/54
f 50/219/55 56/220/55 57/221/55 51/222/55
f 58/223/56 57/224/56 63/225/56 64/226/56
f 60/227/57 59/228/57 65/229/57 66/230/57
f 56/231/58 61/232/58 67/233/58 62/234/58
f 57/235/59 56/236/59 62/237/59 63/238/59
f 59/239/60 58/240/60 64/241/60 65/242/60
f 61/243/61 60/244/61 66/245/61 67/246/61
f 66/247/62 65/248/62 71/249/62 72/250/62
f 62/251/63 67/252/63 73/253/63 68/254/63
f 63/255/64 62/256/64 68/257/64 69/258/64
f 65/259/65 64/260/65 70/261/65 71/262/65
f 67/263/66 66/264/66 72/265/66 73/266/66
f 64/267/67 63/268/67 69/269/67 70/270/67
f 94/271/68 93/272/68 78/273/68 79/274/68
f 96/275/69 95/276/69 75/277/69 76/278/69
f 93/279/70 97/280/70 77/281/70 78/282/70
f 98/283/71 94/284/71 79/285/71 74/286/71
f 95/287/72 98/288/72 74/289/72 75/290/72
f 97/291/73 96/292/73 76/293/73 77/294/73
f 74/295/74 79/296/74 85/297/74 80/298/74
f 75/299/75 74/300/75 80/301/75 81/302/75
f 77/303/76 76/304/76 82/305/76 83/306/76
f 79/307/77 78/308/77 84/309/77 85/310/77
f 76/311/78 75/312/78 81/313/78 82/314/78
f 78/315/79 77/316/79 83/317/79 84/318/79
f 82/319/80 81/320/80 87/321/80 88/322/80
f 84/323/81 83/324/81 89/325/81 90/326/81
f 80/327/82 85/328/82 91/329/82 86/330/82
f 81/331/83 80/332/83 86/333/83 87/334/83
f 83/335/84 82/336/84 88/337/84 89/338/84
f 85/339/85 84/340/85 90/341/85 91/342/85
f 87/343/86 86/344/86 92/345/86
f 89/346/87 88/347/87 92/348/87
f 91/349/88 90/350/88 92/351/88
f 88/352/89 87/353/89 92/354/89
f 90/355/90 89/356/90 92/357/90
f 86/358/91 91/359/91 92/360/91
f 71/361/92 70/362/92 96/363/92 97/364/92
f 69/365/93 68/366/93 98/367/93 95/368/93
f 68/369/94 73/370/94 94/371/94 98/372/94
f 72/373/95 71/374/95 97/375/95 93/376/95
f 70/377/96 69/378/96 95/379/96 96/380/96
f 73/381/97 72/382/97 93/383/97 94/384/97
f 117/385/98 100/386/98 102/387/98 118/388/98
f 118/389/99 102/390/99 104/391/99 119/392/99
f 119/393/100 104/394/100 106/395/100 120/396/100
f 120/397/101 106/398/101 108/399/101 121/400/101
f 110/401/102 108/402/102 145/403/102 147/404/102
f 121/405/103 108/406/103 110/407/103 122/408/103
f 122/409/104 110/410/104 100/411/104 117/412/104
f 99/413/8 101/414/8 103/415/8 105/416/8 107/417/8 109/418/8
f 109/419/105 116/420/105 111/421/105 99/422/105
f 107/423/106 115/424/106 116/425/106 109/426/106
f 105/427/107 114/428/107 115/429/107 107/430/107
f 103/431/108 113/432/108 114/433/108 105/434/108
f 101/435/109 112/436/109 113/437/109 103/438/109
f 99/439/110 111/440/110 112/441/110 101/442/110
f 116/443/111 122/444/111 117/445/111 111/446/111
f 115/447/112 121/448/112 122/449/112 116/450/112
f 114/451/113 120/452/113 121/453/113 115/454/113
f 113/455/114 119/456/114 120/457/114 114/458/114
f 112/459/115 118/460/115 119/461/115 113/462/115
f 111/463/116 117/464/116 118/465/116 112/466/116
f 142/467/117 140/468/117 125/469/117 126/470/117
f 146/471/118 144/472/118 127/473/118 128/474/118
f 137/475/119 146/476/119 128/477/119 123/478/119
f 144/479/120 142/480/120 126/481/120 127/482/120
f 140/483/121 138/484/121 124/485/121 125/486/121
f 127/487/122 126/488/122 132/489/122 133/490/122
f 106/491/123 104/492/123 141/493/123 143/494/123
f 102/495/124 100/496/124 136/497/124 139/498/124
f 100/499/125 110/500/125 147/501/125 136/502/125
f 108/503/126 106/504/126 143/505/126 145/506/126
f 104/507/127 102/508/127 139/509/127 141/510/127
f 132/511/128 131/512/128 135/513/128
f 125/514/129 124/515/129 130/516/129 131/517/129
f 128/518/130 127/519/130 133/520/130 134/521/130
f 126/522/131 125/523/131 131/524/131 132/525/131
f 124/526/132 123/527/132 129/528/132 130/529/132
f 123/530/133 128/531/133 134/532/133 129/533/133
f 130/534/134 129/535/134 135/536/134
f 129/537/135 134/538/135 135/539/135
f 133/540/136 132/541/136 135/542/136
f 131/543/137 130/544/137 135/545/137
f 134/546/138 133/547/138 135/548/138
f 139/549/139 136/550/139 137/551/139 138/552/139
f 141/553/140 139/554/140 138/555/140 140/556/140
f 143/557/141 141/558/141 140/559/141 142/560/141
f 145/561/142 143/562/142 142/563/142 144/564/142
f 147/565/143 145/566/143 144/567/143 146/568/143
f 136/569/144 147/570/144 146/571/144 137/572/144
f 138/573/145 137/574/145 123/575/145 124/576/145
