# Blender v2.82 (sub 7) OBJ File: 'low_poly_mushrooms.blend'
# www.blender.org
mtllib oily_mushroom.mtl
o oily_mushroom_Cylinder.019
v -0.005775 0.000000 0.008803
v -0.067058 0.222463 0.078879
v 0.027983 0.000000 0.028293
v -0.041993 0.211022 0.088963
v 0.027983 0.000000 0.067275
v -0.041993 0.200607 0.116392
v -0.005776 0.000000 0.086765
v -0.067058 0.193322 0.128896
v -0.039534 0.000000 0.067275
v -0.092124 0.200607 0.116392
v -0.039534 0.000000 0.028293
v -0.092124 0.215178 0.091384
v -0.044322 0.075354 0.022105
v -0.022538 0.079052 0.037139
v -0.022538 0.078716 0.065797
v -0.044322 0.065219 0.077697
v -0.066105 0.056789 0.061800
v -0.066105 0.061857 0.034004
v -0.069017 0.147834 0.038059
v -0.045838 0.142665 0.050668
v -0.045838 0.137596 0.077864
v -0.069017 0.128691 0.089071
v -0.092196 0.129358 0.074773
v -0.092196 0.138929 0.049266
v 0.000327 0.000000 -0.020650
v 0.000327 0.000000 0.014632
v 0.030882 0.000000 0.032274
v 0.061437 0.000000 0.014632
v 0.061437 0.000000 -0.020650
v 0.030882 0.000000 -0.038291
v -0.066507 0.320472 0.036204
v 0.032561 0.287261 0.083492
v 0.032561 0.229290 0.182992
v -0.066507 0.204530 0.235204
v -0.166652 0.237787 0.187942
v -0.166652 0.295758 0.088443
v -0.067520 0.296081 0.108665
v -0.032708 0.284180 0.125033
v -0.032708 0.263909 0.159826
v -0.067520 0.255539 0.178251
v -0.102333 0.267440 0.161883
v -0.102333 0.287711 0.127090
v -0.069136 0.281717 0.146900
v -0.066481 0.306446 -0.029975
v -0.066949 0.323327 -0.013323
v 0.070881 0.278436 0.052743
v 0.076579 0.260887 0.039122
v 0.070881 0.198188 0.190479
v 0.076579 0.177685 0.181929
v -0.066949 0.162852 0.262111
v -0.066481 0.140041 0.255638
v -0.204962 0.207760 0.196030
v -0.209542 0.185600 0.186541
v -0.204962 0.287986 0.058333
v -0.209542 0.268802 0.043734
v 0.002247 0.096593 -0.032237
v 0.025758 0.102018 -0.019062
v 0.025758 0.105998 0.008289
v 0.002247 0.104552 0.022464
v -0.021264 0.099127 0.009288
v -0.021264 0.095148 -0.018062
v 0.024558 0.318839 -0.089138
v 0.043651 0.321094 -0.077399
v 0.043651 0.332269 -0.057702
v 0.024558 0.341189 -0.049743
v 0.005465 0.338933 -0.061482
v 0.005465 0.327758 -0.081179
v 0.029174 0.309205 -0.159979
v 0.104345 0.318613 -0.114144
v 0.104345 0.362538 -0.036721
v 0.029174 0.397056 -0.005133
v -0.045996 0.387649 -0.050967
v -0.045996 0.343723 -0.128390
v 0.031659 0.338606 -0.135932
v 0.076911 0.344249 -0.108325
v 0.076911 0.370694 -0.061712
v 0.031659 0.391497 -0.042706
v -0.013593 0.385855 -0.070313
v -0.013593 0.359409 -0.116926
v 0.032942 0.375369 -0.095173
v 0.106623 0.349653 -0.026062
v 0.026693 0.293522 -0.157778
v -0.053236 0.330990 -0.124515
v -0.053236 0.377790 -0.042026
v 0.026693 0.387121 0.007200
v 0.106623 0.302853 -0.108552
v 0.005905 0.230795 -0.005865
v -0.014590 0.227135 -0.017295
v 0.026400 0.225391 -0.016581
v 0.005905 0.212668 -0.050157
v 0.026400 0.216328 -0.038727
v -0.014590 0.218072 -0.039441
v -0.131193 0.183756 0.231351
v -0.146959 0.188886 0.223802
v -0.134462 0.161690 0.222804
v -0.124906 0.211491 0.215254
v -0.151807 0.167214 0.214426
v -0.121354 0.175872 0.185416
v 0.082711 0.000000 0.022961
v 0.056892 0.000000 0.035515
v 0.054855 0.000000 0.064153
v 0.078637 0.000000 0.080236
v 0.104457 0.000000 0.067682
v 0.106494 0.000000 0.039044
v 0.091855 0.080595 0.043589
v 0.090561 0.085073 0.065797
v 0.070258 0.088358 0.075669
v 0.051250 0.087164 0.063333
v 0.052544 0.082686 0.041124
v 0.072847 0.079402 0.031252
v 0.143569 0.272435 0.049617
v 0.141710 0.266423 0.067511
v 0.126794 0.272006 0.077998
v 0.113736 0.283601 0.070591
v 0.115596 0.289613 0.052697
v 0.130512 0.284030 0.042210
v 0.198915 0.274357 0.025693
v 0.191885 0.251149 0.096197
v 0.133254 0.273095 0.137419
v 0.081654 0.318248 0.108136
v 0.088684 0.341455 0.037631
v 0.147315 0.319510 -0.003590
v 0.181620 0.292486 0.045680
v 0.177376 0.278497 0.088121
v 0.142078 0.291710 0.112939
v 0.111022 0.318911 0.095316
v 0.115266 0.332900 0.052875
v 0.150565 0.319688 0.028057
v 0.151226 0.314102 0.073001
v 0.126021 0.260880 0.138093
v 0.196335 0.262765 0.019275
v 0.141714 0.311413 -0.011705
v 0.079247 0.334795 0.032214
v 0.071401 0.309528 0.107113
v 0.188488 0.237499 0.094174
v 0.073641 0.193533 0.055870
v 0.074749 0.190451 0.036141
v 0.089302 0.188983 0.067445
v 0.107182 0.178270 0.039561
v 0.106073 0.181351 0.059290
v 0.091520 0.182820 0.027987
v 0.072940 0.181121 0.036647
v 0.104614 0.173002 0.059780
v 0.089894 0.173886 0.028404
v 0.071823 0.184297 0.056457
v 0.087660 0.180237 0.068024
v 0.105731 0.169826 0.039970
v 0.062707 0.189951 0.060941
v 0.087320 0.183498 0.078953
v 0.115408 0.167206 0.035315
v 0.064444 0.185031 0.030116
v 0.113671 0.172126 0.066140
v 0.090795 0.173659 0.017303
v -0.015128 0.212189 -0.014334
v 0.026083 0.202953 -0.036283
v -0.015128 0.203761 -0.036807
v 0.005478 0.215999 -0.002836
v 0.026083 0.211381 -0.013810
v 0.005478 0.199143 -0.047782
v 0.005575 0.224050 0.008665
v 0.037360 0.216640 -0.008193
v 0.005575 0.197568 -0.060519
v -0.026209 0.218218 -0.009069
v 0.037360 0.203400 -0.042785
v -0.026209 0.204978 -0.043661
v -0.068709 0.159587 0.044488
v -0.045232 0.153430 0.056699
v -0.045232 0.147519 0.083932
v -0.068709 0.138870 0.095343
v -0.092185 0.140579 0.081327
v -0.092185 0.150937 0.055899
v -0.034401 0.147746 0.045966
v -0.034401 0.139913 0.086381
v -0.068942 0.126776 0.103104
v -0.103484 0.128141 0.081963
v -0.103484 0.142643 0.044100
v -0.068942 0.155780 0.027377
v -0.105255 0.000000 -0.046138
v -0.103757 0.000000 -0.075795
v -0.076759 0.000000 -0.089182
v -0.051259 0.000000 -0.072912
v -0.052757 0.000000 -0.043255
v -0.079755 0.000000 -0.029868
v -0.150242 0.188403 -0.055124
v -0.148521 0.182391 -0.073032
v -0.133686 0.187974 -0.083634
v -0.120572 0.199570 -0.076329
v -0.122293 0.205581 -0.058421
v -0.137128 0.199998 -0.047819
v -0.205401 0.190325 -0.030773
v -0.198916 0.167117 -0.101329
v -0.140607 0.189063 -0.143003
v -0.088781 0.234216 -0.114120
v -0.095266 0.257424 -0.043563
v -0.153576 0.235478 -0.001890
v -0.188261 0.208455 -0.050893
v -0.184346 0.194466 -0.093366
v -0.149240 0.207678 -0.118456
v -0.118050 0.234880 -0.101073
v -0.121965 0.248869 -0.058601
v -0.157071 0.235656 -0.033511
v -0.158080 0.230071 -0.078448
v -0.133379 0.176849 -0.143733
v -0.202771 0.178734 -0.024376
v -0.147913 0.227382 0.006181
v -0.085787 0.250763 -0.038219
v -0.078521 0.225497 -0.113177
v -0.195504 0.153467 -0.099333
v -0.080364 0.109501 -0.061918
v -0.081320 0.106420 -0.042181
v -0.096115 0.104951 -0.073371
v -0.113778 0.094238 -0.045350
v -0.112822 0.097320 -0.065087
v -0.098027 0.098788 -0.033897
v -0.079515 0.097090 -0.042701
v -0.111367 0.088970 -0.065588
v -0.096405 0.089854 -0.034327
v -0.078551 0.100265 -0.062519
v -0.094477 0.096205 -0.073963
v -0.112331 0.085795 -0.045770
v -0.069470 0.105919 -0.067073
v -0.094222 0.099467 -0.084895
v -0.121972 0.083175 -0.041041
v -0.070968 0.100999 -0.036236
v -0.120473 0.088094 -0.071878
v -0.097219 0.089627 -0.023219
v -0.022289 0.316483 -0.137393
v -0.008177 0.309868 -0.143266
v -0.017183 0.330492 -0.140499
v -0.002332 0.323673 -0.146739
v 0.004385 0.342358 -0.132020
v 0.002201 0.320897 -0.108305
v 0.070881 0.235746 0.126016
v 0.070881 0.220188 0.152718
v 0.076579 0.202352 0.139591
v 0.076579 0.217902 0.112901
v 0.040022 0.246738 0.144110
v 0.019971 0.207053 0.114457
vt 0.975404 0.664574
vt 0.975404 0.653136
vt 0.970054 0.653136
vt 0.970054 0.664574
vt 0.930380 0.770370
vt 0.941398 0.770370
vt 0.941398 0.764811
vt 0.930380 0.764811
vt 0.969736 0.664574
vt 0.969736 0.653136
vt 0.964386 0.653136
vt 0.964386 0.664574
vt 0.851033 0.776248
vt 0.862050 0.776248
vt 0.862050 0.770688
vt 0.851033 0.770688
vt 0.839380 0.664892
vt 0.817027 0.664892
vt 0.817027 0.688084
vt 0.839380 0.688084
vt 0.975404 0.652819
vt 0.975404 0.641381
vt 0.970054 0.641381
vt 0.970054 0.652819
vt 0.919045 0.776248
vt 0.930063 0.776248
vt 0.930063 0.770688
vt 0.919045 0.770688
vt 0.896374 0.708735
vt 0.896374 0.703016
vt 0.901883 0.700157
vt 0.907392 0.703016
vt 0.907392 0.708735
vt 0.901883 0.711595
vt 0.975404 0.641063
vt 0.975404 0.629626
vt 0.970054 0.629626
vt 0.970054 0.641063
vt 0.907710 0.776248
vt 0.918727 0.776248
vt 0.918727 0.770688
vt 0.907710 0.770688
vt 0.975404 0.629308
vt 0.975404 0.617871
vt 0.970054 0.617871
vt 0.970054 0.629308
vt 0.862368 0.705717
vt 0.884721 0.705717
vt 0.884721 0.700157
vt 0.862368 0.700157
vt 0.901724 0.664574
vt 0.901724 0.641381
vt 0.896374 0.641381
vt 0.896374 0.664574
vt 0.839697 0.705717
vt 0.862050 0.705717
vt 0.862050 0.700157
vt 0.839697 0.700157
vt 0.969736 0.770370
vt 0.969736 0.758933
vt 0.964386 0.758933
vt 0.964386 0.770370
vt 0.896374 0.776248
vt 0.907392 0.776248
vt 0.907392 0.770688
vt 0.896374 0.770688
vt 0.969736 0.758615
vt 0.969736 0.747178
vt 0.964386 0.747178
vt 0.964386 0.758615
vt 0.885039 0.776248
vt 0.896056 0.776248
vt 0.896056 0.770688
vt 0.885039 0.770688
vt 0.969736 0.735105
vt 0.969736 0.723667
vt 0.964386 0.723667
vt 0.964386 0.735105
vt 0.862368 0.776248
vt 0.873386 0.776248
vt 0.873386 0.770688
vt 0.862368 0.770688
vt 0.896374 0.626449
vt 0.896374 0.620730
vt 0.901883 0.617871
vt 0.907392 0.620730
vt 0.907392 0.626449
vt 0.901883 0.629308
vt 0.103626 0.666670
vt 0.103626 0.643478
vt 0.092608 0.643478
vt 0.092608 0.666670
vt 0.069937 0.701936
vt 0.092290 0.701936
vt 0.092290 0.690498
vt 0.069937 0.690498
vt 0.103626 0.643160
vt 0.103626 0.619967
vt 0.092608 0.619967
vt 0.092608 0.643160
vt 0.069620 0.690498
vt 0.069620 0.695305
vt 0.053840 0.695963
vt 0.069620 0.696612
vt 0.069620 0.701936
vt 0.047403 0.700322
vt 0.047267 0.692029
vt 0.081273 0.690181
vt 0.081273 0.683822
vt 0.090145 0.680796
vt 0.081273 0.679326
vt 0.081273 0.666988
vt 0.092290 0.670207
vt 0.092290 0.686961
vt 0.114961 0.666988
vt 0.103944 0.666988
vt 0.103944 0.678425
vt 0.114961 0.678425
vt 0.839380 0.617871
vt 0.817027 0.617871
vt 0.817027 0.641063
vt 0.839380 0.641063
vt 0.884721 0.617871
vt 0.862368 0.617871
vt 0.862368 0.641063
vt 0.884721 0.641063
vt 0.862050 0.617871
vt 0.839697 0.617871
vt 0.839697 0.641063
vt 0.862050 0.641063
vt 0.839697 0.655008
vt 0.839721 0.650948
vt 0.862050 0.641381
vt 0.862050 0.652402
vt 0.854331 0.653552
vt 0.862050 0.655214
vt 0.862050 0.664574
vt 0.862484 0.655016
vt 0.862368 0.650937
vt 0.884721 0.641381
vt 0.884721 0.653363
vt 0.874049 0.654314
vt 0.884721 0.657698
vt 0.884721 0.664574
vt 0.092290 0.778344
vt 0.092290 0.772943
vt 0.081432 0.778344
vt 0.120629 0.643478
vt 0.109611 0.643478
vt 0.109611 0.654915
vt 0.120629 0.654915
vt 0.120629 0.655233
vt 0.109611 0.655233
vt 0.109611 0.666670
vt 0.120629 0.666670
vt 0.069620 0.708131
vt 0.058602 0.708131
vt 0.058602 0.719568
vt 0.069620 0.719568
vt 0.080955 0.708131
vt 0.069937 0.708131
vt 0.069937 0.719568
vt 0.080955 0.719568
vt 0.092290 0.708131
vt 0.081273 0.708131
vt 0.081273 0.719568
vt 0.092290 0.719568
vt 0.172114 0.748956
vt 0.177306 0.748956
vt 0.177306 0.737678
vt 0.092132 0.772785
vt 0.081273 0.772785
vt 0.081273 0.778186
vt 0.097958 0.684303
vt 0.097958 0.678902
vt 0.092767 0.684303
vt 0.171956 0.737519
vt 0.177147 0.737519
vt 0.171956 0.748798
vt 0.097799 0.678743
vt 0.092608 0.684144
vt 0.092608 0.678743
vt 0.024596 0.719568
vt 0.046949 0.719568
vt 0.046949 0.714009
vt 0.024596 0.714009
vt 0.177306 0.725446
vt 0.177306 0.714009
vt 0.171956 0.714009
vt 0.171956 0.725446
vt 0.092608 0.719568
vt 0.114961 0.719568
vt 0.114961 0.714009
vt 0.092608 0.714009
vt 0.177306 0.713691
vt 0.177306 0.702253
vt 0.171956 0.702253
vt 0.171956 0.713691
vt 0.024596 0.725446
vt 0.046949 0.725446
vt 0.046949 0.719886
vt 0.024596 0.719886
vt 0.120629 0.690181
vt 0.120629 0.666988
vt 0.115279 0.666988
vt 0.115279 0.690181
vt 0.047267 0.690181
vt 0.069620 0.690181
vt 0.069620 0.678743
vt 0.047267 0.678743
vt 0.918727 0.664574
vt 0.918727 0.641381
vt 0.913377 0.641381
vt 0.913377 0.664574
vt 0.839697 0.723350
vt 0.862050 0.723350
vt 0.862050 0.717790
vt 0.839697 0.717790
vt 0.918727 0.688084
vt 0.918727 0.664892
vt 0.913377 0.664892
vt 0.913377 0.688084
vt 0.862368 0.752738
vt 0.884721 0.752738
vt 0.884721 0.747178
vt 0.862368 0.747178
vt 0.924395 0.641063
vt 0.924395 0.617871
vt 0.919045 0.617871
vt 0.919045 0.641063
vt 0.862368 0.723350
vt 0.884721 0.723350
vt 0.884721 0.717790
vt 0.862368 0.717790
vt 0.924395 0.641381
vt 0.919045 0.641381
vt 0.919045 0.664574
vt 0.924395 0.664574
vt 0.907392 0.723350
vt 0.907392 0.717790
vt 0.885039 0.717790
vt 0.885039 0.723350
vt 0.924395 0.664892
vt 0.919045 0.664892
vt 0.919045 0.688084
vt 0.924395 0.688084
vt 0.839380 0.729227
vt 0.839380 0.723667
vt 0.817027 0.723667
vt 0.817027 0.729227
vt 0.924395 0.688402
vt 0.919045 0.688402
vt 0.919045 0.711595
vt 0.924395 0.711595
vt 0.862050 0.729227
vt 0.862050 0.723667
vt 0.839697 0.723667
vt 0.839697 0.729227
vt 0.137632 0.643160
vt 0.137632 0.619967
vt 0.132282 0.619967
vt 0.132282 0.643160
vt 0.154635 0.772785
vt 0.149285 0.772785
vt 0.149285 0.778344
vt 0.154635 0.778344
vt 0.069937 0.731324
vt 0.092290 0.731324
vt 0.092290 0.725764
vt 0.069937 0.725764
vt 0.137632 0.666670
vt 0.137632 0.643478
vt 0.132282 0.643478
vt 0.132282 0.666670
vt 0.092608 0.731324
vt 0.114961 0.731324
vt 0.114961 0.725764
vt 0.092608 0.725764
vt 0.137632 0.690181
vt 0.137632 0.666988
vt 0.132282 0.666988
vt 0.132282 0.690181
vt 0.047267 0.778344
vt 0.058284 0.778344
vt 0.058284 0.772785
vt 0.047267 0.772785
vt 0.177306 0.701936
vt 0.177306 0.690498
vt 0.171956 0.690498
vt 0.171956 0.701936
vt 0.035931 0.778344
vt 0.046949 0.778344
vt 0.046949 0.772785
vt 0.035931 0.772785
vt 0.177306 0.690181
vt 0.177306 0.678743
vt 0.171956 0.678743
vt 0.171956 0.690181
vt 0.058284 0.731641
vt 0.058284 0.733972
vt 0.042477 0.734401
vt 0.058284 0.735070
vt 0.058284 0.737201
vt 0.035931 0.736115
vt 0.035938 0.732767
vt 0.177306 0.678425
vt 0.177306 0.666988
vt 0.171956 0.666988
vt 0.171956 0.678425
vt 0.035614 0.713691
vt 0.024755 0.713691
vt 0.035614 0.702412
vt 0.092767 0.701936
vt 0.103626 0.701936
vt 0.103626 0.690657
vt 0.103467 0.690498
vt 0.092608 0.690498
vt 0.092608 0.701777
vt 0.126297 0.631405
vt 0.115438 0.631405
vt 0.126297 0.620126
vt 0.024596 0.702253
vt 0.035455 0.702253
vt 0.024596 0.713532
vt 0.126138 0.619967
vt 0.115279 0.619967
vt 0.115279 0.631246
vt 0.862050 0.729545
vt 0.851033 0.729545
vt 0.851033 0.740983
vt 0.862050 0.740983
vt 0.873386 0.729545
vt 0.862368 0.729545
vt 0.862368 0.740983
vt 0.873386 0.740983
vt 0.884721 0.729545
vt 0.873703 0.729545
vt 0.873703 0.740983
vt 0.884721 0.740983
vt 0.896056 0.729545
vt 0.885039 0.729545
vt 0.885039 0.740983
vt 0.896056 0.740983
vt 0.839700 0.671956
vt 0.839697 0.669225
vt 0.862050 0.664892
vt 0.862050 0.669320
vt 0.848986 0.670380
vt 0.862050 0.671339
vt 0.862050 0.676329
vt 0.941398 0.617871
vt 0.930380 0.617871
vt 0.930380 0.629308
vt 0.941398 0.629308
vt 0.941398 0.770688
vt 0.936048 0.770688
vt 0.936048 0.776248
vt 0.941398 0.776248
vt 0.935730 0.770688
vt 0.930380 0.770688
vt 0.930380 0.776248
vt 0.935730 0.776248
vt 0.947066 0.729545
vt 0.941716 0.729545
vt 0.941716 0.735105
vt 0.947066 0.735105
vt 0.941398 0.729545
vt 0.936048 0.729545
vt 0.936048 0.735105
vt 0.941398 0.735105
vt 0.947066 0.723667
vt 0.941716 0.723667
vt 0.941716 0.729227
vt 0.947066 0.729227
vt 0.941398 0.723667
vt 0.936048 0.723667
vt 0.936048 0.729227
vt 0.941398 0.729227
vt 0.828203 0.641381
vt 0.839380 0.647117
vt 0.839380 0.658714
vt 0.828203 0.664574
vt 0.817027 0.658838
vt 0.817027 0.647241
vt 0.177306 0.643478
vt 0.171956 0.643478
vt 0.171956 0.654915
vt 0.177306 0.654915
vt 0.941398 0.659014
vt 0.936048 0.659014
vt 0.936048 0.664574
vt 0.941398 0.664574
vt 0.935730 0.659014
vt 0.930380 0.659014
vt 0.930380 0.664574
vt 0.935730 0.664574
vt 0.941398 0.696980
vt 0.935889 0.699839
vt 0.930380 0.696980
vt 0.930380 0.691261
vt 0.935889 0.688402
vt 0.941398 0.691261
vt 0.907710 0.740983
vt 0.930063 0.740983
vt 0.930063 0.735423
vt 0.907710 0.735423
vt 0.935730 0.723350
vt 0.935730 0.700157
vt 0.930380 0.700157
vt 0.930380 0.723350
vt 0.817027 0.746860
vt 0.839380 0.746860
vt 0.839380 0.741300
vt 0.817027 0.741300
vt 0.941398 0.652819
vt 0.941398 0.629626
vt 0.936048 0.629626
vt 0.936048 0.652819
vt 0.839697 0.746860
vt 0.862050 0.746860
vt 0.862050 0.741300
vt 0.839697 0.741300
vt 0.941398 0.688084
vt 0.941398 0.664892
vt 0.936048 0.664892
vt 0.936048 0.688084
vt 0.884721 0.746860
vt 0.884721 0.741300
vt 0.862368 0.741300
vt 0.862368 0.746860
vt 0.941398 0.700157
vt 0.936048 0.700157
vt 0.936048 0.723350
vt 0.941398 0.723350
vt 0.907392 0.746860
vt 0.907392 0.741300
vt 0.885039 0.741300
vt 0.885039 0.746860
vt 0.935730 0.723667
vt 0.930380 0.723667
vt 0.930380 0.746860
vt 0.935730 0.746860
vt 0.930063 0.746860
vt 0.930063 0.741300
vt 0.907710 0.741300
vt 0.907710 0.746860
vt 0.952733 0.700157
vt 0.947383 0.700157
vt 0.947383 0.723350
vt 0.952733 0.723350
vt 0.126614 0.772467
vt 0.137632 0.772467
vt 0.137632 0.766907
vt 0.126614 0.766907
vt 0.177306 0.643160
vt 0.177306 0.631722
vt 0.171956 0.631722
vt 0.171956 0.643160
vt 0.115279 0.772467
vt 0.126297 0.772467
vt 0.126297 0.766907
vt 0.115279 0.766907
vt 0.177306 0.631405
vt 0.177306 0.619967
vt 0.171956 0.619967
vt 0.171956 0.631405
vt 0.103944 0.772467
vt 0.114961 0.772467
vt 0.114961 0.766907
vt 0.103944 0.766907
vt 0.171638 0.772467
vt 0.171638 0.761029
vt 0.166288 0.761029
vt 0.166288 0.772467
vt 0.092608 0.772467
vt 0.103626 0.772467
vt 0.103626 0.766907
vt 0.092608 0.766907
vt 0.165970 0.772467
vt 0.165970 0.761029
vt 0.160620 0.761029
vt 0.160620 0.772467
vt 0.081273 0.772467
vt 0.092290 0.772467
vt 0.092290 0.766907
vt 0.081273 0.766907
vt 0.171638 0.760712
vt 0.171638 0.749274
vt 0.166288 0.749274
vt 0.166288 0.760712
vt 0.103944 0.760712
vt 0.114961 0.760712
vt 0.114961 0.755152
vt 0.103944 0.755152
vt 0.171638 0.678425
vt 0.171638 0.666988
vt 0.166288 0.666988
vt 0.166288 0.678425
vt 0.126297 0.643160
vt 0.115438 0.643160
vt 0.126297 0.631881
vt 0.115438 0.725446
vt 0.126297 0.725446
vt 0.126297 0.714167
vt 0.115438 0.737201
vt 0.126297 0.737201
vt 0.126297 0.725923
vt 0.137632 0.725446
vt 0.126773 0.725446
vt 0.137632 0.714167
vt 0.137632 0.737201
vt 0.126773 0.737201
vt 0.137632 0.725923
vt 0.024755 0.743079
vt 0.035614 0.743079
vt 0.035614 0.731800
vt 0.918727 0.747178
vt 0.907710 0.747178
vt 0.907710 0.758615
vt 0.918727 0.758615
vt 0.930063 0.747178
vt 0.919045 0.747178
vt 0.919045 0.758615
vt 0.930063 0.758615
vt 0.941398 0.747178
vt 0.930380 0.747178
vt 0.930380 0.758615
vt 0.941398 0.758615
vt 0.952733 0.747178
vt 0.941716 0.747178
vt 0.941716 0.758615
vt 0.952733 0.758615
vt 0.828044 0.753055
vt 0.817027 0.753055
vt 0.817027 0.764493
vt 0.828044 0.764493
vt 0.958401 0.617871
vt 0.947383 0.617871
vt 0.947383 0.629308
vt 0.958401 0.629308
vt 0.941398 0.653136
vt 0.936048 0.653136
vt 0.936048 0.658696
vt 0.941398 0.658696
vt 0.935730 0.653136
vt 0.930380 0.653136
vt 0.930380 0.658696
vt 0.935730 0.658696
vt 0.907392 0.735423
vt 0.902042 0.735423
vt 0.902042 0.740983
vt 0.907392 0.740983
vt 0.901724 0.735423
vt 0.896374 0.735423
vt 0.896374 0.740983
vt 0.901724 0.740983
vt 0.907392 0.729545
vt 0.902042 0.729545
vt 0.902042 0.735105
vt 0.907392 0.735105
vt 0.901724 0.729545
vt 0.896374 0.729545
vt 0.896374 0.735105
vt 0.901724 0.735105
vt 0.817027 0.696949
vt 0.817027 0.691231
vt 0.828203 0.688402
vt 0.839380 0.691292
vt 0.839380 0.697011
vt 0.828203 0.699839
vt 0.952733 0.723667
vt 0.947383 0.723667
vt 0.947383 0.746860
vt 0.952733 0.746860
vt 0.850715 0.758615
vt 0.850715 0.753055
vt 0.828362 0.753055
vt 0.828362 0.758615
vt 0.958401 0.641381
vt 0.953051 0.641381
vt 0.953051 0.664574
vt 0.958401 0.664574
vt 0.873386 0.758615
vt 0.873386 0.753055
vt 0.851033 0.753055
vt 0.851033 0.758615
vt 0.958401 0.664892
vt 0.953051 0.664892
vt 0.953051 0.688084
vt 0.958401 0.688084
vt 0.896056 0.758615
vt 0.896056 0.753055
vt 0.873703 0.753055
vt 0.873703 0.758615
vt 0.918727 0.706035
vt 0.913377 0.706035
vt 0.913377 0.711595
vt 0.918727 0.711595
vt 0.913059 0.706035
vt 0.907710 0.706035
vt 0.907710 0.711595
vt 0.913059 0.711595
vt 0.918727 0.700157
vt 0.913377 0.700157
vt 0.913377 0.705717
vt 0.918727 0.705717
vt 0.913059 0.700157
vt 0.907710 0.700157
vt 0.907710 0.705717
vt 0.913059 0.705717
vt 0.918727 0.694279
vt 0.913377 0.694279
vt 0.913377 0.699839
vt 0.918727 0.699839
vt 0.913059 0.694279
vt 0.907710 0.694279
vt 0.907710 0.699839
vt 0.913059 0.699839
vt 0.958401 0.688402
vt 0.953051 0.688402
vt 0.953051 0.711595
vt 0.958401 0.711595
vt 0.850715 0.764493
vt 0.850715 0.758933
vt 0.828362 0.758933
vt 0.828362 0.764493
vt 0.958401 0.711912
vt 0.953051 0.711912
vt 0.953051 0.735105
vt 0.958401 0.735105
vt 0.873386 0.764493
vt 0.873386 0.758933
vt 0.851033 0.758933
vt 0.851033 0.764493
vt 0.958401 0.735423
vt 0.953051 0.735423
vt 0.953051 0.758615
vt 0.958401 0.758615
vt 0.896056 0.764493
vt 0.896056 0.758933
vt 0.873703 0.758933
vt 0.873703 0.764493
vt 0.918727 0.688402
vt 0.913377 0.688402
vt 0.913377 0.693962
vt 0.918727 0.693962
vt 0.913059 0.688402
vt 0.907710 0.688402
vt 0.907710 0.693962
vt 0.913059 0.693962
vt 0.850715 0.711912
vt 0.845365 0.711912
vt 0.845365 0.717472
vt 0.850715 0.717472
vt 0.845047 0.711912
vt 0.839697 0.711912
vt 0.839697 0.717472
vt 0.845047 0.717472
vt 0.850715 0.706035
vt 0.845365 0.706035
vt 0.845365 0.711595
vt 0.850715 0.711595
vt 0.845047 0.706035
vt 0.839697 0.706035
vt 0.839697 0.711595
vt 0.845047 0.711595
vt 0.907392 0.694279
vt 0.902042 0.694279
vt 0.902042 0.699839
vt 0.907392 0.699839
vt 0.901724 0.694279
vt 0.896374 0.694279
vt 0.896374 0.699839
vt 0.901724 0.699839
vt 0.907392 0.688402
vt 0.902042 0.688402
vt 0.902042 0.693962
vt 0.907392 0.693962
vt 0.901724 0.688402
vt 0.896374 0.688402
vt 0.896374 0.693962
vt 0.901724 0.693962
vt 0.896056 0.706035
vt 0.890707 0.706035
vt 0.890707 0.711595
vt 0.896056 0.711595
vt 0.890389 0.706035
vt 0.885039 0.706035
vt 0.885039 0.711595
vt 0.890389 0.711595
vt 0.896056 0.700157
vt 0.890707 0.700157
vt 0.890707 0.705717
vt 0.896056 0.705717
vt 0.890389 0.700157
vt 0.885039 0.700157
vt 0.885039 0.705717
vt 0.890389 0.705717
vt 0.907392 0.682524
vt 0.902042 0.682524
vt 0.902042 0.688084
vt 0.907392 0.688084
vt 0.901724 0.682524
vt 0.896374 0.682524
vt 0.896374 0.688084
vt 0.901724 0.688084
vt 0.907392 0.676647
vt 0.902042 0.676647
vt 0.902042 0.682207
vt 0.907392 0.682207
vt 0.901724 0.676647
vt 0.896374 0.676647
vt 0.896374 0.682207
vt 0.901724 0.682207
vt 0.952892 0.629626
vt 0.958401 0.632381
vt 0.958401 0.638100
vt 0.952892 0.641063
vt 0.947383 0.638309
vt 0.947383 0.632590
vt 0.964069 0.617871
vt 0.958719 0.617871
vt 0.958719 0.641063
vt 0.964069 0.641063
vt 0.918727 0.764493
vt 0.918727 0.758933
vt 0.896374 0.758933
vt 0.896374 0.764493
vt 0.964069 0.641381
vt 0.958719 0.641381
vt 0.958719 0.664574
vt 0.964069 0.664574
vt 0.941398 0.764493
vt 0.941398 0.758933
vt 0.919045 0.758933
vt 0.919045 0.764493
vt 0.947066 0.700157
vt 0.941716 0.700157
vt 0.941716 0.723350
vt 0.947066 0.723350
vt 0.907392 0.752738
vt 0.907392 0.747178
vt 0.885039 0.747178
vt 0.885039 0.752738
vt 0.171638 0.690181
vt 0.171638 0.678743
vt 0.166288 0.678743
vt 0.166288 0.690181
vt 0.149285 0.766589
vt 0.160303 0.766589
vt 0.160303 0.761029
vt 0.149285 0.761029
vt 0.171638 0.701936
vt 0.171638 0.690498
vt 0.166288 0.690498
vt 0.166288 0.701936
vt 0.024596 0.772467
vt 0.035614 0.772467
vt 0.035614 0.766907
vt 0.024596 0.766907
vt 0.171638 0.713691
vt 0.171638 0.702253
vt 0.166288 0.702253
vt 0.166288 0.713691
vt 0.035931 0.772467
vt 0.046949 0.772467
vt 0.046949 0.766907
vt 0.035931 0.766907
vt 0.171638 0.725446
vt 0.171638 0.714009
vt 0.166288 0.714009
vt 0.166288 0.725446
vt 0.047267 0.772467
vt 0.058284 0.772467
vt 0.058284 0.766907
vt 0.047267 0.766907
vt 0.171638 0.737201
vt 0.171638 0.725764
vt 0.166288 0.725764
vt 0.166288 0.737201
vt 0.058602 0.772467
vt 0.069620 0.772467
vt 0.069620 0.766907
vt 0.058602 0.766907
vt 0.171638 0.748956
vt 0.171638 0.737519
vt 0.166288 0.737519
vt 0.166288 0.748956
vt 0.069937 0.772467
vt 0.080955 0.772467
vt 0.080955 0.766907
vt 0.069937 0.766907
vt 0.115279 0.631722
vt 0.126138 0.631722
vt 0.115279 0.643001
vt 0.126138 0.714009
vt 0.115279 0.714009
vt 0.115279 0.725287
vt 0.126138 0.725764
vt 0.115279 0.725764
vt 0.115279 0.737042
vt 0.126614 0.714009
vt 0.137473 0.714009
vt 0.126614 0.725287
vt 0.126614 0.725764
vt 0.137473 0.725764
vt 0.126614 0.737042
vt 0.035455 0.731641
vt 0.024596 0.731641
vt 0.024596 0.742920
vt 0.952733 0.688402
vt 0.941716 0.688402
vt 0.941716 0.699839
vt 0.952733 0.699839
vt 0.952733 0.676647
vt 0.941716 0.676647
vt 0.941716 0.688084
vt 0.952733 0.688084
vt 0.952733 0.664892
vt 0.941716 0.664892
vt 0.941716 0.676329
vt 0.952733 0.676329
vt 0.952733 0.653136
vt 0.941716 0.653136
vt 0.941716 0.664574
vt 0.952733 0.664574
vt 0.952733 0.641381
vt 0.941716 0.641381
vt 0.941716 0.652819
vt 0.952733 0.652819
vt 0.947066 0.735423
vt 0.936048 0.735423
vt 0.936048 0.746860
vt 0.947066 0.746860
vt 0.907392 0.635504
vt 0.902042 0.635504
vt 0.902042 0.641063
vt 0.907392 0.641063
vt 0.901724 0.635504
vt 0.896374 0.635504
vt 0.896374 0.641063
vt 0.901724 0.641063
vt 0.907392 0.629626
vt 0.902042 0.629626
vt 0.902042 0.635186
vt 0.907392 0.635186
vt 0.901724 0.629626
vt 0.896374 0.629626
vt 0.896374 0.635186
vt 0.901724 0.635186
vt 0.839380 0.706035
vt 0.834030 0.706035
vt 0.834030 0.711595
vt 0.839380 0.711595
vt 0.833712 0.706035
vt 0.828362 0.706035
vt 0.828362 0.711595
vt 0.833712 0.711595
vt 0.867877 0.664892
vt 0.873386 0.670628
vt 0.873386 0.682224
vt 0.867877 0.688084
vt 0.862368 0.682348
vt 0.862368 0.670752
vt 0.862050 0.752738
vt 0.862050 0.747178
vt 0.839697 0.747178
vt 0.839697 0.752738
vt 0.947066 0.617871
vt 0.941716 0.617871
vt 0.941716 0.641063
vt 0.947066 0.641063
vt 0.839380 0.752738
vt 0.839380 0.747178
vt 0.817027 0.747178
vt 0.817027 0.752738
vt 0.935730 0.664892
vt 0.930380 0.664892
vt 0.930380 0.688084
vt 0.935730 0.688084
vt 0.850715 0.740983
vt 0.850715 0.735423
vt 0.828362 0.735423
vt 0.828362 0.740983
vt 0.935730 0.629626
vt 0.930380 0.629626
vt 0.930380 0.652819
vt 0.935730 0.652819
vt 0.839380 0.700157
vt 0.834030 0.700157
vt 0.834030 0.705717
vt 0.839380 0.705717
vt 0.833712 0.700157
vt 0.828362 0.700157
vt 0.828362 0.705717
vt 0.833712 0.705717
vt 0.896056 0.670769
vt 0.890707 0.670769
vt 0.890707 0.676329
vt 0.896056 0.676329
vt 0.890389 0.670769
vt 0.885039 0.670769
vt 0.885039 0.676329
vt 0.890389 0.676329
vt 0.896056 0.664892
vt 0.890707 0.664892
vt 0.890707 0.670451
vt 0.896056 0.670451
vt 0.890389 0.664892
vt 0.885039 0.664892
vt 0.885039 0.670451
vt 0.890389 0.670451
vt 0.103626 0.684621
vt 0.098276 0.684621
vt 0.098276 0.690181
vt 0.103626 0.690181
vt 0.890389 0.682524
vt 0.885039 0.682524
vt 0.885039 0.688084
vt 0.890389 0.688084
vt 0.896056 0.676647
vt 0.890707 0.676647
vt 0.890707 0.682207
vt 0.896056 0.682207
vt 0.941716 0.770370
vt 0.952733 0.770370
vt 0.952733 0.764811
vt 0.941716 0.764811
vt 0.137632 0.690498
vt 0.132282 0.690498
vt 0.132282 0.713691
vt 0.137632 0.713691
vt 0.817027 0.776248
vt 0.828044 0.776248
vt 0.828044 0.770688
vt 0.817027 0.770688
vn 0.4987 0.4041 -0.7668
vn 0.9987 -0.0498 -0.0149
vn 0.5094 -0.4669 0.7229
vn -0.4917 -0.4422 0.7501
vn -0.1870 -0.8488 -0.4945
vn -1.0000 0.0008 0.0004
vn -0.5083 0.4201 -0.7518
vn 0.0000 -1.0000 0.0000
vn -0.4706 -0.1019 -0.8765
vn -0.9122 -0.4085 -0.0310
vn -0.5106 -0.1721 0.8424
vn 0.4078 0.3151 0.8570
vn 0.8422 0.5392 0.0027
vn 0.4687 0.3845 -0.7953
vn -0.4671 0.0259 -0.8838
vn -0.9457 -0.3135 -0.0861
vn -0.4874 -0.3269 0.8097
vn 0.4541 0.0075 0.8909
vn 0.9364 0.3492 0.0338
vn 0.4992 0.3480 -0.7935
vn 0.2850 0.5268 0.8008
vn -0.4958 0.7504 0.4372
vn -0.2210 0.9741 0.0474
vn -0.2210 0.5214 0.8242
vn 0.5163 0.7400 0.4311
vn -0.0673 0.7407 0.6684
vn 0.0446 -0.9189 -0.3919
vn 0.0334 -0.7762 -0.6296
vn -0.1041 -0.7842 -0.6117
vn -0.1041 -0.9190 -0.3803
vn 0.1287 -0.8699 -0.4761
vn 0.1496 0.7627 0.6292
vn 0.2693 0.8321 0.4848
vn -0.1908 0.8482 0.4942
vn 0.1626 0.7383 0.6545
vn 0.1626 0.9335 0.3195
vn -0.0673 0.9468 0.3148
vn 0.1496 0.9235 0.3533
vn -0.0398 0.9359 0.3499
vn -0.0398 0.7660 0.6416
vn 0.2368 0.8395 0.4891
vn -0.1429 0.8552 0.4982
vn 0.4929 0.6226 -0.6077
vn 0.9681 0.2165 0.1261
vn 0.4929 -0.2216 0.8414
vn -0.4846 -0.2558 0.8365
vn -0.9822 0.1625 0.0946
vn -0.4842 0.6038 -0.6331
vn 0.2850 0.9564 0.0633
vn -0.5031 -0.0931 -0.8592
vn -0.9761 -0.2168 0.0138
vn -0.4901 -0.0561 0.8698
vn 0.4911 0.2148 0.8442
vn 0.9458 0.3240 -0.0206
vn 0.4724 0.1861 -0.8615
vn -0.5076 0.3924 0.7671
vn 0.4852 0.2479 0.8385
vn 0.5096 -0.3723 -0.7757
vn 0.9885 -0.1363 0.0659
vn -0.9860 0.1503 -0.0727
vn -0.4820 -0.2298 -0.8455
vn -0.4071 0.7540 0.5155
vn -0.4086 -0.0599 -0.9108
vn -0.8734 0.4235 -0.2403
vn 0.5293 0.5998 0.6000
vn 0.9906 0.1192 -0.0676
vn 0.5293 -0.2074 -0.8227
vn 0.3757 0.9200 -0.1116
vn 0.5779 0.7098 -0.4027
vn 0.3757 0.5678 -0.7324
vn -0.0332 0.9884 -0.1481
vn -0.0327 0.6348 -0.7720
vn -0.2393 0.8445 -0.4791
vn 0.0591 0.9546 -0.2920
vn 0.0591 0.7403 -0.6696
vn -0.0675 0.8678 -0.4923
vn 0.3048 0.9124 -0.2730
vn 0.4239 0.7878 -0.4469
vn 0.3048 0.7024 -0.6432
vn -0.1011 -0.9343 0.3418
vn -0.0078 -0.8697 0.4934
vn -0.1011 -0.7727 0.6266
vn -0.3811 -0.8041 0.4562
vn -0.2895 -0.9022 0.3197
vn -0.2878 -0.7399 0.6081
vn -0.2886 0.5335 -0.7951
vn -0.6867 0.6766 -0.2660
vn 0.7045 0.6605 -0.2596
vn 0.3383 0.5288 -0.7785
vn 0.4031 0.8339 0.3768
vn -0.3694 0.8447 0.3873
vn -0.1891 -0.8541 0.4846
vn -0.4839 -0.2504 0.8385
vn -0.9613 0.1494 -0.2315
vn 0.6802 -0.4244 0.5976
vn 0.5441 0.1496 -0.8256
vn -0.4347 0.0390 -0.8997
vn -0.9971 -0.0450 -0.0614
vn -0.5530 -0.0122 0.8331
vn 0.4407 0.0898 0.8932
vn 0.9844 0.1687 0.0496
vn -0.9162 0.3987 -0.0412
vn -0.5077 0.1027 0.8554
vn 0.9255 -0.3763 0.0437
vn 0.4011 -0.2722 0.8747
vn -0.3924 0.2904 -0.8728
vn 0.5127 -0.0917 -0.8537
vn -0.6416 0.7449 0.1827
vn 0.6419 0.2645 -0.7197
vn -0.1659 0.7530 -0.6368
vn -0.3082 0.2421 0.9200
vn 0.4940 -0.2465 0.8338
vn 0.9713 -0.2368 0.0204
vn 0.2647 0.7190 0.6426
vn 0.6149 0.5051 0.6057
vn 0.8230 0.5100 0.2501
vn 0.1186 0.9395 0.3213
vn 0.6802 0.7293 -0.0736
vn 0.3262 0.9445 -0.0388
vn 0.2884 0.9004 0.3256
vn 0.6281 0.7733 0.0869
vn 0.4133 0.9044 0.1063
vn 0.3788 0.7675 0.5171
vn 0.5873 0.6411 0.4940
vn 0.7117 0.6429 0.2831
vn -0.3516 -0.8753 -0.3318
vn -0.4472 -0.8784 -0.1684
vn -0.6078 -0.7795 -0.1518
vn -0.5769 -0.6736 -0.4620
vn -0.4165 -0.7729 -0.4787
vn -0.6727 -0.6770 -0.2986
vn 0.5692 0.6144 -0.5463
vn 0.0093 0.7504 -0.6610
vn 0.5301 0.7334 0.4255
vn 0.7907 0.6100 -0.0520
vn -0.0734 0.8980 0.4339
vn -0.3786 0.9107 -0.1654
vn -0.5185 -0.7954 -0.3140
vn -0.9756 0.1990 -0.0922
vn -0.5474 0.1729 0.8188
vn 0.9850 -0.1507 0.0840
vn 0.4355 -0.0078 0.9002
vn -0.4257 0.0483 -0.9036
vn 0.5546 -0.1223 -0.8231
vn -0.4842 -0.8678 0.1114
vn -0.4125 -0.8751 0.2531
vn -0.1942 -0.9703 0.1442
vn -0.2697 -0.9261 0.2637
vn -0.4021 -0.9154 -0.0180
vn -0.2543 -0.9671 0.0040
vn -0.5100 0.2034 0.8358
vn 0.4970 0.1775 0.8494
vn 0.5060 -0.1457 -0.8501
vn 1.0000 -0.0030 0.0007
vn -0.9985 0.0528 -0.0131
vn -0.4982 -0.1174 -0.8591
vn -0.1680 -0.8063 0.5671
vn 0.1111 -0.8190 0.5630
vn 0.1122 -0.9859 0.1241
vn 0.2429 -0.9069 0.3444
vn -0.3143 -0.8875 0.3370
vn -0.1660 -0.9799 0.1110
vn -0.4275 0.8819 -0.1986
vn -0.7190 0.6469 0.2541
vn -0.4394 0.4689 0.7662
vn 0.1986 0.5331 0.8224
vn 0.5608 0.8114 0.1648
vn 0.3276 0.9254 -0.1907
vn 0.1309 -0.8027 -0.5818
vn 0.3295 -0.9274 -0.1770
vn 0.2961 -0.9457 -0.1343
vn 0.0415 -0.9914 -0.1244
vn -0.1340 -0.9264 -0.3519
vn 0.0154 -0.8002 -0.5996
vn 0.9164 0.3987 0.0341
vn 0.5010 0.1027 -0.8593
vn -0.9258 -0.3763 -0.0365
vn -0.4078 -0.2722 -0.8715
vn 0.3991 0.2904 0.8697
vn -0.5061 -0.0917 0.8576
vn 0.6402 0.7449 -0.1877
vn -0.6363 0.2645 0.7247
vn 0.1708 0.7530 0.6355
vn 0.3010 0.2421 -0.9224
vn -0.5004 -0.2465 -0.8300
vn -0.9715 -0.2368 -0.0129
vn -0.2697 0.7190 -0.6406
vn -0.6195 0.5051 -0.6009
vn -0.8249 0.5100 -0.2437
vn -0.1211 0.9395 -0.3203
vn -0.6796 0.7293 0.0788
vn -0.3259 0.9445 0.0413
vn -0.2910 0.9004 -0.3234
vn -0.6287 0.7733 -0.0820
vn -0.4141 0.9044 -0.1031
vn -0.3828 0.7675 -0.5142
vn -0.5911 0.6411 -0.4894
vn -0.7139 0.6429 -0.2776
vn 0.3542 -0.8753 0.3291
vn 0.4485 -0.8784 0.1649
vn 0.6089 -0.7795 0.1471
vn 0.5805 -0.6736 0.4575
vn 0.4202 -0.7729 0.4755
vn 0.6750 -0.6770 0.2934
vn -0.5650 0.6144 0.5507
vn -0.0042 0.7504 0.6610
vn -0.5334 0.7334 -0.4214
vn -0.7902 0.6100 0.0581
vn 0.0701 0.8980 -0.4344
vn 0.3798 0.9107 0.1625
vn 0.5209 -0.7954 0.3100
vn 0.9634 0.2603 0.0646
vn 0.5260 0.2273 -0.8195
vn -0.9953 -0.0803 -0.0547
vn -0.4514 0.0605 -0.8903
vn 0.4255 0.1175 0.8973
vn -0.5515 -0.0551 0.8324
vn 0.4833 -0.8678 -0.1152
vn 0.4105 -0.8751 -0.2563
vn 0.1931 -0.9703 -0.1457
vn 0.2677 -0.9261 -0.2658
vn 0.4022 -0.9154 0.0149
vn 0.2542 -0.9671 -0.0060
vn -0.4054 -0.0511 -0.9127
vn 0.6374 -0.5438 -0.5459
vn -0.9390 0.3168 0.1336
vn 0.1719 -0.6150 0.7696
vn 0.4573 0.4544 -0.7644
usemtl low_poly_mushrooms_texture_atlas
s off
f 166/1/1 2/2/1 4/3/1 167/4/1
f 167/5/2 4/6/2 6/7/2 168/8/2
f 168/9/3 6/10/3 8/11/3 169/12/3
f 169/13/4 8/14/4 10/15/4 170/16/4
f 12/17/5 10/18/5 53/19/5 55/20/5
f 170/21/6 10/22/6 12/23/6 171/24/6
f 171/25/7 12/26/7 2/27/7 166/28/7
f 1/29/8 3/30/8 5/31/8 7/32/8 9/33/8 11/34/8
f 11/35/9 18/36/9 13/37/9 1/38/9
f 9/39/10 17/40/10 18/41/10 11/42/10
f 7/43/11 16/44/11 17/45/11 9/46/11
f 5/47/12 15/48/12 16/49/12 7/50/12
f 3/51/13 14/52/13 15/53/13 5/54/13
f 1/55/14 13/56/14 14/57/14 3/58/14
f 18/59/15 24/60/15 19/61/15 13/62/15
f 17/63/16 23/64/16 24/65/16 18/66/16
f 16/67/17 22/68/17 23/69/17 17/70/17
f 15/71/18 21/72/18 22/73/18 16/74/18
f 14/75/19 20/76/19 21/77/19 15/78/19
f 13/79/20 19/80/20 20/81/20 14/82/20
f 30/83/8 29/84/8 28/85/8 27/86/8 26/87/8 25/88/8
f 50/89/21 48/90/21 33/91/21 34/92/21
f 54/93/22 52/94/22 35/95/22 36/96/22
f 45/97/23 54/98/23 36/99/23 31/100/23
f 52/101/24 94/102/24 96/103/24 93/104/24 50/105/24 34/106/24 35/107/24
f 48/108/25 234/109/25 237/110/25 233/111/25 46/112/25 32/113/25 33/114/25
f 35/115/26 34/116/26 40/117/26 41/118/26
f 8/119/27 6/120/27 49/121/27 51/122/27
f 4/123/28 2/124/28 44/125/28 47/126/28
f 2/127/29 12/128/29 55/129/29 44/130/29
f 10/131/30 8/132/30 51/133/30 95/134/30 98/135/30 97/136/30 53/137/30
f 6/138/31 4/139/31 47/140/31 236/141/31 238/142/31 235/143/31 49/144/31
f 40/145/32 39/146/32 43/147/32
f 33/148/33 32/149/33 38/150/33 39/151/33
f 36/152/34 35/153/34 41/154/34 42/155/34
f 34/156/35 33/157/35 39/158/35 40/159/35
f 32/160/36 31/161/36 37/162/36 38/163/36
f 31/164/37 36/165/37 42/166/37 37/167/37
f 38/168/38 37/169/38 43/170/38
f 37/171/39 42/172/39 43/173/39
f 41/174/40 40/175/40 43/176/40
f 39/177/41 38/178/41 43/179/41
f 42/180/42 41/181/42 43/182/42
f 47/183/43 44/184/43 45/185/43 46/186/43
f 49/187/44 235/188/44 234/189/44 48/190/44
f 51/191/45 49/192/45 48/193/45 50/194/45
f 53/195/46 97/196/46 94/197/46 52/198/46
f 55/199/47 53/200/47 52/201/47 54/202/47
f 44/203/48 55/204/48 54/205/48 45/206/48
f 46/207/49 45/208/49 31/209/49 32/210/49
f 25/211/50 61/212/50 56/213/50 30/214/50
f 26/215/51 60/216/51 61/217/51 25/218/51
f 27/219/52 59/220/52 60/221/52 26/222/52
f 28/223/53 58/224/53 59/225/53 27/226/53
f 29/227/54 57/228/54 58/229/54 28/230/54
f 30/231/55 56/232/55 57/233/55 29/234/55
f 88/235/56 87/236/56 65/237/56 66/238/56
f 87/239/57 89/240/57 64/241/57 65/242/57
f 91/243/58 90/244/58 62/245/58 63/246/58
f 89/247/59 91/248/59 63/249/59 64/250/59
f 92/251/60 88/252/60 66/253/60 67/254/60
f 90/255/61 92/256/61 67/257/61 62/258/61
f 84/259/62 85/260/62 71/261/62 72/262/62
f 82/263/63 228/264/63 230/265/63 68/266/63
f 83/267/64 84/268/64 72/269/64 73/270/64
f 85/271/65 81/272/65 70/273/65 71/274/65
f 81/275/66 86/276/66 69/277/66 70/278/66
f 86/279/67 82/280/67 68/281/67 69/282/67
f 71/283/68 70/284/68 76/285/68 77/286/68
f 70/287/69 69/288/69 75/289/69 76/290/69
f 69/291/70 68/292/70 74/293/70 75/294/70
f 72/295/71 71/296/71 77/297/71 78/298/71
f 68/299/72 230/300/72 231/301/72 229/302/72 73/303/72 79/304/72 74/305/72
f 73/306/73 72/307/73 78/308/73 79/309/73
f 78/310/74 77/311/74 80/312/74
f 74/313/75 79/314/75 80/315/75
f 79/316/76 78/317/76 80/318/76
f 77/319/77 76/320/77 80/321/77
f 76/322/78 75/323/78 80/324/78
f 75/325/79 74/326/79 80/327/79
f 63/328/80 62/329/80 82/330/80 86/331/80
f 64/332/81 63/333/81 86/334/81 81/335/81
f 65/336/82 64/337/82 81/338/82 85/339/82
f 67/340/83 66/341/83 84/342/83 83/343/83
f 62/344/84 67/345/84 83/346/84 227/347/84 232/348/84 228/349/84 82/350/84
f 66/351/85 65/352/85 85/353/85 84/354/85
f 162/355/86 165/356/86 92/357/86 90/358/86
f 165/359/87 163/360/87 88/361/87 92/362/87
f 161/363/88 164/364/88 91/365/88 89/366/88
f 164/367/89 162/368/89 90/369/89 91/370/89
f 160/371/90 161/372/90 89/373/90 87/374/90
f 163/375/91 160/376/91 87/377/91 88/378/91
f 79/379/92 74/380/92 75/381/92 76/382/92 77/383/92 78/384/92
f 93/385/93 95/386/93 51/387/93 50/388/93
f 98/389/94 95/390/94 93/391/94 96/392/94
f 98/393/95 96/394/95 94/395/95 97/396/95
f 104/397/8 103/398/8 102/399/8 101/400/8 100/401/8 99/402/8
f 99/403/96 110/404/96 105/405/96 104/406/96
f 100/407/97 109/408/97 110/409/97 99/410/97
f 101/411/98 108/412/98 109/413/98 100/414/98
f 102/415/99 107/416/99 108/417/99 101/418/99
f 103/419/100 106/420/100 107/421/100 102/422/100
f 104/423/101 105/424/101 106/425/101 103/426/101
f 137/427/102 136/428/102 114/429/102 115/430/102
f 136/431/103 138/432/103 113/433/103 114/434/103
f 140/435/104 139/436/104 111/437/104 112/438/104
f 138/439/105 140/440/105 112/441/105 113/442/105
f 141/443/106 137/444/106 115/445/106 116/446/106
f 139/447/107 141/448/107 116/449/107 111/450/107
f 133/451/108 134/452/108 120/453/108 121/454/108
f 131/455/109 132/456/109 122/457/109 117/458/109
f 132/459/110 133/460/110 121/461/110 122/462/110
f 134/463/111 130/464/111 119/465/111 120/466/111
f 130/467/112 135/468/112 118/469/112 119/470/112
f 135/471/113 131/472/113 117/473/113 118/474/113
f 120/475/114 119/476/114 125/477/114 126/478/114
f 119/479/115 118/480/115 124/481/115 125/482/115
f 118/483/116 117/484/116 123/485/116 124/486/116
f 121/487/117 120/488/117 126/489/117 127/490/117
f 117/491/118 122/492/118 128/493/118 123/494/118
f 122/495/119 121/496/119 127/497/119 128/498/119
f 127/499/120 126/500/120 129/501/120
f 123/502/121 128/503/121 129/504/121
f 128/505/122 127/506/122 129/507/122
f 126/508/123 125/509/123 129/510/123
f 125/511/124 124/512/124 129/513/124
f 124/514/125 123/515/125 129/516/125
f 112/517/126 111/518/126 131/519/126 135/520/126
f 113/521/127 112/522/127 135/523/127 130/524/127
f 114/525/128 113/526/128 130/527/128 134/528/128
f 116/529/129 115/530/129 133/531/129 132/532/129
f 111/533/130 116/534/130 132/535/130 131/536/130
f 115/537/131 114/538/131 134/539/131 133/540/131
f 150/541/132 153/542/132 141/543/132 139/544/132
f 153/545/133 151/546/133 137/547/133 141/548/133
f 149/549/134 152/550/134 140/551/134 138/552/134
f 152/553/135 150/554/135 139/555/135 140/556/135
f 148/557/136 149/558/136 138/559/136 136/560/136
f 151/561/137 148/562/137 136/563/137 137/564/137
f 128/565/138 123/566/138 124/567/138 125/568/138 126/569/138 127/570/138
f 109/571/139 108/572/139 145/573/139 142/574/139
f 108/575/140 107/576/140 146/577/140 145/578/140
f 106/579/141 105/580/141 147/581/141 143/582/141
f 107/583/142 106/584/142 143/585/142 146/586/142
f 110/587/143 109/588/143 142/589/143 144/590/143
f 105/591/144 110/592/144 144/593/144 147/594/144
f 142/595/145 145/596/145 148/597/145 151/598/145
f 145/599/146 146/600/146 149/601/146 148/602/146
f 143/603/147 147/604/147 150/605/147 152/606/147
f 146/607/148 143/608/148 152/609/148 149/610/148
f 144/611/149 142/612/149 151/613/149 153/614/149
f 147/615/150 144/616/150 153/617/150 150/618/150
f 60/619/151 59/620/151 157/621/151 154/622/151
f 59/623/152 58/624/152 158/625/152 157/626/152
f 57/627/153 56/628/153 159/629/153 155/630/153
f 58/631/154 57/632/154 155/633/154 158/634/154
f 61/635/155 60/636/155 154/637/155 156/638/155
f 56/639/156 61/640/156 156/641/156 159/642/156
f 154/643/157 157/644/157 160/645/157 163/646/157
f 157/647/158 158/648/158 161/649/158 160/650/158
f 155/651/159 159/652/159 162/653/159 164/654/159
f 158/655/160 155/656/160 164/657/160 161/658/160
f 156/659/161 154/660/161 163/661/161 165/662/161
f 159/663/162 156/664/162 165/665/162 162/666/162
f 176/667/163 171/668/163 166/669/163 177/670/163
f 175/671/164 170/672/164 171/673/164 176/674/164
f 174/675/165 169/676/165 170/677/165 175/678/165
f 173/679/166 168/680/166 169/681/166 174/682/166
f 172/683/167 167/684/167 168/685/167 173/686/167
f 177/687/168 166/688/168 167/689/168 172/690/168
f 19/691/169 177/692/169 172/693/169 20/694/169
f 20/695/170 172/696/170 173/697/170 21/698/170
f 21/699/171 173/700/171 174/701/171 22/702/171
f 22/703/172 174/704/172 175/705/172 23/706/172
f 23/707/173 175/708/173 176/709/173 24/710/173
f 24/711/174 176/712/174 177/713/174 19/714/174
f 178/715/8 179/716/8 180/717/8 181/718/8 182/719/8 183/720/8
f 210/721/175 209/722/175 187/723/175 188/724/175
f 209/725/176 211/726/176 186/727/176 187/728/176
f 213/729/177 212/730/177 184/731/177 185/732/177
f 211/733/178 213/734/178 185/735/178 186/736/178
f 214/737/179 210/738/179 188/739/179 189/740/179
f 212/741/180 214/742/180 189/743/180 184/744/180
f 206/745/181 207/746/181 193/747/181 194/748/181
f 204/749/182 205/750/182 195/751/182 190/752/182
f 205/753/183 206/754/183 194/755/183 195/756/183
f 207/757/184 203/758/184 192/759/184 193/760/184
f 203/761/185 208/762/185 191/763/185 192/764/185
f 208/765/186 204/766/186 190/767/186 191/768/186
f 193/769/187 192/770/187 198/771/187 199/772/187
f 192/773/188 191/774/188 197/775/188 198/776/188
f 191/777/189 190/778/189 196/779/189 197/780/189
f 194/781/190 193/782/190 199/783/190 200/784/190
f 190/785/191 195/786/191 201/787/191 196/788/191
f 195/789/192 194/790/192 200/791/192 201/792/192
f 200/793/193 199/794/193 202/795/193
f 196/796/194 201/797/194 202/798/194
f 201/799/195 200/800/195 202/801/195
f 199/802/196 198/803/196 202/804/196
f 198/805/197 197/806/197 202/807/197
f 197/808/198 196/809/198 202/810/198
f 185/811/199 184/812/199 204/813/199 208/814/199
f 186/815/200 185/816/200 208/817/200 203/818/200
f 187/819/201 186/820/201 203/821/201 207/822/201
f 189/823/202 188/824/202 206/825/202 205/826/202
f 184/827/203 189/828/203 205/829/203 204/830/203
f 188/831/204 187/832/204 207/833/204 206/834/204
f 223/835/205 226/836/205 214/837/205 212/838/205
f 226/839/206 224/840/206 210/841/206 214/842/206
f 222/843/207 225/844/207 213/845/207 211/846/207
f 225/847/208 223/848/208 212/849/208 213/850/208
f 221/851/209 222/852/209 211/853/209 209/854/209
f 224/855/210 221/856/210 209/857/210 210/858/210
f 201/859/211 196/860/211 197/861/211 198/862/211 199/863/211 200/864/211
f 182/865/212 181/866/212 218/867/212 215/868/212
f 181/869/213 180/870/213 219/871/213 218/872/213
f 179/873/214 178/874/214 220/875/214 216/876/214
f 180/877/215 179/878/215 216/879/215 219/880/215
f 183/881/216 182/882/216 215/883/216 217/884/216
f 178/885/217 183/886/217 217/887/217 220/888/217
f 215/889/218 218/890/218 221/891/218 224/892/218
f 218/893/219 219/894/219 222/895/219 221/896/219
f 216/897/220 220/898/220 223/899/220 225/900/220
f 219/901/221 216/902/221 225/903/221 222/904/221
f 217/905/222 215/906/222 224/907/222 226/908/222
f 220/909/223 217/910/223 226/911/223 223/912/223
f 229/913/224 227/914/224 83/915/224 73/916/224
f 232/917/225 227/918/225 229/919/225 231/920/225
f 231/921/226 230/922/226 228/923/226 232/924/226
f 238/925/227 236/926/227 233/927/227 237/928/227
f 233/929/44 236/930/44 47/931/44 46/932/44
f 237/933/228 234/934/228 235/935/228 238/936/228
