# Blender v2.82 (sub 7) OBJ File: 'low_poly_mushrooms.blend'
# www.blender.org
mtllib orange-cap_boletus.mtl
o orange-cap_boletus_Cylinder.012
v -0.003764 0.000145 -0.046099
v -0.072365 0.313975 0.003503
v 0.014989 0.000145 -0.001476
v -0.060458 0.311482 0.029470
v -0.014280 0.000145 0.037076
v -0.074687 0.298245 0.050557
v -0.062301 0.000145 0.031004
v -0.100822 0.287501 0.045675
v -0.081053 0.000145 -0.013619
v -0.112728 0.289994 0.019708
v -0.051785 0.000145 -0.052170
v -0.098500 0.303231 -0.001379
v -0.003081 0.058899 -0.051115
v 0.017498 0.056767 -0.002339
v -0.014436 0.052505 0.039724
v -0.066949 0.050373 0.033010
v -0.087528 0.052505 -0.015767
v -0.055594 0.056767 -0.057829
v -0.017521 0.106470 -0.039796
v -0.002179 0.104052 -0.003623
v -0.025803 0.099218 0.027493
v -0.064767 0.096800 0.022437
v -0.080109 0.099218 -0.013736
v -0.056485 0.104052 -0.044852
v 0.006286 0.000296 -0.067513
v 0.006286 0.000296 -0.031176
v 0.037755 0.000296 -0.013007
v 0.069224 0.000296 -0.031176
v 0.069224 0.000296 -0.067513
v 0.037755 0.000296 -0.085682
v -0.055293 0.400479 -0.039863
v -0.010439 0.390920 0.058495
v -0.064506 0.340618 0.138622
v -0.163427 0.299876 0.120391
v -0.209063 0.309265 0.021397
v -0.154996 0.359567 -0.058729
v -0.089505 0.400181 -0.007300
v -0.061307 0.394276 0.054196
v -0.095002 0.362928 0.104132
v -0.156895 0.337484 0.092572
v -0.185092 0.343388 0.031076
v -0.151397 0.374737 -0.018860
v -0.135189 0.380788 0.042051
v -0.024623 0.367383 -0.069656
v -0.024238 0.378646 -0.072987
v 0.030105 0.380982 0.055959
v 0.026513 0.370428 0.052254
v -0.038425 0.310672 0.159271
v -0.038117 0.303746 0.149787
v -0.167612 0.260172 0.135504
v -0.159552 0.253824 0.127106
v -0.225593 0.270127 0.007497
v -0.214876 0.265409 0.006449
v -0.149691 0.314600 -0.097996
v -0.142855 0.306272 -0.093294
v 0.040484 0.023103 -0.084088
v 0.069462 0.024835 -0.067257
v 0.069462 0.030910 -0.034074
v 0.040484 0.035254 -0.017722
v 0.011506 0.033522 -0.034553
v 0.011506 0.027447 -0.067736
v 0.042527 0.101601 -0.079131
v 0.059956 0.106252 -0.069818
v 0.059956 0.111581 -0.050117
v 0.042527 0.112259 -0.039729
v 0.025099 0.107607 -0.049042
v 0.025099 0.102278 -0.068743
v 0.041080 0.118127 -0.128213
v 0.094719 0.131412 -0.099339
v 0.094719 0.147778 -0.038833
v 0.041080 0.150860 -0.007200
v -0.012559 0.137576 -0.036073
v -0.012559 0.121209 -0.096580
v 0.036468 0.141306 -0.120524
v 0.076902 0.151320 -0.098758
v 0.076902 0.163657 -0.053148
v 0.036468 0.165980 -0.029303
v -0.003966 0.155966 -0.051068
v -0.003966 0.143629 -0.096678
v 0.032921 0.170061 -0.073750
v 0.085110 0.124131 -0.038357
v 0.042289 0.100682 -0.109660
v -0.000532 0.102541 -0.084203
v -0.000532 0.115627 -0.035823
v 0.042289 0.126855 -0.012900
v 0.085110 0.111910 -0.086738
v 0.081591 0.000296 0.024654
v 0.047867 0.000296 -0.001837
v 0.008062 0.000296 0.014123
v 0.001982 0.000296 0.056576
v 0.035706 0.000296 0.083067
v 0.075511 0.000296 0.067107
v 0.066599 0.059435 0.064201
v 0.036348 0.061117 0.076240
v 0.010994 0.067020 0.056324
v 0.015892 0.071240 0.024369
v 0.046143 0.069558 0.012330
v 0.071497 0.063655 0.032246
v 0.064118 0.120488 0.065318
v 0.044911 0.125426 0.073762
v 0.028462 0.131084 0.060840
v 0.031219 0.131804 0.039475
v 0.050426 0.126865 0.031032
v 0.066875 0.121207 0.043953
v 0.111931 0.135034 0.102309
v 0.043579 0.151295 0.132109
v -0.014664 0.171328 0.086358
v -0.004555 0.175101 0.010806
v 0.063797 0.158840 -0.018994
v 0.122040 0.138807 0.026757
v 0.099391 0.164111 0.090736
v 0.052777 0.175200 0.111058
v 0.013058 0.188862 0.079858
v 0.019952 0.191435 0.028334
v 0.066565 0.180346 0.008012
v 0.106285 0.166683 0.039212
v 0.064269 0.188662 0.058451
v -0.010460 0.148851 0.078803
v 0.098659 0.121978 0.092518
v 0.107165 0.124948 0.027198
v 0.056858 0.142414 -0.012319
v -0.001954 0.151309 0.013483
v 0.039847 0.131548 0.118320
v 0.047971 0.028576 -0.001408
v 0.000266 0.027207 0.058915
v 0.082774 0.025391 0.025930
v 0.035069 0.024021 0.086254
v 0.006717 0.029484 0.015085
v 0.076323 0.023113 0.069762
v 0.041363 0.063166 -0.026548
v 0.020428 0.060772 -0.038452
v 0.062299 0.060641 -0.038537
v 0.041363 0.053327 -0.074334
v 0.062299 0.055721 -0.062430
v 0.020428 0.055852 -0.062344
v -0.049481 0.257176 -0.010001
v -0.029074 0.188117 -0.025026
v -0.014922 0.184821 0.007791
v -0.036410 0.254322 0.019280
v -0.035038 0.172227 0.034939
v -0.054008 0.243142 0.043558
v -0.069628 0.162875 0.029275
v -0.084555 0.234845 0.038574
v -0.083931 0.166195 -0.003821
v -0.097589 0.237692 0.009412
v -0.063477 0.178840 -0.030958
v -0.080113 0.248839 -0.014889
vt 0.946593 0.443208
vt 0.946593 0.422922
vt 0.936604 0.422922
vt 0.936604 0.443208
vt 0.843926 0.525589
vt 0.864212 0.525589
vt 0.864212 0.515601
vt 0.843926 0.515601
vt 0.915700 0.484399
vt 0.915700 0.464113
vt 0.905711 0.464113
vt 0.905711 0.484399
vt 0.823330 0.525589
vt 0.843616 0.525589
vt 0.843616 0.515601
vt 0.823330 0.515601
vt 0.843616 0.464113
vt 0.823330 0.464113
vt 0.823330 0.484399
vt 0.843616 0.484399
vt 0.915700 0.463804
vt 0.915700 0.443518
vt 0.905711 0.443518
vt 0.905711 0.463804
vt 0.884807 0.458732
vt 0.874664 0.463804
vt 0.864521 0.458732
vt 0.864521 0.448589
vt 0.874664 0.443518
vt 0.884807 0.448589
vt 0.977486 0.474411
vt 0.967497 0.474411
vt 0.967497 0.484399
vt 0.977486 0.484399
vt 0.977486 0.464113
vt 0.967497 0.464113
vt 0.967497 0.474101
vt 0.977486 0.474101
vt 0.833319 0.567089
vt 0.823330 0.567089
vt 0.823330 0.577078
vt 0.833319 0.577078
vt 0.977486 0.422922
vt 0.967497 0.422922
vt 0.967497 0.432911
vt 0.977486 0.432911
vt 0.967188 0.556792
vt 0.957200 0.556792
vt 0.957200 0.566780
vt 0.967188 0.566780
vt 0.967188 0.546494
vt 0.957200 0.546494
vt 0.957200 0.556482
vt 0.967188 0.556482
vt 0.956890 0.556792
vt 0.946902 0.556792
vt 0.946902 0.566780
vt 0.956890 0.566780
vt 0.967188 0.536196
vt 0.957200 0.536196
vt 0.957200 0.546185
vt 0.967188 0.546185
vt 0.915700 0.556792
vt 0.905711 0.556792
vt 0.905711 0.566780
vt 0.915700 0.566780
vt 0.915700 0.546494
vt 0.905711 0.546494
vt 0.905711 0.556482
vt 0.915700 0.556482
vt 0.956890 0.505303
vt 0.946902 0.505303
vt 0.946902 0.515292
vt 0.956890 0.515292
vt 0.905402 0.546494
vt 0.895414 0.546494
vt 0.895414 0.556482
vt 0.905402 0.556482
vt 0.885116 0.502497
vt 0.885116 0.497503
vt 0.895259 0.495006
vt 0.905402 0.497503
vt 0.905402 0.502497
vt 0.895259 0.504994
vt 0.704150 0.658767
vt 0.704150 0.638481
vt 0.694162 0.638481
vt 0.694162 0.658767
vt 0.622078 0.710255
vt 0.642364 0.710255
vt 0.642364 0.700266
vt 0.622078 0.700266
vt 0.704150 0.679362
vt 0.704150 0.659076
vt 0.694162 0.659076
vt 0.694162 0.679362
vt 0.642673 0.710255
vt 0.662960 0.710255
vt 0.662960 0.700266
vt 0.642673 0.700266
vt 0.735043 0.720553
vt 0.735043 0.700266
vt 0.725055 0.700266
vt 0.725055 0.720553
vt 0.663269 0.710255
vt 0.683555 0.710255
vt 0.683555 0.700266
vt 0.663269 0.700266
vt 0.884807 0.464113
vt 0.864521 0.464113
vt 0.864521 0.484399
vt 0.884807 0.484399
vt 0.884807 0.422922
vt 0.864521 0.422922
vt 0.864521 0.443208
vt 0.884807 0.443208
vt 0.864212 0.443518
vt 0.843926 0.443518
vt 0.843926 0.463804
vt 0.864212 0.463804
vt 0.864212 0.422922
vt 0.843926 0.422922
vt 0.843926 0.443208
vt 0.864212 0.443208
vt 0.843616 0.443518
vt 0.823330 0.443518
vt 0.823330 0.463804
vt 0.843616 0.463804
vt 0.642364 0.638171
vt 0.622233 0.638171
vt 0.642364 0.618040
vt 0.714448 0.699957
vt 0.714448 0.679671
vt 0.704459 0.679671
vt 0.704459 0.699957
vt 0.663269 0.720553
vt 0.683555 0.720553
vt 0.683555 0.710564
vt 0.663269 0.710564
vt 0.724745 0.638171
vt 0.724745 0.617885
vt 0.714757 0.617885
vt 0.714757 0.638171
vt 0.683864 0.720553
vt 0.704150 0.720553
vt 0.704150 0.710564
vt 0.683864 0.710564
vt 0.724745 0.658767
vt 0.724745 0.638481
vt 0.714757 0.638481
vt 0.714757 0.658767
vt 0.642828 0.679362
vt 0.662960 0.679362
vt 0.662960 0.659231
vt 0.622078 0.638017
vt 0.622078 0.617885
vt 0.642210 0.617885
vt 0.704150 0.710255
vt 0.684019 0.710255
vt 0.704150 0.700421
vt 0.642673 0.659076
vt 0.662805 0.659076
vt 0.642673 0.679207
vt 0.703995 0.700266
vt 0.683864 0.710100
vt 0.683864 0.700266
vt 0.704459 0.710255
vt 0.724745 0.710255
vt 0.724745 0.700266
vt 0.704459 0.700266
vt 0.724745 0.679362
vt 0.724745 0.659076
vt 0.714757 0.659076
vt 0.714757 0.679362
vt 0.704459 0.720553
vt 0.724745 0.720553
vt 0.724745 0.710564
vt 0.704459 0.710564
vt 0.724745 0.699957
vt 0.724745 0.679671
vt 0.714757 0.679671
vt 0.714757 0.699957
vt 0.622078 0.730850
vt 0.642364 0.730850
vt 0.642364 0.720862
vt 0.622078 0.720862
vt 0.735043 0.638171
vt 0.735043 0.617885
vt 0.725055 0.617885
vt 0.725055 0.638171
vt 0.642673 0.730850
vt 0.662960 0.730850
vt 0.662960 0.720862
vt 0.642673 0.720862
vt 0.956890 0.495006
vt 0.946902 0.495006
vt 0.946902 0.504994
vt 0.956890 0.504994
vt 0.895105 0.546494
vt 0.885116 0.546494
vt 0.885116 0.556482
vt 0.895105 0.556482
vt 0.956890 0.484708
vt 0.946902 0.484708
vt 0.946902 0.494697
vt 0.956890 0.494697
vt 0.874509 0.546494
vt 0.864521 0.546494
vt 0.864521 0.556482
vt 0.874509 0.556482
vt 0.864212 0.546494
vt 0.854223 0.546494
vt 0.854223 0.556482
vt 0.864212 0.556482
vt 0.946593 0.536196
vt 0.936604 0.536196
vt 0.936604 0.546185
vt 0.946593 0.546185
vt 0.925997 0.536196
vt 0.916009 0.536196
vt 0.916009 0.546185
vt 0.925997 0.546185
vt 0.915700 0.525899
vt 0.905711 0.525899
vt 0.905711 0.535887
vt 0.915700 0.535887
vt 0.925997 0.525899
vt 0.916009 0.525899
vt 0.916009 0.535887
vt 0.925997 0.535887
vt 0.936295 0.525899
vt 0.926307 0.525899
vt 0.926307 0.535887
vt 0.936295 0.535887
vt 0.833319 0.536196
vt 0.823330 0.536196
vt 0.823330 0.546185
vt 0.833319 0.546185
vt 0.843616 0.536196
vt 0.833628 0.536196
vt 0.833628 0.546185
vt 0.843616 0.546185
vt 0.652662 0.731159
vt 0.642673 0.731159
vt 0.642673 0.741148
vt 0.652662 0.741148
vt 0.745341 0.638481
vt 0.735352 0.638481
vt 0.735352 0.648469
vt 0.745341 0.648469
vt 0.745341 0.648778
vt 0.735352 0.648778
vt 0.735352 0.658767
vt 0.745341 0.658767
vt 0.662960 0.731159
vt 0.652971 0.731159
vt 0.652971 0.741148
vt 0.662960 0.741148
vt 0.745341 0.659076
vt 0.735352 0.659076
vt 0.735352 0.669064
vt 0.745341 0.669064
vt 0.673257 0.731159
vt 0.663269 0.731159
vt 0.663269 0.741148
vt 0.673257 0.741148
vt 0.745341 0.669374
vt 0.735352 0.669374
vt 0.735352 0.679362
vt 0.745341 0.679362
vt 0.683555 0.731159
vt 0.673566 0.731159
vt 0.673566 0.741148
vt 0.683555 0.741148
vt 0.745341 0.679671
vt 0.735352 0.679671
vt 0.735352 0.689660
vt 0.745341 0.689660
vt 0.693852 0.731159
vt 0.683864 0.731159
vt 0.683864 0.741148
vt 0.693852 0.741148
vt 0.745341 0.689969
vt 0.735352 0.689969
vt 0.735352 0.699957
vt 0.745341 0.699957
vt 0.704150 0.731159
vt 0.694162 0.731159
vt 0.694162 0.741148
vt 0.704150 0.741148
vt 0.673257 0.762207
vt 0.663423 0.772041
vt 0.673257 0.772041
vt 0.653126 0.772041
vt 0.662960 0.772041
vt 0.662960 0.762207
vt 0.776233 0.648933
vt 0.776233 0.658767
vt 0.766400 0.658767
vt 0.663269 0.762052
vt 0.663269 0.771886
vt 0.673102 0.762052
vt 0.766245 0.648778
vt 0.776079 0.648778
vt 0.766245 0.658612
vt 0.652971 0.762052
vt 0.662805 0.762052
vt 0.652971 0.771886
vt 0.714448 0.731159
vt 0.704459 0.731159
vt 0.704459 0.741148
vt 0.714448 0.741148
vt 0.745341 0.700266
vt 0.735352 0.700266
vt 0.735352 0.710255
vt 0.745341 0.710255
vt 0.683555 0.762052
vt 0.673566 0.762052
vt 0.673566 0.772041
vt 0.683555 0.772041
vt 0.745341 0.710564
vt 0.735352 0.710564
vt 0.735352 0.720553
vt 0.745341 0.720553
vt 0.745341 0.720862
vt 0.735352 0.720862
vt 0.735352 0.730850
vt 0.745341 0.730850
vt 0.735043 0.731159
vt 0.725055 0.731159
vt 0.725055 0.741148
vt 0.735043 0.741148
vt 0.823330 0.489780
vt 0.833474 0.484708
vt 0.843616 0.489780
vt 0.843616 0.499923
vt 0.833473 0.504994
vt 0.823330 0.499923
vt 0.833319 0.546494
vt 0.823330 0.546494
vt 0.823330 0.556482
vt 0.833319 0.556482
vt 0.956890 0.422922
vt 0.946902 0.422922
vt 0.946902 0.432911
vt 0.956890 0.432911
vt 0.956890 0.433220
vt 0.946902 0.433220
vt 0.946902 0.443208
vt 0.956890 0.443208
vt 0.843616 0.546494
vt 0.833628 0.546494
vt 0.833628 0.556482
vt 0.843616 0.556482
vt 0.853914 0.546494
vt 0.843926 0.546494
vt 0.843926 0.556482
vt 0.853914 0.556482
vt 0.956890 0.443518
vt 0.946902 0.443518
vt 0.946902 0.453506
vt 0.956890 0.453506
vt 0.956890 0.453815
vt 0.946902 0.453815
vt 0.946902 0.463804
vt 0.956890 0.463804
vt 0.936295 0.484708
vt 0.926307 0.484708
vt 0.926307 0.504994
vt 0.936295 0.504994
vt 0.956890 0.464113
vt 0.946902 0.464113
vt 0.946902 0.474101
vt 0.956890 0.474101
vt 0.905402 0.535887
vt 0.905402 0.525899
vt 0.885116 0.525899
vt 0.885116 0.535887
vt 0.956890 0.474411
vt 0.946902 0.474411
vt 0.946902 0.484399
vt 0.956890 0.484399
vt 0.884807 0.546494
vt 0.874819 0.546494
vt 0.874819 0.556482
vt 0.884807 0.556482
vt 0.735043 0.679362
vt 0.735043 0.659076
vt 0.725055 0.659076
vt 0.725055 0.679362
vt 0.663269 0.730850
vt 0.683555 0.730850
vt 0.683555 0.720862
vt 0.663269 0.720862
vt 0.735043 0.658767
vt 0.735043 0.638481
vt 0.725055 0.638481
vt 0.725055 0.658767
vt 0.683864 0.689660
vt 0.704150 0.689660
vt 0.704150 0.679671
vt 0.683864 0.679671
vt 0.704150 0.638171
vt 0.704150 0.617885
vt 0.694162 0.617885
vt 0.694162 0.638171
vt 0.663269 0.699957
vt 0.683555 0.699957
vt 0.683555 0.689969
vt 0.663269 0.689969
vt 0.755638 0.710564
vt 0.745650 0.710564
vt 0.745650 0.720553
vt 0.755638 0.720553
vt 0.724745 0.741457
vt 0.714757 0.741457
vt 0.714757 0.751445
vt 0.724745 0.751445
vt 0.755638 0.720862
vt 0.745650 0.720862
vt 0.745650 0.730850
vt 0.755638 0.730850
vt 0.735043 0.741457
vt 0.725055 0.741457
vt 0.725055 0.751445
vt 0.735043 0.751445
vt 0.755638 0.731159
vt 0.745650 0.731159
vt 0.745650 0.741148
vt 0.755638 0.741148
vt 0.745341 0.741457
vt 0.735352 0.741457
vt 0.735352 0.751445
vt 0.745341 0.751445
vt 0.776233 0.648469
vt 0.776233 0.638635
vt 0.766400 0.648469
vt 0.652662 0.762207
vt 0.652662 0.772041
vt 0.642828 0.772041
vt 0.766245 0.648314
vt 0.776079 0.638481
vt 0.766245 0.638481
vt 0.642364 0.772041
vt 0.632531 0.772041
vt 0.642364 0.762207
vt 0.642673 0.762052
vt 0.652507 0.762052
vt 0.642673 0.771886
vt 0.642210 0.762052
vt 0.632376 0.762052
vt 0.632376 0.771886
vt 0.755638 0.741457
vt 0.745650 0.741457
vt 0.745650 0.751445
vt 0.755638 0.751445
vt 0.765936 0.617885
vt 0.755947 0.617885
vt 0.755947 0.627874
vt 0.765936 0.627874
vt 0.632067 0.751755
vt 0.622078 0.751755
vt 0.622078 0.761743
vt 0.632067 0.761743
vt 0.642364 0.751755
vt 0.632376 0.751755
vt 0.632376 0.761743
vt 0.642364 0.761743
vt 0.765936 0.628183
vt 0.755947 0.628183
vt 0.755947 0.638171
vt 0.765936 0.638171
vt 0.765936 0.638481
vt 0.755947 0.638481
vt 0.755947 0.648469
vt 0.765936 0.648469
vt 0.853914 0.556792
vt 0.843926 0.556792
vt 0.843926 0.566780
vt 0.853914 0.566780
vt 0.967188 0.453815
vt 0.957200 0.453815
vt 0.957200 0.463804
vt 0.967188 0.463804
vt 0.864212 0.556792
vt 0.854223 0.556792
vt 0.854223 0.566780
vt 0.864212 0.566780
vt 0.874509 0.556792
vt 0.864521 0.556792
vt 0.864521 0.566780
vt 0.874509 0.566780
vt 0.967188 0.464113
vt 0.957200 0.464113
vt 0.957200 0.474101
vt 0.967188 0.474101
vt 0.967188 0.474411
vt 0.957200 0.474411
vt 0.957200 0.484399
vt 0.967188 0.484399
vt 0.884807 0.556792
vt 0.874819 0.556792
vt 0.874819 0.566780
vt 0.884807 0.566780
vt 0.895105 0.556792
vt 0.885116 0.556792
vt 0.885116 0.566780
vt 0.895105 0.566780
vt 0.967188 0.484708
vt 0.957200 0.484708
vt 0.957200 0.494697
vt 0.967188 0.494697
vt 0.905402 0.556792
vt 0.895414 0.556792
vt 0.895414 0.566780
vt 0.905402 0.566780
vt 0.967188 0.495006
vt 0.957200 0.495006
vt 0.957200 0.504994
vt 0.967188 0.504994
vt 0.967188 0.505303
vt 0.957200 0.505303
vt 0.957200 0.515292
vt 0.967188 0.515292
vt 0.895105 0.484399
vt 0.895105 0.464113
vt 0.885116 0.464113
vt 0.885116 0.484399
vt 0.967188 0.515601
vt 0.957200 0.515601
vt 0.957200 0.525589
vt 0.967188 0.525589
vt 0.925997 0.556792
vt 0.916009 0.556792
vt 0.916009 0.566780
vt 0.925997 0.566780
vt 0.936295 0.556792
vt 0.926307 0.556792
vt 0.926307 0.566780
vt 0.936295 0.566780
vt 0.967188 0.525899
vt 0.957200 0.525899
vt 0.957200 0.535887
vt 0.967188 0.535887
vt 0.946593 0.556792
vt 0.936604 0.556792
vt 0.936604 0.566780
vt 0.946593 0.566780
vt 0.864212 0.504994
vt 0.864212 0.495006
vt 0.843926 0.495006
vt 0.843926 0.504994
vt 0.895105 0.443518
vt 0.885116 0.443518
vt 0.885116 0.463804
vt 0.895105 0.463804
vt 0.884807 0.494697
vt 0.884807 0.484708
vt 0.864521 0.484708
vt 0.864521 0.494697
vt 0.895105 0.422922
vt 0.885116 0.422922
vt 0.885116 0.443208
vt 0.895105 0.443208
vt 0.864212 0.494697
vt 0.864212 0.484708
vt 0.843926 0.484708
vt 0.843926 0.494697
vt 0.915700 0.422922
vt 0.905711 0.422922
vt 0.905711 0.443208
vt 0.915700 0.443208
vt 0.977486 0.433220
vt 0.967497 0.433220
vt 0.967497 0.443208
vt 0.977486 0.443208
vn 0.1153 0.1922 -0.9745
vn -0.1254 -0.1139 0.9855
vn -0.9172 -0.1081 0.3836
vn -0.8024 0.0388 -0.5955
vn 0.2892 -0.9336 -0.2116
vn 0.9075 0.1957 -0.3717
vn 0.0000 -1.0000 0.0000
vn 0.1275 -0.0880 -0.9879
vn -0.7879 -0.1176 -0.6044
vn -0.9179 -0.0990 0.3843
vn -0.1249 -0.0508 0.9909
vn 0.7969 -0.0271 0.6035
vn 0.9203 -0.0453 -0.3886
vn 0.1102 0.2633 -0.9584
vn -0.7964 0.1489 -0.5861
vn -0.9107 0.1298 0.3921
vn -0.1353 0.2230 0.9654
vn 0.7324 0.3277 0.5968
vn 0.8695 0.3496 -0.3489
vn -0.3054 0.3572 0.8827
vn -0.8398 0.3657 -0.4013
vn -0.1767 0.6775 -0.7140
vn -0.8761 0.2366 0.4201
vn 0.2559 0.7203 0.6447
vn -0.7978 0.4427 0.4092
vn 0.3935 -0.9145 -0.0943
vn 0.5676 -0.7878 -0.2391
vn 0.4714 -0.8374 -0.2767
vn 0.2543 -0.9447 -0.2073
vn 0.5751 -0.8026 -0.1584
vn -0.4084 0.7723 0.4865
vn 0.0103 0.8437 0.5366
vn -0.7869 0.5971 -0.1561
vn -0.3756 0.5916 0.7134
vn 0.0589 0.9958 0.0694
vn -0.3092 0.8973 -0.3149
vn -0.2061 0.9606 0.1867
vn -0.3818 0.9242 0.0098
vn -0.6100 0.7118 0.3481
vn -0.2280 0.8865 0.4026
vn -0.6093 0.7885 0.0838
vn 0.9112 -0.1595 -0.3797
vn 0.8668 -0.3938 0.3061
vn 0.1809 -0.7473 0.6394
vn -0.4539 -0.8815 0.1304
vn -0.4027 -0.7053 -0.5835
vn 0.3190 -0.2677 -0.9091
vn 0.3505 0.9284 -0.1234
vn -0.4879 0.1014 -0.8670
vn -0.9854 0.1695 -0.0148
vn -0.4981 0.1592 0.8524
vn 0.4986 0.0777 0.8633
vn 1.0000 -0.0086 0.0007
vn 0.5010 0.0024 -0.8654
vn -0.5031 0.2366 0.8312
vn 0.5055 0.2129 0.8361
vn 0.4956 -0.1005 -0.8627
vn 0.9990 0.0442 -0.0104
vn -0.9952 0.0956 -0.0225
vn -0.5070 -0.0703 -0.8591
vn -0.4161 -0.2244 0.8812
vn -0.4005 -0.6763 -0.6182
vn -0.8703 -0.4754 0.1286
vn 0.4929 -0.1802 0.8512
vn 0.9198 -0.3795 0.0996
vn 0.4866 -0.6252 -0.6102
vn 0.3321 0.8094 0.4844
vn 0.7306 0.6591 -0.1783
vn 0.3722 0.3581 -0.8563
vn -0.4712 0.6791 0.5629
vn -0.4914 0.1846 -0.8512
vn -0.9296 0.3559 -0.0963
vn -0.2946 0.9492 0.1107
vn -0.2599 0.8137 -0.5200
vn -0.4679 0.8531 -0.2308
vn 0.1056 0.9910 0.0825
vn 0.2542 0.9336 -0.2525
vn 0.0682 0.8522 -0.5187
vn 0.2401 -0.9703 0.0292
vn 0.3520 -0.9064 0.2336
vn 0.2248 -0.8593 0.4594
vn -0.1651 -0.9521 0.2575
vn -0.0252 -0.9993 0.0284
vn -0.0252 -0.8773 0.4792
vn 0.9498 0.2658 0.1650
vn 0.6181 0.2874 -0.7317
vn -0.3470 0.2799 -0.8951
vn -0.9617 0.2448 -0.1230
vn -0.5820 0.2192 0.7831
vn 0.3677 0.2333 0.9002
vn -0.3279 0.3105 -0.8922
vn -0.9565 0.2694 -0.1124
vn 0.3816 -0.0085 0.9243
vn -0.5955 0.1081 0.7961
vn 0.6388 0.1987 -0.7433
vn 0.9883 0.0434 0.1459
vn -0.4221 -0.1619 -0.8920
vn 0.6805 -0.7307 0.0549
vn 0.4289 -0.4876 -0.7604
vn -0.9822 -0.1302 -0.1355
vn -0.6502 -0.3485 0.6751
vn 0.1963 -0.6374 0.7451
vn -0.5393 0.8415 -0.0301
vn -0.2827 0.6929 0.6633
vn 0.4437 0.4900 0.7503
vn -0.0820 0.7837 -0.6157
vn 0.8875 0.4388 0.1407
vn 0.6160 0.5842 -0.5284
vn 0.1650 0.9743 -0.1531
vn 0.4997 0.8592 0.1098
vn 0.4122 0.9018 -0.1299
vn 0.0262 0.9982 0.0534
vn 0.1166 0.9558 0.2700
vn 0.3434 0.8891 0.3025
vn -0.1159 -0.9816 0.1517
vn -0.3819 -0.9205 0.0831
vn -0.4493 -0.8887 -0.0910
vn -0.0549 -0.9375 -0.3435
vn 0.0743 -0.9967 -0.0328
vn -0.3046 -0.8922 -0.3335
vn 0.3680 -0.1172 0.9224
vn -0.6170 -0.1137 0.7787
vn -0.9884 -0.0454 -0.1447
vn -0.3715 0.0144 -0.9283
vn 0.6180 0.0102 -0.7861
vn 0.9884 -0.0528 0.1422
vn -0.4413 0.2929 -0.8482
vn -0.9501 0.3062 -0.0590
vn 0.9722 0.2300 -0.0443
vn 0.4674 0.2504 -0.8479
vn 0.5040 0.2458 0.8280
vn -0.4964 0.2779 0.8224
vn 0.7935 0.0389 0.6073
vn -0.7857 -0.1111 -0.6085
vn -0.8739 -0.3219 0.3642
vn -0.1142 -0.1673 0.9793
vn 0.7478 0.2010 0.6328
vn 0.8424 0.4177 -0.3404
vn 0.0953 0.2413 -0.9657
vn -0.7941 -0.0445 -0.6061
vn -0.8979 -0.2371 0.3708
vn -0.1194 -0.1514 0.9812
vn 0.7692 0.1321 0.6252
vn 0.8756 0.3319 -0.3510
vn 0.0773 0.2624 -0.9619
usemtl low_poly_mushrooms_texture_atlas
s off
f 24/1/1 146/2/1 137/3/1 19/4/1
f 21/5/2 140/6/2 142/7/2 22/8/2
f 22/9/3 142/10/3 144/11/3 23/12/3
f 23/13/4 144/14/4 146/15/4 24/16/4
f 12/17/5 10/18/5 53/19/5 55/20/5
f 19/21/6 137/22/6 138/23/6 20/24/6
f 1/25/7 3/26/7 5/27/7 7/28/7 9/29/7 11/30/7
f 11/31/8 18/32/8 13/33/8 1/34/8
f 9/35/9 17/36/9 18/37/9 11/38/9
f 7/39/10 16/40/10 17/41/10 9/42/10
f 5/43/11 15/44/11 16/45/11 7/46/11
f 3/47/12 14/48/12 15/49/12 5/50/12
f 1/51/13 13/52/13 14/53/13 3/54/13
f 18/55/14 24/56/14 19/57/14 13/58/14
f 17/59/15 23/60/15 24/61/15 18/62/15
f 16/63/16 22/64/16 23/65/16 17/66/16
f 15/67/17 21/68/17 22/69/17 16/70/17
f 14/71/18 20/72/18 21/73/18 15/74/18
f 13/75/19 19/76/19 20/77/19 14/78/19
f 30/79/7 29/80/7 28/81/7 27/82/7 26/83/7 25/84/7
f 50/85/20 48/86/20 33/87/20 34/88/20
f 54/89/21 52/90/21 35/91/21 36/92/21
f 45/93/22 54/94/22 36/95/22 31/96/22
f 52/97/23 50/98/23 34/99/23 35/100/23
f 48/101/24 46/102/24 32/103/24 33/104/24
f 35/105/25 34/106/25 40/107/25 41/108/25
f 8/109/26 6/110/26 49/111/26 51/112/26
f 4/113/27 2/114/27 44/115/27 47/116/27
f 2/117/28 12/118/28 55/119/28 44/120/28
f 10/121/29 8/122/29 51/123/29 53/124/29
f 6/125/30 4/126/30 47/127/30 49/128/30
f 40/129/31 39/130/31 43/131/31
f 33/132/32 32/133/32 38/134/32 39/135/32
f 36/136/33 35/137/33 41/138/33 42/139/33
f 34/140/34 33/141/34 39/142/34 40/143/34
f 32/144/35 31/145/35 37/146/35 38/147/35
f 31/148/36 36/149/36 42/150/36 37/151/36
f 38/152/37 37/153/37 43/154/37
f 37/155/38 42/156/38 43/157/38
f 41/158/39 40/159/39 43/160/39
f 39/161/40 38/162/40 43/163/40
f 42/164/41 41/165/41 43/166/41
f 47/167/42 44/168/42 45/169/42 46/170/42
f 49/171/43 47/172/43 46/173/43 48/174/43
f 51/175/44 49/176/44 48/177/44 50/178/44
f 53/179/45 51/180/45 50/181/45 52/182/45
f 55/183/46 53/184/46 52/185/46 54/186/46
f 44/187/47 55/188/47 54/189/47 45/190/47
f 46/191/48 45/192/48 31/193/48 32/194/48
f 25/195/49 61/196/49 56/197/49 30/198/49
f 26/199/50 60/200/50 61/201/50 25/202/50
f 27/203/51 59/204/51 60/205/51 26/206/51
f 28/207/52 58/208/52 59/209/52 27/210/52
f 29/211/53 57/212/53 58/213/53 28/214/53
f 30/215/54 56/216/54 57/217/54 29/218/54
f 131/219/55 130/220/55 65/221/55 66/222/55
f 130/223/56 132/224/56 64/225/56 65/226/56
f 134/227/57 133/228/57 62/229/57 63/230/57
f 132/231/58 134/232/58 63/233/58 64/234/58
f 135/235/59 131/236/59 66/237/59 67/238/59
f 133/239/60 135/240/60 67/241/60 62/242/60
f 84/243/61 85/244/61 71/245/61 72/246/61
f 82/247/62 83/248/62 73/249/62 68/250/62
f 83/251/63 84/252/63 72/253/63 73/254/63
f 85/255/64 81/256/64 70/257/64 71/258/64
f 81/259/65 86/260/65 69/261/65 70/262/65
f 86/263/66 82/264/66 68/265/66 69/266/66
f 71/267/67 70/268/67 76/269/67 77/270/67
f 70/271/68 69/272/68 75/273/68 76/274/68
f 69/275/69 68/276/69 74/277/69 75/278/69
f 72/279/70 71/280/70 77/281/70 78/282/70
f 68/283/71 73/284/71 79/285/71 74/286/71
f 73/287/72 72/288/72 78/289/72 79/290/72
f 78/291/73 77/292/73 80/293/73
f 74/294/74 79/295/74 80/296/74
f 79/297/75 78/298/75 80/299/75
f 77/300/76 76/301/76 80/302/76
f 76/303/77 75/304/77 80/305/77
f 75/306/78 74/307/78 80/308/78
f 63/309/79 62/310/79 82/311/79 86/312/79
f 64/313/80 63/314/80 86/315/80 81/316/80
f 65/317/81 64/318/81 81/319/81 85/320/81
f 67/321/82 66/322/82 84/323/82 83/324/82
f 62/325/83 67/326/83 83/327/83 82/328/83
f 66/329/84 65/330/84 85/331/84 84/332/84
f 92/333/7 91/334/7 90/335/7 89/336/7 88/337/7 87/338/7
f 126/339/85 98/340/85 93/341/85 129/342/85
f 124/343/86 97/344/86 98/345/86 126/346/86
f 128/347/87 96/348/87 97/349/87 124/350/87
f 125/351/88 95/352/88 96/353/88 128/354/88
f 127/355/89 94/356/89 95/357/89 125/358/89
f 129/359/90 93/360/90 94/361/90 127/362/90
f 97/363/91 96/364/91 102/365/91 103/366/91
f 96/367/92 95/368/92 101/369/92 102/370/92
f 94/371/93 93/372/93 99/373/93 100/374/93
f 95/375/94 94/376/94 100/377/94 101/378/94
f 98/379/95 97/380/95 103/381/95 104/382/95
f 93/383/96 98/384/96 104/385/96 99/386/96
f 121/387/97 122/388/97 108/389/97 109/390/97
f 119/391/98 120/392/98 110/393/98 105/394/98
f 120/395/99 121/396/99 109/397/99 110/398/99
f 122/399/100 118/400/100 107/401/100 108/402/100
f 118/403/101 123/404/101 106/405/101 107/406/101
f 123/407/102 119/408/102 105/409/102 106/410/102
f 108/411/103 107/412/103 113/413/103 114/414/103
f 107/415/104 106/416/104 112/417/104 113/418/104
f 106/419/105 105/420/105 111/421/105 112/422/105
f 109/423/106 108/424/106 114/425/106 115/426/106
f 105/427/107 110/428/107 116/429/107 111/430/107
f 110/431/108 109/432/108 115/433/108 116/434/108
f 115/435/109 114/436/109 117/437/109
f 111/438/110 116/439/110 117/440/110
f 116/441/111 115/442/111 117/443/111
f 114/444/112 113/445/112 117/446/112
f 113/447/113 112/448/113 117/449/113
f 112/450/114 111/451/114 117/452/114
f 100/453/115 99/454/115 119/455/115 123/456/115
f 101/457/116 100/458/116 123/459/116 118/460/116
f 102/461/117 101/462/117 118/463/117 122/464/117
f 104/465/118 103/466/118 121/467/118 120/468/118
f 99/469/119 104/470/119 120/471/119 119/472/119
f 103/473/120 102/474/120 122/475/120 121/476/120
f 92/477/121 129/478/121 127/479/121 91/480/121
f 91/481/122 127/482/122 125/483/122 90/484/122
f 90/485/123 125/486/123 128/487/123 89/488/123
f 89/489/124 128/490/124 124/491/124 88/492/124
f 88/493/125 124/494/125 126/495/125 87/496/125
f 87/497/126 126/498/126 129/499/126 92/500/126
f 56/501/127 61/502/127 135/503/127 133/504/127
f 61/505/128 60/506/128 131/507/128 135/508/128
f 58/509/129 57/510/129 134/511/129 132/512/129
f 57/513/130 56/514/130 133/515/130 134/516/130
f 59/517/131 58/518/131 132/519/131 130/520/131
f 60/521/132 59/522/132 130/523/132 131/524/132
f 20/525/133 138/526/133 140/527/133 21/528/133
f 145/529/134 10/530/134 12/531/134 147/532/134
f 143/533/135 8/534/135 10/535/135 145/536/135
f 141/537/136 6/538/136 8/539/136 143/540/136
f 139/541/137 4/542/137 6/543/137 141/544/137
f 136/545/138 2/546/138 4/547/138 139/548/138
f 147/549/139 136/550/139 137/551/139 146/552/139
f 145/553/140 147/554/140 146/555/140 144/556/140
f 143/557/141 145/558/141 144/559/141 142/560/141
f 141/561/142 143/562/142 142/563/142 140/564/142
f 139/565/143 141/566/143 140/567/143 138/568/143
f 136/569/144 139/570/144 138/571/144 137/572/144
f 147/573/145 12/574/145 2/575/145 136/576/145
