# Blender v2.82 (sub 7) OBJ File: 'low_poly_mushrooms.blend'
# www.blender.org
mtllib oyster_mushroom.mtl
o oyster_mushroom_Cylinder.023
v 0.034448 0.259286 -0.080282
v 0.145977 0.276777 0.180031
v 0.234138 0.260711 -0.033375
v 0.045656 0.204107 -0.062871
v 0.243737 0.265666 0.049937
v 0.000027 0.062678 0.036788
v 0.000027 0.077635 0.074428
v 0.054473 0.169563 -0.079436
v 0.232001 0.251421 0.096361
v 0.165703 0.282871 0.059675
v 0.080030 0.244786 0.044479
v 0.182328 0.124935 0.255315
v 0.168856 0.138426 0.052952
v 0.232633 0.125065 0.225161
v 0.125294 0.102709 0.109566
v 0.144351 0.097694 0.047689
v 0.243715 0.117559 0.071702
v 0.034771 0.131913 0.175475
v 0.150275 0.034451 0.133438
v 0.000027 -0.000223 0.054541
v 0.000027 0.037159 0.060276
v 0.141932 0.114702 0.270508
v 0.158958 0.129074 0.043528
v 0.209459 0.134283 0.184552
v 0.166924 0.124410 0.145381
v 0.158193 0.132667 -0.086471
v 0.250297 0.147783 -0.250312
v 0.119228 0.172376 -0.246942
v 0.269363 0.178735 0.031743
v 0.118766 0.104201 -0.159834
v 0.034694 0.084400 -0.000738
v 0.089685 0.115899 -0.154005
v 0.065340 0.119819 -0.117906
v 0.321700 0.166947 -0.000513
v 0.086322 0.166784 -0.150200
v 0.324099 0.190759 -0.129836
v 0.033103 0.258653 0.140229
v 0.073477 0.275737 -0.151445
v 0.092889 0.259838 0.211206
v 0.236053 0.275162 0.006354
v 0.177089 0.264006 0.178120
v 0.143227 0.285283 -0.156911
v 0.194113 0.250642 -0.120489
v 0.206391 0.280700 -0.089382
v 0.000027 0.089534 0.027175
v 0.000027 0.105579 -0.027506
v 0.000027 0.070985 -0.011106
v 0.000027 0.111098 0.073902
v 0.048628 0.075294 -0.005085
v 0.048353 0.072816 0.052204
v 0.174887 0.249471 0.186752
v 0.032262 0.095571 0.100582
v 0.126149 0.248989 -0.166262
v 0.000027 0.111760 -0.008131
v 0.056204 0.220022 -0.111957
v 0.063948 0.258938 0.201187
v 0.115458 0.116900 -0.012058
v 0.169434 0.177459 0.106054
v 0.120950 0.158496 0.136615
v 0.068112 0.194555 0.040053
v 0.032247 0.093912 -0.043755
v 0.048042 0.145417 0.028500
v 0.067568 0.189778 0.009936
v 0.037595 0.156391 -0.039160
v 0.090824 0.192119 0.164734
v 0.106074 0.118273 0.089881
v 0.053907 0.210271 0.149707
v 0.052261 0.164001 0.130260
v 0.179457 0.177488 -0.020837
v 0.159009 0.243916 -0.153063
v 0.095224 0.171053 -0.101147
v 0.046240 0.203908 0.117917
v 0.037420 0.155266 0.094159
v 0.075003 0.123468 0.122358
v 0.187074 0.178604 0.041921
v 0.119881 0.114637 0.038075
v 0.164503 0.193556 -0.087796
v 0.100086 0.123598 -0.052415
v 0.126913 0.258120 0.208894
v 0.027749 0.248247 0.143383
v 0.182473 0.270507 -0.134809
v 0.056205 0.229835 -0.000751
v 0.042137 0.256078 -0.134408
v 0.212751 0.250551 0.143836
v 0.039642 0.255125 0.181026
v 0.087920 0.258922 -0.165016
v 0.027394 0.248878 -0.088705
v 0.059709 0.224396 0.043790
v 0.195476 0.278433 0.102992
v 0.181019 0.294928 -0.074172
v 0.121750 0.275620 -0.020622
v 0.117037 0.285049 0.129296
v 0.122873 0.286105 0.159139
v 0.053565 0.273147 0.155929
v 0.055320 0.282997 -0.110183
v 0.126993 0.296758 -0.134941
v 0.263327 0.097703 0.145987
v 0.227272 0.101741 0.250936
v 0.159449 0.091257 0.259898
v 0.109735 0.105000 0.118584
v 0.245447 0.129464 0.080805
v 0.261612 0.115043 0.205788
v 0.054340 0.096996 0.122907
v 0.043719 0.097057 0.147403
v 0.081880 0.014176 0.049686
v 0.120674 0.036011 0.161149
v 0.053400 0.005043 0.093269
v 0.056661 0.062137 0.161547
v 0.000027 0.012609 0.074027
v 0.102175 0.070527 0.090438
v 0.113389 0.074474 0.039789
v 0.028934 0.039547 0.020572
v 0.168446 0.085372 0.042742
v 0.180829 0.057968 0.067888
v 0.037751 0.014539 0.024473
v 0.000027 0.034854 0.045215
v 0.039817 0.073888 0.109097
v 0.181791 0.047674 0.093595
v 0.199770 0.107683 0.265031
v 0.046267 0.132669 0.140698
v 0.197944 0.132468 0.036996
v 0.273864 0.113675 0.158841
v 0.059598 0.123702 0.227118
v 0.257956 0.104106 0.212883
v 0.267216 0.111715 0.114230
v 0.105194 0.109899 0.260366
v 0.127899 0.136818 0.192923
v 0.063511 0.146268 0.175078
v 0.112200 0.140008 0.240985
v 0.197534 0.146365 0.065928
v 0.250710 0.139444 0.123508
v 0.188770 0.157230 -0.072124
v 0.357418 0.175997 -0.115238
v 0.211313 0.183288 0.005432
v 0.314530 0.183120 0.001147
v 0.338143 0.158916 -0.036390
v 0.200330 0.161856 0.010269
v 0.328309 0.145367 -0.184213
v 0.359739 0.162661 -0.109732
v 0.130345 0.183247 -0.247866
v 0.174213 0.168345 -0.269491
v 0.284888 0.168131 -0.239009
v 0.082267 0.146855 -0.158580
v 0.083027 0.050691 -0.033228
v 0.132492 0.076746 -0.000153
v 0.044845 0.061882 0.010088
v 0.076485 0.098932 -0.043803
v 0.097747 0.149396 -0.125728
v 0.000027 0.078477 -0.060550
v 0.220637 0.099471 -0.034279
v 0.202822 0.140681 0.016777
v 0.037249 0.077757 0.010665
v 0.081146 0.056115 -0.078036
v 0.034637 0.041605 -0.030111
v 0.000027 0.057059 -0.073077
v 0.171368 0.133664 -0.058995
v 0.023876 0.075802 -0.030962
v 0.162103 0.135179 0.000250
v 0.197495 0.086379 -0.095811
v 0.088877 0.180200 -0.215011
v 0.220805 0.170459 -0.270150
v 0.079490 0.179854 -0.184428
v 0.297878 0.167403 0.018318
v 0.237661 0.179338 0.030613
v 0.291899 0.147197 -0.234785
v 0.097014 0.180629 -0.146309
v 0.353899 0.174147 -0.050013
v 0.344298 0.159860 -0.181734
v 0.319780 0.182722 -0.183830
v 0.219410 0.189849 -0.174076
v 0.251520 0.184949 -0.118219
v 0.272456 0.196102 -0.059455
v 0.326020 0.197994 -0.050907
v 0.249316 0.198549 -0.001907
v 0.115255 0.199436 -0.191496
v 0.184646 0.196484 -0.246720
v 0.131553 0.299259 -0.077293
v 0.000027 0.017415 0.036245
v 0.000027 0.057520 -0.024132
v 0.178749 0.159753 -0.104012
vt 0.152239 0.937889
vt 0.152239 0.948862
vt 0.141265 0.948862
vt 0.083615 0.971737
vt 0.083615 0.960763
vt 0.072641 0.971737
vt 0.948862 0.525580
vt 0.948862 0.514606
vt 0.937889 0.525580
vt 0.937425 0.548454
vt 0.937425 0.537481
vt 0.926451 0.548454
vt 0.948862 0.445518
vt 0.948862 0.434544
vt 0.937889 0.445518
vt 0.948862 0.503168
vt 0.948862 0.514142
vt 0.937889 0.514142
vt 0.960763 0.479830
vt 0.966018 0.474575
vt 0.966018 0.479830
vt 0.868801 0.559892
vt 0.868801 0.548918
vt 0.857827 0.559892
vt 0.960300 0.445982
vt 0.949326 0.456955
vt 0.960300 0.456955
vt 0.960300 0.457419
vt 0.949326 0.468393
vt 0.960300 0.468393
vt 0.974597 0.503168
vt 0.974597 0.514142
vt 0.972201 0.514142
vt 0.972201 0.479830
vt 0.977456 0.479830
vt 0.977456 0.468856
vt 0.960763 0.571329
vt 0.966018 0.571329
vt 0.966018 0.560355
vt 0.977456 0.456955
vt 0.977456 0.445982
vt 0.972201 0.456955
vt 0.937425 0.525580
vt 0.926451 0.525580
vt 0.937425 0.514606
vt 0.857363 0.542736
vt 0.834952 0.542736
vt 0.857363 0.537481
vt 0.868801 0.468393
vt 0.857827 0.468393
vt 0.868801 0.445982
vt 0.937734 0.537326
vt 0.937734 0.548300
vt 0.948708 0.537326
vt 0.960300 0.502705
vt 0.949326 0.502705
vt 0.960300 0.491731
vt 0.960763 0.537017
vt 0.966018 0.537017
vt 0.966018 0.514606
vt 0.925988 0.514606
vt 0.915014 0.525580
vt 0.925988 0.525580
vt 0.845926 0.554173
vt 0.845926 0.543199
vt 0.834952 0.554173
vt 0.891675 0.548454
vt 0.891675 0.543199
vt 0.869264 0.548454
vt 0.891675 0.503168
vt 0.891675 0.514142
vt 0.869264 0.514142
vt 0.891675 0.525580
vt 0.869264 0.525580
vt 0.891675 0.514606
vt 0.949326 0.525580
vt 0.954581 0.525580
vt 0.954581 0.520325
vt 0.037865 0.937889
vt 0.037865 0.948862
vt 0.026891 0.948862
vt 0.095516 0.960300
vt 0.100771 0.955045
vt 0.100771 0.960300
vt 0.175578 0.845926
vt 0.180833 0.845926
vt 0.180833 0.834952
vt 0.157958 0.920269
vt 0.152703 0.920269
vt 0.157958 0.915014
vt 0.106489 0.966482
vt 0.106489 0.971737
vt 0.095516 0.971737
vt 0.072177 0.966482
vt 0.061204 0.971737
vt 0.072177 0.971737
vt 0.100771 0.966018
vt 0.095516 0.966018
vt 0.100771 0.960763
vt 0.140647 0.937734
vt 0.129673 0.937734
vt 0.129673 0.948708
vt 0.060585 0.937734
vt 0.038174 0.942989
vt 0.038174 0.937734
vt 0.129828 0.974597
vt 0.140802 0.974597
vt 0.140802 0.972201
vt 0.026737 0.948708
vt 0.026737 0.937734
vt 0.037711 0.937734
vt 0.175423 0.845771
vt 0.180678 0.834798
vt 0.175423 0.834798
vt 0.169395 0.903113
vt 0.164140 0.903113
vt 0.169395 0.880702
vt 0.117927 0.845926
vt 0.117927 0.823515
vt 0.106953 0.845926
vt 0.026891 0.925988
vt 0.049303 0.915014
vt 0.049303 0.925988
vt 0.083615 0.937889
vt 0.083615 0.943144
vt 0.061204 0.943144
vt 0.129673 0.914859
vt 0.129673 0.925833
vt 0.140647 0.914859
vt 0.175114 0.960300
vt 0.169859 0.960300
vt 0.175114 0.949326
vt 0.117927 0.948862
vt 0.106953 0.948862
vt 0.117927 0.937889
vt 0.117927 0.915014
vt 0.117927 0.925988
vt 0.095516 0.925988
vt 0.869264 0.577048
vt 0.880238 0.577048
vt 0.880238 0.571793
vt 0.037865 0.972201
vt 0.037865 0.977456
vt 0.026891 0.977456
vt 0.937425 0.514142
vt 0.937425 0.503168
vt 0.926451 0.514142
vt 0.101234 0.960300
vt 0.106489 0.960300
vt 0.106489 0.955045
vt 0.163676 0.966018
vt 0.152703 0.966018
vt 0.163676 0.960763
vt 0.892139 0.531298
vt 0.914550 0.531298
vt 0.914550 0.526043
vt 0.834488 0.571329
vt 0.834488 0.560355
vt 0.823515 0.571329
vt 0.925988 0.445518
vt 0.925988 0.423107
vt 0.915014 0.445518
vt 0.960300 0.434080
vt 0.960300 0.428825
vt 0.955045 0.434080
vt 0.960300 0.514142
vt 0.960300 0.503168
vt 0.949326 0.514142
vt 0.869264 0.554173
vt 0.891675 0.554173
vt 0.891675 0.548918
vt 0.960300 0.526043
vt 0.955045 0.548454
vt 0.960300 0.548454
vt 0.914859 0.514451
vt 0.914859 0.525425
vt 0.925833 0.514451
vt 0.943144 0.468856
vt 0.943144 0.491267
vt 0.937889 0.491267
vt 0.966018 0.537481
vt 0.960763 0.548454
vt 0.966018 0.548454
vt 0.960300 0.479830
vt 0.949326 0.479830
vt 0.960300 0.468856
vt 0.891675 0.491267
vt 0.869264 0.491267
vt 0.891675 0.480294
vt 0.823515 0.479830
vt 0.845926 0.468856
vt 0.845926 0.479830
vt 0.914550 0.491267
vt 0.914550 0.468856
vt 0.903576 0.491267
vt 0.891985 0.525889
vt 0.914396 0.525889
vt 0.891985 0.531144
vt 0.960300 0.480294
vt 0.949326 0.491267
vt 0.960300 0.491267
vt 0.160817 0.828770
vt 0.160817 0.823515
vt 0.158421 0.828770
vt 0.157958 0.834488
vt 0.157958 0.829233
vt 0.152703 0.834488
vt 0.175114 0.874983
vt 0.175114 0.880238
vt 0.169859 0.880238
vt 0.180678 0.869110
vt 0.175423 0.880083
vt 0.175423 0.869110
vt 0.129364 0.972201
vt 0.129364 0.974597
vt 0.118391 0.974597
vt 0.169859 0.834488
vt 0.175114 0.823515
vt 0.175114 0.834488
vt 0.177973 0.903113
vt 0.177973 0.892139
vt 0.175578 0.903113
vt 0.118391 0.971737
vt 0.129364 0.966482
vt 0.129364 0.971737
vt 0.141265 0.903113
vt 0.152239 0.903113
vt 0.152239 0.892139
vt 0.072486 0.914859
vt 0.094898 0.914859
vt 0.072486 0.925833
vt 0.106953 0.966018
vt 0.129364 0.966018
vt 0.129364 0.960763
vt 0.169241 0.880547
vt 0.163986 0.880547
vt 0.163986 0.902958
vt 0.095052 0.892139
vt 0.095052 0.903113
vt 0.072641 0.903113
vt 0.163676 0.971737
vt 0.152703 0.971737
vt 0.163676 0.966482
vt 0.163676 0.915014
vt 0.163676 0.920269
vt 0.158421 0.920269
vt 0.155562 0.828770
vt 0.157958 0.828770
vt 0.157958 0.823515
vt 0.049303 0.966018
vt 0.038329 0.966018
vt 0.049303 0.955045
vt 0.049303 0.971737
vt 0.049303 0.966482
vt 0.038329 0.971737
vt 0.072486 0.972046
vt 0.072486 0.977301
vt 0.083460 0.972046
vt 0.095052 0.960763
vt 0.095052 0.971737
vt 0.084078 0.971737
vt 0.949171 0.428671
vt 0.954427 0.428671
vt 0.949171 0.433926
vt 0.937734 0.468702
vt 0.937734 0.491113
vt 0.942989 0.468702
vt 0.869110 0.503014
vt 0.891521 0.503014
vt 0.869110 0.513988
vt 0.846390 0.514142
vt 0.868801 0.514142
vt 0.868801 0.503168
vt 0.914859 0.422952
vt 0.925833 0.422952
vt 0.914859 0.445363
vt 0.845926 0.445982
vt 0.845926 0.468393
vt 0.823515 0.468393
vt 0.948862 0.560355
vt 0.948862 0.565610
vt 0.937889 0.565610
vt 0.880238 0.445518
vt 0.869264 0.445518
vt 0.880238 0.423107
vt 0.971737 0.445982
vt 0.971737 0.456955
vt 0.960763 0.456955
vt 0.083460 0.937734
vt 0.061049 0.942989
vt 0.061049 0.937734
vt 0.055021 0.955045
vt 0.055021 0.960300
vt 0.049766 0.960300
vt 0.152703 0.828770
vt 0.155098 0.823515
vt 0.155098 0.828770
vt 0.158267 0.834334
vt 0.158267 0.829079
vt 0.163522 0.829079
vt 0.175423 0.914396
vt 0.175423 0.903422
vt 0.177819 0.903422
vt 0.157803 0.914859
vt 0.152548 0.914859
vt 0.152548 0.920114
vt 0.118236 0.974442
vt 0.129210 0.972046
vt 0.118236 0.972046
vt 0.169859 0.925988
vt 0.175114 0.915014
vt 0.175114 0.925988
vt 0.177973 0.948862
vt 0.177973 0.937889
vt 0.175578 0.948862
vt 0.141265 0.971737
vt 0.152239 0.966482
vt 0.152239 0.971737
vt 0.175578 0.868801
vt 0.180833 0.857827
vt 0.180833 0.868801
vt 0.095516 0.914550
vt 0.106489 0.892139
vt 0.106489 0.914550
vt 0.049303 0.937425
vt 0.049303 0.926297
vt 0.026737 0.926297
vt 0.026737 0.937425
vt 0.106335 0.891985
vt 0.095361 0.891985
vt 0.095361 0.914396
vt 0.141111 0.834798
vt 0.141111 0.845771
vt 0.152084 0.834798
vt 0.152084 0.891985
vt 0.141111 0.902958
vt 0.141111 0.891985
vt 0.140802 0.960763
vt 0.140802 0.966018
vt 0.129828 0.966018
vt 0.141111 0.971583
vt 0.152084 0.966328
vt 0.141111 0.966328
vt 0.146520 0.846390
vt 0.135547 0.857363
vt 0.146520 0.857363
vt 0.095052 0.846235
vt 0.083924 0.846235
vt 0.083924 0.868801
vt 0.095052 0.868801
vt 0.152239 0.868801
vt 0.152239 0.846390
vt 0.146984 0.868801
vt 0.106799 0.948708
vt 0.106799 0.937734
vt 0.117772 0.937734
vt 0.026737 0.891675
vt 0.049303 0.891675
vt 0.049303 0.880547
vt 0.026737 0.880547
vt 0.158267 0.914859
vt 0.163522 0.914859
vt 0.158267 0.920114
vt 0.169395 0.960300
vt 0.169395 0.949171
vt 0.163986 0.949171
vt 0.163986 0.960300
vt 0.175114 0.857672
vt 0.163986 0.857672
vt 0.163986 0.868801
vt 0.175114 0.868801
vt 0.169704 0.949171
vt 0.169704 0.960145
vt 0.174959 0.949171
vt 0.146520 0.972046
vt 0.141111 0.972046
vt 0.141111 0.977456
vt 0.146520 0.977456
vt 0.868801 0.565610
vt 0.868801 0.560201
vt 0.846235 0.560201
vt 0.846235 0.565610
vt 0.937734 0.513988
vt 0.948708 0.503014
vt 0.937734 0.503014
vt 0.948708 0.514451
vt 0.937734 0.514451
vt 0.937734 0.525425
vt 0.960300 0.434544
vt 0.949326 0.445518
vt 0.960300 0.445518
vt 0.834798 0.554018
vt 0.834798 0.543045
vt 0.845771 0.543045
vt 0.949171 0.445363
vt 0.960145 0.434390
vt 0.949171 0.434390
vt 0.960300 0.548763
vt 0.949171 0.548763
vt 0.949171 0.559892
vt 0.960300 0.559892
vt 0.948862 0.548763
vt 0.937734 0.548763
vt 0.937734 0.559892
vt 0.948862 0.559892
vt 0.925988 0.548763
vt 0.914859 0.548763
vt 0.914859 0.559892
vt 0.925988 0.559892
vt 0.891675 0.445518
vt 0.891675 0.422952
vt 0.880547 0.422952
vt 0.880547 0.445518
vt 0.949171 0.456801
vt 0.960145 0.445827
vt 0.949171 0.445827
vt 0.903422 0.571329
vt 0.914550 0.571329
vt 0.914550 0.565920
vt 0.903422 0.565920
vt 0.971737 0.434544
vt 0.971737 0.445518
vt 0.966482 0.445518
vt 0.857363 0.571329
vt 0.846390 0.571329
vt 0.857363 0.566074
vt 0.857672 0.548763
vt 0.868646 0.548763
vt 0.857672 0.559737
vt 0.869110 0.548763
vt 0.891521 0.548763
vt 0.869110 0.554018
vt 0.949171 0.468238
vt 0.960145 0.457264
vt 0.949171 0.457264
vt 0.857363 0.468393
vt 0.857363 0.445982
vt 0.846390 0.468393
vt 0.926451 0.559892
vt 0.937425 0.548918
vt 0.937425 0.559892
vt 0.914550 0.445827
vt 0.903422 0.445827
vt 0.903422 0.468393
vt 0.914550 0.468393
vt 0.891675 0.479830
vt 0.891675 0.468702
vt 0.869110 0.468702
vt 0.869110 0.479830
vt 0.914550 0.548763
vt 0.903422 0.548763
vt 0.903422 0.559892
vt 0.914550 0.559892
vt 0.949171 0.468702
vt 0.949171 0.479675
vt 0.960145 0.468702
vt 0.949171 0.513988
vt 0.960145 0.503014
vt 0.949171 0.503014
vt 0.971737 0.514142
vt 0.971737 0.503168
vt 0.960763 0.514142
vt 0.868801 0.514606
vt 0.868801 0.525580
vt 0.846390 0.525580
vt 0.903113 0.445518
vt 0.903113 0.422952
vt 0.891985 0.422952
vt 0.891985 0.445518
vt 0.823360 0.502705
vt 0.845926 0.502705
vt 0.845926 0.491577
vt 0.823360 0.491577
vt 0.869110 0.445363
vt 0.869110 0.422952
vt 0.880083 0.422952
vt 0.903113 0.468393
vt 0.903113 0.445827
vt 0.891985 0.445827
vt 0.891985 0.468393
vt 0.846235 0.502705
vt 0.868801 0.502705
vt 0.868801 0.491577
vt 0.846235 0.491577
vt 0.175114 0.948862
vt 0.175114 0.937734
vt 0.169704 0.937734
vt 0.169704 0.948862
vt 0.834798 0.571175
vt 0.845771 0.565920
vt 0.834798 0.565920
vt 0.960300 0.525580
vt 0.960300 0.520325
vt 0.955045 0.525580
vt 0.949171 0.525425
vt 0.954427 0.520170
vt 0.949171 0.520170
vt 0.971583 0.422952
vt 0.966328 0.433926
vt 0.966328 0.422952
vt 0.038174 0.954890
vt 0.038174 0.965864
vt 0.049148 0.954890
vt 0.152084 0.960609
vt 0.141111 0.960609
vt 0.141111 0.965864
vt 0.037865 0.949171
vt 0.026737 0.949171
vt 0.026737 0.960300
vt 0.037865 0.960300
vt 0.049766 0.880238
vt 0.072177 0.869264
vt 0.072177 0.880238
vt 0.175423 0.937734
vt 0.177819 0.937734
vt 0.175423 0.948708
vt 0.055485 0.954581
vt 0.060740 0.949326
vt 0.060740 0.954581
vt 0.158267 0.828615
vt 0.160663 0.823360
vt 0.158267 0.823360
vt 0.083924 0.960609
vt 0.083924 0.971583
vt 0.094898 0.960609
vt 0.163522 0.920578
vt 0.158267 0.925833
vt 0.158267 0.920578
vt 0.129210 0.960609
vt 0.106799 0.960609
vt 0.106799 0.965864
vt 0.095361 0.960145
vt 0.100616 0.954890
vt 0.095361 0.954890
vt 0.163986 0.937270
vt 0.169241 0.914859
vt 0.163986 0.914859
vt 0.175114 0.874519
vt 0.175114 0.869264
vt 0.169859 0.874519
vt 0.026737 0.914550
vt 0.049303 0.914550
vt 0.049303 0.903422
vt 0.026737 0.903422
vt 0.174959 0.903422
vt 0.163986 0.914396
vt 0.163986 0.903422
vt 0.140647 0.960609
vt 0.129673 0.965864
vt 0.129673 0.960609
vt 0.169241 0.937734
vt 0.163986 0.948708
vt 0.163986 0.937734
vt 0.026737 0.914859
vt 0.026737 0.925833
vt 0.049148 0.914859
vt 0.169395 0.845926
vt 0.164140 0.845926
vt 0.169395 0.823515
vt 0.049612 0.868646
vt 0.060585 0.846235
vt 0.049612 0.846235
vt 0.072641 0.868801
vt 0.083615 0.846390
vt 0.083615 0.868801
vt 0.095516 0.977456
vt 0.106489 0.972201
vt 0.106489 0.977456
vt 0.072486 0.960609
vt 0.083460 0.960609
vt 0.072486 0.971583
vt 0.152239 0.869110
vt 0.146829 0.869110
vt 0.146829 0.891675
vt 0.152239 0.891675
vt 0.026737 0.880083
vt 0.026737 0.869110
vt 0.049148 0.869110
vt 0.926297 0.571329
vt 0.937425 0.571329
vt 0.937425 0.565920
vt 0.926297 0.565920
vt 0.163986 0.846235
vt 0.174959 0.846235
vt 0.163986 0.857209
vt 0.026737 0.960609
vt 0.037711 0.960609
vt 0.026737 0.971583
vt 0.175114 0.903113
vt 0.175114 0.892139
vt 0.169859 0.903113
vt 0.177973 0.937425
vt 0.177973 0.926451
vt 0.175578 0.937425
vt 0.060740 0.955045
vt 0.055485 0.960300
vt 0.060740 0.960300
vt 0.971737 0.560201
vt 0.966328 0.560201
vt 0.966328 0.571329
vt 0.971737 0.571329
vt 0.101080 0.954890
vt 0.101080 0.960145
vt 0.106335 0.954890
vt 0.948862 0.525889
vt 0.937734 0.525889
vt 0.937734 0.537017
vt 0.948862 0.537017
vt 0.868646 0.445827
vt 0.857672 0.445827
vt 0.857672 0.468238
vt 0.891985 0.560201
vt 0.897240 0.560201
vt 0.891985 0.565456
vt 0.846235 0.468702
vt 0.846235 0.479675
vt 0.868646 0.468702
vt 0.903113 0.542736
vt 0.903113 0.537326
vt 0.880547 0.537326
vt 0.880547 0.542736
vt 0.971737 0.537017
vt 0.971737 0.526043
vt 0.966482 0.537017
vt 0.960609 0.445363
vt 0.965864 0.422952
vt 0.960609 0.422952
vt 0.868801 0.423107
vt 0.846390 0.445518
vt 0.868801 0.445518
vt 0.960145 0.560201
vt 0.949171 0.560201
vt 0.949171 0.565456
vt 0.954890 0.525889
vt 0.960145 0.525889
vt 0.954890 0.548300
vt 0.846390 0.491267
vt 0.868801 0.491267
vt 0.868801 0.480294
vt 0.954581 0.548454
vt 0.949326 0.548454
vt 0.954581 0.526043
vt 0.857209 0.565920
vt 0.846235 0.571175
vt 0.846235 0.565920
vt 0.869110 0.445827
vt 0.880083 0.445827
vt 0.869110 0.468238
vt 0.914550 0.491577
vt 0.903422 0.491577
vt 0.903422 0.514142
vt 0.914550 0.514142
vt 0.891675 0.559892
vt 0.891675 0.554637
vt 0.869264 0.559892
vt 0.891521 0.554482
vt 0.869110 0.559737
vt 0.869110 0.554482
vt 0.926297 0.548763
vt 0.937270 0.548763
vt 0.926297 0.559737
vt 0.846235 0.445363
vt 0.846235 0.422952
vt 0.868646 0.422952
vt 0.949171 0.548300
vt 0.949171 0.525889
vt 0.954427 0.525889
vt 0.038174 0.977456
vt 0.049303 0.977456
vt 0.049303 0.972046
vt 0.038174 0.972046
vt 0.846235 0.491113
vt 0.846235 0.480139
vt 0.868646 0.480139
vt 0.903113 0.560355
vt 0.897858 0.565610
vt 0.903113 0.565610
vt 0.897703 0.560201
vt 0.897703 0.565456
vt 0.902958 0.560201
vt 0.846390 0.554173
vt 0.851645 0.554173
vt 0.851645 0.548918
vt 0.957904 0.428362
vt 0.960300 0.423107
vt 0.960300 0.428362
vt 0.966018 0.474111
vt 0.966018 0.468856
vt 0.960763 0.474111
vt 0.957750 0.422952
vt 0.957750 0.428207
vt 0.960145 0.422952
vt 0.177973 0.915014
vt 0.177973 0.925988
vt 0.175578 0.925988
vt 0.163986 0.874365
vt 0.163986 0.869110
vt 0.169241 0.869110
vt 0.169704 0.869110
vt 0.174959 0.869110
vt 0.169704 0.874365
vt 0.177973 0.880702
vt 0.175578 0.891675
vt 0.177973 0.891675
vt 0.169704 0.845771
vt 0.174959 0.834798
vt 0.169704 0.834798
vt 0.169241 0.874828
vt 0.163986 0.874828
vt 0.163986 0.880083
vt 0.180833 0.823360
vt 0.175423 0.823360
vt 0.175423 0.834488
vt 0.180833 0.834488
vt 0.146520 0.857672
vt 0.135392 0.857672
vt 0.135392 0.868801
vt 0.146520 0.868801
vt 0.129364 0.948862
vt 0.129364 0.937889
vt 0.118391 0.948862
vt 0.140802 0.926297
vt 0.129673 0.926297
vt 0.129673 0.937425
vt 0.140802 0.937425
vt 0.072486 0.880547
vt 0.072486 0.891521
vt 0.094898 0.880547
vt 0.152548 0.902958
vt 0.152548 0.891985
vt 0.163522 0.891985
vt 0.061049 0.977456
vt 0.072177 0.977456
vt 0.072177 0.972046
vt 0.061049 0.972046
vt 0.095516 0.954581
vt 0.106489 0.943607
vt 0.106489 0.954581
vt 0.925988 0.468393
vt 0.925988 0.445827
vt 0.914859 0.445827
vt 0.914859 0.468393
vt 0.152239 0.834488
vt 0.141265 0.834488
vt 0.152239 0.823515
vt 0.152548 0.891521
vt 0.163522 0.880547
vt 0.152548 0.880547
vt 0.169859 0.891675
vt 0.175114 0.880702
vt 0.175114 0.891675
vt 0.106953 0.974597
vt 0.117927 0.972201
vt 0.117927 0.974597
vt 0.169704 0.880547
vt 0.169704 0.891521
vt 0.174959 0.880547
vt 0.061049 0.966328
vt 0.061049 0.971583
vt 0.072023 0.966328
vt 0.169704 0.891985
vt 0.174959 0.891985
vt 0.169704 0.902958
vt 0.152548 0.823360
vt 0.152548 0.828615
vt 0.154944 0.823360
vt 0.106335 0.966328
vt 0.095361 0.971583
vt 0.095361 0.966328
vt 0.966328 0.514451
vt 0.971583 0.514451
vt 0.966328 0.525425
vt 0.892139 0.491267
vt 0.903113 0.491267
vt 0.903113 0.468856
vt 0.095361 0.972046
vt 0.106335 0.972046
vt 0.095361 0.977301
vt 0.937425 0.491577
vt 0.926297 0.491577
vt 0.926297 0.502705
vt 0.937425 0.502705
vt 0.891985 0.537017
vt 0.914550 0.537017
vt 0.914550 0.531607
vt 0.891985 0.531607
vt 0.974442 0.525889
vt 0.972046 0.536862
vt 0.972046 0.525889
vt 0.931706 0.445827
vt 0.926297 0.445827
vt 0.926297 0.468393
vt 0.931706 0.468393
vt 0.869110 0.502550
vt 0.869110 0.491577
vt 0.891521 0.491577
vt 0.891985 0.468702
vt 0.891985 0.491113
vt 0.902958 0.468702
vt 0.902958 0.543045
vt 0.891985 0.543045
vt 0.891985 0.554018
vt 0.869110 0.543045
vt 0.891521 0.543045
vt 0.869110 0.548300
vt 0.868801 0.537017
vt 0.868801 0.525889
vt 0.846235 0.525889
vt 0.846235 0.537017
vt 0.903422 0.445363
vt 0.914396 0.422952
vt 0.903422 0.422952
vt 0.868801 0.543199
vt 0.846390 0.548454
vt 0.868801 0.548454
vt 0.925988 0.514142
vt 0.925988 0.491577
vt 0.914859 0.491577
vt 0.914859 0.514142
vt 0.846235 0.543045
vt 0.846235 0.548300
vt 0.868646 0.543045
vt 0.943453 0.445827
vt 0.943453 0.468238
vt 0.948708 0.445827
vt 0.925833 0.565920
vt 0.914859 0.565920
vt 0.914859 0.571175
vt 0.869110 0.537017
vt 0.891675 0.537017
vt 0.891675 0.525889
vt 0.869110 0.525889
vt 0.937425 0.445518
vt 0.937425 0.422952
vt 0.926297 0.422952
vt 0.926297 0.445518
vt 0.823360 0.468238
vt 0.845771 0.445827
vt 0.823360 0.445827
vt 0.845926 0.422952
vt 0.823360 0.422952
vt 0.823360 0.445518
vt 0.845926 0.445518
vt 0.903422 0.468702
vt 0.914396 0.468702
vt 0.903422 0.491113
vt 0.152239 0.972046
vt 0.146829 0.972046
vt 0.146829 0.977456
vt 0.152239 0.977456
vt 0.868646 0.503014
vt 0.846235 0.503014
vt 0.846235 0.513988
vt 0.925833 0.537326
vt 0.914859 0.548300
vt 0.914859 0.537326
vt 0.966328 0.479675
vt 0.971583 0.474420
vt 0.966328 0.474420
vt 0.851490 0.548763
vt 0.846235 0.554018
vt 0.846235 0.548763
vt 0.857363 0.571793
vt 0.857363 0.577048
vt 0.846390 0.577048
vt 0.966328 0.536862
vt 0.971583 0.525889
vt 0.966328 0.525889
vt 0.926297 0.571638
vt 0.937270 0.571638
vt 0.926297 0.574034
vt 0.972046 0.514451
vt 0.972046 0.525425
vt 0.974442 0.514451
vt 0.851954 0.548763
vt 0.857209 0.548763
vt 0.851954 0.554018
vt 0.152548 0.966328
vt 0.152548 0.971583
vt 0.163522 0.966328
vt 0.163986 0.971583
vt 0.169241 0.960609
vt 0.163986 0.960609
vt 0.155407 0.823360
vt 0.155407 0.828615
vt 0.157803 0.823360
vt 0.049612 0.960145
vt 0.049612 0.954890
vt 0.054867 0.954890
vt 0.055330 0.954890
vt 0.060585 0.954890
vt 0.055330 0.960145
vt 0.026737 0.972046
vt 0.026737 0.977301
vt 0.037711 0.972046
vt 0.175423 0.902958
vt 0.177819 0.891985
vt 0.175423 0.891985
vt 0.060585 0.972046
vt 0.049612 0.977301
vt 0.049612 0.972046
vt 0.083924 0.977456
vt 0.095052 0.977456
vt 0.095052 0.972046
vt 0.083924 0.972046
vt 0.140802 0.869110
vt 0.129673 0.869110
vt 0.129673 0.880238
vt 0.140802 0.880238
vt 0.177819 0.880547
vt 0.175423 0.880547
vt 0.175423 0.891521
vt 0.117772 0.972046
vt 0.106799 0.972046
vt 0.106799 0.974442
vt 0.141111 0.834334
vt 0.152084 0.823360
vt 0.141111 0.823360
vt 0.180678 0.846235
vt 0.175423 0.857209
vt 0.175423 0.846235
vt 0.129364 0.937425
vt 0.129364 0.926451
vt 0.118391 0.937425
vt 0.140802 0.880547
vt 0.129673 0.880547
vt 0.129673 0.891675
vt 0.140802 0.891675
vt 0.146366 0.846235
vt 0.135392 0.857209
vt 0.135392 0.846235
vt 0.049612 0.914859
vt 0.072023 0.914859
vt 0.049612 0.925833
vt 0.118236 0.937270
vt 0.118236 0.926297
vt 0.129210 0.926297
vt 0.129364 0.869110
vt 0.118236 0.869110
vt 0.118236 0.891675
vt 0.129364 0.891675
vt 0.180678 0.857672
vt 0.175423 0.868646
vt 0.175423 0.857672
vt 0.129673 0.914396
vt 0.140647 0.903422
vt 0.129673 0.903422
vt 0.095361 0.925833
vt 0.117772 0.914859
vt 0.095361 0.914859
vn 0.2448 0.9670 0.0701
vn -0.4221 -0.5921 -0.6864
vn 0.4770 -0.8195 -0.3177
vn 0.1360 -0.8689 -0.4759
vn 0.2132 -0.6892 -0.6924
vn -0.7070 0.5985 0.3768
vn -0.5213 -0.3656 -0.7711
vn -0.7901 0.5849 0.1833
vn 0.0769 -0.9266 0.3682
vn -0.1075 -0.5041 0.8569
vn -0.8103 0.5583 -0.1781
vn -0.9211 0.3867 -0.0447
vn -0.9164 -0.0430 -0.3981
vn -0.2600 -0.5410 0.7998
vn -0.1403 -0.4964 0.8567
vn 0.7486 -0.5949 0.2927
vn 0.5971 -0.6181 0.5112
vn 0.5525 -0.7106 0.4357
vn -0.9633 -0.0742 0.2580
vn -0.1785 -0.5882 -0.7888
vn -0.3966 -0.4877 -0.7778
vn -0.8600 0.4657 0.2083
vn 0.1843 -0.6722 -0.7171
vn 0.2223 -0.6873 -0.6915
vn 0.8355 -0.5478 0.0431
vn -1.0000 0.0000 0.0000
vn 0.5225 0.7309 -0.4391
vn -0.6327 0.6658 -0.3955
vn 0.0803 0.8121 0.5780
vn -0.6526 0.7388 0.1685
vn 0.8276 0.5135 -0.2267
vn -0.1395 0.5465 -0.8257
vn -0.5544 0.1796 -0.8126
vn 0.5211 0.1202 -0.8450
vn -0.8695 0.3383 -0.3600
vn 0.4422 0.4075 0.7990
vn 0.8298 0.4391 0.3445
vn -0.1838 0.9830 0.0011
vn -0.0046 0.9994 -0.0345
vn -0.5598 0.7947 0.2347
vn -0.3500 0.8962 -0.2727
vn 0.2328 0.9575 0.1701
vn 0.5232 0.8040 0.2825
vn -0.1555 0.8238 -0.5452
vn 0.1121 0.9809 0.1587
vn 0.1403 0.9798 0.1424
vn -0.1306 0.4186 -0.8987
vn -0.8793 0.3694 -0.3007
vn 0.4715 -0.3917 -0.7901
vn 0.0403 -0.3868 0.9213
vn 0.7809 -0.6128 0.1214
vn -0.2718 0.9525 -0.1374
vn -0.8320 0.4209 0.3615
vn -0.2626 -0.7786 0.5700
vn -0.7106 0.6317 -0.3097
vn 0.1669 -0.9812 -0.0966
vn 0.4837 -0.4629 -0.7427
vn 0.1844 -0.0877 -0.9789
vn -0.6993 0.6623 -0.2690
vn 0.3934 -0.5992 -0.6973
vn -0.2014 0.5927 -0.7799
vn -0.1152 0.8366 -0.5355
vn -0.5882 -0.5763 0.5674
vn -0.3239 -0.7181 0.6160
vn 0.1926 -0.8867 0.4204
vn 0.1846 -0.9503 0.2506
vn 0.1505 -0.9490 -0.2771
vn -0.1686 0.7824 -0.5995
vn 0.1470 0.5940 0.7909
vn -0.4446 0.8866 -0.1277
vn 0.7650 0.1505 0.6262
vn -0.6651 0.7456 -0.0414
vn 0.8275 0.5418 -0.1471
vn 0.8667 0.2173 -0.4491
vn -0.3694 0.5622 0.7399
vn 0.0222 0.9948 0.0991
vn -0.0526 0.9804 -0.1900
vn -0.3208 0.9374 0.1355
vn 0.4379 0.8761 0.2018
vn 0.1728 0.9721 -0.1585
vn 0.6769 -0.7267 -0.1169
vn 0.7903 -0.4112 0.4542
vn -0.7067 0.3777 0.5983
vn -0.6334 -0.6315 -0.4473
vn -0.5368 0.1895 0.8222
vn 0.0184 -0.6446 -0.7643
vn 0.3234 -0.3489 -0.8796
vn -0.9047 0.0050 0.4259
vn 0.3751 -0.7848 0.4935
vn 0.4509 -0.8883 0.0874
vn 0.3265 -0.9160 0.2333
vn 0.1244 -0.9214 -0.3681
vn 0.2027 -0.9402 -0.2737
vn -0.8115 -0.2710 -0.5178
vn -0.0905 0.8583 0.5052
vn -0.5499 0.8283 -0.1072
vn -0.2170 0.6413 0.7359
vn -0.4969 0.8560 -0.1428
vn -0.7862 0.5085 0.3511
vn 0.5066 0.3323 0.7955
vn 0.9792 0.1945 0.0583
vn -0.2682 0.8685 0.4169
vn 0.6977 0.0903 -0.7107
vn -0.0398 0.6374 -0.7695
vn -0.3468 0.2786 -0.8956
vn 0.6051 0.7202 0.3393
vn 0.6646 0.6854 -0.2975
vn 0.0233 0.9136 0.4059
vn 0.0539 0.9939 0.0957
vn 0.0831 0.9952 0.0511
vn -0.0599 0.9908 0.1214
vn -0.0936 0.9917 -0.0886
vn 0.6479 0.7596 0.0565
vn -0.3354 0.8779 -0.3419
vn -0.1974 0.9799 -0.0269
vn -0.9393 -0.2465 -0.2388
vn 0.4471 0.8903 -0.0870
vn 0.3856 0.9133 0.1310
vn -0.9423 -0.2208 0.2515
vn 0.6874 -0.1142 -0.7172
vn -0.8039 -0.5001 0.3219
vn -0.7880 -0.5159 -0.3360
vn -0.4512 -0.6029 0.6580
vn -0.9624 -0.2672 0.0498
vn -0.4740 -0.2579 -0.8419
vn 0.2887 -0.8091 -0.5119
vn 0.5236 -0.8287 0.1977
vn -0.6944 0.6866 -0.2153
vn -0.7226 0.6277 -0.2897
vn -0.6664 0.7129 0.2185
vn 0.5091 -0.8588 -0.0576
vn 0.1683 -0.9806 -0.1001
vn 0.3210 -0.8215 0.4712
vn -0.6318 -0.1456 0.7614
vn 0.1214 -0.8820 0.4553
vn -0.9454 -0.0428 0.3230
vn -0.6341 0.0122 0.7732
vn -0.9606 -0.1265 -0.2474
vn -0.8110 0.5640 -0.1554
vn 0.0274 -0.5662 0.8238
vn -0.2999 -0.5470 0.7816
vn 0.5754 -0.6291 0.5225
vn 0.4128 -0.7512 0.5151
vn 0.8337 -0.5471 -0.0755
vn 0.6847 -0.7244 -0.0804
vn -0.8998 0.3566 -0.2514
vn -0.4870 -0.5396 -0.6867
vn -0.8902 0.3143 0.3298
vn 0.5992 -0.6087 -0.5201
vn 0.4388 -0.6932 -0.5718
vn 0.2287 -0.5806 0.7814
vn 0.6573 -0.7283 0.1939
vn 0.7610 -0.6178 0.1983
vn 0.7730 -0.5603 -0.2976
vn 0.6164 -0.7167 -0.3262
vn -0.8091 0.5686 -0.1486
vn 0.9035 0.0688 -0.4231
vn 0.8599 0.1528 -0.4870
vn -0.6020 0.7967 0.0537
vn 0.5837 0.7491 0.3132
vn 0.7183 0.2716 0.6406
vn -0.4276 0.8298 0.3586
vn -0.8517 0.4925 0.1791
vn 0.9690 0.2134 -0.1243
vn 0.0297 0.2363 -0.9712
vn -0.8817 0.3096 0.3559
vn 0.3799 0.0591 -0.9231
vn -0.6398 0.6514 -0.4079
vn 0.3211 0.6845 0.6545
vn -0.4244 0.8131 0.3984
vn -0.1882 0.9239 0.3332
vn -0.1570 0.9152 0.3713
vn -0.0310 0.8995 0.4359
vn -0.4238 0.8930 0.1513
vn -0.3783 0.8716 -0.3116
vn -0.2963 0.9064 -0.3010
vn 0.1198 0.9926 0.0193
vn 0.3801 0.8867 0.2633
vn -0.2740 0.9193 -0.2823
vn 0.3311 0.9079 -0.2571
vn -0.3261 0.8912 0.3153
vn -0.9369 0.0012 -0.3496
vn 0.0903 0.9946 -0.0503
vn 0.1523 0.9540 0.2582
vn 0.1989 -0.7019 0.6839
vn -0.3121 0.6410 -0.7013
vn 0.8676 -0.4854 -0.1080
vn -0.1820 -0.0218 -0.9831
vn -0.1670 -0.5074 0.8454
vn -0.8946 -0.3388 0.2914
vn -0.3798 0.9250 -0.0120
vn -0.0175 0.3428 -0.9392
vn -0.0823 0.6257 -0.7757
vn 0.6182 -0.7347 -0.2793
vn -0.9372 -0.2479 0.2454
vn -0.8713 0.2398 0.4281
vn -0.1446 -0.8383 0.5258
vn -0.3019 -0.7962 0.5243
vn 0.3852 -0.8868 0.2555
vn 0.2937 -0.9559 -0.0084
vn 0.3887 -0.5214 -0.7596
vn -0.5876 0.8064 -0.0673
vn 0.6324 -0.6394 -0.4373
vn 0.4761 -0.8726 0.1088
vn 0.4322 -0.8315 -0.3491
vn -0.2680 0.9523 -0.1457
vn -0.1516 0.6449 -0.7491
vn -0.5140 -0.6458 0.5646
vn 0.2700 -0.9012 0.3391
vn 0.4052 0.6673 0.6249
vn 0.3359 -0.9408 -0.0465
vn -0.6397 0.3515 -0.6835
vn -0.3057 -0.2511 -0.9184
vn -0.2620 -0.6948 -0.6698
vn 0.9548 -0.1547 0.2537
vn -0.0532 0.8998 -0.4330
vn 0.5897 0.5340 0.6059
vn 0.6321 0.4106 -0.6572
vn 0.8012 0.5532 -0.2280
vn -0.2874 0.5648 0.7736
vn -0.1376 0.9182 -0.3714
vn -0.3805 0.8585 0.3437
vn 0.1497 0.9886 -0.0167
vn 0.2369 0.8666 -0.4392
vn -0.3352 0.9333 0.1288
vn 0.3658 0.9289 0.0578
vn 0.4011 0.8605 -0.3140
vn 0.0389 0.7777 0.6274
vn -0.0005 -0.0835 0.9965
vn -0.5356 0.8365 0.1157
vn 0.6311 0.7625 0.1425
vn 0.4595 0.8724 -0.1666
vn 0.6301 -0.6137 -0.4758
vn -0.0397 -0.3048 0.9516
vn 0.7632 -0.6166 0.1932
vn -0.9114 -0.2985 -0.2831
vn -0.9678 0.0997 0.2312
vn -0.3670 0.5058 0.7807
vn -0.6234 0.7454 0.2361
vn -0.6821 0.6695 -0.2941
vn 0.1491 -0.5766 0.8033
vn 0.1969 -0.8931 0.4044
vn -0.3187 0.7884 0.5261
vn -0.3924 0.2277 0.8911
vn -0.7401 0.3684 -0.5625
vn 0.2686 -0.9361 -0.2272
vn 0.2316 -0.9646 -0.1265
vn 0.1753 -0.9765 -0.1256
vn -0.8580 -0.2702 -0.4369
vn -0.3351 -0.7411 -0.5818
vn -0.2627 0.8505 0.4557
vn -0.3684 0.8512 0.3739
vn -0.3618 0.9302 -0.0622
vn -0.3629 -0.5151 -0.7765
vn -0.3240 0.9382 0.1213
vn -0.4217 0.9006 -0.1053
vn 0.3994 -0.8116 0.4264
vn 0.4274 -0.9035 0.0304
vn 0.1845 -0.5079 0.8414
vn -0.0906 -0.8393 -0.5361
vn 0.3337 -0.9397 0.0744
vn -0.6778 0.6789 0.2823
vn -0.0417 -0.8528 -0.5205
vn -0.0304 -0.9481 -0.3165
vn -0.4625 0.7685 0.4422
vn -0.4166 -0.9091 0.0086
vn -0.2933 -0.8215 0.4889
vn -0.5611 -0.2966 0.7727
vn -0.7167 0.5207 0.4639
vn -0.6097 0.7926 -0.0073
vn 0.4357 -0.0355 -0.8994
vn -0.4433 0.8768 0.1860
vn 0.6109 0.1920 0.7681
vn -0.0017 0.8613 0.5082
vn -0.5806 0.4506 0.6782
vn 0.5997 0.5939 -0.5363
vn -0.5559 0.5129 -0.6541
vn -0.1438 0.6542 -0.7425
vn -0.8271 0.5556 0.0849
vn 0.2001 0.9150 0.3503
vn 0.7823 0.2903 0.5511
vn 0.9738 0.0819 -0.2120
vn -0.4182 0.9080 -0.0233
vn -0.2934 0.9414 0.1667
vn -0.0268 0.9982 -0.0532
vn -0.3919 0.8998 -0.1916
vn -0.2754 0.9309 0.2400
vn -0.0587 0.9912 0.1186
vn -0.0053 0.9828 -0.1847
vn 0.2757 0.8558 -0.4377
vn 0.4370 0.8947 -0.0926
vn -0.2177 0.9211 -0.3228
vn 0.0193 0.9203 0.3908
usemtl low_poly_mushrooms_texture_atlas
s off
f 89/1/1 40/2/1 90/3/1
f 83/4/2 86/5/2 55/6/2
f 57/7/3 49/8/3 78/9/3
f 49/10/4 47/11/4 61/12/4
f 78/13/5 61/14/5 71/15/5
f 62/16/6 54/17/6 45/18/6
f 61/19/7 47/20/7 46/21/7
f 73/22/8 48/23/8 68/24/8
f 50/25/9 7/26/9 6/27/9
f 65/28/10 52/29/10 74/30/10
f 64/31/11 46/32/11 54/33/11
f 60/34/12 63/35/12 62/36/12
f 4/37/13 8/38/13 64/39/13
f 56/40/14 65/41/14 39/42/14
f 65/43/15 74/44/15 79/45/15
f 84/46/16 58/47/16 9/48/16
f 84/49/17 51/50/17 58/51/17
f 59/52/18 66/53/18 58/54/18
f 67/55/19 68/56/19 56/57/19
f 86/58/20 53/59/20 71/60/20
f 55/61/21 71/62/21 8/63/21
f 63/64/22 64/65/22 62/66/22
f 53/67/23 70/68/23 71/69/23
f 78/70/24 71/71/24 70/72/24
f 9/73/25 75/74/25 5/75/25
f 6/76/26 45/77/26 47/78/26
f 44/79/27 81/80/27 42/81/27
f 95/82/28 38/83/28 83/84/28
f 39/85/29 79/86/29 2/87/29
f 94/88/30 37/89/30 85/90/30
f 40/91/31 3/92/31 44/93/31
f 38/94/32 42/95/32 86/96/32
f 38/97/33 86/98/33 83/99/33
f 81/100/34 70/101/34 42/102/34
f 88/103/35 80/104/35 37/105/35
f 79/106/36 51/107/36 41/108/36
f 84/109/37 9/110/37 5/111/37
f 94/112/38 93/113/38 92/114/38
f 92/115/39 93/116/39 10/117/39
f 91/118/40 10/119/40 177/120/40
f 11/121/41 92/122/41 10/123/41
f 93/124/42 2/125/42 89/126/42
f 89/127/43 41/128/43 5/129/43
f 96/130/44 42/131/44 38/132/44
f 24/133/45 14/134/45 131/135/45
f 14/136/46 24/137/46 129/138/46
f 100/139/47 103/140/47 120/141/47
f 23/142/48 16/143/48 15/144/48
f 121/145/49 17/146/49 113/147/49
f 22/148/50 99/149/50 119/150/50
f 122/151/51 124/152/51 97/153/51
f 110/154/52 112/155/52 116/156/52
f 117/157/53 21/158/53 108/159/53
f 126/160/54 107/161/54 99/162/54
f 103/163/55 117/164/55 104/165/55
f 107/166/56 20/167/56 105/168/56
f 17/169/57 114/170/57 113/171/57
f 113/172/58 115/173/58 112/174/58
f 15/175/59 16/176/59 110/177/59
f 114/178/60 105/179/60 115/180/60
f 110/181/61 117/182/61 103/183/61
f 117/184/62 110/185/62 21/186/62
f 123/187/63 108/188/63 126/189/63
f 108/190/64 109/191/64 107/192/64
f 99/193/65 106/194/65 98/195/65
f 106/196/66 107/197/66 19/198/66
f 105/199/67 20/200/67 115/201/67
f 13/202/68 121/203/68 23/204/68
f 12/205/69 22/206/69 119/207/69
f 120/208/70 18/209/70 128/210/70
f 102/211/71 98/212/71 124/213/71
f 13/214/72 23/215/72 15/216/72
f 131/217/73 122/218/73 125/219/73
f 101/220/74 125/221/74 17/222/74
f 123/223/75 126/224/75 129/225/75
f 24/226/76 131/227/76 130/228/76
f 25/229/77 129/230/77 24/231/77
f 25/232/78 130/233/78 13/234/78
f 14/235/79 102/236/79 131/237/79
f 36/238/80 169/239/80 176/240/80
f 168/241/81 139/242/81 138/243/81
f 34/244/82 136/245/82 167/246/82
f 166/247/83 35/248/83 148/249/83
f 160/250/84 28/251/84 143/252/84
f 137/253/85 151/254/85 164/255/85
f 161/256/86 27/257/86 141/258/86
f 165/259/87 27/260/87 161/261/87
f 35/262/88 143/263/88 148/264/88
f 163/265/89 145/266/89 34/267/89
f 136/268/90 150/269/90 139/270/90
f 150/271/91 145/272/91 144/273/91
f 27/274/92 165/275/92 153/276/92
f 165/277/93 159/278/93 153/279/93
f 143/280/94 32/281/94 33/282/94
f 26/283/95 148/284/95 147/285/95
f 156/286/96 158/287/96 137/288/96
f 166/289/97 26/290/97 180/291/97
f 175/292/98 160/293/98 162/294/98
f 166/295/99 162/296/99 35/297/99
f 29/298/100 163/299/100 135/300/100
f 167/301/101 139/302/101 133/303/101
f 134/304/102 164/305/102 174/306/102
f 142/307/103 168/308/103 165/309/103
f 176/310/104 161/311/104 141/312/104
f 140/313/105 141/314/105 28/315/105
f 135/316/106 167/317/106 173/318/106
f 169/319/107 133/320/107 168/321/107
f 170/322/108 166/323/108 180/324/108
f 90/325/109 177/326/109 10/327/109 89/328/109
f 170/329/110 176/330/110 175/331/110
f 171/332/111 36/333/111 170/334/111
f 171/335/112 173/336/112 36/337/112
f 173/338/113 167/339/113 133/340/113
f 175/341/114 140/342/114 160/343/114
f 95/344/115 177/345/115 96/346/115
f 72/347/116 80/348/116 88/349/116 60/350/116
f 90/351/117 40/352/117 44/353/117
f 89/354/118 5/355/118 40/356/118
f 4/357/119 63/358/119 82/359/119 87/360/119
f 81/361/120 43/362/120 70/363/120
f 67/364/121 85/365/121 80/366/121 72/367/121
f 55/368/122 4/369/122 87/370/122 83/371/122
f 85/372/123 67/373/123 56/374/123
f 63/375/124 60/376/124 88/377/124 82/378/124
f 61/379/125 46/380/125 8/381/125 71/382/125
f 78/383/126 49/384/126 61/385/126
f 76/386/127 66/387/127 50/388/127
f 62/389/128 48/390/128 73/391/128
f 62/392/129 45/393/129 48/394/129
f 62/395/130 64/396/130 54/397/130
f 49/398/131 57/399/131 76/400/131 50/401/131
f 6/402/132 47/403/132 49/404/132 50/405/132
f 52/406/133 50/407/133 66/408/133 74/409/133
f 52/410/134 65/411/134 68/412/134 48/413/134
f 50/414/135 52/415/135 7/416/135
f 68/417/136 67/418/136 72/419/136 73/420/136
f 52/421/137 48/422/137 7/423/137
f 4/424/138 55/425/138 8/426/138
f 64/427/139 8/428/139 46/429/139
f 39/430/140 65/431/140 79/432/140
f 56/433/141 68/434/141 65/435/141
f 58/436/142 51/437/142 59/438/142
f 66/439/143 59/440/143 74/441/143
f 75/442/144 69/443/144 3/444/144 5/445/144
f 76/446/145 57/447/145 69/448/145 75/449/145
f 73/450/146 72/451/146 60/452/146 62/453/146
f 55/454/147 86/455/147 71/456/147
f 63/457/148 4/458/148 64/459/148
f 43/460/149 77/461/149 70/462/149
f 70/463/150 77/464/150 78/465/150
f 59/466/151 51/467/151 79/468/151 74/469/151
f 76/470/152 75/471/152 58/472/152 66/473/152
f 9/474/153 58/475/153 75/476/153
f 77/477/154 43/478/154 3/479/154 69/480/154
f 78/481/155 77/482/155 69/483/155 57/484/155
f 83/485/156 87/486/156 1/487/156 95/488/156
f 46/489/26 45/490/26 54/491/26
f 47/492/26 45/493/26 46/494/26
f 7/495/26 45/496/26 6/497/26
f 48/498/26 45/499/26 7/500/26
f 44/501/157 3/502/157 43/503/157
f 44/504/158 43/505/158 81/506/158
f 82/507/159 88/508/159 11/509/159 91/510/159
f 5/511/160 41/512/160 84/513/160
f 41/514/161 51/515/161 84/516/161
f 56/517/162 94/518/162 85/519/162
f 85/520/163 37/521/163 80/522/163
f 40/523/164 5/524/164 3/525/164
f 86/526/165 42/527/165 53/528/165
f 82/529/166 1/530/166 87/531/166
f 42/532/167 70/533/167 53/534/167
f 37/535/168 11/536/168 88/537/168
f 2/538/169 79/539/169 41/540/169
f 1/541/170 82/542/170 91/543/170 95/544/170
f 56/545/171 93/546/171 94/547/171
f 93/548/172 56/549/172 39/550/172
f 93/551/173 39/552/173 2/553/173
f 91/554/174 11/555/174 10/556/174
f 37/557/175 94/558/175 11/559/175
f 11/560/176 94/561/176 92/562/176
f 10/563/177 93/564/177 89/565/177
f 89/566/178 2/567/178 41/568/178
f 38/569/179 95/570/179 96/571/179
f 42/572/180 96/573/180 90/574/180 44/575/180
f 91/576/181 177/577/181 95/578/181
f 104/579/182 18/580/182 120/581/182 103/582/182
f 177/583/183 90/584/183 96/585/183
f 12/586/184 14/587/184 129/588/184
f 119/589/185 99/590/185 98/591/185
f 15/592/186 110/593/186 100/594/186
f 125/595/187 122/596/187 97/597/187
f 113/598/188 16/599/188 23/600/188 121/601/188
f 22/602/189 126/603/189 99/604/189
f 108/605/190 123/606/190 18/607/190 104/608/190
f 110/609/191 111/610/191 112/611/191
f 16/612/192 113/613/192 111/614/192
f 111/615/193 113/616/193 112/617/193
f 118/618/194 114/619/194 125/620/194 97/621/194
f 104/622/195 117/623/195 108/624/195
f 108/625/196 21/626/196 109/627/196
f 99/628/197 107/629/197 106/630/197
f 107/631/198 109/632/198 20/633/198
f 124/634/199 98/635/199 19/636/199
f 19/637/200 107/638/200 105/639/200
f 113/640/201 114/641/201 115/642/201
f 110/643/202 16/644/202 111/645/202
f 17/646/203 125/647/203 114/648/203
f 19/649/204 118/650/204 97/651/204 124/652/204
f 114/653/205 118/654/205 105/655/205
f 110/656/206 116/657/206 21/658/206
f 100/659/207 110/660/207 103/661/207
f 126/662/208 108/663/208 107/664/208
f 98/665/209 106/666/209 19/667/209
f 119/668/210 98/669/210 14/670/210 12/671/210
f 118/672/211 19/673/211 105/674/211
f 112/675/212 178/676/212 116/677/212
f 115/678/213 178/679/213 112/680/213
f 20/681/214 178/682/214 115/683/214
f 109/684/26 178/685/26 20/686/26
f 21/687/26 178/688/26 109/689/26
f 116/690/26 178/691/26 21/692/26
f 122/693/215 102/694/215 124/695/215
f 13/696/216 130/697/216 121/698/216
f 14/699/217 98/700/217 102/701/217
f 121/702/218 101/703/218 17/704/218
f 101/705/219 131/706/219 125/707/219
f 129/708/220 126/709/220 22/710/220
f 15/711/221 100/712/221 127/713/221 25/714/221
f 123/715/222 129/716/222 128/717/222 18/718/222
f 127/719/223 128/720/223 129/721/223
f 128/722/224 127/723/224 100/724/224 120/725/224
f 25/726/225 24/727/225 130/728/225
f 25/729/226 127/730/226 129/731/226
f 101/732/227 121/733/227 130/734/227 131/735/227
f 12/736/228 129/737/228 22/738/228
f 146/739/229 163/740/229 151/741/229 152/742/229
f 15/743/230 25/744/230 13/745/230
f 131/746/231 102/747/231 122/748/231
f 133/749/232 169/750/232 36/751/232
f 165/752/233 168/753/233 138/754/233
f 164/755/234 151/756/234 29/757/234
f 167/758/235 136/759/235 139/760/235
f 162/761/236 160/762/236 143/763/236
f 35/764/237 162/765/237 143/766/237
f 26/767/238 166/768/238 148/769/238
f 148/770/239 143/771/239 33/772/239
f 148/773/240 33/774/240 149/775/240
f 29/776/241 151/777/241 163/778/241
f 146/779/242 154/780/242 144/781/242 145/782/242
f 152/783/243 151/784/243 158/785/243 31/786/243
f 137/787/244 158/788/244 151/789/244
f 155/790/245 149/791/245 33/792/245 32/793/245
f 165/794/246 138/795/246 159/796/246
f 153/797/247 159/798/247 144/799/247
f 153/800/248 144/801/248 154/802/248
f 143/803/249 28/804/249 32/805/249
f 30/806/250 32/807/250 28/808/250 141/809/250
f 148/810/251 157/811/251 147/812/251
f 157/813/252 148/814/252 149/815/252
f 31/816/253 158/817/253 156/818/253 147/819/253
f 32/820/254 30/821/254 155/822/254
f 26/823/255 147/824/255 156/825/255
f 147/826/256 157/827/256 31/828/256
f 150/829/257 136/830/257 34/831/257 145/832/257
f 159/833/258 138/834/258 139/835/258 150/836/258
f 163/837/259 146/838/259 145/839/259
f 153/840/260 30/841/260 141/842/260 27/843/260
f 159/844/261 150/845/261 144/846/261
f 26/847/262 156/848/262 132/849/262 180/850/262
f 30/851/263 153/852/263 155/853/263
f 155/854/264 153/855/264 154/856/264
f 149/857/265 179/858/265 157/859/265
f 155/860/26 179/861/26 149/862/26
f 154/863/266 179/864/266 155/865/266
f 146/866/267 179/867/267 154/868/267
f 152/869/268 179/870/268 146/871/268
f 31/872/269 179/873/269 152/874/269
f 157/875/270 179/876/270 31/877/270
f 142/878/271 165/879/271 161/880/271
f 166/881/272 175/882/272 162/883/272
f 135/884/273 163/885/273 34/886/273
f 174/887/274 164/888/274 29/889/274
f 134/890/275 137/891/275 164/892/275
f 169/893/276 168/894/276 142/895/276
f 160/896/277 140/897/277 28/898/277
f 140/899/278 176/900/278 141/901/278
f 156/902/279 137/903/279 134/904/279 132/905/279
f 135/906/280 173/907/280 174/908/280 29/909/280
f 135/910/281 34/911/281 167/912/281
f 168/913/282 133/914/282 139/915/282
f 132/916/283 172/917/283 171/918/283
f 132/919/284 171/920/284 180/921/284
f 172/922/285 174/923/285 173/924/285
f 174/925/286 172/926/286 132/927/286 134/928/286
f 170/929/287 180/930/287 171/931/287
f 170/932/288 36/933/288 176/934/288
f 171/935/289 172/936/289 173/937/289
f 161/938/290 176/939/290 169/940/290 142/941/290
f 36/942/291 173/943/291 133/944/291
f 175/945/292 176/946/292 140/947/292
f 166/948/293 170/949/293 175/950/293
