# Blender v2.82 (sub 7) OBJ File: 'low_poly_mushrooms.blend'
# www.blender.org
mtllib purple_russule.mtl
o purple_russule_Cylinder.022
v 0.123533 0.000000 0.024923
v 0.218746 0.240942 0.018565
v 0.110582 0.000000 0.061495
v 0.143847 0.239218 -0.065028
v 0.072435 0.000000 0.068565
v 0.070639 0.254287 -0.081850
v 0.047239 0.000000 0.039063
v 0.051318 0.282613 0.024162
v 0.060190 0.000000 0.002492
v 0.117586 0.297633 0.082248
v 0.098337 0.000000 -0.004578
v 0.213068 0.255767 0.071943
v 0.127312 0.150464 0.022608
v 0.123692 0.074373 0.029664
v 0.113071 0.078596 0.062462
v 0.119819 0.158530 0.047495
v 0.080271 0.082581 0.068541
v 0.093991 0.167205 0.052281
v 0.058078 0.082345 0.041824
v 0.075656 0.167813 0.032182
v 0.068938 0.078217 0.010289
v 0.082622 0.159385 0.005110
v 0.101751 0.074231 0.004207
v 0.108450 0.150710 0.000323
v 0.221893 0.228961 -0.033042
v 0.276682 0.186651 -0.020500
v 0.236016 0.219110 0.119291
v 0.084156 0.285845 0.145037
v -0.022530 0.267824 0.042807
v 0.015756 0.229472 -0.107648
v 0.164663 0.176112 -0.149427
v 0.290369 0.193039 0.065250
v 0.171846 0.248944 0.169678
v 0.011036 0.301024 0.118879
v -0.040436 0.240466 -0.059766
v 0.079262 0.198936 -0.164628
v 0.239881 0.158929 -0.107123
v 0.247260 0.139473 -0.109868
v 0.067730 0.172696 -0.179298
v -0.069714 0.219794 -0.046790
v -0.021622 0.261125 0.137801
v 0.155296 0.223601 0.200934
v 0.288616 0.156621 0.082209
v 0.161040 0.134022 -0.171265
v -0.022005 0.187510 -0.124804
v -0.069599 0.259962 0.052610
v 0.063010 0.265329 0.192881
v 0.244469 0.199613 0.160042
v 0.297333 0.142036 -0.015904
v 0.166223 0.280499 0.089265
v 0.087523 0.291466 0.044963
v 0.035355 0.274219 -0.031122
v 0.118028 0.249773 -0.086670
v 0.197065 0.224479 -0.066138
v 0.133744 0.272337 -0.003674
v 0.142322 0.000000 0.123308
v 0.130470 0.000000 0.115227
v 0.131543 0.000000 0.100922
v 0.144467 0.000000 0.094699
v 0.156319 0.000000 0.102780
v 0.155247 0.000000 0.117084
v 0.144662 0.072516 0.119215
v 0.136226 0.074789 0.113523
v 0.136980 0.074789 0.103465
v 0.146171 0.072516 0.099095
v 0.154234 0.070340 0.104756
v 0.153480 0.070340 0.114819
v 0.142403 0.083631 0.173396
v 0.095927 0.101264 0.135203
v 0.099369 0.097383 0.075944
v 0.153168 0.087549 0.043288
v 0.200895 0.071202 0.083543
v 0.200407 0.073275 0.145023
v 0.145912 0.093411 0.171484
v 0.102753 0.112256 0.133613
v 0.106835 0.106142 0.078606
v 0.156218 0.101024 0.048140
v 0.202670 0.079643 0.085779
v 0.200166 0.087936 0.142692
v 0.148631 0.107467 0.149451
v 0.128941 0.120737 0.122979
v 0.131186 0.120737 0.093028
v 0.158555 0.113969 0.080014
v 0.184151 0.102145 0.097821
v 0.183083 0.099065 0.128031
v 0.156559 0.117751 0.109742
v 0.141011 0.034957 0.120937
v 0.130822 0.034957 0.114116
v 0.151895 0.034957 0.115697
v 0.131725 0.034957 0.102073
v 0.142817 0.034957 0.096847
v 0.152798 0.034957 0.103651
v 0.026382 0.049610 -0.140219
v 0.023564 0.049610 -0.124741
v 0.035649 0.049610 -0.114304
v 0.041196 0.049610 -0.145515
v 0.050461 0.049610 -0.119600
v 0.053189 0.049610 -0.135333
v 0.031642 0.157438 -0.147916
v 0.039379 0.133102 -0.189157
v 0.002861 0.137114 -0.174450
v -0.004794 0.152513 -0.134568
v 0.025170 0.161327 -0.108880
v 0.062003 0.161327 -0.122049
v 0.083093 0.144045 -0.159484
v 0.047793 0.118609 -0.217241
v -0.021265 0.107808 -0.190120
v -0.041492 0.135654 -0.114928
v 0.020885 0.142319 -0.072271
v 0.088510 0.150281 -0.096506
v -0.011541 0.000000 0.117980
v 0.006521 0.000000 0.105307
v 0.026527 0.000000 0.114612
v 0.028471 0.000000 0.136591
v 0.010409 0.000000 0.149264
v -0.009597 0.000000 0.139958
v -0.006819 0.087830 0.132326
v 0.005238 0.091131 0.123779
v 0.018519 0.091131 0.129956
v 0.019749 0.087830 0.144684
v 0.007924 0.084670 0.152739
v -0.005362 0.084670 0.146559
v -0.099931 0.105577 0.094522
v -0.006524 0.137171 0.040747
v 0.090648 0.130216 0.083974
v 0.111391 0.112597 0.194808
v 0.013736 0.083309 0.249377
v -0.089026 0.087023 0.209699
v -0.098942 0.123099 0.101613
v -0.008172 0.156864 0.053195
v 0.081466 0.145910 0.094809
v 0.101328 0.136740 0.196854
v 0.008865 0.098432 0.250940
v -0.084966 0.113291 0.210768
v -0.063723 0.148284 0.120099
v -0.006898 0.172059 0.103820
v 0.041895 0.172059 0.126516
v 0.046414 0.159933 0.180626
v 0.000382 0.138748 0.212282
v -0.049589 0.133230 0.191397
v -0.002163 0.166710 0.158488
v -0.007360 0.046830 0.121952
v 0.007287 0.048267 0.111567
v -0.005784 0.044758 0.139506
v 0.023380 0.047598 0.119010
v 0.024828 0.045492 0.136841
v 0.010312 0.044089 0.146951
v 0.110754 0.125739 -0.167901
v 0.050439 0.099515 -0.218761
v -0.022988 0.096815 -0.186825
v -0.045653 0.118105 -0.108732
v 0.021666 0.130912 -0.061977
v 0.094012 0.135967 -0.089224
v 0.114886 0.113002 -0.164736
v 0.039312 0.095692 -0.146937
v 0.026938 0.095692 -0.142512
v 0.024464 0.098526 -0.129922
v 0.034527 0.101486 -0.121295
v 0.046896 0.101486 -0.125717
v 0.049208 0.098526 -0.138768
v 0.041074 0.000000 -0.150238
v 0.023482 0.000000 -0.143949
v 0.020134 0.000000 -0.125569
v 0.034376 0.000000 -0.113479
v 0.051968 0.000000 -0.119769
v 0.055317 0.000000 -0.138148
v -0.187928 0.204766 0.017456
v -0.131344 0.203902 0.067031
v -0.125960 0.221189 0.005983
v -0.168619 0.208309 -0.056065
v -0.225080 0.194239 -0.017324
v -0.251115 0.176812 0.042764
v -0.134185 0.140830 0.149268
v -0.267070 0.104964 0.109016
v -0.308600 0.120536 -0.030091
v -0.213744 0.158247 -0.130709
v -0.074057 0.184839 -0.093122
v -0.028601 0.184259 0.045830
v -0.202074 0.111495 0.143668
v -0.300047 0.098782 0.041887
v -0.269702 0.130154 -0.093507
v -0.134951 0.171174 -0.129496
v -0.035963 0.203989 -0.026646
v -0.072045 0.171245 0.110449
v -0.081097 0.181863 0.103397
v -0.055714 0.215878 -0.020033
v -0.135407 0.191687 -0.109871
v -0.273864 0.165389 -0.073141
v -0.290329 0.128228 0.051313
v -0.205345 0.141190 0.141512
v -0.058819 0.202738 0.045400
v -0.102127 0.207897 -0.068390
v -0.211748 0.170929 -0.096768
v -0.286575 0.151828 -0.017209
v -0.248403 0.132286 0.100241
v -0.147907 0.169065 0.130106
v -0.154796 0.196051 0.085720
v -0.142967 0.124261 0.009160
v -0.126508 0.065131 0.004007
v -0.148689 0.125737 -0.010580
v -0.133276 0.066202 -0.020072
v -0.169000 0.120044 -0.015873
v -0.157157 0.062389 -0.026538
v -0.182044 0.113445 -0.001831
v -0.175178 0.057314 -0.008684
v -0.176322 0.111969 0.017908
v -0.168413 0.056243 0.015385
v -0.143624 0.060248 0.021609
v -0.157557 0.117092 0.023607
v -0.231768 0.171780 0.079147
v -0.122480 0.000000 0.005117
v -0.251985 0.186276 0.005183
v -0.130179 0.000000 -0.022736
v -0.207481 0.193636 -0.043795
v -0.158151 0.000000 -0.029996
v -0.129542 0.218221 -0.029352
v -0.178423 0.000000 -0.009402
v -0.136349 0.208336 0.026438
v -0.170725 0.000000 0.018452
v -0.192203 0.183465 0.083471
v -0.142753 0.000000 0.025712
vt 0.551861 0.352535
vt 0.551861 0.340603
vt 0.546048 0.340603
vt 0.546048 0.352535
vt 0.448139 0.334177
vt 0.460072 0.334177
vt 0.460072 0.328364
vt 0.448139 0.328364
vt 0.539622 0.266865
vt 0.539622 0.254933
vt 0.533809 0.254933
vt 0.533809 0.266865
vt 0.435901 0.340296
vt 0.447833 0.340296
vt 0.447833 0.334483
vt 0.435901 0.334483
vt 0.551861 0.254627
vt 0.551861 0.242694
vt 0.546048 0.242694
vt 0.546048 0.254627
vt 0.509332 0.270155
vt 0.515298 0.267172
vt 0.521264 0.270155
vt 0.521264 0.276121
vt 0.515298 0.279104
vt 0.509332 0.276121
vt 0.484855 0.346416
vt 0.496787 0.346416
vt 0.496787 0.340603
vt 0.484855 0.340603
vt 0.931814 0.856287
vt 0.920035 0.856287
vt 0.931814 0.844508
vt 0.907797 0.929718
vt 0.919576 0.929718
vt 0.919576 0.917939
vt 0.919882 0.844355
vt 0.931661 0.844355
vt 0.919882 0.856134
vt 0.932274 0.856287
vt 0.937934 0.856287
vt 0.937934 0.844508
vt 0.870622 0.935837
vt 0.870622 0.930177
vt 0.858843 0.935837
vt 0.564099 0.303887
vt 0.558286 0.303887
vt 0.558286 0.315819
vt 0.564099 0.315819
vt 0.533503 0.358654
vt 0.533503 0.352841
vt 0.521571 0.352841
vt 0.521571 0.358654
vt 0.564099 0.291649
vt 0.558286 0.291649
vt 0.558286 0.303581
vt 0.564099 0.303581
vt 0.521264 0.358654
vt 0.521264 0.352841
vt 0.509332 0.352841
vt 0.509332 0.358654
vt 0.564099 0.279410
vt 0.558286 0.279410
vt 0.558286 0.291342
vt 0.564099 0.291342
vt 0.509026 0.358654
vt 0.509026 0.352841
vt 0.497093 0.352841
vt 0.497093 0.358654
vt 0.870622 0.924058
vt 0.870622 0.929718
vt 0.858843 0.929718
vt 0.907337 0.856593
vt 0.895405 0.856593
vt 0.895405 0.868526
vt 0.907337 0.868526
vt 0.907337 0.868832
vt 0.895405 0.868832
vt 0.895405 0.880764
vt 0.907337 0.880764
vt 0.882860 0.893309
vt 0.870928 0.893309
vt 0.870928 0.905241
vt 0.882860 0.905241
vt 0.907337 0.881070
vt 0.895405 0.881070
vt 0.895405 0.893003
vt 0.907337 0.893003
vt 0.895099 0.893309
vt 0.883167 0.893309
vt 0.883167 0.905241
vt 0.895099 0.905241
vt 0.907337 0.893309
vt 0.895405 0.893309
vt 0.895405 0.905241
vt 0.907337 0.905241
vt 0.919576 0.844355
vt 0.907644 0.844355
vt 0.907644 0.856287
vt 0.919576 0.856287
vt 0.919576 0.856593
vt 0.907644 0.856593
vt 0.907644 0.868526
vt 0.919576 0.868526
vt 0.931814 0.917786
vt 0.919882 0.917786
vt 0.919882 0.929718
vt 0.931814 0.929718
vt 0.882860 0.905547
vt 0.870928 0.905547
vt 0.870928 0.917480
vt 0.882860 0.917480
vt 0.919576 0.881070
vt 0.907644 0.881070
vt 0.907644 0.893003
vt 0.919576 0.893003
vt 0.895099 0.905547
vt 0.883167 0.905547
vt 0.883167 0.917480
vt 0.895099 0.917480
vt 0.956291 0.868526
vt 0.956291 0.856593
vt 0.950478 0.856593
vt 0.950478 0.868526
vt 0.846451 0.954195
vt 0.858383 0.954195
vt 0.858383 0.948382
vt 0.846451 0.948382
vt 0.956291 0.844048
vt 0.956291 0.832116
vt 0.950478 0.832116
vt 0.950478 0.844048
vt 0.821974 0.954195
vt 0.833906 0.954195
vt 0.833906 0.948382
vt 0.821974 0.948382
vt 0.950172 0.941957
vt 0.950172 0.930024
vt 0.944359 0.930024
vt 0.944359 0.941957
vt 0.932121 0.948076
vt 0.944053 0.948076
vt 0.944053 0.942263
vt 0.932121 0.942263
vt 0.950172 0.929718
vt 0.950172 0.917786
vt 0.944359 0.917786
vt 0.944359 0.929718
vt 0.907644 0.948076
vt 0.919576 0.948076
vt 0.919576 0.942263
vt 0.907644 0.942263
vt 0.950172 0.917480
vt 0.950172 0.905547
vt 0.944359 0.905547
vt 0.944359 0.917480
vt 0.895405 0.948076
vt 0.907337 0.948076
vt 0.907337 0.942263
vt 0.895405 0.942263
vt 0.931814 0.881070
vt 0.919882 0.881070
vt 0.919882 0.893003
vt 0.931814 0.893003
vt 0.950172 0.905241
vt 0.950172 0.893309
vt 0.944359 0.893309
vt 0.944359 0.905241
vt 0.447833 0.289612
vt 0.444398 0.291342
vt 0.423662 0.279787
vt 0.434192 0.270759
vt 0.447833 0.267172
vt 0.468906 0.242694
vt 0.472310 0.244445
vt 0.472310 0.266865
vt 0.458983 0.262893
vt 0.448139 0.254596
vt 0.469024 0.218217
vt 0.472310 0.220044
vt 0.472310 0.242388
vt 0.457988 0.240326
vt 0.448139 0.230944
vt 0.447833 0.265199
vt 0.444416 0.266865
vt 0.423662 0.254495
vt 0.434468 0.246340
vt 0.447833 0.242694
vt 0.493360 0.218217
vt 0.496787 0.219871
vt 0.496787 0.242388
vt 0.483207 0.238411
vt 0.472616 0.230352
vt 0.444188 0.218217
vt 0.447833 0.219990
vt 0.447833 0.242388
vt 0.433448 0.238210
vt 0.423662 0.229494
vt 0.858690 0.923905
vt 0.858690 0.929565
vt 0.870469 0.923905
vt 0.932274 0.831810
vt 0.937934 0.831810
vt 0.937934 0.820031
vt 0.932121 0.819878
vt 0.937781 0.819878
vt 0.932121 0.831657
vt 0.907644 0.917786
vt 0.919423 0.917786
vt 0.907644 0.929565
vt 0.858690 0.935684
vt 0.858690 0.930024
vt 0.870469 0.930024
vt 0.932121 0.844355
vt 0.937781 0.844355
vt 0.932121 0.856134
vt 0.570218 0.242694
vt 0.564405 0.242694
vt 0.564405 0.248507
vt 0.570218 0.248507
vt 0.453952 0.358960
vt 0.448139 0.358960
vt 0.448139 0.364773
vt 0.453952 0.364773
vt 0.576338 0.224337
vt 0.570525 0.224337
vt 0.570525 0.230150
vt 0.576338 0.230150
vt 0.429475 0.365080
vt 0.423662 0.365080
vt 0.423662 0.370893
vt 0.429475 0.370893
vt 0.576338 0.218217
vt 0.570525 0.218217
vt 0.570525 0.224030
vt 0.576338 0.224030
vt 0.567312 0.358960
vt 0.570218 0.360414
vt 0.570218 0.363320
vt 0.567312 0.364773
vt 0.564405 0.363320
vt 0.564405 0.360414
vt 0.564099 0.358960
vt 0.558286 0.358960
vt 0.558286 0.364773
vt 0.564099 0.364773
vt 0.484549 0.334177
vt 0.484549 0.328364
vt 0.472616 0.328364
vt 0.472616 0.334177
vt 0.539622 0.230456
vt 0.533809 0.230456
vt 0.533809 0.242388
vt 0.539622 0.242388
vt 0.570218 0.352841
vt 0.564405 0.352841
vt 0.564405 0.358654
vt 0.570218 0.358654
vt 0.539622 0.358960
vt 0.533809 0.358960
vt 0.533809 0.364773
vt 0.539622 0.364773
vt 0.496787 0.334177
vt 0.496787 0.328364
vt 0.484855 0.328364
vt 0.484855 0.334177
vt 0.539622 0.267172
vt 0.533809 0.267172
vt 0.533809 0.279104
vt 0.539622 0.279104
vt 0.895405 0.935837
vt 0.907337 0.935837
vt 0.907337 0.930024
vt 0.895405 0.930024
vt 0.937934 0.893003
vt 0.937934 0.881070
vt 0.932121 0.881070
vt 0.932121 0.893003
vt 0.907644 0.935837
vt 0.919576 0.935837
vt 0.919576 0.930024
vt 0.907644 0.930024
vt 0.937934 0.905241
vt 0.937934 0.893309
vt 0.932121 0.893309
vt 0.932121 0.905241
vt 0.919882 0.935837
vt 0.931814 0.935837
vt 0.931814 0.930024
vt 0.919882 0.930024
vt 0.937934 0.917480
vt 0.937934 0.905547
vt 0.932121 0.905547
vt 0.932121 0.917480
vt 0.968530 0.930024
vt 0.962717 0.930024
vt 0.962717 0.935837
vt 0.968530 0.935837
vt 0.968530 0.923905
vt 0.962717 0.923905
vt 0.962717 0.929718
vt 0.968530 0.929718
vt 0.931814 0.960621
vt 0.926001 0.960621
vt 0.926001 0.966434
vt 0.931814 0.966434
vt 0.968530 0.917786
vt 0.962717 0.917786
vt 0.962717 0.923599
vt 0.968530 0.923599
vt 0.968530 0.911667
vt 0.962717 0.911667
vt 0.962717 0.917480
vt 0.968530 0.917480
vt 0.919576 0.960621
vt 0.913763 0.960621
vt 0.913763 0.966434
vt 0.919576 0.966434
vt 0.956291 0.966434
vt 0.950632 0.966434
vt 0.956291 0.960774
vt 0.950172 0.960774
vt 0.950172 0.966434
vt 0.944512 0.966434
vt 0.968530 0.948535
vt 0.968530 0.954195
vt 0.962870 0.954195
vt 0.962717 0.948382
vt 0.962717 0.954042
vt 0.968377 0.948382
vt 0.956138 0.960621
vt 0.950478 0.966280
vt 0.950478 0.960621
vt 0.950019 0.960621
vt 0.944359 0.960621
vt 0.944359 0.966280
vt 0.570218 0.303887
vt 0.564405 0.303887
vt 0.564405 0.309700
vt 0.570218 0.309700
vt 0.570218 0.297768
vt 0.564405 0.297768
vt 0.564405 0.303581
vt 0.570218 0.303581
vt 0.509026 0.358960
vt 0.503213 0.358960
vt 0.503213 0.364773
vt 0.509026 0.364773
vt 0.570218 0.291649
vt 0.564405 0.291649
vt 0.564405 0.297462
vt 0.570218 0.297462
vt 0.502907 0.358960
vt 0.497093 0.358960
vt 0.497093 0.364773
vt 0.502907 0.364773
vt 0.496787 0.358960
vt 0.490974 0.358960
vt 0.490974 0.364773
vt 0.496787 0.364773
vt 0.570218 0.285529
vt 0.564405 0.285529
vt 0.564405 0.291342
vt 0.570218 0.291342
vt 0.490668 0.358960
vt 0.484855 0.358960
vt 0.484855 0.364773
vt 0.490668 0.364773
vt 0.570218 0.279410
vt 0.564405 0.279410
vt 0.564405 0.285223
vt 0.570218 0.285223
vt 0.570218 0.273291
vt 0.564405 0.273291
vt 0.564405 0.279104
vt 0.570218 0.279104
vt 0.484549 0.358960
vt 0.478736 0.358960
vt 0.478736 0.364773
vt 0.484549 0.364773
vt 0.478429 0.358960
vt 0.472616 0.358960
vt 0.472616 0.364773
vt 0.478429 0.364773
vt 0.962870 0.941957
vt 0.968530 0.941957
vt 0.968530 0.936297
vt 0.938393 0.966434
vt 0.944053 0.960774
vt 0.944053 0.966434
vt 0.968530 0.948076
vt 0.968530 0.942416
vt 0.962870 0.948076
vt 0.962717 0.947923
vt 0.962717 0.942263
vt 0.968377 0.942263
vt 0.962717 0.941803
vt 0.962717 0.936144
vt 0.968377 0.936144
vt 0.938240 0.960621
vt 0.943900 0.960621
vt 0.938240 0.966280
vt 0.932121 0.941957
vt 0.944053 0.941957
vt 0.944053 0.936144
vt 0.932121 0.936144
vt 0.944053 0.917480
vt 0.944053 0.905547
vt 0.938240 0.905547
vt 0.938240 0.917480
vt 0.821974 0.948076
vt 0.833906 0.948076
vt 0.833906 0.942263
vt 0.821974 0.942263
vt 0.944053 0.929718
vt 0.944053 0.917786
vt 0.938240 0.917786
vt 0.938240 0.929718
vt 0.834213 0.948076
vt 0.846145 0.948076
vt 0.846145 0.942263
vt 0.834213 0.942263
vt 0.950172 0.831810
vt 0.950172 0.819878
vt 0.944359 0.819878
vt 0.944359 0.831810
vt 0.570218 0.267172
vt 0.564405 0.267172
vt 0.564405 0.272985
vt 0.570218 0.272985
vt 0.570218 0.261052
vt 0.564405 0.261052
vt 0.564405 0.266865
vt 0.570218 0.266865
vt 0.472310 0.358960
vt 0.466497 0.358960
vt 0.466497 0.364773
vt 0.472310 0.364773
vt 0.466191 0.358960
vt 0.460378 0.358960
vt 0.460378 0.364773
vt 0.466191 0.364773
vt 0.570218 0.254933
vt 0.564405 0.254933
vt 0.564405 0.260746
vt 0.570218 0.260746
vt 0.570218 0.253173
vt 0.567312 0.254627
vt 0.564405 0.253174
vt 0.564405 0.250267
vt 0.567312 0.248814
vt 0.570218 0.250267
vt 0.460072 0.358960
vt 0.454259 0.358960
vt 0.454259 0.364773
vt 0.460072 0.364773
vt 0.447833 0.322245
vt 0.435901 0.322245
vt 0.435901 0.334177
vt 0.447833 0.334177
vt 0.435595 0.322245
vt 0.423662 0.322245
vt 0.423662 0.334177
vt 0.435595 0.334177
vt 0.496787 0.316126
vt 0.484855 0.316126
vt 0.484855 0.328058
vt 0.496787 0.328058
vt 0.533503 0.267172
vt 0.521571 0.267172
vt 0.521571 0.279104
vt 0.533503 0.279104
vt 0.484549 0.316126
vt 0.472616 0.316126
vt 0.472616 0.328058
vt 0.484549 0.328058
vt 0.533503 0.254933
vt 0.521571 0.254933
vt 0.521571 0.266865
vt 0.533503 0.266865
vt 0.919882 0.948076
vt 0.931814 0.948076
vt 0.931814 0.942263
vt 0.919882 0.942263
vt 0.931814 0.844048
vt 0.931814 0.819878
vt 0.926001 0.819878
vt 0.926001 0.844048
vt 0.846451 0.923599
vt 0.870622 0.923599
vt 0.870622 0.917786
vt 0.846451 0.917786
vt 0.925695 0.844048
vt 0.925695 0.819878
vt 0.919882 0.819878
vt 0.919882 0.844048
vt 0.821974 0.923599
vt 0.846145 0.923599
vt 0.846145 0.917786
vt 0.821974 0.917786
vt 0.956291 0.831810
vt 0.956291 0.819878
vt 0.950478 0.819878
vt 0.950478 0.831810
vt 0.834213 0.954195
vt 0.846145 0.954195
vt 0.846145 0.948382
vt 0.834213 0.948382
vt 0.919576 0.905547
vt 0.907644 0.905547
vt 0.907644 0.917480
vt 0.919576 0.917480
vt 0.956291 0.856287
vt 0.956291 0.844355
vt 0.950478 0.844355
vt 0.950478 0.856287
vt 0.919576 0.893309
vt 0.907644 0.893309
vt 0.907644 0.905241
vt 0.919576 0.905241
vt 0.907337 0.905547
vt 0.895405 0.905547
vt 0.895405 0.917480
vt 0.907337 0.917480
vt 0.858690 0.954195
vt 0.870622 0.954195
vt 0.870622 0.948382
vt 0.858690 0.948382
vt 0.833906 0.941957
vt 0.833906 0.936297
vt 0.822127 0.941957
vt 0.931814 0.893462
vt 0.931814 0.905241
vt 0.920035 0.905241
vt 0.931814 0.905700
vt 0.931814 0.917480
vt 0.920035 0.917480
vt 0.919882 0.905547
vt 0.919882 0.917326
vt 0.931661 0.905547
vt 0.821974 0.941803
vt 0.833753 0.936144
vt 0.821974 0.936144
vt 0.931661 0.893309
vt 0.919882 0.893309
vt 0.919882 0.905088
vt 0.570218 0.236575
vt 0.564405 0.236575
vt 0.564405 0.242388
vt 0.570218 0.242388
vt 0.447833 0.358960
vt 0.442020 0.358960
vt 0.442020 0.364773
vt 0.447833 0.364773
vt 0.570218 0.230456
vt 0.564405 0.230456
vt 0.564405 0.236269
vt 0.570218 0.236269
vt 0.441714 0.358960
vt 0.435901 0.358960
vt 0.435901 0.364773
vt 0.441714 0.364773
vt 0.435595 0.358960
vt 0.429782 0.358960
vt 0.429782 0.364773
vt 0.435595 0.364773
vt 0.570218 0.224337
vt 0.564405 0.224337
vt 0.564405 0.230150
vt 0.570218 0.230150
vt 0.956291 0.917480
vt 0.956291 0.905547
vt 0.950478 0.905547
vt 0.950478 0.917480
vt 0.907644 0.954195
vt 0.919576 0.954195
vt 0.919576 0.948382
vt 0.907644 0.948382
vt 0.956291 0.929718
vt 0.956291 0.917786
vt 0.950478 0.917786
vt 0.950478 0.929718
vt 0.919882 0.954195
vt 0.931814 0.954195
vt 0.931814 0.948382
vt 0.919882 0.948382
vt 0.956291 0.941957
vt 0.956291 0.930024
vt 0.950478 0.930024
vt 0.950478 0.941957
vt 0.846451 0.929718
vt 0.858383 0.929718
vt 0.858383 0.923905
vt 0.846451 0.923905
vt 0.557980 0.340603
vt 0.552167 0.340603
vt 0.552167 0.352535
vt 0.557980 0.352535
vt 0.545741 0.352535
vt 0.545741 0.346722
vt 0.533809 0.346722
vt 0.533809 0.352535
vt 0.564099 0.218217
vt 0.558286 0.218217
vt 0.558286 0.230150
vt 0.564099 0.230150
vt 0.435595 0.358654
vt 0.435595 0.352841
vt 0.423662 0.352841
vt 0.423662 0.358654
vt 0.564099 0.230456
vt 0.558286 0.230456
vt 0.558286 0.242388
vt 0.564099 0.242388
vt 0.447833 0.358654
vt 0.447833 0.352841
vt 0.435901 0.352841
vt 0.435901 0.358654
vt 0.570218 0.218217
vt 0.564405 0.218217
vt 0.564405 0.224030
vt 0.570218 0.224030
vt 0.426569 0.364773
vt 0.423662 0.363320
vt 0.423662 0.360414
vt 0.426569 0.358960
vt 0.429475 0.360414
vt 0.429475 0.363320
vt 0.564099 0.352841
vt 0.558286 0.352841
vt 0.558286 0.358654
vt 0.564099 0.358654
vt 0.564099 0.346722
vt 0.558286 0.346722
vt 0.558286 0.352535
vt 0.564099 0.352535
vt 0.557980 0.352841
vt 0.552167 0.352841
vt 0.552167 0.358654
vt 0.557980 0.358654
vt 0.564099 0.340603
vt 0.558286 0.340603
vt 0.558286 0.346416
vt 0.564099 0.346416
vt 0.551861 0.352841
vt 0.546048 0.352841
vt 0.546048 0.358654
vt 0.551861 0.358654
vt 0.858383 0.941957
vt 0.858383 0.936297
vt 0.846604 0.941957
vt 0.932274 0.929718
vt 0.937934 0.929718
vt 0.937934 0.917939
vt 0.870622 0.941957
vt 0.870622 0.936297
vt 0.858843 0.941957
vt 0.932121 0.917786
vt 0.937781 0.917786
vt 0.932121 0.929565
vt 0.920035 0.966434
vt 0.925695 0.966434
vt 0.925695 0.960774
vt 0.919882 0.960621
vt 0.925542 0.960621
vt 0.919882 0.966280
vt 0.493142 0.242694
vt 0.496787 0.244467
vt 0.496787 0.266865
vt 0.482402 0.262687
vt 0.472616 0.253971
vt 0.468870 0.291649
vt 0.472310 0.293291
vt 0.472310 0.315819
vt 0.458768 0.311881
vt 0.448139 0.303864
vt 0.521264 0.240722
vt 0.517847 0.242388
vt 0.497093 0.230018
vt 0.507899 0.221863
vt 0.521264 0.218217
vt 0.444547 0.291649
vt 0.447833 0.293475
vt 0.447833 0.315819
vt 0.433511 0.313757
vt 0.423662 0.304375
vt 0.493386 0.267172
vt 0.496787 0.268918
vt 0.496787 0.291342
vt 0.483500 0.287328
vt 0.472616 0.279064
vt 0.472310 0.289612
vt 0.468875 0.291342
vt 0.448139 0.279787
vt 0.458669 0.270759
vt 0.472310 0.267172
vt 0.962411 0.929718
vt 0.962411 0.917786
vt 0.956598 0.917786
vt 0.956598 0.929718
vt 0.932121 0.960314
vt 0.944053 0.960314
vt 0.944053 0.954501
vt 0.932121 0.954501
vt 0.962411 0.941957
vt 0.962411 0.930024
vt 0.956598 0.930024
vt 0.956598 0.941957
vt 0.883167 0.960314
vt 0.895099 0.960314
vt 0.895099 0.954501
vt 0.883167 0.954501
vt 0.962411 0.880764
vt 0.962411 0.868832
vt 0.956598 0.868832
vt 0.956598 0.880764
vt 0.870928 0.960314
vt 0.882860 0.960314
vt 0.882860 0.954501
vt 0.870928 0.954501
vt 0.962411 0.868526
vt 0.962411 0.856593
vt 0.956598 0.856593
vt 0.956598 0.868526
vt 0.858690 0.960314
vt 0.870622 0.960314
vt 0.870622 0.954501
vt 0.858690 0.954501
vt 0.962411 0.856287
vt 0.962411 0.844355
vt 0.956598 0.844355
vt 0.956598 0.856287
vt 0.846451 0.960314
vt 0.858383 0.960314
vt 0.858383 0.954501
vt 0.846451 0.954501
vt 0.956291 0.905241
vt 0.956291 0.893309
vt 0.950478 0.893309
vt 0.950478 0.905241
vt 0.895405 0.954195
vt 0.907337 0.954195
vt 0.907337 0.948382
vt 0.895405 0.948382
vt 0.956291 0.881070
vt 0.950478 0.881070
vt 0.950478 0.893003
vt 0.956291 0.893003
vt 0.895099 0.954195
vt 0.895099 0.948382
vt 0.883167 0.948382
vt 0.883167 0.954195
vt 0.956291 0.868832
vt 0.950478 0.868832
vt 0.950478 0.880764
vt 0.956291 0.880764
vt 0.882860 0.954195
vt 0.882860 0.948382
vt 0.870928 0.948382
vt 0.870928 0.954195
vt 0.907337 0.844355
vt 0.895405 0.844355
vt 0.895405 0.856287
vt 0.907337 0.856287
vt 0.950172 0.881070
vt 0.944359 0.881070
vt 0.944359 0.893003
vt 0.950172 0.893003
vt 0.882860 0.948076
vt 0.882860 0.942263
vt 0.870928 0.942263
vt 0.870928 0.948076
vt 0.950172 0.868832
vt 0.944359 0.868832
vt 0.944359 0.880764
vt 0.950172 0.880764
vt 0.870622 0.948076
vt 0.870622 0.942263
vt 0.858690 0.942263
vt 0.858690 0.948076
vt 0.950172 0.856593
vt 0.944359 0.856593
vt 0.944359 0.868526
vt 0.950172 0.868526
vt 0.907337 0.917786
vt 0.895405 0.917786
vt 0.895405 0.929718
vt 0.907337 0.929718
vt 0.858383 0.948076
vt 0.858383 0.942263
vt 0.846451 0.942263
vt 0.846451 0.948076
vt 0.907797 0.966434
vt 0.913457 0.966434
vt 0.913457 0.960774
vt 0.551861 0.230456
vt 0.546048 0.230456
vt 0.546048 0.242388
vt 0.551861 0.242388
vt 0.545741 0.334177
vt 0.545741 0.328364
vt 0.533809 0.328364
vt 0.533809 0.334177
vt 0.545741 0.291649
vt 0.539928 0.291649
vt 0.539928 0.303581
vt 0.545741 0.303581
vt 0.533503 0.340296
vt 0.533503 0.334483
vt 0.521571 0.334483
vt 0.521571 0.340296
vt 0.545741 0.279410
vt 0.539928 0.279410
vt 0.539928 0.291342
vt 0.545741 0.291342
vt 0.521264 0.340296
vt 0.521264 0.334483
vt 0.509332 0.334483
vt 0.509332 0.340296
vt 0.944053 0.831810
vt 0.938393 0.831810
vt 0.944053 0.820031
vt 0.846451 0.941803
vt 0.846451 0.936144
vt 0.858230 0.936144
vt 0.938240 0.819878
vt 0.943900 0.819878
vt 0.938240 0.831657
vt 0.858690 0.941803
vt 0.858690 0.936144
vt 0.870469 0.936144
vt 0.907644 0.960621
vt 0.913304 0.960621
vt 0.907644 0.966280
vt 0.545741 0.279104
vt 0.545741 0.267172
vt 0.539928 0.267172
vt 0.539928 0.279104
vt 0.503060 0.340296
vt 0.497093 0.338843
vt 0.497093 0.335937
vt 0.503060 0.334483
vt 0.509026 0.335937
vt 0.509026 0.338843
vt 0.545741 0.266865
vt 0.545741 0.254933
vt 0.539928 0.254933
vt 0.539928 0.266865
vt 0.484855 0.340296
vt 0.496787 0.340296
vt 0.496787 0.334483
vt 0.484855 0.334483
vt 0.545741 0.254627
vt 0.545741 0.242694
vt 0.539928 0.242694
vt 0.539928 0.254627
vt 0.472616 0.340296
vt 0.484549 0.340296
vt 0.484549 0.334483
vt 0.472616 0.334483
vt 0.545741 0.242388
vt 0.545741 0.230456
vt 0.539928 0.230456
vt 0.539928 0.242388
vn 0.7584 0.0410 -0.6505
vn -0.7626 0.0757 0.6425
vn -0.9326 0.1358 -0.3343
vn -0.1744 0.1202 -0.9773
vn 0.9459 -0.0284 0.3232
vn 0.0000 -1.0000 0.0000
vn 0.1813 -0.0174 0.9833
vn 0.1243 0.9579 -0.2587
vn 0.3864 0.8985 -0.2084
vn 0.1022 0.9480 -0.3014
vn 0.0658 0.9835 -0.1683
vn 0.3830 0.9047 -0.1867
vn 0.7565 -0.0975 -0.6467
vn -0.1888 -0.0320 -0.9815
vn -0.9370 0.1476 -0.3166
vn -0.7345 0.2322 0.6377
vn 0.2126 0.1566 0.9645
vn 0.9526 -0.0205 0.3035
vn -0.0111 0.9269 -0.3751
vn 0.3657 0.7360 -0.5697
vn 0.2814 0.9019 0.3276
vn 0.5587 0.7770 0.2899
vn 0.5851 0.6554 -0.4775
vn -0.0497 0.8278 -0.5587
vn -0.1974 0.9432 -0.2673
vn 0.6200 0.7700 -0.1506
vn -0.2960 0.9433 -0.1501
vn -0.1986 0.8674 -0.4563
vn 0.6321 0.7726 0.0591
vn 0.0516 0.9970 0.0577
vn 0.4024 0.7278 -0.5553
vn 0.2552 0.4110 -0.8752
vn -0.4047 0.8775 -0.2573
vn 0.8080 0.4672 0.3589
vn 0.9755 0.2140 -0.0508
vn -0.5118 0.5895 -0.6250
vn -0.3518 0.5925 -0.7247
vn 0.5335 0.6897 0.4895
vn -0.4952 0.8663 0.0658
vn 0.5252 0.3431 -0.7788
vn 0.8214 0.3463 -0.4532
vn -0.2258 0.8059 0.5473
vn 0.2398 0.7859 0.5699
vn -0.0257 -0.9974 0.0670
vn -0.2324 -0.8682 0.4384
vn -0.2940 -0.9549 -0.0412
vn -0.0601 -0.9540 0.2938
vn -0.3925 -0.8306 0.3951
vn -0.4387 -0.8692 0.2283
vn 0.5729 0.7570 -0.3143
vn 0.2323 0.8714 -0.4321
vn 0.3513 0.9140 -0.2030
vn 0.3923 0.8942 -0.2156
vn 0.3147 0.8802 -0.3553
vn 0.0637 0.9599 -0.2730
vn 0.4394 0.0005 0.8983
vn -0.4178 0.0890 -0.9042
vn 0.5684 0.0005 -0.8227
vn 0.9963 -0.0428 0.0747
vn -0.5479 0.0890 0.8318
vn -0.9883 0.1330 -0.0741
vn -0.4567 -0.8721 0.1759
vn -0.3380 -0.8981 -0.2814
vn 0.0377 -0.9989 0.0296
vn -0.5337 -0.8456 0.0150
vn -0.0988 -0.9587 -0.2667
vn -0.0820 -0.9752 0.2058
vn -0.8030 0.5867 -0.1042
vn 0.6571 0.0971 -0.7475
vn 0.4621 0.0914 0.8821
vn -0.5031 0.3811 0.7756
vn -0.4135 0.4609 -0.7852
vn 0.9973 -0.0661 0.0310
vn -0.0876 0.8545 0.5120
vn -0.1211 0.8822 -0.4550
vn 0.6872 0.7263 -0.0153
vn -0.4075 0.9082 -0.0957
vn 0.6026 0.7148 -0.3549
vn 0.3691 0.8274 0.4234
vn 0.1114 0.9937 0.0084
vn 0.4639 0.8822 -0.0811
vn 0.3998 0.8648 0.3038
vn 0.2382 0.9276 0.2878
vn 0.1883 0.9758 -0.1115
vn 0.5235 0.8456 0.1047
vn -0.9972 0.0076 -0.0748
vn -0.5598 0.0335 0.8280
vn 0.9924 0.0981 0.0744
vn 0.5616 0.0771 -0.8238
vn -0.4301 0.0335 -0.9022
vn 0.4325 0.0771 0.8983
vn 0.6455 0.0708 -0.7604
vn -0.6498 0.0308 0.7595
vn -0.9813 0.0708 -0.1788
vn -0.3353 0.0901 -0.9378
vn 0.9840 0.0308 0.1753
vn 0.3367 0.0070 0.9416
vn -0.1169 0.8456 -0.5209
vn -0.1784 0.9758 -0.1268
vn 0.1662 0.9276 -0.3346
vn 0.1152 0.8648 -0.4887
vn -0.2625 0.8822 -0.3910
vn -0.0376 0.9937 -0.1052
vn 0.2370 0.8274 -0.5092
vn -0.5691 0.7148 -0.4065
vn 0.0780 0.9082 0.4112
vn -0.2931 0.7263 -0.6218
vn -0.3666 0.8822 0.2955
vn 0.5035 0.8545 -0.1279
vn -0.9956 -0.0083 0.0936
vn 0.9900 0.1278 -0.0602
vn 0.5754 -0.0820 0.8138
vn -0.4186 -0.1530 0.8952
vn -0.5901 0.2000 -0.7822
vn 0.4105 0.2666 -0.8720
vn 0.0110 -0.8803 -0.4743
vn 0.3595 -0.9082 -0.2142
vn -0.0289 -0.9996 -0.0079
vn 0.1645 -0.8569 -0.4884
vn 0.2704 -0.9624 -0.0260
vn -0.1331 -0.9794 -0.1516
vn 0.3808 0.5867 -0.7146
vn 0.4676 0.0971 0.8786
vn -0.9884 0.0914 0.1212
vn -0.5483 0.3811 -0.7444
vn 0.8806 0.4610 -0.1100
vn -0.3808 -0.0661 0.9223
vn -0.4482 0.8545 -0.2626
vn 0.4685 0.8822 0.0472
vn -0.2281 0.7263 0.6484
vn 0.2333 0.9082 -0.3475
vn 0.1195 0.7148 0.6890
vn -0.5264 0.8274 0.1960
vn -0.0471 0.9937 0.1013
vn -0.0878 0.8822 0.4627
vn -0.4253 0.8648 0.2669
vn -0.3533 0.9276 0.1214
vn 0.0379 0.9758 0.2155
vn -0.2827 0.8456 0.4529
vn 0.4200 0.1106 -0.9008
vn -0.5757 0.1170 -0.8093
vn -0.4197 0.0458 0.9065
vn 0.5713 0.0427 0.8196
vn 0.9938 0.0765 -0.0806
vn -0.9922 0.0831 0.0927
vn -0.3767 -0.0661 -0.9240
vn -0.5496 0.4609 0.6968
vn 0.9131 0.3811 0.1448
vn 0.6184 0.0914 -0.7805
vn -0.9499 0.0971 -0.2969
vn 0.2309 0.5867 0.7762
vn 0.2213 -0.9752 -0.0086
vn -0.2036 -0.9587 0.1986
vn 0.2305 -0.8456 0.4816
vn 0.0117 -0.9989 -0.0465
vn -0.1198 -0.8981 0.4231
vn 0.3462 -0.8721 0.3459
vn 0.3337 0.1330 0.9333
vn 0.9826 0.0890 0.1629
vn -0.3364 -0.0428 -0.9408
vn -0.9827 0.0005 -0.1853
vn -0.6566 0.0890 0.7490
vn 0.6424 0.0005 -0.7664
vn -0.2651 0.9627 -0.0540
vn -0.1623 0.9658 0.2021
vn -0.2917 0.9142 0.2815
vn -0.3113 0.9198 0.2388
vn -0.0892 0.9889 0.1190
vn -0.1426 0.8691 0.4736
vn 0.2695 -0.9047 -0.3300
vn 0.0972 -0.9560 -0.2767
vn 0.2442 -0.9680 0.0575
vn 0.5393 -0.8217 -0.1842
vn 0.0657 -0.9898 -0.1263
vn 0.4594 -0.8836 0.0901
vn -0.8977 0.4094 0.1628
vn -0.8719 0.3852 -0.3022
vn 0.1799 0.6205 0.7633
vn 0.4703 0.7530 0.4602
vn -0.4870 0.6452 -0.5887
vn -0.7892 0.3892 0.4750
vn 0.3256 0.8381 -0.4376
vn 0.2475 0.7660 -0.5933
vn -0.1012 0.3173 0.9429
vn -0.5766 0.3013 0.7594
vn -0.2197 0.8321 -0.5093
vn 0.5270 0.8302 0.1816
vn 0.0845 0.9500 0.3008
vn -0.5668 0.8216 -0.0608
vn -0.4721 0.6958 0.5413
vn -0.0514 0.9496 -0.3092
vn -0.3491 0.8447 -0.4058
vn -0.2910 0.8007 0.5237
vn -0.2523 0.9162 -0.3112
vn 0.0514 0.9858 -0.1597
vn 0.0491 0.8688 0.4927
vn -0.6589 0.5793 0.4799
vn -0.7500 0.6370 0.1781
vn 0.0938 0.9602 0.2629
vn -0.1581 0.9792 -0.1274
vn -0.2461 -0.0865 0.9654
vn -0.9533 -0.1480 0.2631
vn -0.7145 -0.0098 -0.6995
vn 0.2083 0.2126 -0.9547
vn 0.9275 0.2797 -0.2481
vn 0.6790 0.1334 0.7219
vn -0.3215 0.9070 0.2718
vn -0.3670 0.9288 -0.0516
vn -0.2361 0.9716 -0.0152
vn -0.2998 0.9134 0.2753
vn -0.2785 0.9604 0.0068
vn -0.9617 0.0526 0.2690
vn -0.2516 0.0626 0.9658
vn 0.9621 0.0554 -0.2669
vn 0.2521 0.0501 -0.9664
vn -0.7109 0.0497 -0.7015
vn 0.7098 0.0569 0.7021
usemtl low_poly_mushrooms_texture_atlas
s off
f 11/1/1 23/2/1 14/3/1 1/4/1
f 5/5/2 17/6/2 19/7/2 7/8/2
f 7/9/3 19/10/3 21/11/3 9/12/3
f 9/13/4 21/14/4 23/15/4 11/16/4
f 1/17/5 14/18/5 15/19/5 3/20/5
f 1/21/6 3/22/6 5/23/6 7/24/6 9/25/6 11/26/6
f 3/27/7 15/28/7 17/29/7 5/30/7
f 51/31/8 10/32/8 55/33/8
f 12/34/9 2/35/9 55/36/9
f 6/37/10 52/38/10 55/39/10
f 52/40/11 8/41/11 55/42/11
f 2/43/12 25/44/12 55/45/12
f 24/46/13 13/47/13 14/48/13 23/49/13
f 22/50/14 24/51/14 23/52/14 21/53/14
f 20/54/15 22/55/15 21/56/15 19/57/15
f 18/58/16 20/59/16 19/60/16 17/61/16
f 16/62/17 18/63/17 17/64/17 15/65/17
f 13/66/18 16/67/18 15/68/18 14/69/18
f 8/70/19 51/71/19 55/72/19
f 37/73/20 31/74/20 4/75/20 54/76/20
f 28/77/21 33/78/21 50/79/21 10/80/21
f 33/81/22 27/82/22 12/83/22 50/84/22
f 26/85/23 37/86/23 54/87/23 25/88/23
f 36/89/24 30/90/24 6/91/24 53/92/24
f 29/93/25 34/94/25 51/95/25 8/96/25
f 32/97/26 26/98/26 25/99/26 2/100/26
f 35/101/27 29/102/27 8/103/27 52/104/27
f 30/105/28 35/106/28 52/107/28 6/108/28
f 27/109/29 32/110/29 2/111/29 12/112/29
f 34/113/30 28/114/30 10/115/30 51/116/30
f 31/117/31 36/118/31 53/119/31 4/120/31
f 44/121/32 39/122/32 36/123/32 31/124/32
f 40/125/33 46/126/33 29/127/33 35/128/33
f 48/129/34 43/130/34 32/131/34 27/132/34
f 43/133/35 49/134/35 26/135/35 32/136/35
f 45/137/36 40/138/36 35/139/36 30/140/36
f 39/141/37 45/142/37 30/143/37 36/144/37
f 42/145/38 48/146/38 27/147/38 33/148/38
f 46/149/39 41/150/39 34/151/39 29/152/39
f 38/153/40 44/154/40 31/155/40 37/156/40
f 49/157/41 38/158/41 37/159/41 26/160/41
f 41/161/42 47/162/42 28/163/42 34/164/42
f 47/165/43 42/166/43 33/167/43 28/168/43
f 13/169/44 24/170/44 44/171/44 38/172/44 49/173/44
f 18/174/45 16/175/45 48/176/45 42/177/45 47/178/45
f 24/179/46 22/180/46 45/181/46 39/182/46 44/183/46
f 16/184/47 13/185/47 49/186/47 43/187/47 48/188/47
f 20/189/48 18/190/48 47/191/48 41/192/48 46/193/48
f 22/194/49 20/195/49 46/196/49 40/197/49 45/198/49
f 4/199/50 53/200/50 55/201/50
f 54/202/51 4/203/51 55/204/51
f 10/205/52 50/206/52 55/207/52
f 50/208/53 12/209/53 55/210/53
f 25/211/54 54/212/54 55/213/54
f 53/214/55 6/215/55 55/216/55
f 89/217/56 67/218/56 62/219/56 87/220/56
f 90/221/57 64/222/57 65/223/57 91/224/57
f 91/225/58 65/226/58 66/227/58 92/228/58
f 92/229/59 66/230/59 67/231/59 89/232/59
f 87/233/60 62/234/60 63/235/60 88/236/60
f 56/237/6 57/238/6 58/239/6 59/240/6 60/241/6 61/242/6
f 88/243/61 63/244/61 64/245/61 90/246/61
f 63/247/62 62/248/62 68/249/62 69/250/62
f 65/251/63 64/252/63 70/253/63 71/254/63
f 67/255/64 66/256/64 72/257/64 73/258/64
f 64/259/65 63/260/65 69/261/65 70/262/65
f 66/263/66 65/264/66 71/265/66 72/266/66
f 62/267/67 67/268/67 73/269/67 68/270/67
f 70/271/68 69/272/68 75/273/68 76/274/68
f 72/275/69 71/276/69 77/277/69 78/278/69
f 68/279/70 73/280/70 79/281/70 74/282/70
f 69/283/71 68/284/71 74/285/71 75/286/71
f 71/287/72 70/288/72 76/289/72 77/290/72
f 73/291/73 72/292/73 78/293/73 79/294/73
f 75/295/74 74/296/74 80/297/74 81/298/74
f 77/299/75 76/300/75 82/301/75 83/302/75
f 79/303/76 78/304/76 84/305/76 85/306/76
f 76/307/77 75/308/77 81/309/77 82/310/77
f 78/311/78 77/312/78 83/313/78 84/314/78
f 74/315/79 79/316/79 85/317/79 80/318/79
f 82/319/80 81/320/80 86/321/80
f 84/322/81 83/323/81 86/324/81
f 80/325/82 85/326/82 86/327/82
f 81/328/83 80/329/83 86/330/83
f 83/331/84 82/332/84 86/333/84
f 85/334/85 84/335/85 86/336/85
f 57/337/86 88/338/86 90/339/86 58/340/86
f 56/341/87 87/342/87 88/343/87 57/344/87
f 60/345/88 92/346/88 89/347/88 61/348/88
f 59/349/89 91/350/89 92/351/89 60/352/89
f 58/353/90 90/354/90 91/355/90 59/356/90
f 61/357/91 89/358/91 87/359/91 56/360/91
f 161/361/92 96/362/92 98/363/92 166/364/92
f 164/365/93 95/366/93 94/367/93 163/368/93
f 163/369/94 94/370/94 93/371/94 162/372/94
f 162/373/95 93/374/95 96/375/95 161/376/95
f 166/377/96 98/378/96 97/379/96 165/380/96
f 165/381/97 97/382/97 95/383/97 164/384/97
f 100/385/98 101/386/98 99/387/98
f 102/388/99 103/389/99 99/390/99
f 104/391/100 105/392/100 99/393/100
f 105/394/101 100/395/101 99/396/101
f 101/397/102 102/398/102 99/399/102
f 103/400/103 104/401/103 99/402/103
f 148/403/104 106/404/104 100/405/104 105/406/104
f 107/407/105 108/408/105 102/409/105 101/410/105
f 109/411/106 110/412/106 104/413/106 103/414/106
f 106/415/107 107/416/107 101/417/107 100/418/107
f 108/419/108 109/420/108 103/421/108 102/422/108
f 110/423/109 148/424/109 105/425/109 104/426/109
f 144/427/110 122/428/110 117/429/110 142/430/110
f 145/431/111 119/432/111 120/433/111 146/434/111
f 146/435/112 120/436/112 121/437/112 147/438/112
f 147/439/113 121/440/113 122/441/113 144/442/113
f 142/443/114 117/444/114 118/445/114 143/446/114
f 111/447/6 112/448/6 113/449/6 114/450/6 115/451/6 116/452/6
f 143/453/115 118/454/115 119/455/115 145/456/115
f 118/457/116 117/458/116 123/459/116 124/460/116
f 120/461/117 119/462/117 125/463/117 126/464/117
f 122/465/118 121/466/118 127/467/118 128/468/118
f 119/469/119 118/470/119 124/471/119 125/472/119
f 121/473/120 120/474/120 126/475/120 127/476/120
f 117/477/121 122/478/121 128/479/121 123/480/121
f 125/481/122 124/482/122 130/483/122 131/484/122
f 127/485/123 126/486/123 132/487/123 133/488/123
f 123/489/124 128/490/124 134/491/124 129/492/124
f 124/493/125 123/494/125 129/495/125 130/496/125
f 126/497/126 125/498/126 131/499/126 132/500/126
f 128/501/127 127/502/127 133/503/127 134/504/127
f 130/505/128 129/506/128 135/507/128 136/508/128
f 132/509/129 131/510/129 137/511/129 138/512/129
f 134/513/130 133/514/130 139/515/130 140/516/130
f 131/517/131 130/518/131 136/519/131 137/520/131
f 133/521/132 132/522/132 138/523/132 139/524/132
f 129/525/133 134/526/133 140/527/133 135/528/133
f 137/529/134 136/530/134 141/531/134
f 139/532/135 138/533/135 141/534/135
f 135/535/136 140/536/136 141/537/136
f 136/538/137 135/539/137 141/540/137
f 138/541/138 137/542/138 141/543/138
f 140/544/139 139/545/139 141/546/139
f 112/547/140 143/548/140 145/549/140 113/550/140
f 111/551/141 142/552/141 143/553/141 112/554/141
f 115/555/142 147/556/142 144/557/142 116/558/142
f 114/559/143 146/560/143 147/561/143 115/562/143
f 113/563/144 145/564/144 146/565/144 114/566/144
f 116/567/145 144/568/145 142/569/145 111/570/145
f 149/571/146 150/572/146 107/573/146 106/574/146
f 151/575/147 152/576/147 109/577/147 108/578/147
f 153/579/148 154/580/148 148/581/148 110/582/148
f 154/583/149 149/584/149 106/585/149 148/586/149
f 150/587/150 151/588/150 108/589/150 107/590/150
f 152/591/151 153/592/151 110/593/151 109/594/151
f 160/595/152 155/596/152 149/597/152 154/598/152
f 156/599/153 157/600/153 151/601/153 150/602/153
f 158/603/154 159/604/154 153/605/154 152/606/154
f 155/607/155 156/608/155 150/609/155 149/610/155
f 157/611/156 158/612/156 152/613/156 151/614/156
f 159/615/157 160/616/157 154/617/157 153/618/157
f 97/619/158 159/620/158 158/621/158 95/622/158
f 166/623/6 165/624/6 164/625/6 163/626/6 162/627/6 161/628/6
f 98/629/159 160/630/159 159/631/159 97/632/159
f 93/633/160 156/634/160 155/635/160 96/636/160
f 94/637/161 157/638/161 156/639/161 93/640/161
f 95/641/162 158/642/162 157/643/162 94/644/162
f 96/645/163 155/646/163 160/647/163 98/648/163
f 169/649/164 216/650/164 167/651/164
f 197/652/165 168/653/165 167/654/165
f 172/655/166 210/656/166 167/657/166
f 212/658/167 172/659/167 167/660/167
f 168/661/168 218/662/168 167/663/168
f 218/664/169 169/665/169 167/666/169
f 200/667/170 202/668/170 176/669/170 182/670/170 177/671/170
f 202/672/171 204/673/171 175/674/171 181/675/171 176/676/171
f 206/677/172 209/678/172 173/679/172 179/680/172 174/681/172
f 198/682/173 200/683/173 177/684/173 183/685/173 178/686/173
f 204/687/174 206/688/174 174/689/174 180/690/174 175/691/174
f 209/692/175 198/693/175 178/694/175 184/695/175 173/696/175
f 175/697/176 180/698/176 189/699/176 194/700/176
f 181/701/177 175/702/177 194/703/177 188/704/177
f 173/705/178 184/706/178 185/707/178 196/708/178
f 184/709/179 178/710/179 191/711/179 185/712/179
f 176/713/180 181/714/180 188/715/180 193/716/180
f 180/717/181 174/718/181 195/719/181 189/720/181
f 183/721/182 177/722/182 192/723/182 186/724/182
f 177/725/183 182/726/183 187/727/183 192/728/183
f 179/729/184 173/730/184 196/731/184 190/732/184
f 174/733/185 179/734/185 190/735/185 195/736/185
f 182/737/186 176/738/186 193/739/186 187/740/186
f 178/741/187 183/742/187 186/743/187 191/744/187
f 191/745/188 186/746/188 169/747/188 218/748/188
f 188/749/189 194/750/189 212/751/189 171/752/189
f 195/753/190 190/754/190 220/755/190 210/756/190
f 192/757/191 187/758/191 170/759/191 216/760/191
f 187/761/192 193/762/192 214/763/192 170/764/192
f 190/765/193 196/766/193 197/767/193 220/768/193
f 193/769/194 188/770/194 171/771/194 214/772/194
f 186/773/195 192/774/195 216/775/195 169/776/195
f 196/777/196 185/778/196 168/779/196 197/780/196
f 189/781/197 195/782/197 210/783/197 172/784/197
f 194/785/198 189/786/198 172/787/198 212/788/198
f 185/789/199 191/790/199 218/791/199 168/792/199
f 214/793/200 171/794/200 167/795/200
f 209/796/201 206/797/201 207/798/201 208/799/201
f 206/800/202 204/801/202 205/802/202 207/803/202
f 204/804/203 202/805/203 203/806/203 205/807/203
f 202/808/204 200/809/204 201/810/204 203/811/204
f 200/812/205 198/813/205 199/814/205 201/815/205
f 198/816/206 209/817/206 208/818/206 199/819/206
f 220/820/207 197/821/207 167/822/207
f 170/823/208 214/824/208 167/825/208
f 216/826/209 170/827/209 167/828/209
f 210/829/210 220/830/210 167/831/210
f 171/832/211 212/833/211 167/834/211
f 219/835/212 207/836/212 205/837/212 217/838/212
f 221/839/6 219/840/6 217/841/6 215/842/6 213/843/6 211/844/6
f 221/845/213 208/846/213 207/847/213 219/848/213
f 213/849/214 201/850/214 199/851/214 211/852/214
f 215/853/215 203/854/215 201/855/215 213/856/215
f 217/857/216 205/858/216 203/859/216 215/860/216
f 211/861/217 199/862/217 208/863/217 221/864/217
