# Blender v2.82 (sub 7) OBJ File: 'low_poly_mushrooms.blend'
# www.blender.org
mtllib saffron_milk_cap.mtl
o saffron_milk_cap_Cylinder.020
v -0.046513 0.000000 0.049844
v 0.030297 0.134382 0.125903
v -0.075446 0.000000 0.061054
v -0.095233 0.101656 0.175445
v -0.099621 0.000000 0.041602
v -0.216236 0.107451 0.092307
v -0.094862 0.000000 0.010940
v -0.191105 0.130382 -0.052250
v -0.065929 0.000000 -0.000270
v -0.059961 0.145326 -0.111001
v -0.041754 0.000000 0.019182
v 0.056065 0.145380 -0.019446
v 0.010812 0.126640 0.110283
v -0.059979 0.067647 0.040154
v -0.079814 0.065109 0.049404
v -0.096157 0.111378 0.148801
v -0.094851 0.065109 0.037304
v -0.188386 0.111378 0.074587
v -0.090060 0.067647 0.015949
v -0.173650 0.126640 -0.038145
v -0.070234 0.071221 0.006705
v -0.060326 0.143668 -0.084563
v -0.055191 0.071221 0.018809
v 0.031905 0.143668 -0.010348
v 0.034293 0.138711 0.134654
v -0.097692 0.104771 0.184923
v -0.225820 0.110566 0.096053
v -0.198963 0.138711 -0.057945
v -0.062635 0.158786 -0.119897
v 0.064061 0.150924 -0.022961
v -0.008847 0.157923 0.095018
v -0.094238 0.143410 0.146115
v -0.179740 0.136056 0.077880
v -0.164344 0.150145 -0.031842
v -0.072076 0.172812 -0.054481
v 0.021018 0.164143 -0.005887
v -0.051527 0.122861 0.062065
v -0.089810 0.122241 0.078037
v -0.120683 0.122241 0.053195
v -0.113272 0.127501 0.012381
v -0.075380 0.132761 -0.003105
v -0.044508 0.128121 0.021737
v -0.082358 0.095072 0.037172
v -0.053783 0.032565 0.039272
v -0.076691 0.031920 0.048339
v -0.050104 0.033737 0.015301
v -0.095641 0.031920 0.033092
v -0.091685 0.032565 0.008774
v -0.069056 0.033737 0.000050
v 0.024674 0.147697 0.126294
v -0.094974 0.130637 0.167150
v 0.042540 0.159336 -0.014424
v -0.182305 0.144111 -0.045673
v -0.063463 0.168581 -0.094749
v -0.213960 0.130637 0.091930
v -0.073860 0.152250 -0.029982
v -0.011745 0.147610 0.007925
v -0.151520 0.132947 0.065649
v -0.138615 0.142599 -0.008255
v -0.024859 0.137958 0.082215
v -0.094871 0.132947 0.111232
v 0.101510 0.000000 0.079022
v 0.256062 0.263422 0.166265
v 0.084535 0.000000 0.104996
v 0.162465 0.224136 0.265306
v 0.053554 0.000000 0.103283
v 0.018992 0.277329 0.262302
v 0.039547 0.000000 0.075595
v -0.028020 0.359934 0.145497
v 0.056521 0.000000 0.049620
v 0.060639 0.392067 0.027432
v 0.087503 0.000000 0.051334
v 0.211695 0.335042 0.029904
v 0.223880 0.264784 0.149407
v 0.110176 0.219431 0.108369
v 0.097451 0.214706 0.125722
v 0.149338 0.242586 0.233725
v 0.079164 0.220797 0.124709
v 0.037179 0.279946 0.227509
v 0.073596 0.231616 0.106342
v -0.000439 0.339505 0.136975
v 0.086612 0.237281 0.089318
v 0.076079 0.366130 0.043579
v 0.104906 0.231187 0.090332
v 0.188240 0.328769 0.049795
v 0.258508 0.270261 0.165845
v 0.163546 0.228028 0.267320
v 0.016222 0.279284 0.271473
v -0.027509 0.366784 0.146332
v 0.061489 0.400977 0.029129
v 0.210912 0.344602 0.031360
v 0.209155 0.307205 0.165085
v 0.154553 0.282567 0.240621
v 0.059802 0.306829 0.233005
v 0.017006 0.363860 0.150853
v 0.087756 0.391221 0.078812
v 0.187191 0.352578 0.072503
v 0.147929 0.292113 0.152421
v 0.123682 0.287654 0.185787
v 0.086138 0.300159 0.183707
v 0.074164 0.321334 0.149697
v 0.099643 0.329828 0.118361
v 0.135864 0.313113 0.119004
v 0.105240 0.288229 0.133600
v 0.101084 0.170235 0.088551
v 0.087768 0.167117 0.106734
v 0.092659 0.178975 0.069707
v 0.065974 0.172389 0.105545
v 0.057493 0.180780 0.086172
v 0.070862 0.184247 0.068517
v 0.249074 0.282566 0.167501
v 0.164628 0.258671 0.260095
v 0.199565 0.350225 0.052490
v -0.006256 0.365404 0.148253
v 0.075681 0.399488 0.052051
v 0.029796 0.298355 0.267932
v 0.093538 0.358548 0.102791
v 0.161949 0.334186 0.096211
v 0.069602 0.306902 0.213736
v 0.055704 0.344246 0.148322
v 0.184033 0.295548 0.157884
v 0.138492 0.283955 0.217554
v 0.082816 0.094414 0.102406
v 0.056115 0.094604 0.100946
v 0.044052 0.098004 0.077264
v 0.058679 0.101407 0.055295
v 0.097455 0.097624 0.080184
v 0.085382 0.101216 0.056755
v 0.007169 0.226397 -0.241337
v 0.129209 0.160146 -0.241269
v 0.220795 0.164731 -0.126473
v 0.165090 0.231258 -0.005127
v 0.031902 0.287659 0.004145
v -0.053295 0.278090 -0.116504
v 0.019163 0.219449 -0.219167
v 0.041813 0.149284 -0.117368
v 0.062133 0.140961 -0.119167
v 0.125292 0.175928 -0.218014
v 0.072858 0.141291 -0.103124
v 0.191077 0.177953 -0.119616
v 0.063268 0.149944 -0.085276
v 0.150735 0.223499 -0.022370
v 0.043215 0.159249 -0.083671
v 0.036999 0.271834 -0.018535
v 0.032485 0.158919 -0.099720
v -0.028787 0.269809 -0.116935
v 0.006887 0.229032 -0.251548
v 0.134828 0.160278 -0.249872
v 0.231496 0.165020 -0.127474
v 0.171938 0.235389 0.001870
v 0.033364 0.294685 0.012238
v -0.060308 0.285689 -0.116815
v 0.028148 0.249485 -0.220944
v 0.128365 0.209614 -0.213923
v 0.181123 0.204360 -0.129362
v 0.149610 0.245942 -0.035555
v 0.051759 0.293251 -0.036435
v -0.006398 0.286189 -0.116758
v 0.063214 0.216735 -0.153765
v 0.102989 0.205214 -0.156283
v 0.125009 0.205891 -0.123346
v 0.108407 0.222503 -0.088751
v 0.070279 0.238244 -0.087421
v 0.047107 0.233154 -0.119497
v 0.071824 0.200235 -0.110808
v 0.028652 0.089034 -0.105401
v 0.050583 0.083064 -0.106431
v 0.019629 0.095707 -0.085997
v 0.063052 0.083414 -0.087762
v 0.053593 0.089734 -0.068058
v 0.032100 0.096057 -0.067324
v 0.015810 0.237943 -0.242376
v 0.133921 0.189836 -0.239017
v -0.035894 0.287653 -0.119445
v 0.161091 0.240443 -0.015852
v 0.043351 0.297519 -0.012688
v 0.224329 0.187283 -0.131148
v 0.062298 0.263814 -0.054642
v 0.021330 0.261077 -0.119066
v 0.158610 0.207368 -0.127068
v 0.131644 0.238830 -0.059743
v 0.052012 0.230834 -0.180480
v 0.117927 0.206124 -0.179482
v 0.039194 0.000000 -0.102360
v 0.054010 0.000000 -0.080099
v 0.042263 0.000000 -0.056259
v 0.015909 0.000000 -0.054823
v 0.012630 0.000000 -0.100782
v 0.001092 0.000000 -0.077085
v 0.000955 0.124680 0.000968
v -0.032597 0.096673 0.012186
v -0.041168 0.089850 0.060211
v -0.014175 0.112377 0.086959
v -0.064796 0.124680 -0.051940
v -0.068599 0.096673 -0.016784
v -0.145560 0.112377 -0.018761
v -0.113677 0.089850 0.001866
v -0.157312 0.101898 0.062532
v -0.120510 0.083684 0.047863
v -0.091068 0.101898 0.115834
v -0.084637 0.083684 0.076728
v -0.004081 0.240545 -0.115133
v 0.018674 0.200642 -0.109165
v 0.038831 0.179587 -0.151654
v 0.030293 0.204311 -0.188317
v 0.043049 0.241942 -0.044701
v 0.045639 0.201468 -0.068834
v 0.124393 0.207159 -0.047522
v 0.092991 0.181249 -0.070638
v 0.154811 0.174558 -0.117619
v 0.111080 0.161766 -0.111819
v 0.107432 0.173105 -0.188637
v 0.084166 0.160939 -0.152081
v 0.164401 0.305259 0.066247
v 0.129693 0.264958 0.083508
v 0.143549 0.239576 0.123079
v 0.190646 0.257831 0.139871
v 0.081506 0.332834 0.061674
v 0.086073 0.279511 0.081086
v 0.024998 0.312969 0.130674
v 0.055904 0.268806 0.118237
v 0.052294 0.269204 0.199116
v 0.070429 0.244668 0.155540
v 0.135853 0.241380 0.203800
v 0.113904 0.230175 0.157932
vt 0.367555 0.481457
vt 0.360389 0.481457
vt 0.360389 0.488623
vt 0.367555 0.488623
vt 0.375035 0.421617
vt 0.367869 0.421617
vt 0.367869 0.428782
vt 0.375035 0.428782
vt 0.225434 0.571218
vt 0.218268 0.571218
vt 0.218268 0.578383
vt 0.225434 0.578383
vt 0.367555 0.563738
vt 0.360389 0.563738
vt 0.360389 0.570903
vt 0.367555 0.570903
vt 0.360075 0.563738
vt 0.352909 0.563738
vt 0.352909 0.570903
vt 0.360075 0.570903
vt 0.255511 0.421617
vt 0.262834 0.425278
vt 0.262834 0.432601
vt 0.255511 0.436262
vt 0.248188 0.432601
vt 0.248188 0.425278
vt 0.367555 0.556258
vt 0.360389 0.556258
vt 0.360389 0.563423
vt 0.367555 0.563423
vt 0.270314 0.451537
vt 0.263148 0.451537
vt 0.263148 0.466183
vt 0.270314 0.466183
vt 0.262834 0.458702
vt 0.262834 0.451537
vt 0.248188 0.451537
vt 0.248188 0.458702
vt 0.270314 0.421617
vt 0.263148 0.421617
vt 0.263148 0.436262
vt 0.270314 0.436262
vt 0.262834 0.466183
vt 0.262834 0.459017
vt 0.248188 0.459017
vt 0.248188 0.466183
vt 0.270314 0.436577
vt 0.263148 0.436577
vt 0.263148 0.451222
vt 0.270314 0.451222
vt 0.367555 0.548778
vt 0.360389 0.548778
vt 0.360389 0.555943
vt 0.367555 0.555943
vt 0.218268 0.473663
vt 0.232914 0.473663
vt 0.232914 0.466497
vt 0.218268 0.466497
vt 0.277794 0.436262
vt 0.277794 0.421617
vt 0.270628 0.421617
vt 0.270628 0.436262
vt 0.233228 0.473663
vt 0.247874 0.473663
vt 0.247874 0.466497
vt 0.233228 0.466497
vt 0.292754 0.436262
vt 0.292754 0.421617
vt 0.285589 0.421617
vt 0.285589 0.436262
vt 0.232914 0.481143
vt 0.232914 0.473977
vt 0.218268 0.473977
vt 0.218268 0.481143
vt 0.481143 0.451222
vt 0.481143 0.436577
vt 0.473977 0.436577
vt 0.473977 0.451222
vt 0.436577 0.481143
vt 0.451222 0.481143
vt 0.451222 0.473977
vt 0.436577 0.473977
vt 0.481143 0.466183
vt 0.481143 0.451537
vt 0.473977 0.451537
vt 0.473977 0.466183
vt 0.451537 0.481143
vt 0.466183 0.481143
vt 0.466183 0.473977
vt 0.451537 0.473977
vt 0.473663 0.481143
vt 0.473663 0.466497
vt 0.466497 0.466497
vt 0.466497 0.481143
vt 0.421617 0.488623
vt 0.436262 0.488623
vt 0.436262 0.481457
vt 0.421617 0.481457
vt 0.481143 0.481143
vt 0.481143 0.466497
vt 0.473977 0.466497
vt 0.473977 0.481143
vt 0.436577 0.488623
vt 0.451222 0.488623
vt 0.451222 0.481457
vt 0.436577 0.481457
vt 0.488623 0.436262
vt 0.488623 0.421617
vt 0.481457 0.421617
vt 0.481457 0.436262
vt 0.451537 0.488623
vt 0.466183 0.488623
vt 0.466183 0.481457
vt 0.451537 0.481457
vt 0.488623 0.451222
vt 0.488623 0.436577
vt 0.481457 0.436577
vt 0.481457 0.451222
vt 0.466497 0.488623
vt 0.481143 0.488623
vt 0.481143 0.481457
vt 0.466497 0.481457
vt 0.285274 0.466183
vt 0.285274 0.451537
vt 0.278109 0.451537
vt 0.278109 0.466183
vt 0.352595 0.563738
vt 0.345429 0.563738
vt 0.345429 0.570903
vt 0.352595 0.570903
vt 0.345115 0.563738
vt 0.337949 0.563738
vt 0.337949 0.570903
vt 0.345115 0.570903
vt 0.367555 0.541298
vt 0.360389 0.541298
vt 0.360389 0.548463
vt 0.367555 0.548463
vt 0.337635 0.563738
vt 0.330469 0.563738
vt 0.330469 0.570903
vt 0.337635 0.570903
vt 0.367555 0.533818
vt 0.360389 0.533818
vt 0.360389 0.540983
vt 0.367555 0.540983
vt 0.436577 0.496103
vt 0.451222 0.496103
vt 0.451222 0.488937
vt 0.436577 0.488937
vt 0.496103 0.481143
vt 0.496103 0.466497
vt 0.488937 0.466497
vt 0.488937 0.481143
vt 0.451537 0.496103
vt 0.466183 0.496103
vt 0.466183 0.488937
vt 0.451537 0.488937
vt 0.488623 0.496103
vt 0.488623 0.481457
vt 0.481457 0.481457
vt 0.481457 0.496103
vt 0.466497 0.496103
vt 0.481143 0.496103
vt 0.481143 0.488937
vt 0.466497 0.488937
vt 0.496103 0.496103
vt 0.496103 0.481457
vt 0.488937 0.481457
vt 0.488937 0.496103
vt 0.277794 0.570903
vt 0.277794 0.563895
vt 0.263306 0.570903
vt 0.368026 0.458702
vt 0.375035 0.458702
vt 0.375035 0.451694
vt 0.240865 0.578383
vt 0.247874 0.578383
vt 0.247874 0.571375
vt 0.367869 0.451537
vt 0.374878 0.451537
vt 0.367869 0.458545
vt 0.263148 0.570746
vt 0.263148 0.563738
vt 0.277637 0.563738
vt 0.240708 0.571218
vt 0.247717 0.571218
vt 0.240708 0.578226
vt 0.367555 0.526337
vt 0.360389 0.526337
vt 0.360389 0.533503
vt 0.367555 0.533503
vt 0.330154 0.563738
vt 0.322989 0.563738
vt 0.322989 0.570903
vt 0.330154 0.570903
vt 0.367555 0.518857
vt 0.360389 0.518857
vt 0.360389 0.526023
vt 0.367555 0.526023
vt 0.322674 0.563738
vt 0.315509 0.563738
vt 0.315509 0.570903
vt 0.322674 0.570903
vt 0.315194 0.563738
vt 0.308029 0.563738
vt 0.308029 0.570903
vt 0.315194 0.570903
vt 0.367555 0.511377
vt 0.360389 0.511377
vt 0.360389 0.518543
vt 0.367555 0.518543
vt 0.466497 0.503583
vt 0.481143 0.503583
vt 0.481143 0.496417
vt 0.466497 0.496417
vt 0.503583 0.481143
vt 0.503583 0.466497
vt 0.496417 0.466497
vt 0.496417 0.481143
vt 0.481457 0.503583
vt 0.496103 0.503583
vt 0.496103 0.496417
vt 0.481457 0.496417
vt 0.503583 0.496103
vt 0.503583 0.481457
vt 0.496417 0.481457
vt 0.496417 0.496103
vt 0.421617 0.511063
vt 0.436262 0.511063
vt 0.436262 0.503897
vt 0.421617 0.503897
vt 0.511063 0.436262
vt 0.511063 0.421617
vt 0.503897 0.421617
vt 0.503897 0.436262
vt 0.436577 0.511063
vt 0.451222 0.511063
vt 0.451222 0.503897
vt 0.436577 0.503897
vt 0.511063 0.451222
vt 0.511063 0.436577
vt 0.503897 0.436577
vt 0.503897 0.451222
vt 0.451537 0.511063
vt 0.466183 0.511063
vt 0.466183 0.503897
vt 0.451537 0.503897
vt 0.511063 0.466183
vt 0.511063 0.451537
vt 0.503897 0.451537
vt 0.503897 0.466183
vt 0.466497 0.511063
vt 0.481143 0.511063
vt 0.481143 0.503897
vt 0.466497 0.503897
vt 0.511063 0.481143
vt 0.511063 0.466497
vt 0.503897 0.466497
vt 0.503897 0.481143
vt 0.278109 0.511063
vt 0.292754 0.511063
vt 0.292754 0.503897
vt 0.278109 0.503897
vt 0.307714 0.496103
vt 0.307714 0.481457
vt 0.300549 0.481457
vt 0.300549 0.496103
vt 0.293069 0.503583
vt 0.307714 0.503583
vt 0.307714 0.496417
vt 0.293069 0.496417
vt 0.315194 0.436262
vt 0.315194 0.421617
vt 0.308029 0.421617
vt 0.308029 0.436262
vt 0.293069 0.511063
vt 0.307714 0.511063
vt 0.307714 0.503897
vt 0.293069 0.503897
vt 0.225591 0.436262
vt 0.218268 0.432601
vt 0.218268 0.425278
vt 0.225591 0.421617
vt 0.232914 0.425278
vt 0.232914 0.432601
vt 0.315194 0.451222
vt 0.315194 0.436577
vt 0.308029 0.436577
vt 0.308029 0.451222
vt 0.247874 0.518543
vt 0.247874 0.511377
vt 0.233228 0.511377
vt 0.233228 0.518543
vt 0.315194 0.451537
vt 0.308029 0.451537
vt 0.308029 0.466183
vt 0.315194 0.466183
vt 0.262834 0.518543
vt 0.262834 0.511377
vt 0.248188 0.511377
vt 0.248188 0.518543
vt 0.315194 0.466497
vt 0.308029 0.466497
vt 0.308029 0.481143
vt 0.315194 0.481143
vt 0.277794 0.518543
vt 0.277794 0.511377
vt 0.263148 0.511377
vt 0.263148 0.518543
vt 0.367555 0.503897
vt 0.360389 0.503897
vt 0.360389 0.511063
vt 0.367555 0.511063
vt 0.315194 0.496103
vt 0.315194 0.481457
vt 0.308029 0.481457
vt 0.308029 0.496103
vt 0.293069 0.518543
vt 0.307714 0.518543
vt 0.307714 0.511377
vt 0.293069 0.511377
vt 0.315194 0.511063
vt 0.315194 0.496417
vt 0.308029 0.496417
vt 0.308029 0.511063
vt 0.218268 0.526023
vt 0.232914 0.526023
vt 0.232914 0.518857
vt 0.218268 0.518857
vt 0.322674 0.421617
vt 0.315509 0.421617
vt 0.315509 0.436262
vt 0.322674 0.436262
vt 0.436577 0.526023
vt 0.451222 0.526023
vt 0.451222 0.518857
vt 0.436577 0.518857
vt 0.526023 0.451222
vt 0.526023 0.436577
vt 0.518857 0.436577
vt 0.518857 0.451222
vt 0.451537 0.526023
vt 0.466183 0.526023
vt 0.466183 0.518857
vt 0.451537 0.518857
vt 0.526023 0.466183
vt 0.526023 0.451537
vt 0.518857 0.451537
vt 0.518857 0.466183
vt 0.466497 0.526023
vt 0.481143 0.526023
vt 0.481143 0.518857
vt 0.466497 0.518857
vt 0.526023 0.481143
vt 0.526023 0.466497
vt 0.518857 0.466497
vt 0.518857 0.481143
vt 0.481457 0.526023
vt 0.496103 0.526023
vt 0.496103 0.518857
vt 0.481457 0.518857
vt 0.526023 0.496103
vt 0.526023 0.481457
vt 0.518857 0.481457
vt 0.518857 0.496103
vt 0.496417 0.526023
vt 0.511063 0.526023
vt 0.511063 0.518857
vt 0.496417 0.518857
vt 0.526023 0.511063
vt 0.526023 0.496417
vt 0.518857 0.496417
vt 0.518857 0.511063
vt 0.511377 0.518543
vt 0.526023 0.518543
vt 0.526023 0.511377
vt 0.511377 0.511377
vt 0.533503 0.436262
vt 0.533503 0.421617
vt 0.526337 0.421617
vt 0.526337 0.436262
vt 0.308029 0.526023
vt 0.322674 0.526023
vt 0.322674 0.518857
vt 0.308029 0.518857
vt 0.307714 0.563738
vt 0.300549 0.563738
vt 0.300549 0.570903
vt 0.307714 0.570903
vt 0.367555 0.496417
vt 0.360389 0.496417
vt 0.360389 0.503583
vt 0.367555 0.503583
vt 0.300234 0.563738
vt 0.293069 0.563738
vt 0.293069 0.570903
vt 0.300234 0.570903
vt 0.367555 0.488937
vt 0.360389 0.488937
vt 0.360389 0.496103
vt 0.367555 0.496103
vt 0.292754 0.563738
vt 0.285589 0.563738
vt 0.285589 0.570903
vt 0.292754 0.570903
vt 0.533503 0.496103
vt 0.533503 0.481457
vt 0.526337 0.481457
vt 0.526337 0.496103
vt 0.451537 0.533503
vt 0.466183 0.533503
vt 0.466183 0.526337
vt 0.451537 0.526337
vt 0.533503 0.511063
vt 0.533503 0.496417
vt 0.526337 0.496417
vt 0.526337 0.511063
vt 0.466497 0.533503
vt 0.481143 0.533503
vt 0.481143 0.526337
vt 0.466497 0.526337
vt 0.488623 0.563738
vt 0.481457 0.563738
vt 0.481457 0.570903
vt 0.488623 0.570903
vt 0.533503 0.526023
vt 0.533503 0.511377
vt 0.526337 0.511377
vt 0.526337 0.526023
vt 0.375035 0.451222
vt 0.368026 0.451222
vt 0.375035 0.444214
vt 0.375035 0.443742
vt 0.368026 0.443742
vt 0.375035 0.436734
vt 0.233385 0.578383
vt 0.240394 0.578383
vt 0.240394 0.571375
vt 0.368026 0.436262
vt 0.375035 0.436262
vt 0.375035 0.429254
vt 0.232914 0.578383
vt 0.225905 0.578383
vt 0.232914 0.571375
vt 0.285274 0.481143
vt 0.278266 0.481143
vt 0.285274 0.466654
vt 0.293069 0.533503
vt 0.307714 0.533503
vt 0.307714 0.526337
vt 0.293069 0.526337
vt 0.337635 0.436262
vt 0.337635 0.421617
vt 0.330469 0.421617
vt 0.330469 0.436262
vt 0.308029 0.533503
vt 0.322674 0.533503
vt 0.322674 0.526337
vt 0.308029 0.526337
vt 0.337635 0.451222
vt 0.337635 0.436577
vt 0.330469 0.436577
vt 0.330469 0.451222
vt 0.218268 0.540983
vt 0.232914 0.540983
vt 0.232914 0.533818
vt 0.218268 0.533818
vt 0.337635 0.466183
vt 0.337635 0.451537
vt 0.330469 0.451537
vt 0.330469 0.466183
vt 0.421617 0.518543
vt 0.436262 0.518543
vt 0.436262 0.511377
vt 0.421617 0.511377
vt 0.540983 0.496103
vt 0.540983 0.481457
vt 0.533818 0.481457
vt 0.533818 0.496103
vt 0.436577 0.540983
vt 0.451222 0.540983
vt 0.451222 0.533818
vt 0.436577 0.533818
vt 0.540983 0.511063
vt 0.540983 0.496417
vt 0.533818 0.496417
vt 0.533818 0.511063
vt 0.451537 0.540983
vt 0.466183 0.540983
vt 0.466183 0.533818
vt 0.451537 0.533818
vt 0.540983 0.526023
vt 0.540983 0.511377
vt 0.533818 0.511377
vt 0.533818 0.526023
vt 0.466497 0.540983
vt 0.481143 0.540983
vt 0.481143 0.533818
vt 0.466497 0.533818
vt 0.533503 0.540983
vt 0.533503 0.526337
vt 0.526337 0.526337
vt 0.526337 0.540983
vt 0.481457 0.540983
vt 0.496103 0.540983
vt 0.496103 0.533818
vt 0.481457 0.533818
vt 0.540983 0.540983
vt 0.540983 0.526337
vt 0.533818 0.526337
vt 0.533818 0.540983
vt 0.496417 0.540983
vt 0.511063 0.540983
vt 0.511063 0.533818
vt 0.496417 0.533818
vt 0.548463 0.436262
vt 0.548463 0.421617
vt 0.541298 0.421617
vt 0.541298 0.436262
vt 0.308029 0.540983
vt 0.322674 0.540983
vt 0.322674 0.533818
vt 0.308029 0.533818
vt 0.345115 0.451222
vt 0.345115 0.436577
vt 0.337949 0.436577
vt 0.337949 0.451222
vt 0.218268 0.548463
vt 0.232914 0.548463
vt 0.232914 0.541298
vt 0.218268 0.541298
vt 0.345115 0.466183
vt 0.345115 0.451537
vt 0.337949 0.451537
vt 0.337949 0.466183
vt 0.233228 0.548463
vt 0.247874 0.548463
vt 0.247874 0.541298
vt 0.233228 0.541298
vt 0.345115 0.481143
vt 0.345115 0.466497
vt 0.337949 0.466497
vt 0.337949 0.481143
vt 0.248188 0.548463
vt 0.262834 0.548463
vt 0.262834 0.541298
vt 0.248188 0.541298
vt 0.345115 0.496103
vt 0.345115 0.481457
vt 0.337949 0.481457
vt 0.337949 0.496103
vt 0.263148 0.548463
vt 0.277794 0.548463
vt 0.277794 0.541298
vt 0.263148 0.541298
vt 0.345115 0.511063
vt 0.345115 0.496417
vt 0.337949 0.496417
vt 0.337949 0.511063
vt 0.278109 0.548463
vt 0.292754 0.548463
vt 0.292754 0.541298
vt 0.278109 0.541298
vt 0.345115 0.526023
vt 0.345115 0.511377
vt 0.337949 0.511377
vt 0.337949 0.526023
vt 0.307714 0.548463
vt 0.307714 0.541298
vt 0.293069 0.541298
vt 0.293069 0.548463
vt 0.345115 0.526337
vt 0.337949 0.526337
vt 0.337949 0.540983
vt 0.345115 0.540983
vt 0.322674 0.548463
vt 0.322674 0.541298
vt 0.308029 0.541298
vt 0.308029 0.548463
vt 0.352595 0.421617
vt 0.345429 0.421617
vt 0.345429 0.436262
vt 0.352595 0.436262
vt 0.337635 0.548463
vt 0.337635 0.541298
vt 0.322989 0.541298
vt 0.322989 0.548463
vt 0.367555 0.473977
vt 0.360389 0.473977
vt 0.360389 0.481143
vt 0.367555 0.481143
vt 0.352595 0.451222
vt 0.352595 0.436577
vt 0.345429 0.436577
vt 0.345429 0.451222
vt 0.233228 0.555943
vt 0.247874 0.555943
vt 0.247874 0.548778
vt 0.233228 0.548778
vt 0.352595 0.466183
vt 0.352595 0.451537
vt 0.345429 0.451537
vt 0.345429 0.466183
vt 0.248188 0.555943
vt 0.262834 0.555943
vt 0.262834 0.548778
vt 0.248188 0.548778
vt 0.352595 0.466497
vt 0.345429 0.466497
vt 0.345429 0.481143
vt 0.352595 0.481143
vt 0.466497 0.555943
vt 0.481143 0.555943
vt 0.481143 0.548778
vt 0.466497 0.548778
vt 0.555943 0.496103
vt 0.555943 0.481457
vt 0.548778 0.481457
vt 0.548778 0.496103
vt 0.481457 0.555943
vt 0.496103 0.555943
vt 0.496103 0.548778
vt 0.481457 0.548778
vt 0.555943 0.511063
vt 0.555943 0.496417
vt 0.548778 0.496417
vt 0.548778 0.511063
vt 0.496417 0.555943
vt 0.511063 0.555943
vt 0.511063 0.548778
vt 0.496417 0.548778
vt 0.555943 0.526023
vt 0.555943 0.511377
vt 0.548778 0.511377
vt 0.548778 0.526023
vt 0.511377 0.555943
vt 0.526023 0.555943
vt 0.526023 0.548778
vt 0.511377 0.548778
vt 0.555943 0.540983
vt 0.555943 0.526337
vt 0.548778 0.526337
vt 0.548778 0.540983
vt 0.526337 0.555943
vt 0.540983 0.555943
vt 0.540983 0.548778
vt 0.526337 0.548778
vt 0.548463 0.555943
vt 0.548463 0.541298
vt 0.541298 0.541298
vt 0.541298 0.555943
vt 0.421617 0.563423
vt 0.436262 0.563423
vt 0.436262 0.556258
vt 0.421617 0.556258
vt 0.555943 0.555943
vt 0.555943 0.541298
vt 0.548778 0.541298
vt 0.548778 0.555943
vt 0.233228 0.563423
vt 0.247874 0.563423
vt 0.247874 0.556258
vt 0.233228 0.556258
vt 0.367555 0.466497
vt 0.360389 0.466497
vt 0.360389 0.473663
vt 0.367555 0.473663
vt 0.367555 0.459017
vt 0.360389 0.459017
vt 0.360389 0.466183
vt 0.367555 0.466183
vt 0.367555 0.451537
vt 0.360389 0.451537
vt 0.360389 0.458702
vt 0.367555 0.458702
vt 0.360075 0.556258
vt 0.352909 0.556258
vt 0.352909 0.563423
vt 0.360075 0.563423
vt 0.255354 0.571218
vt 0.248188 0.571218
vt 0.248188 0.578383
vt 0.255354 0.578383
vt 0.563423 0.481143
vt 0.563423 0.466497
vt 0.556258 0.466497
vt 0.556258 0.481143
vt 0.481457 0.563423
vt 0.496103 0.563423
vt 0.496103 0.556258
vt 0.481457 0.556258
vt 0.563423 0.496103
vt 0.563423 0.481457
vt 0.556258 0.481457
vt 0.556258 0.496103
vt 0.496417 0.563423
vt 0.511063 0.563423
vt 0.511063 0.556258
vt 0.496417 0.556258
vt 0.563423 0.511063
vt 0.563423 0.496417
vt 0.556258 0.496417
vt 0.556258 0.511063
vt 0.511377 0.563423
vt 0.526023 0.563423
vt 0.526023 0.556258
vt 0.511377 0.556258
vt 0.367869 0.444057
vt 0.374878 0.444057
vt 0.367869 0.451065
vt 0.367869 0.436577
vt 0.374878 0.436577
vt 0.367869 0.443585
vt 0.240236 0.571218
vt 0.233228 0.571218
vt 0.233228 0.578226
vt 0.374878 0.429097
vt 0.367869 0.429097
vt 0.367869 0.436105
vt 0.225748 0.571218
vt 0.232756 0.571218
vt 0.225748 0.578226
vt 0.278109 0.466497
vt 0.285117 0.466497
vt 0.278109 0.480985
vt 0.360075 0.526023
vt 0.360075 0.511377
vt 0.352909 0.511377
vt 0.352909 0.526023
vt 0.322989 0.563423
vt 0.337635 0.563423
vt 0.337635 0.556258
vt 0.322989 0.556258
vt 0.360075 0.540983
vt 0.360075 0.526337
vt 0.352909 0.526337
vt 0.352909 0.540983
vt 0.337949 0.563423
vt 0.352595 0.563423
vt 0.352595 0.556258
vt 0.337949 0.556258
vt 0.360075 0.555943
vt 0.360075 0.541298
vt 0.352909 0.541298
vt 0.352909 0.555943
vt 0.218268 0.570903
vt 0.232914 0.570903
vt 0.232914 0.563738
vt 0.218268 0.563738
vt 0.570903 0.436262
vt 0.570903 0.421617
vt 0.563738 0.421617
vt 0.563738 0.436262
vt 0.436577 0.570903
vt 0.451222 0.570903
vt 0.451222 0.563738
vt 0.436577 0.563738
vt 0.570903 0.451222
vt 0.570903 0.436577
vt 0.563738 0.436577
vt 0.563738 0.451222
vt 0.451537 0.570903
vt 0.466183 0.570903
vt 0.466183 0.563738
vt 0.451537 0.563738
vt 0.563423 0.466183
vt 0.563423 0.451537
vt 0.556258 0.451537
vt 0.556258 0.466183
vt 0.466497 0.563423
vt 0.481143 0.563423
vt 0.481143 0.556258
vt 0.466497 0.556258
vt 0.563423 0.451222
vt 0.563423 0.436577
vt 0.556258 0.436577
vt 0.556258 0.451222
vt 0.451537 0.563423
vt 0.466183 0.563423
vt 0.466183 0.556258
vt 0.451537 0.556258
vt 0.563423 0.436262
vt 0.563423 0.421617
vt 0.556258 0.421617
vt 0.556258 0.436262
vt 0.421617 0.555943
vt 0.436262 0.555943
vt 0.436262 0.548778
vt 0.421617 0.548778
vt 0.540983 0.481143
vt 0.540983 0.466497
vt 0.533818 0.466497
vt 0.533818 0.481143
vt 0.481457 0.533503
vt 0.496103 0.533503
vt 0.496103 0.526337
vt 0.481457 0.526337
vt 0.322989 0.470148
vt 0.326552 0.466497
vt 0.330154 0.470168
vt 0.330154 0.477490
vt 0.326552 0.481143
vt 0.322989 0.477472
vt 0.233228 0.533503
vt 0.247874 0.533503
vt 0.247874 0.526337
vt 0.233228 0.526337
vt 0.330154 0.466183
vt 0.330154 0.451537
vt 0.322989 0.451537
vt 0.322989 0.466183
vt 0.218268 0.533503
vt 0.232914 0.533503
vt 0.232914 0.526337
vt 0.218268 0.526337
vt 0.330154 0.451222
vt 0.330154 0.436577
vt 0.322989 0.436577
vt 0.322989 0.451222
vt 0.278109 0.518543
vt 0.292754 0.518543
vt 0.292754 0.511377
vt 0.278109 0.511377
vt 0.300234 0.466183
vt 0.300234 0.451537
vt 0.293069 0.451537
vt 0.293069 0.466183
vt 0.248188 0.503583
vt 0.262834 0.503583
vt 0.262834 0.496417
vt 0.248188 0.496417
vt 0.300234 0.451222
vt 0.300234 0.436577
vt 0.293069 0.436577
vt 0.293069 0.451222
vt 0.233228 0.503583
vt 0.247874 0.503583
vt 0.247874 0.496417
vt 0.233228 0.496417
vt 0.300234 0.436262
vt 0.300234 0.421617
vt 0.293069 0.421617
vt 0.293069 0.436262
vt 0.218268 0.503583
vt 0.232914 0.503583
vt 0.232914 0.496417
vt 0.218268 0.496417
vt 0.292754 0.466183
vt 0.292754 0.451537
vt 0.285589 0.451537
vt 0.285589 0.466183
vt 0.218268 0.496103
vt 0.232914 0.496103
vt 0.232914 0.488937
vt 0.218268 0.488937
vt 0.292754 0.451222
vt 0.292754 0.436577
vt 0.285589 0.436577
vt 0.285589 0.451222
vt 0.247874 0.421617
vt 0.233228 0.421617
vt 0.233228 0.436262
vt 0.247874 0.436262
vt 0.232914 0.436577
vt 0.218268 0.436577
vt 0.218268 0.451222
vt 0.232914 0.451222
vt 0.247874 0.451537
vt 0.233228 0.451537
vt 0.233228 0.466183
vt 0.247874 0.466183
vt 0.262834 0.436577
vt 0.248188 0.436577
vt 0.248188 0.451222
vt 0.262834 0.451222
vt 0.232914 0.451537
vt 0.218268 0.451537
vt 0.218268 0.466183
vt 0.232914 0.466183
vt 0.247874 0.436577
vt 0.233228 0.436577
vt 0.233228 0.451222
vt 0.247874 0.451222
vt 0.248188 0.473663
vt 0.262834 0.473663
vt 0.262834 0.466497
vt 0.248188 0.466497
vn 0.9707 0.1391 0.1960
vn -0.9809 0.0653 -0.1833
vn -0.4003 0.1739 -0.8997
vn 0.6192 0.1561 -0.7695
vn 0.3920 0.0273 0.9195
vn 0.0000 -1.0000 0.0000
vn -0.6247 -0.0837 0.7764
vn 0.0488 -0.9970 -0.0609
vn 0.0613 -0.9857 -0.1571
vn -0.0078 -0.9890 -0.1480
vn 0.1335 -0.9671 -0.2165
vn 0.1563 -0.9802 -0.1214
vn 0.3315 -0.7613 0.5573
vn 0.3500 -0.8297 -0.4349
vn -0.3488 -0.9217 -0.1699
vn -0.1956 -0.9501 0.2430
vn 0.2404 -0.9219 0.3039
vn 0.2204 -0.9733 -0.0637
vn 0.4932 -0.5683 -0.6586
vn -0.2539 -0.6199 -0.7425
vn -0.5156 -0.8251 -0.2309
vn -0.2156 -0.9443 0.2486
vn 0.3539 -0.8759 0.3279
vn 0.6206 -0.7823 0.0538
vn 0.0311 0.9220 0.3859
vn 0.2174 0.9693 0.1146
vn -0.2598 0.9560 -0.1365
vn -0.2207 0.9382 0.2665
vn 0.1477 0.9848 -0.0912
vn -0.2136 0.9745 0.0680
vn -0.0801 -0.8559 -0.5108
vn -0.3806 -0.7946 0.4730
vn -0.6153 -0.7613 -0.2046
vn -0.2037 -0.6624 -0.7209
vn 0.7478 -0.6624 0.0448
vn 0.4993 -0.6047 -0.6205
vn -0.2788 0.7999 0.5314
vn 0.3876 0.9029 0.1860
vn -0.1973 0.9115 -0.3609
vn -0.5047 0.8630 0.0236
vn 0.0828 0.8250 0.5590
vn 0.2169 0.9383 -0.2695
vn -0.3747 0.7085 0.5980
vn 0.6224 0.7540 0.2102
vn -0.2494 0.7849 -0.5673
vn -0.6616 0.7496 -0.0174
vn 0.1840 0.7016 0.6884
vn 0.3743 0.8022 -0.4651
vn -0.6028 0.2749 0.7491
vn 0.3361 0.3588 0.8708
vn 0.6256 0.0654 -0.7774
vn -0.3600 -0.0257 -0.9326
vn -0.9844 0.0836 -0.1550
vn 0.9540 0.2581 0.1529
vn -0.6618 0.7492 -0.0259
vn 0.2930 0.9089 -0.2969
vn -0.4719 0.4969 0.7283
vn -0.2746 0.9258 -0.2597
vn 0.4831 0.8633 0.1462
vn 0.1566 0.6122 0.7751
vn 0.1182 0.9705 -0.2104
vn -0.0305 0.8562 0.5157
vn -0.5985 0.7977 -0.0745
vn -0.3254 0.8445 -0.4253
vn 0.1609 0.9754 0.1509
vn -0.2407 0.7967 0.5544
vn 0.9275 -0.0473 -0.3707
vn -0.9113 0.1119 0.3962
vn -0.7711 0.4239 -0.4751
vn 0.1445 0.3289 -0.9332
vn 0.7899 -0.3540 0.5007
vn -0.1462 -0.3351 0.9308
vn -0.2287 -0.7000 -0.6765
vn -0.5415 -0.5994 -0.5895
vn -0.5735 -0.7658 -0.2910
vn -0.3076 -0.8999 -0.3091
vn -0.0372 -0.9367 -0.3482
vn 0.4760 -0.8662 0.1520
vn -0.1149 -0.4887 -0.8648
vn -0.7310 -0.6686 -0.1361
vn -0.3198 -0.9299 0.1816
vn 0.2213 -0.9733 -0.0607
vn 0.0480 -0.8589 -0.5099
vn 0.0786 0.1675 -0.9827
vn -0.8089 0.1608 -0.5655
vn -0.9302 -0.3530 0.1007
vn -0.3078 -0.8615 0.4039
vn 0.7508 -0.3316 0.5713
vn 0.9320 -0.0720 -0.3553
vn 0.4355 0.7025 0.5629
vn 0.5116 0.8162 0.2683
vn -0.0139 0.9432 0.3319
vn 0.2232 0.7996 0.5575
vn 0.3664 0.9228 0.1190
vn 0.1704 0.8677 0.4669
vn -0.6244 -0.4482 -0.6398
vn -0.2940 -0.7943 0.5316
vn -0.9015 -0.4292 0.0558
vn -0.7524 -0.1431 -0.6430
vn 0.6011 -0.5659 -0.5644
vn -0.0094 -0.1914 -0.9815
vn 0.2522 0.5250 0.8128
vn 0.7237 0.6604 0.2004
vn -0.0774 0.9906 0.1129
vn -0.1613 0.8090 0.5653
vn 0.5949 0.4917 0.6358
vn 0.3177 0.9474 -0.0378
vn 0.1487 0.3577 0.9219
vn 0.7543 0.6426 0.1345
vn -0.1127 0.9923 0.0507
vn -0.3254 0.7433 0.5846
vn 0.6868 0.3297 0.6478
vn 0.3195 0.9420 -0.1025
vn -0.0604 -0.0532 0.9968
vn 0.8255 -0.0973 0.5559
vn 0.0710 0.1521 -0.9858
vn -0.8163 0.1988 -0.5423
vn -0.8888 0.0912 0.4491
vn 0.8994 -0.0033 -0.4371
vn -0.3477 0.7375 0.5789
vn 0.3593 0.9267 -0.1102
vn 0.1003 0.1823 0.9781
vn -0.0888 0.9671 0.2383
vn 0.7169 0.6880 0.1125
vn 0.6769 0.2226 0.7016
vn 0.2777 0.9606 -0.0079
vn 0.4418 0.6355 0.6332
vn -0.3048 0.7972 0.5212
vn -0.2773 0.9594 0.0517
vn 0.4779 0.8118 0.3356
vn 0.2813 0.5955 0.7525
vn 0.8912 0.0426 -0.4517
vn -0.8903 0.0342 0.4541
vn -0.8355 0.0481 -0.5473
vn 0.0550 0.0546 -0.9970
vn 0.8349 0.0292 0.5496
vn -0.0548 0.0263 0.9982
vn -0.8771 0.0865 -0.4725
vn 0.8884 -0.0200 0.4586
vn 0.1433 0.2372 0.9608
vn -0.8012 0.2780 0.5299
vn -0.1255 -0.1778 -0.9760
vn 0.8015 -0.2765 -0.5302
vn -0.4229 -0.8416 0.3360
vn -0.3054 -0.7871 0.5358
vn -0.2007 -0.9048 0.3757
vn -0.4226 -0.8409 0.3380
vn -0.4214 -0.8732 0.2447
vn -0.3149 -0.7150 -0.6242
vn -0.6880 -0.5518 0.4713
vn 0.1087 -0.8823 0.4580
vn 0.0909 -0.9950 -0.0403
vn -0.3586 -0.8828 -0.3033
vn -0.4637 -0.8696 0.1694
vn -0.6699 -0.5305 0.5193
vn -0.2528 -0.7062 0.6614
vn 0.0489 -0.8670 0.4959
vn 0.0333 -0.9994 0.0128
vn -0.4581 -0.8515 -0.2552
vn -0.7569 -0.6453 -0.1029
vn 0.3325 0.7592 -0.5595
vn -0.0165 0.9324 -0.3610
vn 0.4357 0.9001 -0.0053
vn 0.4596 0.8329 -0.3082
vn 0.0708 0.9874 -0.1413
vn 0.4299 0.8796 -0.2037
vn -0.2592 -0.6644 0.7010
vn 0.4104 -0.8751 -0.2564
vn 0.4752 -0.6867 0.5501
vn -0.0984 -0.3329 0.9378
vn -0.8964 -0.3633 -0.2541
vn -0.8209 -0.1468 0.5519
vn 0.6002 0.6596 -0.4524
vn -0.0772 0.8886 -0.4521
vn 0.3137 0.9026 0.2949
vn 0.7397 0.6721 0.0339
vn 0.2565 0.7694 -0.5850
vn -0.0438 0.9990 0.0097
vn 0.7177 0.3859 -0.5797
vn -0.2077 0.8392 -0.5026
vn 0.2831 0.9129 0.2940
vn 0.7874 0.6116 0.0771
vn 0.1858 0.5204 -0.8335
vn -0.0955 0.9945 0.0434
vn 0.8244 -0.1398 -0.5484
vn -0.0587 -0.0410 -0.9974
vn -0.8147 0.2080 0.5413
vn 0.0609 0.1206 0.9908
vn 0.8945 -0.0554 0.4437
vn -0.8863 0.1333 -0.4435
vn 0.7946 0.5994 0.0962
vn -0.1272 0.9918 0.0139
vn 0.7589 0.2039 -0.6185
vn 0.4151 0.8961 0.1573
vn -0.1959 0.8713 -0.4501
vn 0.2153 0.4153 -0.8838
vn 0.0102 0.9997 0.0223
vn 0.2863 0.7003 -0.6539
vn 0.6636 0.7470 -0.0406
vn 0.3456 0.9149 0.2085
vn 0.1105 0.9197 -0.3768
vn 0.6283 0.6183 -0.4721
vn 0.2835 -0.8526 0.4390
vn -0.2927 -0.8843 0.3637
vn -0.4898 -0.8524 -0.1830
vn -0.1407 -0.7679 -0.6249
vn 0.4295 -0.7284 -0.5338
vn 0.6402 -0.7682 0.0036
vn 0.5157 -0.8562 -0.0311
vn -0.3339 -0.8131 -0.4768
vn 0.2585 -0.9538 -0.1531
vn 0.2989 -0.8076 0.5083
vn -0.1894 -0.5135 0.8369
vn -0.7716 -0.3616 0.5234
vn -0.8483 -0.5084 -0.1481
vn -0.7631 -0.6451 -0.0397
vn 0.3498 -0.9352 0.0543
vn -0.3125 -0.8774 0.3639
vn -0.8264 -0.5621 -0.0341
vn -0.6949 -0.2996 -0.6537
vn -0.0635 -0.3462 -0.9360
vn 0.4680 -0.6585 -0.5894
vn 0.3230 -0.7393 -0.5909
usemtl low_poly_mushrooms_texture_atlas
s off
f 46/1/1 23/2/1 14/3/1 44/4/1
f 47/5/2 17/6/2 19/7/2 48/8/2
f 48/9/3 19/10/3 21/11/3 49/12/3
f 49/13/4 21/14/4 23/15/4 46/16/4
f 44/17/5 14/18/5 15/19/5 45/20/5
f 1/21/6 3/22/6 5/23/6 7/24/6 9/25/6 11/26/6
f 45/27/7 15/28/7 17/29/7 47/30/7
f 22/31/8 10/32/8 12/33/8 24/34/8
f 20/35/9 8/36/9 10/37/9 22/38/9
f 18/39/10 6/40/10 8/41/10 20/42/10
f 16/43/11 4/44/11 6/45/11 18/46/11
f 13/47/12 2/48/12 4/49/12 16/50/12
f 192/51/13 201/52/13 15/53/13 14/54/13
f 22/55/14 24/56/14 190/57/14 194/58/14
f 18/59/15 20/60/15 196/61/15 198/62/15
f 16/63/16 18/64/16 198/65/16 200/66/16
f 13/67/17 16/68/17 200/69/17 193/70/17
f 24/71/18 12/72/18 2/73/18 13/74/18
f 12/75/19 10/76/19 29/77/19 30/78/19
f 10/79/20 8/80/20 28/81/20 29/82/20
f 8/83/21 6/84/21 27/85/21 28/86/21
f 6/87/22 4/88/22 26/89/22 27/90/22
f 4/91/23 2/92/23 25/93/23 26/94/23
f 2/95/24 12/96/24 30/97/24 25/98/24
f 51/99/25 50/100/25 31/101/25 32/102/25
f 50/103/26 52/104/26 36/105/26 31/106/26
f 54/107/27 53/108/27 34/109/27 35/110/27
f 55/111/28 51/112/28 32/113/28 33/114/28
f 52/115/29 54/116/29 35/117/29 36/118/29
f 53/119/30 55/120/30 33/121/30 34/122/30
f 20/123/31 22/124/31 194/125/31 196/126/31
f 201/127/32 199/128/32 17/129/32 15/130/32
f 199/131/33 197/132/33 19/133/33 17/134/33
f 197/135/34 195/136/34 21/137/34 19/138/34
f 191/139/35 192/140/35 14/141/35 23/142/35
f 195/143/36 191/144/36 23/145/36 21/146/36
f 57/147/37 56/148/37 41/149/37 42/150/37
f 59/151/38 58/152/38 39/153/38 40/154/38
f 61/155/39 60/156/39 37/157/39 38/158/39
f 60/159/40 57/160/40 42/161/40 37/162/40
f 56/163/41 59/164/41 40/165/41 41/166/41
f 58/167/42 61/168/42 38/169/42 39/170/42
f 42/171/43 41/172/43 43/173/43
f 40/174/44 39/175/44 43/176/44
f 38/177/45 37/178/45 43/179/45
f 37/180/46 42/181/46 43/182/46
f 41/183/47 40/184/47 43/185/47
f 39/186/48 38/187/48 43/188/48
f 3/189/49 45/190/49 47/191/49 5/192/49
f 1/193/50 44/194/50 45/195/50 3/196/50
f 9/197/51 49/198/51 46/199/51 11/200/51
f 7/201/52 48/202/52 49/203/52 9/204/52
f 5/205/53 47/206/53 48/207/53 7/208/53
f 11/209/54 46/210/54 44/211/54 1/212/54
f 28/213/55 27/214/55 55/215/55 53/216/55
f 30/217/56 29/218/56 54/219/56 52/220/56
f 27/221/57 26/222/57 51/223/57 55/224/57
f 29/225/58 28/226/58 53/227/58 54/228/58
f 25/229/59 30/230/59 52/231/59 50/232/59
f 26/233/60 25/234/60 50/235/60 51/236/60
f 33/237/61 32/238/61 61/239/61 58/240/61
f 35/241/62 34/242/62 59/243/62 56/244/62
f 31/245/63 36/246/63 57/247/63 60/248/63
f 32/249/64 31/250/64 60/251/64 61/252/64
f 34/253/65 33/254/65 58/255/65 59/256/65
f 36/257/66 35/258/66 56/259/66 57/260/66
f 107/261/67 84/262/67 75/263/67 105/264/67
f 108/265/68 78/266/68 80/267/68 109/268/68
f 109/269/69 80/270/69 82/271/69 110/272/69
f 110/273/70 82/274/70 84/275/70 107/276/70
f 105/277/71 75/278/71 76/279/71 106/280/71
f 62/281/6 64/282/6 66/283/6 68/284/6 70/285/6 72/286/6
f 106/287/72 76/288/72 78/289/72 108/290/72
f 83/291/73 71/292/73 73/293/73 85/294/73
f 81/295/74 69/296/74 71/297/74 83/298/74
f 79/299/75 67/300/75 69/301/75 81/302/75
f 77/303/76 65/304/76 67/305/76 79/306/76
f 74/307/77 63/308/77 65/309/77 77/310/77
f 216/311/78 225/312/78 76/313/78 75/314/78
f 83/315/79 85/316/79 214/317/79 218/318/79
f 79/319/80 81/320/80 220/321/80 222/322/80
f 77/323/81 79/324/81 222/325/81 224/326/81
f 74/327/82 77/328/82 224/329/82 217/330/82
f 85/331/83 73/332/83 63/333/83 74/334/83
f 73/335/84 71/336/84 90/337/84 91/338/84
f 71/339/85 69/340/85 89/341/85 90/342/85
f 69/343/86 67/344/86 88/345/86 89/346/86
f 67/347/87 65/348/87 87/349/87 88/350/87
f 65/351/88 63/352/88 86/353/88 87/354/88
f 63/355/89 73/356/89 91/357/89 86/358/89
f 112/359/90 111/360/90 92/361/90 93/362/90
f 111/363/91 113/364/91 97/365/91 92/366/91
f 115/367/92 114/368/92 95/369/92 96/370/92
f 116/371/93 112/372/93 93/373/93 94/374/93
f 113/375/94 115/376/94 96/377/94 97/378/94
f 114/379/95 116/380/95 94/381/95 95/382/95
f 81/383/96 83/384/96 218/385/96 220/386/96
f 225/387/97 223/388/97 78/389/97 76/390/97
f 223/391/98 221/392/98 80/393/98 78/394/98
f 221/395/99 219/396/99 82/397/99 80/398/99
f 215/399/100 216/400/100 75/401/100 84/402/100
f 219/403/101 215/404/101 84/405/101 82/406/101
f 118/407/102 117/408/102 102/409/102 103/410/102
f 120/411/103 119/412/103 100/413/103 101/414/103
f 122/415/104 121/416/104 98/417/104 99/418/104
f 121/419/105 118/420/105 103/421/105 98/422/105
f 117/423/106 120/424/106 101/425/106 102/426/106
f 119/427/107 122/428/107 99/429/107 100/430/107
f 103/431/108 102/432/108 104/433/108
f 101/434/109 100/435/109 104/436/109
f 99/437/110 98/438/110 104/439/110
f 98/440/111 103/441/111 104/442/111
f 102/443/112 101/444/112 104/445/112
f 100/446/113 99/447/113 104/448/113
f 123/449/114 106/450/114 108/451/114 124/452/114
f 127/453/115 105/454/115 106/455/115 123/456/115
f 126/457/116 110/458/116 107/459/116 128/460/116
f 125/461/117 109/462/117 110/463/117 126/464/117
f 124/465/118 108/466/118 109/467/118 125/468/118
f 128/469/119 107/470/119 105/471/119 127/472/119
f 89/473/120 88/474/120 116/475/120 114/476/120
f 91/477/121 90/478/121 115/479/121 113/480/121
f 88/481/122 87/482/122 112/483/122 116/484/122
f 90/485/123 89/486/123 114/487/123 115/488/123
f 86/489/124 91/490/124 113/491/124 111/492/124
f 87/493/125 86/494/125 111/495/125 112/496/125
f 94/497/126 93/498/126 122/499/126 119/500/126
f 96/501/127 95/502/127 120/503/127 117/504/127
f 92/505/128 97/506/128 118/507/128 121/508/128
f 93/509/129 92/510/129 121/511/129 122/512/129
f 95/513/130 94/514/130 119/515/130 120/516/130
f 97/517/131 96/518/131 117/519/131 118/520/131
f 72/521/132 128/522/132 127/523/132 62/524/132
f 66/525/133 124/526/133 125/527/133 68/528/133
f 68/529/134 125/530/134 126/531/134 70/532/134
f 70/533/135 126/534/135 128/535/135 72/536/135
f 62/537/136 127/538/136 123/539/136 64/540/136
f 64/541/137 123/542/137 124/543/137 66/544/137
f 168/545/138 145/546/138 136/547/138 166/548/138
f 169/549/139 139/550/139 141/551/139 170/552/139
f 170/553/140 141/554/140 143/555/140 171/556/140
f 171/557/141 143/558/141 145/559/141 168/560/141
f 166/561/142 136/562/142 137/563/142 167/564/142
f 167/565/143 137/566/143 139/567/143 169/568/143
f 144/569/144 133/570/144 134/571/144 146/572/144
f 142/573/145 132/574/145 133/575/145 144/576/145
f 140/577/146 131/578/146 132/579/146 142/580/146
f 138/581/147 130/582/147 131/583/147 140/584/147
f 135/585/148 129/586/148 130/587/148 138/588/148
f 204/589/149 213/590/149 137/591/149 136/592/149
f 144/593/150 146/594/150 202/595/150 206/596/150
f 140/597/151 142/598/151 208/599/151 210/600/151
f 138/601/152 140/602/152 210/603/152 212/604/152
f 135/605/153 138/606/153 212/607/153 205/608/153
f 146/609/154 134/610/154 129/611/154 135/612/154
f 134/613/155 133/614/155 151/615/155 152/616/155
f 133/617/156 132/618/156 150/619/156 151/620/156
f 132/621/157 131/622/157 149/623/157 150/624/157
f 131/625/158 130/626/158 148/627/158 149/628/158
f 130/629/159 129/630/159 147/631/159 148/632/159
f 129/633/160 134/634/160 152/635/160 147/636/160
f 173/637/161 172/638/161 153/639/161 154/640/161
f 172/641/162 174/642/162 158/643/162 153/644/162
f 176/645/163 175/646/163 156/647/163 157/648/163
f 177/649/164 173/650/164 154/651/164 155/652/164
f 174/653/165 176/654/165 157/655/165 158/656/165
f 175/657/166 177/658/166 155/659/166 156/660/166
f 142/661/167 144/662/167 206/663/167 208/664/167
f 213/665/168 211/666/168 139/667/168 137/668/168
f 211/669/169 209/670/169 141/671/169 139/672/169
f 209/673/170 207/674/170 143/675/170 141/676/170
f 203/677/171 204/678/171 136/679/171 145/680/171
f 207/681/172 203/682/172 145/683/172 143/684/172
f 179/685/173 178/686/173 163/687/173 164/688/173
f 181/689/174 180/690/174 161/691/174 162/692/174
f 183/693/175 182/694/175 159/695/175 160/696/175
f 182/697/176 179/698/176 164/699/176 159/700/176
f 178/701/177 181/702/177 162/703/177 163/704/177
f 180/705/178 183/706/178 160/707/178 161/708/178
f 164/709/179 163/710/179 165/711/179
f 162/712/180 161/713/180 165/714/180
f 160/715/181 159/716/181 165/717/181
f 159/718/182 164/719/182 165/720/182
f 163/721/183 162/722/183 165/723/183
f 161/724/184 160/725/184 165/726/184
f 184/727/185 167/728/185 169/729/185 185/730/185
f 188/731/186 166/732/186 167/733/186 184/734/186
f 187/735/187 171/736/187 168/737/187 189/738/187
f 186/739/188 170/740/188 171/741/188 187/742/188
f 185/743/189 169/744/189 170/745/189 186/746/189
f 189/747/190 168/748/190 166/749/190 188/750/190
f 150/751/191 149/752/191 177/753/191 175/754/191
f 152/755/192 151/756/192 176/757/192 174/758/192
f 149/759/193 148/760/193 173/761/193 177/762/193
f 151/763/194 150/764/194 175/765/194 176/766/194
f 147/767/195 152/768/195 174/769/195 172/770/195
f 148/771/196 147/772/196 172/773/196 173/774/196
f 155/775/197 154/776/197 183/777/197 180/778/197
f 157/779/198 156/780/198 181/781/198 178/782/198
f 153/783/199 158/784/199 179/785/199 182/786/199
f 154/787/200 153/788/200 182/789/200 183/790/200
f 156/791/201 155/792/201 180/793/201 181/794/201
f 158/795/202 157/796/202 178/797/202 179/798/202
f 189/799/6 188/800/6 184/801/6 185/802/6 186/803/6 187/804/6
f 201/805/203 192/806/203 193/807/203 200/808/203
f 199/809/204 201/810/204 200/811/204 198/812/204
f 197/813/205 199/814/205 198/815/205 196/816/205
f 195/817/206 197/818/206 196/819/206 194/820/206
f 191/821/207 195/822/207 194/823/207 190/824/207
f 192/825/208 191/826/208 190/827/208 193/828/208
f 24/829/209 13/830/209 193/831/209 190/832/209
f 213/833/210 204/834/210 205/835/210 212/836/210
f 211/837/211 213/838/211 212/839/211 210/840/211
f 209/841/212 211/842/212 210/843/212 208/844/212
f 207/845/213 209/846/213 208/847/213 206/848/213
f 203/849/214 207/850/214 206/851/214 202/852/214
f 204/853/215 203/854/215 202/855/215 205/856/215
f 146/857/216 135/858/216 205/859/216 202/860/216
f 225/861/217 216/862/217 217/863/217 224/864/217
f 223/865/218 225/866/218 224/867/218 222/868/218
f 221/869/219 223/870/219 222/871/219 220/872/219
f 219/873/220 221/874/220 220/875/220 218/876/220
f 215/877/221 219/878/221 218/879/221 214/880/221
f 216/881/222 215/882/222 214/883/222 217/884/222
f 85/885/223 74/886/223 217/887/223 214/888/223
