# Blender v2.82 (sub 7) OBJ File: 'low_poly_mushrooms.blend'
# www.blender.org
mtllib umbrella_mushroom.mtl
o umbrella_mushroom_Cylinder.025
v -0.073339 0.000119 0.065937
v -0.096417 0.357567 0.087564
v -0.074796 0.000119 0.092533
v -0.096944 0.356808 0.100009
v -0.098556 0.000119 0.104569
v -0.107817 0.356808 0.105517
v -0.120860 0.000119 0.090010
v -0.118163 0.357567 0.098580
v -0.119403 0.000119 0.063414
v -0.117636 0.358326 0.086135
v -0.095643 0.000119 0.051378
v -0.106763 0.358326 0.080627
v -0.080840 0.073142 0.068013
v -0.081823 0.071966 0.087102
v -0.098777 0.069614 0.095691
v -0.114749 0.068438 0.085190
v -0.113767 0.069614 0.066100
v -0.096812 0.071966 0.057512
v -0.073789 0.186323 0.121111
v -0.048082 0.194318 0.108178
v -0.073788 0.176962 0.149185
v -0.048081 0.175596 0.164326
v -0.022375 0.183590 0.151395
v -0.104988 0.293789 0.054899
v -0.134597 0.292851 0.069843
v -0.136108 0.290763 0.103556
v -0.108011 0.289612 0.122325
v -0.078401 0.290550 0.107383
v -0.076888 0.292639 0.073669
v -0.022375 0.192951 0.123321
v -0.051234 0.123784 0.111401
v -0.051234 0.120852 0.121848
v -0.041804 0.125958 0.106336
v -0.041803 0.120094 0.127229
v -0.032373 0.122268 0.122164
v -0.032373 0.125200 0.111718
v -0.035537 0.176252 0.127683
v -0.035537 0.172851 0.137883
v -0.044876 0.169947 0.142581
v -0.054216 0.170443 0.137080
v -0.044877 0.176749 0.122182
v -0.054216 0.173844 0.126880
v -0.051779 0.074250 0.101517
v -0.051779 0.070982 0.113195
v -0.041278 0.069349 0.119033
v -0.030777 0.070982 0.113195
v -0.030777 0.074250 0.101517
v -0.041278 0.075883 0.095679
v -0.059696 0.000119 0.093749
v -0.059696 0.000119 0.116792
v -0.039740 0.000119 0.128313
v -0.019784 0.000119 0.116792
v -0.019784 0.000119 0.093749
v -0.039740 0.000119 0.082228
v -0.106076 0.299522 0.077398
v -0.105930 0.291005 0.076282
v -0.116571 0.299190 0.082692
v -0.116626 0.290666 0.081682
v -0.117102 0.298449 0.094652
v -0.117173 0.289911 0.093859
v -0.107137 0.298041 0.101317
v -0.107024 0.289495 0.100637
v -0.096642 0.298373 0.096022
v -0.096327 0.289834 0.095239
v -0.095779 0.290589 0.083061
v -0.096112 0.299113 0.084063
v -0.099952 0.144506 0.066373
v -0.102894 0.217270 0.071349
v -0.091841 0.217714 0.078686
v -0.088064 0.145204 0.074222
v -0.112544 0.143110 0.072752
v -0.114569 0.216381 0.077265
v -0.113248 0.142412 0.086980
v -0.115192 0.215937 0.090516
v -0.101360 0.143110 0.094830
v -0.104140 0.216381 0.097853
v -0.088768 0.144506 0.088451
v -0.092465 0.217270 0.091938
v 0.015808 0.326939 0.030716
v 0.009837 0.331353 0.171610
v -0.113261 0.318346 0.233967
v -0.230388 0.339945 0.155429
v -0.224417 0.335531 0.014535
v -0.101319 0.348537 -0.047822
v -0.010108 0.368475 0.048077
v -0.014739 0.361811 0.157355
v -0.110215 0.361811 0.205719
v -0.201059 0.368475 0.144805
v -0.196428 0.375139 0.035527
v -0.100952 0.375139 -0.012837
v -0.072506 0.383090 0.082037
v -0.074064 0.380847 0.118811
v -0.106194 0.380847 0.135087
v -0.136765 0.383090 0.114588
v -0.135207 0.385333 0.077813
v -0.103077 0.385333 0.061538
v -0.103372 0.400918 0.100807
v 0.015203 0.333781 0.032038
v -0.228964 0.346788 0.155723
v -0.112803 0.325260 0.233613
v -0.100959 0.355309 -0.045852
v -0.223042 0.342303 0.015990
v 0.009280 0.338266 0.171770
v -0.079727 0.255381 0.148203
v -0.059469 0.263501 0.136456
v -0.078061 0.247793 0.171501
v -0.056139 0.248326 0.183052
v -0.035882 0.256446 0.171305
v -0.037546 0.264033 0.148008
v -0.056995 0.268542 0.163809
v -0.059268 0.249663 0.116331
v -0.053930 0.225340 0.191011
v -0.021463 0.238354 0.172185
v -0.091735 0.236649 0.135158
v -0.089066 0.224487 0.172498
v -0.024131 0.250516 0.134845
v -0.053354 0.215541 0.101503
v -0.015824 0.214937 0.122296
v -0.014248 0.201553 0.162713
v -0.050201 0.188773 0.182337
v -0.087730 0.189376 0.161546
v -0.089308 0.202760 0.121129
v -0.015107 0.197234 0.120372
v -0.048059 0.175522 0.173055
v -0.081013 0.189773 0.117884
v -0.048060 0.199497 0.101152
v -0.015107 0.185246 0.156323
v -0.081012 0.177785 0.153836
v 0.096391 0.000119 -0.089496
v 0.118594 0.301050 -0.057870
v 0.115039 0.000119 -0.070479
v 0.126980 0.298182 -0.049085
v 0.107894 0.000119 -0.044820
v 0.123807 0.298971 -0.037343
v 0.082100 0.000119 -0.038178
v 0.112248 0.302628 -0.034387
v 0.063452 0.000119 -0.057195
v 0.103862 0.305496 -0.043172
v 0.070597 0.000119 -0.082854
v 0.107035 0.304706 -0.054914
v 0.092862 0.073142 -0.082559
v 0.106290 0.071966 -0.068955
v 0.101192 0.069614 -0.050646
v 0.082665 0.068438 -0.045940
v 0.069237 0.069614 -0.059544
v 0.074336 0.071966 -0.077853
v 0.074028 0.242994 -0.073581
v 0.065050 0.243508 -0.041643
v 0.088268 0.237605 -0.017784
v 0.120465 0.231189 -0.025861
v 0.129445 0.230674 -0.057799
v 0.106227 0.236577 -0.081660
v 0.090618 0.246097 -0.057599
v 0.088531 0.237807 -0.058460
v 0.087433 0.246280 -0.046280
v 0.085288 0.237993 -0.046921
v 0.095673 0.244186 -0.037820
v 0.093674 0.235861 -0.038303
v 0.107098 0.241908 -0.040680
v 0.105303 0.233543 -0.041221
v 0.110282 0.241725 -0.051999
v 0.108547 0.233357 -0.052759
v 0.100161 0.235490 -0.061379
v 0.102041 0.243819 -0.060457
v 0.078758 0.127106 -0.069558
v 0.080447 0.180730 -0.064028
v 0.093319 0.181174 -0.067238
v 0.092572 0.127804 -0.073038
v 0.074972 0.125710 -0.055959
v 0.076937 0.179841 -0.051419
v 0.085000 0.125012 -0.045841
v 0.086298 0.179396 -0.042020
v 0.098814 0.125710 -0.049320
v 0.099170 0.179841 -0.045228
v 0.102600 0.127106 -0.062919
v 0.102681 0.180729 -0.057837
v 0.143952 0.263182 -0.179062
v 0.242035 0.243337 -0.079602
v 0.202973 0.239649 0.053331
v 0.075245 0.293672 0.086805
v -0.022838 0.313516 -0.012655
v 0.016224 0.317204 -0.145588
v 0.149446 0.304617 -0.148219
v 0.223085 0.279436 -0.071078
v 0.195223 0.286365 0.032026
v 0.093722 0.318476 0.057988
v 0.020083 0.343657 -0.019153
v 0.047945 0.336728 -0.122257
v 0.136448 0.322910 -0.079250
v 0.161230 0.314436 -0.053290
v 0.151853 0.316768 -0.018593
v 0.117696 0.327573 -0.009856
v 0.092915 0.336047 -0.035816
v 0.102291 0.333715 -0.070513
v 0.136991 0.348792 -0.043803
v 0.146154 0.269685 -0.177723
v 0.078039 0.300028 0.085952
v 0.204688 0.246347 0.052754
v 0.019505 0.323366 -0.144525
v -0.019261 0.319604 -0.012688
v 0.243454 0.250108 -0.079083
v 0.003551 0.173957 -0.151924
v 0.021873 0.190981 -0.135599
v -0.023820 0.168345 -0.142174
v -0.032870 0.179756 -0.116100
v -0.014549 0.196779 -0.099775
v 0.012822 0.202392 -0.109524
v 0.018030 0.123366 -0.120557
v 0.007845 0.121228 -0.117489
v 0.025064 0.127775 -0.113458
v 0.004694 0.123499 -0.107321
v 0.011728 0.127907 -0.100222
v 0.021913 0.130045 -0.103290
v 0.005187 0.181736 -0.113137
v -0.004075 0.179837 -0.109838
v -0.010275 0.174076 -0.115362
v -0.007212 0.170215 -0.124185
v 0.008250 0.177875 -0.121961
v 0.002050 0.172114 -0.127485
v 0.027546 0.073379 -0.117313
v 0.016161 0.070581 -0.114218
v 0.012802 0.070861 -0.102570
v 0.020828 0.073938 -0.094017
v 0.032213 0.076736 -0.097113
v 0.035572 0.076456 -0.108761
v 0.033361 0.000119 -0.128262
v 0.010894 0.000119 -0.123141
v 0.004095 0.000119 -0.101124
v 0.019764 0.000119 -0.084227
v 0.042230 0.000119 -0.089348
v 0.049029 0.000119 -0.111365
v -0.020640 0.246627 -0.170364
v -0.004403 0.258011 -0.155497
v -0.043355 0.241969 -0.162273
v -0.049833 0.248696 -0.139315
v -0.033596 0.260080 -0.124447
v -0.010881 0.264738 -0.132538
v -0.030295 0.266164 -0.148950
v 0.014604 0.242677 -0.155894
v -0.058208 0.227746 -0.129959
v -0.032185 0.245992 -0.106130
v -0.011420 0.224430 -0.179723
v -0.047826 0.216965 -0.166755
v 0.004221 0.253458 -0.119098
v 0.028414 0.209299 -0.146185
v 0.016408 0.223005 -0.107336
v -0.022998 0.214924 -0.093300
v -0.050399 0.193138 -0.118112
v -0.038394 0.179433 -0.156960
v 0.001012 0.187513 -0.170997
v 0.017312 0.209086 -0.105667
v -0.041376 0.180561 -0.114310
v 0.005092 0.173598 -0.160409
v 0.028729 0.194936 -0.139281
v -0.017740 0.201898 -0.093182
v -0.029960 0.166411 -0.147923
v 0.104319 0.108046 0.030339
v 0.097042 0.107734 0.010236
v 0.125065 0.105836 0.034028
v 0.138534 0.103314 0.017614
v 0.131258 0.103002 -0.002489
v 0.110512 0.105212 -0.006178
v 0.097296 0.048766 0.021277
v 0.107853 0.047222 0.023251
v 0.093730 0.049623 0.010988
v 0.114844 0.046535 0.014937
v 0.111278 0.047392 0.004648
v 0.100721 0.048936 0.002674
v 0.113976 0.097140 0.004167
v 0.122397 0.096137 0.005596
v 0.125351 0.095677 0.013745
v 0.119883 0.096220 0.020465
v 0.108508 0.097682 0.010887
v 0.111462 0.097222 0.019036
v 0.084602 0.000119 0.022035
v 0.104216 0.000119 0.025008
v 0.117295 0.000119 0.009375
v 0.110760 0.000119 -0.009231
v 0.091146 0.000119 -0.012204
v 0.078067 0.000119 0.003429
v 0.114828 0.162524 0.022491
v 0.108495 0.161556 0.005944
v 0.132045 0.160410 0.025366
v 0.142928 0.157328 0.011695
v 0.136595 0.156359 -0.004853
v 0.119379 0.158473 -0.007728
v 0.127346 0.167001 0.007296
v 0.095932 0.148181 0.006071
v 0.151119 0.141471 0.015336
v 0.140969 0.139727 -0.011172
v 0.106083 0.149925 0.032580
v 0.133676 0.146570 0.037212
v 0.113376 0.143082 -0.015805
v 0.089697 0.121618 0.008470
v 0.108796 0.117844 -0.015294
v 0.138663 0.114201 -0.010287
v 0.149431 0.114333 0.018483
v 0.130333 0.118107 0.042246
v 0.100465 0.121750 0.037240
v 0.108687 0.106613 -0.012148
v 0.144622 0.104563 0.018270
v 0.100856 0.111005 0.034515
v 0.091488 0.110224 0.008821
v 0.135254 0.103783 -0.007424
v 0.127423 0.108175 0.039239
v 0.098535 0.048575 -0.096658
v 0.099452 0.022581 -0.098238
v 0.124480 0.021183 -0.072566
v 0.122479 0.047145 -0.072261
v 0.114630 0.018417 -0.038407
v 0.113254 0.044309 -0.039530
v 0.080347 0.017036 -0.029802
v 0.080271 0.042914 -0.031162
v 0.055481 0.018394 -0.054884
v 0.056396 0.044353 -0.055376
v 0.064739 0.021176 -0.089200
v 0.065427 0.047176 -0.088138
v 0.032784 0.046889 -0.127811
v 0.034487 0.021829 -0.130961
v 0.010249 0.044926 -0.122337
v 0.008783 0.019703 -0.125020
v 0.003419 0.044011 -0.100116
v 0.001086 0.018649 -0.099845
v 0.019129 0.045040 -0.082836
v 0.018937 0.019712 -0.080469
v 0.042118 0.046991 -0.088037
v 0.044687 0.021833 -0.086213
v 0.052530 0.022896 -0.111528
v 0.048953 0.047925 -0.110778
v 0.083967 0.012624 0.024533
v 0.088186 0.031319 0.024697
v 0.105638 0.011820 0.027685
v 0.107178 0.030603 0.027522
v 0.120147 0.012684 0.010545
v 0.119571 0.031285 0.012735
v 0.113003 0.014355 -0.009927
v 0.113351 0.032659 -0.004899
v 0.091190 0.015174 -0.013182
v 0.094571 0.033472 -0.008002
v 0.081831 0.032801 0.006785
v 0.076656 0.014305 0.004129
v -0.066495 0.050270 0.062647
v -0.064123 0.026293 0.062001
v -0.066202 0.024852 0.098574
v -0.068357 0.048833 0.096897
v -0.098764 0.021991 0.114771
v -0.098845 0.045983 0.112218
v -0.128992 0.020561 0.094819
v -0.127367 0.044581 0.093453
v -0.127179 0.021973 0.058668
v -0.125593 0.046028 0.059383
v -0.094847 0.024846 0.042029
v -0.095218 0.048865 0.043895
v -0.059474 0.049546 0.094637
v -0.062036 0.022529 0.092080
v -0.059247 0.047625 0.117216
v -0.061957 0.020406 0.118404
v -0.039700 0.046627 0.128270
v -0.039172 0.019353 0.131478
v -0.020086 0.047579 0.117224
v -0.016363 0.020414 0.118405
v -0.019776 0.049533 0.094633
v -0.016244 0.022533 0.092080
v -0.039131 0.023593 0.078837
v -0.039605 0.050506 0.083110
vt 0.378617 0.763356
vt 0.373748 0.763356
vt 0.373748 0.768139
vt 0.378617 0.768139
vt 0.956860 0.504935
vt 0.956860 0.484889
vt 0.954578 0.484889
vt 0.954578 0.504935
vt 0.830396 0.568535
vt 0.850788 0.568535
vt 0.850788 0.566297
vt 0.830396 0.566297
vt 0.956860 0.525287
vt 0.956860 0.505241
vt 0.954578 0.505241
vt 0.954578 0.525287
vt 0.871790 0.558359
vt 0.892182 0.558359
vt 0.892182 0.556121
vt 0.871790 0.556121
vt 0.956860 0.545639
vt 0.956860 0.525593
vt 0.954578 0.525593
vt 0.954578 0.545639
vt 0.933881 0.548412
vt 0.938903 0.545945
vt 0.943924 0.548412
vt 0.943924 0.553348
vt 0.938903 0.555815
vt 0.933881 0.553348
vt 0.861136 0.561209
vt 0.856268 0.561209
vt 0.856268 0.565991
vt 0.861136 0.565991
vt 0.855962 0.561209
vt 0.851093 0.561209
vt 0.851093 0.565991
vt 0.855962 0.565991
vt 0.871485 0.561209
vt 0.866616 0.561209
vt 0.866616 0.565991
vt 0.871485 0.565991
vt 0.866311 0.561209
vt 0.861442 0.561209
vt 0.861442 0.565991
vt 0.866311 0.565991
vt 0.871485 0.556121
vt 0.866616 0.556121
vt 0.866616 0.560903
vt 0.871485 0.560903
vt 0.866311 0.556121
vt 0.861442 0.556121
vt 0.861442 0.560903
vt 0.866311 0.560903
vt 0.964621 0.469625
vt 0.959753 0.469625
vt 0.959753 0.474407
vt 0.964621 0.474407
vt 0.959447 0.469625
vt 0.954578 0.469625
vt 0.954578 0.474407
vt 0.959447 0.474407
vt 0.964621 0.464537
vt 0.959753 0.464537
vt 0.959753 0.469319
vt 0.964621 0.469319
vt 0.959447 0.464537
vt 0.954578 0.464537
vt 0.954578 0.469319
vt 0.959447 0.469319
vt 0.964621 0.459449
vt 0.959753 0.459449
vt 0.959753 0.464231
vt 0.964621 0.464231
vt 0.954578 0.573623
vt 0.964621 0.573623
vt 0.964621 0.571385
vt 0.954578 0.571385
vt 0.972383 0.535463
vt 0.972383 0.525593
vt 0.970101 0.525593
vt 0.970101 0.535463
vt 0.944230 0.573623
vt 0.954273 0.573623
vt 0.954273 0.571385
vt 0.944230 0.571385
vt 0.972383 0.525287
vt 0.972383 0.515417
vt 0.970101 0.515417
vt 0.970101 0.525287
vt 0.933881 0.573623
vt 0.943924 0.573623
vt 0.943924 0.571385
vt 0.933881 0.571385
vt 0.972383 0.515111
vt 0.972383 0.505241
vt 0.970101 0.505241
vt 0.970101 0.515111
vt 0.352746 0.732828
vt 0.342703 0.732828
vt 0.342703 0.742699
vt 0.352746 0.742699
vt 0.352746 0.722652
vt 0.342703 0.722652
vt 0.342703 0.732523
vt 0.352746 0.732523
vt 0.342397 0.732828
vt 0.332354 0.732828
vt 0.332354 0.742699
vt 0.342397 0.742699
vt 0.259609 0.753180
vt 0.249567 0.753180
vt 0.249567 0.763051
vt 0.259609 0.763051
vt 0.301003 0.732828
vt 0.290961 0.732828
vt 0.290961 0.742699
vt 0.301003 0.742699
vt 0.959447 0.459449
vt 0.954578 0.459449
vt 0.954578 0.464231
vt 0.959447 0.464231
vt 0.964621 0.454361
vt 0.959753 0.454361
vt 0.959753 0.459143
vt 0.964621 0.459143
vt 0.959447 0.454361
vt 0.954578 0.454361
vt 0.954578 0.459143
vt 0.959447 0.459143
vt 0.964621 0.449273
vt 0.959753 0.449273
vt 0.959753 0.454055
vt 0.964621 0.454055
vt 0.959447 0.449273
vt 0.954578 0.449273
vt 0.954578 0.454055
vt 0.959447 0.454055
vt 0.964621 0.444185
vt 0.959753 0.444185
vt 0.959753 0.448967
vt 0.964621 0.448967
vt 0.923533 0.573623
vt 0.933576 0.573623
vt 0.933576 0.571385
vt 0.923533 0.571385
vt 0.972383 0.504935
vt 0.972383 0.495065
vt 0.970101 0.495065
vt 0.970101 0.504935
vt 0.913184 0.573623
vt 0.923227 0.573623
vt 0.923227 0.571385
vt 0.913184 0.571385
vt 0.972383 0.494759
vt 0.972383 0.484889
vt 0.970101 0.484889
vt 0.970101 0.494759
vt 0.902836 0.573623
vt 0.912879 0.573623
vt 0.912879 0.571385
vt 0.902836 0.571385
vt 0.972383 0.484583
vt 0.972383 0.474713
vt 0.970101 0.474713
vt 0.970101 0.484583
vt 0.892487 0.573623
vt 0.902530 0.573623
vt 0.902530 0.571385
vt 0.892487 0.571385
vt 0.972383 0.474407
vt 0.972383 0.464537
vt 0.970101 0.464537
vt 0.970101 0.474407
vt 0.882139 0.573623
vt 0.892182 0.573623
vt 0.892182 0.571385
vt 0.882139 0.571385
vt 0.972383 0.464231
vt 0.972383 0.454361
vt 0.970101 0.454361
vt 0.970101 0.464231
vt 0.871790 0.573623
vt 0.881833 0.573623
vt 0.881833 0.571385
vt 0.871790 0.571385
vt 0.972383 0.454055
vt 0.972383 0.444185
vt 0.970101 0.444185
vt 0.970101 0.454055
vt 0.959447 0.444185
vt 0.954578 0.444185
vt 0.954578 0.448967
vt 0.959447 0.448967
vt 0.954273 0.540857
vt 0.949404 0.540857
vt 0.949404 0.545639
vt 0.954273 0.545639
vt 0.949098 0.540857
vt 0.944230 0.540857
vt 0.944230 0.545639
vt 0.949098 0.545639
vt 0.954273 0.535769
vt 0.949404 0.535769
vt 0.949404 0.540551
vt 0.954273 0.540551
vt 0.949098 0.535769
vt 0.944230 0.535769
vt 0.944230 0.540551
vt 0.949098 0.540551
vt 0.835265 0.550727
vt 0.835265 0.545945
vt 0.832984 0.545945
vt 0.832984 0.550727
vt 0.832678 0.550727
vt 0.832678 0.545945
vt 0.830396 0.545945
vt 0.830396 0.550727
vt 0.840439 0.550727
vt 0.840439 0.545945
vt 0.838158 0.545945
vt 0.838158 0.550727
vt 0.837852 0.550727
vt 0.837852 0.545945
vt 0.835571 0.545945
vt 0.835571 0.550727
vt 0.835265 0.555815
vt 0.835265 0.551033
vt 0.832984 0.551033
vt 0.832984 0.555815
vt 0.832678 0.555815
vt 0.832678 0.551033
vt 0.830396 0.551033
vt 0.830396 0.555815
vt 0.913184 0.543172
vt 0.913184 0.538236
vt 0.918206 0.535769
vt 0.923227 0.538236
vt 0.923227 0.543172
vt 0.918206 0.545639
vt 0.363094 0.727740
vt 0.358226 0.727740
vt 0.358226 0.732523
vt 0.363094 0.732523
vt 0.357920 0.727740
vt 0.353051 0.727740
vt 0.353051 0.732523
vt 0.357920 0.732523
vt 0.363094 0.722652
vt 0.358226 0.722652
vt 0.358226 0.727435
vt 0.363094 0.727435
vt 0.357920 0.722652
vt 0.353051 0.722652
vt 0.353051 0.727435
vt 0.357920 0.727435
vt 0.342397 0.748092
vt 0.337529 0.748092
vt 0.337529 0.752875
vt 0.342397 0.752875
vt 0.337223 0.748092
vt 0.332354 0.748092
vt 0.332354 0.752875
vt 0.337223 0.752875
vt 0.892487 0.558359
vt 0.912879 0.558359
vt 0.912879 0.556121
vt 0.892487 0.556121
vt 0.342397 0.743004
vt 0.337529 0.743004
vt 0.337529 0.747787
vt 0.342397 0.747787
vt 0.337223 0.743004
vt 0.332354 0.743004
vt 0.332354 0.747787
vt 0.337223 0.747787
vt 0.332049 0.748092
vt 0.327180 0.748092
vt 0.327180 0.752875
vt 0.332049 0.752875
vt 0.326875 0.748092
vt 0.322006 0.748092
vt 0.322006 0.752875
vt 0.326875 0.752875
vt 0.332049 0.743004
vt 0.327180 0.743004
vt 0.327180 0.747787
vt 0.332049 0.747787
vt 0.959447 0.504935
vt 0.959447 0.484889
vt 0.957165 0.484889
vt 0.957165 0.504935
vt 0.913184 0.558359
vt 0.933576 0.558359
vt 0.933576 0.556121
vt 0.913184 0.556121
vt 0.959447 0.525287
vt 0.959447 0.505241
vt 0.957165 0.505241
vt 0.957165 0.525287
vt 0.933881 0.558359
vt 0.954273 0.558359
vt 0.954273 0.556121
vt 0.933881 0.556121
vt 0.959447 0.545639
vt 0.959447 0.525593
vt 0.957165 0.525593
vt 0.957165 0.545639
vt 0.871790 0.560903
vt 0.892182 0.560903
vt 0.892182 0.558665
vt 0.871790 0.558665
vt 0.962034 0.504935
vt 0.962034 0.484889
vt 0.959753 0.484889
vt 0.959753 0.504935
vt 0.892487 0.560903
vt 0.912879 0.560903
vt 0.912879 0.558665
vt 0.892487 0.558665
vt 0.962034 0.525287
vt 0.962034 0.505241
vt 0.959753 0.505241
vt 0.959753 0.525287
vt 0.913184 0.560903
vt 0.933576 0.560903
vt 0.933576 0.558665
vt 0.913184 0.558665
vt 0.962034 0.545639
vt 0.962034 0.525593
vt 0.959753 0.525593
vt 0.959753 0.545639
vt 0.933881 0.560903
vt 0.954273 0.560903
vt 0.954273 0.558665
vt 0.933881 0.558665
vt 0.923227 0.484889
vt 0.902836 0.484889
vt 0.902836 0.504935
vt 0.923227 0.504935
vt 0.923227 0.464537
vt 0.902836 0.464537
vt 0.902836 0.484583
vt 0.923227 0.484583
vt 0.881833 0.505241
vt 0.861442 0.505241
vt 0.861442 0.525287
vt 0.881833 0.525287
vt 0.861136 0.505241
vt 0.840745 0.505241
vt 0.840745 0.525287
vt 0.861136 0.525287
vt 0.923227 0.444185
vt 0.902836 0.444185
vt 0.902836 0.464231
vt 0.923227 0.464231
vt 0.923227 0.423833
vt 0.902836 0.423833
vt 0.902836 0.443879
vt 0.923227 0.443879
vt 0.352746 0.640939
vt 0.352746 0.620892
vt 0.342703 0.620892
vt 0.342703 0.640939
vt 0.290961 0.732523
vt 0.311352 0.732523
vt 0.311352 0.722652
vt 0.290961 0.722652
vt 0.342397 0.722347
vt 0.342397 0.702300
vt 0.332354 0.702300
vt 0.332354 0.722347
vt 0.270264 0.732523
vt 0.290655 0.732523
vt 0.290655 0.722652
vt 0.270264 0.722652
vt 0.342397 0.701995
vt 0.342397 0.681948
vt 0.332354 0.681948
vt 0.332354 0.701995
vt 0.249567 0.732523
vt 0.269958 0.732523
vt 0.269958 0.722652
vt 0.249567 0.722652
vt 0.249261 0.702300
vt 0.228870 0.702300
vt 0.228870 0.722347
vt 0.249261 0.722347
vt 0.311352 0.681948
vt 0.290961 0.681948
vt 0.290961 0.701995
vt 0.311352 0.701995
vt 0.311352 0.661596
vt 0.290961 0.661596
vt 0.290961 0.681643
vt 0.311352 0.681643
vt 0.290655 0.681948
vt 0.270264 0.681948
vt 0.270264 0.701995
vt 0.290655 0.701995
vt 0.311352 0.641244
vt 0.290961 0.641244
vt 0.290961 0.661291
vt 0.311352 0.661291
vt 0.269958 0.681948
vt 0.249567 0.681948
vt 0.249567 0.701995
vt 0.269958 0.701995
vt 0.353204 0.661291
vt 0.363094 0.661291
vt 0.363094 0.651573
vt 0.353204 0.651115
vt 0.363094 0.651115
vt 0.363094 0.641397
vt 0.259609 0.752875
vt 0.249719 0.752875
vt 0.259609 0.743157
vt 0.269958 0.752875
vt 0.260068 0.752875
vt 0.269958 0.743157
vt 0.259457 0.743004
vt 0.249567 0.743004
vt 0.249567 0.752722
vt 0.353051 0.641244
vt 0.362942 0.641244
vt 0.353051 0.650962
vt 0.373443 0.701995
vt 0.373443 0.681948
vt 0.371161 0.681948
vt 0.371161 0.701995
vt 0.280612 0.760507
vt 0.301003 0.760507
vt 0.301003 0.758268
vt 0.280612 0.758268
vt 0.373443 0.722347
vt 0.373443 0.702300
vt 0.371161 0.702300
vt 0.371161 0.722347
vt 0.301309 0.760507
vt 0.321700 0.760507
vt 0.321700 0.758268
vt 0.301309 0.758268
vt 0.370856 0.763051
vt 0.370856 0.743004
vt 0.368574 0.743004
vt 0.368574 0.763051
vt 0.301309 0.763051
vt 0.321700 0.763051
vt 0.321700 0.760812
vt 0.301309 0.760812
vt 0.326875 0.743004
vt 0.322006 0.743004
vt 0.322006 0.747787
vt 0.326875 0.747787
vt 0.321700 0.748092
vt 0.316832 0.748092
vt 0.316832 0.752875
vt 0.321700 0.752875
vt 0.316526 0.748092
vt 0.311657 0.748092
vt 0.311657 0.752875
vt 0.316526 0.752875
vt 0.321700 0.743004
vt 0.316832 0.743004
vt 0.316832 0.747787
vt 0.321700 0.747787
vt 0.316526 0.743004
vt 0.311657 0.743004
vt 0.311657 0.747787
vt 0.316526 0.747787
vt 0.238913 0.748092
vt 0.234044 0.748092
vt 0.234044 0.752875
vt 0.238913 0.752875
vt 0.239371 0.737611
vt 0.244087 0.737611
vt 0.244087 0.732981
vt 0.244545 0.737611
vt 0.249261 0.737611
vt 0.249261 0.732981
vt 0.239371 0.742699
vt 0.244087 0.742699
vt 0.244087 0.738069
vt 0.249261 0.742699
vt 0.244545 0.742699
vt 0.249261 0.738069
vt 0.233738 0.737611
vt 0.229022 0.737611
vt 0.233738 0.732981
vt 0.234197 0.737611
vt 0.238913 0.737611
vt 0.238913 0.732981
vt 0.378617 0.691819
vt 0.378617 0.681948
vt 0.376336 0.681948
vt 0.376336 0.691819
vt 0.311657 0.768139
vt 0.321700 0.768139
vt 0.321700 0.765900
vt 0.311657 0.765900
vt 0.378617 0.681643
vt 0.378617 0.671772
vt 0.376336 0.671772
vt 0.376336 0.681643
vt 0.322006 0.765595
vt 0.332049 0.765595
vt 0.332049 0.760812
vt 0.322006 0.760812
vt 0.376030 0.671467
vt 0.376030 0.661596
vt 0.373748 0.661596
vt 0.373748 0.671467
vt 0.301309 0.768139
vt 0.311352 0.768139
vt 0.311352 0.765900
vt 0.301309 0.765900
vt 0.249261 0.752875
vt 0.249261 0.748092
vt 0.246979 0.748092
vt 0.246979 0.752875
vt 0.246674 0.752875
vt 0.246674 0.748092
vt 0.244392 0.748092
vt 0.244392 0.752875
vt 0.357920 0.635851
vt 0.357920 0.631068
vt 0.355639 0.631068
vt 0.355639 0.635851
vt 0.355333 0.635851
vt 0.355333 0.631068
vt 0.353051 0.631068
vt 0.353051 0.635851
vt 0.363094 0.635851
vt 0.363094 0.631068
vt 0.360813 0.631068
vt 0.360813 0.635851
vt 0.360507 0.635851
vt 0.360507 0.631068
vt 0.358226 0.631068
vt 0.358226 0.635851
vt 0.233738 0.748092
vt 0.228870 0.748092
vt 0.228870 0.752875
vt 0.233738 0.752875
vt 0.969795 0.474407
vt 0.969795 0.464537
vt 0.967514 0.464537
vt 0.967514 0.474407
vt 0.913184 0.571079
vt 0.923227 0.571079
vt 0.923227 0.568841
vt 0.913184 0.568841
vt 0.969795 0.504935
vt 0.969795 0.495065
vt 0.967514 0.495065
vt 0.967514 0.504935
vt 0.923533 0.571079
vt 0.933576 0.571079
vt 0.933576 0.568841
vt 0.923533 0.568841
vt 0.969795 0.515111
vt 0.969795 0.505241
vt 0.967514 0.505241
vt 0.967514 0.515111
vt 0.944230 0.522820
vt 0.944230 0.517884
vt 0.949251 0.515417
vt 0.954273 0.517884
vt 0.954273 0.522820
vt 0.949251 0.525287
vt 0.830091 0.545945
vt 0.825222 0.545945
vt 0.825222 0.550727
vt 0.830091 0.550727
vt 0.824917 0.545945
vt 0.820048 0.545945
vt 0.820048 0.550727
vt 0.824917 0.550727
vt 0.954273 0.428921
vt 0.949404 0.428921
vt 0.949404 0.433703
vt 0.954273 0.433703
vt 0.949098 0.428921
vt 0.944230 0.428921
vt 0.944230 0.433703
vt 0.949098 0.433703
vt 0.954273 0.423833
vt 0.949404 0.423833
vt 0.949404 0.428615
vt 0.954273 0.428615
vt 0.949098 0.423833
vt 0.944230 0.423833
vt 0.944230 0.428615
vt 0.949098 0.428615
vt 0.881833 0.540857
vt 0.876965 0.540857
vt 0.876965 0.545639
vt 0.881833 0.545639
vt 0.876659 0.540857
vt 0.871790 0.540857
vt 0.871790 0.545639
vt 0.876659 0.545639
vt 0.881833 0.535769
vt 0.876965 0.535769
vt 0.876965 0.540551
vt 0.881833 0.540551
vt 0.876659 0.535769
vt 0.871790 0.535769
vt 0.871790 0.540551
vt 0.876659 0.540551
vt 0.943924 0.479801
vt 0.939056 0.479801
vt 0.939056 0.484583
vt 0.943924 0.484583
vt 0.933881 0.571079
vt 0.943924 0.571079
vt 0.943924 0.568841
vt 0.933881 0.568841
vt 0.969795 0.525287
vt 0.969795 0.515417
vt 0.967514 0.515417
vt 0.967514 0.525287
vt 0.944230 0.571079
vt 0.954273 0.571079
vt 0.954273 0.568841
vt 0.944230 0.568841
vt 0.969795 0.535463
vt 0.969795 0.525593
vt 0.967514 0.525593
vt 0.967514 0.535463
vt 0.954578 0.571079
vt 0.964621 0.571079
vt 0.964621 0.568841
vt 0.954578 0.568841
vt 0.969795 0.545639
vt 0.969795 0.535769
vt 0.967514 0.535769
vt 0.967514 0.545639
vt 0.347572 0.676860
vt 0.342703 0.676860
vt 0.342703 0.681643
vt 0.347572 0.681643
vt 0.352746 0.671772
vt 0.347877 0.671772
vt 0.347877 0.676555
vt 0.352746 0.676555
vt 0.347572 0.671772
vt 0.342703 0.671772
vt 0.342703 0.676555
vt 0.347572 0.676555
vt 0.280306 0.737916
vt 0.275438 0.737916
vt 0.275438 0.742699
vt 0.280306 0.742699
vt 0.275132 0.737916
vt 0.270264 0.737916
vt 0.270264 0.742699
vt 0.275132 0.742699
vt 0.280306 0.732828
vt 0.275438 0.732828
vt 0.275438 0.737611
vt 0.280306 0.737611
vt 0.820048 0.573623
vt 0.830091 0.573623
vt 0.830091 0.571385
vt 0.820048 0.571385
vt 0.275132 0.732828
vt 0.270264 0.732828
vt 0.270264 0.737611
vt 0.275132 0.737611
vt 0.352746 0.666684
vt 0.347877 0.666684
vt 0.347877 0.671467
vt 0.352746 0.671467
vt 0.347572 0.666684
vt 0.342703 0.666684
vt 0.342703 0.671467
vt 0.347572 0.671467
vt 0.352746 0.661596
vt 0.347877 0.661596
vt 0.347877 0.666379
vt 0.352746 0.666379
vt 0.347572 0.661596
vt 0.342703 0.661596
vt 0.342703 0.666379
vt 0.347572 0.666379
vt 0.969795 0.555815
vt 0.969795 0.545945
vt 0.967514 0.545945
vt 0.967514 0.555815
vt 0.830396 0.573623
vt 0.840439 0.573623
vt 0.840439 0.571385
vt 0.830396 0.571385
vt 0.969795 0.565991
vt 0.969795 0.556121
vt 0.967514 0.556121
vt 0.967514 0.565991
vt 0.840745 0.573623
vt 0.850788 0.573623
vt 0.850788 0.571385
vt 0.840745 0.571385
vt 0.972383 0.433703
vt 0.972383 0.423833
vt 0.970101 0.423833
vt 0.970101 0.433703
vt 0.851093 0.573623
vt 0.861136 0.573623
vt 0.861136 0.571385
vt 0.851093 0.571385
vt 0.972383 0.443879
vt 0.972383 0.434009
vt 0.970101 0.434009
vt 0.970101 0.443879
vt 0.861442 0.573623
vt 0.871485 0.573623
vt 0.871485 0.571385
vt 0.861442 0.571385
vt 0.972383 0.545639
vt 0.972383 0.535769
vt 0.970101 0.535769
vt 0.970101 0.545639
vt 0.830396 0.576167
vt 0.840439 0.576167
vt 0.840439 0.573929
vt 0.830396 0.573929
vt 0.972383 0.555815
vt 0.972383 0.545945
vt 0.970101 0.545945
vt 0.970101 0.555815
vt 0.820048 0.576167
vt 0.830091 0.576167
vt 0.830091 0.573929
vt 0.820048 0.573929
vt 0.902530 0.505241
vt 0.882139 0.505241
vt 0.882139 0.525287
vt 0.902530 0.525287
vt 0.840439 0.444185
vt 0.820048 0.444185
vt 0.820048 0.464231
vt 0.840439 0.464231
vt 0.861136 0.423833
vt 0.840745 0.423833
vt 0.840745 0.443879
vt 0.861136 0.443879
vt 0.861136 0.444185
vt 0.840745 0.444185
vt 0.840745 0.464231
vt 0.861136 0.464231
vt 0.840439 0.423833
vt 0.820048 0.423833
vt 0.820048 0.443879
vt 0.840439 0.443879
vt 0.840439 0.464537
vt 0.820048 0.464537
vt 0.820048 0.484583
vt 0.840439 0.484583
vt 0.342397 0.681643
vt 0.342397 0.661596
vt 0.332354 0.661596
vt 0.332354 0.681643
vt 0.311657 0.712171
vt 0.332049 0.712171
vt 0.332049 0.702300
vt 0.311657 0.702300
vt 0.342397 0.640939
vt 0.342397 0.620892
vt 0.332354 0.620892
vt 0.332354 0.640939
vt 0.311657 0.722347
vt 0.332049 0.722347
vt 0.332049 0.712476
vt 0.311657 0.712476
vt 0.342397 0.661291
vt 0.342397 0.641244
vt 0.332354 0.641244
vt 0.332354 0.661291
vt 0.228870 0.732523
vt 0.249261 0.732523
vt 0.249261 0.722652
vt 0.228870 0.722652
vt 0.290655 0.620892
vt 0.270264 0.620892
vt 0.270264 0.640939
vt 0.290655 0.640939
vt 0.290655 0.641244
vt 0.270264 0.641244
vt 0.270264 0.661291
vt 0.290655 0.661291
vt 0.269958 0.661596
vt 0.249567 0.661596
vt 0.249567 0.681643
vt 0.269958 0.681643
vt 0.290655 0.661596
vt 0.270264 0.661596
vt 0.270264 0.681643
vt 0.290655 0.681643
vt 0.249261 0.681948
vt 0.228870 0.681948
vt 0.228870 0.701995
vt 0.249261 0.701995
vt 0.311352 0.620892
vt 0.290961 0.620892
vt 0.290961 0.640939
vt 0.311352 0.640939
vt 0.259915 0.743004
vt 0.269805 0.743004
vt 0.259915 0.752722
vt 0.362942 0.651420
vt 0.353051 0.651420
vt 0.353051 0.661138
vt 0.280306 0.752875
vt 0.270416 0.752875
vt 0.280306 0.743157
vt 0.363094 0.671467
vt 0.353204 0.671467
vt 0.363094 0.661749
vt 0.362942 0.661596
vt 0.353051 0.661596
vt 0.353051 0.671314
vt 0.280154 0.743004
vt 0.270264 0.743004
vt 0.270264 0.752722
vt 0.373443 0.742699
vt 0.373443 0.722652
vt 0.371161 0.722652
vt 0.371161 0.742699
vt 0.322006 0.760507
vt 0.342397 0.760507
vt 0.342397 0.758268
vt 0.322006 0.758268
vt 0.365681 0.763051
vt 0.365681 0.743004
vt 0.363400 0.743004
vt 0.363400 0.763051
vt 0.342703 0.760507
vt 0.363094 0.760507
vt 0.363094 0.758268
vt 0.342703 0.758268
vt 0.368269 0.763051
vt 0.368269 0.743004
vt 0.365987 0.743004
vt 0.365987 0.763051
vt 0.280612 0.763051
vt 0.301003 0.763051
vt 0.301003 0.760812
vt 0.280612 0.760812
vt 0.352746 0.656508
vt 0.347877 0.656508
vt 0.347877 0.661291
vt 0.352746 0.661291
vt 0.363094 0.702300
vt 0.353051 0.702300
vt 0.353051 0.712171
vt 0.363094 0.712171
vt 0.311352 0.743004
vt 0.301309 0.743004
vt 0.301309 0.752875
vt 0.311352 0.752875
vt 0.363094 0.692124
vt 0.353051 0.692124
vt 0.353051 0.701995
vt 0.363094 0.701995
vt 0.363094 0.681948
vt 0.353051 0.681948
vt 0.353051 0.691819
vt 0.363094 0.691819
vt 0.376030 0.752875
vt 0.376030 0.743004
vt 0.371161 0.743004
vt 0.371161 0.752875
vt 0.938750 0.459449
vt 0.933881 0.459449
vt 0.933881 0.464231
vt 0.938750 0.464231
vt 0.943924 0.454361
vt 0.939056 0.454361
vt 0.939056 0.459143
vt 0.943924 0.459143
vt 0.938750 0.454361
vt 0.933881 0.454361
vt 0.933881 0.459143
vt 0.938750 0.459143
vt 0.964621 0.479801
vt 0.959753 0.479801
vt 0.959753 0.484583
vt 0.964621 0.484583
vt 0.959447 0.479801
vt 0.954578 0.479801
vt 0.954578 0.484583
vt 0.959447 0.484583
vt 0.964621 0.474713
vt 0.959753 0.474713
vt 0.959753 0.479495
vt 0.964621 0.479495
vt 0.882139 0.571079
vt 0.892182 0.571079
vt 0.892182 0.568841
vt 0.882139 0.568841
vt 0.969795 0.464231
vt 0.969795 0.454361
vt 0.967514 0.454361
vt 0.967514 0.464231
vt 0.871790 0.571079
vt 0.881833 0.571079
vt 0.881833 0.568841
vt 0.871790 0.568841
vt 0.969795 0.454055
vt 0.969795 0.444185
vt 0.967514 0.444185
vt 0.967514 0.454055
vt 0.861442 0.571079
vt 0.871485 0.571079
vt 0.871485 0.568841
vt 0.861442 0.568841
vt 0.967208 0.545639
vt 0.967208 0.535769
vt 0.964927 0.535769
vt 0.964927 0.545639
vt 0.830396 0.571079
vt 0.840439 0.571079
vt 0.840439 0.568841
vt 0.830396 0.568841
vt 0.967208 0.494759
vt 0.967208 0.484889
vt 0.964927 0.484889
vt 0.964927 0.494759
vt 0.861442 0.568535
vt 0.871485 0.568535
vt 0.871485 0.566297
vt 0.861442 0.566297
vt 0.967208 0.454055
vt 0.967208 0.444185
vt 0.964927 0.444185
vt 0.964927 0.454055
vt 0.871790 0.568535
vt 0.881833 0.568535
vt 0.881833 0.566297
vt 0.871790 0.566297
vt 0.967208 0.464231
vt 0.967208 0.454361
vt 0.964927 0.454361
vt 0.964927 0.464231
vt 0.959447 0.474713
vt 0.954578 0.474713
vt 0.954578 0.479495
vt 0.959447 0.479495
vt 0.964621 0.439097
vt 0.959753 0.439097
vt 0.959753 0.443879
vt 0.964621 0.443879
vt 0.959447 0.439097
vt 0.954578 0.439097
vt 0.954578 0.443879
vt 0.959447 0.443879
vt 0.964621 0.434009
vt 0.959753 0.434009
vt 0.959753 0.438791
vt 0.964621 0.438791
vt 0.959447 0.434009
vt 0.954578 0.434009
vt 0.954578 0.438791
vt 0.959447 0.438791
vt 0.840439 0.561209
vt 0.835571 0.561209
vt 0.835571 0.565991
vt 0.840439 0.565991
vt 0.835265 0.561209
vt 0.830396 0.561209
vt 0.830396 0.565991
vt 0.835265 0.565991
vt 0.840439 0.556121
vt 0.835571 0.556121
vt 0.835571 0.560903
vt 0.840439 0.560903
vt 0.835265 0.556121
vt 0.830396 0.556121
vt 0.830396 0.560903
vt 0.835265 0.560903
vt 0.964621 0.428921
vt 0.959753 0.428921
vt 0.959753 0.433703
vt 0.964621 0.433703
vt 0.959447 0.428921
vt 0.954578 0.428921
vt 0.954578 0.433703
vt 0.959447 0.433703
vt 0.882139 0.553348
vt 0.882139 0.548412
vt 0.887160 0.545945
vt 0.892182 0.548412
vt 0.892182 0.553348
vt 0.887160 0.555815
vt 0.373443 0.620892
vt 0.368574 0.620892
vt 0.368574 0.625675
vt 0.373443 0.625675
vt 0.368269 0.620892
vt 0.363400 0.620892
vt 0.363400 0.625675
vt 0.368269 0.625675
vt 0.238913 0.758268
vt 0.234044 0.758268
vt 0.234044 0.763051
vt 0.238913 0.763051
vt 0.233738 0.758268
vt 0.228870 0.758268
vt 0.228870 0.763051
vt 0.233738 0.763051
vt 0.238913 0.753180
vt 0.234044 0.753180
vt 0.234044 0.757963
vt 0.238913 0.757963
vt 0.233738 0.753180
vt 0.228870 0.753180
vt 0.228870 0.757963
vt 0.233738 0.757963
vt 0.243934 0.732828
vt 0.239218 0.732828
vt 0.239218 0.737458
vt 0.249108 0.732828
vt 0.244392 0.732828
vt 0.244392 0.737458
vt 0.243934 0.737916
vt 0.239218 0.737916
vt 0.239218 0.742546
vt 0.244392 0.737916
vt 0.249108 0.737916
vt 0.244392 0.742546
vt 0.228870 0.732828
vt 0.233585 0.732828
vt 0.228870 0.737458
vt 0.238760 0.732828
vt 0.234044 0.732828
vt 0.234044 0.737458
vt 0.290961 0.765595
vt 0.301003 0.765595
vt 0.301003 0.763356
vt 0.290961 0.763356
vt 0.376030 0.681643
vt 0.376030 0.671772
vt 0.373748 0.671772
vt 0.373748 0.681643
vt 0.259915 0.768139
vt 0.269958 0.768139
vt 0.269958 0.763356
vt 0.259915 0.763356
vt 0.376030 0.701995
vt 0.376030 0.692124
vt 0.373748 0.692124
vt 0.373748 0.701995
vt 0.301309 0.765595
vt 0.311352 0.765595
vt 0.311352 0.763356
vt 0.301309 0.763356
vt 0.376030 0.712171
vt 0.376030 0.702300
vt 0.373748 0.702300
vt 0.373748 0.712171
vt 0.357920 0.640939
vt 0.357920 0.636156
vt 0.355639 0.636156
vt 0.355639 0.640939
vt 0.355333 0.640939
vt 0.355333 0.636156
vt 0.353051 0.636156
vt 0.353051 0.640939
vt 0.363094 0.640939
vt 0.363094 0.636156
vt 0.360813 0.636156
vt 0.360813 0.640939
vt 0.360507 0.640939
vt 0.360507 0.636156
vt 0.358226 0.636156
vt 0.358226 0.640939
vt 0.264784 0.737611
vt 0.264784 0.732828
vt 0.262502 0.732828
vt 0.262502 0.737611
vt 0.262197 0.737611
vt 0.262197 0.732828
vt 0.259915 0.732828
vt 0.259915 0.737611
vt 0.363094 0.748092
vt 0.358226 0.748092
vt 0.358226 0.752875
vt 0.363094 0.752875
vt 0.357920 0.748092
vt 0.353051 0.748092
vt 0.353051 0.752875
vt 0.357920 0.752875
vt 0.363094 0.743004
vt 0.358226 0.743004
vt 0.358226 0.747787
vt 0.363094 0.747787
vt 0.357920 0.743004
vt 0.353051 0.743004
vt 0.353051 0.747787
vt 0.357920 0.747787
vt 0.352746 0.717564
vt 0.347877 0.717564
vt 0.347877 0.722347
vt 0.352746 0.722347
vt 0.855962 0.558665
vt 0.853681 0.558665
vt 0.853681 0.560903
vt 0.855962 0.560903
vt 0.853375 0.558665
vt 0.851093 0.558665
vt 0.851093 0.560903
vt 0.853375 0.560903
vt 0.855962 0.556121
vt 0.853681 0.556121
vt 0.853681 0.558359
vt 0.855962 0.558359
vt 0.853375 0.556121
vt 0.851093 0.556121
vt 0.851093 0.558359
vt 0.853375 0.558359
vt 0.861136 0.558665
vt 0.858855 0.558665
vt 0.858855 0.560903
vt 0.861136 0.560903
vt 0.858549 0.558665
vt 0.856268 0.558665
vt 0.856268 0.560903
vt 0.858549 0.560903
vt 0.861136 0.535769
vt 0.858855 0.535769
vt 0.858855 0.540551
vt 0.861136 0.540551
vt 0.858549 0.535769
vt 0.856268 0.535769
vt 0.856268 0.540551
vt 0.858549 0.540551
vt 0.855962 0.540857
vt 0.853681 0.540857
vt 0.853681 0.545639
vt 0.855962 0.545639
vt 0.853375 0.540857
vt 0.851093 0.540857
vt 0.851093 0.545639
vt 0.853375 0.545639
vt 0.861136 0.556121
vt 0.858855 0.556121
vt 0.858855 0.558359
vt 0.861136 0.558359
vt 0.861136 0.540857
vt 0.858855 0.540857
vt 0.858855 0.545639
vt 0.861136 0.545639
vt 0.902836 0.568535
vt 0.912879 0.568535
vt 0.912879 0.566297
vt 0.902836 0.566297
vt 0.967208 0.525287
vt 0.967208 0.515417
vt 0.964927 0.515417
vt 0.964927 0.525287
vt 0.954578 0.568535
vt 0.964621 0.568535
vt 0.964621 0.566297
vt 0.954578 0.566297
vt 0.972383 0.565991
vt 0.972383 0.556121
vt 0.970101 0.556121
vt 0.970101 0.565991
vt 0.840745 0.571079
vt 0.850788 0.571079
vt 0.850788 0.568841
vt 0.840745 0.568841
vt 0.967208 0.535463
vt 0.967208 0.525593
vt 0.964927 0.525593
vt 0.964927 0.535463
vt 0.347572 0.717564
vt 0.342703 0.717564
vt 0.342703 0.722347
vt 0.347572 0.722347
vt 0.352746 0.712476
vt 0.347877 0.712476
vt 0.347877 0.717259
vt 0.352746 0.717259
vt 0.347572 0.712476
vt 0.342703 0.712476
vt 0.342703 0.717259
vt 0.347572 0.717259
vt 0.352746 0.707388
vt 0.347877 0.707388
vt 0.347877 0.712171
vt 0.352746 0.712171
vt 0.347572 0.707388
vt 0.342703 0.707388
vt 0.342703 0.712171
vt 0.347572 0.712171
vt 0.352746 0.702300
vt 0.347877 0.702300
vt 0.347877 0.707083
vt 0.352746 0.707083
vt 0.233738 0.742699
vt 0.229022 0.742699
vt 0.233738 0.738069
vt 0.234197 0.742699
vt 0.238913 0.742699
vt 0.238913 0.738069
vt 0.233585 0.737916
vt 0.228870 0.737916
vt 0.228870 0.742546
vt 0.337223 0.727435
vt 0.332507 0.727435
vt 0.337223 0.722805
vt 0.234044 0.737916
vt 0.238760 0.737916
vt 0.234044 0.742546
vt 0.337070 0.722652
vt 0.332354 0.722652
vt 0.332354 0.727282
vt 0.267371 0.742699
vt 0.267371 0.737916
vt 0.265089 0.737916
vt 0.265089 0.742699
vt 0.347572 0.646027
vt 0.347572 0.641244
vt 0.345290 0.641244
vt 0.345290 0.646027
vt 0.344985 0.646027
vt 0.344985 0.641244
vt 0.342703 0.641244
vt 0.342703 0.646027
vt 0.352746 0.646027
vt 0.352746 0.641244
vt 0.350464 0.641244
vt 0.350464 0.646027
vt 0.350159 0.646027
vt 0.350159 0.641244
vt 0.347877 0.641244
vt 0.347877 0.646027
vt 0.347572 0.651115
vt 0.347572 0.646332
vt 0.345290 0.646332
vt 0.345290 0.651115
vt 0.344985 0.651115
vt 0.344985 0.646332
vt 0.342703 0.646332
vt 0.342703 0.651115
vt 0.352746 0.651115
vt 0.352746 0.646332
vt 0.350464 0.646332
vt 0.350464 0.651115
vt 0.350159 0.651115
vt 0.350159 0.646332
vt 0.347877 0.646332
vt 0.347877 0.651115
vt 0.254435 0.737611
vt 0.254435 0.732828
vt 0.252154 0.732828
vt 0.252154 0.737611
vt 0.251848 0.737611
vt 0.251848 0.732828
vt 0.249567 0.732828
vt 0.249567 0.737611
vt 0.259609 0.737611
vt 0.259609 0.732828
vt 0.257328 0.732828
vt 0.257328 0.737611
vt 0.830091 0.567479
vt 0.830091 0.569870
vt 0.825069 0.571079
vt 0.820048 0.569897
vt 0.820048 0.567506
vt 0.825069 0.566297
vt 0.848201 0.540551
vt 0.848201 0.535769
vt 0.845919 0.535769
vt 0.845919 0.540551
vt 0.845614 0.540857
vt 0.843332 0.540857
vt 0.843332 0.545639
vt 0.845614 0.545639
vt 0.858549 0.556121
vt 0.856268 0.556121
vt 0.856268 0.558359
vt 0.858549 0.558359
vt 0.843026 0.545639
vt 0.843026 0.540857
vt 0.840745 0.540857
vt 0.840745 0.545639
vt 0.850788 0.545639
vt 0.850788 0.540857
vt 0.848506 0.540857
vt 0.848506 0.545639
vt 0.938750 0.505241
vt 0.933881 0.505241
vt 0.933881 0.510023
vt 0.938750 0.510023
vt 0.912879 0.540857
vt 0.908010 0.540857
vt 0.908010 0.545639
vt 0.912879 0.545639
vt 0.907705 0.540857
vt 0.902836 0.540857
vt 0.902836 0.545639
vt 0.907705 0.545639
vt 0.912879 0.535769
vt 0.908010 0.535769
vt 0.908010 0.540551
vt 0.912879 0.540551
vt 0.907705 0.535769
vt 0.902836 0.535769
vt 0.902836 0.540551
vt 0.907705 0.540551
vt 0.943924 0.500153
vt 0.939056 0.500153
vt 0.939056 0.504935
vt 0.943924 0.504935
vt 0.938750 0.500153
vt 0.933881 0.500153
vt 0.933881 0.504935
vt 0.938750 0.504935
vt 0.943924 0.495065
vt 0.939056 0.495065
vt 0.939056 0.499847
vt 0.943924 0.499847
vt 0.938750 0.495065
vt 0.933881 0.495065
vt 0.933881 0.499847
vt 0.938750 0.499847
vt 0.902530 0.540857
vt 0.897662 0.540857
vt 0.897662 0.545639
vt 0.902530 0.545639
vt 0.897356 0.540857
vt 0.892487 0.540857
vt 0.892487 0.545639
vt 0.897356 0.545639
vt 0.902530 0.535769
vt 0.897662 0.535769
vt 0.897662 0.540551
vt 0.902530 0.540551
vt 0.897356 0.535769
vt 0.892487 0.535769
vt 0.892487 0.540551
vt 0.897356 0.540551
vt 0.943924 0.489977
vt 0.939056 0.489977
vt 0.939056 0.494759
vt 0.943924 0.494759
vt 0.938750 0.489977
vt 0.933881 0.489977
vt 0.933881 0.494759
vt 0.938750 0.494759
vt 0.943924 0.484889
vt 0.939056 0.484889
vt 0.939056 0.489671
vt 0.943924 0.489671
vt 0.938750 0.484889
vt 0.933881 0.484889
vt 0.933881 0.489671
vt 0.938750 0.489671
vt 0.912879 0.530681
vt 0.908010 0.530681
vt 0.908010 0.535463
vt 0.912879 0.535463
vt 0.907705 0.530681
vt 0.902836 0.530681
vt 0.902836 0.535463
vt 0.907705 0.535463
vt 0.912879 0.525593
vt 0.908010 0.525593
vt 0.908010 0.530375
vt 0.912879 0.530375
vt 0.848201 0.545639
vt 0.848201 0.540857
vt 0.845919 0.540857
vt 0.845919 0.545639
vt 0.969795 0.443879
vt 0.969795 0.434009
vt 0.964927 0.434009
vt 0.964927 0.443879
vt 0.944230 0.568535
vt 0.954273 0.568535
vt 0.954273 0.563753
vt 0.944230 0.563753
vt 0.969795 0.433703
vt 0.969795 0.423833
vt 0.964927 0.423833
vt 0.964927 0.433703
vt 0.933881 0.568535
vt 0.943924 0.568535
vt 0.943924 0.563753
vt 0.933881 0.563753
vt 0.967208 0.565991
vt 0.967208 0.556121
vt 0.962340 0.556121
vt 0.962340 0.565991
vt 0.923533 0.568535
vt 0.933576 0.568535
vt 0.933576 0.563753
vt 0.923533 0.563753
vt 0.907705 0.525593
vt 0.902836 0.525593
vt 0.902836 0.530375
vt 0.907705 0.530375
vt 0.923227 0.530681
vt 0.918359 0.530681
vt 0.918359 0.535463
vt 0.923227 0.535463
vt 0.918053 0.530681
vt 0.913184 0.530681
vt 0.913184 0.535463
vt 0.918053 0.535463
vt 0.923227 0.525593
vt 0.918359 0.525593
vt 0.918359 0.530375
vt 0.923227 0.530375
vt 0.918053 0.525593
vt 0.913184 0.525593
vt 0.913184 0.530375
vt 0.918053 0.530375
vt 0.933576 0.530681
vt 0.928707 0.530681
vt 0.928707 0.535463
vt 0.933576 0.535463
vt 0.928401 0.530681
vt 0.923533 0.530681
vt 0.923533 0.535463
vt 0.928401 0.535463
vt 0.933576 0.525593
vt 0.928707 0.525593
vt 0.928707 0.530375
vt 0.933576 0.530375
vt 0.290655 0.743004
vt 0.280612 0.743004
vt 0.280612 0.752875
vt 0.290655 0.752875
vt 0.363094 0.671772
vt 0.353051 0.671772
vt 0.353051 0.681643
vt 0.363094 0.681643
vn 0.1949 0.9527 -0.2332
vn 0.9975 0.0510 0.0483
vn 0.4519 -0.0163 0.8919
vn -0.5534 -0.0529 0.8313
vn -0.9986 -0.0247 -0.0471
vn -0.4527 0.0407 -0.8907
vn 0.0000 -1.0000 0.0000
vn 0.4640 0.4707 -0.7504
vn -0.4453 0.4378 -0.7811
vn -0.8890 0.4573 -0.0235
vn -0.4953 0.5023 0.7088
vn 0.3334 0.5332 0.7775
vn 0.8506 0.5210 0.0709
vn 0.4319 -0.3652 0.8247
vn -0.4182 -0.3199 -0.8501
vn -0.9345 -0.3514 -0.0566
vn -0.5018 -0.3754 0.7793
vn 0.5247 -0.3101 -0.7928
vn 0.9991 0.0024 0.0434
vn 0.4511 -0.0584 0.8905
vn -0.5578 -0.0653 0.8274
vn -0.9989 -0.0152 -0.0443
vn -0.4512 0.0437 -0.8913
vn 0.5578 0.0523 -0.8283
vn -0.9973 -0.0662 0.0327
vn 0.5226 -0.1304 0.8425
vn -0.5470 0.2693 -0.7927
vn -0.4581 -0.2647 0.8486
vn 0.9785 0.2056 0.0141
vn 0.7395 -0.6385 -0.2129
vn -0.1817 -0.9579 0.2221
vn -0.1817 -0.6330 -0.7525
vn 0.4126 -0.5205 -0.7475
vn 0.4126 -0.8650 0.2855
vn -0.4555 -0.8446 -0.2816
vn 0.4989 0.1853 -0.8467
vn 0.9995 0.0297 0.0083
vn 0.4952 -0.1341 0.8584
vn -0.4985 -0.1431 0.8550
vn -0.9999 0.0104 0.0029
vn -0.4981 0.1752 -0.8493
vn 0.4948 0.2866 -0.8204
vn 0.9982 0.0567 0.0174
vn 0.4972 -0.2281 0.8371
vn -0.4952 -0.2828 0.8215
vn -0.9984 -0.0546 -0.0167
vn -0.4973 0.2300 -0.8365
vn 0.4930 -0.1393 -0.8588
vn 0.9870 -0.1609 -0.0045
vn 0.4955 -0.1533 0.8550
vn -0.4949 -0.1137 -0.8615
vn -0.4971 -0.1251 0.8586
vn 0.4777 0.4204 -0.7714
vn 0.9110 0.4065 0.0702
vn 0.4341 0.3538 0.8285
vn -0.4475 0.2996 0.8426
vn -0.9533 0.2977 0.0514
vn -0.4852 0.3666 -0.7938
vn 0.0791 -0.9952 -0.0581
vn 0.0352 -0.9994 0.0070
vn -0.0432 -0.9991 0.0034
vn -0.0781 -0.9948 -0.0651
vn -0.0345 -0.9908 -0.1306
vn 0.0443 -0.9909 -0.1271
vn 0.5523 0.0790 -0.8299
vn -0.1569 0.9552 -0.2510
vn -0.3578 0.9329 0.0418
vn -0.2015 0.9120 0.3574
vn 0.1594 0.9139 0.3733
vn 0.3539 0.9324 0.0736
vn 0.5398 0.1254 -0.8324
vn 0.5475 0.0795 -0.8330
vn -0.4590 0.0879 -0.8841
vn -0.4547 0.0423 -0.8896
vn -0.9986 0.0213 -0.0494
vn -0.9985 -0.0243 -0.0492
vn -0.5496 -0.0093 0.8354
vn -0.5493 -0.0549 0.8338
vn 0.4491 0.0263 0.8931
vn 0.4533 -0.0196 0.8912
vn 0.9940 0.0945 0.0556
vn 0.9976 0.0486 0.0502
vn 0.1794 -0.9833 0.0310
vn -0.0494 -0.9584 -0.2812
vn 0.1409 -0.9860 0.0892
vn -0.2489 -0.9685 0.0125
vn 0.0186 -0.9602 -0.2788
vn -0.2195 -0.9729 0.0728
vn -0.3364 0.7449 -0.5762
vn -0.3653 0.6411 0.6750
vn 0.7630 0.6453 0.0380
vn 0.4600 0.7023 -0.5433
vn -0.7051 0.7087 -0.0237
vn 0.3251 0.6192 0.7148
vn 0.1587 0.9788 -0.1296
vn -0.1984 0.9788 0.0513
vn 0.1342 0.9549 0.2650
vn -0.0696 0.9881 -0.1374
vn -0.0995 0.9622 0.2537
vn 0.2634 0.9622 0.0698
vn -0.1843 0.9131 -0.3638
vn -0.2552 0.8434 0.4728
vn 0.5322 0.8434 0.0740
vn 0.2998 0.8875 -0.3500
vn -0.4595 0.8875 0.0346
vn 0.2554 0.8250 0.5041
vn 0.4505 0.0157 0.8926
vn -0.9771 0.2071 -0.0480
vn 0.5709 0.2027 -0.7956
vn 0.9960 0.0799 0.0397
vn -0.5452 0.0783 0.8346
vn -0.4576 0.2727 -0.8463
vn -0.8823 0.4252 0.2016
vn 0.3682 0.3356 0.8670
vn 0.2674 0.7952 -0.5441
vn -0.5510 0.6851 -0.4766
vn -0.4559 0.2518 0.8537
vn 0.7700 0.6208 0.1472
vn 0.4106 0.8752 0.2557
vn -0.6186 0.7330 0.2829
vn 0.1393 0.6858 0.7143
vn 0.0749 0.9795 -0.1873
vn -0.4310 0.8935 -0.1257
vn -0.3735 0.6312 0.6798
vn 0.4929 0.1456 -0.8578
vn 0.5257 -0.3806 0.7608
vn -0.8714 -0.4706 -0.1383
vn 0.9998 0.0008 -0.0204
vn -0.4098 -0.6101 0.6782
vn -0.4400 -0.0954 -0.8929
vn -0.0718 -0.7874 -0.6123
vn -0.0718 -0.9973 0.0172
vn 0.3956 -0.8713 -0.2905
vn -0.2976 -0.9057 -0.3020
vn 0.2730 -0.9614 -0.0344
vn 0.2730 -0.7896 -0.5495
vn 0.1132 0.9468 -0.3012
vn 0.7115 -0.0127 -0.7026
vn 0.9558 -0.1304 0.2636
vn 0.2345 -0.0966 0.9673
vn -0.7083 0.0467 0.7043
vn -0.9520 0.1586 -0.2616
vn -0.2432 0.4424 -0.8632
vn -0.8885 0.4110 -0.2042
vn -0.6276 0.4303 0.6488
vn 0.1943 0.4744 0.8586
vn 0.8169 0.5041 0.2805
vn 0.6376 0.4913 -0.5934
vn 0.8898 -0.3915 0.2347
vn -0.9016 -0.3439 -0.2625
vn -0.6645 -0.3792 0.6440
vn 0.2337 -0.4044 0.8842
vn -0.2294 -0.3320 -0.9150
vn 0.6855 -0.1662 -0.7088
vn 0.9207 -0.2856 0.2658
vn 0.2147 -0.1187 0.9694
vn -0.6888 0.1538 0.7084
vn -0.9250 0.2710 -0.2664
vn -0.2180 0.1062 -0.9701
vn -0.1499 -0.9839 -0.0976
vn -0.1324 -0.9910 -0.0213
vn -0.1871 -0.9817 0.0342
vn -0.2596 -0.9656 0.0137
vn -0.2776 -0.9587 -0.0626
vn -0.2226 -0.9677 -0.1185
vn -0.2312 0.1299 -0.9642
vn -0.1336 0.9896 -0.0535
vn -0.0576 0.9546 0.2923
vn 0.2730 0.8795 0.3898
vn 0.5252 0.8403 0.1341
vn 0.4393 0.8731 -0.2116
vn -0.2510 0.1642 -0.9540
vn -0.2461 0.1076 -0.9633
vn -0.9604 0.1148 -0.2539
vn -0.9631 0.0572 -0.2631
vn -0.7097 0.0278 0.7039
vn -0.7100 -0.0328 0.7034
vn 0.2460 -0.0122 0.9692
vn 0.2454 -0.0742 0.9666
vn 0.9617 0.0345 0.2719
vn 0.9636 -0.0265 0.2660
vn 0.7105 0.1239 -0.6927
vn 0.7099 0.0658 -0.7013
vn -0.0976 -0.9890 -0.1115
vn -0.4651 -0.8719 -0.1532
vn -0.0818 -0.9957 -0.0438
vn -0.3877 -0.9015 0.1921
vn -0.4193 -0.8851 -0.2018
vn -0.3263 -0.9214 0.2111
vn -0.4532 0.8803 -0.1404
vn 0.3991 0.5613 0.7250
vn 0.6825 0.4952 -0.5376
vn 0.0814 0.7034 -0.7061
vn -0.3075 0.8068 0.5045
vn 0.8743 0.4206 0.2423
vn 0.2473 0.9471 -0.2046
vn 0.1431 0.9730 0.1810
vn 0.5082 0.8576 0.0797
vn 0.0945 0.9947 -0.0413
vn 0.3488 0.9047 0.2446
vn 0.4547 0.8784 -0.1473
vn -0.2989 0.9433 -0.1442
vn 0.3759 0.6746 0.6353
vn 0.6694 0.5951 -0.4447
vn 0.1036 0.8025 -0.5876
vn -0.1718 0.8763 0.4501
vn 0.8263 0.5311 0.1876
vn 0.9382 -0.2171 0.2697
vn -0.6241 0.3686 0.6889
vn -0.1472 0.2455 -0.9582
vn 0.6998 -0.0917 -0.7084
vn 0.2598 0.0160 0.9655
vn -0.8400 0.4899 -0.2331
vn -0.7628 0.1236 -0.6348
vn -0.2635 -0.3050 -0.9152
vn -0.7041 0.0828 0.7052
vn 0.6535 0.0458 -0.7555
vn -0.9412 -0.2812 -0.1875
vn 0.2241 0.4279 0.8756
vn 0.3735 -0.2920 0.8805
vn -0.2409 -0.9171 0.3177
vn 0.6866 -0.7269 -0.0126
vn 0.8109 -0.3779 0.4468
vn -0.1716 -0.5794 0.7968
vn 0.1789 -0.9819 -0.0631
vn 0.9426 0.2141 0.2563
vn 0.2388 0.1538 0.9588
vn -0.7098 -0.0423 0.7032
vn -0.9494 -0.1714 -0.2633
vn -0.2506 -0.1067 -0.9622
vn 0.6982 0.0823 -0.7112
vn 0.9212 0.3382 0.1922
vn 0.2528 0.2547 0.9334
vn -0.6602 -0.0693 0.7479
vn -0.9286 -0.3102 -0.2037
vn -0.2634 -0.2147 -0.9405
vn 0.6471 0.0966 -0.7563
vn 0.9460 -0.1460 0.2894
vn 0.2237 -0.1690 0.9599
vn -0.7224 -0.1615 0.6723
vn 0.7296 -0.1192 -0.6735
vn -0.9467 -0.1318 -0.2938
vn 0.8827 0.3853 0.2690
vn 0.1753 0.3433 0.9227
vn -0.7263 0.2961 0.6203
vn -0.9162 0.2960 -0.2701
vn -0.2743 0.3265 -0.9045
vn 0.6445 0.3703 -0.6690
vn -0.3678 0.2274 -0.9017
vn -0.7495 0.4956 0.4389
vn 0.6264 0.7778 -0.0511
vn 0.3777 0.4885 -0.7866
vn -0.9193 0.2226 -0.3246
vn 0.0532 0.7935 0.6062
vn -0.1185 0.9673 0.2242
vn -0.3752 0.5943 -0.7114
vn -0.6336 0.7665 0.1049
vn 0.2455 0.9468 -0.2081
vn 0.0715 0.7527 -0.6545
vn -0.7138 0.5917 -0.3748
vn 0.9572 0.1209 0.2629
vn -0.5628 -0.1908 0.8043
vn -0.1447 -0.6257 -0.7665
vn 0.3082 0.1330 0.9420
vn -0.8156 -0.5771 -0.0417
vn 0.7569 -0.2547 -0.6019
vn 0.5810 -0.7969 0.1653
vn -0.0327 -0.9228 0.3839
vn 0.3712 -0.6378 0.6749
vn 0.2283 -0.9701 0.0825
vn 0.0942 -0.7463 0.6589
vn 0.5964 -0.6433 0.4800
vn -0.1401 0.1885 0.9720
vn 0.9319 -0.0974 -0.3493
vn -0.9105 0.2405 0.3364
vn 0.7824 0.0208 0.6224
vn 0.1595 -0.0488 -0.9860
vn 0.0238 -0.7801 -0.6252
vn 0.3780 -0.8256 0.4188
vn -0.6624 -0.7110 0.2361
vn -0.5847 -0.7146 -0.3840
vn 0.5138 -0.8365 -0.1904
vn -0.1921 -0.7655 0.6141
vn -0.7652 -0.0419 -0.6424
vn 0.1470 -0.0679 -0.9868
vn 0.9277 -0.1705 -0.3320
vn 0.7474 -0.2304 0.6231
vn 0.7587 0.1378 0.6366
vn -0.1476 -0.2022 0.9682
vn -0.7411 0.2250 -0.6326
vn 0.1740 -0.0190 -0.9846
vn 0.9184 -0.2037 -0.3393
vn 0.7556 -0.1476 0.6382
vn -0.1634 0.0946 0.9820
vn -0.8992 0.2779 0.3378
vn -0.0489 0.6455 0.7622
vn 0.8625 0.3627 -0.3530
vn -0.5899 0.5453 -0.5956
vn -0.7067 0.6696 0.2284
vn 0.7336 0.4888 0.4721
vn 0.1984 0.3935 -0.8977
vn 0.1925 0.8061 -0.5596
vn 0.0610 0.9427 0.3280
vn 0.5613 0.7855 -0.2608
vn -0.2305 0.8937 -0.3850
vn -0.2806 0.9585 0.0513
vn 0.4791 0.8573 0.1881
vn -0.7796 -0.1518 -0.6076
vn 0.8646 -0.3931 -0.3131
vn -0.1916 -0.2405 0.9515
vn 0.1311 -0.2848 -0.9496
vn 0.6899 -0.3718 0.6212
vn -0.9294 -0.1287 0.3458
vn -0.4647 -0.8650 0.1895
vn 0.1851 -0.9342 0.3051
vn -0.0669 -0.9757 -0.2085
vn -0.1755 -0.8660 0.4682
vn 0.1801 -0.9828 -0.0420
vn -0.3517 -0.9261 -0.1366
vn -0.1360 0.2552 0.9573
vn -0.9381 -0.1112 0.3281
vn 0.9022 0.3186 -0.2907
vn 0.1858 0.5293 -0.8278
vn -0.6156 0.5866 -0.5262
vn -0.2522 0.0480 -0.9665
vn -0.9650 0.0326 -0.2604
vn -0.7096 0.0366 0.7037
vn 0.2422 0.0533 0.9688
vn 0.9580 0.0668 0.2788
vn 0.7152 0.0654 -0.6958
vn 0.6631 -0.3545 -0.6592
vn 0.9478 0.1224 0.2946
vn 0.2110 0.0907 0.9733
vn -0.7377 0.0717 0.6713
vn -0.9536 0.0854 -0.2887
vn -0.2378 0.1108 -0.9650
vn 0.7195 0.1290 -0.6824
vn -0.2177 -0.1127 -0.9695
vn -0.9163 0.2054 0.3438
vn -0.1446 0.0222 0.9892
vn 0.7649 -0.0545 0.6419
vn 0.9431 0.0694 -0.3252
vn 0.1596 0.2501 -0.9550
vn -0.7339 0.3004 -0.6092
vn -0.8095 0.4888 0.3253
vn 0.5418 0.0748 -0.8372
vn -0.4594 0.0592 -0.8862
vn -0.9967 0.0659 -0.0482
vn -0.5511 0.0855 0.8300
vn 0.4377 0.0992 0.8936
vn 0.9937 0.0951 0.0592
vn 0.9424 -0.3315 0.0452
vn 0.5014 0.1453 -0.8529
vn 0.9910 0.1323 0.0197
vn 0.4875 0.1079 0.8664
vn -0.4899 0.0896 0.8672
vn -0.9952 0.0964 0.0142
vn -0.5015 0.1278 -0.8557
vn -0.9942 -0.1072 -0.0030
vn 0.4340 0.4047 -0.8049
vn 0.9014 0.4120 0.1334
usemtl low_poly_mushrooms_texture_atlas
s off
f 55/1/1 66/2/1 29/3/1 24/4/1
f 69/5/2 65/6/2 64/7/2 78/8/2
f 78/9/3 64/10/3 62/11/3 76/12/3
f 76/13/4 62/14/4 60/15/4 74/16/4
f 74/17/5 60/18/5 58/19/5 72/20/5
f 72/21/6 58/22/6 56/23/6 68/24/6
f 1/25/7 3/26/7 5/27/7 7/28/7 9/29/7 11/30/7
f 353/31/8 18/32/8 13/33/8 342/34/8
f 351/35/9 17/36/9 18/37/9 353/38/9
f 349/39/10 16/40/10 17/41/10 351/42/10
f 347/43/11 15/44/11 16/45/11 349/46/11
f 345/47/12 14/48/12 15/49/12 347/50/12
f 342/51/13 13/52/13 14/53/13 345/54/13
f 3/55/14 344/56/14 346/57/14 5/58/14
f 9/59/15 350/60/15 352/61/15 11/62/15
f 7/63/16 348/64/16 350/65/16 9/66/16
f 5/67/17 346/68/17 348/69/17 7/70/17
f 11/71/18 352/72/18 343/73/18 1/74/18
f 66/75/19 2/76/19 4/77/19 63/78/19
f 63/79/20 4/80/20 6/81/20 61/82/20
f 61/83/21 6/84/21 8/85/21 59/86/21
f 59/87/22 8/88/22 10/89/22 57/90/22
f 57/91/23 10/92/23 12/93/23 55/94/23
f 55/95/24 12/96/24 2/97/24 66/98/24
f 121/99/25 115/100/25 114/101/25 122/102/25
f 119/103/26 113/104/26 112/105/26 120/106/26
f 114/107/27 111/108/27 117/109/27 122/110/27
f 112/111/28 115/112/28 121/113/28 120/114/28
f 116/115/29 113/116/29 119/117/29 118/118/29
f 38/119/30 37/120/30 30/121/30 23/122/30
f 40/123/31 39/124/31 22/125/31 21/126/31
f 41/127/32 42/128/32 19/129/32 20/130/32
f 37/131/33 41/132/33 20/133/33 30/134/33
f 39/135/34 38/136/34 23/137/34 22/138/34
f 42/139/35 40/140/35 21/141/35 19/142/35
f 48/143/36 33/144/36 36/145/36 47/146/36
f 47/147/37 36/148/37 35/149/37 46/150/37
f 46/151/38 35/152/38 34/153/38 45/154/38
f 45/155/39 34/156/39 32/157/39 44/158/39
f 44/159/40 32/160/40 31/161/40 43/162/40
f 43/163/41 31/164/41 33/165/41 48/166/41
f 33/167/42 41/168/42 37/169/42 36/170/42
f 36/171/43 37/172/43 38/173/43 35/174/43
f 35/175/44 38/176/44 39/177/44 34/178/44
f 34/179/45 39/180/45 40/181/45 32/182/45
f 32/183/46 40/184/46 42/185/46 31/186/46
f 31/187/47 42/188/47 41/189/47 33/190/47
f 54/191/48 364/192/48 363/193/48 53/194/48
f 53/195/49 363/196/49 361/197/49 52/198/49
f 52/199/50 361/200/50 359/201/50 51/202/50
f 49/203/51 355/204/51 364/205/51 54/206/51
f 51/207/52 359/208/52 357/209/52 50/210/52
f 365/211/53 48/212/53 47/213/53 362/214/53
f 362/215/54 47/216/54 46/217/54 360/218/54
f 360/219/55 46/220/55 45/221/55 358/222/55
f 358/223/56 45/224/56 44/225/56 356/226/56
f 356/227/57 44/228/57 43/229/57 354/230/57
f 354/231/58 43/232/58 48/233/58 365/234/58
f 54/235/7 53/236/7 52/237/7 51/238/7 50/239/7 49/240/7
f 29/241/59 28/242/59 64/243/59 65/244/59
f 28/245/60 27/246/60 62/247/60 64/248/60
f 27/249/61 26/250/61 60/251/61 62/252/61
f 26/253/62 25/254/62 58/255/62 60/256/62
f 25/257/63 24/258/63 56/259/63 58/260/63
f 24/261/64 29/262/64 65/263/64 56/264/64
f 68/265/65 56/266/65 65/267/65 69/268/65
f 57/269/66 55/270/66 24/271/66 25/272/66
f 59/273/67 57/274/67 25/275/67 26/276/67
f 61/277/68 59/278/68 26/279/68 27/280/68
f 63/281/69 61/282/69 27/283/69 28/284/69
f 66/285/70 63/286/70 28/287/70 29/288/70
f 18/289/71 67/290/71 70/291/71 13/292/71
f 67/293/72 68/294/72 69/295/72 70/296/72
f 17/297/73 71/298/73 67/299/73 18/300/73
f 71/301/74 72/302/74 68/303/74 67/304/74
f 16/305/75 73/306/75 71/307/75 17/308/75
f 73/309/76 74/310/76 72/311/76 71/312/76
f 15/313/77 75/314/77 73/315/77 16/316/77
f 75/317/78 76/318/78 74/319/78 73/320/78
f 14/321/79 77/322/79 75/323/79 15/324/79
f 77/325/80 78/326/80 76/327/80 75/328/80
f 13/329/81 70/330/81 77/331/81 14/332/81
f 70/333/82 69/334/82 78/335/82 77/336/82
f 10/337/83 8/338/83 82/339/83 83/340/83
f 6/341/84 4/342/84 80/343/84 81/344/84
f 12/345/85 10/346/85 83/347/85 84/348/85
f 4/349/86 2/350/86 79/351/86 80/352/86
f 8/353/87 6/354/87 81/355/87 82/356/87
f 2/357/88 12/358/88 84/359/88 79/360/88
f 101/361/89 102/362/89 89/363/89 90/364/89
f 99/365/90 100/366/90 87/367/90 88/368/90
f 103/369/91 98/370/91 85/371/91 86/372/91
f 98/373/92 101/374/92 90/375/92 85/376/92
f 102/377/93 99/378/93 88/379/93 89/380/93
f 100/381/94 103/382/94 86/383/94 87/384/94
f 85/385/95 90/386/95 96/387/95 91/388/95
f 89/389/96 88/390/96 94/391/96 95/392/96
f 87/393/97 86/394/97 92/395/97 93/396/97
f 90/397/98 89/398/98 95/399/98 96/400/98
f 88/401/99 87/402/99 93/403/99 94/404/99
f 86/405/100 85/406/100 91/407/100 92/408/100
f 96/409/101 95/410/101 97/411/101
f 94/412/102 93/413/102 97/414/102
f 92/415/103 91/416/103 97/417/103
f 91/418/104 96/419/104 97/420/104
f 95/421/105 94/422/105 97/423/105
f 93/424/106 92/425/106 97/426/106
f 81/427/107 80/428/107 103/429/107 100/430/107
f 83/431/108 82/432/108 99/433/108 102/434/108
f 79/435/109 84/436/109 101/437/109 98/438/109
f 80/439/110 79/440/110 98/441/110 103/442/110
f 82/443/111 81/444/111 100/445/111 99/446/111
f 84/447/112 83/448/112 102/449/112 101/450/112
f 114/451/113 115/452/113 106/453/113 104/454/113
f 112/455/114 113/456/114 108/457/114 107/458/114
f 116/459/115 111/460/115 105/461/115 109/462/115
f 111/463/116 114/464/116 104/465/116 105/466/116
f 115/467/117 112/468/117 107/469/117 106/470/117
f 113/471/118 116/472/118 109/473/118 108/474/118
f 108/475/119 109/476/119 110/477/119
f 104/478/120 106/479/120 110/480/120
f 107/481/121 108/482/121 110/483/121
f 109/484/122 105/485/122 110/486/122
f 105/487/123 104/488/123 110/489/123
f 106/490/124 107/491/124 110/492/124
f 123/493/125 126/494/125 117/495/125 118/496/125
f 124/497/126 127/498/126 119/499/126 120/500/126
f 125/501/127 128/502/127 121/503/127 122/504/127
f 127/505/128 123/506/128 118/507/128 119/508/128
f 128/509/129 124/510/129 120/511/129 121/512/129
f 126/513/130 125/514/130 122/515/130 117/516/130
f 20/517/131 19/518/131 125/519/131 126/520/131
f 21/521/132 22/522/132 124/523/132 128/524/132
f 23/525/133 30/526/133 123/527/133 127/528/133
f 19/529/134 21/530/134 128/531/134 125/532/134
f 22/533/135 23/534/135 127/535/135 124/536/135
f 30/537/136 20/538/136 126/539/136 123/540/136
f 153/541/137 164/542/137 152/543/137 147/544/137
f 167/545/138 163/546/138 162/547/138 176/548/138
f 176/549/139 162/550/139 160/551/139 174/552/139
f 174/553/140 160/554/140 158/555/140 172/556/140
f 172/557/141 158/558/141 156/559/141 170/560/141
f 170/561/142 156/562/142 154/563/142 166/564/142
f 129/565/7 131/566/7 133/567/7 135/568/7 137/569/7 139/570/7
f 317/571/143 146/572/143 141/573/143 306/574/143
f 315/575/144 145/576/144 146/577/144 317/578/144
f 313/579/145 144/580/145 145/581/145 315/582/145
f 311/583/146 143/584/146 144/585/146 313/586/146
f 309/587/147 142/588/147 143/589/147 311/590/147
f 306/591/148 141/592/148 142/593/148 309/594/148
f 131/595/149 308/596/149 310/597/149 133/598/149
f 137/599/150 314/600/150 316/601/150 139/602/150
f 135/603/151 312/604/151 314/605/151 137/606/151
f 133/607/152 310/608/152 312/609/152 135/610/152
f 139/611/153 316/612/153 307/613/153 129/614/153
f 164/615/154 130/616/154 132/617/154 161/618/154
f 161/619/155 132/620/155 134/621/155 159/622/155
f 159/623/156 134/624/156 136/625/156 157/626/156
f 157/627/157 136/628/157 138/629/157 155/630/157
f 155/631/158 138/632/158 140/633/158 153/634/158
f 153/635/159 140/636/159 130/637/159 164/638/159
f 152/639/160 151/640/160 162/641/160 163/642/160
f 151/643/161 150/644/161 160/645/161 162/646/161
f 150/647/162 149/648/162 158/649/162 160/650/162
f 149/651/163 148/652/163 156/653/163 158/654/163
f 148/655/164 147/656/164 154/657/164 156/658/164
f 147/659/165 152/660/165 163/661/165 154/662/165
f 166/663/166 154/664/166 163/665/166 167/666/166
f 155/667/167 153/668/167 147/669/167 148/670/167
f 157/671/168 155/672/168 148/673/168 149/674/168
f 159/675/169 157/676/169 149/677/169 150/678/169
f 161/679/170 159/680/170 150/681/170 151/682/170
f 164/683/171 161/684/171 151/685/171 152/686/171
f 146/687/172 165/688/172 168/689/172 141/690/172
f 165/691/173 166/692/173 167/693/173 168/694/173
f 145/695/174 169/696/174 165/697/174 146/698/174
f 169/699/175 170/700/175 166/701/175 165/702/175
f 144/703/176 171/704/176 169/705/176 145/706/176
f 171/707/177 172/708/177 170/709/177 169/710/177
f 143/711/178 173/712/178 171/713/178 144/714/178
f 173/715/179 174/716/179 172/717/179 171/718/179
f 142/719/180 175/720/180 173/721/180 143/722/180
f 175/723/181 176/724/181 174/725/181 173/726/181
f 141/727/182 168/728/182 175/729/182 142/730/182
f 168/731/183 167/732/183 176/733/183 175/734/183
f 138/735/184 136/736/184 180/737/184 181/738/184
f 134/739/185 132/740/185 178/741/185 179/742/185
f 140/743/186 138/744/186 181/745/186 182/746/186
f 132/747/187 130/748/187 177/749/187 178/750/187
f 136/751/188 134/752/188 179/753/188 180/754/188
f 130/755/189 140/756/189 182/757/189 177/758/189
f 199/759/190 200/760/190 187/761/190 188/762/190
f 197/763/191 198/764/191 185/765/191 186/766/191
f 201/767/192 196/768/192 183/769/192 184/770/192
f 196/771/193 199/772/193 188/773/193 183/774/193
f 200/775/194 197/776/194 186/777/194 187/778/194
f 198/779/195 201/780/195 184/781/195 185/782/195
f 183/783/196 188/784/196 194/785/196 189/786/196
f 187/787/197 186/788/197 192/789/197 193/790/197
f 185/791/198 184/792/198 190/793/198 191/794/198
f 188/795/199 187/796/199 193/797/199 194/798/199
f 186/799/200 185/800/200 191/801/200 192/802/200
f 184/803/201 183/804/201 189/805/201 190/806/201
f 194/807/202 193/808/202 195/809/202
f 192/810/203 191/811/203 195/812/203
f 190/813/204 189/814/204 195/815/204
f 189/816/205 194/817/205 195/818/205
f 193/819/206 192/820/206 195/821/206
f 191/822/207 190/823/207 195/824/207
f 179/825/208 178/826/208 201/827/208 198/828/208
f 181/829/209 180/830/209 197/831/209 200/832/209
f 177/833/210 182/834/210 199/835/210 196/836/210
f 178/837/211 177/838/211 196/839/211 201/840/211
f 180/841/212 179/842/212 198/843/212 197/844/212
f 182/845/213 181/846/213 200/847/213 199/848/213
f 294/849/214 288/850/214 293/851/214 295/852/214
f 249/853/215 243/854/215 242/855/215 250/856/215
f 247/857/216 241/858/216 240/859/216 248/860/216
f 242/861/217 239/862/217 245/863/217 250/864/217
f 240/865/218 243/866/218 249/867/218 248/868/218
f 244/869/219 241/870/219 247/871/219 246/872/219
f 215/873/220 214/874/220 207/875/220 206/876/220
f 217/877/221 216/878/221 205/879/221 204/880/221
f 218/881/222 219/882/222 202/883/222 203/884/222
f 214/885/223 218/886/223 203/887/223 207/888/223
f 216/889/224 215/890/224 206/891/224 205/892/224
f 219/893/225 217/894/225 204/895/225 202/896/225
f 225/897/226 210/898/226 213/899/226 224/900/226
f 224/901/227 213/902/227 212/903/227 223/904/227
f 223/905/228 212/906/228 211/907/228 222/908/228
f 222/909/229 211/910/229 209/911/229 221/912/229
f 221/913/230 209/914/230 208/915/230 220/916/230
f 220/917/231 208/918/231 210/919/231 225/920/231
f 210/921/232 218/922/232 214/923/232 213/924/232
f 213/925/233 214/926/233 215/927/233 212/928/233
f 212/929/234 215/930/234 216/931/234 211/932/234
f 211/933/235 216/934/235 217/935/235 209/936/235
f 209/937/236 217/938/236 219/939/236 208/940/236
f 208/941/237 219/942/237 218/943/237 210/944/237
f 231/945/238 328/946/238 327/947/238 230/948/238
f 230/949/239 327/950/239 325/951/239 229/952/239
f 229/953/240 325/954/240 323/955/240 228/956/240
f 226/957/241 319/958/241 328/959/241 231/960/241
f 228/961/242 323/962/242 321/963/242 227/964/242
f 329/965/243 225/966/243 224/967/243 326/968/243
f 326/969/244 224/970/244 223/971/244 324/972/244
f 324/973/245 223/974/245 222/975/245 322/976/245
f 322/977/246 222/978/246 221/979/246 320/980/246
f 320/981/247 221/982/247 220/983/247 318/984/247
f 318/985/248 220/986/248 225/987/248 329/988/248
f 231/989/7 230/990/7 229/991/7 228/992/7 227/993/7 226/994/7
f 242/995/249 243/996/249 234/997/249 232/998/249
f 240/999/250 241/1000/250 236/1001/250 235/1002/250
f 244/1003/251 239/1004/251 233/1005/251 237/1006/251
f 239/1007/252 242/1008/252 232/1009/252 233/1010/252
f 243/1011/253 240/1012/253 235/1013/253 234/1014/253
f 241/1015/254 244/1016/254 237/1017/254 236/1018/254
f 236/1019/255 237/1020/255 238/1021/255
f 232/1022/256 234/1023/256 238/1024/256
f 235/1025/257 236/1026/257 238/1027/257
f 237/1028/258 233/1029/258 238/1030/258
f 233/1031/259 232/1032/259 238/1033/259
f 234/1034/260 235/1035/260 238/1036/260
f 251/1037/261 254/1038/261 245/1039/261 246/1040/261
f 252/1041/262 255/1042/262 247/1043/262 248/1044/262
f 253/1045/263 256/1046/263 249/1047/263 250/1048/263
f 255/1049/264 251/1050/264 246/1051/264 247/1052/264
f 256/1053/265 252/1054/265 248/1055/265 249/1056/265
f 254/1057/266 253/1058/266 250/1059/266 245/1060/266
f 203/1061/267 202/1062/267 253/1063/267 254/1064/267
f 204/1065/268 205/1066/268 252/1067/268 256/1068/268
f 206/1069/269 207/1070/269 251/1071/269 255/1072/269
f 202/1073/270 204/1074/270 256/1075/270 253/1076/270
f 205/1077/271 206/1078/271 255/1079/271 252/1080/271
f 207/1081/272 203/1082/272 254/1083/272 251/1084/272
f 298/1085/273 292/1086/273 291/1087/273 299/1088/273
f 296/1089/274 290/1090/274 289/1091/274 297/1092/274
f 291/1093/275 288/1094/275 294/1095/275 299/1096/275
f 289/1097/276 292/1098/276 298/1099/276 297/1100/276
f 293/1101/277 290/1102/277 296/1103/277 295/1104/277
f 270/1105/278 269/1106/278 262/1107/278 261/1108/278
f 272/1109/279 271/1110/279 260/1111/279 259/1112/279
f 273/1113/280 274/1114/280 257/1115/280 258/1116/280
f 269/1117/281 273/1118/281 258/1119/281 262/1120/281
f 271/1121/282 270/1122/282 261/1123/282 260/1124/282
f 274/1125/283 272/1126/283 259/1127/283 257/1128/283
f 280/1129/284 341/1130/284 338/1131/284 279/1132/284
f 279/1133/285 338/1134/285 336/1135/285 278/1136/285
f 278/1137/286 336/1138/286 334/1139/286 277/1140/286
f 277/1141/287 334/1142/287 332/1143/287 276/1144/287
f 335/1145/288 266/1146/288 264/1147/288 333/1148/288
f 276/1149/289 332/1150/289 330/1151/289 275/1152/289
f 265/1153/290 273/1154/290 269/1155/290 268/1156/290
f 268/1157/291 269/1158/291 270/1159/291 267/1160/291
f 267/1161/292 270/1162/292 271/1163/292 266/1164/292
f 266/1165/293 271/1166/293 272/1167/293 264/1168/293
f 264/1169/294 272/1170/294 274/1171/294 263/1172/294
f 263/1173/295 274/1174/295 273/1175/295 265/1176/295
f 291/1177/296 292/1178/296 283/1179/296 281/1180/296
f 289/1181/297 290/1182/297 285/1183/297 284/1184/297
f 293/1185/298 288/1186/298 282/1187/298 286/1188/298
f 288/1189/299 291/1190/299 281/1191/299 282/1192/299
f 292/1193/300 289/1194/300 284/1195/300 283/1196/300
f 290/1197/301 293/1198/301 286/1199/301 285/1200/301
f 285/1201/302 286/1202/302 287/1203/302
f 281/1204/303 283/1205/303 287/1206/303
f 284/1207/304 285/1208/304 287/1209/304
f 286/1210/305 282/1211/305 287/1212/305
f 282/1213/306 281/1214/306 287/1215/306
f 283/1216/307 284/1217/307 287/1218/307
f 300/1219/308 303/1220/308 294/1221/308 295/1222/308
f 301/1223/309 304/1224/309 296/1225/309 297/1226/309
f 302/1227/310 305/1228/310 298/1229/310 299/1230/310
f 304/1231/311 300/1232/311 295/1233/311 296/1234/311
f 305/1235/312 301/1236/312 297/1237/312 298/1238/312
f 303/1239/313 302/1240/313 299/1241/313 294/1242/313
f 258/1243/314 257/1244/314 302/1245/314 303/1246/314
f 259/1247/315 260/1248/315 301/1249/315 305/1250/315
f 261/1251/316 262/1252/316 300/1253/316 304/1254/316
f 257/1255/317 259/1256/317 305/1257/317 302/1258/317
f 260/1259/318 261/1260/318 304/1261/318 301/1262/318
f 262/1263/319 258/1264/319 303/1265/319 300/1266/319
f 280/1267/7 279/1268/7 278/1269/7 277/1270/7 276/1271/7 275/1272/7
f 333/1273/320 264/1274/320 263/1275/320 331/1276/320
f 275/1277/321 330/1278/321 341/1279/321 280/1280/321
f 337/1281/322 267/1282/322 266/1283/322 335/1284/322
f 339/1285/323 268/1286/323 267/1287/323 337/1288/323
f 340/1289/324 265/1290/324 268/1291/324 339/1292/324
f 317/1293/325 306/1294/325 307/1295/325 316/1296/325
f 315/1297/326 317/1298/326 316/1299/326 314/1300/326
f 313/1301/327 315/1302/327 314/1303/327 312/1304/327
f 311/1305/328 313/1306/328 312/1307/328 310/1308/328
f 309/1309/329 311/1310/329 310/1311/329 308/1312/329
f 306/1313/330 309/1314/330 308/1315/330 307/1316/330
f 129/1317/331 307/1318/331 308/1319/331 131/1320/331
f 329/1321/332 326/1322/332 327/1323/332 328/1324/332
f 326/1325/333 324/1326/333 325/1327/333 327/1328/333
f 324/1329/334 322/1330/334 323/1331/334 325/1332/334
f 322/1333/335 320/1334/335 321/1335/335 323/1336/335
f 320/1337/336 318/1338/336 319/1339/336 321/1340/336
f 318/1341/337 329/1342/337 328/1343/337 319/1344/337
f 227/1345/338 321/1346/338 319/1347/338 226/1348/338
f 331/1349/339 340/1350/339 341/1351/339 330/1352/339
f 333/1353/340 331/1354/340 330/1355/340 332/1356/340
f 335/1357/341 333/1358/341 332/1359/341 334/1360/341
f 337/1361/342 335/1362/342 334/1363/342 336/1364/342
f 339/1365/343 337/1366/343 336/1367/343 338/1368/343
f 340/1369/344 339/1370/344 338/1371/344 341/1372/344
f 331/1373/345 263/1374/345 265/1375/345 340/1376/345
f 353/1377/346 342/1378/346 343/1379/346 352/1380/346
f 351/1381/347 353/1382/347 352/1383/347 350/1384/347
f 349/1385/348 351/1386/348 350/1387/348 348/1388/348
f 347/1389/349 349/1390/349 348/1391/349 346/1392/349
f 345/1393/350 347/1394/350 346/1395/350 344/1396/350
f 342/1397/351 345/1398/351 344/1399/351 343/1400/351
f 1/1401/352 343/1402/352 344/1403/352 3/1404/352
f 365/1405/353 362/1406/353 363/1407/353 364/1408/353
f 362/1409/354 360/1410/354 361/1411/354 363/1412/354
f 360/1413/355 358/1414/355 359/1415/355 361/1416/355
f 358/1417/356 356/1418/356 357/1419/356 359/1420/356
f 356/1421/357 354/1422/357 355/1423/357 357/1424/357
f 354/1425/358 365/1426/358 364/1427/358 355/1428/358
f 50/1429/359 357/1430/359 355/1431/359 49/1432/359
f 117/1433/360 111/1434/360 116/1435/360 118/1436/360
f 245/1437/361 239/1438/361 244/1439/361 246/1440/361
