# Blender v2.82 (sub 7) OBJ File: 'low_poly_mushrooms.blend'
# www.blender.org
mtllib yellow_mushroom.mtl
o yellow_mushroom_Cylinder.040
v 0.076636 0.000000 -0.137200
v 0.118048 0.000000 -0.113290
v 0.118048 0.000000 -0.065472
v 0.076636 0.000000 -0.041562
v 0.035223 0.000000 -0.065472
v 0.035223 0.000000 -0.113290
v 0.014881 0.173167 -0.203143
v 0.082595 0.039939 -0.118217
v 0.111825 0.046488 -0.101962
v 0.089532 0.198639 -0.151001
v 0.111825 0.047315 -0.069156
v 0.089532 0.216493 -0.041332
v 0.082595 0.041593 -0.052592
v 0.014881 0.208876 0.016198
v 0.053375 0.036028 -0.068865
v -0.096480 0.182333 -0.035769
v 0.053375 0.035201 -0.101685
v -0.096480 0.164479 -0.145440
v 0.052359 0.076914 -0.098921
v 0.032877 0.116884 -0.104601
v 0.070251 0.125842 -0.125053
v 0.082719 0.081601 -0.114261
v 0.052359 0.079421 -0.069238
v 0.032877 0.121327 -0.066286
v 0.082719 0.086615 -0.054901
v 0.070251 0.134727 -0.048427
v 0.108252 0.091806 -0.070287
v 0.102471 0.141584 -0.068637
v 0.108252 0.089299 -0.099964
v 0.102471 0.137142 -0.106948
v -0.018437 0.185355 -0.252612
v 0.114826 0.210313 -0.176644
v 0.114826 0.235699 -0.020716
v -0.018437 0.248479 0.057236
v -0.187230 0.220207 -0.032046
v -0.164650 0.184589 -0.172457
v -0.091543 0.202733 -0.215427
v -0.171411 0.219133 -0.083734
v -0.118318 0.221803 0.029233
v 0.030729 0.259173 0.038956
v 0.133982 0.243069 -0.078469
v 0.054955 0.212863 -0.231390
v -0.019776 0.204987 -0.255809
v 0.113486 0.229946 -0.179840
v 0.114017 0.267668 -0.025920
v -0.019776 0.255759 0.056051
v -0.184929 0.228483 -0.033394
v -0.165989 0.204222 -0.175654
v -0.093636 0.215647 -0.217529
v -0.173417 0.228336 -0.085232
v -0.119658 0.241435 0.026037
v 0.028733 0.267283 0.037636
v 0.132254 0.253815 -0.080218
v 0.053070 0.223820 -0.233174
v -0.007229 0.263974 -0.192019
v 0.055834 0.276746 -0.137443
v 0.065100 0.285906 -0.063238
v -0.007063 0.290462 -0.034426
v -0.117973 0.276752 -0.084588
v -0.094325 0.258877 -0.142132
v -0.067755 0.267138 -0.183804
v -0.095324 0.284729 -0.006129
v -0.029585 0.297146 -0.110750
v -0.150157 0.241791 0.077910
v -0.182918 0.226420 0.052234
v -0.096688 0.241004 0.091766
v -0.150709 0.246721 0.077107
v -0.183469 0.234508 0.050917
v -0.097239 0.249091 0.090449
v -0.240067 0.183655 -0.181919
v -0.240067 0.186104 -0.207822
v -0.216769 0.179732 -0.219537
v -0.240494 0.189110 -0.182807
v -0.240494 0.191558 -0.208710
v -0.217196 0.185186 -0.220425
v 0.171441 0.243703 -0.028732
v 0.171441 0.255391 0.008727
v 0.138669 0.247373 0.029714
v 0.170782 0.250682 -0.029869
v 0.170782 0.265047 0.007155
v 0.138010 0.257030 0.028142
v 0.114102 0.198580 -0.228190
v 0.161930 0.212806 -0.201783
v 0.161930 0.213724 -0.144487
v 0.113141 0.204988 -0.229233
v 0.160968 0.220056 -0.202963
v 0.160968 0.223056 -0.146006
v -0.065189 0.179851 -0.258353
v -0.018386 0.191048 -0.285794
v 0.024271 0.191555 -0.260258
v -0.065856 0.189626 -0.259945
v -0.019053 0.196137 -0.286622
v 0.023605 0.197860 -0.261285
v -0.151253 0.182769 -0.219362
v -0.203919 0.182493 -0.190490
v -0.203919 0.191637 -0.134323
v -0.202954 0.185660 -0.133350
v -0.150288 0.175551 -0.218187
v -0.202954 0.168350 -0.188187
v -0.134692 0.234504 0.053131
v -0.058016 0.245215 0.074424
v -0.057070 0.231355 0.076680
v -0.133746 0.220644 0.055387
v -0.184582 0.214173 0.011582
v -0.185527 0.222710 0.010192
v 0.153325 0.228434 -0.051166
v 0.143747 0.232481 -0.003867
v 0.085313 0.239806 0.036527
v 0.142748 0.247125 -0.006252
v 0.152326 0.240401 -0.053115
v 0.084314 0.248343 0.035138
v 0.084046 0.200624 -0.228960
v 0.085196 0.193394 -0.227783
v 0.148623 0.217873 -0.109764
v 0.147473 0.225812 -0.111057
v 0.139045 0.195304 -0.186567
v 0.137895 0.212166 -0.189312
v 0.040106 0.188380 -0.243573
v 0.039008 0.201011 -0.245629
v -0.077873 0.181480 -0.235292
v -0.017919 0.175500 -0.267135
v -0.019017 0.191600 -0.269757
v -0.078972 0.191287 -0.236889
v -0.028038 0.148040 -0.119202
v -0.028038 0.158249 -0.056498
v 0.047483 0.179736 -0.027814
v 0.087056 0.186926 -0.061168
v 0.087056 0.176718 -0.123869
v 0.047483 0.159320 -0.153220
v -0.088786 0.000000 -0.026208
v -0.056785 0.000000 -0.007732
v -0.056785 0.000000 0.029219
v -0.088786 0.000000 0.047695
v -0.120787 0.000000 0.029219
v -0.120787 0.000000 -0.007732
v -0.091894 0.043396 -0.019366
v -0.067675 0.052472 -0.006548
v -0.067675 0.057108 0.021326
v -0.091894 0.052670 0.036392
v -0.116104 0.043598 0.023579
v -0.116104 0.038960 -0.004306
v -0.110818 0.079349 -0.039700
v -0.076052 0.092285 -0.019237
v -0.077830 0.098853 0.021671
v -0.114375 0.092488 0.042134
v -0.149129 0.079557 0.021679
v -0.147350 0.072986 -0.019246
v -0.106597 0.062022 -0.068047
v -0.045942 0.084591 -0.032346
v -0.049043 0.096050 0.039025
v -0.112802 0.084945 0.074725
v -0.173436 0.062385 0.039040
v -0.170333 0.050921 -0.032361
v -0.107043 0.069854 -0.080566
v -0.037092 0.095881 -0.039395
v -0.040669 0.109096 0.042914
v -0.114198 0.096290 0.084086
v -0.184125 0.070272 0.042931
v -0.180547 0.057052 -0.039411
v -0.111280 0.085510 -0.072021
v -0.050624 0.108079 -0.036321
v -0.053725 0.119538 0.035051
v -0.117484 0.108433 0.070751
v -0.178118 0.085873 0.035065
v -0.175015 0.074409 -0.036336
v -0.117673 0.109162 -0.002736
v 0.011287 0.000000 0.072469
v 0.048222 0.000000 0.071357
v 0.067652 0.000000 0.102788
v 0.050147 0.000000 0.135330
v 0.013213 0.000000 0.136442
v -0.006217 0.000000 0.105011
v 0.016992 0.071140 0.085347
v 0.045834 0.070404 0.084428
v 0.060145 0.060681 0.106768
v 0.045620 0.051691 0.130037
v 0.016789 0.052426 0.130957
v 0.002472 0.062153 0.108607
v 0.015258 0.118031 0.090149
v 0.056027 0.107428 0.085655
v 0.077031 0.093158 0.118442
v 0.057274 0.089485 0.155737
v 0.016520 0.100084 0.160231
v -0.004493 0.114360 0.127430
v -0.004234 0.116617 0.062952
v 0.066895 0.098119 0.055111
v 0.103540 0.073223 0.112315
v 0.069070 0.066815 0.177382
v -0.002033 0.085306 0.185222
v -0.038692 0.110212 0.127995
v -0.005939 0.129275 0.055527
v 0.076090 0.107942 0.046484
v 0.118350 0.079231 0.112454
v 0.078598 0.071841 0.187492
v -0.003401 0.093166 0.196534
v -0.045678 0.121888 0.130537
v 0.003603 0.139096 0.067716
v 0.074731 0.120598 0.059875
v 0.111376 0.095702 0.117078
v 0.076906 0.089294 0.182145
v 0.005804 0.107785 0.189985
v -0.030856 0.132691 0.132759
v 0.043702 0.126153 0.127927
vt 0.548154 0.230243
vt 0.535994 0.230243
vt 0.535994 0.242404
vt 0.548154 0.242404
vt 0.448423 0.329975
vt 0.436263 0.329975
vt 0.436263 0.342135
vt 0.448423 0.342135
vt 0.548154 0.217777
vt 0.535994 0.217777
vt 0.535994 0.229938
vt 0.548154 0.229938
vt 0.541921 0.305042
vt 0.529761 0.305042
vt 0.529761 0.317203
vt 0.541921 0.317203
vt 0.541921 0.255176
vt 0.529761 0.255176
vt 0.529761 0.267337
vt 0.541921 0.267337
vt 0.461042 0.242710
vt 0.473356 0.248867
vt 0.473356 0.261180
vt 0.461042 0.267337
vt 0.448729 0.261180
vt 0.448729 0.248867
vt 0.461195 0.348369
vt 0.473356 0.348369
vt 0.473356 0.342441
vt 0.461195 0.342441
vt 0.548154 0.292575
vt 0.542227 0.292575
vt 0.542227 0.304736
vt 0.548154 0.304736
vt 0.485822 0.348369
vt 0.485822 0.342441
vt 0.473662 0.342441
vt 0.473662 0.348369
vt 0.554388 0.230243
vt 0.548460 0.230243
vt 0.548460 0.242404
vt 0.554388 0.242404
vt 0.498289 0.348369
vt 0.498289 0.342441
vt 0.486128 0.342441
vt 0.486128 0.348369
vt 0.554388 0.255176
vt 0.548460 0.255176
vt 0.548460 0.267337
vt 0.554388 0.267337
vt 0.510755 0.348369
vt 0.510755 0.342441
vt 0.498595 0.342441
vt 0.498595 0.348369
vt 0.535688 0.317508
vt 0.523527 0.317508
vt 0.523527 0.329669
vt 0.535688 0.329669
vt 0.554388 0.267643
vt 0.548460 0.267643
vt 0.548460 0.279803
vt 0.554388 0.279803
vt 0.510755 0.317508
vt 0.498595 0.317508
vt 0.498595 0.329669
vt 0.510755 0.329669
vt 0.523222 0.348369
vt 0.523222 0.342441
vt 0.511061 0.342441
vt 0.511061 0.348369
vt 0.535688 0.267643
vt 0.523527 0.267643
vt 0.523527 0.279803
vt 0.535688 0.279803
vt 0.554388 0.280109
vt 0.548460 0.280109
vt 0.548460 0.292270
vt 0.554388 0.292270
vt 0.535688 0.217777
vt 0.523527 0.217777
vt 0.523527 0.229938
vt 0.535688 0.229938
vt 0.435957 0.354602
vt 0.435957 0.348674
vt 0.423796 0.348674
vt 0.423796 0.354602
vt 0.523222 0.305042
vt 0.511061 0.305042
vt 0.511061 0.317203
vt 0.523222 0.317203
vt 0.554388 0.305042
vt 0.548460 0.305042
vt 0.548460 0.317203
vt 0.554388 0.317203
vt 0.510755 0.305042
vt 0.498595 0.305042
vt 0.498595 0.317203
vt 0.510755 0.317203
vt 0.560621 0.360835
vt 0.560621 0.354908
vt 0.548460 0.354908
vt 0.548460 0.360835
vt 0.523222 0.276614
vt 0.523222 0.292270
vt 0.512909 0.291702
vt 0.511061 0.278627
vt 0.513092 0.267643
vt 0.473662 0.312589
vt 0.482605 0.305302
vt 0.498289 0.305042
vt 0.498289 0.313449
vt 0.487051 0.317203
vt 0.523222 0.219380
vt 0.523222 0.234293
vt 0.516276 0.242404
vt 0.511061 0.230125
vt 0.515760 0.217777
vt 0.428902 0.240658
vt 0.423796 0.222283
vt 0.448423 0.217777
vt 0.447961 0.226571
vt 0.448423 0.242404
vt 0.473356 0.306846
vt 0.473356 0.315399
vt 0.460028 0.317203
vt 0.448729 0.309339
vt 0.460028 0.305042
vt 0.510755 0.267643
vt 0.510755 0.285619
vt 0.500213 0.292270
vt 0.498595 0.280066
vt 0.500380 0.268417
vt 0.492056 0.370185
vt 0.492056 0.367374
vt 0.486128 0.367374
vt 0.486128 0.370185
vt 0.569971 0.310969
vt 0.569971 0.298809
vt 0.567160 0.298809
vt 0.567160 0.310969
vt 0.535994 0.363952
vt 0.548154 0.363952
vt 0.548154 0.361141
vt 0.535994 0.361141
vt 0.560621 0.292270
vt 0.560621 0.280109
vt 0.554693 0.280109
vt 0.554693 0.292270
vt 0.429724 0.329975
vt 0.426913 0.329975
vt 0.426913 0.335902
vt 0.429724 0.335902
vt 0.560621 0.363952
vt 0.560621 0.361141
vt 0.548460 0.361141
vt 0.548460 0.363952
vt 0.485822 0.317508
vt 0.473662 0.317508
vt 0.473662 0.329669
vt 0.485822 0.329669
vt 0.569971 0.311275
vt 0.567160 0.311275
vt 0.567160 0.323436
vt 0.569971 0.323436
vt 0.523527 0.354602
vt 0.535688 0.354602
vt 0.535688 0.348674
vt 0.523527 0.348674
vt 0.426607 0.329975
vt 0.423796 0.329975
vt 0.423796 0.335902
vt 0.426607 0.335902
vt 0.128932 0.486128
vt 0.116772 0.486128
vt 0.116772 0.498289
vt 0.128932 0.498289
vt 0.153865 0.448423
vt 0.153865 0.436263
vt 0.147938 0.436263
vt 0.147938 0.448423
vt 0.041973 0.510755
vt 0.066600 0.510755
vt 0.066600 0.498595
vt 0.041973 0.498595
vt 0.041668 0.473662
vt 0.017041 0.473662
vt 0.017041 0.498289
vt 0.041668 0.498289
vt 0.091533 0.485822
vt 0.091533 0.461195
vt 0.079373 0.461195
vt 0.079373 0.485822
vt 0.017041 0.510755
vt 0.041668 0.510755
vt 0.041668 0.498595
vt 0.017041 0.498595
vt 0.104000 0.423796
vt 0.091839 0.423796
vt 0.091839 0.448423
vt 0.104000 0.448423
vt 0.067059 0.485822
vt 0.079067 0.485822
vt 0.079067 0.461348
vt 0.067059 0.435957
vt 0.091533 0.423949
vt 0.091533 0.435957
vt 0.135166 0.498595
vt 0.123005 0.498595
vt 0.123005 0.510755
vt 0.135166 0.510755
vt 0.066906 0.423796
vt 0.066906 0.435804
vt 0.091380 0.423796
vt 0.066600 0.485822
vt 0.066600 0.473662
vt 0.041973 0.473662
vt 0.041973 0.485822
vt 0.066600 0.448423
vt 0.042126 0.448423
vt 0.066600 0.423949
vt 0.079067 0.436263
vt 0.066906 0.436263
vt 0.066906 0.460890
vt 0.079067 0.460890
vt 0.091533 0.498289
vt 0.091533 0.486281
vt 0.067059 0.498289
vt 0.041668 0.448882
vt 0.041668 0.473356
vt 0.017193 0.473356
vt 0.066448 0.423796
vt 0.041973 0.423796
vt 0.041973 0.448270
vt 0.017041 0.448729
vt 0.041515 0.448729
vt 0.017041 0.473203
vt 0.091533 0.460890
vt 0.079525 0.460890
vt 0.091533 0.436415
vt 0.078914 0.461195
vt 0.066906 0.461195
vt 0.066906 0.485670
vt 0.066906 0.498136
vt 0.066906 0.486128
vt 0.091380 0.486128
vt 0.091380 0.436263
vt 0.079373 0.436263
vt 0.079373 0.460737
vt 0.461195 0.367068
vt 0.473356 0.367068
vt 0.473356 0.364257
vt 0.461195 0.364257
vt 0.569971 0.348369
vt 0.569971 0.336208
vt 0.567160 0.336208
vt 0.567160 0.348369
vt 0.448729 0.354602
vt 0.460890 0.354602
vt 0.460890 0.348674
vt 0.448729 0.348674
vt 0.147632 0.535688
vt 0.147632 0.523527
vt 0.141705 0.523527
vt 0.141705 0.535688
vt 0.535994 0.348369
vt 0.548154 0.348369
vt 0.548154 0.342441
vt 0.535994 0.342441
vt 0.573087 0.298809
vt 0.570276 0.298809
vt 0.570276 0.310969
vt 0.573087 0.310969
vt 0.435957 0.335902
vt 0.435957 0.329975
vt 0.433146 0.329975
vt 0.433146 0.335902
vt 0.432840 0.335902
vt 0.432840 0.329975
vt 0.430029 0.329975
vt 0.430029 0.335902
vt 0.573087 0.367068
vt 0.573087 0.364257
vt 0.560927 0.364257
vt 0.560927 0.367068
vt 0.498289 0.329975
vt 0.486128 0.329975
vt 0.486128 0.342135
vt 0.498289 0.342135
vt 0.510755 0.329975
vt 0.498595 0.329975
vt 0.498595 0.342135
vt 0.510755 0.342135
vt 0.116466 0.535994
vt 0.104305 0.535994
vt 0.104305 0.548154
vt 0.116466 0.548154
vt 0.429724 0.342135
vt 0.429724 0.336208
vt 0.426913 0.336208
vt 0.426913 0.342135
vt 0.426607 0.342135
vt 0.426607 0.336208
vt 0.423796 0.336208
vt 0.423796 0.342135
vt 0.147632 0.460890
vt 0.147632 0.448729
vt 0.141705 0.448729
vt 0.141705 0.460890
vt 0.435957 0.336208
vt 0.433146 0.336208
vt 0.433146 0.342135
vt 0.435957 0.342135
vt 0.128932 0.535994
vt 0.116772 0.535994
vt 0.116772 0.548154
vt 0.128932 0.548154
vt 0.448423 0.370185
vt 0.448423 0.367374
vt 0.436263 0.367374
vt 0.436263 0.370185
vt 0.573087 0.335902
vt 0.573087 0.323742
vt 0.570276 0.323742
vt 0.570276 0.335902
vt 0.473662 0.370185
vt 0.485822 0.370185
vt 0.485822 0.367374
vt 0.473662 0.367374
vt 0.548154 0.279803
vt 0.548154 0.267643
vt 0.542227 0.267643
vt 0.542227 0.279803
vt 0.423796 0.348369
vt 0.435957 0.348369
vt 0.435957 0.342441
vt 0.423796 0.342441
vt 0.141399 0.498289
vt 0.141399 0.486128
vt 0.135471 0.486128
vt 0.135471 0.498289
vt 0.029507 0.554388
vt 0.041668 0.554388
vt 0.041668 0.548460
vt 0.029507 0.548460
vt 0.573087 0.348369
vt 0.573087 0.336208
vt 0.570276 0.336208
vt 0.570276 0.348369
vt 0.461195 0.370185
vt 0.473356 0.370185
vt 0.473356 0.367374
vt 0.461195 0.367374
vt 0.141399 0.523222
vt 0.141399 0.511061
vt 0.135471 0.511061
vt 0.135471 0.523222
vt 0.041973 0.576204
vt 0.054134 0.576204
vt 0.054134 0.573393
vt 0.041973 0.573393
vt 0.432840 0.336208
vt 0.430029 0.336208
vt 0.430029 0.342135
vt 0.432840 0.342135
vt 0.554388 0.229938
vt 0.554388 0.217777
vt 0.548460 0.217777
vt 0.548460 0.229938
vt 0.054134 0.542227
vt 0.041973 0.542227
vt 0.041973 0.554388
vt 0.054134 0.554388
vt 0.548154 0.329975
vt 0.535994 0.329975
vt 0.535994 0.342135
vt 0.548154 0.342135
vt 0.548154 0.317508
vt 0.535994 0.317508
vt 0.535994 0.329669
vt 0.548154 0.329669
vt 0.435957 0.370185
vt 0.435957 0.367374
vt 0.423796 0.367374
vt 0.423796 0.370185
vt 0.079067 0.535994
vt 0.066906 0.535994
vt 0.066906 0.548154
vt 0.079067 0.548154
vt 0.573087 0.311275
vt 0.570276 0.311275
vt 0.570276 0.323436
vt 0.573087 0.323436
vt 0.573087 0.363952
vt 0.573087 0.361141
vt 0.560927 0.361141
vt 0.560927 0.363952
vt 0.548154 0.267337
vt 0.548154 0.242710
vt 0.542227 0.242710
vt 0.542227 0.267337
vt 0.116772 0.554388
vt 0.128932 0.554388
vt 0.128932 0.548460
vt 0.116772 0.548460
vt 0.554388 0.304736
vt 0.554388 0.292575
vt 0.548460 0.292575
vt 0.548460 0.304736
vt 0.041973 0.541921
vt 0.066600 0.541921
vt 0.066600 0.535994
vt 0.041973 0.535994
vt 0.573087 0.280109
vt 0.570276 0.280109
vt 0.570276 0.292270
vt 0.573087 0.292270
vt 0.560621 0.367068
vt 0.560621 0.364257
vt 0.548460 0.364257
vt 0.548460 0.367068
vt 0.116466 0.473356
vt 0.116466 0.448729
vt 0.104305 0.448729
vt 0.104305 0.473356
vt 0.566854 0.354908
vt 0.564043 0.354908
vt 0.564043 0.360835
vt 0.566854 0.360835
vt 0.029507 0.560621
vt 0.041668 0.560621
vt 0.041668 0.554693
vt 0.029507 0.554693
vt 0.554388 0.342135
vt 0.554388 0.329975
vt 0.548460 0.329975
vt 0.548460 0.342135
vt 0.448729 0.292270
vt 0.473356 0.292270
vt 0.473356 0.280109
vt 0.448729 0.280109
vt 0.135166 0.498289
vt 0.135166 0.473662
vt 0.129238 0.473662
vt 0.129238 0.498289
vt 0.104305 0.566854
vt 0.116466 0.566854
vt 0.116466 0.560927
vt 0.104305 0.560927
vt 0.529455 0.317203
vt 0.529455 0.292575
vt 0.523527 0.292575
vt 0.523527 0.317203
vt 0.473662 0.354602
vt 0.485822 0.354602
vt 0.485822 0.348674
vt 0.473662 0.348674
vt 0.563737 0.354908
vt 0.560927 0.354908
vt 0.560927 0.360835
vt 0.563737 0.360835
vt 0.569971 0.323742
vt 0.567160 0.323742
vt 0.567160 0.335902
vt 0.569971 0.335902
vt 0.498595 0.354602
vt 0.510755 0.354602
vt 0.510755 0.348674
vt 0.498595 0.348674
vt 0.576204 0.348674
vt 0.573393 0.348674
vt 0.573393 0.354602
vt 0.576204 0.354602
vt 0.153865 0.460890
vt 0.153865 0.448729
vt 0.147938 0.448729
vt 0.147938 0.460890
vt 0.104305 0.560621
vt 0.116466 0.560621
vt 0.116466 0.554693
vt 0.104305 0.554693
vt 0.573087 0.348674
vt 0.570276 0.348674
vt 0.570276 0.354602
vt 0.573087 0.354602
vt 0.560621 0.267337
vt 0.560621 0.255176
vt 0.554693 0.255176
vt 0.554693 0.267337
vt 0.473662 0.304736
vt 0.498289 0.304736
vt 0.498289 0.292575
vt 0.473662 0.292575
vt 0.510755 0.267337
vt 0.510755 0.242710
vt 0.498595 0.242710
vt 0.498595 0.267337
vt 0.423796 0.317203
vt 0.448423 0.317203
vt 0.448423 0.305042
vt 0.423796 0.305042
vt 0.460890 0.317508
vt 0.448729 0.317508
vt 0.448729 0.329669
vt 0.460890 0.329669
vt 0.529455 0.267337
vt 0.529455 0.242710
vt 0.523527 0.242710
vt 0.523527 0.267337
vt 0.448423 0.317508
vt 0.436263 0.317508
vt 0.436263 0.329669
vt 0.448423 0.329669
vt 0.548460 0.354602
vt 0.560621 0.354602
vt 0.560621 0.348674
vt 0.548460 0.348674
vt 0.560621 0.317203
vt 0.560621 0.305042
vt 0.554693 0.305042
vt 0.554693 0.317203
vt 0.423796 0.360835
vt 0.435957 0.360835
vt 0.435957 0.354908
vt 0.423796 0.354908
vt 0.560621 0.329669
vt 0.560621 0.317508
vt 0.554693 0.317508
vt 0.554693 0.329669
vt 0.436263 0.360835
vt 0.448423 0.360835
vt 0.448423 0.354908
vt 0.436263 0.354908
vt 0.535688 0.233284
vt 0.535688 0.239364
vt 0.529608 0.242404
vt 0.523527 0.239364
vt 0.523527 0.233284
vt 0.529608 0.230243
vt 0.566854 0.229938
vt 0.566854 0.217777
vt 0.560927 0.217777
vt 0.560927 0.229938
vt 0.460890 0.360835
vt 0.460890 0.354908
vt 0.448729 0.354908
vt 0.448729 0.360835
vt 0.566854 0.230243
vt 0.560927 0.230243
vt 0.560927 0.242404
vt 0.566854 0.242404
vt 0.473356 0.360835
vt 0.473356 0.354908
vt 0.461195 0.354908
vt 0.461195 0.360835
vt 0.566854 0.242710
vt 0.560927 0.242710
vt 0.560927 0.254871
vt 0.566854 0.254871
vt 0.485822 0.360835
vt 0.485822 0.354908
vt 0.473662 0.354908
vt 0.473662 0.360835
vt 0.566854 0.255176
vt 0.560927 0.255176
vt 0.560927 0.267337
vt 0.566854 0.267337
vt 0.486128 0.360835
vt 0.498289 0.360835
vt 0.498289 0.354908
vt 0.486128 0.354908
vt 0.566854 0.279803
vt 0.566854 0.267643
vt 0.560927 0.267643
vt 0.560927 0.279803
vt 0.498595 0.360835
vt 0.510755 0.360835
vt 0.510755 0.354908
vt 0.498595 0.354908
vt 0.566854 0.292270
vt 0.566854 0.280109
vt 0.560927 0.280109
vt 0.560927 0.292270
vt 0.461195 0.342135
vt 0.473356 0.342135
vt 0.473356 0.336208
vt 0.461195 0.336208
vt 0.566854 0.304736
vt 0.566854 0.292575
vt 0.560927 0.292575
vt 0.560927 0.304736
vt 0.116772 0.569971
vt 0.128932 0.569971
vt 0.128932 0.567160
vt 0.116772 0.567160
vt 0.163215 0.498289
vt 0.163215 0.486128
vt 0.160404 0.486128
vt 0.160404 0.498289
vt 0.104305 0.569971
vt 0.116466 0.569971
vt 0.116466 0.567160
vt 0.104305 0.567160
vt 0.163215 0.485822
vt 0.163215 0.473662
vt 0.160404 0.473662
vt 0.160404 0.485822
vt 0.091839 0.569971
vt 0.104000 0.569971
vt 0.104000 0.567160
vt 0.091839 0.567160
vt 0.163215 0.473356
vt 0.163215 0.461195
vt 0.160404 0.461195
vt 0.160404 0.473356
vt 0.079373 0.569971
vt 0.091533 0.569971
vt 0.091533 0.567160
vt 0.079373 0.567160
vt 0.163215 0.460890
vt 0.163215 0.448729
vt 0.160404 0.448729
vt 0.160404 0.460890
vt 0.066906 0.569971
vt 0.079067 0.569971
vt 0.079067 0.567160
vt 0.066906 0.567160
vt 0.163215 0.448423
vt 0.163215 0.436263
vt 0.160404 0.436263
vt 0.160404 0.448423
vt 0.054440 0.569971
vt 0.066600 0.569971
vt 0.066600 0.567160
vt 0.054440 0.567160
vt 0.163215 0.435957
vt 0.163215 0.423796
vt 0.160404 0.423796
vt 0.160404 0.435957
vt 0.116466 0.523680
vt 0.116466 0.535688
vt 0.104458 0.535688
vt 0.091533 0.535688
vt 0.091533 0.523680
vt 0.079525 0.535688
vt 0.054593 0.535688
vt 0.066600 0.535688
vt 0.066600 0.523680
vt 0.017193 0.535688
vt 0.029201 0.535688
vt 0.029201 0.523680
vt 0.135166 0.448882
vt 0.135166 0.460890
vt 0.123158 0.460890
vt 0.123005 0.448729
vt 0.123005 0.460737
vt 0.135013 0.448729
vt 0.448729 0.367068
vt 0.460890 0.367068
vt 0.460890 0.361141
vt 0.448729 0.361141
vt 0.566854 0.354602
vt 0.566854 0.342441
vt 0.560927 0.342441
vt 0.560927 0.354602
vt 0.436263 0.367068
vt 0.448423 0.367068
vt 0.448423 0.361141
vt 0.436263 0.361141
vt 0.566854 0.342135
vt 0.566854 0.329975
vt 0.560927 0.329975
vt 0.560927 0.342135
vt 0.423796 0.367068
vt 0.435957 0.367068
vt 0.435957 0.361141
vt 0.423796 0.361141
vt 0.504675 0.292575
vt 0.510755 0.295616
vt 0.510755 0.301696
vt 0.504675 0.304736
vt 0.498595 0.301696
vt 0.498595 0.295616
vt 0.566854 0.329669
vt 0.566854 0.317508
vt 0.560927 0.317508
vt 0.560927 0.329669
vt 0.548154 0.360835
vt 0.548154 0.354908
vt 0.535994 0.354908
vt 0.535994 0.360835
vt 0.566854 0.305042
vt 0.560927 0.305042
vt 0.560927 0.317203
vt 0.566854 0.317203
vt 0.535688 0.360835
vt 0.535688 0.354908
vt 0.523527 0.354908
vt 0.523527 0.360835
vt 0.560621 0.329975
vt 0.554693 0.329975
vt 0.554693 0.342135
vt 0.560621 0.342135
vt 0.573087 0.292575
vt 0.567160 0.292575
vt 0.567160 0.298503
vt 0.573087 0.298503
vt 0.560621 0.348369
vt 0.560621 0.342441
vt 0.548460 0.342441
vt 0.548460 0.348369
vt 0.560621 0.304736
vt 0.560621 0.292575
vt 0.554693 0.292575
vt 0.554693 0.304736
vt 0.535994 0.354602
vt 0.548154 0.354602
vt 0.548154 0.348674
vt 0.535994 0.348674
vt 0.560621 0.279803
vt 0.560621 0.267643
vt 0.554693 0.267643
vt 0.554693 0.279803
vt 0.486128 0.354602
vt 0.498289 0.354602
vt 0.498289 0.348674
vt 0.486128 0.348674
vt 0.560621 0.229938
vt 0.560621 0.217777
vt 0.554693 0.217777
vt 0.554693 0.229938
vt 0.461195 0.354602
vt 0.473356 0.354602
vt 0.473356 0.348674
vt 0.461195 0.348674
vt 0.163215 0.566854
vt 0.163215 0.554693
vt 0.160404 0.554693
vt 0.160404 0.566854
vt 0.066906 0.573087
vt 0.079067 0.573087
vt 0.079067 0.570276
vt 0.066906 0.570276
vt 0.166332 0.435957
vt 0.166332 0.423796
vt 0.163521 0.423796
vt 0.163521 0.435957
vt 0.079373 0.573087
vt 0.091533 0.573087
vt 0.091533 0.570276
vt 0.079373 0.570276
vt 0.166332 0.448423
vt 0.166332 0.436263
vt 0.163521 0.436263
vt 0.163521 0.448423
vt 0.091839 0.573087
vt 0.104000 0.573087
vt 0.104000 0.570276
vt 0.091839 0.570276
vt 0.166332 0.460890
vt 0.166332 0.448729
vt 0.163521 0.448729
vt 0.163521 0.460890
vt 0.104305 0.573087
vt 0.116466 0.573087
vt 0.116466 0.570276
vt 0.104305 0.570276
vt 0.166332 0.473356
vt 0.166332 0.461195
vt 0.163521 0.461195
vt 0.163521 0.473356
vt 0.116772 0.573087
vt 0.128932 0.573087
vt 0.128932 0.570276
vt 0.116772 0.570276
vt 0.166332 0.485822
vt 0.166332 0.473662
vt 0.163521 0.473662
vt 0.163521 0.485822
vt 0.129238 0.573087
vt 0.141399 0.573087
vt 0.141399 0.570276
vt 0.129238 0.570276
vt 0.104305 0.535535
vt 0.104305 0.523527
vt 0.116313 0.523527
vt 0.079373 0.523527
vt 0.079373 0.535535
vt 0.091380 0.523527
vt 0.066448 0.523527
vt 0.054440 0.523527
vt 0.054440 0.535535
vt 0.029048 0.523527
vt 0.017041 0.523527
vt 0.017041 0.535535
vt 0.116466 0.498747
vt 0.116466 0.510755
vt 0.104458 0.510755
vt 0.104305 0.498595
vt 0.104305 0.510602
vt 0.116313 0.498595
vn -0.4647 0.4577 -0.7580
vn 0.4831 0.1444 0.8636
vn -0.4891 0.3038 0.8176
vn -0.8907 0.4545 -0.0047
vn 0.4511 0.2966 -0.8418
vn 0.0000 -1.0000 0.0000
vn 0.9913 0.1316 -0.0013
vn -0.4787 0.0654 -0.8755
vn -0.9997 -0.0239 0.0013
vn -0.4606 0.0223 0.8873
vn 0.4954 0.0524 0.8671
vn 0.9967 0.0816 -0.0044
vn 0.4694 0.0811 -0.8792
vn 0.5910 -0.1769 -0.7871
vn 0.5047 -0.0661 -0.8608
vn 0.9406 0.3361 -0.0487
vn 0.9931 0.1170 -0.0120
vn 0.5976 0.0033 0.8018
vn 0.5205 0.0262 0.8534
vn -0.1903 -0.5064 0.8411
vn -0.3622 -0.2233 0.9049
vn -0.4877 -0.8640 0.1253
vn -0.9027 -0.4281 0.0438
vn -0.2001 -0.7076 -0.6777
vn -0.3922 -0.3177 -0.8633
vn -0.1148 -0.8313 0.5438
vn 0.4090 -0.6072 0.6811
vn 0.4123 -0.8309 -0.3737
vn -0.4436 -0.8850 0.1417
vn 0.5702 -0.8108 0.1320
vn -0.1729 -0.9084 -0.3807
vn 0.9255 0.1684 0.3393
vn -0.9666 -0.0252 -0.2549
vn 0.2999 0.2163 0.9291
vn -0.1505 -0.9237 -0.3523
vn 0.7185 -0.0460 -0.6940
vn 0.3871 0.1738 0.9055
vn 0.2921 -0.8571 0.4243
vn -0.7965 0.0015 0.6047
vn 0.5247 -0.8244 0.2123
vn 0.0145 -0.1585 -0.9873
vn 0.1031 0.9937 0.0437
vn 0.0045 0.9298 -0.3679
vn -0.0956 0.8528 0.5135
vn 0.2831 0.8359 -0.4703
vn -0.5676 0.7867 0.2425
vn 0.1638 0.9579 0.2359
vn -0.5118 0.7433 -0.4308
vn -0.0907 0.9340 0.3455
vn 0.4667 0.8361 -0.2883
vn -0.1743 0.6850 -0.7074
vn -0.6497 0.7460 -0.1464
vn 0.3993 0.9069 -0.1345
vn 0.0224 0.7318 -0.6811
vn -0.5384 0.7742 -0.3328
vn -0.3164 0.8613 -0.3976
vn -0.0335 0.9947 0.0970
vn 0.1133 0.9304 -0.3486
vn -0.2335 0.9718 -0.0314
vn 0.0873 0.9943 0.0613
vn -0.4614 0.8790 -0.1200
vn -0.0030 0.9256 -0.3786
vn 0.1873 0.9718 -0.1434
vn -0.2461 0.1354 0.9597
vn -0.6373 0.0709 0.7674
vn -0.1325 -0.8887 0.4388
vn 0.0157 0.9385 -0.3449
vn -0.0857 -0.8297 0.5516
vn -0.9946 -0.0784 0.0687
vn -0.9968 -0.0792 -0.0075
vn -0.4804 -0.1774 -0.8589
vn 0.0100 -0.1596 -0.9871
vn -0.3511 -0.9209 0.1695
vn -0.1440 -0.9488 -0.2811
vn 0.1611 0.9837 -0.0803
vn 0.9969 0.0747 -0.0261
vn 0.5010 0.1723 0.8481
vn -0.3383 0.9028 -0.2656
vn 0.7886 -0.0310 -0.6141
vn -0.2738 0.9135 -0.3008
vn 0.1008 0.1688 0.9805
vn 0.9934 0.1145 -0.0039
vn 0.4977 -0.0707 -0.8645
vn 0.3194 -0.9104 -0.2631
vn 0.4825 -0.8680 0.1176
vn -0.2358 0.9714 -0.0285
vn -0.2664 0.9588 -0.0992
vn 0.5121 -0.0793 -0.8553
vn -0.4660 -0.1828 -0.8657
vn -0.0290 0.9976 0.0624
vn -0.1678 0.9783 0.1213
vn -0.8668 -0.1553 -0.4739
vn 0.3725 -0.7379 -0.5628
vn -0.5103 0.8327 -0.2148
vn 0.3456 -0.8940 0.2852
vn 0.3176 -0.8870 0.3353
vn 0.1126 -0.1430 -0.9833
vn -0.3597 0.7839 -0.5060
vn -0.8219 -0.0688 0.5655
vn -0.9957 0.0859 0.0350
vn 0.2349 -0.9659 -0.1088
vn -0.2953 0.9496 0.1054
vn 0.1343 -0.9879 -0.0772
vn -0.1835 0.9703 0.1579
vn 0.3781 0.1884 0.9064
vn 0.1057 0.1783 0.9783
vn 0.3127 0.8512 0.4215
vn 0.8103 0.0019 -0.5861
vn 0.5762 0.8173 -0.0078
vn -0.2617 -0.9597 -0.1019
vn -0.2509 -0.9661 -0.0601
vn 0.6084 0.7514 -0.2554
vn 0.4184 0.6473 -0.6372
vn -0.4821 -0.8095 0.3351
vn -0.4227 -0.7585 0.4959
vn 0.0160 -0.1581 -0.9873
vn 0.9386 0.1913 0.2872
vn -0.0939 -0.5865 0.8045
vn -0.8881 -0.1927 -0.4174
vn 0.1791 0.5360 -0.8250
vn -0.3670 0.5267 -0.7668
vn 0.6793 -0.0334 -0.7331
vn 0.2486 -0.6651 0.7042
vn -0.0508 -0.9493 -0.3101
vn -0.2862 -0.9457 0.1540
vn -0.0471 -0.8064 0.5894
vn 0.5952 -0.4317 0.6778
vn 0.9955 -0.0936 0.0152
vn 0.5987 -0.6111 -0.5178
vn -0.5156 0.1157 -0.8490
vn 0.4886 0.2104 0.8468
vn -0.4996 0.1581 0.8517
vn -0.9936 0.1125 -0.0080
vn 0.4640 0.1410 -0.8745
vn 0.9809 0.1941 -0.0139
vn -0.3217 -0.5999 -0.7326
vn 0.5316 -0.1701 -0.8297
vn 0.4834 0.1288 0.8659
vn -0.7442 -0.6621 0.0886
vn 0.9754 0.2200 -0.0106
vn -0.3733 -0.3176 0.8717
vn -0.1839 -0.9717 0.1480
vn 0.4520 -0.8640 -0.2218
vn 0.4198 -0.7452 0.5180
vn 0.0096 -0.8525 0.5226
vn 0.0422 -0.9729 -0.2272
vn 0.6393 -0.7544 0.1489
vn 0.5350 -0.7075 -0.4617
vn 0.4844 -0.5205 0.7032
vn -0.5649 -0.8182 0.1068
vn 0.8174 -0.5622 0.1258
vn -0.2002 -0.6381 0.7435
vn -0.1452 -0.8411 -0.5210
vn 0.6551 0.7499 -0.0919
vn -0.5675 0.5344 0.6264
vn -0.5052 0.3041 -0.8077
vn 0.2829 0.5173 -0.8077
vn 0.2206 0.7476 0.6265
vn -0.9439 0.3171 -0.0919
vn -0.1512 0.9312 -0.3318
vn -0.1660 0.9861 0.0102
vn -0.4409 0.8830 -0.1609
vn -0.0647 0.9848 -0.1609
vn -0.3540 0.9352 0.0102
vn -0.3391 0.8803 -0.3318
vn -0.8676 0.1522 -0.4734
vn 0.8563 0.0976 0.5072
vn 0.0319 0.1032 0.9941
vn -0.8348 0.0983 0.5416
vn -0.0283 0.1809 -0.9831
vn 0.8503 0.1305 -0.5099
vn -0.8731 0.0392 -0.4860
vn -0.0647 0.0780 -0.9949
vn 0.7924 -0.5043 0.3431
vn -0.8598 -0.2708 0.4329
vn 0.7845 -0.1965 -0.5881
vn -0.0223 -0.5388 0.8421
vn -0.5959 -0.8024 0.0325
vn -0.2601 -0.7341 -0.6272
vn 0.1198 -0.9922 -0.0343
vn -0.2243 -0.9516 0.2102
vn -0.6093 -0.6900 -0.3907
vn 0.1002 -0.8872 -0.4503
vn -0.2252 -0.5154 -0.8268
vn 0.3729 -0.9217 0.1068
vn -0.7969 -0.5370 0.2768
vn 0.3201 -0.7764 -0.5429
vn -0.1525 -0.8202 0.5514
vn -0.8017 -0.3791 -0.4621
vn 0.8292 0.4458 -0.3372
vn 0.1822 0.3041 0.9350
vn -0.5541 0.8044 -0.2144
vn 0.1147 0.7277 -0.6762
vn 0.8510 0.2275 0.4732
vn -0.5280 0.6011 0.5999
vn 0.2554 0.9661 0.0376
vn 0.4310 0.8468 0.3117
vn 0.1040 0.9346 0.3401
vn 0.4233 0.8981 0.1197
vn 0.2715 0.8651 0.4218
vn 0.0959 0.9844 0.1477
usemtl low_poly_mushrooms_texture_atlas
s off
f 6/1/1 17/2/1 8/3/1 1/4/1
f 3/5/2 11/6/2 13/7/2 4/8/2
f 4/9/3 13/10/3 15/11/3 5/12/3
f 5/13/4 15/14/4 17/15/4 6/16/4
f 1/17/5 8/18/5 9/19/5 2/20/5
f 1/21/6 2/22/6 3/23/6 4/24/6 5/25/6 6/26/6
f 2/27/7 9/28/7 11/29/7 3/30/7
f 19/31/8 22/32/8 8/33/8 17/34/8
f 23/35/9 19/36/9 17/37/9 15/38/9
f 25/39/10 23/40/10 15/41/10 13/42/10
f 27/43/11 25/44/11 13/45/11 11/46/11
f 29/47/12 27/48/12 11/49/12 9/50/12
f 22/51/13 29/52/13 9/53/13 8/54/13
f 129/55/14 128/56/14 30/57/14 21/58/14
f 21/59/15 30/60/15 29/61/15 22/62/15
f 128/63/16 127/64/16 28/65/16 30/66/16
f 30/67/17 28/68/17 27/69/17 29/70/17
f 127/71/18 126/72/18 26/73/18 28/74/18
f 28/75/19 26/76/19 25/77/19 27/78/19
f 126/79/20 125/80/20 24/81/20 26/82/20
f 26/83/21 24/84/21 23/85/21 25/86/21
f 125/87/22 124/88/22 20/89/22 24/90/22
f 24/91/23 20/92/23 19/93/23 23/94/23
f 124/95/24 129/96/24 21/97/24 20/98/24
f 20/99/25 21/100/25 22/101/25 19/102/25
f 16/103/26 14/104/26 34/105/26 39/106/26 35/107/26
f 14/108/27 12/109/27 33/110/27 40/111/27 34/112/27
f 10/113/28 7/114/28 31/115/28 42/116/28 32/117/28
f 18/118/29 16/119/29 35/120/29 38/121/29 36/122/29
f 12/123/30 10/124/30 32/125/30 41/126/30 33/127/30
f 7/128/31 18/129/31 36/130/31 37/131/31 31/132/31
f 115/133/32 114/134/32 84/135/32 87/136/32
f 38/137/33 35/138/33 47/139/33 50/140/33
f 34/141/34 40/142/34 52/143/34 46/144/34
f 121/145/35 120/146/35 88/147/35 89/148/35
f 119/149/36 118/150/36 90/151/36 93/152/36
f 102/153/37 101/154/37 69/155/37 66/156/37
f 108/157/38 107/158/38 77/159/38 78/160/38
f 97/161/39 96/162/39 73/163/39 70/164/39
f 107/165/40 106/166/40 76/167/40 77/168/40
f 113/169/41 112/170/41 85/171/41 82/172/41
f 95/173/42 94/174/42 75/175/42 74/176/42
f 101/177/43 100/178/43 67/179/43 69/180/43
f 51/181/44 46/182/44 58/183/44 62/184/44
f 44/185/45 54/186/45 55/187/45 56/188/45
f 47/189/46 51/190/46 62/191/46 59/192/46
f 52/193/47 45/194/47 57/195/47 58/196/47
f 49/197/48 48/198/48 60/199/48 61/200/48
f 46/201/49 52/202/49 58/203/49
f 53/204/50 44/205/50 56/206/50
f 43/207/51 49/208/51 61/209/51 55/210/51
f 50/211/52 47/212/52 59/213/52
f 45/214/53 53/215/53 56/216/53 57/217/53
f 54/218/54 43/219/54 55/220/54
f 48/221/55 50/222/55 59/223/55 60/224/55
f 60/225/56 59/226/56 63/227/56
f 62/228/57 58/229/57 63/230/57
f 56/231/58 55/232/58 63/233/58
f 59/234/59 62/235/59 63/236/59
f 58/237/60 57/238/60 63/239/60
f 61/240/61 60/241/61 63/242/61
f 55/243/62 61/244/62 63/245/62
f 57/246/63 56/247/63 63/248/63
f 64/249/64 66/250/64 69/251/64 67/252/64
f 65/253/65 64/254/65 67/255/65 68/256/65
f 104/257/66 103/258/66 64/259/66 65/260/66
f 100/261/67 105/262/67 68/263/67 67/264/67
f 103/265/68 102/266/68 66/267/68 64/268/68
f 105/269/69 104/270/69 65/271/69 68/272/69
f 71/273/70 70/274/70 73/275/70 74/276/70
f 72/277/71 71/278/71 74/279/71 75/280/71
f 94/281/72 98/282/72 72/283/72 75/284/72
f 99/285/73 97/286/73 70/287/73 71/288/73
f 98/289/74 99/290/74 71/291/74 72/292/74
f 96/293/75 95/294/75 74/295/75 73/296/75
f 77/297/76 76/298/76 79/299/76 80/300/76
f 78/301/77 77/302/77 80/303/77 81/304/77
f 110/305/78 109/306/78 80/307/78 79/308/78
f 106/309/79 110/310/79 79/311/79 76/312/79
f 109/313/80 111/314/80 81/315/80 80/316/80
f 111/317/81 108/318/81 78/319/81 81/320/81
f 84/321/82 83/322/82 86/323/82 87/324/82
f 83/325/83 82/326/83 85/327/83 86/328/83
f 116/329/84 113/330/84 82/331/84 83/332/84
f 114/333/85 116/334/85 83/335/85 84/336/85
f 112/337/86 117/338/86 86/339/86 85/340/86
f 117/341/87 115/342/87 87/343/87 86/344/87
f 90/345/88 89/346/88 92/347/88 93/348/88
f 89/349/89 88/350/89 91/351/89 92/352/89
f 123/353/90 122/354/90 92/355/90 91/356/90
f 122/357/91 119/358/91 93/359/91 92/360/91
f 120/361/92 123/362/92 91/363/92 88/364/92
f 118/365/93 121/366/93 89/367/93 90/368/93
f 50/369/94 48/370/94 95/371/94 96/372/94
f 37/373/95 36/374/95 99/375/95 98/376/95
f 36/377/96 38/378/96 97/379/96 99/380/96
f 49/381/97 37/382/97 98/383/97 94/384/97
f 48/385/98 49/386/98 94/387/98 95/388/98
f 38/389/99 50/390/99 96/391/99 97/392/99
f 47/393/100 35/394/100 104/395/100 105/396/100
f 39/397/101 34/398/101 102/399/101 103/400/101
f 51/401/102 47/402/102 105/403/102 100/404/102
f 35/405/103 39/406/103 103/407/103 104/408/103
f 46/409/104 51/410/104 100/411/104 101/412/104
f 34/413/105 46/414/105 101/415/105 102/416/105
f 52/417/106 40/418/106 108/419/106 111/420/106
f 45/421/107 52/422/107 111/423/107 109/424/107
f 41/425/108 53/426/108 110/427/108 106/428/108
f 53/429/109 45/430/109 109/431/109 110/432/109
f 33/433/110 41/434/110 106/435/110 107/436/110
f 40/437/111 33/438/111 107/439/111 108/440/111
f 44/441/112 53/442/112 115/443/112 117/444/112
f 54/445/113 44/446/113 117/447/113 112/448/113
f 41/449/114 32/450/114 116/451/114 114/452/114
f 32/453/115 42/454/115 113/455/115 116/456/115
f 42/457/116 54/458/116 112/459/116 113/460/116
f 53/461/117 41/462/117 114/463/117 115/464/117
f 42/465/118 31/466/118 121/467/118 118/468/118
f 37/469/119 49/470/119 123/471/119 120/472/119
f 43/473/120 54/474/120 119/475/120 122/476/120
f 49/477/121 43/478/121 122/479/121 123/480/121
f 54/481/122 42/482/122 118/483/122 119/484/122
f 31/485/123 37/486/123 120/487/123 121/488/123
f 18/489/124 7/490/124 129/491/124 124/492/124
f 16/493/125 18/494/125 124/495/125 125/496/125
f 14/497/126 16/498/126 125/499/126 126/500/126
f 12/501/127 14/502/127 126/503/127 127/504/127
f 10/505/128 12/506/128 127/507/128 128/508/128
f 7/509/129 10/510/129 128/511/129 129/512/129
f 135/513/130 141/514/130 136/515/130 130/516/130
f 132/517/131 138/518/131 139/519/131 133/520/131
f 133/521/132 139/522/132 140/523/132 134/524/132
f 134/525/133 140/526/133 141/527/133 135/528/133
f 130/529/134 136/530/134 137/531/134 131/532/134
f 130/533/6 131/534/6 132/535/6 133/536/6 134/537/6 135/538/6
f 131/539/135 137/540/135 138/541/135 132/542/135
f 136/543/136 141/544/136 147/545/136 142/546/136
f 137/547/137 136/548/137 142/549/137 143/550/137
f 139/551/138 138/552/138 144/553/138 145/554/138
f 141/555/139 140/556/139 146/557/139 147/558/139
f 138/559/140 137/560/140 143/561/140 144/562/140
f 140/563/141 139/564/141 145/565/141 146/566/141
f 144/567/142 143/568/142 149/569/142 150/570/142
f 146/571/143 145/572/143 151/573/143 152/574/143
f 142/575/144 147/576/144 153/577/144 148/578/144
f 143/579/145 142/580/145 148/581/145 149/582/145
f 145/583/146 144/584/146 150/585/146 151/586/146
f 147/587/147 146/588/147 152/589/147 153/590/147
f 149/591/148 148/592/148 154/593/148 155/594/148
f 151/595/149 150/596/149 156/597/149 157/598/149
f 153/599/150 152/600/150 158/601/150 159/602/150
f 150/603/151 149/604/151 155/605/151 156/606/151
f 152/607/152 151/608/152 157/609/152 158/610/152
f 148/611/153 153/612/153 159/613/153 154/614/153
f 156/615/154 155/616/154 161/617/154 162/618/154
f 158/619/155 157/620/155 163/621/155 164/622/155
f 154/623/156 159/624/156 165/625/156 160/626/156
f 155/627/157 154/628/157 160/629/157 161/630/157
f 157/631/158 156/632/158 162/633/158 163/634/158
f 159/635/159 158/636/159 164/637/159 165/638/159
f 161/639/160 160/640/160 166/641/160
f 163/642/161 162/643/161 166/644/161
f 165/645/162 164/646/162 166/647/162
f 162/648/163 161/649/163 166/650/163
f 164/651/164 163/652/164 166/653/164
f 160/654/165 165/655/165 166/656/165
f 172/657/166 178/658/166 173/659/166 167/660/166
f 169/661/167 175/662/167 176/663/167 170/664/167
f 170/665/168 176/666/168 177/667/168 171/668/168
f 171/669/169 177/670/169 178/671/169 172/672/169
f 167/673/170 173/674/170 174/675/170 168/676/170
f 167/677/6 168/678/6 169/679/6 170/680/6 171/681/6 172/682/6
f 168/683/171 174/684/171 175/685/171 169/686/171
f 173/687/172 178/688/172 184/689/172 179/690/172
f 174/691/173 173/692/173 179/693/173 180/694/173
f 176/695/174 175/696/174 181/697/174 182/698/174
f 178/699/175 177/700/175 183/701/175 184/702/175
f 175/703/176 174/704/176 180/705/176 181/706/176
f 177/707/177 176/708/177 182/709/177 183/710/177
f 181/711/178 180/712/178 186/713/178 187/714/178
f 183/715/179 182/716/179 188/717/179 189/718/179
f 179/719/180 184/720/180 190/721/180 185/722/180
f 180/723/181 179/724/181 185/725/181 186/726/181
f 182/727/182 181/728/182 187/729/182 188/730/182
f 184/731/183 183/732/183 189/733/183 190/734/183
f 186/735/184 185/736/184 191/737/184 192/738/184
f 188/739/185 187/740/185 193/741/185 194/742/185
f 190/743/186 189/744/186 195/745/186 196/746/186
f 187/747/187 186/748/187 192/749/187 193/750/187
f 189/751/188 188/752/188 194/753/188 195/754/188
f 185/755/189 190/756/189 196/757/189 191/758/189
f 193/759/190 192/760/190 198/761/190 199/762/190
f 195/763/191 194/764/191 200/765/191 201/766/191
f 191/767/192 196/768/192 202/769/192 197/770/192
f 192/771/193 191/772/193 197/773/193 198/774/193
f 194/775/194 193/776/194 199/777/194 200/778/194
f 196/779/195 195/780/195 201/781/195 202/782/195
f 198/783/196 197/784/196 203/785/196
f 200/786/197 199/787/197 203/788/197
f 202/789/198 201/790/198 203/791/198
f 199/792/199 198/793/199 203/794/199
f 201/795/200 200/796/200 203/797/200
f 197/798/201 202/799/201 203/800/201
